<?xml version="1.0"?>


<svg version="1.1" viewBox="0.0 0.0 960.0 720.0" fill="none" stroke="none" stroke-linecap="square" stroke-miterlimit="10" xmlns="http://www.w3.org/2000/svg" xmlns:xlink="http://www.w3.org/1999/xlink" width="960.0" height="720.0"><clipPath id="p.0"><path d="m0 0l960.0 0l0 720.0l-960.0 0l0 -720.0z" clip-rule="nonzero"></path></clipPath><g clip-path="url(#p.0)"><path fill="#000000" fill-opacity="0.0" d="m0 0l960.0 0l0 720.0l-960.0 0z" fill-rule="nonzero"></path><path fill="#c9daf8" d="m92.871735 249.90096l0 0c-7.618164 -53.06575 17.393776 -105.59761 64.42233 -135.3044c47.028564 -29.706787 107.82593 -31.378563 156.59357 -4.305931l0 0c17.274994 -30.854622 48.89325 -52.157616 85.29089 -57.46523c36.397644 -5.307617 73.29959 6.0035477 99.54376 30.512074l0 0c14.716064 -27.974785 43.61133 -46.770267 76.43219 -49.71683c32.820923 -2.9465637 64.922485 10.372803 84.91345 35.2317l0 0c26.586731 -29.653206 68.8869 -42.138435 108.596924 -32.05327c39.710083 10.085171 69.697754 40.92936 76.98724 79.186104l0 0c32.573242 8.421631 59.706055 29.830544 74.388245 58.695366c14.682129 28.864807 15.473328 62.35396 2.1691895 91.81491l0 0c32.075134 39.569244 39.57831 92.29483 19.709473 138.50046c-19.868835 46.205627 -64.12463 78.94943 -116.25189 86.012024c-0.36743164 43.36566 -25.45874 83.15741 -65.60272 104.03784c-40.143982 20.880493 -89.07196 19.58899 -127.92499 -3.3765259c-16.549316 51.937805 -63.130127 90.1532 -119.6178 98.13562c-56.4877 7.982483 -112.75571 -15.699036 -144.49417 -60.81317c-38.904755 22.236938 -85.58719 28.64264 -129.51674 17.772217c-43.92955 -10.870422 -81.40576 -38.10132 -103.97479 -75.54999l0 0c-39.75576 4.409668 -78.194084 -15.113892 -96.238174 -48.881287c-18.044088 -33.767365 -11.852785 -74.59024 15.501186 -102.208374l0 0c-35.463165 -19.784332 -53.55861 -59.043 -44.85027 -97.30414c8.708342 -38.26114 42.247124 -66.854675 83.1272 -70.87016z" fill-rule="nonzero"></path><path fill="#000000" fill-opacity="0.0" d="m53.80896 420.12048l0 0c16.735176 9.336273 36.06823 13.571442 55.403374 12.136841m25.324898 138.95618c8.314819 -0.9222412 16.464935 -2.8753052 24.240143 -5.808716m209.23975 63.584106c-5.8480835 -8.312744 -10.744446 -17.195557 -14.60556 -26.497192m278.72766 -10.826843l0 0c3.017212 -9.469055 4.972046 -19.214783 5.8320312 -29.074524m187.68835 -71.58313c0.39117432 -46.169403 -27.274536 -88.4426 -71.11389 -108.66199m167.6554 -115.84564c-7.0996704 15.721558 -17.93805 29.667908 -31.665405 40.745636m-44.885376 -191.26003l0 0c1.2096558 6.3487167 1.7695312 12.792862 1.6717529 19.243088m-187.25275 -66.37401l0 0c-6.63208 7.397003 -12.096008 15.663055 -16.22174 24.540771m-145.12546 -10.058868l0 0c-3.5343323 6.718643 -6.173523 13.828117 -7.8568115 21.16465m-176.98053 5.7890625l0 0c10.319183 5.728554 19.865845 12.623474 28.430267 20.533318m-249.44333 119.07776l0 0c1.0499802 7.3138275 2.7089996 14.537491 4.9615326 21.603378" fill-rule="nonzero"></path><path stroke="#4a86e8" stroke-width="2.0" stroke-linejoin="round" stroke-linecap="butt" d="m92.871735 249.90096l0 0c-7.618164 -53.06575 17.393776 -105.59761 64.42233 -135.3044c47.028564 -29.706787 107.82593 -31.378563 156.59357 -4.305931l0 0c17.274994 -30.854622 48.89325 -52.157616 85.29089 -57.46523c36.397644 -5.307617 73.29959 6.0035477 99.54376 30.512074l0 0c14.716064 -27.974785 43.61133 -46.770267 76.43219 -49.71683c32.820923 -2.9465637 64.922485 10.372803 84.91345 35.2317l0 0c26.586731 -29.653206 68.8869 -42.138435 108.596924 -32.05327c39.710083 10.085171 69.697754 40.92936 76.98724 79.186104l0 0c32.573242 8.421631 59.706055 29.830544 74.388245 58.695366c14.682129 28.864807 15.473328 62.35396 2.1691895 91.81491l0 0c32.075134 39.569244 39.57831 92.29483 19.709473 138.50046c-19.868835 46.205627 -64.12463 78.94943 -116.25189 86.012024c-0.36743164 43.36566 -25.45874 83.15741 -65.60272 104.03784c-40.143982 20.880493 -89.07196 19.58899 -127.92499 -3.3765259c-16.549316 51.937805 -63.130127 90.1532 -119.6178 98.13562c-56.4877 7.982483 -112.75571 -15.699036 -144.49417 -60.81317c-38.904755 22.236938 -85.58719 28.64264 -129.51674 17.772217c-43.92955 -10.870422 -81.40576 -38.10132 -103.97479 -75.54999l0 0c-39.75576 4.409668 -78.194084 -15.113892 -96.238174 -48.881287c-18.044088 -33.767365 -11.852785 -74.59024 15.501186 -102.208374l0 0c-35.463165 -19.784332 -53.55861 -59.043 -44.85027 -97.30414c8.708342 -38.26114 42.247124 -66.854675 83.1272 -70.87016z" fill-rule="nonzero"></path><path stroke="#4a86e8" stroke-width="2.0" stroke-linejoin="round" stroke-linecap="butt" d="m53.80896 420.12048l0 0c16.735176 9.336273 36.06823 13.571442 55.403374 12.136841m25.324898 138.95618c8.314819 -0.9222412 16.464935 -2.8753052 24.240143 -5.808716m209.23975 63.584106c-5.8480835 -8.312744 -10.744446 -17.195557 -14.60556 -26.497192m278.72766 -10.826843l0 0c3.017212 -9.469055 4.972046 -19.214783 5.8320312 -29.074524m187.68835 -71.58313c0.39117432 -46.169403 -27.274536 -88.4426 -71.11389 -108.66199m167.6554 -115.84564c-7.0996704 15.721558 -17.93805 29.667908 -31.665405 40.745636m-44.885376 -191.26003l0 0c1.2096558 6.3487167 1.7695312 12.792862 1.6717529 19.243088m-187.25275 -66.37401l0 0c-6.63208 7.397003 -12.096008 15.663055 -16.22174 24.540771m-145.12546 -10.058868l0 0c-3.5343323 6.718643 -6.173523 13.828117 -7.8568115 21.16465m-176.98053 5.7890625l0 0c10.319183 5.728554 19.865845 12.623474 28.430267 20.533318m-249.44333 119.07776l0 0c1.0499802 7.3138275 2.7089996 14.537491 4.9615326 21.603378" fill-rule="nonzero"></path><path fill="#ffffff" d="m696.19934 324.0542l0 0c0 -10.022308 8.124695 -18.146973 18.146973 -18.146973l139.54858 0c4.812866 0 9.42865 1.9118958 12.831848 5.3151245c3.4031982 3.4032288 5.3151245 8.018982 5.3151245 12.831848l0 72.58792c0 10.022308 -8.124695 18.147003 -18.146973 18.147003l-139.54858 0c-10.022278 0 -18.146973 -8.124695 -18.146973 -18.147003z" fill-rule="nonzero"></path><path stroke="#000000" stroke-width="1.0" stroke-linejoin="round" stroke-linecap="butt" d="m696.19934 324.0542l0 0c0 -10.022308 8.124695 -18.146973 18.146973 -18.146973l139.54858 0c4.812866 0 9.42865 1.9118958 12.831848 5.3151245c3.4031982 3.4032288 5.3151245 8.018982 5.3151245 12.831848l0 72.58792c0 10.022308 -8.124695 18.147003 -18.146973 18.147003l-139.54858 0c-10.022278 0 -18.146973 -8.124695 -18.146973 -18.147003z" fill-rule="nonzero"></path><path fill="#000000" d="m763.65186 372.06818l-3.015625 0l0 -10.515625l-11.46875 0l0 10.515625l-3.0 0l0 -22.75l3.0 0l0 9.78125l11.46875 0l0 -9.78125l3.015625 0l0 22.75zm21.046875 -20.28125l-7.3125 0l0 20.28125l-2.984375 0l0 -20.28125l-7.296875 0l0 -2.46875l17.59375 0l0 2.46875zm19.09375 0l-7.3125 0l0 20.28125l-2.984375 0l0 -20.28125l-7.296875 0l0 -2.46875l17.59375 0l0 2.46875zm6.375 11.375l0 8.90625l-3.0 0l0 -22.75l8.390625 0q3.734375 0 5.84375 1.90625q2.125 1.90625 2.125 5.046875q0 3.3125 -2.078125 5.109375q-2.0625 1.78125 -5.921875 1.78125l-5.359375 0zm0 -2.453125l5.390625 0q2.40625 0 3.6875 -1.125q1.28125 -1.140625 1.28125 -3.28125q0 -2.03125 -1.28125 -3.25q-1.28125 -1.21875 -3.515625 -1.265625l-5.5625 0l0 8.921875z" fill-rule="nonzero"></path><path fill="#ffffff" d="m537.651 109.79167l0 0c0 -10.022308 8.124634 -18.146988 18.146973 -18.146988l139.54852 0c4.8129272 0 9.42865 1.911911 12.831848 5.315132c3.4032593 3.4032211 5.3151855 8.018974 5.3151855 12.831856l0 72.58792c0 10.022308 -8.124695 18.146988 -18.147034 18.146988l-139.54852 0c-10.022339 0 -18.146973 -8.12468 -18.146973 -18.146988z" fill-rule="nonzero"></path><path stroke="#000000" stroke-width="1.0" stroke-linejoin="round" stroke-linecap="butt" d="m537.651 109.79167l0 0c0 -10.022308 8.124634 -18.146988 18.146973 -18.146988l139.54852 0c4.8129272 0 9.42865 1.911911 12.831848 5.315132c3.4032593 3.4032211 5.3151855 8.018974 5.3151855 12.831856l0 72.58792c0 10.022308 -8.124695 18.146988 -18.147034 18.146988l-139.54852 0c-10.022339 0 -18.146973 -8.12468 -18.146973 -18.146988z" fill-rule="nonzero"></path><path fill="#000000" d="m607.75977 157.80563l0 -22.75l6.421875 0q2.96875 0 5.25 1.3125q2.28125 1.3125 3.515625 3.734375q1.25 2.421875 1.265625 5.5625l0 1.453125q0 3.21875 -1.25 5.640625q-1.234375 2.421875 -3.546875 3.71875q-2.296875 1.296875 -5.359375 1.328125l-6.296875 0zm3.0 -20.28125l0 17.828125l3.15625 0q3.46875 0 5.390625 -2.15625q1.9375 -2.15625 1.9375 -6.140625l0 -1.328125q0 -3.875 -1.828125 -6.015625q-1.8125 -2.15625 -5.15625 -2.1875l-3.5 0zm17.984375 20.28125l0 -22.75l7.4375 0q3.703125 0 5.5625 1.53125q1.875 1.53125 1.875 4.53125q0 1.59375 -0.90625 2.828125q-0.90625 1.21875 -2.46875 1.890625q1.84375 0.515625 2.90625 1.96875q1.078125 1.4375 1.078125 3.4375q0 3.0625 -1.984375 4.8125q-1.984375 1.75 -5.609375 1.75l-7.890625 0zm3.0 -10.640625l0 8.1875l4.953125 0q2.09375 0 3.296875 -1.078125q1.21875 -1.09375 1.21875 -3.0q0 -4.109375 -4.46875 -4.109375l-5.0 0zm0 -2.40625l4.53125 0q1.96875 0 3.140625 -0.984375q1.1875 -0.984375 1.1875 -2.671875q0 -1.875 -1.09375 -2.71875q-1.09375 -0.859375 -3.328125 -0.859375l-4.4375 0l0 7.234375z" fill-rule="nonzero"></path><path fill="#ffffff" d="m192.6419 454.11975l0 0c0 -10.022278 8.12468 -18.146973 18.146988 -18.146973l139.54854 0c4.8128967 0 9.42865 1.9118958 12.831879 5.3151245c3.4031982 3.4032288 5.3151245 8.018982 5.3151245 12.831848l0 72.58795c0 10.022278 -8.124695 18.146973 -18.147003 18.146973l-139.54854 0c-10.022308 0 -18.146988 -8.124695 -18.146988 -18.146973z" fill-rule="nonzero"></path><path stroke="#000000" stroke-width="1.0" stroke-linejoin="round" stroke-linecap="butt" d="m192.6419 454.11975l0 0c0 -10.022278 8.12468 -18.146973 18.146988 -18.146973l139.54854 0c4.8128967 0 9.42865 1.9118958 12.831879 5.3151245c3.4031982 3.4032288 5.3151245 8.018982 5.3151245 12.831848l0 72.58795c0 10.022278 -8.124695 18.146973 -18.147003 18.146973l-139.54854 0c-10.022308 0 -18.146988 -8.124695 -18.146988 -18.146973z" fill-rule="nonzero"></path><path fill="#000000" d="m236.54755 493.22748l0 8.90625l-3.0 0l0 -22.75l8.390625 0q3.734375 0 5.84375 1.90625q2.125 1.90625 2.125 5.046875q0 3.3125 -2.078125 5.109375q-2.0625 1.78125 -5.921875 1.78125l-5.359375 0zm0 -2.453125l5.390625 0q2.40625 0 3.6875 -1.125q1.28125 -1.140625 1.28125 -3.28125q0 -2.03125 -1.28125 -3.25q-1.28125 -1.21875 -3.515625 -1.265625l-5.5625 0l0 8.921875zm22.265625 7.125l3.9375 -12.671875l3.09375 0l-6.796875 19.515625q-1.578125 4.21875 -5.015625 4.21875l-0.546875 -0.046875l-1.078125 -0.203125l0 -2.34375l0.78125 0.0625q1.46875 0 2.28125 -0.59375q0.828125 -0.59375 1.359375 -2.171875l0.640625 -1.71875l-6.03125 -16.71875l3.15625 0l4.21875 12.671875zm13.53125 -16.765625l0 4.09375l3.15625 0l0 2.234375l-3.15625 0l0 10.484375q0 1.015625 0.421875 1.53125q0.421875 0.5 1.4375 0.5q0.5 0 1.375 -0.1875l0 2.34375q-1.140625 0.3125 -2.21875 0.3125q-1.9375 0 -2.921875 -1.171875q-0.984375 -1.171875 -0.984375 -3.328125l0 -10.484375l-3.078125 0l0 -2.234375l3.078125 0l0 -4.09375l2.890625 0zm9.421875 6.140625q1.921875 -2.359375 5.0 -2.359375q5.359375 0 5.40625 6.046875l0 11.171875l-2.890625 0l0 -11.1875q-0.015625 -1.828125 -0.84375 -2.703125q-0.8125 -0.875 -2.546875 -0.875q-1.40625 0 -2.46875 0.75q-1.0625 0.75 -1.65625 1.96875l0 12.046875l-2.890625 0l0 -24.0l2.890625 0l0 9.140625zm13.96875 6.25q0 -2.484375 0.96875 -4.46875q0.984375 -1.984375 2.71875 -3.0625q1.75 -1.078125 3.984375 -1.078125q3.453125 0 5.578125 2.390625q2.140625 2.390625 2.140625 6.359375l0 0.203125q0 2.46875 -0.953125 4.4375q-0.9375 1.953125 -2.703125 3.046875q-1.75 1.09375 -4.03125 1.09375q-3.4375 0 -5.578125 -2.390625q-2.125 -2.390625 -2.125 -6.328125l0 -0.203125zm2.90625 0.34375q0 2.8125 1.296875 4.515625q1.3125 1.703125 3.5 1.703125q2.203125 0 3.5 -1.71875q1.296875 -1.734375 1.296875 -4.84375q0 -2.78125 -1.328125 -4.5q-1.3125 -1.734375 -3.5 -1.734375q-2.140625 0 -3.453125 1.703125q-1.3125 1.703125 -1.3125 4.875zm18.84375 -8.640625l0.09375 2.125q1.9375 -2.4375 5.0625 -2.4375q5.359375 0 5.40625 6.046875l0 11.171875l-2.890625 0l0 -11.1875q-0.015625 -1.828125 -0.84375 -2.703125q-0.8125 -0.875 -2.546875 -0.875q-1.40625 0 -2.46875 0.75q-1.0625 0.75 -1.65625 1.96875l0 12.046875l-2.890625 0l0 -16.90625l2.734375 0z" fill-rule="nonzero"></path><path fill="#d9d9d9" d="m411.47488 353.84592l0 0c0 -10.022278 8.124695 -18.146973 18.146973 -18.146973l139.54855 0c4.812866 0 9.42865 1.9119263 12.831848 5.3151245c3.4032593 3.4032288 5.3151245 8.018982 5.3151245 12.831848l0 72.58795c0 10.022278 -8.124634 18.146973 -18.146973 18.146973l-139.54855 0c-10.022278 0 -18.146973 -8.124695 -18.146973 -18.146973z" fill-rule="nonzero"></path><path stroke="#666666" stroke-width="1.0" stroke-linejoin="round" stroke-linecap="butt" d="m411.47488 353.84592l0 0c0 -10.022278 8.124695 -18.146973 18.146973 -18.146973l139.54855 0c4.812866 0 9.42865 1.9119263 12.831848 5.3151245c3.4032593 3.4032288 5.3151245 8.018982 5.3151245 12.831848l0 72.58795c0 10.022278 -8.124634 18.146973 -18.146973 18.146973l-139.54855 0c-10.022278 0 -18.146973 -8.124695 -18.146973 -18.146973z" fill-rule="nonzero"></path><path fill="#000000" d="m477.39615 391.54675l0 4.453125l-1.5 0l0 -11.375l4.1875 0q1.875 0 2.921875 0.953125q1.0625 0.953125 1.0625 2.515625q0 1.65625 -1.03125 2.5625q-1.03125 0.890625 -2.96875 0.890625l-2.671875 0zm0 -1.234375l2.6875 0q1.203125 0 1.84375 -0.5625q0.640625 -0.5625 0.640625 -1.640625q0 -1.015625 -0.640625 -1.625q-0.640625 -0.609375 -1.75 -0.625l-2.78125 0l0 4.453125zm11.125 3.5625l1.96875 -6.328125l1.546875 0l-3.390625 9.765625q-0.796875 2.109375 -2.515625 2.109375l-0.265625 -0.03125l-0.546875 -0.09375l0 -1.171875l0.390625 0.03125q0.734375 0 1.140625 -0.296875q0.421875 -0.296875 0.6875 -1.09375l0.3125 -0.859375l-3.015625 -8.359375l1.578125 0l2.109375 6.328125zm6.7734375 -8.375l0 2.046875l1.578125 0l0 1.109375l-1.578125 0l0 5.25q0 0.5 0.203125 0.765625q0.21875 0.25 0.71875 0.25q0.25 0 0.6875 -0.09375l0 1.171875q-0.5625 0.15625 -1.109375 0.15625q-0.96875 0 -1.46875 -0.578125q-0.484375 -0.59375 -0.484375 -1.671875l0 -5.25l-1.53125 0l0 -1.109375l1.53125 0l0 -2.046875l1.453125 0zm4.7109375 3.0625q0.953125 -1.171875 2.5 -1.171875q2.671875 0 2.703125 3.015625l0 5.59375l-1.453125 0l0 -5.59375q0 -0.921875 -0.421875 -1.359375q-0.40625 -0.4375 -1.265625 -0.4375q-0.703125 0 -1.234375 0.375q-0.53125 0.375 -0.828125 0.984375l0 6.03125l-1.453125 0l0 -12.0l1.453125 0l0 4.5625zm6.984375 3.125q0 -1.234375 0.484375 -2.21875q0.484375 -1.0 1.359375 -1.53125q0.875 -0.546875 1.984375 -0.546875q1.7344055 0 2.7969055 1.203125q1.0625 1.1875 1.0625 3.171875l0 0.09375q0 1.234375 -0.46875 2.21875q-0.46875 0.984375 -1.359375 1.53125q-0.8750305 0.546875 -2.0156555 0.546875q-1.71875 0 -2.78125 -1.1875q-1.0625 -1.203125 -1.0625 -3.171875l0 -0.109375zm1.453125 0.171875q0 1.40625 0.640625 2.265625q0.65625 0.84375 1.75 0.84375q1.109375 0 1.7500305 -0.859375q0.65625 -0.859375 0.65625 -2.421875q0 -1.390625 -0.671875 -2.25q-0.6562805 -0.859375 -1.7500305 -0.859375q-1.0625 0 -1.71875 0.859375q-0.65625 0.84375 -0.65625 2.421875zm9.4219055 -4.3125l0.046875 1.0625q0.96875 -1.21875 2.53125 -1.21875q2.671875 0 2.703125 3.015625l0 5.59375l-1.453125 0l0 -5.59375q0 -0.921875 -0.421875 -1.359375q-0.40625 -0.4375 -1.265625 -0.4375q-0.703125 0 -1.234375 0.375q-0.53125 0.375 -0.828125 0.984375l0 6.03125l-1.453125 0l0 -8.453125l1.375 0z" fill-rule="nonzero"></path><path fill="#d9d9d9" d="m428.78098 371.15204l0 0c0 -10.022308 8.124695 -18.146973 18.147003 -18.146973l139.54852 0c4.8129272 0 9.42865 1.9118958 12.831848 5.3151245c3.4032593 3.4032288 5.3151855 8.018982 5.3151855 12.831848l0 72.58792c0 10.022308 -8.124695 18.147003 -18.147034 18.147003l-139.54852 0c-10.022308 0 -18.147003 -8.124695 -18.147003 -18.147003z" fill-rule="nonzero"></path><path stroke="#666666" stroke-width="1.0" stroke-linejoin="round" stroke-linecap="butt" d="m428.78098 371.15204l0 0c0 -10.022308 8.124695 -18.146973 18.147003 -18.146973l139.54852 0c4.8129272 0 9.42865 1.9118958 12.831848 5.3151245c3.4032593 3.4032288 5.3151855 8.018982 5.3151855 12.831848l0 72.58792c0 10.022308 -8.124695 18.147003 -18.147034 18.147003l-139.54852 0c-10.022308 0 -18.147003 -8.124695 -18.147003 -18.147003z" fill-rule="nonzero"></path><path fill="#000000" d="m494.70224 408.85287l0 4.453125l-1.5 0l0 -11.375l4.1875 0q1.875 0 2.921875 0.953125q1.0625 0.953125 1.0625 2.515625q0 1.65625 -1.03125 2.5625q-1.03125 0.890625 -2.96875 0.890625l-2.671875 0zm0 -1.234375l2.6875 0q1.203125 0 1.84375 -0.5625q0.640625 -0.5625 0.640625 -1.640625q0 -1.015625 -0.640625 -1.625q-0.640625 -0.609375 -1.75 -0.625l-2.78125 0l0 4.453125zm11.125 3.5625l1.96875 -6.328125l1.546875 0l-3.390625 9.765625q-0.796875 2.109375 -2.515625 2.109375l-0.265625 -0.03125l-0.546875 -0.09375l0 -1.171875l0.390625 0.03125q0.734375 0 1.140625 -0.296875q0.421875 -0.296875 0.6875 -1.09375l0.3125 -0.859375l-3.015625 -8.359375l1.578125 0l2.109375 6.328125zm6.773468 -8.375l0 2.046875l1.578125 0l0 1.109375l-1.578125 0l0 5.25q0 0.5 0.203125 0.765625q0.21875 0.25 0.71875 0.25q0.25 0 0.6875 -0.09375l0 1.171875q-0.5625 0.15625 -1.109375 0.15625q-0.96875 0 -1.4687805 -0.578125q-0.484375 -0.59375 -0.484375 -1.671875l0 -5.25l-1.53125 0l0 -1.109375l1.53125 0l0 -2.046875l1.4531555 0zm4.7109375 3.0625q0.953125 -1.171875 2.5 -1.171875q2.671875 0 2.703125 3.015625l0 5.59375l-1.453125 0l0 -5.59375q0 -0.921875 -0.421875 -1.359375q-0.40625 -0.4375 -1.265625 -0.4375q-0.703125 0 -1.234375 0.375q-0.53125 0.375 -0.828125 0.984375l0 6.03125l-1.453125 0l0 -12.0l1.453125 0l0 4.5625zm6.984375 3.125q0 -1.234375 0.484375 -2.21875q0.484375 -1.0 1.359375 -1.53125q0.875 -0.546875 1.984375 -0.546875q1.734375 0 2.796875 1.203125q1.0625 1.1875 1.0625 3.171875l0 0.09375q0 1.234375 -0.46875 2.21875q-0.46875 0.984375 -1.359375 1.53125q-0.875 0.546875 -2.015625 0.546875q-1.71875 0 -2.78125 -1.1875q-1.0625 -1.203125 -1.0625 -3.171875l0 -0.109375zm1.453125 0.171875q0 1.40625 0.640625 2.265625q0.65625 0.84375 1.75 0.84375q1.109375 0 1.75 -0.859375q0.65625 -0.859375 0.65625 -2.421875q0 -1.390625 -0.671875 -2.25q-0.65625 -0.859375 -1.75 -0.859375q-1.0625 0 -1.71875 0.859375q-0.65625 0.84375 -0.65625 2.421875zm9.421875 -4.3125l0.046875 1.0625q0.96875 -1.21875 2.53125 -1.21875q2.671875 0 2.703125 3.015625l0 5.59375l-1.453125 0l0 -5.59375q0 -0.921875 -0.421875 -1.359375q-0.40625 -0.4375 -1.265625 -0.4375q-0.703125 0 -1.234375 0.375q-0.53125 0.375 -0.828125 0.984375l0 6.03125l-1.453125 0l0 -8.453125l1.375 0z" fill-rule="nonzero"></path><path fill="#d9d9d9" d="m446.0871 388.45816l0 0c0 -10.022308 8.124664 -18.146973 18.146973 -18.146973l139.54852 0c4.8129272 0 9.42865 1.9118958 12.831909 5.3151245c3.4031982 3.4031982 5.3151245 8.018982 5.3151245 12.831848l0 72.58792c0 10.022308 -8.124695 18.146973 -18.147034 18.146973l-139.54852 0c-10.022308 0 -18.146973 -8.124664 -18.146973 -18.146973z" fill-rule="nonzero"></path><path stroke="#666666" stroke-width="1.0" stroke-linejoin="round" stroke-linecap="butt" d="m446.0871 388.45816l0 0c0 -10.022308 8.124664 -18.146973 18.146973 -18.146973l139.54852 0c4.8129272 0 9.42865 1.9118958 12.831909 5.3151245c3.4031982 3.4031982 5.3151245 8.018982 5.3151245 12.831848l0 72.58792c0 10.022308 -8.124695 18.146973 -18.147034 18.146973l-139.54852 0c-10.022308 0 -18.146973 -8.124664 -18.146973 -18.146973z" fill-rule="nonzero"></path><path fill="#000000" d="m512.00836 426.159l0 4.453125l-1.5000305 0l0 -11.375l4.1875305 0q1.875 0 2.921875 0.953125q1.0625 0.953125 1.0625 2.515625q0 1.65625 -1.03125 2.5625q-1.03125 0.890625 -2.96875 0.890625l-2.671875 0zm0 -1.234375l2.6875 0q1.203125 0 1.84375 -0.5625q0.640625 -0.5625 0.640625 -1.640625q0 -1.015625 -0.640625 -1.625q-0.640625 -0.609375 -1.75 -0.625l-2.78125 0l0 4.453125zm11.125 3.5625l1.96875 -6.328125l1.546875 0l-3.390625 9.765625q-0.796875 2.109375 -2.515625 2.109375l-0.265625 -0.03125l-0.546875 -0.09375l0 -1.171875l0.390625 0.03125q0.734375 0 1.140625 -0.296875q0.421875 -0.296875 0.6875 -1.09375l0.3125 -0.859375l-3.015625 -8.359375l1.578125 0l2.109375 6.328125zm6.7734375 -8.375l0 2.046875l1.578125 0l0 1.109375l-1.578125 0l0 5.25q0 0.5 0.203125 0.765625q0.21875 0.25 0.71875 0.25q0.25 0 0.6875 -0.09375l0 1.171875q-0.5625 0.15625 -1.109375 0.15625q-0.96875 0 -1.46875 -0.578125q-0.484375 -0.59375 -0.484375 -1.671875l0 -5.25l-1.53125 0l0 -1.109375l1.53125 0l0 -2.046875l1.453125 0zm4.7109375 3.0625q0.953125 -1.171875 2.5 -1.171875q2.671875 0 2.703125 3.015625l0 5.59375l-1.453125 0l0 -5.59375q0 -0.921875 -0.421875 -1.359375q-0.40625 -0.4375 -1.265625 -0.4375q-0.703125 0 -1.234375 0.375q-0.53125 0.375 -0.828125 0.984375l0 6.03125l-1.453125 0l0 -12.0l1.453125 0l0 4.5625zm6.984375 3.125q0 -1.234375 0.484375 -2.21875q0.484375 -1.0 1.359375 -1.53125q0.875 -0.546875 1.984375 -0.546875q1.734375 0 2.796875 1.203125q1.0625 1.1875 1.0625 3.171875l0 0.09375q0 1.234375 -0.46875 2.21875q-0.46875 0.984375 -1.359375 1.53125q-0.875 0.546875 -2.015625 0.546875q-1.71875 0 -2.78125 -1.1875q-1.0625 -1.203125 -1.0625 -3.171875l0 -0.109375zm1.453125 0.171875q0 1.40625 0.640625 2.265625q0.65625 0.84375 1.75 0.84375q1.109375 0 1.75 -0.859375q0.65625 -0.859375 0.65625 -2.421875q0 -1.390625 -0.671875 -2.25q-0.65625 -0.859375 -1.75 -0.859375q-1.0625 0 -1.71875 0.859375q-0.65625 0.84375 -0.65625 2.421875zm9.421875 -4.3125l0.046875 1.0625q0.96875 -1.21875 2.53125 -1.21875q2.671875 0 2.703125 3.015625l0 5.59375l-1.453125 0l0 -5.59375q0 -0.921875 -0.421875 -1.359375q-0.40625 -0.4375 -1.265625 -0.4375q-0.703125 0 -1.234375 0.375q-0.53125 0.375 -0.828125 0.984375l0 6.03125l-1.453125 0l0 -8.453125l1.375 0z" fill-rule="nonzero"></path><path fill="#ffffff" d="m463.3932 405.76428l0 0c0 -10.022308 8.124664 -18.147003 18.146973 -18.147003l139.54858 0c4.812866 0 9.428589 1.9119263 12.831848 5.315155c3.4031982 3.4031982 5.3151245 8.018951 5.3151245 12.831848l0 72.58792c0 10.022308 -8.124695 18.146973 -18.146973 18.146973l-139.54858 0c-10.022308 0 -18.146973 -8.124664 -18.146973 -18.146973z" fill-rule="nonzero"></path><path stroke="#000000" stroke-width="1.0" stroke-linejoin="round" stroke-linecap="butt" d="m463.3932 405.76428l0 0c0 -10.022308 8.124664 -18.147003 18.146973 -18.147003l139.54858 0c4.812866 0 9.428589 1.9119263 12.831848 5.315155c3.4031982 3.4031982 5.3151245 8.018951 5.3151245 12.831848l0 72.58792c0 10.022308 -8.124695 18.146973 -18.146973 18.146973l-139.54858 0c-10.022308 0 -18.146973 -8.124664 -18.146973 -18.146973z" fill-rule="nonzero"></path><path fill="#000000" d="m519.9629 443.6376q-3.859375 -1.109375 -5.625 -2.71875q-1.75 -1.625 -1.75 -4.0q0 -2.6875 2.140625 -4.4375q2.15625 -1.765625 5.59375 -1.765625q2.34375 0 4.171875 0.90625q1.84375 0.90625 2.84375 2.5q1.015625 1.59375 1.015625 3.484375l-3.015625 0q0 -2.0625 -1.3125 -3.234375q-1.3125 -1.1875 -3.703125 -1.1875q-2.21875 0 -3.46875 0.984375q-1.234375 0.96875 -1.234375 2.703125q0 1.390625 1.171875 2.359375q1.1875 0.953125 4.015625 1.75q2.84375 0.796875 4.4375 1.765625q1.609375 0.953125 2.375 2.234375q0.78125 1.28125 0.78125 3.015625q0 2.765625 -2.15625 4.4375q-2.15625 1.65625 -5.765625 1.65625q-2.34375 0 -4.375 -0.890625q-2.03125 -0.90625 -3.140625 -2.46875q-1.09375 -1.5625 -1.09375 -3.546875l3.015625 0q0 2.0625 1.515625 3.265625q1.53125 1.1875 4.078125 1.1875q2.375 0 3.640625 -0.96875q1.265625 -0.96875 1.265625 -2.640625q0 -1.671875 -1.171875 -2.578125q-1.171875 -0.921875 -4.25 -1.8125zm26.109375 1.875q0 3.859375 -1.765625 6.21875q-1.765625 2.359375 -4.78125 2.359375q-3.078125 0 -4.84375 -1.953125l0 8.140625l-2.890625 0l0 -23.40625l2.640625 0l0.140625 1.875q1.765625 -2.1875 4.90625 -2.1875q3.046875 0 4.8125 2.296875q1.78125 2.296875 1.78125 6.390625l0 0.265625zm-2.890625 -0.328125q0 -2.859375 -1.21875 -4.515625q-1.21875 -1.65625 -3.34375 -1.65625q-2.625 0 -3.9375 2.328125l0 8.078125q1.296875 2.3125 3.96875 2.3125q2.078125 0 3.296875 -1.640625q1.234375 -1.65625 1.234375 -4.90625zm17.0 8.59375q-0.25 -0.5 -0.40625 -1.78125q-2.015625 2.09375 -4.8125 2.09375q-2.5 0 -4.109375 -1.40625q-1.59375 -1.421875 -1.59375 -3.59375q0 -2.640625 2.0 -4.09375q2.015625 -1.46875 5.65625 -1.46875l2.8125 0l0 -1.328125q0 -1.515625 -0.90625 -2.40625q-0.90625 -0.90625 -2.671875 -0.90625q-1.546875 0 -2.59375 0.78125q-1.046875 0.78125 -1.046875 1.890625l-2.90625 0q0 -1.265625 0.890625 -2.4375q0.90625 -1.1875 2.4375 -1.875q1.546875 -0.6875 3.390625 -0.6875q2.921875 0 4.578125 1.46875q1.65625 1.453125 1.71875 4.015625l0 7.78125q0 2.328125 0.59375 3.703125l0 0.25l-3.03125 0zm-4.796875 -2.203125q1.359375 0 2.578125 -0.703125q1.21875 -0.703125 1.765625 -1.828125l0 -3.46875l-2.265625 0q-5.3125 0 -5.3125 3.109375q0 1.359375 0.90625 2.125q0.90625 0.765625 2.328125 0.765625zm19.9375 -12.109375q-0.65625 -0.109375 -1.421875 -0.109375q-2.84375 0 -3.859375 2.421875l0 12.0l-2.890625 0l0 -16.90625l2.8125 0l0.046875 1.953125q1.421875 -2.265625 4.03125 -2.265625q0.84375 0 1.28125 0.21875l0 2.6875zm7.375 6.484375l-1.8125 1.890625l0 5.9375l-2.890625 0l0 -24.0l2.890625 0l0 14.515625l1.546875 -1.859375l5.265625 -5.5625l3.515625 0l-6.578125 7.0625l7.34375 9.84375l-3.390625 0l-5.890625 -7.828125z" fill-rule="nonzero"></path><path fill="#ffffff" d="m137.94147 218.58513l0 0c0 -10.022308 8.12468 -18.146988 18.146988 -18.146988l139.54857 0c4.812866 0 9.428619 1.911911 12.831848 5.31514c3.4031982 3.4032135 5.3151245 8.018967 5.3151245 12.831848l0 72.58794c0 10.022278 -8.124695 18.146973 -18.146973 18.146973l-139.54857 0c-10.022308 0 -18.146988 -8.124695 -18.146988 -18.146973z" fill-rule="nonzero"></path><path stroke="#000000" stroke-width="1.0" stroke-linejoin="round" stroke-linecap="butt" d="m137.94147 218.58513l0 0c0 -10.022308 8.12468 -18.146988 18.146988 -18.146988l139.54857 0c4.812866 0 9.428619 1.911911 12.831848 5.31514c3.4031982 3.4032135 5.3151245 8.018967 5.3151245 12.831848l0 72.58794c0 10.022278 -8.124695 18.146973 -18.146973 18.146973l-139.54857 0c-10.022308 0 -18.146988 -8.124695 -18.146988 -18.146973z" fill-rule="nonzero"></path><path fill="#000000" d="m207.4096 243.84909l7.4375 18.5625l7.4375 -18.5625l3.890625 0l0 22.75l-3.0 0l0 -8.859375l0.28125 -9.5625l-7.46875 18.421875l-2.296875 0l-7.453125 -18.375l0.296875 9.515625l0 8.859375l-3.0 0l0 -22.75l3.875 0zm41.4375 12.109375q0 3.296875 -1.046875 5.6875q-1.046875 2.375 -2.9375 3.71875l4.0625 3.1875l-2.046875 1.890625l-4.796875 -3.8125q-1.125 0.28125 -2.375 0.28125q-2.6875 0 -4.765625 -1.3125q-2.078125 -1.328125 -3.234375 -3.765625q-1.140625 -2.453125 -1.171875 -5.671875l0 -1.640625q0 -3.28125 1.140625 -5.796875q1.140625 -2.515625 3.21875 -3.84375q2.09375 -1.34375 4.78125 -1.34375q2.75 0 4.828125 1.328125q2.09375 1.328125 3.21875 3.828125q1.125 2.484375 1.125 5.8125l0 1.453125zm-3.0 -1.46875q0 -4.015625 -1.609375 -6.1875q-1.59375 -2.1875 -4.5625 -2.1875q-2.828125 0 -4.46875 2.171875q-1.625 2.15625 -1.671875 6.0l0 1.671875q0 3.90625 1.625 6.15625q1.640625 2.25 4.546875 2.25q2.90625 0 4.5 -2.109375q1.59375 -2.125 1.640625 -6.078125l0 -1.6875z" fill-rule="nonzero"></path><path fill="#000000" fill-opacity="0.0" d="m225.86273 309.32004c0 31.663025 -14.692444 47.030823 -29.110352 63.32605c-14.417923 16.295227 -28.561295 33.517883 -29.110367 58.888153c-0.549057 25.37027 12.496185 58.888153 24.99237 58.888153" fill-rule="nonzero"></path><path stroke="#000000" stroke-width="2.0" stroke-linejoin="round" stroke-linecap="butt" d="m225.86273 309.32004c0 31.663025 -14.692429 47.030853 -29.110352 63.32605c-14.417923 16.295227 -28.56131 33.517914 -29.110367 58.888153c-0.27453613 12.685181 2.8495178 27.407196 7.6042175 38.957916c1.1886902 2.8877258 2.4792633 5.577179 3.844162 7.987091c0.6824341 1.204956 1.3834381 2.3400269 2.099594 3.3950195c0.35806274 0.5274658 0.71990967 1.0349426 1.0851135 1.5211487c0.091293335 0.121520996 0.1828003 0.24176025 0.27450562 0.36062622l0.05784607 0.073913574" fill-rule="evenodd"></path><path fill="#000000" stroke="#000000" stroke-width="2.0" stroke-linecap="butt" d="m180.79262 486.59027l9.398697 2.225891l-5.769058 -7.7464905z" fill-rule="evenodd"></path><path fill="#000000" fill-opacity="0.0" d="m368.48444 490.41373c23.727356 0 32.10211 7.455902 47.454712 15.542725c15.352631 8.0868225 37.683136 16.804596 67.68997 15.542755c30.006805 -1.2619019 67.68997 -12.503387 67.68997 -25.006744" fill-rule="nonzero"></path><path stroke="#000000" stroke-width="2.0" stroke-linejoin="round" stroke-linecap="butt" d="m368.4844 490.41373c23.727386 0 32.10211 7.455902 47.454773 15.542725c15.3526 8.086884 37.683105 16.804596 67.68991 15.542755c15.0034485 -0.6309204 31.925964 -3.756775 45.097595 -8.287842c3.2929077 -1.1327515 6.3513794 -2.353302 9.086792 -3.6446838c1.3677368 -0.64572144 2.6547241 -1.309082 3.8498535 -1.9880676c0.5975952 -0.33947754 1.1722412 -0.6828308 1.7224731 -1.0298462c0.13757324 -0.08673096 0.2736206 -0.17373657 0.4081421 -0.2609253l0.31207275 -0.2052002" fill-rule="evenodd"></path><path fill="#000000" stroke="#000000" stroke-width="2.0" stroke-linecap="butt" d="m546.7461 508.06833l2.8154907 -9.239227l-8.095642 5.2678833z" fill-rule="evenodd"></path><path fill="#000000" fill-opacity="0.0" d="m551.31445 387.61728c0 -46.772583 18.566895 -70.15933 37.13385 -93.545166c18.566895 -23.385834 37.13385 -46.77072 37.13385 -93.54143" fill-rule="nonzero"></path><path stroke="#000000" stroke-width="2.0" stroke-linejoin="round" stroke-linecap="butt" d="m551.31445 387.61728c0 -46.772583 18.566895 -70.15933 37.13385 -93.545166c9.283447 -11.692902 18.566895 -23.38559 25.52948 -38.001404c3.4813232 -7.3078766 6.3823853 -15.346542 8.413147 -24.48143c1.0153809 -4.5674133 1.8132324 -9.40892 2.3571167 -14.570129c0.13598633 -1.2902832 0.25616455 -2.6005707 0.35986328 -3.931549l0.042053223 -0.5647125" fill-rule="evenodd"></path><path fill="#000000" stroke="#000000" stroke-width="2.0" stroke-linecap="butt" d="m628.4513 212.64186l-2.9744263 -9.18927l-3.6282349 8.951324z" fill-rule="evenodd"></path><path fill="#000000" fill-opacity="0.0" d="m225.86273 200.43814c0 -12.499802 80.80737 -33.993347 139.56357 -24.999619c58.756226 8.993729 95.4613 48.474716 139.5636 92.45256c44.102264 43.977844 95.601776 92.452576 191.20352 92.452576" fill-rule="nonzero"></path><path stroke="#000000" stroke-width="2.0" stroke-linejoin="round" stroke-linecap="butt" d="m225.86273 200.43816c0 -12.499817 80.80737 -33.993362 139.56357 -24.999634c58.756226 8.993729 95.461334 48.474716 139.5636 92.45256c22.051178 21.988953 45.95157 45.10208 76.28946 62.718018c15.168945 8.807922 31.947205 16.241577 50.908386 21.473236c9.480591 2.6158142 19.506897 4.6811523 30.150574 6.0925293c5.3218994 0.705719 10.798096 1.2479248 16.437622 1.613678c1.4098511 0.091430664 2.829956 0.17184448 4.260376 0.24102783c0.35760498 0.017303467 0.71588135 0.03390503 1.0747681 0.04977417l0.08514404 0.0036315918" fill-rule="evenodd"></path><path fill="#000000" stroke="#000000" stroke-width="2.0" stroke-linecap="butt" d="m684.12445 363.38565l9.145813 -3.1054993l-9.002258 -3.499878z" fill-rule="evenodd"></path><path fill="#000000" fill-opacity="0.0" d="m784.1206 305.90723c0 -79.90552 -35.307068 -159.81104 -70.614136 -159.81104" fill-rule="nonzero"></path><path stroke="#000000" stroke-width="2.0" stroke-linejoin="round" stroke-linecap="butt" d="m784.12067 305.90723c0 -39.95276 -8.826782 -79.90552 -22.066956 -109.87009c-6.620056 -14.982285 -14.343506 -27.467514 -22.618591 -36.207184c-4.1375732 -4.3698273 -8.412964 -7.8032684 -12.757446 -10.144257c-0.27148438 -0.14630127 -0.54333496 -0.28834534 -0.81536865 -0.42608643c-0.13598633 -0.068878174 -0.27209473 -0.13665771 -0.40826416 -0.2033844l-0.2843628 -0.13699341" fill-rule="evenodd"></path><path fill="#000000" stroke="#000000" stroke-width="2.0" stroke-linecap="butt" d="m725.94684 145.70848l-9.598633 1.0755463l8.044312 5.3459473z" fill-rule="evenodd"></path><path fill="#000000" fill-opacity="0.0" d="m463.3932 442.05823c-37.402344 0 -56.10388 -46.795258 -74.80466 -93.590546c-18.700775 -46.795258 -37.400818 -93.590546 -74.80167 -93.590546" fill-rule="nonzero"></path><path stroke="#000000" stroke-width="2.0" stroke-linejoin="round" stroke-linecap="butt" d="m463.39316 442.05823c-37.402313 0 -56.10382 -46.795258 -74.80463 -93.590546c-9.350372 -23.397644 -18.700562 -46.795288 -30.388306 -64.343506c-5.8438416 -8.774109 -12.272064 -16.085876 -19.576904 -21.204102c-3.6524048 -2.5591125 -7.523987 -4.5698547 -11.651215 -5.940796c-0.25793457 -0.08569336 -0.5168762 -0.16888428 -0.77682495 -0.24957275c-0.13000488 -0.04031372 -0.2602234 -0.08001709 -0.39071655 -0.11907959l-0.13772583 -0.04046631" fill-rule="evenodd"></path><path fill="#000000" stroke="#000000" stroke-width="2.0" stroke-linecap="butt" d="m326.13293 253.29973l-9.451477 1.989914l8.519348 4.550934z" fill-rule="evenodd"></path></g></svg>

