<?xml version="1.0"?>


<svg version="1.1" viewBox="0.0 0.0 529.6902887139107 643.0341207349081" fill="none" stroke="none" stroke-linecap="square" stroke-miterlimit="10" xmlns="http://www.w3.org/2000/svg" xmlns:xlink="http://www.w3.org/1999/xlink" width="529.6902887139107" height="643.0341207349081"><clipPath id="p.0"><path d="m0 0l529.6903 0l0 643.0341l-529.6903 0l0 -643.0341z" clip-rule="nonzero"></path></clipPath><g clip-path="url(#p.0)"><path fill="#000000" fill-opacity="0.0" d="m0 0l529.6903 0l0 643.0341l-529.6903 0z" fill-rule="nonzero"></path><path fill="#cfe2f3" d="m17.52231 13.186352l494.64566 0l0 616.66144l-494.64566 0z" fill-rule="nonzero"></path><path stroke="#000000" stroke-width="1.0" stroke-linejoin="round" stroke-linecap="butt" d="m17.52231 13.186352l494.64566 0l0 616.66144l-494.64566 0z" fill-rule="nonzero"></path><path fill="#000000" d="m344.5913 33.79385q0 1.984375 -0.671875 3.46875q-0.65625 1.46875 -1.890625 2.25q-1.21875 0.78125 -2.84375 0.78125q-1.609375 0 -2.84375 -0.78125q-1.21875 -0.78125 -1.90625 -2.234375q-0.6875 -1.453125 -0.703125 -3.375l0 -0.96875q0 -1.953125 0.671875 -3.4375q0.6875 -1.5 1.921875 -2.28125q1.234375 -0.796875 2.828125 -0.796875q1.625 0 2.859375 0.78125q1.25 0.78125 1.90625 2.28125q0.671875 1.484375 0.671875 3.453125l0 0.859375zm-1.765625 -0.875q0 -2.40625 -0.96875 -3.6875q-0.96875 -1.28125 -2.703125 -1.28125q-1.6875 0 -2.65625 1.28125q-0.96875 1.28125 -1.0 3.5625l0 1.0q0 2.328125 0.984375 3.65625q0.984375 1.328125 2.703125 1.328125q1.71875 0 2.65625 -1.25q0.953125 -1.265625 0.984375 -3.609375l0 -1.0zm12.419922 2.28125q0 2.296875 -1.046875 3.703125q-1.046875 1.390625 -2.84375 1.390625q-1.828125 0 -2.875 -1.15625l0 4.828125l-1.71875 0l0 -13.890625l1.5625 0l0.09375 1.109375q1.046875 -1.296875 2.90625 -1.296875q1.8125 0 2.859375 1.359375q1.0625 1.359375 1.0625 3.796875l0 0.15625zm-1.71875 -0.203125q0 -1.6875 -0.734375 -2.671875q-0.71875 -0.984375 -1.96875 -0.984375q-1.5625 0 -2.34375 1.375l0 4.796875q0.765625 1.375 2.359375 1.375q1.234375 0 1.953125 -0.96875q0.734375 -0.984375 0.734375 -2.921875zm7.8730774 5.296875q-2.046875 0 -3.328125 -1.34375q-1.28125 -1.34375 -1.28125 -3.578125l0 -0.328125q0 -1.484375 0.5625 -2.65625q0.578125 -1.171875 1.59375 -1.828125q1.03125 -0.671875 2.234375 -0.671875q1.953125 0 3.03125 1.296875q1.09375 1.28125 1.09375 3.6875l0 0.703125l-6.796875 0q0.03125 1.484375 0.859375 2.40625q0.84375 0.90625 2.125 0.90625q0.90625 0 1.53125 -0.359375q0.640625 -0.375 1.109375 -0.984375l1.046875 0.8125q-1.265625 1.9375 -3.78125 1.9375zm-0.21875 -9.0q-1.03125 0 -1.75 0.765625q-0.703125 0.75 -0.859375 2.109375l5.015625 0l0 -0.125q-0.0625 -1.3125 -0.703125 -2.03125q-0.625 -0.71875 -1.703125 -0.71875zm7.555664 -1.21875l0.0625 1.25q1.140625 -1.4375 3.0 -1.4375q3.1875 0 3.203125 3.578125l0 6.640625l-1.703125 0l0 -6.640625q-0.015625 -1.09375 -0.5 -1.609375q-0.484375 -0.515625 -1.515625 -0.515625q-0.84375 0 -1.46875 0.453125q-0.625 0.4375 -0.984375 1.15625l0 7.15625l-1.71875 0l0 -10.03125l1.625 0zm12.918732 4.015625q-2.296875 -0.671875 -3.34375 -1.625q-1.03125 -0.953125 -1.03125 -2.375q0 -1.59375 1.265625 -2.625q1.28125 -1.046875 3.328125 -1.046875q1.390625 0 2.46875 0.53125q1.09375 0.53125 1.6875 1.484375q0.609375 0.953125 0.609375 2.0625l-1.796875 0q0 -1.21875 -0.78125 -1.921875q-0.765625 -0.703125 -2.1875 -0.703125q-1.328125 0 -2.0625 0.59375q-0.734375 0.578125 -0.734375 1.609375q0 0.8125 0.703125 1.390625q0.703125 0.5625 2.375 1.046875q1.6875 0.46875 2.640625 1.046875q0.953125 0.5625 1.40625 1.328125q0.46875 0.75 0.46875 1.78125q0 1.640625 -1.28125 2.640625q-1.28125 0.984375 -3.421875 0.984375q-1.390625 0 -2.609375 -0.53125q-1.203125 -0.53125 -1.859375 -1.453125q-0.640625 -0.9375 -0.640625 -2.125l1.78125 0q0 1.234375 0.90625 1.953125q0.90625 0.703125 2.421875 0.703125q1.40625 0 2.15625 -0.578125q0.75 -0.578125 0.75 -1.5625q0 -1.0 -0.703125 -1.546875q-0.6875 -0.546875 -2.515625 -1.0625zm8.536774 -2.8125q1.140625 -1.390625 2.96875 -1.390625q3.1875 0 3.203125 3.578125l0 6.640625l-1.703125 0l0 -6.640625q-0.015625 -1.09375 -0.5 -1.609375q-0.484375 -0.515625 -1.515625 -0.515625q-0.84375 0 -1.46875 0.453125q-0.625 0.4375 -0.984375 1.15625l0 7.15625l-1.71875 0l0 -14.25l1.71875 0l0 5.421875zm10.416138 8.828125l-1.703125 0l0 -10.03125l1.703125 0l0 10.03125zm-1.84375 -12.703125q0 -0.421875 0.25 -0.703125q0.25 -0.28125 0.75 -0.28125q0.515625 0 0.765625 0.28125q0.265625 0.28125 0.265625 0.703125q0 0.421875 -0.265625 0.703125q-0.25 0.265625 -0.765625 0.265625q-0.5 0 -0.75 -0.265625q-0.25 -0.28125 -0.25 -0.703125zm5.3555603 12.703125l0 -8.71875l-1.578125 0l0 -1.3125l1.578125 0l0 -1.03125q0 -1.625 0.859375 -2.5q0.875 -0.875 2.453125 -0.875q0.59375 0 1.171875 0.15625l-0.09375 1.390625q-0.4375 -0.09375 -0.921875 -0.09375q-0.84375 0 -1.296875 0.5q-0.453125 0.484375 -0.453125 1.390625l0 1.0625l2.140625 0l0 1.3125l-2.140625 0l0 8.71875l-1.71875 0zm7.961212 -12.46875l0 2.4375l1.875 0l0 1.3125l-1.875 0l0 6.234375q0 0.59375 0.25 0.90625q0.25 0.296875 0.859375 0.296875q0.296875 0 0.8125 -0.109375l0 1.390625q-0.671875 0.1875 -1.3125 0.1875q-1.15625 0 -1.75 -0.6875q-0.578125 -0.703125 -0.578125 -1.984375l0 -6.234375l-1.828125 0l0 -1.3125l1.828125 0l0 -2.4375l1.71875 0zm16.290894 6.21875l-5.859375 0l0 4.796875l6.8125 0l0 1.453125l-8.59375 0l0 -13.515625l8.5 0l0 1.46875l-6.71875 0l0 4.34375l5.859375 0l0 1.453125zm4.3222046 -3.78125l0.0625 1.25q1.140625 -1.4375 3.0 -1.4375q3.1875 0 3.203125 3.578125l0 6.640625l-1.703125 0l0 -6.640625q-0.015625 -1.09375 -0.5 -1.609375q-0.484375 -0.515625 -1.515625 -0.515625q-0.84375 0 -1.46875 0.453125q-0.625 0.4375 -0.984375 1.15625l0 7.15625l-1.71875 0l0 -10.03125l1.625 0zm10.996887 -2.4375l0 2.4375l1.875 0l0 1.3125l-1.875 0l0 6.234375q0 0.59375 0.25 0.90625q0.25 0.296875 0.859375 0.296875q0.296875 0 0.8125 -0.109375l0 1.390625q-0.671875 0.1875 -1.3125 0.1875q-1.15625 0 -1.75 -0.6875q-0.578125 -0.703125 -0.578125 -1.984375l0 -6.234375l-1.828125 0l0 -1.3125l1.828125 0l0 -2.4375l1.71875 0zm7.9379883 12.65625q-2.046875 0 -3.328125 -1.34375q-1.28125 -1.34375 -1.28125 -3.578125l0 -0.328125q0 -1.484375 0.5625 -2.65625q0.578125 -1.171875 1.59375 -1.828125q1.03125 -0.671875 2.234375 -0.671875q1.953125 0 3.03125 1.296875q1.09375 1.28125 1.09375 3.6875l0 0.703125l-6.796875 0q0.03125 1.484375 0.859375 2.40625q0.84375 0.90625 2.125 0.90625q0.90625 0 1.53125 -0.359375q0.640625 -0.375 1.109375 -0.984375l1.046875 0.8125q-1.265625 1.9375 -3.78125 1.9375zm-0.21875 -9.0q-1.03125 0 -1.75 0.765625q-0.703125 0.75 -0.859375 2.109375l5.015625 0l0 -0.125q-0.0625 -1.3125 -0.703125 -2.03125q-0.625 -0.71875 -1.703125 -0.71875zm10.790039 0.3125q-0.390625 -0.0625 -0.84375 -0.0625q-1.6875 0 -2.296875 1.4375l0 7.125l-1.71875 0l0 -10.03125l1.671875 0l0.03125 1.15625q0.84375 -1.34375 2.390625 -1.34375q0.5 0 0.765625 0.125l0 1.59375zm9.937897 3.59375q0 2.296875 -1.046875 3.703125q-1.046875 1.390625 -2.84375 1.390625q-1.828125 0 -2.875 -1.15625l0 4.828125l-1.71875 0l0 -13.890625l1.5625 0l0.09375 1.109375q1.046875 -1.296875 2.90625 -1.296875q1.8125 0 2.859375 1.359375q1.0625 1.359375 1.0625 3.796875l0 0.15625zm-1.71875 -0.203125q0 -1.6875 -0.734375 -2.671875q-0.71875 -0.984375 -1.96875 -0.984375q-1.5625 0 -2.34375 1.375l0 4.796875q0.765625 1.375 2.359375 1.375q1.234375 0 1.953125 -0.96875q0.734375 -0.984375 0.734375 -2.921875zm8.560577 -3.390625q-0.390625 -0.0625 -0.84375 -0.0625q-1.6875 0 -2.296875 1.4375l0 7.125l-1.71875 0l0 -10.03125l1.671875 0l0.03125 1.15625q0.84375 -1.34375 2.390625 -1.34375q0.5 0 0.765625 0.125l0 1.59375zm3.3128662 8.5l-1.703125 0l0 -10.03125l1.703125 0l0 10.03125zm-1.84375 -12.703125q0 -0.421875 0.25 -0.703125q0.25 -0.28125 0.75 -0.28125q0.515625 0 0.765625 0.28125q0.265625 0.28125 0.265625 0.703125q0 0.421875 -0.265625 0.703125q-0.25 0.265625 -0.765625 0.265625q-0.5 0 -0.75 -0.265625q-0.25 -0.28125 -0.25 -0.703125zm10.35553 10.046875q0 -0.703125 -0.53125 -1.078125q-0.515625 -0.390625 -1.828125 -0.671875q-1.296875 -0.28125 -2.0625 -0.671875q-0.765625 -0.390625 -1.140625 -0.921875q-0.359375 -0.546875 -0.359375 -1.28125q0 -1.234375 1.046875 -2.078125q1.046875 -0.859375 2.671875 -0.859375q1.703125 0 2.765625 0.875q1.0625 0.875 1.0625 2.25l-1.71875 0q0 -0.703125 -0.609375 -1.203125q-0.59375 -0.515625 -1.5 -0.515625q-0.9375 0 -1.46875 0.40625q-0.53125 0.40625 -0.53125 1.0625q0 0.625 0.484375 0.9375q0.5 0.3125 1.78125 0.609375q1.296875 0.28125 2.09375 0.6875q0.796875 0.390625 1.171875 0.953125q0.390625 0.5625 0.390625 1.375q0 1.34375 -1.078125 2.15625q-1.078125 0.8125 -2.796875 0.8125q-1.203125 0 -2.125 -0.421875q-0.921875 -0.4375 -1.453125 -1.203125q-0.53125 -0.765625 -0.53125 -1.65625l1.71875 0q0.046875 0.859375 0.6875 1.375q0.65625 0.5 1.703125 0.5q0.984375 0 1.5625 -0.390625q0.59375 -0.390625 0.59375 -1.046875zm7.947754 2.84375q-2.046875 0 -3.328125 -1.34375q-1.28125 -1.34375 -1.28125 -3.578125l0 -0.328125q0 -1.484375 0.5625 -2.65625q0.578125 -1.171875 1.59375 -1.828125q1.03125 -0.671875 2.234375 -0.671875q1.953125 0 3.03125 1.296875q1.09375 1.28125 1.09375 3.6875l0 0.703125l-6.796875 0q0.03125 1.484375 0.859375 2.40625q0.84375 0.90625 2.125 0.90625q0.90625 0 1.53125 -0.359375q0.640625 -0.375 1.109375 -0.984375l1.046875 0.8125q-1.265625 1.9375 -3.78125 1.9375zm-0.21875 -9.0q-1.03125 0 -1.75 0.765625q-0.703125 0.75 -0.859375 2.109375l5.015625 0l0 -0.125q-0.0625 -1.3125 -0.703125 -2.03125q-0.625 -0.71875 -1.703125 -0.71875z" fill-rule="nonzero"></path><path fill="#ffffff" d="m271.8609 67.419945l224.40945 0l0 262.67715l-224.40945 0z" fill-rule="nonzero"></path><path stroke="#000000" stroke-width="1.0" stroke-linejoin="round" stroke-linecap="butt" d="m271.8609 67.419945l224.40945 0l0 262.67715l-224.40945 0z" fill-rule="nonzero"></path><path fill="#000000" d="m292.81403 94.33994l-1.796875 0l-6.796875 -10.40625l0 10.40625l-1.796875 0l0 -13.515625l1.796875 0l6.8125 10.46875l0 -10.46875l1.78125 0l0 13.515625zm2.1904907 -5.109375q0 -1.484375 0.578125 -2.65625q0.578125 -1.171875 1.609375 -1.8125q1.046875 -0.640625 2.375 -0.640625q2.046875 0 3.3125 1.421875q1.265625 1.40625 1.265625 3.765625l0 0.125q0 1.46875 -0.5625 2.640625q-0.5625 1.15625 -1.609375 1.8125q-1.046875 0.640625 -2.390625 0.640625q-2.046875 0 -3.3125 -1.421875q-1.265625 -1.421875 -1.265625 -3.75l0 -0.125zm1.71875 0.203125q0 1.671875 0.78125 2.6875q0.78125 1.0 2.078125 1.0q1.296875 0 2.0625 -1.015625q0.78125 -1.03125 0.78125 -2.875q0 -1.65625 -0.78125 -2.671875q-0.78125 -1.03125 -2.078125 -1.03125q-1.28125 0 -2.0625 1.015625q-0.78125 1.0 -0.78125 2.890625zm8.952393 -0.203125q0 -2.296875 1.09375 -3.703125q1.109375 -1.40625 2.875 -1.40625q1.765625 0 2.796875 1.203125l0 -5.234375l1.71875 0l0 14.25l-1.578125 0l-0.09375 -1.078125q-1.03125 1.265625 -2.859375 1.265625q-1.75 0 -2.859375 -1.421875q-1.09375 -1.4375 -1.09375 -3.734375l0 -0.140625zm1.71875 0.203125q0 1.703125 0.703125 2.671875q0.71875 0.96875 1.953125 0.96875q1.640625 0 2.390625 -1.46875l0 -4.609375q-0.78125 -1.421875 -2.375 -1.421875q-1.25 0 -1.96875 0.984375q-0.703125 0.96875 -0.703125 2.875zm13.396454 5.09375q-2.046875 0 -3.328125 -1.34375q-1.28125 -1.34375 -1.28125 -3.578125l0 -0.328125q0 -1.484375 0.5625 -2.65625q0.578125 -1.171875 1.59375 -1.828125q1.03125 -0.671875 2.234375 -0.671875q1.953125 0 3.03125 1.296875q1.09375 1.28125 1.09375 3.6875l0 0.703125l-6.796875 0q0.03125 1.484375 0.859375 2.40625q0.84375 0.90625 2.125 0.90625q0.90625 0 1.53125 -0.359375q0.640625 -0.375 1.109375 -0.984375l1.046875 0.8125q-1.265625 1.9375 -3.78125 1.9375zm-0.21875 -9.0q-1.03125 0 -1.75 0.765625q-0.703125 0.75 -0.859375 2.109375l5.015625 0l0 -0.125q-0.0625 -1.3125 -0.703125 -2.03125q-0.625 -0.71875 -1.703125 -0.71875z" fill-rule="nonzero"></path><path fill="#ffffff" d="m33.524933 67.41994l224.40945 0l0 262.6772l-224.40945 0z" fill-rule="nonzero"></path><path stroke="#000000" stroke-width="1.0" stroke-linejoin="round" stroke-linecap="butt" d="m33.524933 67.41994l224.40945 0l0 262.6772l-224.40945 0z" fill-rule="nonzero"></path><path fill="#000000" d="m54.478058 94.339935l-1.796875 0l-6.796875 -10.40625l0 10.40625l-1.796875 0l0 -13.515625l1.796875 0l6.8125 10.46875l0 -10.46875l1.78125 0l0 13.515625zm2.1904907 -5.109375q0 -1.484375 0.578125 -2.65625q0.578125 -1.171875 1.609375 -1.8125q1.046875 -0.640625 2.375 -0.640625q2.046875 0 3.3125 1.421875q1.265625 1.40625 1.265625 3.765625l0 0.125q0 1.46875 -0.5625 2.640625q-0.5625 1.15625 -1.609375 1.8125q-1.046875 0.640625 -2.390625 0.640625q-2.046875 0 -3.3125 -1.421875q-1.265625 -1.421875 -1.265625 -3.75l0 -0.125zm1.71875 0.203125q0 1.671875 0.78125 2.6875q0.78125 1.0 2.078125 1.0q1.296875 0 2.0625 -1.015625q0.78125 -1.03125 0.78125 -2.875q0 -1.65625 -0.78125 -2.671875q-0.78125 -1.03125 -2.078125 -1.03125q-1.28125 0 -2.0625 1.015625q-0.78125 1.0 -0.78125 2.890625zm8.952393 -0.203125q0 -2.296875 1.09375 -3.703125q1.109375 -1.40625 2.875 -1.40625q1.765625 0 2.796875 1.203125l0 -5.234375l1.71875 0l0 14.25l-1.578125 0l-0.09375 -1.078125q-1.03125 1.265625 -2.859375 1.265625q-1.75 0 -2.859375 -1.421875q-1.09375 -1.4375 -1.09375 -3.734375l0 -0.140625zm1.71875 0.203125q0 1.703125 0.703125 2.671875q0.71875 0.96875 1.953125 0.96875q1.640625 0 2.390625 -1.46875l0 -4.609375q-0.78125 -1.421875 -2.375 -1.421875q-1.25 0 -1.96875 0.984375q-0.703125 0.96875 -0.703125 2.875zm13.396469 5.09375q-2.046875 0 -3.328125 -1.34375q-1.28125 -1.34375 -1.28125 -3.578125l0 -0.328125q0 -1.484375 0.5625 -2.65625q0.578125 -1.171875 1.59375 -1.828125q1.03125 -0.671875 2.234375 -0.671875q1.953125 0 3.03125 1.296875q1.09375 1.28125 1.09375 3.6875l0 0.703125l-6.796875 0q0.03125 1.484375 0.859375 2.40625q0.84375 0.90625 2.125 0.90625q0.90625 0 1.53125 -0.359375q0.640625 -0.375 1.109375 -0.984375l1.046875 0.8125q-1.265625 1.9375 -3.78125 1.9375zm-0.21875 -9.0q-1.03125 0 -1.75 0.765625q-0.703125 0.75 -0.859375 2.109375l5.015625 0l0 -0.125q-0.0625 -1.3125 -0.703125 -2.03125q-0.625 -0.71875 -1.703125 -0.71875z" fill-rule="nonzero"></path><path fill="#ffffff" d="m33.472443 348.39633l224.40945 0l0 262.67715l-224.40945 0z" fill-rule="nonzero"></path><path stroke="#000000" stroke-width="1.0" stroke-linejoin="round" stroke-linecap="butt" d="m33.472443 348.39633l224.40945 0l0 262.67715l-224.40945 0z" fill-rule="nonzero"></path><path fill="#000000" d="m54.425568 375.3163l-1.796875 0l-6.796875 -10.40625l0 10.40625l-1.796875 0l0 -13.515625l1.796875 0l6.8125 10.46875l0 -10.46875l1.78125 0l0 13.515625zm2.1904907 -5.109375q0 -1.484375 0.578125 -2.65625q0.578125 -1.171875 1.609375 -1.8125q1.046875 -0.640625 2.375 -0.640625q2.046875 0 3.3125 1.421875q1.265625 1.40625 1.265625 3.765625l0 0.125q0 1.46875 -0.5625 2.640625q-0.5625 1.15625 -1.609375 1.8125q-1.046875 0.640625 -2.390625 0.640625q-2.046875 0 -3.3125 -1.421875q-1.265625 -1.421875 -1.265625 -3.75l0 -0.125zm1.71875 0.203125q0 1.671875 0.78125 2.6875q0.78125 1.0 2.078125 1.0q1.296875 0 2.0625 -1.015625q0.78125 -1.03125 0.78125 -2.875q0 -1.65625 -0.78125 -2.671875q-0.78125 -1.03125 -2.078125 -1.03125q-1.28125 0 -2.0625 1.015625q-0.78125 1.0 -0.78125 2.890625zm8.952393 -0.203125q0 -2.296875 1.09375 -3.703125q1.109375 -1.40625 2.875 -1.40625q1.765625 0 2.796875 1.203125l0 -5.234375l1.71875 0l0 14.25l-1.578125 0l-0.09375 -1.078125q-1.03125 1.265625 -2.859375 1.265625q-1.75 0 -2.859375 -1.421875q-1.09375 -1.4375 -1.09375 -3.734375l0 -0.140625zm1.71875 0.203125q0 1.703125 0.703125 2.671875q0.71875 0.96875 1.953125 0.96875q1.640625 0 2.390625 -1.46875l0 -4.609375q-0.78125 -1.421875 -2.375 -1.421875q-1.25 0 -1.96875 0.984375q-0.703125 0.96875 -0.703125 2.875zm13.396469 5.09375q-2.046875 0 -3.328125 -1.34375q-1.28125 -1.34375 -1.28125 -3.578125l0 -0.328125q0 -1.484375 0.5625 -2.65625q0.578125 -1.171875 1.59375 -1.828125q1.03125 -0.671875 2.234375 -0.671875q1.953125 0 3.03125 1.296875q1.09375 1.28125 1.09375 3.6875l0 0.703125l-6.796875 0q0.03125 1.484375 0.859375 2.40625q0.84375 0.90625 2.125 0.90625q0.90625 0 1.53125 -0.359375q0.640625 -0.375 1.109375 -0.984375l1.046875 0.8125q-1.265625 1.9375 -3.78125 1.9375zm-0.21875 -9.0q-1.03125 0 -1.75 0.765625q-0.703125 0.75 -0.859375 2.109375l5.015625 0l0 -0.125q-0.0625 -1.3125 -0.703125 -2.03125q-0.625 -0.71875 -1.703125 -0.71875z" fill-rule="nonzero"></path><path fill="#ffffff" d="m271.8084 348.39633l224.40942 0l0 262.67715l-224.40942 0z" fill-rule="nonzero"></path><path stroke="#000000" stroke-width="1.0" stroke-linejoin="round" stroke-linecap="butt" d="m271.8084 348.39633l224.40942 0l0 262.67715l-224.40942 0z" fill-rule="nonzero"></path><path fill="#000000" d="m292.76154 375.3163l-1.796875 0l-6.796875 -10.40625l0 10.40625l-1.796875 0l0 -13.515625l1.796875 0l6.8125 10.46875l0 -10.46875l1.78125 0l0 13.515625zm2.1904907 -5.109375q0 -1.484375 0.578125 -2.65625q0.578125 -1.171875 1.609375 -1.8125q1.046875 -0.640625 2.375 -0.640625q2.046875 0 3.3125 1.421875q1.265625 1.40625 1.265625 3.765625l0 0.125q0 1.46875 -0.5625 2.640625q-0.5625 1.15625 -1.609375 1.8125q-1.046875 0.640625 -2.390625 0.640625q-2.046875 0 -3.3125 -1.421875q-1.265625 -1.421875 -1.265625 -3.75l0 -0.125zm1.71875 0.203125q0 1.671875 0.78125 2.6875q0.78125 1.0 2.078125 1.0q1.296875 0 2.0625 -1.015625q0.78125 -1.03125 0.78125 -2.875q0 -1.65625 -0.78125 -2.671875q-0.78125 -1.03125 -2.078125 -1.03125q-1.28125 0 -2.0625 1.015625q-0.78125 1.0 -0.78125 2.890625zm8.952393 -0.203125q0 -2.296875 1.09375 -3.703125q1.109375 -1.40625 2.875 -1.40625q1.765625 0 2.796875 1.203125l0 -5.234375l1.71875 0l0 14.25l-1.578125 0l-0.09375 -1.078125q-1.03125 1.265625 -2.859375 1.265625q-1.75 0 -2.859375 -1.421875q-1.09375 -1.4375 -1.09375 -3.734375l0 -0.140625zm1.71875 0.203125q0 1.703125 0.703125 2.671875q0.71875 0.96875 1.953125 0.96875q1.640625 0 2.390625 -1.46875l0 -4.609375q-0.78125 -1.421875 -2.375 -1.421875q-1.25 0 -1.96875 0.984375q-0.703125 0.96875 -0.703125 2.875zm13.396454 5.09375q-2.046875 0 -3.328125 -1.34375q-1.28125 -1.34375 -1.28125 -3.578125l0 -0.328125q0 -1.484375 0.5625 -2.65625q0.578125 -1.171875 1.59375 -1.828125q1.03125 -0.671875 2.234375 -0.671875q1.953125 0 3.03125 1.296875q1.09375 1.28125 1.09375 3.6875l0 0.703125l-6.796875 0q0.03125 1.484375 0.859375 2.40625q0.84375 0.90625 2.125 0.90625q0.90625 0 1.53125 -0.359375q0.640625 -0.375 1.109375 -0.984375l1.046875 0.8125q-1.265625 1.9375 -3.78125 1.9375zm-0.21875 -9.0q-1.03125 0 -1.75 0.765625q-0.703125 0.75 -0.859375 2.109375l5.015625 0l0 -0.125q-0.0625 -1.3125 -0.703125 -2.03125q-0.625 -0.71875 -1.703125 -0.71875z" fill-rule="nonzero"></path><path fill="#d9ead3" d="m44.698162 113.18517l94.425186 0l0 94.4567l-94.425186 0z" fill-rule="nonzero"></path><path stroke="#000000" stroke-width="1.0" stroke-linejoin="round" stroke-linecap="butt" d="m44.698162 113.18517l94.425186 0l0 94.4567l-94.425186 0z" fill-rule="nonzero"></path><path fill="#000000" d="m76.782005 167.33353l0 -13.59375l5.125 0q1.359375 0 2.078125 0.125q1.0 0.171875 1.671875 0.640625q0.671875 0.46875 1.078125 1.3125q0.421875 0.84375 0.421875 1.84375q0 1.734375 -1.109375 2.9375q-1.09375 1.203125 -3.984375 1.203125l-3.484375 0l0 5.53125l-1.796875 0zm1.796875 -7.140625l3.515625 0q1.75 0 2.46875 -0.640625q0.734375 -0.65625 0.734375 -1.828125q0 -0.859375 -0.4375 -1.46875q-0.421875 -0.609375 -1.125 -0.796875q-0.453125 -0.125 -1.671875 -0.125l-3.484375 0l0 4.859375zm9.802948 2.21875q0 -2.734375 1.53125 -4.0625q1.265625 -1.09375 3.09375 -1.09375q2.03125 0 3.3125 1.34375q1.296875 1.328125 1.296875 3.671875q0 1.90625 -0.578125 3.0q-0.5625 1.078125 -1.65625 1.6875q-1.078125 0.59375 -2.375 0.59375q-2.0625 0 -3.34375 -1.328125q-1.28125 -1.328125 -1.28125 -3.8125zm1.71875 0q0 1.890625 0.828125 2.828125q0.828125 0.9375 2.078125 0.9375q1.25 0 2.0625 -0.9375q0.828125 -0.953125 0.828125 -2.890625q0 -1.828125 -0.828125 -2.765625q-0.828125 -0.9375 -2.0625 -0.9375q-1.25 0 -2.078125 0.9375q-0.828125 0.9375 -0.828125 2.828125zm15.672592 4.921875l0 -1.25q-0.9375 1.46875 -2.75 1.46875q-1.171875 0 -2.171875 -0.640625q-0.984375 -0.65625 -1.53125 -1.8125q-0.53125 -1.171875 -0.53125 -2.6875q0 -1.46875 0.484375 -2.671875q0.5 -1.203125 1.46875 -1.84375q0.984375 -0.640625 2.203125 -0.640625q0.890625 0 1.578125 0.375q0.703125 0.375 1.140625 0.984375l0 -4.875l1.65625 0l0 13.59375l-1.546875 0zm-5.28125 -4.921875q0 1.890625 0.796875 2.828125q0.8125 0.9375 1.890625 0.9375q1.09375 0 1.859375 -0.890625q0.765625 -0.890625 0.765625 -2.734375q0 -2.015625 -0.78125 -2.953125q-0.78125 -0.953125 -1.921875 -0.953125q-1.109375 0 -1.859375 0.90625q-0.75 0.90625 -0.75 2.859375z" fill-rule="nonzero"></path><path fill="#d9ead3" d="m152.33333 113.18517l94.4252 0l0 94.4567l-94.4252 0z" fill-rule="nonzero"></path><path stroke="#000000" stroke-width="1.0" stroke-linejoin="round" stroke-linecap="butt" d="m152.33333 113.18517l94.4252 0l0 94.4567l-94.4252 0z" fill-rule="nonzero"></path><path fill="#000000" d="m184.41718 167.33353l0 -13.59375l5.125 0q1.359375 0 2.078125 0.125q1.0 0.171875 1.671875 0.640625q0.671875 0.46875 1.078125 1.3125q0.421875 0.84375 0.421875 1.84375q0 1.734375 -1.109375 2.9375q-1.09375 1.203125 -3.984375 1.203125l-3.484375 0l0 5.53125l-1.796875 0zm1.796875 -7.140625l3.515625 0q1.75 0 2.46875 -0.640625q0.734375 -0.65625 0.734375 -1.828125q0 -0.859375 -0.4375 -1.46875q-0.421875 -0.609375 -1.125 -0.796875q-0.453125 -0.125 -1.671875 -0.125l-3.484375 0l0 4.859375zm9.802948 2.21875q0 -2.734375 1.53125 -4.0625q1.265625 -1.09375 3.09375 -1.09375q2.03125 0 3.3125 1.34375q1.296875 1.328125 1.296875 3.671875q0 1.90625 -0.578125 3.0q-0.5625 1.078125 -1.65625 1.6875q-1.078125 0.59375 -2.375 0.59375q-2.0625 0 -3.34375 -1.328125q-1.28125 -1.328125 -1.28125 -3.8125zm1.71875 0q0 1.890625 0.828125 2.828125q0.828125 0.9375 2.078125 0.9375q1.25 0 2.0625 -0.9375q0.828125 -0.953125 0.828125 -2.890625q0 -1.828125 -0.828125 -2.765625q-0.828125 -0.9375 -2.0625 -0.9375q-1.25 0 -2.078125 0.9375q-0.828125 0.9375 -0.828125 2.828125zm15.672592 4.921875l0 -1.25q-0.9375 1.46875 -2.75 1.46875q-1.171875 0 -2.171875 -0.640625q-0.984375 -0.65625 -1.53125 -1.8125q-0.53125 -1.171875 -0.53125 -2.6875q0 -1.46875 0.484375 -2.671875q0.5 -1.203125 1.46875 -1.84375q0.984375 -0.640625 2.203125 -0.640625q0.890625 0 1.578125 0.375q0.703125 0.375 1.140625 0.984375l0 -4.875l1.65625 0l0 13.59375l-1.546875 0zm-5.28125 -4.921875q0 1.890625 0.796875 2.828125q0.8125 0.9375 1.890625 0.9375q1.09375 0 1.859375 -0.890625q0.765625 -0.890625 0.765625 -2.734375q0 -2.015625 -0.78125 -2.953125q-0.78125 -0.953125 -1.921875 -0.953125q-1.109375 0 -1.859375 0.90625q-0.75 0.90625 -0.75 2.859375z" fill-rule="nonzero"></path><path fill="#f4cccc" d="m152.33333 222.69174l94.4252 0l0 94.456696l-94.4252 0z" fill-rule="nonzero"></path><path stroke="#000000" stroke-width="1.0" stroke-linejoin="round" stroke-linecap="butt" d="m152.33333 222.69174l94.4252 0l0 94.456696l-94.4252 0z" fill-rule="nonzero"></path><path fill="#000000" d="m184.41718 276.8401l0 -13.59375l5.125 0q1.359375 0 2.078125 0.125q1.0 0.171875 1.671875 0.640625q0.671875 0.46875 1.078125 1.3125q0.421875 0.84375 0.421875 1.84375q0 1.734375 -1.109375 2.9375q-1.09375 1.203125 -3.984375 1.203125l-3.484375 0l0 5.53125l-1.796875 0zm1.796875 -7.140625l3.515625 0q1.75 0 2.46875 -0.640625q0.734375 -0.65625 0.734375 -1.828125q0 -0.859375 -0.4375 -1.46875q-0.421875 -0.609375 -1.125 -0.796875q-0.453125 -0.125 -1.671875 -0.125l-3.484375 0l0 4.859375zm9.802948 2.21875q0 -2.734375 1.53125 -4.0625q1.265625 -1.09375 3.09375 -1.09375q2.03125 0 3.3125 1.34375q1.296875 1.328125 1.296875 3.671875q0 1.90625 -0.578125 3.0q-0.5625 1.078125 -1.65625 1.6875q-1.078125 0.59375 -2.375 0.59375q-2.0625 0 -3.34375 -1.328125q-1.28125 -1.328125 -1.28125 -3.8125zm1.71875 0q0 1.890625 0.828125 2.828125q0.828125 0.9375 2.078125 0.9375q1.25 0 2.0625 -0.9375q0.828125 -0.953125 0.828125 -2.890625q0 -1.828125 -0.828125 -2.765625q-0.828125 -0.9375 -2.0625 -0.9375q-1.25 0 -2.078125 0.9375q-0.828125 0.9375 -0.828125 2.828125zm15.672592 4.921875l0 -1.25q-0.9375 1.46875 -2.75 1.46875q-1.171875 0 -2.171875 -0.640625q-0.984375 -0.65625 -1.53125 -1.8125q-0.53125 -1.171875 -0.53125 -2.6875q0 -1.46875 0.484375 -2.671875q0.5 -1.203125 1.46875 -1.84375q0.984375 -0.640625 2.203125 -0.640625q0.890625 0 1.578125 0.375q0.703125 0.375 1.140625 0.984375l0 -4.875l1.65625 0l0 13.59375l-1.546875 0zm-5.28125 -4.921875q0 1.890625 0.796875 2.828125q0.8125 0.9375 1.890625 0.9375q1.09375 0 1.859375 -0.890625q0.765625 -0.890625 0.765625 -2.734375q0 -2.015625 -0.78125 -2.953125q-0.78125 -0.953125 -1.921875 -0.953125q-1.109375 0 -1.859375 0.90625q-0.75 0.90625 -0.75 2.859375z" fill-rule="nonzero"></path><path fill="#fff2cc" d="m44.698162 222.69174l94.425186 0l0 94.456696l-94.425186 0z" fill-rule="nonzero"></path><path stroke="#000000" stroke-width="1.0" stroke-linejoin="round" stroke-linecap="butt" d="m44.698162 222.69174l94.425186 0l0 94.456696l-94.425186 0z" fill-rule="nonzero"></path><path fill="#000000" d="m76.782005 276.8401l0 -13.59375l5.125 0q1.359375 0 2.078125 0.125q1.0 0.171875 1.671875 0.640625q0.671875 0.46875 1.078125 1.3125q0.421875 0.84375 0.421875 1.84375q0 1.734375 -1.109375 2.9375q-1.09375 1.203125 -3.984375 1.203125l-3.484375 0l0 5.53125l-1.796875 0zm1.796875 -7.140625l3.515625 0q1.75 0 2.46875 -0.640625q0.734375 -0.65625 0.734375 -1.828125q0 -0.859375 -0.4375 -1.46875q-0.421875 -0.609375 -1.125 -0.796875q-0.453125 -0.125 -1.671875 -0.125l-3.484375 0l0 4.859375zm9.802948 2.21875q0 -2.734375 1.53125 -4.0625q1.265625 -1.09375 3.09375 -1.09375q2.03125 0 3.3125 1.34375q1.296875 1.328125 1.296875 3.671875q0 1.90625 -0.578125 3.0q-0.5625 1.078125 -1.65625 1.6875q-1.078125 0.59375 -2.375 0.59375q-2.0625 0 -3.34375 -1.328125q-1.28125 -1.328125 -1.28125 -3.8125zm1.71875 0q0 1.890625 0.828125 2.828125q0.828125 0.9375 2.078125 0.9375q1.25 0 2.0625 -0.9375q0.828125 -0.953125 0.828125 -2.890625q0 -1.828125 -0.828125 -2.765625q-0.828125 -0.9375 -2.0625 -0.9375q-1.25 0 -2.078125 0.9375q-0.828125 0.9375 -0.828125 2.828125zm15.672592 4.921875l0 -1.25q-0.9375 1.46875 -2.75 1.46875q-1.171875 0 -2.171875 -0.640625q-0.984375 -0.65625 -1.53125 -1.8125q-0.53125 -1.171875 -0.53125 -2.6875q0 -1.46875 0.484375 -2.671875q0.5 -1.203125 1.46875 -1.84375q0.984375 -0.640625 2.203125 -0.640625q0.890625 0 1.578125 0.375q0.703125 0.375 1.140625 0.984375l0 -4.875l1.65625 0l0 13.59375l-1.546875 0zm-5.28125 -4.921875q0 1.890625 0.796875 2.828125q0.8125 0.9375 1.890625 0.9375q1.09375 0 1.859375 -0.890625q0.765625 -0.890625 0.765625 -2.734375q0 -2.015625 -0.78125 -2.953125q-0.78125 -0.953125 -1.921875 -0.953125q-1.109375 0 -1.859375 0.90625q-0.75 0.90625 -0.75 2.859375z" fill-rule="nonzero"></path><path fill="#d9ead3" d="m283.03543 113.18517l94.4252 0l0 94.4567l-94.4252 0z" fill-rule="nonzero"></path><path stroke="#000000" stroke-width="1.0" stroke-linejoin="round" stroke-linecap="butt" d="m283.03543 113.18517l94.4252 0l0 94.4567l-94.4252 0z" fill-rule="nonzero"></path><path fill="#000000" d="m315.11926 167.33353l0 -13.59375l5.125 0q1.359375 0 2.078125 0.125q1.0 0.171875 1.671875 0.640625q0.671875 0.46875 1.078125 1.3125q0.421875 0.84375 0.421875 1.84375q0 1.734375 -1.109375 2.9375q-1.09375 1.203125 -3.984375 1.203125l-3.484375 0l0 5.53125l-1.796875 0zm1.796875 -7.140625l3.515625 0q1.75 0 2.46875 -0.640625q0.734375 -0.65625 0.734375 -1.828125q0 -0.859375 -0.4375 -1.46875q-0.421875 -0.609375 -1.125 -0.796875q-0.453125 -0.125 -1.671875 -0.125l-3.484375 0l0 4.859375zm9.802948 2.21875q0 -2.734375 1.53125 -4.0625q1.265625 -1.09375 3.09375 -1.09375q2.03125 0 3.3125 1.34375q1.296875 1.328125 1.296875 3.671875q0 1.90625 -0.578125 3.0q-0.5625 1.078125 -1.65625 1.6875q-1.078125 0.59375 -2.375 0.59375q-2.0625 0 -3.34375 -1.328125q-1.28125 -1.328125 -1.28125 -3.8125zm1.71875 0q0 1.890625 0.828125 2.828125q0.828125 0.9375 2.078125 0.9375q1.25 0 2.0625 -0.9375q0.828125 -0.953125 0.828125 -2.890625q0 -1.828125 -0.828125 -2.765625q-0.828125 -0.9375 -2.0625 -0.9375q-1.25 0 -2.078125 0.9375q-0.828125 0.9375 -0.828125 2.828125zm15.672607 4.921875l0 -1.25q-0.9375 1.46875 -2.75 1.46875q-1.171875 0 -2.171875 -0.640625q-0.984375 -0.65625 -1.53125 -1.8125q-0.53125 -1.171875 -0.53125 -2.6875q0 -1.46875 0.484375 -2.671875q0.5 -1.203125 1.46875 -1.84375q0.984375 -0.640625 2.203125 -0.640625q0.890625 0 1.578125 0.375q0.703125 0.375 1.140625 0.984375l0 -4.875l1.65625 0l0 13.59375l-1.546875 0zm-5.28125 -4.921875q0 1.890625 0.796875 2.828125q0.8125 0.9375 1.890625 0.9375q1.09375 0 1.859375 -0.890625q0.765625 -0.890625 0.765625 -2.734375q0 -2.015625 -0.78125 -2.953125q-0.78125 -0.953125 -1.921875 -0.953125q-1.109375 0 -1.859375 0.90625q-0.75 0.90625 -0.75 2.859375z" fill-rule="nonzero"></path><path fill="#d9ead3" d="m390.6706 113.18517l94.4252 0l0 94.4567l-94.4252 0z" fill-rule="nonzero"></path><path stroke="#000000" stroke-width="1.0" stroke-linejoin="round" stroke-linecap="butt" d="m390.6706 113.18517l94.4252 0l0 94.4567l-94.4252 0z" fill-rule="nonzero"></path><path fill="#000000" d="m422.75446 167.33353l0 -13.59375l5.125 0q1.359375 0 2.078125 0.125q1.0 0.171875 1.671875 0.640625q0.671875 0.46875 1.078125 1.3125q0.421875 0.84375 0.421875 1.84375q0 1.734375 -1.109375 2.9375q-1.09375 1.203125 -3.984375 1.203125l-3.484375 0l0 5.53125l-1.796875 0zm1.796875 -7.140625l3.515625 0q1.75 0 2.46875 -0.640625q0.734375 -0.65625 0.734375 -1.828125q0 -0.859375 -0.4375 -1.46875q-0.421875 -0.609375 -1.125 -0.796875q-0.453125 -0.125 -1.671875 -0.125l-3.484375 0l0 4.859375zm9.802948 2.21875q0 -2.734375 1.53125 -4.0625q1.265625 -1.09375 3.09375 -1.09375q2.03125 0 3.3125 1.34375q1.296875 1.328125 1.296875 3.671875q0 1.90625 -0.578125 3.0q-0.5625 1.078125 -1.65625 1.6875q-1.078125 0.59375 -2.375 0.59375q-2.0625 0 -3.34375 -1.328125q-1.28125 -1.328125 -1.28125 -3.8125zm1.71875 0q0 1.890625 0.828125 2.828125q0.828125 0.9375 2.078125 0.9375q1.25 0 2.0625 -0.9375q0.828125 -0.953125 0.828125 -2.890625q0 -1.828125 -0.828125 -2.765625q-0.828125 -0.9375 -2.0625 -0.9375q-1.25 0 -2.078125 0.9375q-0.828125 0.9375 -0.828125 2.828125zm15.672577 4.921875l0 -1.25q-0.9375 1.46875 -2.75 1.46875q-1.171875 0 -2.171875 -0.640625q-0.984375 -0.65625 -1.53125 -1.8125q-0.53125 -1.171875 -0.53125 -2.6875q0 -1.46875 0.484375 -2.671875q0.5 -1.203125 1.46875 -1.84375q0.984375 -0.640625 2.203125 -0.640625q0.890625 0 1.578125 0.375q0.703125 0.375 1.140625 0.984375l0 -4.875l1.65625 0l0 13.59375l-1.546875 0zm-5.28125 -4.921875q0 1.890625 0.796875 2.828125q0.8125 0.9375 1.890625 0.9375q1.09375 0 1.859375 -0.890625q0.765625 -0.890625 0.765625 -2.734375q0 -2.015625 -0.78125 -2.953125q-0.78125 -0.953125 -1.921875 -0.953125q-1.109375 0 -1.859375 0.90625q-0.75 0.90625 -0.75 2.859375z" fill-rule="nonzero"></path><path fill="#fff2cc" d="m283.03543 222.69174l94.4252 0l0 94.456696l-94.4252 0z" fill-rule="nonzero"></path><path stroke="#000000" stroke-width="1.0" stroke-linejoin="round" stroke-linecap="butt" d="m283.03543 222.69174l94.4252 0l0 94.456696l-94.4252 0z" fill-rule="nonzero"></path><path fill="#000000" d="m315.11926 276.8401l0 -13.59375l5.125 0q1.359375 0 2.078125 0.125q1.0 0.171875 1.671875 0.640625q0.671875 0.46875 1.078125 1.3125q0.421875 0.84375 0.421875 1.84375q0 1.734375 -1.109375 2.9375q-1.09375 1.203125 -3.984375 1.203125l-3.484375 0l0 5.53125l-1.796875 0zm1.796875 -7.140625l3.515625 0q1.75 0 2.46875 -0.640625q0.734375 -0.65625 0.734375 -1.828125q0 -0.859375 -0.4375 -1.46875q-0.421875 -0.609375 -1.125 -0.796875q-0.453125 -0.125 -1.671875 -0.125l-3.484375 0l0 4.859375zm9.802948 2.21875q0 -2.734375 1.53125 -4.0625q1.265625 -1.09375 3.09375 -1.09375q2.03125 0 3.3125 1.34375q1.296875 1.328125 1.296875 3.671875q0 1.90625 -0.578125 3.0q-0.5625 1.078125 -1.65625 1.6875q-1.078125 0.59375 -2.375 0.59375q-2.0625 0 -3.34375 -1.328125q-1.28125 -1.328125 -1.28125 -3.8125zm1.71875 0q0 1.890625 0.828125 2.828125q0.828125 0.9375 2.078125 0.9375q1.25 0 2.0625 -0.9375q0.828125 -0.953125 0.828125 -2.890625q0 -1.828125 -0.828125 -2.765625q-0.828125 -0.9375 -2.0625 -0.9375q-1.25 0 -2.078125 0.9375q-0.828125 0.9375 -0.828125 2.828125zm15.672607 4.921875l0 -1.25q-0.9375 1.46875 -2.75 1.46875q-1.171875 0 -2.171875 -0.640625q-0.984375 -0.65625 -1.53125 -1.8125q-0.53125 -1.171875 -0.53125 -2.6875q0 -1.46875 0.484375 -2.671875q0.5 -1.203125 1.46875 -1.84375q0.984375 -0.640625 2.203125 -0.640625q0.890625 0 1.578125 0.375q0.703125 0.375 1.140625 0.984375l0 -4.875l1.65625 0l0 13.59375l-1.546875 0zm-5.28125 -4.921875q0 1.890625 0.796875 2.828125q0.8125 0.9375 1.890625 0.9375q1.09375 0 1.859375 -0.890625q0.765625 -0.890625 0.765625 -2.734375q0 -2.015625 -0.78125 -2.953125q-0.78125 -0.953125 -1.921875 -0.953125q-1.109375 0 -1.859375 0.90625q-0.75 0.90625 -0.75 2.859375z" fill-rule="nonzero"></path><path fill="#d9ead3" d="m44.64698 394.16156l94.42519 0l0 94.456696l-94.42519 0z" fill-rule="nonzero"></path><path stroke="#000000" stroke-width="1.0" stroke-linejoin="round" stroke-linecap="butt" d="m44.64698 394.16156l94.42519 0l0 94.456696l-94.42519 0z" fill-rule="nonzero"></path><path fill="#000000" d="m76.73083 448.3099l0 -13.59375l5.125 0q1.359375 0 2.078125 0.125q1.0 0.171875 1.671875 0.640625q0.671875 0.46875 1.078125 1.3125q0.421875 0.84375 0.421875 1.84375q0 1.734375 -1.109375 2.9375q-1.09375 1.203125 -3.984375 1.203125l-3.484375 0l0 5.53125l-1.796875 0zm1.796875 -7.140625l3.515625 0q1.75 0 2.46875 -0.640625q0.734375 -0.65625 0.734375 -1.828125q0 -0.859375 -0.4375 -1.46875q-0.421875 -0.609375 -1.125 -0.796875q-0.453125 -0.125 -1.671875 -0.125l-3.484375 0l0 4.859375zm9.802948 2.21875q0 -2.734375 1.53125 -4.0625q1.265625 -1.09375 3.09375 -1.09375q2.03125 0 3.3125 1.34375q1.296875 1.328125 1.296875 3.671875q0 1.90625 -0.578125 3.0q-0.5625 1.078125 -1.65625 1.6875q-1.078125 0.59375 -2.375 0.59375q-2.0625 0 -3.34375 -1.328125q-1.28125 -1.328125 -1.28125 -3.8125zm1.71875 0q0 1.890625 0.828125 2.828125q0.828125 0.9375 2.078125 0.9375q1.25 0 2.0625 -0.9375q0.828125 -0.953125 0.828125 -2.890625q0 -1.828125 -0.828125 -2.765625q-0.828125 -0.9375 -2.0625 -0.9375q-1.25 0 -2.078125 0.9375q-0.828125 0.9375 -0.828125 2.828125zm15.672592 4.921875l0 -1.25q-0.9375 1.46875 -2.75 1.46875q-1.171875 0 -2.171875 -0.640625q-0.984375 -0.65625 -1.53125 -1.8125q-0.53125 -1.171875 -0.53125 -2.6875q0 -1.46875 0.484375 -2.671875q0.5 -1.203125 1.46875 -1.84375q0.984375 -0.640625 2.203125 -0.640625q0.890625 0 1.578125 0.375q0.703125 0.375 1.140625 0.984375l0 -4.875l1.65625 0l0 13.59375l-1.546875 0zm-5.28125 -4.921875q0 1.890625 0.796875 2.828125q0.8125 0.9375 1.890625 0.9375q1.09375 0 1.859375 -0.890625q0.765625 -0.890625 0.765625 -2.734375q0 -2.015625 -0.78125 -2.953125q-0.78125 -0.953125 -1.921875 -0.953125q-1.109375 0 -1.859375 0.90625q-0.75 0.90625 -0.75 2.859375z" fill-rule="nonzero"></path><path fill="#d9ead3" d="m282.98294 394.16156l94.4252 0l0 94.456696l-94.4252 0z" fill-rule="nonzero"></path><path stroke="#000000" stroke-width="1.0" stroke-linejoin="round" stroke-linecap="butt" d="m282.98294 394.16156l94.4252 0l0 94.456696l-94.4252 0z" fill-rule="nonzero"></path><path fill="#000000" d="m315.06677 448.3099l0 -13.59375l5.125 0q1.359375 0 2.078125 0.125q1.0 0.171875 1.671875 0.640625q0.671875 0.46875 1.078125 1.3125q0.421875 0.84375 0.421875 1.84375q0 1.734375 -1.109375 2.9375q-1.09375 1.203125 -3.984375 1.203125l-3.484375 0l0 5.53125l-1.796875 0zm1.796875 -7.140625l3.515625 0q1.75 0 2.46875 -0.640625q0.734375 -0.65625 0.734375 -1.828125q0 -0.859375 -0.4375 -1.46875q-0.421875 -0.609375 -1.125 -0.796875q-0.453125 -0.125 -1.671875 -0.125l-3.484375 0l0 4.859375zm9.802948 2.21875q0 -2.734375 1.53125 -4.0625q1.265625 -1.09375 3.09375 -1.09375q2.03125 0 3.3125 1.34375q1.296875 1.328125 1.296875 3.671875q0 1.90625 -0.578125 3.0q-0.5625 1.078125 -1.65625 1.6875q-1.078125 0.59375 -2.375 0.59375q-2.0625 0 -3.34375 -1.328125q-1.28125 -1.328125 -1.28125 -3.8125zm1.71875 0q0 1.890625 0.828125 2.828125q0.828125 0.9375 2.078125 0.9375q1.25 0 2.0625 -0.9375q0.828125 -0.953125 0.828125 -2.890625q0 -1.828125 -0.828125 -2.765625q-0.828125 -0.9375 -2.0625 -0.9375q-1.25 0 -2.078125 0.9375q-0.828125 0.9375 -0.828125 2.828125zm15.672607 4.921875l0 -1.25q-0.9375 1.46875 -2.75 1.46875q-1.171875 0 -2.171875 -0.640625q-0.984375 -0.65625 -1.53125 -1.8125q-0.53125 -1.171875 -0.53125 -2.6875q0 -1.46875 0.484375 -2.671875q0.5 -1.203125 1.46875 -1.84375q0.984375 -0.640625 2.203125 -0.640625q0.890625 0 1.578125 0.375q0.703125 0.375 1.140625 0.984375l0 -4.875l1.65625 0l0 13.59375l-1.546875 0zm-5.28125 -4.921875q0 1.890625 0.796875 2.828125q0.8125 0.9375 1.890625 0.9375q1.09375 0 1.859375 -0.890625q0.765625 -0.890625 0.765625 -2.734375q0 -2.015625 -0.78125 -2.953125q-0.78125 -0.953125 -1.921875 -0.953125q-1.109375 0 -1.859375 0.90625q-0.75 0.90625 -0.75 2.859375z" fill-rule="nonzero"></path><path fill="#d9ead3" d="m390.6181 394.16156l94.4252 0l0 94.456696l-94.4252 0z" fill-rule="nonzero"></path><path stroke="#000000" stroke-width="1.0" stroke-linejoin="round" stroke-linecap="butt" d="m390.6181 394.16156l94.4252 0l0 94.456696l-94.4252 0z" fill-rule="nonzero"></path><path fill="#000000" d="m422.70197 448.3099l0 -13.59375l5.125 0q1.359375 0 2.078125 0.125q1.0 0.171875 1.671875 0.640625q0.671875 0.46875 1.078125 1.3125q0.421875 0.84375 0.421875 1.84375q0 1.734375 -1.109375 2.9375q-1.09375 1.203125 -3.984375 1.203125l-3.484375 0l0 5.53125l-1.796875 0zm1.796875 -7.140625l3.515625 0q1.75 0 2.46875 -0.640625q0.734375 -0.65625 0.734375 -1.828125q0 -0.859375 -0.4375 -1.46875q-0.421875 -0.609375 -1.125 -0.796875q-0.453125 -0.125 -1.671875 -0.125l-3.484375 0l0 4.859375zm9.802948 2.21875q0 -2.734375 1.53125 -4.0625q1.265625 -1.09375 3.09375 -1.09375q2.03125 0 3.3125 1.34375q1.296875 1.328125 1.296875 3.671875q0 1.90625 -0.578125 3.0q-0.5625 1.078125 -1.65625 1.6875q-1.078125 0.59375 -2.375 0.59375q-2.0625 0 -3.34375 -1.328125q-1.28125 -1.328125 -1.28125 -3.8125zm1.71875 0q0 1.890625 0.828125 2.828125q0.828125 0.9375 2.078125 0.9375q1.25 0 2.0625 -0.9375q0.828125 -0.953125 0.828125 -2.890625q0 -1.828125 -0.828125 -2.765625q-0.828125 -0.9375 -2.0625 -0.9375q-1.25 0 -2.078125 0.9375q-0.828125 0.9375 -0.828125 2.828125zm15.672577 4.921875l0 -1.25q-0.9375 1.46875 -2.75 1.46875q-1.171875 0 -2.171875 -0.640625q-0.984375 -0.65625 -1.53125 -1.8125q-0.53125 -1.171875 -0.53125 -2.6875q0 -1.46875 0.484375 -2.671875q0.5 -1.203125 1.46875 -1.84375q0.984375 -0.640625 2.203125 -0.640625q0.890625 0 1.578125 0.375q0.703125 0.375 1.140625 0.984375l0 -4.875l1.65625 0l0 13.59375l-1.546875 0zm-5.28125 -4.921875q0 1.890625 0.796875 2.828125q0.8125 0.9375 1.890625 0.9375q1.09375 0 1.859375 -0.890625q0.765625 -0.890625 0.765625 -2.734375q0 -2.015625 -0.78125 -2.953125q-0.78125 -0.953125 -1.921875 -0.953125q-1.109375 0 -1.859375 0.90625q-0.75 0.90625 -0.75 2.859375z" fill-rule="nonzero"></path></g></svg>

