<?xml version="1.0"?>


<svg version="1.1" viewBox="0.0 0.0 960.0 720.0" fill="none" stroke="none" stroke-linecap="square" stroke-miterlimit="10" xmlns="http://www.w3.org/2000/svg" xmlns:xlink="http://www.w3.org/1999/xlink" width="960.0" height="720.0"><clipPath id="p.0"><path d="m0 0l960.0 0l0 720.0l-960.0 0l0 -720.0z" clip-rule="nonzero"></path></clipPath><g clip-path="url(#p.0)"><path fill="#000000" fill-opacity="0.0" d="m0 0l960.0 0l0 720.0l-960.0 0z" fill-rule="nonzero"></path><path fill="#ffffff" d="m696.19934 324.0542l0 0c0 -10.022308 8.124695 -18.146973 18.146973 -18.146973l139.54858 0c4.812866 0 9.42865 1.9118958 12.831848 5.3151245c3.4031982 3.4032288 5.3151245 8.018982 5.3151245 12.831848l0 72.58792c0 10.022308 -8.124695 18.147003 -18.146973 18.147003l-139.54858 0c-10.022278 0 -18.146973 -8.124695 -18.146973 -18.147003z" fill-rule="nonzero"></path><path stroke="#000000" stroke-width="1.0" stroke-linejoin="round" stroke-linecap="butt" d="m696.19934 324.0542l0 0c0 -10.022308 8.124695 -18.146973 18.146973 -18.146973l139.54858 0c4.812866 0 9.42865 1.9118958 12.831848 5.3151245c3.4031982 3.4032288 5.3151245 8.018982 5.3151245 12.831848l0 72.58792c0 10.022308 -8.124695 18.147003 -18.146973 18.147003l-139.54858 0c-10.022278 0 -18.146973 -8.124695 -18.146973 -18.147003z" fill-rule="nonzero"></path><path fill="#000000" d="m763.65186 372.06818l-3.015625 0l0 -10.515625l-11.46875 0l0 10.515625l-3.0 0l0 -22.75l3.0 0l0 9.78125l11.46875 0l0 -9.78125l3.015625 0l0 22.75zm21.046875 -20.28125l-7.3125 0l0 20.28125l-2.984375 0l0 -20.28125l-7.296875 0l0 -2.46875l17.59375 0l0 2.46875zm19.09375 0l-7.3125 0l0 20.28125l-2.984375 0l0 -20.28125l-7.296875 0l0 -2.46875l17.59375 0l0 2.46875zm6.375 11.375l0 8.90625l-3.0 0l0 -22.75l8.390625 0q3.734375 0 5.84375 1.90625q2.125 1.90625 2.125 5.046875q0 3.3125 -2.078125 5.109375q-2.0625 1.78125 -5.921875 1.78125l-5.359375 0zm0 -2.453125l5.390625 0q2.40625 0 3.6875 -1.125q1.28125 -1.140625 1.28125 -3.28125q0 -2.03125 -1.28125 -3.25q-1.28125 -1.21875 -3.515625 -1.265625l-5.5625 0l0 8.921875z" fill-rule="nonzero"></path><path fill="#ffffff" d="m537.651 109.79167l0 0c0 -10.022308 8.124634 -18.146988 18.146973 -18.146988l139.54852 0c4.8129272 0 9.42865 1.911911 12.831848 5.315132c3.4032593 3.4032211 5.3151855 8.018974 5.3151855 12.831856l0 72.58792c0 10.022308 -8.124695 18.146988 -18.147034 18.146988l-139.54852 0c-10.022339 0 -18.146973 -8.12468 -18.146973 -18.146988z" fill-rule="nonzero"></path><path stroke="#000000" stroke-width="1.0" stroke-linejoin="round" stroke-linecap="butt" d="m537.651 109.79167l0 0c0 -10.022308 8.124634 -18.146988 18.146973 -18.146988l139.54852 0c4.8129272 0 9.42865 1.911911 12.831848 5.315132c3.4032593 3.4032211 5.3151855 8.018974 5.3151855 12.831856l0 72.58792c0 10.022308 -8.124695 18.146988 -18.147034 18.146988l-139.54852 0c-10.022339 0 -18.146973 -8.12468 -18.146973 -18.146988z" fill-rule="nonzero"></path><path fill="#000000" d="m607.75977 157.80563l0 -22.75l6.421875 0q2.96875 0 5.25 1.3125q2.28125 1.3125 3.515625 3.734375q1.25 2.421875 1.265625 5.5625l0 1.453125q0 3.21875 -1.25 5.640625q-1.234375 2.421875 -3.546875 3.71875q-2.296875 1.296875 -5.359375 1.328125l-6.296875 0zm3.0 -20.28125l0 17.828125l3.15625 0q3.46875 0 5.390625 -2.15625q1.9375 -2.15625 1.9375 -6.140625l0 -1.328125q0 -3.875 -1.828125 -6.015625q-1.8125 -2.15625 -5.15625 -2.1875l-3.5 0zm17.984375 20.28125l0 -22.75l7.4375 0q3.703125 0 5.5625 1.53125q1.875 1.53125 1.875 4.53125q0 1.59375 -0.90625 2.828125q-0.90625 1.21875 -2.46875 1.890625q1.84375 0.515625 2.90625 1.96875q1.078125 1.4375 1.078125 3.4375q0 3.0625 -1.984375 4.8125q-1.984375 1.75 -5.609375 1.75l-7.890625 0zm3.0 -10.640625l0 8.1875l4.953125 0q2.09375 0 3.296875 -1.078125q1.21875 -1.09375 1.21875 -3.0q0 -4.109375 -4.46875 -4.109375l-5.0 0zm0 -2.40625l4.53125 0q1.96875 0 3.140625 -0.984375q1.1875 -0.984375 1.1875 -2.671875q0 -1.875 -1.09375 -2.71875q-1.09375 -0.859375 -3.328125 -0.859375l-4.4375 0l0 7.234375z" fill-rule="nonzero"></path><path fill="#ffffff" d="m192.6419 454.11975l0 0c0 -10.022278 8.12468 -18.146973 18.146988 -18.146973l139.54854 0c4.8128967 0 9.42865 1.9118958 12.831879 5.3151245c3.4031982 3.4032288 5.3151245 8.018982 5.3151245 12.831848l0 72.58795c0 10.022278 -8.124695 18.146973 -18.147003 18.146973l-139.54854 0c-10.022308 0 -18.146988 -8.124695 -18.146988 -18.146973z" fill-rule="nonzero"></path><path stroke="#000000" stroke-width="1.0" stroke-linejoin="round" stroke-linecap="butt" d="m192.6419 454.11975l0 0c0 -10.022278 8.12468 -18.146973 18.146988 -18.146973l139.54854 0c4.8128967 0 9.42865 1.9118958 12.831879 5.3151245c3.4031982 3.4032288 5.3151245 8.018982 5.3151245 12.831848l0 72.58795c0 10.022278 -8.124695 18.146973 -18.147003 18.146973l-139.54854 0c-10.022308 0 -18.146988 -8.124695 -18.146988 -18.146973z" fill-rule="nonzero"></path><path fill="#000000" d="m236.54755 493.22748l0 8.90625l-3.0 0l0 -22.75l8.390625 0q3.734375 0 5.84375 1.90625q2.125 1.90625 2.125 5.046875q0 3.3125 -2.078125 5.109375q-2.0625 1.78125 -5.921875 1.78125l-5.359375 0zm0 -2.453125l5.390625 0q2.40625 0 3.6875 -1.125q1.28125 -1.140625 1.28125 -3.28125q0 -2.03125 -1.28125 -3.25q-1.28125 -1.21875 -3.515625 -1.265625l-5.5625 0l0 8.921875zm22.265625 7.125l3.9375 -12.671875l3.09375 0l-6.796875 19.515625q-1.578125 4.21875 -5.015625 4.21875l-0.546875 -0.046875l-1.078125 -0.203125l0 -2.34375l0.78125 0.0625q1.46875 0 2.28125 -0.59375q0.828125 -0.59375 1.359375 -2.171875l0.640625 -1.71875l-6.03125 -16.71875l3.15625 0l4.21875 12.671875zm13.53125 -16.765625l0 4.09375l3.15625 0l0 2.234375l-3.15625 0l0 10.484375q0 1.015625 0.421875 1.53125q0.421875 0.5 1.4375 0.5q0.5 0 1.375 -0.1875l0 2.34375q-1.140625 0.3125 -2.21875 0.3125q-1.9375 0 -2.921875 -1.171875q-0.984375 -1.171875 -0.984375 -3.328125l0 -10.484375l-3.078125 0l0 -2.234375l3.078125 0l0 -4.09375l2.890625 0zm9.421875 6.140625q1.921875 -2.359375 5.0 -2.359375q5.359375 0 5.40625 6.046875l0 11.171875l-2.890625 0l0 -11.1875q-0.015625 -1.828125 -0.84375 -2.703125q-0.8125 -0.875 -2.546875 -0.875q-1.40625 0 -2.46875 0.75q-1.0625 0.75 -1.65625 1.96875l0 12.046875l-2.890625 0l0 -24.0l2.890625 0l0 9.140625zm13.96875 6.25q0 -2.484375 0.96875 -4.46875q0.984375 -1.984375 2.71875 -3.0625q1.75 -1.078125 3.984375 -1.078125q3.453125 0 5.578125 2.390625q2.140625 2.390625 2.140625 6.359375l0 0.203125q0 2.46875 -0.953125 4.4375q-0.9375 1.953125 -2.703125 3.046875q-1.75 1.09375 -4.03125 1.09375q-3.4375 0 -5.578125 -2.390625q-2.125 -2.390625 -2.125 -6.328125l0 -0.203125zm2.90625 0.34375q0 2.8125 1.296875 4.515625q1.3125 1.703125 3.5 1.703125q2.203125 0 3.5 -1.71875q1.296875 -1.734375 1.296875 -4.84375q0 -2.78125 -1.328125 -4.5q-1.3125 -1.734375 -3.5 -1.734375q-2.140625 0 -3.453125 1.703125q-1.3125 1.703125 -1.3125 4.875zm18.84375 -8.640625l0.09375 2.125q1.9375 -2.4375 5.0625 -2.4375q5.359375 0 5.40625 6.046875l0 11.171875l-2.890625 0l0 -11.1875q-0.015625 -1.828125 -0.84375 -2.703125q-0.8125 -0.875 -2.546875 -0.875q-1.40625 0 -2.46875 0.75q-1.0625 0.75 -1.65625 1.96875l0 12.046875l-2.890625 0l0 -16.90625l2.734375 0z" fill-rule="nonzero"></path><path fill="#ffffff" d="m463.3932 405.76428l0 0c0 -10.022308 8.124664 -18.147003 18.146973 -18.147003l139.54858 0c4.812866 0 9.428589 1.9119263 12.831848 5.315155c3.4031982 3.4031982 5.3151245 8.018951 5.3151245 12.831848l0 72.58792c0 10.022308 -8.124695 18.146973 -18.146973 18.146973l-139.54858 0c-10.022308 0 -18.146973 -8.124664 -18.146973 -18.146973z" fill-rule="nonzero"></path><path stroke="#000000" stroke-width="1.0" stroke-linejoin="round" stroke-linecap="butt" d="m463.3932 405.76428l0 0c0 -10.022308 8.124664 -18.147003 18.146973 -18.147003l139.54858 0c4.812866 0 9.428589 1.9119263 12.831848 5.315155c3.4031982 3.4031982 5.3151245 8.018951 5.3151245 12.831848l0 72.58792c0 10.022308 -8.124695 18.146973 -18.146973 18.146973l-139.54858 0c-10.022308 0 -18.146973 -8.124664 -18.146973 -18.146973z" fill-rule="nonzero"></path><path fill="#000000" d="m519.9629 443.6376q-3.859375 -1.109375 -5.625 -2.71875q-1.75 -1.625 -1.75 -4.0q0 -2.6875 2.140625 -4.4375q2.15625 -1.765625 5.59375 -1.765625q2.34375 0 4.171875 0.90625q1.84375 0.90625 2.84375 2.5q1.015625 1.59375 1.015625 3.484375l-3.015625 0q0 -2.0625 -1.3125 -3.234375q-1.3125 -1.1875 -3.703125 -1.1875q-2.21875 0 -3.46875 0.984375q-1.234375 0.96875 -1.234375 2.703125q0 1.390625 1.171875 2.359375q1.1875 0.953125 4.015625 1.75q2.84375 0.796875 4.4375 1.765625q1.609375 0.953125 2.375 2.234375q0.78125 1.28125 0.78125 3.015625q0 2.765625 -2.15625 4.4375q-2.15625 1.65625 -5.765625 1.65625q-2.34375 0 -4.375 -0.890625q-2.03125 -0.90625 -3.140625 -2.46875q-1.09375 -1.5625 -1.09375 -3.546875l3.015625 0q0 2.0625 1.515625 3.265625q1.53125 1.1875 4.078125 1.1875q2.375 0 3.640625 -0.96875q1.265625 -0.96875 1.265625 -2.640625q0 -1.671875 -1.171875 -2.578125q-1.171875 -0.921875 -4.25 -1.8125zm26.109375 1.875q0 3.859375 -1.765625 6.21875q-1.765625 2.359375 -4.78125 2.359375q-3.078125 0 -4.84375 -1.953125l0 8.140625l-2.890625 0l0 -23.40625l2.640625 0l0.140625 1.875q1.765625 -2.1875 4.90625 -2.1875q3.046875 0 4.8125 2.296875q1.78125 2.296875 1.78125 6.390625l0 0.265625zm-2.890625 -0.328125q0 -2.859375 -1.21875 -4.515625q-1.21875 -1.65625 -3.34375 -1.65625q-2.625 0 -3.9375 2.328125l0 8.078125q1.296875 2.3125 3.96875 2.3125q2.078125 0 3.296875 -1.640625q1.234375 -1.65625 1.234375 -4.90625zm17.0 8.59375q-0.25 -0.5 -0.40625 -1.78125q-2.015625 2.09375 -4.8125 2.09375q-2.5 0 -4.109375 -1.40625q-1.59375 -1.421875 -1.59375 -3.59375q0 -2.640625 2.0 -4.09375q2.015625 -1.46875 5.65625 -1.46875l2.8125 0l0 -1.328125q0 -1.515625 -0.90625 -2.40625q-0.90625 -0.90625 -2.671875 -0.90625q-1.546875 0 -2.59375 0.78125q-1.046875 0.78125 -1.046875 1.890625l-2.90625 0q0 -1.265625 0.890625 -2.4375q0.90625 -1.1875 2.4375 -1.875q1.546875 -0.6875 3.390625 -0.6875q2.921875 0 4.578125 1.46875q1.65625 1.453125 1.71875 4.015625l0 7.78125q0 2.328125 0.59375 3.703125l0 0.25l-3.03125 0zm-4.796875 -2.203125q1.359375 0 2.578125 -0.703125q1.21875 -0.703125 1.765625 -1.828125l0 -3.46875l-2.265625 0q-5.3125 0 -5.3125 3.109375q0 1.359375 0.90625 2.125q0.90625 0.765625 2.328125 0.765625zm19.9375 -12.109375q-0.65625 -0.109375 -1.421875 -0.109375q-2.84375 0 -3.859375 2.421875l0 12.0l-2.890625 0l0 -16.90625l2.8125 0l0.046875 1.953125q1.421875 -2.265625 4.03125 -2.265625q0.84375 0 1.28125 0.21875l0 2.6875zm7.375 6.484375l-1.8125 1.890625l0 5.9375l-2.890625 0l0 -24.0l2.890625 0l0 14.515625l1.546875 -1.859375l5.265625 -5.5625l3.515625 0l-6.578125 7.0625l7.34375 9.84375l-3.390625 0l-5.890625 -7.828125z" fill-rule="nonzero"></path><path fill="#ffffff" d="m137.94147 218.58513l0 0c0 -10.022308 8.12468 -18.146988 18.146988 -18.146988l139.54857 0c4.812866 0 9.428619 1.911911 12.831848 5.31514c3.4031982 3.4032135 5.3151245 8.018967 5.3151245 12.831848l0 72.58794c0 10.022278 -8.124695 18.146973 -18.146973 18.146973l-139.54857 0c-10.022308 0 -18.146988 -8.124695 -18.146988 -18.146973z" fill-rule="nonzero"></path><path stroke="#000000" stroke-width="1.0" stroke-linejoin="round" stroke-linecap="butt" d="m137.94147 218.58513l0 0c0 -10.022308 8.12468 -18.146988 18.146988 -18.146988l139.54857 0c4.812866 0 9.428619 1.911911 12.831848 5.31514c3.4031982 3.4032135 5.3151245 8.018967 5.3151245 12.831848l0 72.58794c0 10.022278 -8.124695 18.146973 -18.146973 18.146973l-139.54857 0c-10.022308 0 -18.146988 -8.124695 -18.146988 -18.146973z" fill-rule="nonzero"></path><path fill="#000000" d="m207.4096 243.84909l7.4375 18.5625l7.4375 -18.5625l3.890625 0l0 22.75l-3.0 0l0 -8.859375l0.28125 -9.5625l-7.46875 18.421875l-2.296875 0l-7.453125 -18.375l0.296875 9.515625l0 8.859375l-3.0 0l0 -22.75l3.875 0zm41.4375 12.109375q0 3.296875 -1.046875 5.6875q-1.046875 2.375 -2.9375 3.71875l4.0625 3.1875l-2.046875 1.890625l-4.796875 -3.8125q-1.125 0.28125 -2.375 0.28125q-2.6875 0 -4.765625 -1.3125q-2.078125 -1.328125 -3.234375 -3.765625q-1.140625 -2.453125 -1.171875 -5.671875l0 -1.640625q0 -3.28125 1.140625 -5.796875q1.140625 -2.515625 3.21875 -3.84375q2.09375 -1.34375 4.78125 -1.34375q2.75 0 4.828125 1.328125q2.09375 1.328125 3.21875 3.828125q1.125 2.484375 1.125 5.8125l0 1.453125zm-3.0 -1.46875q0 -4.015625 -1.609375 -6.1875q-1.59375 -2.1875 -4.5625 -2.1875q-2.828125 0 -4.46875 2.171875q-1.625 2.15625 -1.671875 6.0l0 1.671875q0 3.90625 1.625 6.15625q1.640625 2.25 4.546875 2.25q2.90625 0 4.5 -2.109375q1.59375 -2.125 1.640625 -6.078125l0 -1.6875z" fill-rule="nonzero"></path><path fill="#c9daf8" d="m100.46457 196.30971l0 0c0 -18.334106 14.862732 -33.196854 33.196854 -33.196854c18.334106 0 33.19684 14.862747 33.19684 33.196854c0 18.334122 -14.862732 33.196854 -33.19684 33.196854c-18.334122 0 -33.196854 -14.862732 -33.196854 -33.196854z" fill-rule="nonzero"></path><path fill="#a0aec6" d="m119.56812 186.3814c0 -1.9098053 1.5482025 -3.4580078 3.4580078 -3.4580078c1.9098053 0 3.4580078 1.5482025 3.4580078 3.4580078c0 1.9098053 -1.5482025 3.4580078 -3.4580078 3.4580078c-1.9098053 0 -3.4580078 -1.5482025 -3.4580078 -3.4580078m21.270576 0c0 -1.9098053 1.5482025 -3.4580078 3.4580078 -3.4580078c1.9098053 0 3.4580078 1.5482025 3.4580078 3.4580078c0 1.9098053 -1.5482025 3.4580078 -3.4580078 3.4580078c-1.9098053 0 -3.4580078 -1.5482025 -3.4580078 -3.4580078" fill-rule="nonzero"></path><path fill="#000000" fill-opacity="0.0" d="m115.66851 210.78708q17.992912 12.357193 35.943794 0" fill-rule="nonzero"></path><path fill="#000000" fill-opacity="0.0" d="m100.46457 196.30971l0 0c0 -18.334106 14.862732 -33.196854 33.196854 -33.196854c18.334106 0 33.19684 14.862747 33.19684 33.196854c0 18.334122 -14.862732 33.196854 -33.19684 33.196854c-18.334122 0 -33.196854 -14.862732 -33.196854 -33.196854z" fill-rule="nonzero"></path><path stroke="#4a86e8" stroke-width="2.0" stroke-linejoin="round" stroke-linecap="butt" d="m119.56812 186.3814c0 -1.9098053 1.5482025 -3.4580078 3.4580078 -3.4580078c1.9098053 0 3.4580078 1.5482025 3.4580078 3.4580078c0 1.9098053 -1.5482025 3.4580078 -3.4580078 3.4580078c-1.9098053 0 -3.4580078 -1.5482025 -3.4580078 -3.4580078m21.270576 0c0 -1.9098053 1.5482025 -3.4580078 3.4580078 -3.4580078c1.9098053 0 3.4580078 1.5482025 3.4580078 3.4580078c0 1.9098053 -1.5482025 3.4580078 -3.4580078 3.4580078c-1.9098053 0 -3.4580078 -1.5482025 -3.4580078 -3.4580078" fill-rule="nonzero"></path><path stroke="#4a86e8" stroke-width="2.0" stroke-linejoin="round" stroke-linecap="butt" d="m115.66851 210.78708q17.992912 12.357193 35.943794 0" fill-rule="nonzero"></path><path stroke="#4a86e8" stroke-width="2.0" stroke-linejoin="round" stroke-linecap="butt" d="m100.46457 196.30971l0 0c0 -18.334106 14.862732 -33.196854 33.196854 -33.196854c18.334106 0 33.19684 14.862747 33.19684 33.196854c0 18.334122 -14.862732 33.196854 -33.19684 33.196854c-18.334122 0 -33.196854 -14.862732 -33.196854 -33.196854z" fill-rule="nonzero"></path><path fill="#c9daf8" d="m174.17323 547.8163l0 0c0 -18.334106 14.862732 -33.19684 33.19684 -33.19684c18.334122 0 33.196854 14.862732 33.196854 33.19684c0 18.334106 -14.862732 33.19684 -33.196854 33.19684c-18.334106 0 -33.19684 -14.862732 -33.19684 -33.19684z" fill-rule="nonzero"></path><path fill="#a0aec6" d="m193.27678 537.88794c0 -1.90979 1.5482025 -3.4580078 3.4580078 -3.4580078c1.9098053 0 3.4580078 1.5482178 3.4580078 3.4580078c0 1.90979 -1.5482025 3.4580078 -3.4580078 3.4580078c-1.9098053 0 -3.4580078 -1.5482178 -3.4580078 -3.4580078m21.270584 0c0 -1.90979 1.5482025 -3.4580078 3.4580078 -3.4580078c1.9098053 0 3.4579926 1.5482178 3.4579926 3.4580078c0 1.90979 -1.5481873 3.4580078 -3.4579926 3.4580078c-1.9098053 0 -3.4580078 -1.5482178 -3.4580078 -3.4580078" fill-rule="nonzero"></path><path fill="#000000" fill-opacity="0.0" d="m189.37717 562.29364q17.992905 12.357178 35.9438 0" fill-rule="nonzero"></path><path fill="#000000" fill-opacity="0.0" d="m174.17323 547.8163l0 0c0 -18.334106 14.862732 -33.19684 33.19684 -33.19684c18.334122 0 33.196854 14.862732 33.196854 33.19684c0 18.334106 -14.862732 33.19684 -33.196854 33.19684c-18.334106 0 -33.19684 -14.862732 -33.19684 -33.19684z" fill-rule="nonzero"></path><path stroke="#4a86e8" stroke-width="2.0" stroke-linejoin="round" stroke-linecap="butt" d="m193.27678 537.88794c0 -1.90979 1.5482025 -3.4580078 3.4580078 -3.4580078c1.9098053 0 3.4580078 1.5482178 3.4580078 3.4580078c0 1.90979 -1.5482025 3.4580078 -3.4580078 3.4580078c-1.9098053 0 -3.4580078 -1.5482178 -3.4580078 -3.4580078m21.270584 0c0 -1.90979 1.5482025 -3.4580078 3.4580078 -3.4580078c1.9098053 0 3.4579926 1.5482178 3.4579926 3.4580078c0 1.90979 -1.5481873 3.4580078 -3.4579926 3.4580078c-1.9098053 0 -3.4580078 -1.5482178 -3.4580078 -3.4580078" fill-rule="nonzero"></path><path stroke="#4a86e8" stroke-width="2.0" stroke-linejoin="round" stroke-linecap="butt" d="m189.37717 562.29364q17.992905 12.357178 35.9438 0" fill-rule="nonzero"></path><path stroke="#4a86e8" stroke-width="2.0" stroke-linejoin="round" stroke-linecap="butt" d="m174.17323 547.8163l0 0c0 -18.334106 14.862732 -33.19684 33.19684 -33.19684c18.334122 0 33.196854 14.862732 33.196854 33.19684c0 18.334106 -14.862732 33.19684 -33.196854 33.19684c-18.334106 0 -33.19684 -14.862732 -33.19684 -33.19684z" fill-rule="nonzero"></path><path fill="#c9daf8" d="m250.97113 556.8084l0 0c0 -18.334106 14.862732 -33.19684 33.19684 -33.19684c18.334137 0 33.19687 14.862732 33.19687 33.19684c0 18.334106 -14.862732 33.19684 -33.19687 33.19684c-18.334106 0 -33.19684 -14.862732 -33.19684 -33.19684z" fill-rule="nonzero"></path><path fill="#a0aec6" d="m270.07468 546.88007c0 -1.90979 1.5482178 -3.4580078 3.4580078 -3.4580078c1.9098206 0 3.4580078 1.5482178 3.4580078 3.4580078c0 1.90979 -1.5481873 3.4580078 -3.4580078 3.4580078c-1.90979 0 -3.4580078 -1.5482178 -3.4580078 -3.4580078m21.2706 0c0 -1.90979 1.5481873 -3.4580078 3.4579773 -3.4580078c1.9098206 0 3.4580078 1.5482178 3.4580078 3.4580078c0 1.90979 -1.5481873 3.4580078 -3.4580078 3.4580078c-1.90979 0 -3.4579773 -1.5482178 -3.4579773 -3.4580078" fill-rule="nonzero"></path><path fill="#000000" fill-opacity="0.0" d="m266.17508 571.28577q17.99289 12.357178 35.943787 0" fill-rule="nonzero"></path><path fill="#000000" fill-opacity="0.0" d="m250.97113 556.8084l0 0c0 -18.334106 14.862732 -33.19684 33.19684 -33.19684c18.334137 0 33.19687 14.862732 33.19687 33.19684c0 18.334106 -14.862732 33.19684 -33.19687 33.19684c-18.334106 0 -33.19684 -14.862732 -33.19684 -33.19684z" fill-rule="nonzero"></path><path stroke="#4a86e8" stroke-width="2.0" stroke-linejoin="round" stroke-linecap="butt" d="m270.07468 546.88007c0 -1.90979 1.5482178 -3.4580078 3.4580078 -3.4580078c1.9098206 0 3.4580078 1.5482178 3.4580078 3.4580078c0 1.90979 -1.5481873 3.4580078 -3.4580078 3.4580078c-1.90979 0 -3.4580078 -1.5482178 -3.4580078 -3.4580078m21.2706 0c0 -1.90979 1.5481873 -3.4580078 3.4579773 -3.4580078c1.9098206 0 3.4580078 1.5482178 3.4580078 3.4580078c0 1.90979 -1.5481873 3.4580078 -3.4580078 3.4580078c-1.90979 0 -3.4579773 -1.5482178 -3.4579773 -3.4580078" fill-rule="nonzero"></path><path stroke="#4a86e8" stroke-width="2.0" stroke-linejoin="round" stroke-linecap="butt" d="m266.17508 571.28577q17.99289 12.357178 35.943787 0" fill-rule="nonzero"></path><path stroke="#4a86e8" stroke-width="2.0" stroke-linejoin="round" stroke-linecap="butt" d="m250.97113 556.8084l0 0c0 -18.334106 14.862732 -33.19684 33.19684 -33.19684c18.334137 0 33.19687 14.862732 33.19687 33.19684c0 18.334106 -14.862732 33.19684 -33.19687 33.19684c-18.334106 0 -33.19684 -14.862732 -33.19684 -33.19684z" fill-rule="nonzero"></path><path fill="#c9daf8" d="m849.32153 381.59317l0 0c0 -18.334106 14.862732 -33.19684 33.19684 -33.19684c18.334106 0 33.19684 14.862732 33.19684 33.19684c0 18.334106 -14.862732 33.19687 -33.19684 33.19687c-18.334106 0 -33.19684 -14.862762 -33.19684 -33.19687z" fill-rule="nonzero"></path><path fill="#a0aec6" d="m868.4251 371.66486c0 -1.90979 1.5481567 -3.4580078 3.4579468 -3.4580078c1.9098511 0 3.4580078 1.5482178 3.4580078 3.4580078c0 1.9098206 -1.5481567 3.4580078 -3.4580078 3.4580078c-1.90979 0 -3.4579468 -1.5481873 -3.4579468 -3.4580078m21.270569 0c0 -1.90979 1.5481567 -3.4580078 3.4580078 -3.4580078c1.90979 0 3.4580078 1.5482178 3.4580078 3.4580078c0 1.9098206 -1.5482178 3.4580078 -3.4580078 3.4580078c-1.9098511 0 -3.4580078 -1.5481873 -3.4580078 -3.4580078" fill-rule="nonzero"></path><path fill="#000000" fill-opacity="0.0" d="m864.52545 396.07056q17.99292 12.357178 35.943787 0" fill-rule="nonzero"></path><path fill="#000000" fill-opacity="0.0" d="m849.32153 381.59317l0 0c0 -18.334106 14.862732 -33.19684 33.19684 -33.19684c18.334106 0 33.19684 14.862732 33.19684 33.19684c0 18.334106 -14.862732 33.19687 -33.19684 33.19687c-18.334106 0 -33.19684 -14.862762 -33.19684 -33.19687z" fill-rule="nonzero"></path><path stroke="#4a86e8" stroke-width="2.0" stroke-linejoin="round" stroke-linecap="butt" d="m868.4251 371.66486c0 -1.90979 1.5481567 -3.4580078 3.4579468 -3.4580078c1.9098511 0 3.4580078 1.5482178 3.4580078 3.4580078c0 1.9098206 -1.5481567 3.4580078 -3.4580078 3.4580078c-1.90979 0 -3.4579468 -1.5481873 -3.4579468 -3.4580078m21.270569 0c0 -1.90979 1.5481567 -3.4580078 3.4580078 -3.4580078c1.90979 0 3.4580078 1.5482178 3.4580078 3.4580078c0 1.9098206 -1.5482178 3.4580078 -3.4580078 3.4580078c-1.9098511 0 -3.4580078 -1.5481873 -3.4580078 -3.4580078" fill-rule="nonzero"></path><path stroke="#4a86e8" stroke-width="2.0" stroke-linejoin="round" stroke-linecap="butt" d="m864.52545 396.07056q17.99292 12.357178 35.943787 0" fill-rule="nonzero"></path><path stroke="#4a86e8" stroke-width="2.0" stroke-linejoin="round" stroke-linecap="butt" d="m849.32153 381.59317l0 0c0 -18.334106 14.862732 -33.19684 33.19684 -33.19684c18.334106 0 33.19684 14.862732 33.19684 33.19684c0 18.334106 -14.862732 33.19687 -33.19684 33.19687c-18.334106 0 -33.19684 -14.862762 -33.19684 -33.19687z" fill-rule="nonzero"></path><path fill="#c9daf8" d="m432.88452 481.06824l0 0c0 -18.334106 14.862732 -33.19684 33.19684 -33.19684c18.334106 0 33.19687 14.862732 33.19687 33.19684c0 18.334106 -14.862762 33.19684 -33.19687 33.19684c-18.334106 0 -33.19684 -14.862732 -33.19684 -33.19684z" fill-rule="nonzero"></path><path fill="#a0aec6" d="m451.98807 471.13992c0 -1.90979 1.5482178 -3.4580078 3.4580078 -3.4580078c1.9098206 0 3.4580078 1.5482178 3.4580078 3.4580078c0 1.90979 -1.5481873 3.4580078 -3.4580078 3.4580078c-1.90979 0 -3.4580078 -1.5482178 -3.4580078 -3.4580078m21.270569 0c0 -1.90979 1.5482178 -3.4580078 3.4580078 -3.4580078c1.9098206 0 3.4580078 1.5482178 3.4580078 3.4580078c0 1.90979 -1.5481873 3.4580078 -3.4580078 3.4580078c-1.90979 0 -3.4580078 -1.5482178 -3.4580078 -3.4580078" fill-rule="nonzero"></path><path fill="#000000" fill-opacity="0.0" d="m448.08844 495.54562q17.99292 12.357178 35.943817 0" fill-rule="nonzero"></path><path fill="#000000" fill-opacity="0.0" d="m432.88452 481.06824l0 0c0 -18.334106 14.862732 -33.19684 33.19684 -33.19684c18.334106 0 33.19687 14.862732 33.19687 33.19684c0 18.334106 -14.862762 33.19684 -33.19687 33.19684c-18.334106 0 -33.19684 -14.862732 -33.19684 -33.19684z" fill-rule="nonzero"></path><path stroke="#4a86e8" stroke-width="2.0" stroke-linejoin="round" stroke-linecap="butt" d="m451.98807 471.13992c0 -1.90979 1.5482178 -3.4580078 3.4580078 -3.4580078c1.9098206 0 3.4580078 1.5482178 3.4580078 3.4580078c0 1.90979 -1.5481873 3.4580078 -3.4580078 3.4580078c-1.90979 0 -3.4580078 -1.5482178 -3.4580078 -3.4580078m21.270569 0c0 -1.90979 1.5482178 -3.4580078 3.4580078 -3.4580078c1.9098206 0 3.4580078 1.5482178 3.4580078 3.4580078c0 1.90979 -1.5481873 3.4580078 -3.4580078 3.4580078c-1.90979 0 -3.4580078 -1.5482178 -3.4580078 -3.4580078" fill-rule="nonzero"></path><path stroke="#4a86e8" stroke-width="2.0" stroke-linejoin="round" stroke-linecap="butt" d="m448.08844 495.54562q17.99292 12.357178 35.943817 0" fill-rule="nonzero"></path><path stroke="#4a86e8" stroke-width="2.0" stroke-linejoin="round" stroke-linecap="butt" d="m432.88452 481.06824l0 0c0 -18.334106 14.862732 -33.19684 33.19684 -33.19684c18.334106 0 33.19687 14.862732 33.19687 33.19684c0 18.334106 -14.862762 33.19684 -33.19687 33.19684c-18.334106 0 -33.19684 -14.862732 -33.19684 -33.19684z" fill-rule="nonzero"></path><path fill="#c9daf8" d="m600.27954 490.4147l0 0c0 -18.334106 14.862732 -33.19687 33.19684 -33.19687c18.334106 0 33.19684 14.862762 33.19684 33.19687c0 18.334106 -14.862732 33.19687 -33.19684 33.19687c-18.334106 0 -33.19684 -14.862762 -33.19684 -33.19687z" fill-rule="nonzero"></path><path fill="#a0aec6" d="m619.38306 480.4864c0 -1.9098206 1.5482178 -3.4580078 3.4580078 -3.4580078c1.9098511 0 3.4580078 1.5481873 3.4580078 3.4580078c0 1.90979 -1.5481567 3.4580078 -3.4580078 3.4580078c-1.90979 0 -3.4580078 -1.5482178 -3.4580078 -3.4580078m21.27063 0c0 -1.9098206 1.5481567 -3.4580078 3.4580078 -3.4580078c1.90979 0 3.4579468 1.5481873 3.4579468 3.4580078c0 1.90979 -1.5481567 3.4580078 -3.4579468 3.4580078c-1.9098511 0 -3.4580078 -1.5482178 -3.4580078 -3.4580078" fill-rule="nonzero"></path><path fill="#000000" fill-opacity="0.0" d="m615.48346 504.89206q17.99292 12.357208 35.943787 0" fill-rule="nonzero"></path><path fill="#000000" fill-opacity="0.0" d="m600.27954 490.4147l0 0c0 -18.334106 14.862732 -33.19687 33.19684 -33.19687c18.334106 0 33.19684 14.862762 33.19684 33.19687c0 18.334106 -14.862732 33.19687 -33.19684 33.19687c-18.334106 0 -33.19684 -14.862762 -33.19684 -33.19687z" fill-rule="nonzero"></path><path stroke="#4a86e8" stroke-width="2.0" stroke-linejoin="round" stroke-linecap="butt" d="m619.38306 480.4864c0 -1.9098206 1.5482178 -3.4580078 3.4580078 -3.4580078c1.9098511 0 3.4580078 1.5481873 3.4580078 3.4580078c0 1.90979 -1.5481567 3.4580078 -3.4580078 3.4580078c-1.90979 0 -3.4580078 -1.5482178 -3.4580078 -3.4580078m21.27063 0c0 -1.9098206 1.5481567 -3.4580078 3.4580078 -3.4580078c1.90979 0 3.4579468 1.5481873 3.4579468 3.4580078c0 1.90979 -1.5481567 3.4580078 -3.4579468 3.4580078c-1.9098511 0 -3.4580078 -1.5482178 -3.4580078 -3.4580078" fill-rule="nonzero"></path><path stroke="#4a86e8" stroke-width="2.0" stroke-linejoin="round" stroke-linecap="butt" d="m615.48346 504.89206q17.99292 12.357208 35.943787 0" fill-rule="nonzero"></path><path stroke="#4a86e8" stroke-width="2.0" stroke-linejoin="round" stroke-linecap="butt" d="m600.27954 490.4147l0 0c0 -18.334106 14.862732 -33.19687 33.19684 -33.19687c18.334106 0 33.19684 14.862762 33.19684 33.19687c0 18.334106 -14.862732 33.19687 -33.19684 33.19687c-18.334106 0 -33.19684 -14.862762 -33.19684 -33.19687z" fill-rule="nonzero"></path><path fill="#c9daf8" d="m700.31494 151.68242l0 0c0 -18.334122 14.862732 -33.196854 33.1969 -33.196854c18.334106 0 33.19684 14.862732 33.19684 33.196854c0 18.334106 -14.862732 33.196854 -33.19684 33.196854c-18.334167 0 -33.1969 -14.862747 -33.1969 -33.196854z" fill-rule="nonzero"></path><path fill="#a0aec6" d="m719.4185 141.7541c0 -1.9098053 1.5482178 -3.4580078 3.4580078 -3.4580078c1.90979 0 3.4580078 1.5482025 3.4580078 3.4580078c0 1.90979 -1.5482178 3.4579926 -3.4580078 3.4579926c-1.90979 0 -3.4580078 -1.5482025 -3.4580078 -3.4579926m21.270569 0c0 -1.9098053 1.5482178 -3.4580078 3.4580078 -3.4580078c1.90979 0 3.4580078 1.5482025 3.4580078 3.4580078c0 1.90979 -1.5482178 3.4579926 -3.4580078 3.4579926c-1.90979 0 -3.4580078 -1.5482025 -3.4580078 -3.4579926" fill-rule="nonzero"></path><path fill="#000000" fill-opacity="0.0" d="m715.5189 166.15979q17.99292 12.357193 35.943787 0" fill-rule="nonzero"></path><path fill="#000000" fill-opacity="0.0" d="m700.31494 151.68242l0 0c0 -18.334122 14.862732 -33.196854 33.1969 -33.196854c18.334106 0 33.19684 14.862732 33.19684 33.196854c0 18.334106 -14.862732 33.196854 -33.19684 33.196854c-18.334167 0 -33.1969 -14.862747 -33.1969 -33.196854z" fill-rule="nonzero"></path><path stroke="#4a86e8" stroke-width="2.0" stroke-linejoin="round" stroke-linecap="butt" d="m719.4185 141.7541c0 -1.9098053 1.5482178 -3.4580078 3.4580078 -3.4580078c1.90979 0 3.4580078 1.5482025 3.4580078 3.4580078c0 1.90979 -1.5482178 3.4579926 -3.4580078 3.4579926c-1.90979 0 -3.4580078 -1.5482025 -3.4580078 -3.4579926m21.270569 0c0 -1.9098053 1.5482178 -3.4580078 3.4580078 -3.4580078c1.90979 0 3.4580078 1.5482025 3.4580078 3.4580078c0 1.90979 -1.5482178 3.4579926 -3.4580078 3.4579926c-1.90979 0 -3.4580078 -1.5482025 -3.4580078 -3.4579926" fill-rule="nonzero"></path><path stroke="#4a86e8" stroke-width="2.0" stroke-linejoin="round" stroke-linecap="butt" d="m715.5189 166.15979q17.99292 12.357193 35.943787 0" fill-rule="nonzero"></path><path stroke="#4a86e8" stroke-width="2.0" stroke-linejoin="round" stroke-linecap="butt" d="m700.31494 151.68242l0 0c0 -18.334122 14.862732 -33.196854 33.1969 -33.196854c18.334106 0 33.19684 14.862732 33.19684 33.196854c0 18.334106 -14.862732 33.196854 -33.19684 33.196854c-18.334167 0 -33.1969 -14.862747 -33.1969 -33.196854z" fill-rule="nonzero"></path><path fill="#c9daf8" d="m656.14435 79.698166l0 0c0 -18.334118 14.862732 -33.196854 33.19684 -33.196854c18.334106 0 33.1969 14.862736 33.1969 33.196854c0 18.334114 -14.862793 33.196846 -33.1969 33.196846c-18.334106 0 -33.19684 -14.862732 -33.19684 -33.196846z" fill-rule="nonzero"></path><path fill="#a0aec6" d="m675.2479 69.769844c0 -1.9098053 1.5482178 -3.4580002 3.4580078 -3.4580002c1.90979 0 3.4580078 1.5481949 3.4580078 3.4580002c0 1.9098053 -1.5482178 3.4580078 -3.4580078 3.4580078c-1.90979 0 -3.4580078 -1.5482025 -3.4580078 -3.4580078m21.270569 0c0 -1.9098053 1.5482178 -3.4580002 3.4580078 -3.4580002c1.90979 0 3.4580078 1.5481949 3.4580078 3.4580002c0 1.9098053 -1.5482178 3.4580078 -3.4580078 3.4580078c-1.90979 0 -3.4580078 -1.5482025 -3.4580078 -3.4580078" fill-rule="nonzero"></path><path fill="#000000" fill-opacity="0.0" d="m671.3483 94.17553q17.992859 12.357193 35.943787 0" fill-rule="nonzero"></path><path fill="#000000" fill-opacity="0.0" d="m656.14435 79.698166l0 0c0 -18.334118 14.862732 -33.196854 33.19684 -33.196854c18.334106 0 33.1969 14.862736 33.1969 33.196854c0 18.334114 -14.862793 33.196846 -33.1969 33.196846c-18.334106 0 -33.19684 -14.862732 -33.19684 -33.196846z" fill-rule="nonzero"></path><path stroke="#4a86e8" stroke-width="2.0" stroke-linejoin="round" stroke-linecap="butt" d="m675.2479 69.769844c0 -1.9098053 1.5482178 -3.4580002 3.4580078 -3.4580002c1.90979 0 3.4580078 1.5481949 3.4580078 3.4580002c0 1.9098053 -1.5482178 3.4580078 -3.4580078 3.4580078c-1.90979 0 -3.4580078 -1.5482025 -3.4580078 -3.4580078m21.270569 0c0 -1.9098053 1.5482178 -3.4580002 3.4580078 -3.4580002c1.90979 0 3.4580078 1.5481949 3.4580078 3.4580002c0 1.9098053 -1.5482178 3.4580078 -3.4580078 3.4580078c-1.90979 0 -3.4580078 -1.5482025 -3.4580078 -3.4580078" fill-rule="nonzero"></path><path stroke="#4a86e8" stroke-width="2.0" stroke-linejoin="round" stroke-linecap="butt" d="m671.3483 94.17553q17.992859 12.357193 35.943787 0" fill-rule="nonzero"></path><path stroke="#4a86e8" stroke-width="2.0" stroke-linejoin="round" stroke-linecap="butt" d="m656.14435 79.698166l0 0c0 -18.334118 14.862732 -33.196854 33.19684 -33.196854c18.334106 0 33.1969 14.862736 33.1969 33.196854c0 18.334114 -14.862793 33.196846 -33.1969 33.196846c-18.334106 0 -33.19684 -14.862732 -33.19684 -33.196846z" fill-rule="nonzero"></path><path fill="#c9daf8" d="m508.96063 511.65878l0 0c0 -18.334106 14.862732 -33.19684 33.19684 -33.19684c18.334106 0 33.19684 14.862732 33.19684 33.19684c0 18.334137 -14.862732 33.19687 -33.19684 33.19687c-18.334106 0 -33.19684 -14.862732 -33.19684 -33.19687z" fill-rule="nonzero"></path><path fill="#a0aec6" d="m528.0642 501.73047c0 -1.90979 1.5481567 -3.4580078 3.4580078 -3.4580078c1.90979 0 3.4580078 1.5482178 3.4580078 3.4580078c0 1.9098206 -1.5482178 3.4580078 -3.4580078 3.4580078c-1.9098511 0 -3.4580078 -1.5481873 -3.4580078 -3.4580078m21.270569 0c0 -1.90979 1.5481567 -3.4580078 3.4580078 -3.4580078c1.90979 0 3.4580078 1.5482178 3.4580078 3.4580078c0 1.9098206 -1.5482178 3.4580078 -3.4580078 3.4580078c-1.9098511 0 -3.4580078 -1.5481873 -3.4580078 -3.4580078" fill-rule="nonzero"></path><path fill="#000000" fill-opacity="0.0" d="m524.16455 526.13617q17.99292 12.357178 35.943848 0" fill-rule="nonzero"></path><path fill="#000000" fill-opacity="0.0" d="m508.96063 511.65878l0 0c0 -18.334106 14.862732 -33.19684 33.19684 -33.19684c18.334106 0 33.19684 14.862732 33.19684 33.19684c0 18.334137 -14.862732 33.19687 -33.19684 33.19687c-18.334106 0 -33.19684 -14.862732 -33.19684 -33.19687z" fill-rule="nonzero"></path><path stroke="#4a86e8" stroke-width="2.0" stroke-linejoin="round" stroke-linecap="butt" d="m528.0642 501.73047c0 -1.90979 1.5481567 -3.4580078 3.4580078 -3.4580078c1.90979 0 3.4580078 1.5482178 3.4580078 3.4580078c0 1.9098206 -1.5482178 3.4580078 -3.4580078 3.4580078c-1.9098511 0 -3.4580078 -1.5481873 -3.4580078 -3.4580078m21.270569 0c0 -1.90979 1.5481567 -3.4580078 3.4580078 -3.4580078c1.90979 0 3.4580078 1.5482178 3.4580078 3.4580078c0 1.9098206 -1.5482178 3.4580078 -3.4580078 3.4580078c-1.9098511 0 -3.4580078 -1.5481873 -3.4580078 -3.4580078" fill-rule="nonzero"></path><path stroke="#4a86e8" stroke-width="2.0" stroke-linejoin="round" stroke-linecap="butt" d="m524.16455 526.13617q17.99292 12.357178 35.943848 0" fill-rule="nonzero"></path><path stroke="#4a86e8" stroke-width="2.0" stroke-linejoin="round" stroke-linecap="butt" d="m508.96063 511.65878l0 0c0 -18.334106 14.862732 -33.19684 33.19684 -33.19684c18.334106 0 33.19684 14.862732 33.19684 33.19684c0 18.334137 -14.862732 33.19687 -33.19684 33.19687c-18.334106 0 -33.19684 -14.862732 -33.19684 -33.19687z" fill-rule="nonzero"></path><path fill="#c9daf8" d="m842.3793 294.9239l0 0c0 -18.334106 14.862732 -33.19687 33.19684 -33.19687c18.334106 0 33.19684 14.862762 33.19684 33.19687c0 18.334106 -14.862732 33.19684 -33.19684 33.19684c-18.334106 0 -33.19684 -14.862732 -33.19684 -33.19684z" fill-rule="nonzero"></path><path fill="#a0aec6" d="m861.48285 284.99557c0 -1.9098206 1.5481567 -3.4580078 3.4580078 -3.4580078c1.90979 0 3.4579468 1.5481873 3.4579468 3.4580078c0 1.90979 -1.5481567 3.4580078 -3.4579468 3.4580078c-1.9098511 0 -3.4580078 -1.5482178 -3.4580078 -3.4580078m21.270569 0c0 -1.9098206 1.5481567 -3.4580078 3.4580078 -3.4580078c1.90979 0 3.4580078 1.5481873 3.4580078 3.4580078c0 1.90979 -1.5482178 3.4580078 -3.4580078 3.4580078c-1.9098511 0 -3.4580078 -1.5482178 -3.4580078 -3.4580078" fill-rule="nonzero"></path><path fill="#000000" fill-opacity="0.0" d="m857.5832 309.40125q17.99292 12.357208 35.943787 0" fill-rule="nonzero"></path><path fill="#000000" fill-opacity="0.0" d="m842.3793 294.9239l0 0c0 -18.334106 14.862732 -33.19687 33.19684 -33.19687c18.334106 0 33.19684 14.862762 33.19684 33.19687c0 18.334106 -14.862732 33.19684 -33.19684 33.19684c-18.334106 0 -33.19684 -14.862732 -33.19684 -33.19684z" fill-rule="nonzero"></path><path stroke="#4a86e8" stroke-width="2.0" stroke-linejoin="round" stroke-linecap="butt" d="m861.48285 284.99557c0 -1.9098206 1.5481567 -3.4580078 3.4580078 -3.4580078c1.90979 0 3.4579468 1.5481873 3.4579468 3.4580078c0 1.90979 -1.5481567 3.4580078 -3.4579468 3.4580078c-1.9098511 0 -3.4580078 -1.5482178 -3.4580078 -3.4580078m21.270569 0c0 -1.9098206 1.5481567 -3.4580078 3.4580078 -3.4580078c1.90979 0 3.4580078 1.5481873 3.4580078 3.4580078c0 1.90979 -1.5482178 3.4580078 -3.4580078 3.4580078c-1.9098511 0 -3.4580078 -1.5482178 -3.4580078 -3.4580078" fill-rule="nonzero"></path><path stroke="#4a86e8" stroke-width="2.0" stroke-linejoin="round" stroke-linecap="butt" d="m857.5832 309.40125q17.99292 12.357208 35.943787 0" fill-rule="nonzero"></path><path stroke="#4a86e8" stroke-width="2.0" stroke-linejoin="round" stroke-linecap="butt" d="m842.3793 294.9239l0 0c0 -18.334106 14.862732 -33.19687 33.19684 -33.19687c18.334106 0 33.19684 14.862762 33.19684 33.19687c0 18.334106 -14.862732 33.19684 -33.19684 33.19684c-18.334106 0 -33.19684 -14.862732 -33.19684 -33.19684z" fill-rule="nonzero"></path></g></svg>

