<?xml version="1.0" encoding="UTF-8" standalone="no"?>
<!-- Created with Inkscape (http://www.inkscape.org/) -->

<svg
   xmlns:dc="http://purl.org/dc/elements/1.1/"
   xmlns:cc="http://creativecommons.org/ns#"
   xmlns:rdf="http://www.w3.org/1999/02/22-rdf-syntax-ns#"
   xmlns:svg="http://www.w3.org/2000/svg"
   xmlns="http://www.w3.org/2000/svg"
   xmlns:sodipodi="http://sodipodi.sourceforge.net/DTD/sodipodi-0.dtd"
   xmlns:inkscape="http://www.inkscape.org/namespaces/inkscape"
   width="121.08835mm"
   height="19.207632mm"
   viewBox="0 0 121.08835 19.207632"
   version="1.1"
   id="svg20394"
   inkscape:version="0.92.2 (5c3e80d, 2017-08-06)"
   sodipodi:docname="asynch-center-2.svg">
  <defs
     id="defs20388">
    <marker
       inkscape:stockid="Arrow2Mend"
       orient="auto"
       refY="0"
       refX="0"
       id="Arrow2Mend-6"
       style="overflow:visible"
       inkscape:isstock="true">
      <path
         inkscape:connector-curvature="0"
         id="path2938-1"
         style="fill:#4c4c4c;fill-opacity:1;fill-rule:evenodd;stroke:#4c4c4c;stroke-width:0.625;stroke-linejoin:round;stroke-opacity:1"
         d="M 8.7185878,4.0337352 -2.2072895,0.01601326 8.7185884,-4.0017078 c -1.7454984,2.3720609 -1.7354408,5.6174519 -6e-7,8.035443 z"
         transform="scale(-0.6)" />
    </marker>
  </defs>
  <sodipodi:namedview
     id="base"
     pagecolor="#ffffff"
     bordercolor="#666666"
     borderopacity="1.0"
     inkscape:pageopacity="0.0"
     inkscape:pageshadow="2"
     inkscape:zoom="1.979899"
     inkscape:cx="153.75598"
     inkscape:cy="20.584629"
     inkscape:document-units="mm"
     inkscape:current-layer="layer1"
     showgrid="false"
     fit-margin-top="0"
     fit-margin-left="0"
     fit-margin-right="0"
     fit-margin-bottom="0"
     inkscape:window-width="2552"
     inkscape:window-height="1400"
     inkscape:window-x="4"
     inkscape:window-y="4"
     inkscape:window-maximized="1" />
  <metadata
     id="metadata20391">
    <rdf:RDF>
      <cc:Work
         rdf:about="">
        <dc:format>image/svg+xml</dc:format>
        <dc:type
           rdf:resource="http://purl.org/dc/dcmitype/StillImage" />
        <dc:title></dc:title>
      </cc:Work>
    </rdf:RDF>
  </metadata>
  <g
     inkscape:label="Layer 1"
     inkscape:groupmode="layer"
     id="layer1"
     transform="translate(196.6156,-282.86047)">
    <path
       style="fill:#4c4c4c;stroke:#4c4c4c;stroke-width:1.46500015;stroke-linecap:butt;stroke-linejoin:miter;stroke-miterlimit:4;stroke-dasharray:none;stroke-opacity:1;marker-end:url(#Arrow2Mend-6)"
       d="M -196.6156,298.24779 H -77.742093"
       id="path17391-0"
       inkscape:connector-curvature="0" />
    <g
       aria-label="435267aa ?"
       style="font-style:normal;font-variant:normal;font-weight:900;font-stretch:normal;font-size:8.46666622px;line-height:1.25;font-family:Overpass;-inkscape-font-specification:'Overpass Heavy';letter-spacing:0px;word-spacing:0px;stroke-width:0.26458332"
       id="text862">
      <path
         d="m -153.09425,295.40427 h 1.2446 v -1.10067 h 0.69427 v -1.1938 h -0.69427 v -3.6322 h -1.26153 l -3.03107,4.0132 v 0.8128 h 3.048 z m 0,-2.29447 h -1.38007 l 1.38007,-1.8796 z"
         style="font-style:normal;font-variant:normal;font-weight:900;font-stretch:normal;font-family:Overpass;-inkscape-font-specification:'Overpass Heavy';stroke-width:0.26458332"
         id="path889" />
      <path
         d="m -148.1476,295.50587 c 1.20227,0 2.01507,-0.71967 2.01507,-1.68487 0,-0.762 -0.42334,-1.25307 -0.88054,-1.43087 0.39794,-0.26246 0.69427,-0.7112 0.69427,-1.31233 0,-1.00753 -0.75353,-1.7018 -1.87113,-1.7018 -0.889,0 -1.5494,0.49953 -1.92194,1.23613 l 1.15147,0.44874 c 0.1778,-0.28787 0.42333,-0.46567 0.75353,-0.46567 0.39794,0 0.61807,0.27093 0.61807,0.59267 0,0.4064 -0.23707,0.62653 -0.60113,0.62653 h -0.64347 v 1.23613 h 0.64347 c 0.55033,0 0.7874,0.3048 0.7874,0.59267 0,0.4064 -0.29634,0.64347 -0.74507,0.64347 -0.39793,0 -0.72813,-0.1778 -0.99907,-0.65194 l -1.15146,0.46567 c 0.33866,0.8636 1.10913,1.40547 2.15053,1.40547 z"
         style="font-style:normal;font-variant:normal;font-weight:900;font-stretch:normal;font-family:Overpass;-inkscape-font-specification:'Overpass Heavy';stroke-width:0.26458332"
         id="path891" />
      <path
         d="m -143.27411,295.50587 c 1.30387,0 2.286,-0.7874 2.286,-2.09127 0,-1.10913 -0.66886,-1.98967 -1.96426,-1.98967 -0.27094,0 -0.4826,0.0508 -0.72814,0.127 l 0.0339,-0.8382 h 2.286 v -1.23613 h -3.47133 l -0.127,3.00567 1.1176,0.5842 c 0.23706,-0.27094 0.47413,-0.42334 0.88053,-0.42334 0.46567,0 0.69427,0.31327 0.69427,0.75354 0,0.5842 -0.4064,0.889 -1.00754,0.889 -0.49953,0 -0.889,-0.18627 -1.18533,-0.37254 l -0.66887,1.00754 c 0.37254,0.28786 0.9906,0.5842 1.8542,0.5842 z"
         style="font-style:normal;font-variant:normal;font-weight:900;font-stretch:normal;font-family:Overpass;-inkscape-font-specification:'Overpass Heavy';stroke-width:0.26458332"
         id="path893" />
      <path
         d="m -139.94313,295.40427 h 4.1148 v -1.23614 h -2.60774 c 0.19474,-0.44026 0.508,-0.6858 1.30387,-1.15993 0.72813,-0.42333 1.25307,-0.85513 1.25307,-1.8796 0,-0.9652 -0.70274,-1.7526 -1.93887,-1.7526 -0.85513,0 -1.66793,0.4826 -2.032,1.2954 l 1.15147,0.51647 c 0.19473,-0.37254 0.508,-0.59267 0.92286,-0.59267 0.38947,0 0.62654,0.1778 0.62654,0.5842 0,0.4064 -0.37254,0.64347 -0.762,0.85513 -1.15147,0.635 -2.032,1.5494 -2.032,3.36974 z"
         style="font-style:normal;font-variant:normal;font-weight:900;font-stretch:normal;font-family:Overpass;-inkscape-font-specification:'Overpass Heavy';stroke-width:0.26458332"
         id="path895" />
      <path
         d="m -132.54896,295.50587 c 1.26154,0 2.159,-0.7874 2.159,-1.93887 0,-1.15147 -0.84666,-1.93887 -1.99813,-1.93887 -0.3556,0 -0.635,0.0931 -0.8382,0.22014 0.3556,-0.7874 1.26153,-1.13454 2.0574,-1.25307 v -1.2192 c -2.5654,0.39793 -3.59833,1.96427 -3.59833,3.85233 0,1.2954 0.77893,2.27754 2.21826,2.27754 z m 0,-1.2192 c -0.51646,0 -0.889,-0.26247 -0.889,-0.71967 0,-0.42333 0.37254,-0.72813 0.889,-0.72813 0.49954,0 0.88054,0.28786 0.88054,0.72813 0,0.4572 -0.381,0.71967 -0.88054,0.71967 z"
         style="font-style:normal;font-variant:normal;font-weight:900;font-stretch:normal;font-family:Overpass;-inkscape-font-specification:'Overpass Heavy';stroke-width:0.26458332"
         id="path897" />
      <path
         d="m -128.55468,295.40427 h 1.27 c 0,-1.2192 0.49107,-3.56447 1.68487,-4.89374 v -1.03293 h -4.13173 v 1.23613 h 2.60773 c -0.95673,1.32927 -1.41393,2.76014 -1.43087,4.69054 z"
         style="font-style:normal;font-variant:normal;font-weight:900;font-stretch:normal;font-family:Overpass;-inkscape-font-specification:'Overpass Heavy';stroke-width:0.26458332"
         id="path899" />
      <path
         d="m -122.06498,295.40427 h 1.2192 v -2.73474 c 0,-1.49013 -1.03293,-1.69333 -1.83726,-1.69333 -0.762,0 -1.40547,0.23707 -1.8542,0.54187 l 0.381,0.9398 c 0.4572,-0.3048 0.90593,-0.4572 1.38853,-0.4572 0.42333,0 0.70273,0.2032 0.70273,0.6096 v 0.23706 c -0.24553,-0.11006 -0.52493,-0.1524 -0.94826,-0.1524 -0.85514,0 -1.7526,0.44027 -1.7526,1.38854 0,0.94826 0.7112,1.4224 1.6256,1.4224 0.5588,0 0.8636,-0.19474 1.07526,-0.42334 z m -0.8382,-0.93134 c -0.42333,0 -0.6604,-0.14393 -0.6604,-0.381 0,-0.31326 0.33867,-0.41486 0.762,-0.41486 0.27094,0 0.508,0.0339 0.7366,0.1016 v 0.38946 c -0.2032,0.16087 -0.46566,0.3048 -0.8382,0.3048 z"
         style="font-style:normal;font-variant:normal;font-weight:900;font-stretch:normal;font-family:Overpass;-inkscape-font-specification:'Overpass Heavy';stroke-width:0.26458332"
         id="path901" />
      <path
         d="m -117.21979,295.40427 h 1.2192 v -2.73474 c 0,-1.49013 -1.03294,-1.69333 -1.83727,-1.69333 -0.762,0 -1.40547,0.23707 -1.8542,0.54187 l 0.381,0.9398 c 0.4572,-0.3048 0.90593,-0.4572 1.38853,-0.4572 0.42334,0 0.70274,0.2032 0.70274,0.6096 v 0.23706 c -0.24554,-0.11006 -0.52494,-0.1524 -0.94827,-0.1524 -0.85513,0 -1.7526,0.44027 -1.7526,1.38854 0,0.94826 0.7112,1.4224 1.6256,1.4224 0.5588,0 0.8636,-0.19474 1.07527,-0.42334 z m -0.8382,-0.93134 c -0.42334,0 -0.6604,-0.14393 -0.6604,-0.381 0,-0.31326 0.33866,-0.41486 0.762,-0.41486 0.27093,0 0.508,0.0339 0.7366,0.1016 v 0.38946 c -0.2032,0.16087 -0.46567,0.3048 -0.8382,0.3048 z"
         style="font-style:normal;font-variant:normal;font-weight:900;font-stretch:normal;font-family:Overpass;-inkscape-font-specification:'Overpass Heavy';stroke-width:0.26458332"
         id="path903" />
      <path
         d="m -111.80047,293.81253 h 1.2192 V 293.44 c 0,-0.9906 1.30387,-0.92287 1.30387,-2.31987 0,-0.9906 -0.64347,-1.74413 -1.84573,-1.74413 -1.1684,0 -1.9812,0.72813 -1.9812,2.09973 h 1.22766 c 0,-0.5842 0.24554,-0.9144 0.75354,-0.9144 0.4064,0 0.62653,0.23707 0.62653,0.5588 0,0.77047 -1.30387,0.762 -1.30387,2.3114 z m 0.62654,1.69334 c 0.4318,0 0.762,-0.31327 0.762,-0.7366 0,-0.41487 -0.3302,-0.75354 -0.762,-0.75354 -0.4318,0 -0.75354,0.33867 -0.75354,0.75354 0,0.42333 0.32174,0.7366 0.75354,0.7366 z"
         style="font-style:normal;font-variant:normal;font-weight:900;font-stretch:normal;font-family:Overpass;-inkscape-font-specification:'Overpass Heavy';stroke-width:0.26458332"
         id="path905" />
    </g>
    <text
       xml:space="preserve"
       style="font-size:8.46666622px;line-height:1.25;font-family:Overpass;-inkscape-font-specification:Overpass;letter-spacing:0px;word-spacing:0px;stroke-width:0.26458332"
       x="-128.99641"
       y="260.50769"
       id="text866"><tspan
         sodipodi:role="line"
         id="tspan864"
         x="-128.99641"
         y="267.91602"
         style="stroke-width:0.26458332"></tspan></text>
  </g>
</svg>
