<?xml version="1.0" encoding="UTF-8" standalone="no"?>
<!-- Created with Inkscape (http://www.inkscape.org/) -->

<svg
   xmlns:dc="http://purl.org/dc/elements/1.1/"
   xmlns:cc="http://creativecommons.org/ns#"
   xmlns:rdf="http://www.w3.org/1999/02/22-rdf-syntax-ns#"
   xmlns:svg="http://www.w3.org/2000/svg"
   xmlns="http://www.w3.org/2000/svg"
   xmlns:sodipodi="http://sodipodi.sourceforge.net/DTD/sodipodi-0.dtd"
   xmlns:inkscape="http://www.inkscape.org/namespaces/inkscape"
   width="795.99097"
   height="689.34882"
   viewBox="0 0 210.60594 182.39021"
   version="1.1"
   id="svg1959"
   inkscape:version="0.92.2 (5c3e80d, 2017-08-06)"
   sodipodi:docname="cn-app.svg"
   inkscape:export-filename="/home/mike/workspace/github/elmiko/slidedecks/deck/cn-app.png"
   inkscape:export-xdpi="96"
   inkscape:export-ydpi="96">
  <defs
     id="defs1953">
    <marker
       inkscape:stockid="TriangleOutS"
       orient="auto"
       refY="0"
       refX="0"
       id="TriangleOutS"
       style="overflow:visible"
       inkscape:isstock="true">
      <path
         id="path3064"
         d="M 5.77,0 -2.88,5 V -5 Z"
         style="fill:#dcdcdc;fill-opacity:1;fill-rule:evenodd;stroke:#dcdcdc;stroke-width:1.00000003pt;stroke-opacity:1"
         transform="scale(0.2)"
         inkscape:connector-curvature="0" />
    </marker>
    <marker
       inkscape:stockid="TriangleOutS"
       orient="auto"
       refY="0"
       refX="0"
       id="TriangleOutS-4"
       style="overflow:visible"
       inkscape:isstock="true">
      <path
         inkscape:connector-curvature="0"
         id="path3064-7"
         d="M 5.77,0 -2.88,5 V -5 Z"
         style="fill:#dcdcdc;fill-opacity:1;fill-rule:evenodd;stroke:#dcdcdc;stroke-width:1.00000003pt;stroke-opacity:1"
         transform="scale(0.2)" />
    </marker>
    <marker
       inkscape:stockid="TriangleOutS"
       orient="auto"
       refY="0"
       refX="0"
       id="TriangleOutS-4-4"
       style="overflow:visible"
       inkscape:isstock="true">
      <path
         inkscape:connector-curvature="0"
         id="path3064-7-3"
         d="M 5.77,0 -2.88,5 V -5 Z"
         style="fill:#dcdcdc;fill-opacity:1;fill-rule:evenodd;stroke:#dcdcdc;stroke-width:1.00000003pt;stroke-opacity:1"
         transform="scale(0.2)" />
    </marker>
    <marker
       inkscape:stockid="TriangleOutS"
       orient="auto"
       refY="0"
       refX="0"
       id="TriangleOutS-4-7"
       style="overflow:visible"
       inkscape:isstock="true">
      <path
         inkscape:connector-curvature="0"
         id="path3064-7-8"
         d="M 5.77,0 -2.88,5 V -5 Z"
         style="fill:#dcdcdc;fill-opacity:1;fill-rule:evenodd;stroke:#dcdcdc;stroke-width:1.00000003pt;stroke-opacity:1"
         transform="scale(0.2)" />
    </marker>
    <marker
       inkscape:stockid="TriangleOutS"
       orient="auto"
       refY="0"
       refX="0"
       id="TriangleOutS-8"
       style="overflow:visible"
       inkscape:isstock="true">
      <path
         inkscape:connector-curvature="0"
         id="path3064-8"
         d="M 5.77,0 -2.88,5 V -5 Z"
         style="fill:#dcdcdc;fill-opacity:1;fill-rule:evenodd;stroke:#dcdcdc;stroke-width:1.00000003pt;stroke-opacity:1"
         transform="scale(0.2)" />
    </marker>
    <marker
       inkscape:stockid="TriangleOutS"
       orient="auto"
       refY="0"
       refX="0"
       id="TriangleOutS-8-1"
       style="overflow:visible"
       inkscape:isstock="true">
      <path
         inkscape:connector-curvature="0"
         id="path3064-8-4"
         d="M 5.77,0 -2.88,5 V -5 Z"
         style="fill:#dcdcdc;fill-opacity:1;fill-rule:evenodd;stroke:#dcdcdc;stroke-width:1.00000003pt;stroke-opacity:1"
         transform="scale(0.2)" />
    </marker>
    <marker
       inkscape:stockid="TriangleOutS"
       orient="auto"
       refY="0"
       refX="0"
       id="TriangleOutS-8-2"
       style="overflow:visible"
       inkscape:isstock="true">
      <path
         inkscape:connector-curvature="0"
         id="path3064-8-0"
         d="M 5.77,0 -2.88,5 V -5 Z"
         style="fill:#dcdcdc;fill-opacity:1;fill-rule:evenodd;stroke:#dcdcdc;stroke-width:1.00000003pt;stroke-opacity:1"
         transform="scale(0.2)" />
    </marker>
    <marker
       inkscape:stockid="TriangleOutS"
       orient="auto"
       refY="0"
       refX="0"
       id="TriangleOutS-4-7-8"
       style="overflow:visible"
       inkscape:isstock="true">
      <path
         inkscape:connector-curvature="0"
         id="path3064-7-8-9"
         d="M 5.77,0 -2.88,5 V -5 Z"
         style="fill:#dcdcdc;fill-opacity:1;fill-rule:evenodd;stroke:#dcdcdc;stroke-width:1.00000003pt;stroke-opacity:1"
         transform="scale(0.2)" />
    </marker>
    <marker
       inkscape:stockid="TriangleOutS"
       orient="auto"
       refY="0"
       refX="0"
       id="TriangleOutS-4-7-8-6"
       style="overflow:visible"
       inkscape:isstock="true">
      <path
         inkscape:connector-curvature="0"
         id="path3064-7-8-9-6"
         d="M 5.77,0 -2.88,5 V -5 Z"
         style="fill:#dcdcdc;fill-opacity:1;fill-rule:evenodd;stroke:#dcdcdc;stroke-width:1.00000003pt;stroke-opacity:1"
         transform="scale(0.2)" />
    </marker>
    <marker
       inkscape:stockid="TriangleOutS"
       orient="auto"
       refY="0"
       refX="0"
       id="TriangleOutS-4-7-9"
       style="overflow:visible"
       inkscape:isstock="true">
      <path
         inkscape:connector-curvature="0"
         id="path3064-7-8-5"
         d="M 5.77,0 -2.88,5 V -5 Z"
         style="fill:#dcdcdc;fill-opacity:1;fill-rule:evenodd;stroke:#dcdcdc;stroke-width:1.00000003pt;stroke-opacity:1"
         transform="scale(0.2)" />
    </marker>
    <marker
       inkscape:stockid="TriangleOutS"
       orient="auto"
       refY="0"
       refX="0"
       id="TriangleOutS-4-7-9-4"
       style="overflow:visible"
       inkscape:isstock="true">
      <path
         inkscape:connector-curvature="0"
         id="path3064-7-8-5-8"
         d="M 5.77,0 -2.88,5 V -5 Z"
         style="fill:#dcdcdc;fill-opacity:1;fill-rule:evenodd;stroke:#dcdcdc;stroke-width:1.00000003pt;stroke-opacity:1"
         transform="scale(0.2)" />
    </marker>
    <marker
       inkscape:stockid="TriangleOutS"
       orient="auto"
       refY="0"
       refX="0"
       id="TriangleOutS-4-7-9-4-1"
       style="overflow:visible"
       inkscape:isstock="true">
      <path
         inkscape:connector-curvature="0"
         id="path3064-7-8-5-8-7"
         d="M 5.77,0 -2.88,5 V -5 Z"
         style="fill:#dcdcdc;fill-opacity:1;fill-rule:evenodd;stroke:#dcdcdc;stroke-width:1.00000003pt;stroke-opacity:1"
         transform="scale(0.2)" />
    </marker>
    <marker
       inkscape:stockid="TriangleOutS"
       orient="auto"
       refY="0"
       refX="0"
       id="TriangleOutS-4-7-9-4-7"
       style="overflow:visible"
       inkscape:isstock="true">
      <path
         inkscape:connector-curvature="0"
         id="path3064-7-8-5-8-2"
         d="M 5.77,0 -2.88,5 V -5 Z"
         style="fill:#dcdcdc;fill-opacity:1;fill-rule:evenodd;stroke:#dcdcdc;stroke-width:1.00000003pt;stroke-opacity:1"
         transform="scale(0.2)" />
    </marker>
  </defs>
  <sodipodi:namedview
     id="base"
     pagecolor="#ffffff"
     bordercolor="#666666"
     borderopacity="1.0"
     inkscape:pageopacity="0.0"
     inkscape:pageshadow="2"
     inkscape:zoom="0.98994949"
     inkscape:cx="322.0187"
     inkscape:cy="389.16288"
     inkscape:document-units="mm"
     inkscape:current-layer="layer1"
     showgrid="false"
     inkscape:window-width="2556"
     inkscape:window-height="1404"
     inkscape:window-x="2"
     inkscape:window-y="2"
     inkscape:window-maximized="1"
     units="px"
     fit-margin-top="5"
     fit-margin-left="5"
     fit-margin-right="5"
     fit-margin-bottom="150" />
  <metadata
     id="metadata1956">
    <rdf:RDF>
      <cc:Work
         rdf:about="">
        <dc:format>image/svg+xml</dc:format>
        <dc:type
           rdf:resource="http://purl.org/dc/dcmitype/StillImage" />
        <dc:title></dc:title>
      </cc:Work>
    </rdf:RDF>
  </metadata>
  <g
     inkscape:label="Layer 1"
     inkscape:groupmode="layer"
     id="layer1"
     transform="translate(-31.244905,-49.160718)">
    <rect
       style="fill:#4e7a86;stroke-width:1.74438453"
       id="rect6936-4-7"
       width="207.96011"
       height="141.37979"
       x="32.567822"
       y="50.483635"
       ry="3.6587455" />
    <flowRoot
       xml:space="preserve"
       id="flowRoot7946-0-1"
       style="font-style:normal;font-variant:normal;font-weight:900;font-stretch:normal;font-size:37.33333206px;line-height:1.25;font-family:Overpass;-inkscape-font-specification:'Overpass Heavy';letter-spacing:0px;word-spacing:0px;fill:#ffffff"
       transform="matrix(0.26458333,0,0,0.26458333,23.542165,26.220005)"><flowRegion
         id="flowRegion7948-2-0"
         style="font-style:normal;font-variant:normal;font-weight:900;font-stretch:normal;font-size:37.33333206px;font-family:Overpass;-inkscape-font-specification:'Overpass Heavy';fill:#ffffff"><rect
           id="rect7950-0-1"
           width="531.1618"
           height="50.274994"
           x="50.200779"
           y="98.246376"
           style="font-style:normal;font-variant:normal;font-weight:900;font-stretch:normal;font-size:37.33333206px;font-family:Overpass;-inkscape-font-specification:'Overpass Heavy';fill:#ffffff" /></flowRegion><flowPara
         id="flowPara7952-1-3">Cloud Native App</flowPara></flowRoot>    <g
       id="g6820-3-8"
       transform="translate(158.62451,70.333204)">
      <rect
         ry="1.9553049"
         y="4.969418"
         x="47.175716"
         height="20.766689"
         width="29.850752"
         id="rect6934-1-2-6-2-2-3-5-2"
         style="fill:#92d400;stroke-width:0.10327375" />
      <g
         transform="matrix(0.26458333,0,0,0.26458333,43.154279,-3.57262)"
         id="g6774-7-6">
        <g
           style="display:none"
           id="button-0-0"
           display="none">
          <circle
             style="display:inline;fill:#dcdcdc"
             display="inline"
             cx="72"
             cy="72"
             r="54"
             id="circle6733-8-6" />
        </g>
        <g
           style="display:none"
           id="template-1-6"
           display="none">
          <circle
             style="display:inline;fill:none;stroke:#ffffff;stroke-width:0.25;stroke-miterlimit:10"
             display="inline"
             stroke-miterlimit="10"
             cx="72"
             cy="72"
             r="36"
             id="circle6736-9-4" />
          <g
             style="display:inline"
             display="inline"
             id="g6740-9-6">
            <circle
               style="fill:none;stroke:#ffffff;stroke-width:0.25;stroke-linecap:round;stroke-miterlimit:10;stroke-dasharray:1.9875, 1.9875"
               stroke-miterlimit="10"
               cx="72"
               cy="72"
               r="40.5"
               id="circle6738-7-2" />
          </g>
          <line
             style="display:inline;fill:none;stroke:#ffffff;stroke-width:0.25;stroke-miterlimit:10"
             display="inline"
             stroke-miterlimit="10"
             x1="72"
             y1="18"
             x2="72"
             y2="126"
             id="line6742-8-8" />
          <line
             style="display:inline;fill:none;stroke:#ffffff;stroke-width:0.25;stroke-miterlimit:10"
             display="inline"
             stroke-miterlimit="10"
             x1="126"
             y1="72"
             x2="18"
             y2="72"
             id="line6744-2-9" />
          <line
             style="display:inline;fill:none;stroke:#ffffff;stroke-width:0.25;stroke-miterlimit:10"
             display="inline"
             stroke-miterlimit="10"
             x1="110.184"
             y1="33.816002"
             x2="33.816002"
             y2="110.184"
             id="line6746-5-6" />
          <line
             style="display:inline;fill:none;stroke:#ffffff;stroke-width:0.25;stroke-miterlimit:10"
             display="inline"
             stroke-miterlimit="10"
             x1="110.184"
             y1="110.184"
             x2="33.816002"
             y2="33.816002"
             id="line6748-3-0" />
        </g>
        <g
           id="icon-4-7">
          <path
             style="fill:#ffffff"
             inkscape:connector-curvature="0"
             d="M 97.729,84.022 V 59.745 h -8.221 v -8.096 h 4.347 L 88.8,42.896 83.746,51.649 h 4.346 v 8.096 H 72.236 v -0.443 -7.394 h 3.444 v -8.305 h -8.305 v 8.305 h 3.444 v 7.394 0.443 H 54.964 v -7.908 c 1.952,-0.338 3.444,-2.034 3.444,-4.081 0,-2.29 -1.862,-4.152 -4.152,-4.152 -2.29,0 -4.152,1.863 -4.152,4.152 0,2.047 1.492,3.742 3.444,4.081 v 7.908 h -8.057 v 24.276 h 8.057 v 7.836 h -3.28 v 8.305 h 8.305 V 91.857 H 54.965 V 84.021 H 70.82 v 0.61 7.705 h 0.023 l -4.369,7.568 h 10.108 l -4.37,-7.568 h 0.023 v -7.705 -0.61 h 15.856 v 7.908 c -1.952,0.338 -3.444,2.034 -3.444,4.081 0,2.29 1.862,4.152 4.152,4.152 2.29,0 4.152,-1.863 4.152,-4.152 0,-2.048 -1.492,-3.743 -3.444,-4.081 v -7.908 h 8.222 z M 54.964,75.86 v -3.269 h 33.129 v 3.269 z m 33.129,-8.068 v 3.384 H 54.964 v -3.384 z m 0,-1.416 H 72.236 v -5.214 h 15.856 v 5.214 z m -17.273,0 H 54.964 V 61.162 H 70.82 Z m -15.856,10.9 H 70.82 v 5.329 H 54.964 Z m 17.272,0 h 15.856 v 5.329 H 72.236 Z m 17.273,5.329 V 75.86 72.591 h 6.805 v 10.014 z m 6.804,-11.43 H 89.508 V 61.161 h 6.805 z m -7.512,-25.447 2.602,4.505 H 86.2 Z M 68.792,45.02 h 5.473 v 5.473 H 68.792 Z M 51.52,47.756 c 0,-1.509 1.228,-2.736 2.736,-2.736 1.508,0 2.736,1.228 2.736,2.736 0,1.508 -1.228,2.736 -2.736,2.736 -1.508,0 -2.736,-1.227 -2.736,-2.736 z m 2.028,13.405 v 6.63 3.384 H 46.907 V 61.161 Z m -6.641,11.43 h 6.641 v 10.014 h -6.641 z m 10.249,26.156 h -5.473 v -5.473 h 5.473 z m 11.772,-0.259 2.601,-4.506 2.602,4.506 z m 22.609,-2.477 c 0,1.509 -1.228,2.736 -2.736,2.736 -1.508,0 -2.736,-1.228 -2.736,-2.736 0,-1.509 1.228,-2.737 2.736,-2.737 1.508,0 2.736,1.227 2.736,2.737 z"
             id="path6751-9-0" />
        </g>
      </g>
    </g>
    <path
       style="fill:#dcdcdc;stroke:#dcdcdc;stroke-width:4.56500006;stroke-linecap:butt;stroke-linejoin:miter;stroke-miterlimit:4;stroke-dasharray:none;stroke-opacity:1;marker-end:url(#TriangleOutS-4-7-9-4-7)"
       d="M 108.48863,98.904322 V 156.31614"
       id="path2914-4-6-0-7-26"
       inkscape:connector-curvature="0"
       sodipodi:nodetypes="cc" />
    <g
       id="g10620-1-9"
       transform="translate(-9.441854,29.53566)">
      <rect
         ry="1.9553049"
         y="95.856079"
         x="95.870041"
         height="20.766689"
         width="101.41422"
         id="rect6934-1-2-6-2-2-5-5-8-9-0"
         style="fill:#f0ab00;stroke-width:0.19035387" />
      <text
         id="text10613-0-9"
         y="109.19147"
         x="105.21466"
         style="font-style:normal;font-variant:normal;font-weight:900;font-stretch:normal;font-size:9.87777805px;line-height:1.25;font-family:Overpass;-inkscape-font-specification:'Overpass Heavy';letter-spacing:0px;word-spacing:0px;fill:#ffffff;stroke-width:0.26458332"
         xml:space="preserve"><tspan
           style="font-style:normal;font-variant:normal;font-weight:900;font-stretch:normal;font-size:11.28888893px;font-family:Overpass;-inkscape-font-specification:'Overpass Heavy';fill:#ffffff;stroke-width:0.26458332"
           y="109.19147"
           x="105.21466"
           id="tspan10611-5-9"
           sodipodi:role="line">Spark executor</tspan></text>
    </g>
    <g
       id="g6649-9-7-9"
       transform="translate(-12.76091,162.73805)">
      <rect
         ry="1.9553049"
         y="-87.435425"
         x="50.205692"
         height="20.766689"
         width="29.850752"
         id="rect6934-1-2-6-2-25-4-1"
         style="fill:#0088ce;stroke-width:0.10327375" />
      <g
         transform="matrix(0.26458333,0,0,0.26458333,-15.831298,-182.00104)"
         id="g6577-7-0-2">
        <g
           id="g6567-4-6-7">
          <path
             style="fill:#ffffff"
             inkscape:connector-curvature="0"
             d="m 287.73,420.33 h -8.891 c -1.228,0 -2.352,-0.193 -3.34,-0.573 -1.002,-0.386 -1.874,-0.944 -2.592,-1.662 -0.722,-0.721 -1.275,-1.608 -1.646,-2.637 -0.359,-0.997 -0.542,-2.121 -0.542,-3.343 v -7.916 c 0,-0.89 -0.109,-1.639 -0.325,-2.226 -0.2,-0.542 -0.482,-0.98 -0.841,-1.303 -0.37,-0.334 -0.812,-0.569 -1.351,-0.721 -0.599,-0.17 -1.281,-0.263 -2.03,-0.277 l -0.98,-0.02 v -6.649 l 0.962,-0.037 c 0.767,-0.029 1.46,-0.133 2.06,-0.31 0.541,-0.159 0.98,-0.398 1.345,-0.731 0.354,-0.324 0.634,-0.764 0.835,-1.309 0.215,-0.586 0.325,-1.335 0.325,-2.225 v -7.915 c 0,-2.618 0.739,-4.666 2.197,-6.086 1.45,-1.413 3.442,-2.13 5.922,-2.13 h 8.891 v 6.585 h -5.537 c -1.148,0 -1.929,0.284 -2.385,0.87 -0.508,0.653 -0.766,1.721 -0.766,3.174 v 7.264 c 0,0.941 -0.157,1.822 -0.466,2.619 -0.305,0.788 -0.727,1.493 -1.254,2.094 -0.488,0.558 -1.064,1.036 -1.713,1.422 0.661,0.39 1.247,0.879 1.743,1.453 0.525,0.61 0.941,1.31 1.237,2.08 0.301,0.78 0.453,1.652 0.453,2.592 v 7.264 c 0,1.468 0.257,2.538 0.764,3.183 0.456,0.579 1.237,0.861 2.387,0.861 h 5.537 v 6.609 z m -20.536,-22.597 c 0.55,0.058 1.069,0.155 1.553,0.292 0.828,0.232 1.551,0.623 2.147,1.159 0.603,0.543 1.066,1.249 1.379,2.099 0.297,0.809 0.448,1.79 0.448,2.916 v 7.916 c 0,0.989 0.143,1.886 0.423,2.665 0.27,0.749 0.666,1.389 1.178,1.9 0.518,0.518 1.156,0.925 1.895,1.209 0.759,0.292 1.641,0.441 2.622,0.441 h 6.891 v -2.608 h -3.537 c -1.779,0 -3.111,-0.547 -3.959,-1.625 -0.802,-1.02 -1.191,-2.465 -1.191,-4.419 v -7.264 c 0,-0.692 -0.108,-1.323 -0.319,-1.873 -0.214,-0.556 -0.513,-1.059 -0.887,-1.493 -0.372,-0.433 -0.819,-0.798 -1.327,-1.085 -0.525,-0.297 -1.094,-0.519 -1.689,-0.656 l -0.774,-0.18 v -1.603 l 0.79,-0.266 c 0.574,-0.124 1.129,-0.335 1.648,-0.629 0.51,-0.289 0.959,-0.652 1.333,-1.08 0.372,-0.425 0.673,-0.93 0.893,-1.501 0.22,-0.565 0.331,-1.203 0.331,-1.895 v -7.264 c 0,-1.936 0.389,-3.376 1.188,-4.403 0.848,-1.089 2.182,-1.641 3.962,-1.641 h 3.537 v -2.585 h -6.891 c -1.968,0 -3.448,0.511 -4.526,1.562 -1.072,1.044 -1.593,2.566 -1.593,4.653 v 7.915 c 0,1.127 -0.15,2.108 -0.448,2.915 -0.312,0.848 -0.77,1.553 -1.362,2.094 -0.585,0.537 -1.303,0.932 -2.13,1.175 -0.489,0.144 -1.021,0.25 -1.587,0.316 v 2.843 z"
             id="path6565-9-4-0" />
        </g>
        <g
           id="g6571-9-7-9">
          <path
             style="fill:#ffffff"
             inkscape:connector-curvature="0"
             d="m 310.149,421.055 h -8.323 v -48.793 h 8.323 z m -6.322,-2 h 4.323 v -44.793 h -4.323 z"
             id="path6569-4-4-3" />
        </g>
        <g
           id="g6575-5-8-6">
          <path
             style="fill:#ffffff"
             inkscape:connector-curvature="0"
             d="m 333.162,420.33 h -8.892 v -6.608 h 5.537 c 1.15,0 1.931,-0.282 2.387,-0.861 0.507,-0.644 0.764,-1.715 0.764,-3.183 v -7.264 c 0,-0.94 0.152,-1.812 0.454,-2.593 0.296,-0.77 0.713,-1.471 1.236,-2.079 0.496,-0.575 1.082,-1.063 1.742,-1.453 -0.648,-0.386 -1.225,-0.864 -1.713,-1.422 -0.524,-0.598 -0.946,-1.303 -1.254,-2.094 -0.309,-0.796 -0.466,-1.677 -0.466,-2.618 v -7.264 c 0,-1.454 -0.258,-2.522 -0.767,-3.174 -0.456,-0.585 -1.235,-0.87 -2.384,-0.87 h -5.537 v -6.585 h 8.892 c 2.479,0 4.472,0.717 5.923,2.13 1.457,1.42 2.196,3.468 2.196,6.086 v 7.915 c 0,0.893 0.109,1.641 0.324,2.225 0.2,0.546 0.48,0.986 0.834,1.309 0.365,0.334 0.805,0.573 1.345,0.731 0.601,0.177 1.294,0.281 2.062,0.31 l 0.962,0.037 v 6.649 l -0.98,0.02 c -0.749,0.015 -1.432,0.107 -2.028,0.276 -0.54,0.152 -0.982,0.388 -1.353,0.722 -0.364,0.327 -0.639,0.753 -0.841,1.303 -0.215,0.585 -0.324,1.333 -0.324,2.226 v 7.916 c 0,1.221 -0.183,2.346 -0.543,3.344 -0.369,1.026 -0.923,1.914 -1.645,2.636 -0.719,0.718 -1.591,1.276 -2.592,1.662 -0.988,0.378 -2.111,0.571 -3.339,0.571 z m -6.892,-2 h 6.892 c 0.98,0 1.862,-0.148 2.621,-0.441 0.739,-0.284 1.378,-0.691 1.896,-1.21 0.512,-0.511 0.908,-1.15 1.177,-1.898 0.282,-0.781 0.425,-1.678 0.425,-2.666 v -7.916 c 0,-1.129 0.15,-2.109 0.447,-2.916 0.312,-0.851 0.777,-1.557 1.38,-2.1 0.595,-0.535 1.317,-0.926 2.147,-1.159 0.481,-0.136 1.001,-0.233 1.552,-0.291 v -2.84 c -0.566,-0.066 -1.098,-0.172 -1.588,-0.317 -0.826,-0.242 -1.544,-0.638 -2.131,-1.175 -0.591,-0.541 -1.049,-1.246 -1.36,-2.094 -0.297,-0.805 -0.447,-1.786 -0.447,-2.915 v -7.915 c 0,-2.058 -0.536,-3.623 -1.593,-4.653 -1.079,-1.051 -2.56,-1.562 -4.526,-1.562 h -6.892 v 2.585 h 3.537 c 1.78,0 3.113,0.552 3.962,1.64 0.8,1.026 1.189,2.467 1.189,4.404 v 7.264 c 0,0.692 0.111,1.33 0.33,1.894 0.223,0.573 0.523,1.078 0.895,1.501 0.375,0.429 0.822,0.792 1.332,1.08 0.52,0.294 1.074,0.506 1.648,0.629 l 0.79,0.169 v 1.603 l -0.773,0.276 c -0.595,0.138 -1.163,0.359 -1.688,0.656 -0.509,0.287 -0.955,0.651 -1.328,1.085 -0.374,0.434 -0.672,0.935 -0.886,1.493 -0.213,0.55 -0.32,1.18 -0.32,1.873 v 7.264 c 0,1.954 -0.39,3.4 -1.191,4.419 -0.849,1.078 -2.181,1.625 -3.959,1.625 h -3.537 v 2.608 z"
             id="path6573-9-5-0" />
        </g>
      </g>
    </g>
    <g
       id="g7870-9-7-2"
       transform="translate(-1.9581516,182.11338)">
      <rect
         ry="1.9553049"
         y="-106.81075"
         x="95.521408"
         height="20.766689"
         width="29.850752"
         id="rect6934-1-2-6-2-2-6-7-3"
         style="fill:#f0ab00;stroke-width:0.10327375" />
      <g
         transform="matrix(0.19827279,0,0,0.19827279,49.508831,-175.30267)"
         id="g7846-2-2-7">
        <path
           style="fill:#ffffff"
           inkscape:connector-curvature="0"
           d="m 293.862,386.851 c 3.113,0 5.646,-2.533 5.646,-5.647 0,-3.113 -2.533,-5.646 -5.646,-5.646 -3.114,0 -5.647,2.533 -5.647,5.646 0,3.113 2.533,5.647 5.647,5.647 z m 0,-9.294 c 2.011,0 3.646,1.636 3.646,3.646 0,2.011 -1.636,3.647 -3.646,3.647 -2.011,0 -3.647,-1.636 -3.647,-3.647 0,-2.011 1.636,-3.646 3.647,-3.646 z"
           id="path7834-1-6-5" />
        <path
           style="fill:#ffffff"
           inkscape:connector-curvature="0"
           d="m 329.628,374.331 c -3.096,0.33 -5.347,3.118 -5.017,6.213 0.307,2.878 2.719,5.049 5.609,5.049 0.2,0 0.402,-0.011 0.605,-0.033 3.096,-0.331 5.346,-3.118 5.015,-6.214 -0.326,-3.076 -3.073,-5.354 -6.212,-5.015 z m 0.985,9.241 c -2.024,0.212 -3.802,-1.251 -4.014,-3.24 -0.213,-2 1.241,-3.799 3.241,-4.013 0.132,-0.014 0.263,-0.021 0.393,-0.021 1.865,0 3.421,1.401 3.619,3.26 0.213,2 -1.239,3.8 -3.239,4.014 z"
           id="path7836-2-4-9" />
        <path
           style="fill:#ffffff"
           inkscape:connector-curvature="0"
           d="m 346.598,376.994 c -0.063,-0.484 -0.466,-0.852 -0.953,-0.871 l -4.935,-0.192 c -0.276,-0.731 -0.619,-1.417 -1.022,-2.046 -0.404,-0.63 -0.884,-1.228 -1.431,-1.785 l 1.89,-4.56 c 0.187,-0.451 0.021,-0.971 -0.394,-1.23 -1.24,-0.777 -2.552,-1.456 -3.896,-2.018 -0.451,-0.188 -0.971,-0.025 -1.231,0.39 l -2.632,4.173 c -1.509,-0.24 -3.063,-0.166 -4.545,0.215 l -3.01,-3.918 c -0.298,-0.386 -0.83,-0.503 -1.264,-0.273 -1.29,0.688 -2.531,1.483 -3.688,2.364 -0.389,0.296 -0.507,0.83 -0.279,1.262 l 2.302,4.367 c -0.766,0.942 -1.366,2.002 -1.791,3.131 -0.255,-1.278 -0.585,-2.534 -1.015,-3.728 -0.166,-0.459 -0.642,-0.732 -1.117,-0.646 l -4.82,0.861 c -0.527,-1.136 -1.17,-2.238 -1.918,-3.292 l 3.16,-3.752 c 0.314,-0.373 0.313,-0.918 -0.002,-1.291 -0.942,-1.112 -1.985,-2.155 -3.102,-3.1 -0.373,-0.315 -0.918,-0.315 -1.291,-0.001 l -3.75,3.16 c -1.052,-0.747 -2.154,-1.389 -3.292,-1.917 l 0.861,-4.821 c 0.086,-0.48 -0.187,-0.952 -0.646,-1.117 -1.358,-0.489 -2.785,-0.869 -4.241,-1.129 -0.487,-0.088 -0.951,0.187 -1.117,0.645 l -1.667,4.612 c -1.381,-0.139 -2.423,-0.139 -3.806,0 l -1.667,-4.612 c -0.166,-0.458 -0.639,-0.732 -1.117,-0.645 -1.446,0.259 -2.873,0.639 -4.239,1.129 -0.459,0.165 -0.732,0.637 -0.646,1.117 l 0.86,4.821 c -1.138,0.529 -2.24,1.172 -3.29,1.92 l -3.751,-3.163 c -0.373,-0.314 -0.919,-0.314 -1.291,0.002 -1.118,0.947 -2.162,1.992 -3.103,3.103 -0.315,0.373 -0.315,0.918 -10e-4,1.291 l 3.162,3.749 c -0.748,1.053 -1.391,2.155 -1.918,3.291 l -4.821,-0.861 c -0.479,-0.087 -0.952,0.188 -1.117,0.646 -0.487,1.355 -0.867,2.782 -1.129,4.241 -0.086,0.479 0.186,0.952 0.645,1.117 l 4.611,1.667 c -0.068,0.679 -0.102,1.307 -0.102,1.903 0,0.603 0.033,1.221 0.101,1.904 l -4.611,1.666 c -0.458,0.166 -0.73,0.638 -0.645,1.117 0.262,1.456 0.641,2.882 1.128,4.24 0.165,0.459 0.637,0.734 1.117,0.647 l 4.822,-0.862 c 0.528,1.137 1.17,2.238 1.918,3.291 l -3.162,3.751 c -0.314,0.373 -0.313,0.919 0.002,1.291 0.942,1.111 1.985,2.154 3.101,3.101 0.372,0.315 0.917,0.317 1.292,0.002 l 3.752,-3.161 c 1.053,0.748 2.155,1.391 3.29,1.918 l -0.86,4.82 c -0.085,0.479 0.187,0.951 0.646,1.116 1.355,0.489 2.782,0.869 4.24,1.13 0.06,0.011 0.119,0.016 0.177,0.016 0.077,0 0.151,-0.018 0.224,-0.035 -0.163,0.346 -0.128,0.762 0.129,1.066 l 3.148,3.735 c -0.832,1.354 -1.438,2.818 -1.808,4.373 l -4.87,0.416 c -0.486,0.041 -0.872,0.428 -0.912,0.914 -0.121,1.455 -0.121,2.931 0,4.386 0.04,0.486 0.425,0.873 0.912,0.914 l 4.87,0.416 c 0.369,1.553 0.974,3.019 1.806,4.373 l -3.146,3.734 c -0.314,0.373 -0.313,0.919 0.002,1.291 0.949,1.119 1.992,2.162 3.101,3.102 0.372,0.316 0.917,0.316 1.291,0.002 l 3.734,-3.146 c 1.353,0.831 2.818,1.437 4.375,1.807 l 0.415,4.871 c 0.042,0.486 0.428,0.872 0.915,0.912 0.726,0.06 1.463,0.089 2.192,0.089 0.729,0 1.467,-0.029 2.194,-0.089 0.486,-0.04 0.873,-0.426 0.914,-0.912 l 0.416,-4.871 c 1.556,-0.37 3.021,-0.976 4.373,-1.807 l 3.735,3.146 c 0.373,0.314 0.918,0.313 1.291,-0.001 1.109,-0.94 2.153,-1.983 3.103,-3.103 0.315,-0.372 0.316,-0.918 0.002,-1.291 l -3.148,-3.734 c 0.831,-1.354 1.437,-2.818 1.806,-4.373 l 4.872,-0.417 c 0.486,-0.041 0.871,-0.428 0.912,-0.913 0.119,-1.448 0.119,-2.924 0,-4.387 -0.04,-0.486 -0.426,-0.873 -0.912,-0.914 l -4.872,-0.415 c -0.37,-1.555 -0.976,-3.02 -1.808,-4.373 l 3.147,-3.736 c 0.314,-0.373 0.313,-0.918 -10e-4,-1.29 -0.934,-1.104 -1.978,-2.148 -3.103,-3.103 -0.373,-0.315 -0.918,-0.317 -1.291,-0.002 l -3.734,3.148 c -1.352,-0.83 -2.817,-1.436 -4.373,-1.806 l -0.381,-4.445 0.745,0.628 c 0.373,0.314 0.917,0.313 1.29,-0.001 1.111,-0.94 2.155,-1.983 3.103,-3.102 0.315,-0.372 0.316,-0.918 0.002,-1.291 l -3.16,-3.752 c 0.748,-1.052 1.391,-2.154 1.919,-3.291 l 4.82,0.862 c 0.475,0.086 0.952,-0.187 1.117,-0.647 0.486,-1.357 0.866,-2.784 1.128,-4.24 0.086,-0.479 -0.187,-0.952 -0.645,-1.117 l -2.587,-0.935 3.142,0.123 c 0.275,0.726 0.618,1.411 1.023,2.045 0.408,0.635 0.887,1.232 1.429,1.784 l -1.887,4.562 c -0.187,0.45 -0.021,0.969 0.392,1.229 1.225,0.77 2.535,1.449 3.897,2.017 0.125,0.052 0.256,0.077 0.385,0.077 0.335,0 0.658,-0.168 0.846,-0.467 l 2.629,-4.17 c 1.511,0.24 3.064,0.165 4.547,-0.215 l 3.009,3.917 c 0.297,0.387 0.83,0.503 1.262,0.274 1.295,-0.688 2.537,-1.484 3.692,-2.367 0.388,-0.296 0.505,-0.829 0.277,-1.26 l -2.301,-4.37 c 0.967,-1.191 1.681,-2.567 2.096,-4.041 l 4.89,-0.647 c 0.483,-0.064 0.851,-0.467 0.868,-0.955 0.055,-1.455 -0.013,-2.929 -0.2,-4.378 z m -56.166,29.149 1.527,-4.224 c 1.398,0.138 2.453,0.137 3.806,0.001 l 1.667,4.609 c 0.028,0.078 0.075,0.141 0.119,0.207 l -3.451,-2.909 c -0.373,-0.315 -0.919,-0.313 -1.291,0.002 -0.84,0.711 -1.626,1.497 -2.377,2.314 z m 12.142,-6.035 c 0.038,-0.018 0.074,-0.041 0.112,-0.058 -0.029,0.08 -0.059,0.159 -0.066,0.247 l -0.004,0.045 z m 10.561,8.933 c 0.369,0.253 0.865,0.23 1.211,-0.06 l 3.645,-3.072 c 0.589,0.535 1.151,1.097 1.68,1.679 l -3.071,3.646 c -0.29,0.345 -0.314,0.84 -0.06,1.211 1.034,1.506 1.729,3.188 2.066,5 0.083,0.442 0.45,0.775 0.898,0.813 l 4.754,0.405 c 0.038,0.793 0.038,1.587 0.001,2.375 l -4.755,0.406 c -0.448,0.038 -0.816,0.371 -0.898,0.813 -0.336,1.812 -1.031,3.495 -2.065,5 -0.255,0.371 -0.23,0.867 0.06,1.211 l 3.072,3.645 c -0.533,0.587 -1.096,1.148 -1.68,1.68 l -3.646,-3.071 c -0.345,-0.291 -0.841,-0.313 -1.211,-0.06 -1.503,1.034 -3.186,1.729 -5,2.066 -0.442,0.083 -0.775,0.45 -0.813,0.898 l -0.406,4.753 c -0.793,0.039 -1.583,0.039 -2.375,0 l -0.405,-4.753 c -0.039,-0.448 -0.372,-0.816 -0.814,-0.898 -1.814,-0.337 -3.497,-1.032 -5.001,-2.066 -0.372,-0.254 -0.867,-0.23 -1.211,0.06 l -3.644,3.071 c -0.584,-0.531 -1.146,-1.093 -1.679,-1.681 l 3.07,-3.644 c 0.29,-0.344 0.314,-0.839 0.06,-1.21 -1.035,-1.509 -1.729,-3.19 -2.065,-5.001 -0.083,-0.442 -0.45,-0.775 -0.898,-0.813 l -4.753,-0.405 c -0.038,-0.791 -0.038,-1.585 0,-2.376 l 4.753,-0.405 c 0.448,-0.038 0.816,-0.371 0.898,-0.813 0.337,-1.812 1.033,-3.494 2.068,-5 0.255,-0.371 0.23,-0.866 -0.06,-1.211 l -3.071,-3.645 c 0.533,-0.587 1.095,-1.148 1.679,-1.68 l 3.643,3.071 c 0.344,0.29 0.839,0.315 1.21,0.06 1.506,-1.033 3.189,-1.729 5.001,-2.065 0.442,-0.083 0.775,-0.45 0.813,-0.898 l 0.403,-4.753 c 0.797,-0.039 1.586,-0.037 2.375,-0.001 l 0.407,4.754 c 0.038,0.448 0.371,0.815 0.813,0.898 1.815,0.337 3.498,1.033 5.001,2.066 z m -9.141,-9.675 c 0.636,-0.359 1.263,-0.744 1.871,-1.177 l 1.385,1.168 c -1.08,-0.061 -2.169,-0.061 -3.256,0.009 z m 13.1,-10.71 -4.748,-0.849 c -0.466,-0.084 -0.92,0.168 -1.1,0.601 -0.614,1.478 -1.442,2.9 -2.463,4.229 -0.286,0.373 -0.274,0.894 0.028,1.253 l 3.115,3.699 c -0.533,0.587 -1.095,1.148 -1.68,1.679 l -3.696,-3.116 c -0.359,-0.304 -0.88,-0.314 -1.253,-0.029 -1.336,1.026 -2.759,1.854 -4.229,2.462 -0.434,0.18 -0.685,0.637 -0.602,1.1 l 0.848,4.749 c -0.747,0.238 -1.514,0.442 -2.293,0.609 l -1.644,-4.547 c -0.145,-0.4 -0.523,-0.66 -0.94,-0.66 -0.042,0 -0.086,0.003 -0.129,0.009 -1.834,0.237 -2.976,0.244 -4.895,-0.001 -0.468,-0.058 -0.908,0.212 -1.066,0.652 l -1.644,4.547 c -0.78,-0.167 -1.546,-0.371 -2.293,-0.609 l 0.847,-4.749 c 0.083,-0.462 -0.167,-0.919 -0.601,-1.1 -1.474,-0.612 -2.896,-1.44 -4.228,-2.462 -0.372,-0.286 -0.894,-0.274 -1.253,0.029 l -3.698,3.115 c -0.586,-0.532 -1.148,-1.094 -1.68,-1.679 l 3.117,-3.697 c 0.303,-0.359 0.314,-0.881 0.028,-1.253 -1.021,-1.33 -1.849,-2.752 -2.462,-4.229 -0.18,-0.434 -0.634,-0.688 -1.099,-0.601 l -4.75,0.849 c -0.238,-0.748 -0.442,-1.515 -0.609,-2.294 l 4.548,-1.643 c 0.441,-0.159 0.712,-0.604 0.652,-1.07 -0.121,-0.927 -0.177,-1.705 -0.177,-2.446 0,-0.747 0.057,-1.523 0.178,-2.443 0.062,-0.466 -0.209,-0.912 -0.651,-1.071 l -4.549,-1.645 c 0.167,-0.78 0.371,-1.548 0.609,-2.294 l 4.75,0.849 c 0.458,0.083 0.919,-0.167 1.099,-0.601 0.613,-1.476 1.441,-2.899 2.463,-4.229 0.286,-0.373 0.274,-0.895 -0.029,-1.253 l -3.117,-3.696 c 0.531,-0.585 1.093,-1.146 1.68,-1.68 l 3.698,3.118 c 0.361,0.303 0.882,0.315 1.254,0.028 1.325,-1.02 2.747,-1.849 4.228,-2.465 0.433,-0.18 0.683,-0.637 0.6,-1.099 l -0.847,-4.748 c 0.75,-0.24 1.517,-0.443 2.293,-0.61 l 1.644,4.549 c 0.159,0.44 0.604,0.71 1.067,0.652 1.89,-0.242 3.011,-0.242 4.895,0 0.466,0.061 0.909,-0.211 1.068,-0.652 l 1.644,-4.549 c 0.779,0.167 1.546,0.371 2.293,0.61 l -0.848,4.749 c -0.083,0.462 0.167,0.919 0.601,1.099 1.478,0.615 2.901,1.443 4.23,2.463 0.374,0.287 0.894,0.275 1.253,-0.029 l 3.696,-3.115 c 0.586,0.532 1.148,1.093 1.68,1.678 l -3.115,3.698 c -0.303,0.359 -0.314,0.88 -0.028,1.253 1.021,1.331 1.85,2.754 2.462,4.229 0.18,0.433 0.635,0.686 1.1,0.601 l 4.748,-0.849 c 0.238,0.747 0.442,1.514 0.61,2.294 l -4.549,1.643 c -0.441,0.16 -0.713,0.605 -0.651,1.071 0.121,0.922 0.178,1.7 0.178,2.446 0,0.745 -0.057,1.521 -0.177,2.445 -0.062,0.466 0.21,0.911 0.651,1.07 l 4.548,1.643 c -0.169,0.777 -0.372,1.545 -0.61,2.292 z m 23.01,-7.574 c -0.42,0.055 -0.759,0.369 -0.847,0.782 -0.346,1.616 -1.123,3.115 -2.249,4.335 -0.288,0.311 -0.348,0.77 -0.15,1.144 l 2.219,4.213 c -0.644,0.457 -1.312,0.886 -1.999,1.281 l -2.9,-3.776 c -0.258,-0.336 -0.702,-0.472 -1.102,-0.342 -1.579,0.512 -3.276,0.593 -4.879,0.231 -0.412,-0.094 -0.84,0.084 -1.065,0.442 l -2.534,4.02 c -0.724,-0.331 -1.43,-0.696 -2.11,-1.091 l 1.82,-4.4 c 0.162,-0.392 0.06,-0.842 -0.255,-1.125 -0.625,-0.563 -1.164,-1.193 -1.6,-1.87 -0.432,-0.676 -0.778,-1.429 -1.032,-2.237 -0.126,-0.403 -0.492,-0.684 -0.915,-0.7 l -4.757,-0.187 c -0.073,-0.788 -0.11,-1.582 -0.109,-2.374 l 4.713,-0.623 c 0.42,-0.055 0.76,-0.369 0.848,-0.784 0.342,-1.614 1.12,-3.113 2.249,-4.334 0.288,-0.311 0.348,-0.77 0.15,-1.145 l -2.219,-4.21 c 0.644,-0.457 1.312,-0.885 1.998,-1.281 l 2.901,3.776 c 0.258,0.336 0.7,0.471 1.102,0.342 1.575,-0.513 3.272,-0.594 4.875,-0.23 0.415,0.092 0.841,-0.083 1.066,-0.442 l 2.536,-4.022 c 0.719,0.33 1.425,0.695 2.111,1.093 l -1.821,4.396 c -0.162,0.391 -0.061,0.84 0.253,1.124 0.632,0.573 1.172,1.204 1.603,1.875 0.429,0.668 0.775,1.421 1.03,2.237 0.126,0.404 0.492,0.685 0.915,0.701 l 4.759,0.186 c 0.074,0.788 0.11,1.58 0.108,2.37 z"
           id="path7838-0-5-2" />
        <path
           style="fill:#ffffff"
           inkscape:connector-curvature="0"
           d="m 300.083,419.853 c 0,3.113 2.533,5.646 5.646,5.646 3.114,0 5.647,-2.533 5.647,-5.646 0,-3.114 -2.533,-5.647 -5.647,-5.647 -3.113,-0.001 -5.646,2.532 -5.646,5.647 z m 9.294,0 c 0,2.011 -1.637,3.646 -3.647,3.646 -2.01,0 -3.646,-1.636 -3.646,-3.646 0,-2.01 1.636,-3.647 3.646,-3.647 2.01,0 3.647,1.636 3.647,3.647 z"
           id="path7840-7-2-2" />
        <path
           style="fill:#ffffff"
           inkscape:connector-curvature="0"
           d="m 293.863,371.589 c -1.244,0 -2.455,0.234 -3.599,0.697 -0.256,0.103 -0.379,0.395 -0.276,0.651 0.103,0.256 0.396,0.38 0.651,0.276 1.024,-0.414 2.109,-0.624 3.224,-0.624 4.75,0 8.613,3.864 8.613,8.613 0,4.75 -3.864,8.614 -8.613,8.614 -4.75,0 -8.614,-3.864 -8.614,-8.614 0,-1.684 0.486,-3.314 1.405,-4.716 0.151,-0.231 0.087,-0.541 -0.144,-0.692 -0.23,-0.151 -0.541,-0.086 -0.692,0.144 -1.027,1.565 -1.569,3.386 -1.569,5.265 0,5.301 4.313,9.614 9.614,9.614 5.301,0 9.613,-4.313 9.613,-9.614 10e-4,-5.302 -4.312,-9.614 -9.613,-9.614 z"
           id="path7842-3-0-8" />
        <path
           style="fill:#ffffff"
           inkscape:connector-curvature="0"
           d="m 296.117,419.851 c 0,5.302 4.313,9.614 9.614,9.614 2.709,0 5.307,-1.152 7.127,-3.161 0.186,-0.205 0.17,-0.521 -0.034,-0.706 -0.203,-0.185 -0.521,-0.17 -0.706,0.034 -1.632,1.801 -3.959,2.833 -6.387,2.833 -4.75,0 -8.614,-3.864 -8.614,-8.614 0,-4.749 3.864,-8.613 8.614,-8.613 4.749,0 8.613,3.864 8.613,8.613 0,0.582 -0.059,1.164 -0.174,1.73 -0.055,0.271 0.12,0.534 0.391,0.59 0.267,0.056 0.534,-0.119 0.59,-0.391 0.128,-0.632 0.193,-1.281 0.193,-1.93 0,-5.301 -4.312,-9.613 -9.613,-9.613 -5.301,0 -9.614,4.313 -9.614,9.614 z"
           id="path7844-1-2-9" />
      </g>
    </g>
    <g
       id="g7870-9-7-2-8"
       transform="translate(54.16033,182.11338)">
      <rect
         ry="1.9553049"
         y="-106.81075"
         x="95.521408"
         height="20.766689"
         width="29.850752"
         id="rect6934-1-2-6-2-2-6-7-3-4"
         style="fill:#f0ab00;stroke-width:0.10327375" />
      <g
         transform="matrix(0.19827279,0,0,0.19827279,49.508831,-175.30267)"
         id="g7846-2-2-7-5">
        <path
           style="fill:#ffffff"
           inkscape:connector-curvature="0"
           d="m 293.862,386.851 c 3.113,0 5.646,-2.533 5.646,-5.647 0,-3.113 -2.533,-5.646 -5.646,-5.646 -3.114,0 -5.647,2.533 -5.647,5.646 0,3.113 2.533,5.647 5.647,5.647 z m 0,-9.294 c 2.011,0 3.646,1.636 3.646,3.646 0,2.011 -1.636,3.647 -3.646,3.647 -2.011,0 -3.647,-1.636 -3.647,-3.647 0,-2.011 1.636,-3.646 3.647,-3.646 z"
           id="path7834-1-6-5-0" />
        <path
           style="fill:#ffffff"
           inkscape:connector-curvature="0"
           d="m 329.628,374.331 c -3.096,0.33 -5.347,3.118 -5.017,6.213 0.307,2.878 2.719,5.049 5.609,5.049 0.2,0 0.402,-0.011 0.605,-0.033 3.096,-0.331 5.346,-3.118 5.015,-6.214 -0.326,-3.076 -3.073,-5.354 -6.212,-5.015 z m 0.985,9.241 c -2.024,0.212 -3.802,-1.251 -4.014,-3.24 -0.213,-2 1.241,-3.799 3.241,-4.013 0.132,-0.014 0.263,-0.021 0.393,-0.021 1.865,0 3.421,1.401 3.619,3.26 0.213,2 -1.239,3.8 -3.239,4.014 z"
           id="path7836-2-4-9-3" />
        <path
           style="fill:#ffffff"
           inkscape:connector-curvature="0"
           d="m 346.598,376.994 c -0.063,-0.484 -0.466,-0.852 -0.953,-0.871 l -4.935,-0.192 c -0.276,-0.731 -0.619,-1.417 -1.022,-2.046 -0.404,-0.63 -0.884,-1.228 -1.431,-1.785 l 1.89,-4.56 c 0.187,-0.451 0.021,-0.971 -0.394,-1.23 -1.24,-0.777 -2.552,-1.456 -3.896,-2.018 -0.451,-0.188 -0.971,-0.025 -1.231,0.39 l -2.632,4.173 c -1.509,-0.24 -3.063,-0.166 -4.545,0.215 l -3.01,-3.918 c -0.298,-0.386 -0.83,-0.503 -1.264,-0.273 -1.29,0.688 -2.531,1.483 -3.688,2.364 -0.389,0.296 -0.507,0.83 -0.279,1.262 l 2.302,4.367 c -0.766,0.942 -1.366,2.002 -1.791,3.131 -0.255,-1.278 -0.585,-2.534 -1.015,-3.728 -0.166,-0.459 -0.642,-0.732 -1.117,-0.646 l -4.82,0.861 c -0.527,-1.136 -1.17,-2.238 -1.918,-3.292 l 3.16,-3.752 c 0.314,-0.373 0.313,-0.918 -0.002,-1.291 -0.942,-1.112 -1.985,-2.155 -3.102,-3.1 -0.373,-0.315 -0.918,-0.315 -1.291,-0.001 l -3.75,3.16 c -1.052,-0.747 -2.154,-1.389 -3.292,-1.917 l 0.861,-4.821 c 0.086,-0.48 -0.187,-0.952 -0.646,-1.117 -1.358,-0.489 -2.785,-0.869 -4.241,-1.129 -0.487,-0.088 -0.951,0.187 -1.117,0.645 l -1.667,4.612 c -1.381,-0.139 -2.423,-0.139 -3.806,0 l -1.667,-4.612 c -0.166,-0.458 -0.639,-0.732 -1.117,-0.645 -1.446,0.259 -2.873,0.639 -4.239,1.129 -0.459,0.165 -0.732,0.637 -0.646,1.117 l 0.86,4.821 c -1.138,0.529 -2.24,1.172 -3.29,1.92 l -3.751,-3.163 c -0.373,-0.314 -0.919,-0.314 -1.291,0.002 -1.118,0.947 -2.162,1.992 -3.103,3.103 -0.315,0.373 -0.315,0.918 -10e-4,1.291 l 3.162,3.749 c -0.748,1.053 -1.391,2.155 -1.918,3.291 l -4.821,-0.861 c -0.479,-0.087 -0.952,0.188 -1.117,0.646 -0.487,1.355 -0.867,2.782 -1.129,4.241 -0.086,0.479 0.186,0.952 0.645,1.117 l 4.611,1.667 c -0.068,0.679 -0.102,1.307 -0.102,1.903 0,0.603 0.033,1.221 0.101,1.904 l -4.611,1.666 c -0.458,0.166 -0.73,0.638 -0.645,1.117 0.262,1.456 0.641,2.882 1.128,4.24 0.165,0.459 0.637,0.734 1.117,0.647 l 4.822,-0.862 c 0.528,1.137 1.17,2.238 1.918,3.291 l -3.162,3.751 c -0.314,0.373 -0.313,0.919 0.002,1.291 0.942,1.111 1.985,2.154 3.101,3.101 0.372,0.315 0.917,0.317 1.292,0.002 l 3.752,-3.161 c 1.053,0.748 2.155,1.391 3.29,1.918 l -0.86,4.82 c -0.085,0.479 0.187,0.951 0.646,1.116 1.355,0.489 2.782,0.869 4.24,1.13 0.06,0.011 0.119,0.016 0.177,0.016 0.077,0 0.151,-0.018 0.224,-0.035 -0.163,0.346 -0.128,0.762 0.129,1.066 l 3.148,3.735 c -0.832,1.354 -1.438,2.818 -1.808,4.373 l -4.87,0.416 c -0.486,0.041 -0.872,0.428 -0.912,0.914 -0.121,1.455 -0.121,2.931 0,4.386 0.04,0.486 0.425,0.873 0.912,0.914 l 4.87,0.416 c 0.369,1.553 0.974,3.019 1.806,4.373 l -3.146,3.734 c -0.314,0.373 -0.313,0.919 0.002,1.291 0.949,1.119 1.992,2.162 3.101,3.102 0.372,0.316 0.917,0.316 1.291,0.002 l 3.734,-3.146 c 1.353,0.831 2.818,1.437 4.375,1.807 l 0.415,4.871 c 0.042,0.486 0.428,0.872 0.915,0.912 0.726,0.06 1.463,0.089 2.192,0.089 0.729,0 1.467,-0.029 2.194,-0.089 0.486,-0.04 0.873,-0.426 0.914,-0.912 l 0.416,-4.871 c 1.556,-0.37 3.021,-0.976 4.373,-1.807 l 3.735,3.146 c 0.373,0.314 0.918,0.313 1.291,-0.001 1.109,-0.94 2.153,-1.983 3.103,-3.103 0.315,-0.372 0.316,-0.918 0.002,-1.291 l -3.148,-3.734 c 0.831,-1.354 1.437,-2.818 1.806,-4.373 l 4.872,-0.417 c 0.486,-0.041 0.871,-0.428 0.912,-0.913 0.119,-1.448 0.119,-2.924 0,-4.387 -0.04,-0.486 -0.426,-0.873 -0.912,-0.914 l -4.872,-0.415 c -0.37,-1.555 -0.976,-3.02 -1.808,-4.373 l 3.147,-3.736 c 0.314,-0.373 0.313,-0.918 -10e-4,-1.29 -0.934,-1.104 -1.978,-2.148 -3.103,-3.103 -0.373,-0.315 -0.918,-0.317 -1.291,-0.002 l -3.734,3.148 c -1.352,-0.83 -2.817,-1.436 -4.373,-1.806 l -0.381,-4.445 0.745,0.628 c 0.373,0.314 0.917,0.313 1.29,-0.001 1.111,-0.94 2.155,-1.983 3.103,-3.102 0.315,-0.372 0.316,-0.918 0.002,-1.291 l -3.16,-3.752 c 0.748,-1.052 1.391,-2.154 1.919,-3.291 l 4.82,0.862 c 0.475,0.086 0.952,-0.187 1.117,-0.647 0.486,-1.357 0.866,-2.784 1.128,-4.24 0.086,-0.479 -0.187,-0.952 -0.645,-1.117 l -2.587,-0.935 3.142,0.123 c 0.275,0.726 0.618,1.411 1.023,2.045 0.408,0.635 0.887,1.232 1.429,1.784 l -1.887,4.562 c -0.187,0.45 -0.021,0.969 0.392,1.229 1.225,0.77 2.535,1.449 3.897,2.017 0.125,0.052 0.256,0.077 0.385,0.077 0.335,0 0.658,-0.168 0.846,-0.467 l 2.629,-4.17 c 1.511,0.24 3.064,0.165 4.547,-0.215 l 3.009,3.917 c 0.297,0.387 0.83,0.503 1.262,0.274 1.295,-0.688 2.537,-1.484 3.692,-2.367 0.388,-0.296 0.505,-0.829 0.277,-1.26 l -2.301,-4.37 c 0.967,-1.191 1.681,-2.567 2.096,-4.041 l 4.89,-0.647 c 0.483,-0.064 0.851,-0.467 0.868,-0.955 0.055,-1.455 -0.013,-2.929 -0.2,-4.378 z m -56.166,29.149 1.527,-4.224 c 1.398,0.138 2.453,0.137 3.806,0.001 l 1.667,4.609 c 0.028,0.078 0.075,0.141 0.119,0.207 l -3.451,-2.909 c -0.373,-0.315 -0.919,-0.313 -1.291,0.002 -0.84,0.711 -1.626,1.497 -2.377,2.314 z m 12.142,-6.035 c 0.038,-0.018 0.074,-0.041 0.112,-0.058 -0.029,0.08 -0.059,0.159 -0.066,0.247 l -0.004,0.045 z m 10.561,8.933 c 0.369,0.253 0.865,0.23 1.211,-0.06 l 3.645,-3.072 c 0.589,0.535 1.151,1.097 1.68,1.679 l -3.071,3.646 c -0.29,0.345 -0.314,0.84 -0.06,1.211 1.034,1.506 1.729,3.188 2.066,5 0.083,0.442 0.45,0.775 0.898,0.813 l 4.754,0.405 c 0.038,0.793 0.038,1.587 0.001,2.375 l -4.755,0.406 c -0.448,0.038 -0.816,0.371 -0.898,0.813 -0.336,1.812 -1.031,3.495 -2.065,5 -0.255,0.371 -0.23,0.867 0.06,1.211 l 3.072,3.645 c -0.533,0.587 -1.096,1.148 -1.68,1.68 l -3.646,-3.071 c -0.345,-0.291 -0.841,-0.313 -1.211,-0.06 -1.503,1.034 -3.186,1.729 -5,2.066 -0.442,0.083 -0.775,0.45 -0.813,0.898 l -0.406,4.753 c -0.793,0.039 -1.583,0.039 -2.375,0 l -0.405,-4.753 c -0.039,-0.448 -0.372,-0.816 -0.814,-0.898 -1.814,-0.337 -3.497,-1.032 -5.001,-2.066 -0.372,-0.254 -0.867,-0.23 -1.211,0.06 l -3.644,3.071 c -0.584,-0.531 -1.146,-1.093 -1.679,-1.681 l 3.07,-3.644 c 0.29,-0.344 0.314,-0.839 0.06,-1.21 -1.035,-1.509 -1.729,-3.19 -2.065,-5.001 -0.083,-0.442 -0.45,-0.775 -0.898,-0.813 l -4.753,-0.405 c -0.038,-0.791 -0.038,-1.585 0,-2.376 l 4.753,-0.405 c 0.448,-0.038 0.816,-0.371 0.898,-0.813 0.337,-1.812 1.033,-3.494 2.068,-5 0.255,-0.371 0.23,-0.866 -0.06,-1.211 l -3.071,-3.645 c 0.533,-0.587 1.095,-1.148 1.679,-1.68 l 3.643,3.071 c 0.344,0.29 0.839,0.315 1.21,0.06 1.506,-1.033 3.189,-1.729 5.001,-2.065 0.442,-0.083 0.775,-0.45 0.813,-0.898 l 0.403,-4.753 c 0.797,-0.039 1.586,-0.037 2.375,-0.001 l 0.407,4.754 c 0.038,0.448 0.371,0.815 0.813,0.898 1.815,0.337 3.498,1.033 5.001,2.066 z m -9.141,-9.675 c 0.636,-0.359 1.263,-0.744 1.871,-1.177 l 1.385,1.168 c -1.08,-0.061 -2.169,-0.061 -3.256,0.009 z m 13.1,-10.71 -4.748,-0.849 c -0.466,-0.084 -0.92,0.168 -1.1,0.601 -0.614,1.478 -1.442,2.9 -2.463,4.229 -0.286,0.373 -0.274,0.894 0.028,1.253 l 3.115,3.699 c -0.533,0.587 -1.095,1.148 -1.68,1.679 l -3.696,-3.116 c -0.359,-0.304 -0.88,-0.314 -1.253,-0.029 -1.336,1.026 -2.759,1.854 -4.229,2.462 -0.434,0.18 -0.685,0.637 -0.602,1.1 l 0.848,4.749 c -0.747,0.238 -1.514,0.442 -2.293,0.609 l -1.644,-4.547 c -0.145,-0.4 -0.523,-0.66 -0.94,-0.66 -0.042,0 -0.086,0.003 -0.129,0.009 -1.834,0.237 -2.976,0.244 -4.895,-0.001 -0.468,-0.058 -0.908,0.212 -1.066,0.652 l -1.644,4.547 c -0.78,-0.167 -1.546,-0.371 -2.293,-0.609 l 0.847,-4.749 c 0.083,-0.462 -0.167,-0.919 -0.601,-1.1 -1.474,-0.612 -2.896,-1.44 -4.228,-2.462 -0.372,-0.286 -0.894,-0.274 -1.253,0.029 l -3.698,3.115 c -0.586,-0.532 -1.148,-1.094 -1.68,-1.679 l 3.117,-3.697 c 0.303,-0.359 0.314,-0.881 0.028,-1.253 -1.021,-1.33 -1.849,-2.752 -2.462,-4.229 -0.18,-0.434 -0.634,-0.688 -1.099,-0.601 l -4.75,0.849 c -0.238,-0.748 -0.442,-1.515 -0.609,-2.294 l 4.548,-1.643 c 0.441,-0.159 0.712,-0.604 0.652,-1.07 -0.121,-0.927 -0.177,-1.705 -0.177,-2.446 0,-0.747 0.057,-1.523 0.178,-2.443 0.062,-0.466 -0.209,-0.912 -0.651,-1.071 l -4.549,-1.645 c 0.167,-0.78 0.371,-1.548 0.609,-2.294 l 4.75,0.849 c 0.458,0.083 0.919,-0.167 1.099,-0.601 0.613,-1.476 1.441,-2.899 2.463,-4.229 0.286,-0.373 0.274,-0.895 -0.029,-1.253 l -3.117,-3.696 c 0.531,-0.585 1.093,-1.146 1.68,-1.68 l 3.698,3.118 c 0.361,0.303 0.882,0.315 1.254,0.028 1.325,-1.02 2.747,-1.849 4.228,-2.465 0.433,-0.18 0.683,-0.637 0.6,-1.099 l -0.847,-4.748 c 0.75,-0.24 1.517,-0.443 2.293,-0.61 l 1.644,4.549 c 0.159,0.44 0.604,0.71 1.067,0.652 1.89,-0.242 3.011,-0.242 4.895,0 0.466,0.061 0.909,-0.211 1.068,-0.652 l 1.644,-4.549 c 0.779,0.167 1.546,0.371 2.293,0.61 l -0.848,4.749 c -0.083,0.462 0.167,0.919 0.601,1.099 1.478,0.615 2.901,1.443 4.23,2.463 0.374,0.287 0.894,0.275 1.253,-0.029 l 3.696,-3.115 c 0.586,0.532 1.148,1.093 1.68,1.678 l -3.115,3.698 c -0.303,0.359 -0.314,0.88 -0.028,1.253 1.021,1.331 1.85,2.754 2.462,4.229 0.18,0.433 0.635,0.686 1.1,0.601 l 4.748,-0.849 c 0.238,0.747 0.442,1.514 0.61,2.294 l -4.549,1.643 c -0.441,0.16 -0.713,0.605 -0.651,1.071 0.121,0.922 0.178,1.7 0.178,2.446 0,0.745 -0.057,1.521 -0.177,2.445 -0.062,0.466 0.21,0.911 0.651,1.07 l 4.548,1.643 c -0.169,0.777 -0.372,1.545 -0.61,2.292 z m 23.01,-7.574 c -0.42,0.055 -0.759,0.369 -0.847,0.782 -0.346,1.616 -1.123,3.115 -2.249,4.335 -0.288,0.311 -0.348,0.77 -0.15,1.144 l 2.219,4.213 c -0.644,0.457 -1.312,0.886 -1.999,1.281 l -2.9,-3.776 c -0.258,-0.336 -0.702,-0.472 -1.102,-0.342 -1.579,0.512 -3.276,0.593 -4.879,0.231 -0.412,-0.094 -0.84,0.084 -1.065,0.442 l -2.534,4.02 c -0.724,-0.331 -1.43,-0.696 -2.11,-1.091 l 1.82,-4.4 c 0.162,-0.392 0.06,-0.842 -0.255,-1.125 -0.625,-0.563 -1.164,-1.193 -1.6,-1.87 -0.432,-0.676 -0.778,-1.429 -1.032,-2.237 -0.126,-0.403 -0.492,-0.684 -0.915,-0.7 l -4.757,-0.187 c -0.073,-0.788 -0.11,-1.582 -0.109,-2.374 l 4.713,-0.623 c 0.42,-0.055 0.76,-0.369 0.848,-0.784 0.342,-1.614 1.12,-3.113 2.249,-4.334 0.288,-0.311 0.348,-0.77 0.15,-1.145 l -2.219,-4.21 c 0.644,-0.457 1.312,-0.885 1.998,-1.281 l 2.901,3.776 c 0.258,0.336 0.7,0.471 1.102,0.342 1.575,-0.513 3.272,-0.594 4.875,-0.23 0.415,0.092 0.841,-0.083 1.066,-0.442 l 2.536,-4.022 c 0.719,0.33 1.425,0.695 2.111,1.093 l -1.821,4.396 c -0.162,0.391 -0.061,0.84 0.253,1.124 0.632,0.573 1.172,1.204 1.603,1.875 0.429,0.668 0.775,1.421 1.03,2.237 0.126,0.404 0.492,0.685 0.915,0.701 l 4.759,0.186 c 0.074,0.788 0.11,1.58 0.108,2.37 z"
           id="path7838-0-5-2-6" />
        <path
           style="fill:#ffffff"
           inkscape:connector-curvature="0"
           d="m 300.083,419.853 c 0,3.113 2.533,5.646 5.646,5.646 3.114,0 5.647,-2.533 5.647,-5.646 0,-3.114 -2.533,-5.647 -5.647,-5.647 -3.113,-0.001 -5.646,2.532 -5.646,5.647 z m 9.294,0 c 0,2.011 -1.637,3.646 -3.647,3.646 -2.01,0 -3.646,-1.636 -3.646,-3.646 0,-2.01 1.636,-3.647 3.646,-3.647 2.01,0 3.647,1.636 3.647,3.647 z"
           id="path7840-7-2-2-1" />
        <path
           style="fill:#ffffff"
           inkscape:connector-curvature="0"
           d="m 293.863,371.589 c -1.244,0 -2.455,0.234 -3.599,0.697 -0.256,0.103 -0.379,0.395 -0.276,0.651 0.103,0.256 0.396,0.38 0.651,0.276 1.024,-0.414 2.109,-0.624 3.224,-0.624 4.75,0 8.613,3.864 8.613,8.613 0,4.75 -3.864,8.614 -8.613,8.614 -4.75,0 -8.614,-3.864 -8.614,-8.614 0,-1.684 0.486,-3.314 1.405,-4.716 0.151,-0.231 0.087,-0.541 -0.144,-0.692 -0.23,-0.151 -0.541,-0.086 -0.692,0.144 -1.027,1.565 -1.569,3.386 -1.569,5.265 0,5.301 4.313,9.614 9.614,9.614 5.301,0 9.613,-4.313 9.613,-9.614 10e-4,-5.302 -4.312,-9.614 -9.613,-9.614 z"
           id="path7842-3-0-8-0" />
        <path
           style="fill:#ffffff"
           inkscape:connector-curvature="0"
           d="m 296.117,419.851 c 0,5.302 4.313,9.614 9.614,9.614 2.709,0 5.307,-1.152 7.127,-3.161 0.186,-0.205 0.17,-0.521 -0.034,-0.706 -0.203,-0.185 -0.521,-0.17 -0.706,0.034 -1.632,1.801 -3.959,2.833 -6.387,2.833 -4.75,0 -8.614,-3.864 -8.614,-8.614 0,-4.749 3.864,-8.613 8.614,-8.613 4.749,0 8.613,3.864 8.613,8.613 0,0.582 -0.059,1.164 -0.174,1.73 -0.055,0.271 0.12,0.534 0.391,0.59 0.267,0.056 0.534,-0.119 0.59,-0.391 0.128,-0.632 0.193,-1.281 0.193,-1.93 0,-5.301 -4.312,-9.613 -9.613,-9.613 -5.301,0 -9.614,4.313 -9.614,9.614 z"
           id="path7844-1-2-9-6" />
      </g>
    </g>
    <path
       style="fill:#dcdcdc;stroke:#dcdcdc;stroke-width:4.56500006;stroke-linecap:butt;stroke-linejoin:miter;stroke-miterlimit:4;stroke-dasharray:none;stroke-opacity:1;marker-end:url(#TriangleOutS-4)"
       d="m 71.947304,85.685967 h 9.827382"
       id="path2914-4"
       inkscape:connector-curvature="0" />
    <path
       style="fill:#dcdcdc;stroke:#dcdcdc;stroke-width:4.56500006;stroke-linecap:butt;stroke-linejoin:miter;stroke-miterlimit:4;stroke-dasharray:none;stroke-opacity:1;marker-end:url(#TriangleOutS-4-7)"
       d="m 128.39205,85.685967 h 9.82738"
       id="path2914-4-6"
       inkscape:connector-curvature="0" />
    <path
       style="fill:#dcdcdc;stroke:#dcdcdc;stroke-width:4.56500006;stroke-linecap:butt;stroke-linejoin:miter;stroke-miterlimit:4;stroke-dasharray:none;stroke-opacity:1;marker-end:url(#TriangleOutS-4-7-8)"
       d="m 184.51053,85.685967 h 9.82738"
       id="path2914-4-6-2"
       inkscape:connector-curvature="0" />
    <path
       style="fill:#dcdcdc;stroke:#dcdcdc;stroke-width:4.56500006;stroke-linecap:butt;stroke-linejoin:miter;stroke-miterlimit:4;stroke-dasharray:none;stroke-opacity:1;marker-end:url(#TriangleOutS-4-7-9)"
       d="M 164.60711,98.904322 V 115.95843"
       id="path2914-4-6-0"
       inkscape:connector-curvature="0"
       sodipodi:nodetypes="cc" />
    <g
       id="g10620-1-9-5"
       transform="translate(-9.2177042,69.779316)">
      <rect
         ry="1.9553049"
         y="95.856079"
         x="95.870041"
         height="20.766689"
         width="101.41422"
         id="rect6934-1-2-6-2-2-5-5-8-9-0-9"
         style="fill:#f0ab00;stroke-width:0.19035387" />
      <text
         id="text10613-0-9-4"
         y="109.19147"
         x="105.21466"
         style="font-style:normal;font-variant:normal;font-weight:900;font-stretch:normal;font-size:9.87777805px;line-height:1.25;font-family:Overpass;-inkscape-font-specification:'Overpass Heavy';letter-spacing:0px;word-spacing:0px;fill:#ffffff;stroke-width:0.26458332"
         xml:space="preserve"><tspan
           style="font-style:normal;font-variant:normal;font-weight:900;font-stretch:normal;font-size:11.28888893px;font-family:Overpass;-inkscape-font-specification:'Overpass Heavy';fill:#ffffff;stroke-width:0.26458332"
           y="109.19147"
           x="105.21466"
           id="tspan10611-5-9-9"
           sodipodi:role="line">Spark executor</tspan></text>
    </g>
    <g
       id="g10620-1-9-5-0"
       transform="translate(-16.709792,111.14622)">
      <rect
         ry="1.9553049"
         y="95.856079"
         x="95.870041"
         height="20.766689"
         width="101.41422"
         id="rect6934-1-2-6-2-2-5-5-8-9-0-9-9"
         style="fill:#f0ab00;stroke-width:0.19035387" />
      <text
         id="text10613-0-9-4-1"
         y="109.19147"
         x="105.21466"
         style="font-style:normal;font-variant:normal;font-weight:900;font-stretch:normal;font-size:9.87777805px;line-height:1.25;font-family:Overpass;-inkscape-font-specification:'Overpass Heavy';letter-spacing:0px;word-spacing:0px;fill:#ffffff;stroke-width:0.26458332"
         xml:space="preserve"><tspan
           style="font-style:normal;font-variant:normal;font-weight:900;font-stretch:normal;font-size:11.28888893px;font-family:Overpass;-inkscape-font-specification:'Overpass Heavy';fill:#ffffff;stroke-width:0.26458332"
           y="109.19147"
           x="105.21466"
           id="tspan10611-5-9-9-7"
           sodipodi:role="line">Spark executor</tspan></text>
    </g>
  </g>
</svg>
