<?xml version="1.0" encoding="UTF-8" standalone="no"?>
<!-- Created with Inkscape (http://www.inkscape.org/) -->

<svg
   xmlns:dc="http://purl.org/dc/elements/1.1/"
   xmlns:cc="http://creativecommons.org/ns#"
   xmlns:rdf="http://www.w3.org/1999/02/22-rdf-syntax-ns#"
   xmlns:svg="http://www.w3.org/2000/svg"
   xmlns="http://www.w3.org/2000/svg"
   xmlns:sodipodi="http://sodipodi.sourceforge.net/DTD/sodipodi-0.dtd"
   xmlns:inkscape="http://www.inkscape.org/namespaces/inkscape"
   width="127.44755mm"
   height="71.652809mm"
   viewBox="0 0 127.44755 71.652809"
   version="1.1"
   id="svg8"
   inkscape:version="0.92.3 (2405546, 2018-03-11)"
   sodipodi:docname="code-to-cloud.svg">
  <defs
     id="defs2">
    <marker
       inkscape:isstock="true"
       style="overflow:visible"
       id="TriangleOutS"
       refX="0"
       refY="0"
       orient="auto"
       inkscape:stockid="TriangleOutS">
      <path
         inkscape:connector-curvature="0"
         transform="scale(0.2)"
         style="fill:#0088ce;fill-opacity:1;fill-rule:evenodd;stroke:#0088ce;stroke-width:1.00000003pt;stroke-opacity:1"
         d="M 5.77,0 -2.88,5 V -5 Z"
         id="path3046" />
    </marker>
    <marker
       inkscape:stockid="Arrow2Lend"
       orient="auto"
       refY="0"
       refX="0"
       id="Arrow2Lend-2"
       style="overflow:visible"
       inkscape:isstock="true">
      <path
         inkscape:connector-curvature="0"
         id="path2103-7"
         style="fill:#bebebe;fill-opacity:1;fill-rule:evenodd;stroke:#bebebe;stroke-width:0.625;stroke-linejoin:round;stroke-opacity:1"
         d="M 8.7185878,4.0337352 -2.2072895,0.01601326 8.7185884,-4.0017078 c -1.7454984,2.3720609 -1.7354408,5.6174519 -6e-7,8.035443 z"
         transform="matrix(-1.1,0,0,-1.1,-1.1,0)" />
    </marker>
    <marker
       inkscape:stockid="Arrow2Lend"
       orient="auto"
       refY="0"
       refX="0"
       id="Arrow2Lend-2-7"
       style="overflow:visible"
       inkscape:isstock="true">
      <path
         inkscape:connector-curvature="0"
         id="path2103-7-5"
         style="fill:#bebebe;fill-opacity:1;fill-rule:evenodd;stroke:#bebebe;stroke-width:0.625;stroke-linejoin:round;stroke-opacity:1"
         d="M 8.7185878,4.0337352 -2.2072895,0.01601326 8.7185884,-4.0017078 c -1.7454984,2.3720609 -1.7354408,5.6174519 -6e-7,8.035443 z"
         transform="matrix(-1.1,0,0,-1.1,-1.1,0)" />
    </marker>
    <marker
       inkscape:stockid="Arrow2Lend"
       orient="auto"
       refY="0"
       refX="0"
       id="Arrow2Lend"
       style="overflow:visible"
       inkscape:isstock="true">
      <path
         id="path2103"
         style="fill:#bebebe;fill-opacity:1;fill-rule:evenodd;stroke:#bebebe;stroke-width:0.625;stroke-linejoin:round;stroke-opacity:1"
         d="M 8.7185878,4.0337352 -2.2072895,0.01601326 8.7185884,-4.0017078 c -1.7454984,2.3720609 -1.7354408,5.6174519 -6e-7,8.035443 z"
         transform="matrix(-1.1,0,0,-1.1,-1.1,0)"
         inkscape:connector-curvature="0" />
    </marker>
    <marker
       inkscape:stockid="Arrow2Lend"
       orient="auto"
       refY="0"
       refX="0"
       id="Arrow2Lend-2-5"
       style="overflow:visible"
       inkscape:isstock="true">
      <path
         inkscape:connector-curvature="0"
         id="path2103-7-3"
         style="fill:#bebebe;fill-opacity:1;fill-rule:evenodd;stroke:#bebebe;stroke-width:0.625;stroke-linejoin:round;stroke-opacity:1"
         d="M 8.7185878,4.0337352 -2.2072895,0.01601326 8.7185884,-4.0017078 c -1.7454984,2.3720609 -1.7354408,5.6174519 -6e-7,8.035443 z"
         transform="matrix(-1.1,0,0,-1.1,-1.1,0)" />
    </marker>
    <marker
       inkscape:stockid="Arrow2Lend"
       orient="auto"
       refY="0"
       refX="0"
       id="Arrow2Lend-2-6"
       style="overflow:visible"
       inkscape:isstock="true">
      <path
         inkscape:connector-curvature="0"
         id="path2103-7-56"
         style="fill:#bebebe;fill-opacity:1;fill-rule:evenodd;stroke:#bebebe;stroke-width:0.625;stroke-linejoin:round;stroke-opacity:1"
         d="M 8.7185878,4.0337352 -2.2072895,0.01601326 8.7185884,-4.0017078 c -1.7454984,2.3720609 -1.7354408,5.6174519 -6e-7,8.035443 z"
         transform="matrix(-1.1,0,0,-1.1,-1.1,0)" />
    </marker>
    <marker
       inkscape:stockid="Arrow2Lend"
       orient="auto"
       refY="0"
       refX="0"
       id="Arrow2Lend-9"
       style="overflow:visible"
       inkscape:isstock="true">
      <path
         id="path2103-3"
         style="fill:#bebebe;fill-opacity:1;fill-rule:evenodd;stroke:#bebebe;stroke-width:0.625;stroke-linejoin:round;stroke-opacity:1"
         d="M 8.7185878,4.0337352 -2.2072895,0.01601326 8.7185884,-4.0017078 c -1.7454984,2.3720609 -1.7354408,5.6174519 -6e-7,8.035443 z"
         transform="matrix(-1.1,0,0,-1.1,-1.1,0)"
         inkscape:connector-curvature="0" />
    </marker>
    <marker
       inkscape:stockid="Arrow2Lend"
       orient="auto"
       refY="0"
       refX="0"
       id="Arrow2Lend-2-6-5"
       style="overflow:visible"
       inkscape:isstock="true">
      <path
         inkscape:connector-curvature="0"
         id="path2103-7-56-6"
         style="fill:#bebebe;fill-opacity:1;fill-rule:evenodd;stroke:#bebebe;stroke-width:0.625;stroke-linejoin:round;stroke-opacity:1"
         d="M 8.7185878,4.0337352 -2.2072895,0.01601326 8.7185884,-4.0017078 c -1.7454984,2.3720609 -1.7354408,5.6174519 -6e-7,8.035443 z"
         transform="matrix(-1.1,0,0,-1.1,-1.1,0)" />
    </marker>
    <marker
       inkscape:stockid="Arrow2Lend"
       orient="auto"
       refY="0"
       refX="0"
       id="Arrow2Lend-2-6-5-9"
       style="overflow:visible"
       inkscape:isstock="true">
      <path
         inkscape:connector-curvature="0"
         id="path2103-7-56-6-1"
         style="fill:#bebebe;fill-opacity:1;fill-rule:evenodd;stroke:#bebebe;stroke-width:0.625;stroke-linejoin:round;stroke-opacity:1"
         d="M 8.7185878,4.0337352 -2.2072895,0.01601326 8.7185884,-4.0017078 c -1.7454984,2.3720609 -1.7354408,5.6174519 -6e-7,8.035443 z"
         transform="matrix(-1.1,0,0,-1.1,-1.1,0)" />
    </marker>
    <marker
       inkscape:stockid="Arrow2Lend"
       orient="auto"
       refY="0"
       refX="0"
       id="Arrow2Lend-2-6-7"
       style="overflow:visible"
       inkscape:isstock="true">
      <path
         inkscape:connector-curvature="0"
         id="path2103-7-56-0"
         style="fill:#bebebe;fill-opacity:1;fill-rule:evenodd;stroke:#bebebe;stroke-width:0.625;stroke-linejoin:round;stroke-opacity:1"
         d="M 8.7185878,4.0337352 -2.2072895,0.01601326 8.7185884,-4.0017078 c -1.7454984,2.3720609 -1.7354408,5.6174519 -6e-7,8.035443 z"
         transform="matrix(-1.1,0,0,-1.1,-1.1,0)" />
    </marker>
    <marker
       inkscape:stockid="Arrow2Lend"
       orient="auto"
       refY="0"
       refX="0"
       id="Arrow2Lend-2-6-7-3"
       style="overflow:visible"
       inkscape:isstock="true">
      <path
         inkscape:connector-curvature="0"
         id="path2103-7-56-0-6"
         style="fill:#bebebe;fill-opacity:1;fill-rule:evenodd;stroke:#bebebe;stroke-width:0.625;stroke-linejoin:round;stroke-opacity:1"
         d="M 8.7185878,4.0337352 -2.2072895,0.01601326 8.7185884,-4.0017078 c -1.7454984,2.3720609 -1.7354408,5.6174519 -6e-7,8.035443 z"
         transform="matrix(-1.1,0,0,-1.1,-1.1,0)" />
    </marker>
  </defs>
  <sodipodi:namedview
     id="base"
     pagecolor="#ffffff"
     bordercolor="#666666"
     borderopacity="1.0"
     inkscape:pageopacity="0.0"
     inkscape:pageshadow="2"
     inkscape:zoom="1.4"
     inkscape:cx="379.51981"
     inkscape:cy="-73.058395"
     inkscape:document-units="mm"
     inkscape:current-layer="layer1"
     showgrid="false"
     inkscape:window-width="2552"
     inkscape:window-height="1400"
     inkscape:window-x="4"
     inkscape:window-y="4"
     inkscape:window-maximized="1"
     fit-margin-top="0"
     fit-margin-left="0"
     fit-margin-right="0"
     fit-margin-bottom="0" />
  <metadata
     id="metadata5">
    <rdf:RDF>
      <cc:Work
         rdf:about="">
        <dc:format>image/svg+xml</dc:format>
        <dc:type
           rdf:resource="http://purl.org/dc/dcmitype/StillImage" />
        <dc:title></dc:title>
      </cc:Work>
    </rdf:RDF>
  </metadata>
  <g
     inkscape:label="Layer 1"
     inkscape:groupmode="layer"
     id="layer1"
     transform="translate(124.79057,2.2995079)">
    <g
       id="g937"
       transform="matrix(0.26458333,0,0,0.26458333,-194.95596,-45.274458)">
	<g
   id="g927">
		<path
   id="path925"
   d="m 287.73,420.33 h -8.891 c -1.228,0 -2.352,-0.193 -3.34,-0.573 -1.002,-0.386 -1.874,-0.944 -2.592,-1.662 -0.722,-0.721 -1.275,-1.608 -1.646,-2.637 -0.359,-0.997 -0.542,-2.121 -0.542,-3.343 v -7.916 c 0,-0.89 -0.109,-1.639 -0.325,-2.226 -0.2,-0.542 -0.482,-0.98 -0.841,-1.303 -0.37,-0.334 -0.812,-0.569 -1.351,-0.721 -0.599,-0.17 -1.281,-0.263 -2.03,-0.277 l -0.98,-0.02 v -6.649 l 0.962,-0.037 c 0.767,-0.029 1.46,-0.133 2.06,-0.31 0.541,-0.159 0.98,-0.398 1.345,-0.731 0.354,-0.324 0.634,-0.764 0.835,-1.309 0.215,-0.586 0.325,-1.335 0.325,-2.225 v -7.915 c 0,-2.618 0.739,-4.666 2.197,-6.086 1.45,-1.413 3.442,-2.13 5.922,-2.13 h 8.891 v 6.585 h -5.537 c -1.148,0 -1.929,0.284 -2.385,0.87 -0.508,0.653 -0.766,1.721 -0.766,3.174 v 7.264 c 0,0.941 -0.157,1.822 -0.466,2.619 -0.305,0.788 -0.727,1.493 -1.254,2.094 -0.488,0.558 -1.064,1.036 -1.713,1.422 0.661,0.39 1.247,0.879 1.743,1.453 0.525,0.61 0.941,1.31 1.237,2.08 0.301,0.78 0.453,1.652 0.453,2.592 v 7.264 c 0,1.468 0.257,2.538 0.764,3.183 0.456,0.579 1.237,0.861 2.387,0.861 h 5.537 v 6.609 z m -20.536,-22.597 c 0.55,0.058 1.069,0.155 1.553,0.292 0.828,0.232 1.551,0.623 2.147,1.159 0.603,0.543 1.066,1.249 1.379,2.099 0.297,0.809 0.448,1.79 0.448,2.916 v 7.916 c 0,0.989 0.143,1.886 0.423,2.665 0.27,0.749 0.666,1.389 1.178,1.9 0.518,0.518 1.156,0.925 1.895,1.209 0.759,0.292 1.641,0.441 2.622,0.441 h 6.891 v -2.608 h -3.537 c -1.779,0 -3.111,-0.547 -3.959,-1.625 -0.802,-1.02 -1.191,-2.465 -1.191,-4.419 v -7.264 c 0,-0.692 -0.108,-1.323 -0.319,-1.873 -0.214,-0.556 -0.513,-1.059 -0.887,-1.493 -0.372,-0.433 -0.819,-0.798 -1.327,-1.085 -0.525,-0.297 -1.094,-0.519 -1.689,-0.656 l -0.774,-0.18 v -1.603 l 0.79,-0.266 c 0.574,-0.124 1.129,-0.335 1.648,-0.629 0.51,-0.289 0.959,-0.652 1.333,-1.08 0.372,-0.425 0.673,-0.93 0.893,-1.501 0.22,-0.565 0.331,-1.203 0.331,-1.895 v -7.264 c 0,-1.936 0.389,-3.376 1.188,-4.403 0.848,-1.089 2.182,-1.641 3.962,-1.641 h 3.537 v -2.585 h -6.891 c -1.968,0 -3.448,0.511 -4.526,1.562 -1.072,1.044 -1.593,2.566 -1.593,4.653 v 7.915 c 0,1.127 -0.15,2.108 -0.448,2.915 -0.312,0.848 -0.77,1.553 -1.362,2.094 -0.585,0.537 -1.303,0.932 -2.13,1.175 -0.489,0.144 -1.021,0.25 -1.587,0.316 v 2.843 z"
   inkscape:connector-curvature="0"
   style="fill:#231f20" />

	</g>

	<g
   id="g931">
		<path
   id="path929"
   d="m 310.149,421.055 h -8.323 v -48.793 h 8.323 z m -6.322,-2 h 4.323 v -44.793 h -4.323 z"
   inkscape:connector-curvature="0"
   style="fill:#231f20" />

	</g>

	<g
   id="g935">
		<path
   id="path933"
   d="m 333.162,420.33 h -8.892 v -6.608 h 5.537 c 1.15,0 1.931,-0.282 2.387,-0.861 0.507,-0.644 0.764,-1.715 0.764,-3.183 v -7.264 c 0,-0.94 0.152,-1.812 0.454,-2.593 0.296,-0.77 0.713,-1.471 1.236,-2.079 0.496,-0.575 1.082,-1.063 1.742,-1.453 -0.648,-0.386 -1.225,-0.864 -1.713,-1.422 -0.524,-0.598 -0.946,-1.303 -1.254,-2.094 -0.309,-0.796 -0.466,-1.677 -0.466,-2.618 v -7.264 c 0,-1.454 -0.258,-2.522 -0.767,-3.174 -0.456,-0.585 -1.235,-0.87 -2.384,-0.87 h -5.537 v -6.585 h 8.892 c 2.479,0 4.472,0.717 5.923,2.13 1.457,1.42 2.196,3.468 2.196,6.086 v 7.915 c 0,0.893 0.109,1.641 0.324,2.225 0.2,0.546 0.48,0.986 0.834,1.309 0.365,0.334 0.805,0.573 1.345,0.731 0.601,0.177 1.294,0.281 2.062,0.31 l 0.962,0.037 v 6.649 l -0.98,0.02 c -0.749,0.015 -1.432,0.107 -2.028,0.276 -0.54,0.152 -0.982,0.388 -1.353,0.722 -0.364,0.327 -0.639,0.753 -0.841,1.303 -0.215,0.585 -0.324,1.333 -0.324,2.226 v 7.916 c 0,1.221 -0.183,2.346 -0.543,3.344 -0.369,1.026 -0.923,1.914 -1.645,2.636 -0.719,0.718 -1.591,1.276 -2.592,1.662 -0.988,0.378 -2.111,0.571 -3.339,0.571 z m -6.892,-2 h 6.892 c 0.98,0 1.862,-0.148 2.621,-0.441 0.739,-0.284 1.378,-0.691 1.896,-1.21 0.512,-0.511 0.908,-1.15 1.177,-1.898 0.282,-0.781 0.425,-1.678 0.425,-2.666 v -7.916 c 0,-1.129 0.15,-2.109 0.447,-2.916 0.312,-0.851 0.777,-1.557 1.38,-2.1 0.595,-0.535 1.317,-0.926 2.147,-1.159 0.481,-0.136 1.001,-0.233 1.552,-0.291 v -2.84 c -0.566,-0.066 -1.098,-0.172 -1.588,-0.317 -0.826,-0.242 -1.544,-0.638 -2.131,-1.175 -0.591,-0.541 -1.049,-1.246 -1.36,-2.094 -0.297,-0.805 -0.447,-1.786 -0.447,-2.915 v -7.915 c 0,-2.058 -0.536,-3.623 -1.593,-4.653 -1.079,-1.051 -2.56,-1.562 -4.526,-1.562 h -6.892 v 2.585 h 3.537 c 1.78,0 3.113,0.552 3.962,1.64 0.8,1.026 1.189,2.467 1.189,4.404 v 7.264 c 0,0.692 0.111,1.33 0.33,1.894 0.223,0.573 0.523,1.078 0.895,1.501 0.375,0.429 0.822,0.792 1.332,1.08 0.52,0.294 1.074,0.506 1.648,0.629 l 0.79,0.169 v 1.603 l -0.773,0.276 c -0.595,0.138 -1.163,0.359 -1.688,0.656 -0.509,0.287 -0.955,0.651 -1.328,1.085 -0.374,0.434 -0.672,0.935 -0.886,1.493 -0.213,0.55 -0.32,1.18 -0.32,1.873 v 7.264 c 0,1.954 -0.39,3.4 -1.191,4.419 -0.849,1.078 -2.181,1.625 -3.959,1.625 h -3.537 v 2.608 z"
   inkscape:connector-curvature="0"
   style="fill:#231f20" />

	</g>

</g>
    <path
       id="path1285"
       d="m -48.320716,58.577965 c 0.195314,-0.202547 4.734535,-4.969633 3.153946,-7.534022 -1.218899,-1.974833 -5.284304,-0.723381 -7.671464,0.217014 a 0.8318892,0.8318892 0 0 0 -0.524453,-0.188079 h -11.86708 a 0.84273993,0.84273993 0 0 0 -0.83912,0.839123 v 8.318892 c -0.16999,0.151911 -4.07264,3.953283 -4.07264,6.778089 a 2.1014245,2.1014245 0 0 0 1.62399,2.170146 4.9117632,4.9117632 0 0 0 1.37081,0.173612 c 1.1538,0 2.78502,-0.303821 5.06368,-1.2406 a 0.8318892,0.8318892 0 0 0 0.49551,0.16276 h 11.877928 a 0.84273993,0.84273993 0 0 0 0.839124,-0.839123 v -8.250171 c 0.350841,-0.379775 0.542537,-0.600406 0.549769,-0.607641 z m -6.872127,-3.873709 v -1.370809 h 3.67478 a 0.41956151,0.41956151 0 0 1 0.419561,0.419561 v 0.954864 z m 1.830156,4.752619 h 3.298622 a 40.455134,40.455134 0 0 1 -3.298622,2.795871 z M -56.9796,51.499673 h 3.616913 a 0.41956151,0.41956151 0 0 1 0.419561,0.419562 v 0.998267 H -56.9796 Z m 0,12.525358 0.0868,-0.253183 h 1.432299 c -0.698059,0.470198 -1.446759,0.944013 -2.238869,1.410595 v -1.410595 h 0.0977 l -0.0904,0.253183 z m 0.18447,-0.524452 0.21339,-0.575088 h 1.84101 l 0.101269,0.282119 -0.408712,0.285736 z m 0.40871,-1.186346 0.361687,-1.052521 q 0.04703,-0.126586 0.09404,-0.282119 l 0.09404,-0.307436 0.08681,-0.274886 q 0.03978,-0.126586 0.05787,-0.198931 c 0,0.04703 0.03255,0.115746 0.06149,0.198931 l 0.09043,0.278502 0.101269,0.30382 q 0.05426,0.15191 0.09043,0.274886 l 0.361692,1.059754 z m -1.12124,1.186346 h -0.19532 v -4.043704 h 1.649313 z m -1.9676,-8.796323 v -1.370809 h 4.025616 v 1.374425 z m -1.80846,-3.215433 h 4.03286 v 1.421445 h -4.03286 z m -4.369227,0.423178 a 0.41956151,0.41956151 0 0 1 0.41957,-0.419561 h 3.67478 v 1.421445 h -1.83378 a 0.84273993,0.84273993 0 0 0 -0.83912,0.839123 v 1.833773 h -1.42145 z m 1.8374,9.790974 V 57.64842 h 1.37442 v 4.054555 z m 1.37442,0.271269 v 4.069023 h -0.95125 a 0.41956151,0.41956151 0 0 1 -0.42317,-0.412328 v -3.656695 z m -3.21182,-6.108961 h 1.42145 v 4.011153 h -1.42145 z m 0,4.817724 v -0.535302 h 1.42145 v 4.036471 h -0.99827 a 0.41956151,0.41956151 0 0 1 -0.41956,-0.419562 z m -2.69098,7.884863 a 1.4756991,1.4756991 0 0 1 -1.18272,-1.562505 c 0,-2.050788 2.44503,-4.843042 3.45414,-5.902796 v 2.680129 a 0.84273993,0.84273993 0 0 0 0.83913,0.839124 h 0.99826 v 1.009117 a 0.84273993,0.84273993 0 0 0 0.83913,0.839124 h 0.95486 v 0.954864 a 0.83550611,0.83550611 0 0 0 0,0.148293 c -3.12863,1.284003 -4.92261,1.280386 -5.9028,0.99465 z m 5.90642,-13.020874 v 1.833772 h -1.37804 v -3.616909 a 0.41956151,0.41956151 0 0 1 0.42317,-0.430412 h 3.616907 v 1.374425 h -1.822917 a 0.84273993,0.84273993 0 0 0 -0.83912,0.835507 z m 4.466877,12.297492 h -3.522867 c 0.423177,-0.188079 0.868057,-0.394244 1.334637,-0.625725 0.76317,-0.361691 1.49017,-0.770401 2.17015,-1.164645 z m 0,-2.502901 c -0.77763,0.448497 -1.59506,0.893376 -2.4595,1.323789 -0.56062,0.278502 -1.085067,0.524451 -1.584197,0.723381 v -3.616909 h 4.043697 z m 0,-1.841008 h -4.036467 v -4.043704 h 4.036467 z m 0,-4.307738 h -4.036467 v -3.649462 a 0.41956151,0.41956151 0 0 1 0.40871,-0.401478 h 3.616907 z m 4.340292,8.651647 h -4.069022 v -1.956749 c 1.19358,-0.690829 2.282268,-1.392509 3.255218,-2.079722 l 0.07595,0.209781 h 0.723383 l -0.09041,-0.253184 h 0.09766 z m 0,-4.340292 h -0.198931 l -0.03617,-0.101269 0.235099,-0.169994 z m 0,-1.034435 -0.452114,0.336371 -1.215281,-3.33479 h 1.667395 z m 0,-3.255219 h -4.069022 v -4.072641 h 4.076256 z m 4.325824,8.203151 a 0.41956151,0.41956151 0 0 1 -0.405095,0.419562 h -3.616909 v -4.072641 h 4.022004 z m 0,-3.924347 h -4.047323 V 63.01953 a 40.900013,40.900013 0 0 0 4.043706,-3.42883 z m 0,-4.767087 c -0.130209,0.133831 -0.282119,0.285736 -0.462965,0.459347 h -3.584358 v -4.043705 h 3.642228 a 0.41956151,0.41956151 0 0 1 0.419562,0.419562 z m -0.405095,-4.022003 h -0.969331 v -0.954864 a 0.84273993,0.84273993 0 0 0 -0.839123,-0.839124 h -1.001884 v -0.998267 a 0.82465538,0.82465538 0 0 0 0,-0.112123 c 1.551654,-0.611258 5.819608,-2.090573 6.843193,-0.434029 1.106775,1.808455 -1.844623,5.508553 -3.085224,6.796173 l -0.112123,0.122977 v -2.741618 a 0.84273993,0.84273993 0 0 0 -0.835506,-0.839122 z m -0.535302,1.016351 a 0.33998949,0.33998949 0 1 0 0.339989,0.339989 0.33998949,0.33998949 0 0 0 -0.339989,-0.339989 z m -2.220783,0 a 0.33998949,0.33998949 0 1 0 0.339991,0.339989 0.33998949,0.33998949 0 0 0 -0.339991,-0.339989 z m 1.110392,0 a 0.33998949,0.33998949 0 1 0 0.33999,0.339989 0.33998949,0.33998949 0 0 0 -0.33999,-0.339989 z"
       inkscape:connector-curvature="0"
       style="stroke-width:0.36169094" />
    <g
       id="g1610"
       transform="matrix(0.62939748,0,0,0.62939748,-161.92456,-54.32643)">
	<g
   id="g1604">
		<path
   id="path1602"
   d="m 138.913,104.153 c -2.93,-9.574 -11.861,-16.211 -21.924,-16.211 -10.088,0 -18.943,6.576 -21.9,16.121 -1.645,-0.586 -3.361,-0.883 -5.119,-0.883 -7.135,0 -13.273,4.908 -14.891,11.783 -6.375,0.234 -11.746,4.662 -13.166,10.932 -0.062,0.281 0.004,0.578 0.185,0.805 0.18,0.225 0.453,0.357 0.742,0.357 h 32.793 c -0.147,1.019 -0.227,2.058 -0.227,3.116 0,11.957 9.728,21.686 21.686,21.686 11.957,0 21.685,-9.729 21.685,-21.686 0,-1.059 -0.08,-2.098 -0.227,-3.116 h 14.323 c 0.463,0 0.859,-0.334 0.938,-0.791 0.201,-1.164 0.299,-2.236 0.299,-3.277 0,-9.101 -6.357,-16.929 -15.197,-18.836 z m -21.82,45.706 c -10.854,0 -19.686,-8.831 -19.686,-19.686 0,-10.855 8.831,-19.686 19.686,-19.686 10.855,0 19.685,8.831 19.685,19.686 0,10.855 -8.831,19.686 -19.685,19.686 z m 34.965,-24.704 h -13.872 c -2.271,-9.545 -10.863,-16.668 -21.093,-16.668 -10.23,0 -18.822,7.123 -21.093,16.668 H 64.091 c 1.637,-4.941 6.215,-8.295 11.586,-8.295 h 0.008 l 0.146,0.006 c 0.482,0.045 0.875,-0.32 0.959,-0.781 1.154,-6.375 6.697,-11.002 13.18,-11.002 1.736,0 3.422,0.344 5.027,0.996 0.992,0.482 3.113,1.709 4.422,3.908 0.156,0.26 0.451,0.387 0.738,0.336 0.082,-0.016 0.164,-0.043 0.24,-0.09 0.338,-0.201 0.449,-0.639 0.248,-0.977 -1.127,-1.891 -2.729,-3.137 -3.949,-3.877 2.471,-9.156 10.781,-15.535 20.293,-15.535 9.141,0 17.203,5.844 19.967,14.49 -2.455,-0.016 -4.279,0.871 -4.389,0.916 -0.361,0.15 -0.537,0.566 -0.385,0.932 0.15,0.363 0.566,0.537 0.93,0.387 0.027,-0.012 2.541,-1.012 5.4,-0.539 7.965,1.721 13.695,8.76 13.695,16.959 0.001,0.696 -0.048,1.408 -0.149,2.166 z"
   inkscape:connector-curvature="0"
   style="fill:#231f20" />

	</g>

	<g
   id="g1608">
		<path
   id="path1606"
   d="m 130.183,128.951 -2.529,-2.799 c -0.914,-1.979 -2.357,-3.654 -4.186,-4.857 0.076,-0.275 0.115,-0.556 0.115,-0.838 0,-1.755 -1.428,-3.183 -3.182,-3.183 -1.344,0 -2.549,0.861 -2.998,2.117 -0.1,-0.005 -0.199,-0.009 -0.301,-0.009 -2.633,0 -5.197,0.902 -7.248,2.546 l -1.029,-0.835 c -0.078,-0.064 -0.18,-0.1 -0.285,-0.1 l -0.143,0.023 c -0.145,0.051 -0.252,0.168 -0.289,0.312 l -0.975,3.72 c -1.076,1.796 -1.643,3.852 -1.643,5.946 0,0.23 0.008,0.457 0.021,0.683 -1.076,0.536 -1.764,1.635 -1.764,2.846 0,1.754 1.428,3.182 3.182,3.182 0.215,0 0.434,-0.023 0.652,-0.07 1.547,2.215 3.805,3.819 6.393,4.544 l -0.105,1.209 c -0.012,0.15 0.051,0.297 0.17,0.395 0.08,0.062 0.178,0.095 0.279,0.095 0.049,0 0.1,-0.008 0.148,-0.025 l 3.666,-1.293 c 2.027,-0.18 3.975,-0.895 5.645,-2.072 0.527,0.364 1.16,0.563 1.799,0.563 1.756,0 3.184,-1.428 3.184,-3.182 0,-0.871 -0.357,-1.698 -0.986,-2.299 0.623,-1.449 0.939,-2.987 0.939,-4.574 0,-0.289 -0.012,-0.584 -0.035,-0.895 l 1.309,-0.418 c 0.143,-0.047 0.254,-0.162 0.295,-0.311 0.039,-0.146 0.002,-0.306 -0.099,-0.421 z m -4.606,10.864 c -0.377,0 -0.744,-0.109 -1.061,-0.317 -0.184,-0.118 -0.346,-0.268 -0.48,-0.444 -0.266,-0.345 -0.406,-0.755 -0.406,-1.186 0,-1.075 0.873,-1.95 1.947,-1.95 0.293,0 0.576,0.066 0.848,0.198 0.201,0.096 0.379,0.223 0.533,0.377 0.367,0.369 0.57,0.857 0.57,1.375 0,1.073 -0.875,1.947 -1.951,1.947 z m -18.646,-7.242 c 1.076,0 1.949,0.874 1.949,1.949 0,0.708 -0.387,1.361 -1.008,1.706 -0.193,0.107 -0.406,0.18 -0.637,0.216 -0.1,0.017 -0.199,0.026 -0.305,0.026 -1.074,0 -1.949,-0.874 -1.949,-1.948 0,-0.701 0.383,-1.352 0.996,-1.699 0.197,-0.11 0.408,-0.184 0.635,-0.222 0.104,-0.017 0.211,-0.028 0.319,-0.028 z m 3.183,1.95 c 0,-1.755 -1.428,-3.183 -3.184,-3.183 -0.066,0 -0.131,0.003 -0.197,0.008 -0.006,-0.117 -0.01,-0.235 -0.01,-0.354 0,-2.017 0.582,-3.973 1.686,-5.661 l 2.887,-1.41 c 0.139,-0.068 0.232,-0.2 0.25,-0.353 0.018,-0.154 -0.043,-0.305 -0.164,-0.4 l -0.545,-0.442 c 1.797,-1.363 4.01,-2.111 6.266,-2.111 0.039,0 0.08,10e-4 0.119,0.003 0.086,1.68 1.479,3.02 3.18,3.02 0.988,0 1.91,-0.456 2.512,-1.233 1.682,1.142 2.977,2.718 3.758,4.572 l -0.402,3.218 c -0.024,0.154 0.037,0.307 0.152,0.401 0.08,0.07 0.184,0.108 0.291,0.108 l 0.754,-0.218 c 0.01,0.167 0.016,0.336 0.016,0.506 0,1.345 -0.258,2.657 -0.766,3.903 -0.365,-0.142 -0.748,-0.213 -1.139,-0.213 -1.754,0 -3.182,1.428 -3.182,3.183 0,0.618 0.176,1.209 0.512,1.725 -1.57,1.064 -3.393,1.674 -5.289,1.768 l -2.793,-1.603 c -0.068,-0.039 -0.145,-0.061 -0.223,-0.061 -0.072,0 -0.145,0.018 -0.207,0.052 -0.135,0.069 -0.225,0.202 -0.24,0.359 l -0.07,0.816 c -2.125,-0.648 -4.004,-1.983 -5.338,-3.794 0.849,-0.59 1.366,-1.565 1.366,-2.606 z m 12.168,-13.569 c -0.055,0.215 -0.146,0.415 -0.268,0.595 -0.363,0.536 -0.967,0.856 -1.613,0.856 -1.074,0 -1.949,-0.874 -1.947,-1.974 0.002,-0.218 0.041,-0.433 0.117,-0.639 0.281,-0.769 1.016,-1.285 1.83,-1.285 1.074,0 1.949,0.874 1.949,1.949 0.001,0.159 -0.021,0.326 -0.068,0.498 z"
   inkscape:connector-curvature="0"
   style="fill:#231f20" />

	</g>

</g>
    <path
       id="path1797"
       d="M -1.0759367,-0.03163905 A 10.116733,10.116733 0 1 0 -13.842082,15.66609 l 0.119063,0.0926 q 0.325437,0.264583 0.661458,0.481541 a 10.141479,10.141479 0 0 0 11.2051033,0 c 0.224896,-0.150812 0.4445,-0.312208 0.661458,-0.481541 a 10.112375,10.112375 0 0 0 0.119063,-15.78768305 z M -2.0046247,15.64757 c -0.251354,0.174625 -0.508,0.33602 -0.769937,0.484187 q -0.264584,0.150813 -0.547688,0.28575 l -0.264583,-3.503083 a 0.20108333,0.20108333 0 1 0 -0.399521,0 l 0.214313,3.704166 a 9.6096667,9.6096667 0 0 1 -4.307416,0.722313 l -0.283104,-0.02117 A 9.4641458,9.4641458 0 0 1 -11.18302,16.608004 l 0.216959,-3.690937 a 0.20108333,0.20108333 0 1 0 -0.399521,0 l -0.264583,3.4925 c -0.177271,-0.08466 -0.351896,-0.177268 -0.529167,-0.264581 -0.264583,-0.148166 -0.529167,-0.306916 -0.777875,-0.484187 q -0.288396,-0.201084 -0.563562,-0.423334 l 0.148166,-1.852083 c 0.177271,-2.129896 0.600604,-4.5852288 4.3735633,-4.5852288 h 3.040061 c 3.770313,0 4.172479,2.5902708 4.368271,4.5719998 l 0.145521,1.852083 q -0.28575,0.216959 -0.579438,0.423334 z m 3.511021,-4.558771 a 9.4906042,9.4906042 0 0 1 -2.50295805,3.751791 l -0.11377095,-1.524 c -0.177271,-1.738312 -0.497417,-4.9715198 -4.828646,-4.9715198 h -3.040061 c -4.4158963,0 -4.6804793,3.2384998 -4.8312923,4.9794578 l -0.121708,1.518708 A 9.5673333,9.5673333 0 0 1 -16.24979,4.0720492 l 0.113771,-0.264584 A 9.5461667,9.5461667 0 0 1 1.5910633,10.813632 Z m -8.966729,-9.7049168 a 3.175,3.175 0 1 0 3.175,3.175 3.175,3.175 0 0 0 -3.175,-3.175 z m 0,5.886979 a 2.714625,2.714625 0 1 1 2.717271,-2.711979 2.7199167,2.7199167 0 0 1 -2.717271,2.714625 z"
       inkscape:connector-curvature="0"
       style="stroke-width:0.26458332" />
    <path
       style="fill:#bebebe;stroke:#bebebe;stroke-width:1.06500006;stroke-linecap:butt;stroke-linejoin:miter;stroke-miterlimit:4;stroke-dasharray:none;stroke-opacity:1;marker-end:url(#Arrow2Lend-2-6)"
       d="m -83.823515,59.693265 h 2.13815"
       id="path2080-0-2"
       inkscape:connector-curvature="0"
       sodipodi:nodetypes="cc" />
    <flowRoot
       xml:space="preserve"
       id="flowRoot2442"
       style="font-style:normal;font-variant:normal;font-weight:900;font-stretch:normal;font-size:32px;line-height:1.25;font-family:Overpass;-inkscape-font-specification:'Overpass Heavy';letter-spacing:0px;word-spacing:0px"
       transform="matrix(0.26458333,0,0,0.26458333,-168.90441,184.16267)"><flowRegion
         id="flowRegion2444"><rect
           id="rect2446"
           width="254.28572"
           height="80"
           x="-550"
           y="22.519684" /></flowRegion><flowPara
         id="flowPara2448" /></flowRoot>    <flowRoot
       xml:space="preserve"
       id="flowRoot2450"
       style="font-style:normal;font-variant:normal;font-weight:900;font-stretch:normal;font-size:32px;line-height:1.25;font-family:Overpass;-inkscape-font-specification:'Overpass Heavy';letter-spacing:0px;word-spacing:0px"
       transform="matrix(0.26458333,0,0,0.26458333,-168.90441,184.16267)"><flowRegion
         id="flowRegion2452"><rect
           id="rect2454"
           width="1910"
           height="281.42856"
           x="-680"
           y="5.3768272" /></flowRegion><flowPara
         id="flowPara2456" /></flowRoot>    <flowRoot
       xml:space="preserve"
       id="flowRoot2606"
       style="font-style:normal;font-variant:normal;font-weight:900;font-stretch:normal;font-size:32px;line-height:1.25;font-family:Overpass;-inkscape-font-specification:'Overpass Heavy';letter-spacing:0px;word-spacing:0px"
       transform="matrix(0.26458333,0,0,0.26458333,-411.09362,220.9185)"><flowRegion
         id="flowRegion2608"><rect
           id="rect2610"
           width="517.19812"
           height="876.81244"
           x="1610.1831"
           y="127.98081" /></flowRegion><flowPara
         id="flowPara2612" /></flowRoot>    <path
       style="fill:#bebebe;stroke:#bebebe;stroke-width:1.06500006;stroke-linecap:butt;stroke-linejoin:miter;stroke-miterlimit:4;stroke-dasharray:none;stroke-opacity:1;marker-end:url(#Arrow2Lend-2-6-5)"
       d="m -67.747515,35.622081 -1.311688,-1.688538"
       id="path2080-0-2-2"
       inkscape:connector-curvature="0"
       sodipodi:nodetypes="cc"
       inkscape:transform-center-x="-1.633664"
       inkscape:transform-center-y="-5.349892" />
    <path
       style="fill:#bebebe;stroke:#bebebe;stroke-width:1.06500006;stroke-linecap:butt;stroke-linejoin:miter;stroke-miterlimit:4;stroke-dasharray:none;stroke-opacity:1;marker-end:url(#Arrow2Lend-2-6-7)"
       d="m -30.30846,7.8331311 h 2.138151"
       id="path2080-0-2-9"
       inkscape:connector-curvature="0"
       sodipodi:nodetypes="cc" />
    <path
       style="fill:#bebebe;stroke:#bebebe;stroke-width:1.06500006;stroke-linecap:butt;stroke-linejoin:miter;stroke-miterlimit:4;stroke-dasharray:none;stroke-opacity:1;marker-end:url(#Arrow2Lend-2-6-7-3)"
       d="m -56.413865,7.7956101 h -2.138152"
       id="path2080-0-2-9-0"
       inkscape:connector-curvature="0"
       sodipodi:nodetypes="cc" />
  </g>
</svg>
