<?xml version="1.0" encoding="UTF-8" standalone="no"?>
<!-- Created with Inkscape (http://www.inkscape.org/) -->

<svg
   xmlns:dc="http://purl.org/dc/elements/1.1/"
   xmlns:cc="http://creativecommons.org/ns#"
   xmlns:rdf="http://www.w3.org/1999/02/22-rdf-syntax-ns#"
   xmlns:svg="http://www.w3.org/2000/svg"
   xmlns="http://www.w3.org/2000/svg"
   xmlns:sodipodi="http://sodipodi.sourceforge.net/DTD/sodipodi-0.dtd"
   xmlns:inkscape="http://www.inkscape.org/namespaces/inkscape"
   width="1076.0723"
   height="435.79135"
   viewBox="0 0 284.71078 115.30313"
   version="1.1"
   id="svg8"
   inkscape:version="0.92+devel unknown"
   sodipodi:docname="construct-1.svg">
  <defs
     id="defs2">
    <marker
       inkscape:stockid="TriangleInM"
       orient="auto"
       refY="0.0"
       refX="0.0"
       id="TriangleInM"
       style="overflow:visible"
       inkscape:isstock="true">
      <path
         id="path4601"
         d="M 5.77,0.0 L -2.88,5.0 L -2.88,-5.0 L 5.77,0.0 z "
         style="fill-rule:evenodd;stroke:#4c4c4c;stroke-width:1pt;stroke-opacity:1;fill:#4c4c4c;fill-opacity:1"
         transform="scale(-0.4)" />
    </marker>
    <marker
       inkscape:stockid="TriangleOutM"
       orient="auto"
       refY="0"
       refX="0"
       id="TriangleOutM"
       style="overflow:visible"
       inkscape:isstock="true">
      <path
         id="path4610"
         d="M 5.77,0 -2.88,5 V -5 Z"
         style="fill:#4c4c4c;fill-opacity:1;fill-rule:evenodd;stroke:#4c4c4c;stroke-width:1.00000003pt;stroke-opacity:1"
         transform="scale(0.4)"
         inkscape:connector-curvature="0" />
    </marker>
    <marker
       inkscape:stockid="Arrow1Send"
       orient="auto"
       refY="0"
       refX="0"
       id="Arrow1Send"
       style="overflow:visible"
       inkscape:isstock="true">
      <path
         id="path4480"
         d="M 0,0 5,-5 -12.5,0 5,5 Z"
         style="fill:#4c4c4c;fill-opacity:1;fill-rule:evenodd;stroke:#000000;stroke-width:1.00000003pt;stroke-opacity:1"
         transform="matrix(-0.2,0,0,-0.2,-1.2,0)"
         inkscape:connector-curvature="0" />
    </marker>
    <marker
       inkscape:stockid="TriangleOutM"
       orient="auto"
       refY="0"
       refX="0"
       id="TriangleOutM-7"
       style="overflow:visible"
       inkscape:isstock="true">
      <path
         inkscape:connector-curvature="0"
         id="path4610-9"
         d="M 5.77,0 -2.88,5 V -5 Z"
         style="fill:#4c4c4c;fill-opacity:1;fill-rule:evenodd;stroke:#4c4c4c;stroke-width:1.00000003pt;stroke-opacity:1"
         transform="scale(0.4)" />
    </marker>
    <marker
       inkscape:stockid="TriangleOutM"
       orient="auto"
       refY="0"
       refX="0"
       id="TriangleOutM-7-0"
       style="overflow:visible"
       inkscape:isstock="true">
      <path
         inkscape:connector-curvature="0"
         id="path4610-9-2"
         d="M 5.77,0 -2.88,5 V -5 Z"
         style="fill:#4c4c4c;fill-opacity:1;fill-rule:evenodd;stroke:#4c4c4c;stroke-width:1.00000003pt;stroke-opacity:1"
         transform="scale(0.4)" />
    </marker>
    <marker
       inkscape:stockid="TriangleOutM"
       orient="auto"
       refY="0"
       refX="0"
       id="TriangleOutM-7-7"
       style="overflow:visible"
       inkscape:isstock="true">
      <path
         inkscape:connector-curvature="0"
         id="path4610-9-5"
         d="M 5.77,0 -2.88,5 V -5 Z"
         style="fill:#4c4c4c;fill-opacity:1;fill-rule:evenodd;stroke:#4c4c4c;stroke-width:1.00000003pt;stroke-opacity:1"
         transform="scale(0.4)" />
    </marker>
  </defs>
  <sodipodi:namedview
     id="base"
     pagecolor="#ffffff"
     bordercolor="#666666"
     borderopacity="1.0"
     inkscape:pageopacity="0.0"
     inkscape:pageshadow="2"
     inkscape:zoom="1.4"
     inkscape:cx="521.72365"
     inkscape:cy="179.34528"
     inkscape:document-units="mm"
     inkscape:current-layer="layer1"
     inkscape:document-rotation="0"
     showgrid="false"
     inkscape:window-width="2556"
     inkscape:window-height="1404"
     inkscape:window-x="2"
     inkscape:window-y="2"
     inkscape:window-maximized="1"
     units="px"
     fit-margin-top="5"
     fit-margin-left="5"
     fit-margin-right="5"
     fit-margin-bottom="5" />
  <metadata
     id="metadata5">
    <rdf:RDF>
      <cc:Work
         rdf:about="">
        <dc:format>image/svg+xml</dc:format>
        <dc:type
           rdf:resource="http://purl.org/dc/dcmitype/StillImage" />
        <dc:title></dc:title>
      </cc:Work>
    </rdf:RDF>
  </metadata>
  <g
     inkscape:label="Layer 1"
     inkscape:groupmode="layer"
     id="layer1"
     transform="translate(34.221892,44.691756)">
    <path
       style="fill:none;stroke:#4c4c4c;stroke-width:1.204;stroke-linecap:butt;stroke-linejoin:miter;stroke-miterlimit:4;stroke-dasharray:none;stroke-opacity:1;marker-start:url(#TriangleInM);marker-end:url(#TriangleOutM)"
       d="M 47.175089,26.116014 H 65.240601"
       id="path4463"
       inkscape:connector-curvature="0" />
    <path
       style="fill:none;stroke:#4c4c4c;stroke-width:1.204;stroke-linecap:butt;stroke-linejoin:miter;stroke-miterlimit:4;stroke-dasharray:none;stroke-opacity:1;marker-end:url(#TriangleOutM-7)"
       d="M 149.31619,26.116014 H 167.3817"
       id="path4463-2"
       inkscape:connector-curvature="0" />
    <path
       style="fill:none;stroke:#4c4c4c;stroke-width:1.204;stroke-linecap:butt;stroke-linejoin:miter;stroke-miterlimit:4;stroke-dasharray:none;stroke-opacity:1;marker-end:url(#TriangleOutM-7-0)"
       d="M 211.9848,-13.388801 V 4.6767038"
       id="path4463-2-3"
       inkscape:connector-curvature="0" />
    <flowRoot
       xml:space="preserve"
       id="flowRoot16013"
       style="font-style:normal;font-variant:normal;font-weight:800;font-stretch:normal;font-size:48px;font-family:Overpass;-inkscape-font-specification:'Overpass Ultra-Bold'"
       transform="matrix(0.26458333,0,0,0.26458333,-24.252154,-40.449511)"><flowRegion
         id="flowRegion16015"
         style="font-style:normal;font-variant:normal;font-weight:800;font-stretch:normal;font-size:48px;font-family:Overpass;-inkscape-font-specification:'Overpass Ultra-Bold'"><rect
           id="rect16017"
           width="185.42665"
           height="64.938835"
           x="16.118666"
           y="201.90265"
           style="-inkscape-font-specification:'Overpass Ultra-Bold';font-family:Overpass;font-weight:800;font-style:normal;font-stretch:normal;font-variant:normal;font-size:48.0000006px;" /></flowRegion><flowPara
         id="flowPara16019">Browser</flowPara></flowRoot>    <rect
       style="opacity:1;fill:#92d400;stroke-width:2.5765202"
       id="rect4267-3-2"
       width="74.362328"
       height="23.922232"
       x="70.952339"
       y="14.154898"
       ry="4.4638472" />
    <rect
       style="opacity:1;fill:#92d400;stroke-width:2.5765202"
       id="rect4267-3-2-7"
       width="74.362328"
       height="23.922232"
       x="-32.898975"
       y="14.154899"
       ry="4.4638472" />
    <rect
       style="opacity:1;fill:#f0ab00;stroke-width:2.5765202"
       id="rect4267-3-2-9"
       width="74.362328"
       height="23.922232"
       x="174.80363"
       y="14.154898"
       ry="4.4638472" />
    <rect
       style="opacity:1;fill:#00b9e4;stroke-width:2.5765202"
       id="rect4267-3-2-8"
       width="74.362328"
       height="23.922232"
       x="174.80363"
       y="-43.368839"
       ry="4.4638472" />
    <g
       aria-label="Flask"
       transform="matrix(0.26458333,0,0,0.26458333,86.628145,-43.192685)"
       style="font-style:normal;font-variant:normal;font-weight:800;font-stretch:normal;font-size:48px;font-family:Overpass;-inkscape-font-specification:'Overpass Ultra-Bold';fill:#ffffff"
       id="flowRoot16261">
      <path
         d="m 24.351719,278.99414 h 6.48 v -14.256 h 10.176 v -6.144 h -10.176 v -7.056 h 16.032 v -6.144 h -22.512 z"
         id="path16431"
         inkscape:connector-curvature="0" />
      <path
         d="m 51.914219,278.99414 h 6.24 v -34.656 l -6.24,2.928 z"
         id="path16433"
         inkscape:connector-curvature="0" />
      <path
         d="m 79.469219,278.99414 h 6.144 v -15.648 c 0,-8.352 -5.616,-9.456 -10.032,-9.456 -4.224,0 -7.68,1.296 -10.032,2.88 l 1.92,5.04 c 2.304,-1.584 4.704,-2.448 7.584,-2.448 2.832,0 4.416,1.2 4.416,3.888 v 1.248 c -1.488,-0.72 -3.264,-1.152 -5.616,-1.152 -4.848,0 -9.744,2.448 -9.744,8.112 0,5.376 3.936,8.112 9.024,8.112 3.216,0 5.184,-1.2 6.336,-2.352 z m -5.136,-4.896 c -2.688,0 -4.128,-1.056 -4.128,-2.64 0,-2.016 2.112,-2.832 4.704,-2.832 1.68,0 3.264,0.288 4.56,0.816 v 2.64 c -1.2,1.104 -2.88,2.016 -5.136,2.016 z"
         id="path16435"
         inkscape:connector-curvature="0" />
      <path
         d="m 100.47372,279.57014 c 5.808,0 9.6,-2.64 9.6,-7.44 0,-4.896 -3.84,-6.768 -8.064,-8.16 -2.544001,-0.768 -4.800001,-1.68 -4.800001,-2.976 0,-1.2 1.248,-1.824 3.120001,-1.824 1.92,0 3.312,0.672 4.8,2.064 l 4.176,-3.408 c -1.776,-2.064 -4.704,-3.936 -8.976,-3.936 -4.896001,0 -8.928001,2.448 -8.928001,6.912 0,4.272 2.928,6.24 8.4,8.064 2.832001,1.104 4.464001,1.776 4.464001,3.264 0,1.584 -1.536,2.16 -3.696,2.16 -2.592001,0 -4.752001,-1.632 -5.760001,-2.64 l -4.128,3.504 c 1.92,2.688 5.808,4.416 9.792001,4.416 z"
         id="path16437"
         inkscape:connector-curvature="0" />
      <path
         d="m 138.20847,278.99414 -9.024,-17.424 7.2,-7.104 h -7.488 l -6.576,6.672 v -16.8 l -6.24,2.928 v 31.728 h 6.24 v -10.752 l 2.304,-2.208 6.768,12.96 z"
         id="path16439"
         inkscape:connector-curvature="0" />
    </g>
    <g
       aria-label="React"
       transform="matrix(0.26458333,0,0,0.26458333,-18.653209,-43.192684)"
       style="font-style:normal;font-variant:normal;font-weight:800;font-stretch:normal;font-size:48px;font-family:Overpass;-inkscape-font-specification:'Overpass Ultra-Bold';fill:#ffffff"
       id="flowRoot16261-6">
      <path
         d="m 24.351719,278.99414 h 6.48 v -12.528 h 6.768 l 6.288,12.528 h 7.296 l -6.528,-13.392 c 4.368,-1.536 6.528,-5.904 6.528,-9.696 0,-5.52 -2.784,-10.512 -11.232,-10.512 h -15.6 z m 6.48,-18.672 v -8.784 h 9.216 c 3.456,0 4.416,2.256 4.416,4.368 0,2.304 -1.104,4.416 -4.416,4.416 z"
         id="path16420"
         inkscape:connector-curvature="0" />
      <path
         d="m 66.258719,279.57014 c 4.08,0 7.056,-1.632 9.12,-4.128 l -3.84,-3.888 c -1.392,1.776 -3.024,2.544 -5.28,2.544 -2.688,0 -5.088,-1.776 -5.328,-4.944 h 15.984 c 0.192,-1.344 0.192,-2.736 0.192,-3.696 0,-7.872 -4.8,-11.568 -10.848,-11.568 -7.008,0 -11.472,4.896 -11.472,12.816 0,8.064 4.368,12.864 11.472,12.864 z m -5.28,-15.696 c 0.384,-3.072 2.352,-4.512 5.28,-4.512 2.496,0 4.368,1.632 4.752,4.512 z"
         id="path16422"
         inkscape:connector-curvature="0" />
      <path
         d="m 96.812969,278.99414 h 6.144001 v -15.648 c 0,-8.352 -5.616001,-9.456 -10.032001,-9.456 -4.224,0 -7.68,1.296 -10.032,2.88 l 1.92,5.04 c 2.304,-1.584 4.704,-2.448 7.584,-2.448 2.832,0 4.416,1.2 4.416,3.888 v 1.248 c -1.488,-0.72 -3.264,-1.152 -5.616,-1.152 -4.848,0 -9.744,2.448 -9.744,8.112 0,5.376 3.936,8.112 9.024,8.112 3.216,0 5.184,-1.2 6.336,-2.352 z m -5.136,-4.896 c -2.688,0 -4.128,-1.056 -4.128,-2.64 0,-2.016 2.112,-2.832 4.704,-2.832 1.68,0 3.264,0.288 4.56,0.816 v 2.64 c -1.2,1.104 -2.88,2.016 -5.136,2.016 z"
         id="path16424"
         inkscape:connector-curvature="0" />
      <path
         d="m 119.68947,279.57014 c 5.328,0 8.784,-2.592 10.272,-7.776 l -5.952,-1.776 c -0.72,2.304 -2.208,3.552 -4.32,3.552 -2.88,0 -4.848,-2.64 -4.848,-6.816 0,-4.128 1.968,-6.864 4.992,-6.864 1.968,0 3.408,1.296 4.128,3.168 l 5.952,-1.968 c -1.584,-4.992 -5.232,-7.2 -10.224,-7.2 -6.768,0 -11.184,4.896 -11.184,12.864 0,8.064 4.416,12.816 11.184,12.816 z"
         id="path16426"
         inkscape:connector-curvature="0" />
      <path
         d="m 142.97022,279.57014 c 2.064,0 3.84,-0.384 5.328,-1.104 l 0.72,-5.424 c -1.392,0.72 -2.736,1.056 -4.032,1.056 -1.104,0 -1.728,-0.72 -1.728,-1.92 v -12.24 h 5.472 v -5.472 h -5.472 v -10.128 l -6.24,2.976 v 7.152 h -3.504 v 5.472 h 3.504 v 13.152 c 0,4.08 1.728,6.48 5.952,6.48 z"
         id="path16428"
         inkscape:connector-curvature="0" />
    </g>
    <g
       aria-label="Spark"
       transform="matrix(0.26458333,0,0,0.26458333,189.15834,-44.386485)"
       style="font-style:normal;font-variant:normal;font-weight:800;font-stretch:normal;font-size:48px;font-family:Overpass;-inkscape-font-specification:'Overpass Ultra-Bold';fill:#ffffff"
       id="flowRoot16261-3">
      <path
         d="m 35.487719,279.57014 c 6.816,0 12.144,-3.696 12.144,-10.224 0,-7.248 -6.288,-9.36 -11.28,-11.04 -3.312,-1.104 -6.096,-2.016 -6.096,-4.128 0,-2.064 1.632,-3.216 4.464,-3.216 3.12,0 4.848,1.536 5.76,3.552 l 5.808,-1.92 c -1.248,-4.416 -5.184,-7.776 -11.184,-7.776 -7.248,0 -11.376,4.224 -11.376,9.264 0,6.672 5.664,8.544 10.56,10.176 3.648,1.2 6.816,2.256 6.816,5.088 0,2.688 -2.16,4.08 -5.424,4.08 -3.264,0 -5.904,-2.16 -7.344,-5.28 l -5.904,2.208 c 1.92,5.712 6.72,9.216 13.056,9.216 z"
         id="path16442"
         inkscape:connector-curvature="0" />
      <path
         d="m 65.114969,279.57014 c 5.856,0 10.176,-4.752 10.176,-12.816 0,-8.304 -4.08,-12.864 -10.128,-12.864 -2.448,0 -4.176,0.96 -5.28,2.352 v -1.776 h -6.24 v 34.128 l 6.24,-2.832 v -8.544 c 1.104,1.392 2.784,2.352 5.232,2.352 z m -0.96,-6 c -2.16,0 -3.648,-1.008 -4.272,-2.016 v -9.696 c 0.912,-1.2 2.208,-1.968 4.272,-1.968 3.216,0 4.896,2.736 4.896,6.864 0,4.368 -1.776,6.816 -4.896,6.816 z"
         id="path16444"
         inkscape:connector-curvature="0" />
      <path
         d="m 95.219219,278.99414 h 6.144001 v -15.648 c 0,-8.352 -5.616001,-9.456 -10.032001,-9.456 -4.224,0 -7.68,1.296 -10.032,2.88 l 1.92,5.04 c 2.304,-1.584 4.704,-2.448 7.584,-2.448 2.832,0 4.416,1.2 4.416,3.888 v 1.248 c -1.488,-0.72 -3.264,-1.152 -5.616,-1.152 -4.848,0 -9.744,2.448 -9.744,8.112 0,5.376 3.936,8.112 9.024,8.112 3.216,0 5.184,-1.2 6.336,-2.352 z m -5.136,-4.896 c -2.688,0 -4.128,-1.056 -4.128,-2.64 0,-2.016 2.112,-2.832 4.704,-2.832 1.68,0 3.264,0.288 4.56,0.816 v 2.64 c -1.2,1.104 -2.88,2.016 -5.136,2.016 z"
         id="path16446"
         inkscape:connector-curvature="0" />
      <path
         d="m 108.11172,278.99414 h 6.24 v -13.68 c 0,-4.224 2.064,-5.28 4.224,-5.28 1.92,0 3.312,0.624 4.464,1.44 l 0.864,-5.712 c -1.392,-1.152 -2.928,-1.872 -4.992,-1.872 -2.448,0 -3.84,1.2 -4.56,2.736 v -2.16 h -6.24 z"
         id="path16448"
         inkscape:connector-curvature="0" />
      <path
         d="m 150.11472,278.99414 -9.024,-17.424 7.2,-7.104 h -7.488 l -6.576,6.672 v -16.8 l -6.24,2.928 v 31.728 h 6.24 v -10.752 l 2.304,-2.208 6.768,12.96 z"
         id="path16450"
         inkscape:connector-curvature="0" />
    </g>
    <g
       aria-label="Parquet"
       transform="matrix(0.26458333,0,0,0.26458333,182.82342,-101.91022)"
       style="font-style:normal;font-variant:normal;font-weight:800;font-stretch:normal;font-size:48px;font-family:Overpass;-inkscape-font-specification:'Overpass Ultra-Bold';fill:#ffffff"
       id="flowRoot16261-5">
      <path
         d="m 24.351719,278.99414 h 6.48 v -12.384 h 7.92 c 8.208,0 11.472,-5.712 11.472,-10.608 0,-5.232 -2.976,-10.608 -11.472,-10.608 h -14.4 z m 14.688,-18.528 h -8.208 v -8.928 h 8.208 c 3.456,0 4.464,2.544 4.464,4.464 0,2.112 -1.2,4.464 -4.464,4.464 z"
         id="path16453"
         inkscape:connector-curvature="0" />
      <path
         d="m 67.750469,278.99414 h 6.144 v -15.648 c 0,-8.352 -5.616,-9.456 -10.032,-9.456 -4.224,0 -7.68,1.296 -10.032,2.88 l 1.92,5.04 c 2.304,-1.584 4.704,-2.448 7.584,-2.448 2.832,0 4.416,1.2 4.416,3.888 v 1.248 c -1.488,-0.72 -3.264,-1.152 -5.616,-1.152 -4.848,0 -9.744,2.448 -9.744,8.112 0,5.376 3.936,8.112 9.024,8.112 3.216,0 5.184,-1.2 6.336,-2.352 z m -5.136,-4.896 c -2.688,0 -4.128,-1.056 -4.128,-2.64 0,-2.016 2.112,-2.832 4.704,-2.832 1.68,0 3.264,0.288 4.56,0.816 v 2.64 c -1.2,1.104 -2.88,2.016 -5.136,2.016 z"
         id="path16455"
         inkscape:connector-curvature="0" />
      <path
         d="m 80.642969,278.99414 h 6.24 v -13.68 c 0,-4.224 2.064,-5.28 4.224,-5.28 1.92,0 3.312,0.624 4.464,1.44 l 0.864,-5.712 c -1.392,-1.152 -2.928,-1.872 -4.992,-1.872 -2.448,0 -3.84,1.2 -4.56,2.736 v -2.16 h -6.24 z"
         id="path16457"
         inkscape:connector-curvature="0" />
      <path
         d="m 109.02522,279.57014 c 2.448,0 4.128,-0.96 5.232,-2.352 v 11.376 l 6.24,-2.832 v -31.296 h -6.24 v 1.776 c -1.104,-1.536 -2.64,-2.352 -4.992,-2.352 -6.144,0 -10.416001,4.56 -10.416001,12.864 0,8.064 4.320001,12.816 10.176001,12.816 z m 0.96,-6 c -3.12,0 -4.896,-2.448 -4.896,-6.816 0,-4.128 1.68,-6.864 4.896,-6.864 2.064,0 3.36,0.768 4.272,1.968 v 9.696 c -0.624,1.008 -2.112,2.016 -4.272,2.016 z"
         id="path16459"
         inkscape:connector-curvature="0" />
      <path
         d="m 142.63347,278.99414 h 6.24 v -24.528 h -6.24 v 13.536 c 0,3.936 -1.68,5.568 -4.656,5.568 -2.928,0 -4.272,-1.728 -4.272,-5.664 v -13.44 h -6.24 v 15.456 c 0,7.296 4.416,9.648 8.592,9.648 2.832,0 5.088,-1.008 6.576,-2.88 z"
         id="path16461"
         inkscape:connector-curvature="0" />
      <path
         d="m 166.38372,279.57014 c 4.08,0 7.056,-1.632 9.12,-4.128 l -3.84,-3.888 c -1.392,1.776 -3.024,2.544 -5.28,2.544 -2.688,0 -5.088,-1.776 -5.328,-4.944 h 15.984 c 0.192,-1.344 0.192,-2.736 0.192,-3.696 0,-7.872 -4.8,-11.568 -10.848,-11.568 -7.008,0 -11.472,4.896 -11.472,12.816 0,8.064 4.368,12.864 11.472,12.864 z m -5.28,-15.696 c 0.384,-3.072 2.352,-4.512 5.28,-4.512 2.496,0 4.368,1.632 4.752,4.512 z"
         id="path16463"
         inkscape:connector-curvature="0" />
      <path
         d="m 190.03272,279.57014 c 2.064,0 3.84,-0.384 5.328,-1.104 l 0.72,-5.424 c -1.392,0.72 -2.736,1.056 -4.032,1.056 -1.104,0 -1.728,-0.72 -1.728,-1.92 v -12.24 h 5.472 v -5.472 h -5.472 v -10.128 l -6.24,2.976 v 7.152 h -3.504 v 5.472 h 3.504 v 13.152 c 0,4.08 1.728,6.48 5.952,6.48 z"
         id="path16465"
         inkscape:connector-curvature="0" />
    </g>
  </g>
</svg>
