<?xml version="1.0" encoding="UTF-8" standalone="no"?>
<!-- Created with Inkscape (http://www.inkscape.org/) -->

<svg
   xmlns:dc="http://purl.org/dc/elements/1.1/"
   xmlns:cc="http://creativecommons.org/ns#"
   xmlns:rdf="http://www.w3.org/1999/02/22-rdf-syntax-ns#"
   xmlns:svg="http://www.w3.org/2000/svg"
   xmlns="http://www.w3.org/2000/svg"
   xmlns:sodipodi="http://sodipodi.sourceforge.net/DTD/sodipodi-0.dtd"
   xmlns:inkscape="http://www.inkscape.org/namespaces/inkscape"
   width="103.64449mm"
   height="45.148621mm"
   viewBox="0 0 103.64449 45.148622"
   version="1.1"
   id="svg8"
   inkscape:version="0.92.2 (5c3e80d, 2017-08-06)"
   sodipodi:docname="example-count.svg">
  <defs
     id="defs2">
    <marker
       inkscape:stockid="Arrow2Mstart"
       orient="auto"
       refY="0"
       refX="0"
       id="Arrow2Mstart"
       style="overflow:visible"
       inkscape:isstock="true">
      <path
         id="path987"
         style="fill:#000000;fill-opacity:1;fill-rule:evenodd;stroke:#000000;stroke-width:0.625;stroke-linejoin:round;stroke-opacity:1"
         d="M 8.7185878,4.0337352 -2.2072895,0.01601326 8.7185884,-4.0017078 c -1.7454984,2.3720609 -1.7354408,5.6174519 -6e-7,8.035443 z"
         transform="scale(0.6)"
         inkscape:connector-curvature="0" />
    </marker>
    <marker
       inkscape:stockid="Arrow2Lstart"
       orient="auto"
       refY="0"
       refX="0"
       id="marker1467"
       style="overflow:visible"
       inkscape:isstock="true">
      <path
         id="path1465"
         style="fill:#000000;fill-opacity:1;fill-rule:evenodd;stroke:#000000;stroke-width:0.625;stroke-linejoin:round;stroke-opacity:1"
         d="M 8.7185878,4.0337352 -2.2072895,0.01601326 8.7185884,-4.0017078 c -1.7454984,2.3720609 -1.7354408,5.6174519 -6e-7,8.035443 z"
         transform="matrix(1.1,0,0,1.1,1.1,0)"
         inkscape:connector-curvature="0" />
    </marker>
    <marker
       inkscape:stockid="Arrow1Sstart"
       orient="auto"
       refY="0"
       refX="0"
       id="Arrow1Sstart"
       style="overflow:visible"
       inkscape:isstock="true">
      <path
         id="path975"
         d="M 0,0 5,-5 -12.5,0 5,5 Z"
         style="fill:#000000;fill-opacity:1;fill-rule:evenodd;stroke:#000000;stroke-width:1.00000003pt;stroke-opacity:1"
         transform="matrix(0.2,0,0,0.2,1.2,0)"
         inkscape:connector-curvature="0" />
    </marker>
    <marker
       inkscape:stockid="Arrow1Mstart"
       orient="auto"
       refY="0"
       refX="0"
       id="Arrow1Mstart"
       style="overflow:visible"
       inkscape:isstock="true">
      <path
         id="path969"
         d="M 0,0 5,-5 -12.5,0 5,5 Z"
         style="fill:#000000;fill-opacity:1;fill-rule:evenodd;stroke:#000000;stroke-width:1.00000003pt;stroke-opacity:1"
         transform="matrix(0.4,0,0,0.4,4,0)"
         inkscape:connector-curvature="0" />
    </marker>
    <marker
       inkscape:stockid="Arrow2Lstart"
       orient="auto"
       refY="0"
       refX="0"
       id="Arrow2Lstart"
       style="overflow:visible"
       inkscape:isstock="true">
      <path
         id="path981"
         style="fill:#000000;fill-opacity:1;fill-rule:evenodd;stroke:#000000;stroke-width:0.625;stroke-linejoin:round;stroke-opacity:1"
         d="M 8.7185878,4.0337352 -2.2072895,0.01601326 8.7185884,-4.0017078 c -1.7454984,2.3720609 -1.7354408,5.6174519 -6e-7,8.035443 z"
         transform="matrix(1.1,0,0,1.1,1.1,0)"
         inkscape:connector-curvature="0" />
    </marker>
    <marker
       inkscape:stockid="Arrow1Lstart"
       orient="auto"
       refY="0"
       refX="0"
       id="Arrow1Lstart"
       style="overflow:visible"
       inkscape:isstock="true">
      <path
         id="path963"
         d="M 0,0 5,-5 -12.5,0 5,5 Z"
         style="fill:#000000;fill-opacity:1;fill-rule:evenodd;stroke:#000000;stroke-width:1.00000003pt;stroke-opacity:1"
         transform="matrix(0.8,0,0,0.8,10,0)"
         inkscape:connector-curvature="0" />
    </marker>
  </defs>
  <sodipodi:namedview
     id="base"
     pagecolor="#ffffff"
     bordercolor="#666666"
     borderopacity="1.0"
     inkscape:pageopacity="0.0"
     inkscape:pageshadow="2"
     inkscape:zoom="1.4"
     inkscape:cx="440.92976"
     inkscape:cy="-35.18866"
     inkscape:document-units="mm"
     inkscape:current-layer="text2336"
     showgrid="false"
     inkscape:window-width="2552"
     inkscape:window-height="1400"
     inkscape:window-x="4"
     inkscape:window-y="4"
     inkscape:window-maximized="1"
     fit-margin-top="0"
     fit-margin-left="0"
     fit-margin-right="0"
     fit-margin-bottom="0"
     inkscape:lockguides="false" />
  <metadata
     id="metadata5">
    <rdf:RDF>
      <cc:Work
         rdf:about="">
        <dc:format>image/svg+xml</dc:format>
        <dc:type
           rdf:resource="http://purl.org/dc/dcmitype/StillImage" />
        <dc:title></dc:title>
      </cc:Work>
    </rdf:RDF>
  </metadata>
  <g
     inkscape:label="Layer 1"
     inkscape:groupmode="layer"
     id="layer1"
     transform="translate(-5.3635187,5.6588847)">
    <path
       style="fill:none;stroke:#000000;stroke-width:1.96500003;stroke-linecap:butt;stroke-linejoin:miter;stroke-miterlimit:4;stroke-dasharray:none;stroke-opacity:1;marker-start:url(#Arrow2Mstart)"
       d="M 8.3342807,7.9569075 H 30.682123"
       id="path961"
       inkscape:connector-curvature="0" />
    <rect
       style="opacity:1;fill:#f0ab00;fill-opacity:1;stroke:#f0ab00;stroke-width:0.45764446;stroke-miterlimit:4;stroke-dasharray:none;stroke-dashoffset:0;stroke-opacity:1"
       id="rect817-3"
       width="80.325836"
       height="26.811701"
       x="28.453344"
       y="-5.4300623" />
    <g
       aria-label="count()"
       style="font-style:normal;font-variant:normal;font-weight:900;font-stretch:normal;font-size:16.93333244px;line-height:1.25;font-family:Overpass;-inkscape-font-specification:'Overpass Heavy';letter-spacing:0px;word-spacing:0px;stroke-width:0.26458332"
       id="text2336">
      <g
         id="g3114"
         transform="translate(6.2916599,-16.88021)"
         style="fill:#ffffff">
        <path
           id="path3094"
           style="font-style:normal;font-variant:normal;font-weight:900;font-stretch:normal;font-size:16.93333244px;font-family:Overpass;-inkscape-font-specification:'Overpass Heavy';fill:#ffffff;stroke-width:0.26458332"
           d="m 43.927859,31.070531 c 1.964267,0 3.234267,-0.9652 3.81,-2.929467 l -2.353733,-0.677333 c -0.254,0.8128 -0.745067,1.253066 -1.456267,1.253066 -0.880533,0 -1.557866,-0.8636 -1.557866,-2.167466 0,-1.286933 0.677333,-2.1844 1.591733,-2.1844 0.677333,0 1.1684,0.4572 1.4224,1.1176 l 2.3368,-0.762 c -0.592667,-1.8796 -1.947333,-2.709333 -3.793067,-2.709333 -2.421466,0 -4.047066,1.744133 -4.047066,4.538133 0,2.8448 1.6256,4.5212 4.047066,4.5212 z"
           inkscape:connector-curvature="0" />
        <path
           id="path3096"
           style="font-style:normal;font-variant:normal;font-weight:900;font-stretch:normal;font-size:16.93333244px;font-family:Overpass;-inkscape-font-specification:'Overpass Heavy';fill:#ffffff;stroke-width:0.26458332"
           d="m 53.319773,31.070531 c 2.4384,0 3.979333,-1.6764 3.979333,-4.5212 0,-2.794 -1.540933,-4.538133 -3.979333,-4.538133 -2.455333,0 -4.0132,1.744133 -4.0132,4.538133 0,2.8448 1.557867,4.5212 4.0132,4.5212 z m 0,-2.370667 c -0.948267,0 -1.557867,-0.795867 -1.557867,-2.150533 0,-1.354667 0.6096,-2.167467 1.557867,-2.167467 0.9652,0 1.524,0.8128 1.524,2.167467 0,1.354666 -0.5588,2.150533 -1.524,2.150533 z"
           inkscape:connector-curvature="0" />
        <path
           id="path3098"
           style="font-style:normal;font-variant:normal;font-weight:900;font-stretch:normal;font-size:16.93333244px;font-family:Overpass;-inkscape-font-specification:'Overpass Heavy';fill:#ffffff;stroke-width:0.26458332"
           d="m 64.686537,30.867331 h 2.455333 v -8.652933 h -2.455333 v 4.538133 c 0,1.337733 -0.4572,1.947333 -1.507067,1.947333 -1.0668,0 -1.388533,-0.643467 -1.388533,-1.9812 v -4.504266 h -2.455333 v 5.621866 c 0,2.4892 1.693333,3.234267 2.980266,3.234267 1.032934,0 1.8796,-0.389467 2.370667,-0.999067 z"
           inkscape:connector-curvature="0" />
        <path
           id="path3100"
           style="font-style:normal;font-variant:normal;font-weight:900;font-stretch:normal;font-size:16.93333244px;font-family:Overpass;-inkscape-font-specification:'Overpass Heavy';fill:#ffffff;stroke-width:0.26458332"
           d="m 75.023807,30.867331 h 2.455333 v -5.621867 c 0,-2.523066 -1.6764,-3.234266 -2.9972,-3.234266 -1.049866,0 -1.8288,0.372533 -2.353733,0.999066 v -0.795866 h -2.455333 v 8.652933 h 2.455333 v -4.538134 c 0,-1.303866 0.440267,-1.947333 1.524,-1.947333 1.016,0 1.3716,0.6096 1.3716,1.9812 z"
           inkscape:connector-curvature="0" />
        <path
           id="path3102"
           style="font-style:normal;font-variant:normal;font-weight:900;font-stretch:normal;font-size:16.93333244px;font-family:Overpass;-inkscape-font-specification:'Overpass Heavy';fill:#ffffff;stroke-width:0.26458332"
           d="m 82.533213,31.070531 c 0.762,0 1.405466,-0.118534 1.964266,-0.389467 l 0.270933,-2.065867 c -0.524933,0.237067 -1.016,0.338667 -1.490133,0.338667 -0.237066,0 -0.491066,-0.1524 -0.491066,-0.491067 v -4.097866 h 1.879599 v -2.150533 h -1.879599 v -3.572933 l -2.4384,1.168399 v 2.404534 h -1.185334 v 2.150533 h 1.185334 v 4.334933 c 0,1.524 0.643466,2.370667 2.1844,2.370667 z"
           inkscape:connector-curvature="0" />
      </g>
    </g>
  </g>
</svg>
