<?xml version="1.0" encoding="UTF-8" standalone="no"?>
<!-- Created with Inkscape (http://www.inkscape.org/) -->

<svg
   xmlns:dc="http://purl.org/dc/elements/1.1/"
   xmlns:cc="http://creativecommons.org/ns#"
   xmlns:rdf="http://www.w3.org/1999/02/22-rdf-syntax-ns#"
   xmlns:svg="http://www.w3.org/2000/svg"
   xmlns="http://www.w3.org/2000/svg"
   xmlns:sodipodi="http://sodipodi.sourceforge.net/DTD/sodipodi-0.dtd"
   xmlns:inkscape="http://www.inkscape.org/namespaces/inkscape"
   width="134.23006mm"
   height="45.148621mm"
   viewBox="0 0 134.23006 45.14862"
   version="1.1"
   id="svg8"
   inkscape:version="0.92.2 (5c3e80d, 2017-08-06)"
   sodipodi:docname="example-array.svg">
  <defs
     id="defs2" />
  <sodipodi:namedview
     id="base"
     pagecolor="#ffffff"
     bordercolor="#666666"
     borderopacity="1.0"
     inkscape:pageopacity="0.0"
     inkscape:pageshadow="2"
     inkscape:zoom="0.7"
     inkscape:cx="-29.277635"
     inkscape:cy="-19.898506"
     inkscape:document-units="mm"
     inkscape:current-layer="layer1"
     showgrid="false"
     inkscape:window-width="2552"
     inkscape:window-height="1400"
     inkscape:window-x="4"
     inkscape:window-y="4"
     inkscape:window-maximized="1"
     fit-margin-top="0"
     fit-margin-left="0"
     fit-margin-right="0"
     fit-margin-bottom="0" />
  <metadata
     id="metadata5">
    <rdf:RDF>
      <cc:Work
         rdf:about="">
        <dc:format>image/svg+xml</dc:format>
        <dc:type
           rdf:resource="http://purl.org/dc/dcmitype/StillImage" />
        <dc:title></dc:title>
      </cc:Work>
    </rdf:RDF>
  </metadata>
  <g
     inkscape:label="Layer 1"
     inkscape:groupmode="layer"
     id="layer1"
     transform="translate(-5.3635187,5.6588847)">
    <rect
       style="opacity:1;fill:none;fill-opacity:1;stroke:#000000;stroke-width:0.45764446;stroke-miterlimit:4;stroke-dasharray:none;stroke-dashoffset:0;stroke-opacity:1"
       id="rect817"
       width="26.811699"
       height="26.811699"
       x="5.5923409"
       y="-5.4300623" />
    <rect
       style="opacity:1;fill:none;fill-opacity:1;stroke:#000000;stroke-width:0.45764446;stroke-miterlimit:4;stroke-dasharray:none;stroke-dashoffset:0;stroke-opacity:1"
       id="rect817-3"
       width="26.811701"
       height="26.811701"
       x="112.55305"
       y="-5.4300623" />
    <rect
       style="opacity:1;fill:none;fill-opacity:1;stroke:#000000;stroke-width:0.45764446;stroke-miterlimit:4;stroke-dasharray:none;stroke-dashoffset:0;stroke-opacity:1"
       id="rect817-6"
       width="26.811701"
       height="26.811701"
       x="32.332516"
       y="-5.4300623" />
    <rect
       style="opacity:1;fill:none;fill-opacity:1;stroke:#000000;stroke-width:0.45764446;stroke-miterlimit:4;stroke-dasharray:none;stroke-dashoffset:0;stroke-opacity:1"
       id="rect817-7"
       width="26.811701"
       height="26.811701"
       x="59.072693"
       y="-5.4300623" />
    <rect
       style="opacity:1;fill:none;fill-opacity:1;stroke:#000000;stroke-width:0.45764446;stroke-miterlimit:4;stroke-dasharray:none;stroke-dashoffset:0;stroke-opacity:1"
       id="rect817-5"
       width="26.811701"
       height="26.811701"
       x="85.812874"
       y="-5.4300623" />
    <g
       aria-label="1"
       style="font-style:normal;font-variant:normal;font-weight:900;font-stretch:normal;font-size:16.93333244px;line-height:1.25;font-family:Overpass;-inkscape-font-specification:'Overpass Heavy';letter-spacing:0px;word-spacing:0px;stroke-width:0.26458332"
       id="text860"
       transform="translate(0,-17.879277)">
      <path
         d="M 18.583323,31.68013 H 21.15719 V 19.826797 h -2.099733 c -0.3048,0.931334 -1.083734,1.2192 -2.218267,1.2192 v 2.099733 h 1.744133 z"
         style="font-style:normal;font-variant:normal;font-weight:900;font-stretch:normal;font-size:16.93333244px;font-family:Overpass;-inkscape-font-specification:'Overpass Heavy';stroke-width:0.26458332"
         id="path2206"
         inkscape:connector-curvature="0" />
    </g>
    <g
       aria-label="2"
       style="font-style:normal;font-variant:normal;font-weight:900;font-stretch:normal;font-size:16.93333244px;line-height:1.25;font-family:Overpass;-inkscape-font-specification:'Overpass Heavy';letter-spacing:0px;word-spacing:0px;stroke-width:0.26458332"
       id="text860-6"
       transform="translate(0,-17.879277)">
      <path
         d="m 41.623567,31.68013 h 8.229599 V 29.207863 H 44.6377 c 0.389466,-0.880533 1.016,-1.371599 2.607733,-2.319866 1.456267,-0.846667 2.506133,-1.710267 2.506133,-3.7592 0,-1.9304 -1.405466,-3.5052 -3.877733,-3.5052 -1.710266,0 -3.335866,0.9652 -4.064,2.5908 l 2.302934,1.032933 c 0.389466,-0.745066 1.015999,-1.185333 1.845733,-1.185333 0.778933,0 1.253066,0.3556 1.253066,1.1684 0,0.8128 -0.745066,1.286933 -1.524,1.710267 -2.302933,1.27 -4.063999,3.0988 -4.063999,6.739466 z"
         style="font-style:normal;font-variant:normal;font-weight:900;font-stretch:normal;font-size:16.93333244px;font-family:Overpass;-inkscape-font-specification:'Overpass Heavy';stroke-width:0.26458332"
         id="path2203"
         inkscape:connector-curvature="0" />
    </g>
    <g
       aria-label="3"
       style="font-style:normal;font-variant:normal;font-weight:900;font-stretch:normal;font-size:16.93333244px;line-height:1.25;font-family:Overpass;-inkscape-font-specification:'Overpass Heavy';letter-spacing:0px;word-spacing:0px;stroke-width:0.26458332"
       id="text860-9"
       transform="translate(0,-17.879277)">
      <path
         d="m 72.614008,31.88333 c 2.404533,0 4.030133,-1.439333 4.030133,-3.369733 0,-1.524 -0.846667,-2.506133 -1.761067,-2.861733 0.795867,-0.524934 1.388534,-1.4224 1.388534,-2.624667 0,-2.015066 -1.507067,-3.4036 -3.742267,-3.4036 -1.778,0 -3.0988,0.999067 -3.843866,2.472267 l 2.302933,0.897466 c 0.3556,-0.575733 0.846667,-0.931333 1.507067,-0.931333 0.795866,0 1.236133,0.541867 1.236133,1.185333 0,0.8128 -0.474133,1.253067 -1.202267,1.253067 h -1.286933 v 2.472267 h 1.286933 c 1.100667,0 1.5748,0.6096 1.5748,1.185333 0,0.8128 -0.592667,1.286933 -1.490133,1.286933 -0.795867,0 -1.456267,-0.3556 -1.998133,-1.303866 l -2.302934,0.931333 c 0.677334,1.7272 2.218267,2.810933 4.301067,2.810933 z"
         style="font-style:normal;font-variant:normal;font-weight:900;font-stretch:normal;font-size:16.93333244px;font-family:Overpass;-inkscape-font-specification:'Overpass Heavy';stroke-width:0.26458332"
         id="path2200"
         inkscape:connector-curvature="0" />
    </g>
    <g
       aria-label="4"
       style="font-style:normal;font-variant:normal;font-weight:900;font-stretch:normal;font-size:16.93333244px;line-height:1.25;font-family:Overpass;-inkscape-font-specification:'Overpass Heavy';letter-spacing:0px;word-spacing:0px;stroke-width:0.26458332"
       id="text860-2"
       transform="translate(0,-17.879277)">
      <path
         d="m 100.32786,31.68013 h 2.4892 v -2.201333 h 1.38853 v -2.3876 h -1.38853 v -7.2644 h -2.52307 l -6.06213,8.0264 v 1.6256 h 6.096 z m 0,-4.588933 h -2.760134 l 2.760134,-3.7592 z"
         style="font-style:normal;font-variant:normal;font-weight:900;font-stretch:normal;font-size:16.93333244px;font-family:Overpass;-inkscape-font-specification:'Overpass Heavy';stroke-width:0.26458332"
         id="path2197"
         inkscape:connector-curvature="0" />
    </g>
    <g
       aria-label="5"
       style="font-style:normal;font-variant:normal;font-weight:900;font-stretch:normal;font-size:16.93333244px;line-height:1.25;font-family:Overpass;-inkscape-font-specification:'Overpass Heavy';letter-spacing:0px;word-spacing:0px;stroke-width:0.26458332"
       id="text860-0"
       transform="translate(0,-17.879277)">
      <path
         d="m 125.5271,31.88333 c 2.60773,0 4.572,-1.5748 4.572,-4.182533 0,-2.218267 -1.33774,-3.979333 -3.92854,-3.979333 -0.54186,0 -0.9652,0.1016 -1.45626,0.254 l 0.0677,-1.6764 h 4.572 v -2.472267 h -6.94267 l -0.254,6.011333 2.2352,1.1684 c 0.47414,-0.541866 0.94827,-0.846666 1.76107,-0.846666 0.93133,0 1.38853,0.626533 1.38853,1.507066 0,1.1684 -0.8128,1.778 -2.01506,1.778 -0.99907,0 -1.778,-0.372533 -2.37067,-0.745067 l -1.33773,2.015067 c 0.74506,0.575733 1.9812,1.1684 3.7084,1.1684 z"
         style="font-style:normal;font-variant:normal;font-weight:900;font-stretch:normal;font-size:16.93333244px;font-family:Overpass;-inkscape-font-specification:'Overpass Heavy';stroke-width:0.26458332"
         id="path2194"
         inkscape:connector-curvature="0" />
    </g>
  </g>
</svg>
