<?xml version="1.0" encoding="UTF-8" standalone="no"?>
<!-- Created with Inkscape (http://www.inkscape.org/) -->

<svg
   xmlns:dc="http://purl.org/dc/elements/1.1/"
   xmlns:cc="http://creativecommons.org/ns#"
   xmlns:rdf="http://www.w3.org/1999/02/22-rdf-syntax-ns#"
   xmlns:svg="http://www.w3.org/2000/svg"
   xmlns="http://www.w3.org/2000/svg"
   xmlns:sodipodi="http://sodipodi.sourceforge.net/DTD/sodipodi-0.dtd"
   xmlns:inkscape="http://www.inkscape.org/namespaces/inkscape"
   width="795.97021"
   height="483.76291"
   viewBox="0 0 210.60045 127.9956"
   version="1.1"
   id="svg12105"
   inkscape:version="0.92+devel unknown"
   sodipodi:docname="idea-to-product.svg">
  <defs
     id="defs12099" />
  <sodipodi:namedview
     id="base"
     pagecolor="#ffffff"
     bordercolor="#666666"
     borderopacity="1.0"
     inkscape:pageopacity="0.0"
     inkscape:pageshadow="2"
     inkscape:zoom="1.4"
     inkscape:cx="316.26272"
     inkscape:cy="109.34308"
     inkscape:document-units="mm"
     inkscape:current-layer="layer1"
     inkscape:document-rotation="0"
     showgrid="false"
     fit-margin-top="5"
     fit-margin-left="5"
     fit-margin-right="5"
     fit-margin-bottom="5"
     units="px"
     inkscape:window-width="2556"
     inkscape:window-height="1404"
     inkscape:window-x="2"
     inkscape:window-y="2"
     inkscape:window-maximized="1" />
  <metadata
     id="metadata12102">
    <rdf:RDF>
      <cc:Work
         rdf:about="">
        <dc:format>image/svg+xml</dc:format>
        <dc:type
           rdf:resource="http://purl.org/dc/dcmitype/StillImage" />
        <dc:title></dc:title>
      </cc:Work>
    </rdf:RDF>
  </metadata>
  <g
     inkscape:label="Layer 1"
     inkscape:groupmode="layer"
     id="layer1"
     transform="translate(-25.599749,-2.1891672)">
    <g
       id="g12903"
       transform="matrix(0.65599184,0,0,0.65599184,-1.1537847,29.602969)">
      <g
         id="g12857">
        <g
           id="g12855">
          <linearGradient
             y2="103.4595"
             x2="99.6371"
             y1="48.208099"
             x1="44.385601"
             gradientUnits="userSpaceOnUse"
             id="SVGID_1_">
            <stop
               id="stop12846"
               style="stop-color:#E6E6E6"
               offset="0" />
            <stop
               id="stop12848"
               style="stop-color:#F7F7F7"
               offset="0.5" />
            <stop
               id="stop12850"
               style="stop-color:#C4C4C4"
               offset="1" />
          </linearGradient>
          <path
             id="path12853"
             d="m 72,54.5 c 7.7,0 14,-6.3 14,-14 0,-7.7 -6.3,-14 -14,-14 -7.7,0 -14,6.3 -14,14 0,7.7 6.3,14 14,14 z m 29,35.2 h -0.2 L 100,79.2 c -0.8,-7.7 -2.2,-22 -21.3,-22 H 65.3 c -19.5,0 -20.7,14.3 -21.3,22 l -1,12.4 v 0.1 c 0,7 4.1,10.6 8.7,14 l 1.2,0.8 -0.3,4.9 0.8,0.6 c 1.8,1.5 6.6,4.1 18.8,4.1 11.8,0 16.7,-2.4 18.6,-3.9 l 0.8,-0.7 -0.3,-5 1.2,-0.9 c 4.8,-3.5 8.7,-7 8.7,-14.1 z"
             fill="url(#SVGID_1_)"
             inkscape:connector-curvature="0"
             style="fill:url(#SVGID_1_)" />
        </g>
      </g>
      <g
         id="g12877">
        <path
           id="path12859"
           d="m 72,116.2 c -12.2,0 -17,-2.6 -18.8,-4.1 l -0.8,-0.6 0.3,-4.9 -1.2,-0.8 c -4.6,-3.3 -8.7,-6.9 -8.7,-14 v -0.1 l 1,-12.4 c 0.6,-7.7 1.8,-22 21.3,-22 h 13.5 c 19.2,0 20.6,14.3 21.3,22 l 0.8,10.5 h 0.2 v 2 c 0,7.1 -4,10.5 -8.7,14.1 l -1.2,0.9 0.3,5 -0.8,0.7 c -1.8,1.3 -6.7,3.7 -18.5,3.7 z m 0,-61.7 c -7.7,0 -14,-6.3 -14,-14 0,-7.7 6.3,-14 14,-14 7.7,0 14,6.3 14,14 0,7.7 -6.3,14 -14,14 z M 60,40.4 c 0,6.6 5.4,12 12,12 6.6,0 12,-5.4 12,-12 0,-6.6 -5.4,-12 -12,-12 -6.6,0 -12,5.4 -12,12 z M 99,91.7 98,79.3 C 97.1,70.6 95.3,59.1 78.7,59.1 H 65.3 C 48.6,59.1 46.7,70 46,79.3 l -1,12.4 c 0,5.9 3.2,8.9 7.8,12.4 l 1.9,-26.7 c 0,-0.5 0.4,-0.9 0.9,-0.9 0.5,0 0.9,0.4 0.9,0.9 l -1.9,33 c 0,0.1 0,0.2 0,0.2 1.3,1.1 5.6,3.6 17.5,3.6 11.5,0 15.9,-2.3 17.3,-3.5 L 87.5,77.4 c 0,-0.5 0.4,-0.9 0.9,-0.9 0.5,0 0.9,0.4 0.9,0.9 l 1.9,26.8 C 95.8,100.7 99,97.7 99,91.7 Z"
           fill="#010101"
           inkscape:connector-curvature="0" />
        <g
           id="g12875">
          <circle
             id="circle12861"
             r="1.4"
             cy="71.800003"
             cx="71.900002"
             fill="#010101" />
          <circle
             id="circle12863"
             r="1.4"
             cy="70.5"
             cx="67.300003"
             fill="#010101" />
          <circle
             id="circle12865"
             r="1.4"
             cy="70.5"
             cx="76.300003"
             fill="#010101" />
          <circle
             id="circle12867"
             r="1.4"
             cy="67"
             cx="79"
             fill="#010101" />
          <circle
             id="circle12869"
             r="1.4"
             cy="63"
             cx="80.800003"
             fill="#010101" />
          <circle
             id="circle12871"
             r="1.4"
             cy="67"
             cx="64.599998"
             fill="#010101" />
          <circle
             id="circle12873"
             r="1.4"
             cy="63"
             cx="63.200001"
             fill="#010101" />
        </g>
      </g>
    </g>
    <path
       d="m 64.091713,49.907369 h 3.079798 c 12.204439,0 15.856857,-5.217269 16.86553,-7.499753 h 52.824819 c 3.15973,0 5.72936,-1.893697 5.72936,-4.221181 V 7.7375032 c 0,-2.3306581 -2.57106,-4.2254194 -5.72936,-4.2254194 H 50.525439 c -3.15978,0 -5.732331,1.8947613 -5.732331,4.2254194 V 38.186435 c 0,2.328565 2.574035,4.221181 5.732331,4.221181 h 15.035667 c 0.905511,0.425205 1.45632,0.952204 1.670006,1.605553 0.585693,1.791939 -1.388036,3.995165 -1.409844,4.017648 z M 136.86186,5.9134706 c 1.36183,0 2.47224,0.8183173 2.47224,1.8240326 V 38.186435 c 0,1.004704 -1.11183,1.821958 -2.47224,1.821958 H 81.351108 l -0.18458,1.046408 c -0.04395,0.236831 -1.200499,5.538606 -11.29893,6.349423 0.56251,-1.107508 0.992687,-2.544918 0.53065,-3.95231 -0.460886,-1.406328 -1.677258,-2.515999 -3.616106,-3.295716 L 66.41574,40.009563 H 50.52543 c -1.363317,0 -2.473725,-0.8183 -2.473725,-1.82194 V 7.737645 c 0,-1.005733 1.110408,-1.8240503 2.473725,-1.8240503 z"
       id="path13008"
       inkscape:connector-curvature="0"
       style="fill:#000000;fill-opacity:1;stroke:none;stroke-width:1.24769723;stroke-opacity:1" />
    <path
       d="m 62.92421,12.894168 c -5.591767,0 -10.141435,4.549381 -10.141708,10.140879 0,5.592313 4.549666,10.141978 10.141708,10.141978 h 0.0011 c 5.591219,0 10.140065,-4.549381 10.140065,-10.141411 0,-5.592331 -4.549394,-10.141446 -10.141161,-10.141446 z m 7.987887,4.837172 c -0.771299,0.74335 -1.458448,1.580977 -2.048845,2.49536 -0.05098,-0.01241 -0.10307,-0.01986 -0.157327,-0.01986 -0.109913,0 -0.212423,0.02819 -0.304517,0.07482 -0.510635,-0.709893 -0.926982,-1.43897 -1.237805,-2.160672 0.184182,-0.123052 0.305341,-0.332738 0.305341,-0.570102 0,-0.06472 -0.01206,-0.126421 -0.02878,-0.185909 0.693456,-0.488983 1.286044,-1.017701 1.763513,-1.572732 0.652342,0.566538 1.228212,1.218061 1.708422,1.939195 z m -12.586616,2.774658 c 0.526532,-0.05213 1.057723,-0.127663 1.590835,-0.220928 0.114294,0.219545 0.340969,0.371959 0.604375,0.372225 0,0 2.73e-4,0 5.47e-4,0 0.09346,0 0.18254,-0.0195 0.263952,-0.05284 0.678379,0.974953 1.480923,1.88274 2.397764,2.688309 0.956856,0.84064 1.998136,1.543671 3.092315,2.100635 -0.01294,0.05248 -0.02165,0.106917 -0.02165,0.163479 2.75e-4,0.264758 0.153479,0.492547 0.373316,0.606291 -0.120322,0.794309 -0.17926,1.589452 -0.168284,2.378585 -0.131582,0.03121 -0.250248,0.09309 -0.352209,0.17589 -1.021271,-0.729361 -2.133813,-1.343879 -3.311589,-1.816426 -1.415142,-0.567354 -2.876058,-0.922025 -4.346017,-1.066195 -0.08936,-0.384017 -0.427859,-0.671541 -0.837078,-0.685797 -0.108549,-0.689059 -0.166103,-1.395405 -0.166103,-2.113525 0,-0.593418 0.04275,-1.177776 0.117591,-1.751744 0.400723,-0.0539 0.715106,-0.374122 0.762251,-0.777873 z m -0.442112,-0.871617 c 0.252439,-0.959047 0.607389,-1.8718 1.061561,-2.714054 0.282863,0.872982 0.659742,1.725946 1.122136,2.542756 -0.11924,0.106563 -0.199538,0.25325 -0.221741,0.419354 -0.525984,0.09185 -1.048954,0.16206 -1.56836,0.213232 -0.07291,-0.196246 -0.213244,-0.358236 -0.393596,-0.461288 z m 8.996001,5.242589 c -0.198172,0.01773 -0.371396,0.117733 -0.485145,0.267772 -1.071977,-0.545722 -2.092973,-1.233965 -3.030644,-2.058169 -0.899298,-0.79048 -1.687042,-1.680731 -2.35254,-2.636499 0.108549,-0.111527 0.177078,-0.260095 0.190214,-0.424833 1.917827,-0.452262 3.67531,-1.129548 5.133758,-1.961128 0.120056,0.105322 0.275462,0.171813 0.446773,0.172522 h 0.0013 c 0.04468,0 0.08826,-0.0053 0.131031,-0.01419 0.319593,0.745816 0.747725,1.497093 1.272615,2.227004 -0.10197,0.119506 -0.165553,0.272737 -0.165553,0.44212 5.48e-4,0.177894 0.07099,0.339317 0.183634,0.461571 -0.407303,0.774026 -0.754304,1.588921 -1.026477,2.43887 -0.115109,0.359885 -0.211328,0.721684 -0.299037,1.084033 z M 66.648034,14.194731 c 0.809396,0.342331 1.560685,0.794309 2.239341,1.334553 -0.449787,0.520509 -1.016065,1.020999 -1.680739,1.487801 -0.116775,-0.09256 -0.262582,-0.150535 -0.423199,-0.150713 -0.01855,0 -0.03646,0.0035 -0.05481,0.0053 -0.252988,-0.969473 -0.28862,-1.886303 -0.08059,-2.677333 z M 62.92421,13.442355 c 1.223001,0 2.391734,0.232417 3.468097,0.651505 -0.228319,0.842857 -0.192148,1.821355 0.07812,2.851681 -0.219822,0.114541 -0.37167,0.341497 -0.37167,0.606539 2.75e-4,0.05231 0.0074,0.103017 0.01894,0.152309 -1.429942,0.812395 -3.155355,1.480637 -5.009321,1.920276 -0.119773,-0.200076 -0.336586,-0.336586 -0.587379,-0.337686 -0.07619,0 -0.148568,0.01596 -0.217355,0.03865 -0.494191,-0.873532 -0.890803,-1.787649 -1.174491,-2.724746 0.701131,-1.207121 1.603992,-2.259628 2.679259,-3.091509 0.366188,-0.04273 0.738131,-0.0672 1.115831,-0.0672 z m -1.908783,0.19098 c -0.785,0.69702 -1.470508,1.511347 -2.039252,2.419419 -0.136226,-0.535031 -0.232975,-1.076107 -0.294374,-1.618532 0.730457,-0.362083 1.512992,-0.634518 2.333626,-0.800887 z m -2.593742,0.9341 c 0.07456,0.608489 0.195978,1.213699 0.361255,1.811497 -0.561341,0.963427 -0.998245,2.019498 -1.293992,3.139719 -0.01578,-10e-4 -0.03043,-0.0053 -0.04631,-0.0053 -0.416346,0 -0.76417,0.289457 -0.860103,0.677853 -0.968917,0.01241 -1.89645,-0.05355 -2.755729,-0.196246 0.784728,-2.339949 2.44628,-4.280509 4.594893,-5.427877 z m -5.090998,8.467559 c 0,-0.916582 0.131847,-1.801887 0.37304,-2.641978 0.83105,0.141316 1.722949,0.215431 2.655686,0.215431 0.07179,0 0.146085,-0.0053 0.218452,-0.0053 0.06906,0.299315 0.289716,0.539143 0.575868,0.639731 -0.07592,0.587922 -0.119506,1.186287 -0.119506,1.793394 0,0.745815 0.06002,1.479556 0.174046,2.195211 -0.22229,0.103726 -0.392227,0.296568 -0.468974,0.532832 -0.974948,0.01418 -1.947156,0.122521 -2.906753,0.326444 C 53.508843,25.130328 53.33068,24.103602 53.33068,23.03574 Z m 0.642474,3.445347 c 0.902589,-0.187646 1.816414,-0.289173 2.733253,-0.305078 0.0677,0.425134 0.433342,0.75211 0.875177,0.75211 h 0.0027 c 0.0035,0 0.0066,-10e-4 0.01028,-10e-4 0.643023,2.174094 1.82135,4.091108 3.421229,5.511443 -3.232377,-0.655353 -5.877647,-2.940726 -7.042815,-5.957411 z m 8.952145,6.148444 h -0.0011 c -0.377426,0 -0.749096,-0.02447 -1.115284,-0.06702 -1.804901,-1.395973 -3.125755,-3.414123 -3.816195,-5.738966 0.223387,-0.117024 0.391132,-0.324245 0.452802,-0.575315 1.418979,0.142734 2.828913,0.486501 4.196087,1.034688 1.142146,0.458291 2.221248,1.053092 3.212369,1.758854 -0.05044,0.111527 -0.08004,0.234367 -0.08004,0.364831 2.73e-4,0.4665 0.362899,0.846669 0.82036,0.883673 0.07046,0.49831 0.168018,0.991673 0.293278,1.478741 -1.208748,0.550918 -2.549884,0.860375 -3.962285,0.860375 z m 4.339711,-1.042383 c -0.111563,-0.447032 -0.199811,-0.89956 -0.263951,-1.35677 0.07043,-0.02872 0.134861,-0.06826 0.195155,-0.1133 0.336586,0.302596 0.655629,0.622444 0.961243,0.953267 -0.287248,0.187469 -0.58519,0.359902 -0.892447,0.516679 z m 1.235336,-0.751826 c -0.330008,-0.359885 -0.675638,-0.706896 -1.041003,-1.034989 0.05949,-0.119507 0.09621,-0.252152 0.09621,-0.394673 0,-0.418556 -0.293005,-0.76938 -0.685506,-0.862857 -0.01135,-0.765816 0.04578,-1.537909 0.162539,-2.309771 0.194608,-0.02677 0.363722,-0.133159 0.470618,-0.288358 1.360048,0.538062 2.780396,0.857644 4.209518,0.931919 -0.698389,1.59112 -1.815865,2.956914 -3.212368,3.958729 z m 3.324471,-4.227884 c -1.430488,-0.06241 -2.853031,-0.376055 -4.214724,-0.914366 0.0089,-0.0438 0.01365,-0.08972 0.01365,-0.136528 0,-0.251637 -0.138975,-0.470082 -0.34289,-0.588773 0.08468,-0.35054 0.177327,-0.70085 0.288894,-1.048659 0.263128,-0.821722 0.598344,-1.609205 0.991119,-2.357751 0.04631,0.0089 0.09429,0.01596 0.14362,0.01773 h 0.0013 c 0.114559,0 0.220918,-0.03103 0.315754,-0.08085 0.232431,0.26396 0.473359,0.524055 0.730732,0.775692 0.831323,0.812129 1.732266,1.493528 2.677063,2.040598 -0.106899,0.799824 -0.31219,1.568636 -0.604649,2.293902 z m -1.880548,-4.530498 c -0.249974,-0.244208 -0.484324,-0.496625 -0.710175,-0.752624 0.09702,-0.118265 0.15761,-0.267524 0.15761,-0.431978 0,-0.173941 -0.0677,-0.331657 -0.175678,-0.452529 0.556134,-0.860091 1.20135,-1.648957 1.922486,-2.352839 0.874357,1.445867 1.378414,3.140021 1.378414,4.949585 0,0.330824 -0.01702,0.657835 -0.04989,0.980165 -0.88806,-0.525987 -1.736926,-1.172847 -2.52275,-1.93978 z"
       id="path13341"
       inkscape:connector-curvature="0"
       style="stroke-width:0.27409279" />
    <g
       id="g13837"
       transform="matrix(1.1738123,0,0,1.1738123,18.979079,-152.22138)">
      <g
         transform="matrix(0.26458333,0,0,0.26458333,35.113989,118.85398)"
         id="g13814">
        <path
           inkscape:connector-curvature="0"
           id="path13808"
           d="M 140.97,82.105 H 75.031 c -2.14,0 -3.881,1.741 -3.881,3.88 v 44.03 c 0,2.139 1.741,3.879 3.881,3.879 h 27.594 v 13.188 c 0,0.553 0.447,1 1,1 0.553,0 1,-0.447 1,-1 v -13.188 h 6.75 v 8.439 c 0,0.553 0.448,1 1,1 0.553,0 1,-0.447 1,-1 v -8.439 h 27.595 c 2.14,0 3.88,-1.74 3.88,-3.879 v -44.03 c 0,-2.139 -1.741,-3.88 -3.88,-3.88 m 1.88,47.911 c 0,1.035 -0.844,1.879 -1.88,1.879 H 75.031 c -1.037,0 -1.881,-0.844 -1.881,-1.879 v -44.03 c 0,-1.037 0.844,-1.88 1.881,-1.88 h 65.938 c 1.036,0 1.88,0.843 1.88,1.88 v 44.03 z" />
        <path
           inkscape:connector-curvature="0"
           id="path13810"
           d="m 137.845,87.359 h -60.69 c -0.414,0 -0.75,0.335 -0.75,0.75 v 39.781 c 0,0.414 0.336,0.75 0.75,0.75 h 60.69 c 0.414,0 0.75,-0.336 0.75,-0.75 V 88.109 c 0,-0.415 -0.336,-0.75 -0.75,-0.75 m -0.75,22.729 h -3.769 c 0.307,0.396 0.623,0.881 0.89,1.457 0.007,0.014 0.011,0.029 0.017,0.043 h 2.862 v 15.553 H 77.905 V 111.59 h 10.56 c 0.247,0 0.479,-0.121 0.618,-0.326 l 1.416,-2.064 2.298,7.053 c 0.102,0.316 0.391,0.51 0.73,0.518 0.331,-0.008 0.618,-0.232 0.706,-0.551 l 4.781,-17.387 5.315,23.592 c 0.077,0.344 0.382,0.586 0.731,0.586 h 0.02 c 0.359,-0.01 0.66,-0.271 0.72,-0.625 l 1.855,-10.895 0.443,0.951 c 0.129,0.273 0.405,0.459 0.711,0.432 0.303,-0.014 0.567,-0.205 0.672,-0.49 l 1.7,-4.596 1.278,3.322 c 0.112,0.287 0.39,0.479 0.7,0.479 h 2.327 c 0.011,-0.023 0.018,-0.049 0.028,-0.074 0.256,-0.562 0.562,-1.037 0.864,-1.426 h -2.705 l -1.807,-4.693 c -0.111,-0.293 -0.371,-0.451 -0.705,-0.48 -0.312,0.002 -0.589,0.195 -0.698,0.488 l -1.767,4.777 -0.701,-1.496 c -0.14,-0.297 -0.447,-0.475 -0.78,-0.426 -0.324,0.043 -0.584,0.293 -0.639,0.617 l -1.62,9.518 -5.14,-22.816 c -0.076,-0.336 -0.371,-0.576 -0.715,-0.585 -0.353,-0.011 -0.649,0.22 -0.74,0.552 l -4.915,17.869 -1.997,-6.123 c -0.087,-0.271 -0.322,-0.471 -0.605,-0.51 -0.279,-0.037 -0.564,0.082 -0.725,0.318 l -2.053,2.992 H 77.904 v -21.23 h 59.19 v 21.227 z" />
        <path
           inkscape:connector-curvature="0"
           id="path13812"
           d="m 122.801,122.127 0.765,0.65 c 0.288,0.246 0.408,0.35 0.774,0.652 0.164,0.135 0.37,0.207 0.581,0.207 0.21,0 0.416,-0.072 0.586,-0.211 4.835,-4.006 5.959,-5.793 6.181,-6.221 1.28,-1.986 0.972,-3.664 0.484,-4.721 -0.489,-1.062 -1.249,-1.699 -1.422,-1.834 -0.874,-0.637 -1.784,-0.961 -2.704,-0.961 -1.418,0 -2.514,0.752 -3.192,1.398 -0.681,-0.646 -1.776,-1.398 -3.194,-1.398 -0.92,0 -1.831,0.324 -2.718,0.971 -0.089,0.068 -0.879,0.688 -1.383,1.787 -0.479,1.047 -0.786,2.727 0.451,4.74 0.13,0.246 0.974,1.628 4.791,4.941 m -3.879,-9.055 c 0.353,-0.77 0.914,-1.207 0.913,-1.207 0.614,-0.449 1.229,-0.676 1.824,-0.676 1.336,0 2.332,1.127 2.605,1.471 0.285,0.359 0.891,0.359 1.177,0 0.273,-0.344 1.269,-1.471 2.605,-1.471 0.596,0 1.209,0.227 1.799,0.656 0.024,0.019 0.604,0.484 0.964,1.266 0.483,1.049 0.349,2.162 -0.401,3.311 -0.019,0.029 -0.036,0.061 -0.049,0.09 -0.009,0.016 -0.771,1.539 -5.438,5.449 -0.122,-0.102 -0.227,-0.193 -0.384,-0.326 l -0.759,-0.645 c -3.715,-3.227 -4.44,-4.498 -4.467,-4.549 -0.735,-1.195 -0.866,-2.33 -0.389,-3.369" />
      </g>
    </g>
    <path
       inkscape:connector-curvature="0"
       id="path14065"
       d="m 132.32703,31.295349 v -4.922262 l -0.22374,-0.149117 c -0.0373,-0.03724 -0.48477,-0.298323 -1.23057,-0.596645 v -1.491596 l -0.14917,-0.07465 c -0.0373,0 -0.18645,-0.111882 -0.52206,-0.261035 v -0.633933 h 0.48477 V 21.52533 l -0.14917,-0.07465 c -0.0373,0 -0.3729,-0.223729 -0.3729,-0.223729 0,0 -0.26103,-4.288346 -3.50526,-5.630807 -0.0373,-1.044103 -0.52206,-1.491578 -0.93225,-1.640748 v -0.969527 l -1.19329,-1.901818 -1.08141,1.939124 v 0.857645 c -0.18644,0.03724 -0.33561,0.149117 -0.48477,0.261034 -0.41019,0.447493 -0.48477,1.156003 -0.48477,1.41702 -3.16965,1.230578 -3.61713,5.257908 -3.61713,5.556213 -0.29832,0.111882 -0.44749,0.223746 -0.48477,0.223746 l -0.14917,0.07465 v 1.678054 h 0.48477 v 0.522069 c -0.3729,0.149117 -0.59665,0.261034 -0.59665,0.298305 l -0.14917,0.07465 v 1.528919 c -0.55935,0.261017 -0.89496,0.447457 -0.93225,0.447457 l -0.22374,0.111883 v 5.108738 h -1.97636 v 3.766295 l 19.42812,0.03723 v -3.80358 H 132.327 Z m -0.89496,0 h -1.82722 v -5.183314 c 0.89497,0.298322 1.5289,0.596645 1.82722,0.745815 z m -11.11244,0 v -5.518907 c 0.67122,-0.186476 1.4916,-0.335629 2.38656,-0.410205 v 5.929112 h -1.82721 z m 6.11557,0 v -5.891806 c 0.96954,0.111882 1.82721,0.298305 2.57302,0.522051 v 5.369755 z m -0.59664,0 h -2.53572 v -5.966382 c 0.29832,0 0.63393,-0.03723 0.96954,-0.03723 0.55935,0 1.04412,0.03723 1.52889,0.07465 v 5.929112 z m 3.72901,-10.254747 c -0.3729,-0.149117 -0.67123,-0.298322 -1.19329,-0.410187 v 0 c 0,-0.111882 0.11187,-2.05097 -0.55935,-3.579854 1.34244,1.305155 1.67806,3.281532 1.75264,3.990041 z m -6.71221,-4.623975 c -0.44749,1.267867 -0.48478,3.31882 -0.48478,3.803584 -0.44748,0.03724 -0.85767,0.111882 -1.26786,0.223728 0.0373,-0.708492 0.22374,-2.572986 1.34244,-3.691701 0.14917,-0.111882 0.29833,-0.223746 0.4102,-0.335611 z m 0.14917,3.766295 c 0,-1.04412 0.11186,-3.50526 0.7458,-4.139193 0.0373,-0.03723 0.0373,-0.03723 0.0746,-0.03723 0.14917,-0.03724 0.33561,-0.07465 0.48477,-0.111882 v 4.251076 c -0.0373,0 -0.0373,0 -0.0746,0 -0.44748,0 -0.85767,0 -1.23057,0.03723 z m 1.90179,-4.325634 c 0.11186,0 0.26103,0 0.3729,0.03723 0.0373,0 0.0746,0.03724 0.14917,0.111882 0.63393,0.671222 0.70851,3.206938 0.70851,4.251058 -0.3729,-0.03724 -0.78309,-0.07465 -1.19328,-0.07465 v -4.325634 z m 1.26786,0.223729 c 0.0373,0 0.0373,0 0.0746,0.03723 0.18645,0.111882 0.33562,0.223746 0.48478,0.372916 1.08141,1.155985 1.04412,3.617125 1.04412,4.027312 -0.33561,-0.07465 -0.67122,-0.149117 -1.04412,-0.186476 0,-0.522087 0.0373,-2.983227 -0.55935,-4.251076 z m -2.75947,-1.454326 c 0.0746,-0.07465 0.18645,-0.149117 0.33562,-0.149117 h 0.29832 v -1.267849 l 0.52206,-0.932274 0.59664,0.932274 v 1.006815 0.298323 l 0.26103,0.03723 c 0.0746,0 0.52206,0.07465 0.63393,0.85768 -0.22374,-0.07465 -0.44748,-0.111882 -0.67122,-0.111882 -0.0746,0 -0.11187,-0.03724 -0.18645,-0.03724 v 0 c -0.22374,-0.03723 -0.41019,-0.03723 -0.63393,-0.03723 -0.52206,0 -0.96954,0.07465 -1.41702,0.186494 0,-0.261034 0.0746,-0.596627 0.26103,-0.783103 z m -3.13236,3.878178 c 0.3729,-0.745816 0.89496,-1.342444 1.45431,-1.789919 -1.08141,1.41702 -1.19328,3.356108 -1.19328,3.87816 -0.41019,0.111882 -0.7458,0.223746 -1.04412,0.298322 0.0746,-0.447493 0.26103,-1.417019 0.78309,-2.386563 z m 3.95275,2.237411 c 3.13236,0 5.25789,0.89495 5.85454,1.155985 v 0.484763 l -0.0373,-0.03723 c -0.0746,-0.03723 -2.2374,-1.230579 -5.77996,-1.230579 -3.28152,0 -5.29519,1.081409 -5.36977,1.155985 l -0.0373,0.03723 v -0.484781 c 0.52206,-0.261017 2.49843,-1.081391 5.36976,-1.081391 z m -4.92229,2.013665 c 0.52206,-0.261035 2.31198,-1.006815 4.92229,-1.006815 2.83404,0 4.77312,0.820374 5.33247,1.044085 v 0.745833 c -1.08141,-0.410222 -2.94591,-0.894968 -5.40705,-0.894968 -2.16283,0 -3.80359,0.410187 -4.84771,0.783068 z m -0.7458,1.678054 c 0.55935,-0.261035 2.6103,-1.118697 5.6308,-1.118697 3.28152,0 5.48163,0.93222 6.07828,1.230561 v 0.89495 c -0.18645,-0.07465 -0.41019,-0.149117 -0.67123,-0.223746 l -0.29831,-0.111882 c -1.30516,-0.372917 -2.98321,-0.70851 -4.99687,-0.70851 -2.49844,0 -4.47481,0.522051 -5.74267,0.969526 z m -0.85767,2.274681 c 0.33561,-0.149117 1.00683,-0.484763 2.01366,-0.783086 v 5.369755 h -2.01366 z m 15.62453,7.495302 -17.6382,-0.03724 v -2.013665 h 17.60091 z"
       style="stroke-width:0.37290055" />
    <g
       id="g14385"
       transform="matrix(0.72897506,0,0,0.72897506,155.88494,23.983279)">
      <linearGradient
         y2="98.504997"
         x2="100.7018"
         y1="42.608299"
         x1="44.805"
         gradientUnits="userSpaceOnUse"
         id="SVGID_1_-6">
        <stop
           id="stop14374"
           style="stop-color:#E6E6E6"
           offset="0" />
        <stop
           id="stop14376"
           style="stop-color:#F7F7F7"
           offset="0.5" />
        <stop
           id="stop14378"
           style="stop-color:#C4C4C4"
           offset="1" />
      </linearGradient>
      <path
         style="fill:url(#SVGID_1_-6)"
         id="path14381"
         d="m 101.545,56.729 c 0,-1.591 -1.289,-2.88 -2.88,-2.88 h -3.287 v -3.287 c 0,-1.591 -1.289,-2.88 -2.88,-2.88 h -3.036 v -3.037 c 0,-1.591 -1.289,-2.88 -2.88,-2.88 h -39.74 c -1.591,0 -2.88,1.289 -2.88,2.88 v 39.74 c 0,1.591 1.289,2.88 2.88,2.88 h 2.912 l 0.124,-0.123 v 3.16 c 0,1.591 1.289,2.88 2.88,2.88 h 3.287 v 3.287 c 0,1.591 1.289,2.88 2.88,2.88 h 39.74 c 1.591,0 2.88,-1.289 2.88,-2.88 z"
         fill="url(#SVGID_1_)"
         inkscape:connector-curvature="0" />
      <path
         id="path14383"
         d="m 108.35,73.004 c -0.162,-2.029 -2.164,-3.677 -5.93,-4.906 v -11.37 c 0,-2.001 -1.627,-3.63 -3.629,-3.63 h -2.537 v -2.537 c 0,-2.001 -1.629,-3.63 -3.631,-3.63 h -1.666 c 0.438,-6.088 0,-10.631 -1.393,-12.684 -0.727,-1.073 -1.602,-1.38 -2.209,-1.45 -2.365,-0.272 -5.193,2.495 -8.389,8.216 H 65.058 c -5.067,-4.976 -8.852,-6.991 -11.269,-5.969 -1.711,0.726 -2.401,2.743 -2.084,5.969 h -4.737 c -2.002,0 -3.63,1.629 -3.63,3.63 v 28.262 c -3.471,1.809 -5.165,3.746 -5.001,5.76 0.168,2.087 2.282,3.55 5.001,4.575 v 1.143 c 0,2.002 1.628,3.63 3.63,3.63 h 2.286 V 90.3 c 0,2.002 1.628,3.63 3.63,3.63 h 2.537 v 2.537 c 0,2.002 1.628,3.63 3.63,3.63 h 4.638 c 0.3,4.693 1.539,7.219 3.705,7.467 0.101,0.012 0.202,0.018 0.305,0.018 2.296,0 4.956,-2.896 7.63,-7.484 h 10.27 c 4.412,4.389 7.875,6.606 10.326,6.606 0.479,0 0.92,-0.085 1.322,-0.255 0.613,-0.259 1.434,-0.851 1.865,-2.198 0.334,-1.043 0.377,-2.468 0.158,-4.202 1.773,-0.237 3.15,-1.743 3.15,-3.581 V 79.223 c 3.348,-1.585 6.137,-3.678 5.93,-6.219 z M 68.156,44.244 c -0.553,-0.609 -1.089,-1.178 -1.617,-1.729 h 20.168 c 1.176,0 2.131,0.956 2.131,2.13 v 2.287 h -18.34 c -0.788,-0.934 -1.572,-1.84 -2.342,-2.688 z m 20.707,4.188 c -0.137,1.457 -0.324,3.018 -0.559,4.667 H 75.387 c -1.223,-1.631 -2.439,-3.193 -3.644,-4.667 z m -4.244,18.292 c -1.096,-1.787 -2.221,-3.536 -3.354,-5.253 h 5.547 c -0.43,2.05 -0.926,4.191 -1.486,6.416 -0.234,-0.388 -0.469,-0.775 -0.707,-1.163 z M 56.92,60.471 v -3.742 c 0,-1.174 0.955,-2.13 2.13,-2.13 h 14.795 c 1.396,1.873 2.795,3.835 4.182,5.872 z m 23.689,0 C 79.254,58.444 77.879,56.48 76.505,54.599 H 88.08 c -0.291,1.854 -0.643,3.815 -1.061,5.872 z M 72.721,53.099 H 59.05 c -2.002,0 -3.63,1.629 -3.63,3.63 V 83.535 C 53.774,83.397 52.222,83.21 50.753,82.985 V 50.562 c 0,-1.174 0.955,-2.13 2.13,-2.13 h 16.089 c 1.234,1.464 2.488,3.019 3.749,4.667 z M 56.92,61.471 h 21.791 c 1.387,2.065 2.756,4.194 4.09,6.369 0.611,0.994 1.197,1.973 1.768,2.942 -0.006,0.023 -0.012,0.046 -0.018,0.07 -1.166,4.297 -2.404,8.248 -3.666,11.83 -2.25,0.301 -4.565,0.553 -6.926,0.744 -6.063,0.491 -11.89,0.552 -17.039,0.213 z m 29.031,11.697 c 1.568,2.756 2.969,5.391 4.207,7.88 -2.236,0.5 -4.613,0.939 -7.094,1.317 1.038,-3.002 2.01,-6.099 2.887,-9.197 z m 0.791,-2.897 c 0.799,-3.023 1.492,-5.971 2.078,-8.8 h 12.1 v 16.246 c -0.967,0.428 -2.08,0.861 -3.357,1.297 -1.619,0.551 -3.391,1.062 -5.275,1.534 -1.618,-3.28 -3.477,-6.735 -5.546,-10.277 z M 100.92,56.729 v 3.742 H 89.023 c 0.406,-2.028 0.754,-3.991 1.045,-5.872 h 8.723 c 1.174,0 2.129,0.955 2.129,2.13 z m -8.297,-8.297 c 1.176,0 2.131,0.956 2.131,2.13 v 2.537 h -4.465 c 0.229,-1.63 0.41,-3.186 0.545,-4.667 z m -5.49,-13.679 c 0.107,0.012 0.43,0.049 0.805,0.6 0.732,1.082 1.164,3.359 1.217,6.627 -0.646,-0.594 -1.502,-0.965 -2.447,-0.965 h -5.475 c 2.792,-4.766 4.818,-6.386 5.9,-6.262 z M 54.622,37.01 c 1.006,-0.427 3.434,0.521 7.316,4.004 h -8.094 c -0.246,-2.201 0.032,-3.688 0.778,-4.004 z m -7.655,5.505 h 16.566 c 0.944,0.922 1.953,1.963 3.042,3.163 0.363,0.4 0.734,0.834 1.103,1.254 H 52.883 c -2.002,0 -3.63,1.629 -3.63,3.63 v 32.18 C 47.492,82.42 46.028,82.053 44.837,81.663 V 44.645 c 0,-1.175 0.955,-2.13 2.13,-2.13 z m -6.636,35.991 c -0.078,-0.957 1.011,-2.137 3.007,-3.317 v 5.914 c -2.057,-0.882 -2.946,-1.824 -3.007,-2.597 z m 6.636,8.009 c -1.175,0 -2.13,-0.955 -2.13,-2.13 v -0.632 c 1.436,0.435 2.96,0.766 4.416,1.021 v 1.741 z m 5.916,5.917 c -1.175,0 -2.13,-0.955 -2.13,-2.13 v -5.288 c 1.47,0.218 3.031,0.393 4.667,0.525 v 6.893 z m 4.037,4.037 v -10.82 c 2.123,0.136 4.353,0.208 6.668,0.208 3.373,0 6.916,-0.146 10.533,-0.438 2.037,-0.165 4.039,-0.379 6,-0.626 -2.113,5.704 -4.26,10.358 -6.213,13.806 H 59.05 c -1.175,0 -2.13,-0.955 -2.13,-2.13 z m 10.698,9.141 c -0.793,-0.091 -1.703,-1.602 -1.967,-5.512 h 7.372 c -2.279,3.717 -4.221,5.649 -5.405,5.512 z M 82.314,84.494 c 3.078,-0.442 6.014,-0.979 8.742,-1.604 3.113,6.504 5.037,11.902 5.822,15.708 h -9.764 c -0.031,-0.031 -0.06,-0.06 -0.094,-0.091 l -0.09,0.091 H 76.174 c 2.119,-3.909 4.222,-8.807 6.14,-14.104 z m 14.766,19.107 c -0.223,0.698 -0.555,0.839 -0.666,0.885 -1.025,0.44 -3.568,-0.558 -7.732,-4.387 h 8.459 c 0.211,1.525 0.193,2.712 -0.061,3.502 z m 3.84,-7.132 c 0,1.091 -0.826,1.981 -1.885,2.105 -0.791,-4.186 -2.834,-9.809 -5.859,-16.188 1.789,-0.457 3.477,-0.951 5.031,-1.479 0.889,-0.303 1.809,-0.643 2.713,-1.018 z M 102.42,77 v -6.79 c 2.428,0.877 3.854,1.934 3.936,2.954 0.076,0.94 -1.008,2.318 -3.936,3.836 z"
         inkscape:connector-curvature="0" />
    </g>
    <path
       style="fill:none;stroke:#000000;stroke-width:1.365;stroke-linecap:butt;stroke-linejoin:miter;stroke-opacity:1;stroke-miterlimit:4;stroke-dasharray:4.095,4.095;stroke-dashoffset:0"
       d="M 71.156284,74.141461 C 143.71773,30.917448 117.51975,161.42365 187.50923,98.460966"
       id="path14590"
       inkscape:connector-curvature="0"
       sodipodi:nodetypes="cc" />
  </g>
</svg>
