<?xml version="1.0" encoding="UTF-8" standalone="no"?>
<!-- Generator: Adobe Illustrator 17.1.0, SVG Export Plug-In . SVG Version: 6.00 Build 0)  -->

<svg
   xmlns:dc="http://purl.org/dc/elements/1.1/"
   xmlns:cc="http://creativecommons.org/ns#"
   xmlns:rdf="http://www.w3.org/1999/02/22-rdf-syntax-ns#"
   xmlns:svg="http://www.w3.org/2000/svg"
   xmlns="http://www.w3.org/2000/svg"
   xmlns:sodipodi="http://sodipodi.sourceforge.net/DTD/sodipodi-0.dtd"
   xmlns:inkscape="http://www.inkscape.org/namespaces/inkscape"
   version="1.1"
   id="Layer_1"
   x="0px"
   y="0px"
   viewBox="0 0 752.54956 81.013794"
   enable-background="new 0 0 612 792"
   xml:space="preserve"
   sodipodi:docname="jolokia.svg"
   inkscape:version="0.92.2 (5c3e80d, 2017-08-06)"
   width="752.54956"
   height="81.013794"><metadata
     id="metadata88"><rdf:RDF><cc:Work
         rdf:about=""><dc:format>image/svg+xml</dc:format><dc:type
           rdf:resource="http://purl.org/dc/dcmitype/StillImage" /><dc:title></dc:title></cc:Work></rdf:RDF></metadata><defs
     id="defs86"><marker
       inkscape:isstock="true"
       style="overflow:visible"
       id="TriangleOutM"
       refX="0"
       refY="0"
       orient="auto"
       inkscape:stockid="TriangleOutM"><path
         inkscape:connector-curvature="0"
         transform="scale(0.4)"
         style="fill:#cae883;fill-opacity:1;fill-rule:evenodd;stroke:#cae883;stroke-width:1.00000003pt;stroke-opacity:1"
         d="M 5.77,0 -2.88,5 V -5 Z"
         id="path2124" /></marker><marker
       inkscape:isstock="true"
       style="overflow:visible"
       id="Tail"
       refX="0"
       refY="0"
       orient="auto"
       inkscape:stockid="Tail"><g
         style="fill:#cae883;fill-opacity:1;stroke:#000000;stroke-opacity:1"
         transform="scale(-1.2)"
         id="g2027"><path
           inkscape:connector-curvature="0"
           style="fill:#cae883;fill-opacity:1;fill-rule:evenodd;stroke:#000000;stroke-width:0.80000001;stroke-linecap:round;stroke-opacity:1"
           d="M -3.8048674,-3.9585227 0.54352094,0"
           id="path2015" /><path
           inkscape:connector-curvature="0"
           style="fill:#cae883;fill-opacity:1;fill-rule:evenodd;stroke:#000000;stroke-width:0.80000001;stroke-linecap:round;stroke-opacity:1"
           d="M -1.2866832,-3.9585227 3.0617053,0"
           id="path2017" /><path
           inkscape:connector-curvature="0"
           style="fill:#cae883;fill-opacity:1;fill-rule:evenodd;stroke:#000000;stroke-width:0.80000001;stroke-linecap:round;stroke-opacity:1"
           d="M 1.3053582,-3.9585227 5.6537466,0"
           id="path2019" /><path
           inkscape:connector-curvature="0"
           style="fill:#cae883;fill-opacity:1;fill-rule:evenodd;stroke:#000000;stroke-width:0.80000001;stroke-linecap:round;stroke-opacity:1"
           d="M -3.8048674,4.1775838 0.54352094,0.21974226"
           id="path2021" /><path
           inkscape:connector-curvature="0"
           style="fill:#cae883;fill-opacity:1;fill-rule:evenodd;stroke:#000000;stroke-width:0.80000001;stroke-linecap:round;stroke-opacity:1"
           d="M -1.2866832,4.1775838 3.0617053,0.21974226"
           id="path2023" /><path
           inkscape:connector-curvature="0"
           style="fill:#cae883;fill-opacity:1;fill-rule:evenodd;stroke:#000000;stroke-width:0.80000001;stroke-linecap:round;stroke-opacity:1"
           d="M 1.3053582,4.1775838 5.6537466,0.21974226"
           id="path2025" /></g></marker><marker
       inkscape:isstock="true"
       style="overflow:visible"
       id="Arrow2Lend"
       refX="0"
       refY="0"
       orient="auto"
       inkscape:stockid="Arrow2Lend"><path
         inkscape:connector-curvature="0"
         transform="matrix(-1.1,0,0,-1.1,-1.1,0)"
         d="M 8.7185878,4.0337352 -2.2072895,0.01601326 8.7185884,-4.0017078 c -1.7454984,2.3720609 -1.7354408,5.6174519 -6e-7,8.035443 z"
         style="fill:#cae883;fill-opacity:1;fill-rule:evenodd;stroke:#000000;stroke-width:0.625;stroke-linejoin:round;stroke-opacity:1"
         id="path2000" /></marker><marker
       inkscape:isstock="true"
       style="overflow:visible"
       id="TriangleOutM-6"
       refX="0"
       refY="0"
       orient="auto"
       inkscape:stockid="TriangleOutM"><path
         inkscape:connector-curvature="0"
         transform="scale(0.4)"
         style="fill:#cae883;fill-opacity:1;fill-rule:evenodd;stroke:#cae883;stroke-width:1.00000003pt;stroke-opacity:1"
         d="M 5.77,0 -2.88,5 V -5 Z"
         id="path2124-7" /></marker></defs><sodipodi:namedview
     pagecolor="#ffffff"
     bordercolor="#666666"
     borderopacity="1"
     objecttolerance="10"
     gridtolerance="10"
     guidetolerance="10"
     inkscape:pageopacity="0"
     inkscape:pageshadow="2"
     inkscape:window-width="2556"
     inkscape:window-height="1404"
     id="namedview84"
     showgrid="false"
     inkscape:zoom="3.1186868"
     inkscape:cx="409.54009"
     inkscape:cy="-34.741561"
     inkscape:window-x="2"
     inkscape:window-y="2"
     inkscape:window-maximized="1"
     inkscape:current-layer="g1125"
     fit-margin-top="1"
     fit-margin-left="1"
     fit-margin-right="1"
     fit-margin-bottom="1" /><rect
     style="opacity:1;fill:#0088ce;stroke:none;stroke-width:1.50506961;stroke-linecap:round;stroke-linejoin:round"
     id="rect90"
     width="209.93741"
     height="79.013794"
     x="1"
     y="1"
     ry="4.7678699" /><g
     id="g1083"
     transform="translate(-44.171093,-48.752653)"><g
       transform="translate(-200.55052,-307.39795)"
       id="g243"><g
         id="g233"><path
           style="fill:#ffffff"
           inkscape:connector-curvature="0"
           d="m 287.73,420.33 h -8.891 c -1.228,0 -2.352,-0.193 -3.34,-0.573 -1.002,-0.386 -1.874,-0.944 -2.592,-1.662 -0.722,-0.721 -1.275,-1.608 -1.646,-2.637 -0.359,-0.997 -0.542,-2.121 -0.542,-3.343 v -7.916 c 0,-0.89 -0.109,-1.639 -0.325,-2.226 -0.2,-0.542 -0.482,-0.98 -0.841,-1.303 -0.37,-0.334 -0.812,-0.569 -1.351,-0.721 -0.599,-0.17 -1.281,-0.263 -2.03,-0.277 l -0.98,-0.02 v -6.649 l 0.962,-0.037 c 0.767,-0.029 1.46,-0.133 2.06,-0.31 0.541,-0.159 0.98,-0.398 1.345,-0.731 0.354,-0.324 0.634,-0.764 0.835,-1.309 0.215,-0.586 0.325,-1.335 0.325,-2.225 v -7.915 c 0,-2.618 0.739,-4.666 2.197,-6.086 1.45,-1.413 3.442,-2.13 5.922,-2.13 h 8.891 v 6.585 h -5.537 c -1.148,0 -1.929,0.284 -2.385,0.87 -0.508,0.653 -0.766,1.721 -0.766,3.174 v 7.264 c 0,0.941 -0.157,1.822 -0.466,2.619 -0.305,0.788 -0.727,1.493 -1.254,2.094 -0.488,0.558 -1.064,1.036 -1.713,1.422 0.661,0.39 1.247,0.879 1.743,1.453 0.525,0.61 0.941,1.31 1.237,2.08 0.301,0.78 0.453,1.652 0.453,2.592 v 7.264 c 0,1.468 0.257,2.538 0.764,3.183 0.456,0.579 1.237,0.861 2.387,0.861 h 5.537 v 6.609 z m -20.536,-22.597 c 0.55,0.058 1.069,0.155 1.553,0.292 0.828,0.232 1.551,0.623 2.147,1.159 0.603,0.543 1.066,1.249 1.379,2.099 0.297,0.809 0.448,1.79 0.448,2.916 v 7.916 c 0,0.989 0.143,1.886 0.423,2.665 0.27,0.749 0.666,1.389 1.178,1.9 0.518,0.518 1.156,0.925 1.895,1.209 0.759,0.292 1.641,0.441 2.622,0.441 h 6.891 v -2.608 h -3.537 c -1.779,0 -3.111,-0.547 -3.959,-1.625 -0.802,-1.02 -1.191,-2.465 -1.191,-4.419 v -7.264 c 0,-0.692 -0.108,-1.323 -0.319,-1.873 -0.214,-0.556 -0.513,-1.059 -0.887,-1.493 -0.372,-0.433 -0.819,-0.798 -1.327,-1.085 -0.525,-0.297 -1.094,-0.519 -1.689,-0.656 l -0.774,-0.18 v -1.603 l 0.79,-0.266 c 0.574,-0.124 1.129,-0.335 1.648,-0.629 0.51,-0.289 0.959,-0.652 1.333,-1.08 0.372,-0.425 0.673,-0.93 0.893,-1.501 0.22,-0.565 0.331,-1.203 0.331,-1.895 v -7.264 c 0,-1.936 0.389,-3.376 1.188,-4.403 0.848,-1.089 2.182,-1.641 3.962,-1.641 h 3.537 v -2.585 h -6.891 c -1.968,0 -3.448,0.511 -4.526,1.562 -1.072,1.044 -1.593,2.566 -1.593,4.653 v 7.915 c 0,1.127 -0.15,2.108 -0.448,2.915 -0.312,0.848 -0.77,1.553 -1.362,2.094 -0.585,0.537 -1.303,0.932 -2.13,1.175 -0.489,0.144 -1.021,0.25 -1.587,0.316 v 2.843 z"
           id="path231" /></g><g
         id="g237"><path
           style="fill:#ffffff"
           inkscape:connector-curvature="0"
           d="m 310.149,421.055 h -8.323 v -48.793 h 8.323 z m -6.322,-2 h 4.323 v -44.793 h -4.323 z"
           id="path235" /></g><g
         id="g241"><path
           style="fill:#ffffff"
           inkscape:connector-curvature="0"
           d="m 333.162,420.33 h -8.892 v -6.608 h 5.537 c 1.15,0 1.931,-0.282 2.387,-0.861 0.507,-0.644 0.764,-1.715 0.764,-3.183 v -7.264 c 0,-0.94 0.152,-1.812 0.454,-2.593 0.296,-0.77 0.713,-1.471 1.236,-2.079 0.496,-0.575 1.082,-1.063 1.742,-1.453 -0.648,-0.386 -1.225,-0.864 -1.713,-1.422 -0.524,-0.598 -0.946,-1.303 -1.254,-2.094 -0.309,-0.796 -0.466,-1.677 -0.466,-2.618 v -7.264 c 0,-1.454 -0.258,-2.522 -0.767,-3.174 -0.456,-0.585 -1.235,-0.87 -2.384,-0.87 h -5.537 v -6.585 h 8.892 c 2.479,0 4.472,0.717 5.923,2.13 1.457,1.42 2.196,3.468 2.196,6.086 v 7.915 c 0,0.893 0.109,1.641 0.324,2.225 0.2,0.546 0.48,0.986 0.834,1.309 0.365,0.334 0.805,0.573 1.345,0.731 0.601,0.177 1.294,0.281 2.062,0.31 l 0.962,0.037 v 6.649 l -0.98,0.02 c -0.749,0.015 -1.432,0.107 -2.028,0.276 -0.54,0.152 -0.982,0.388 -1.353,0.722 -0.364,0.327 -0.639,0.753 -0.841,1.303 -0.215,0.585 -0.324,1.333 -0.324,2.226 v 7.916 c 0,1.221 -0.183,2.346 -0.543,3.344 -0.369,1.026 -0.923,1.914 -1.645,2.636 -0.719,0.718 -1.591,1.276 -2.592,1.662 -0.988,0.378 -2.111,0.571 -3.339,0.571 z m -6.892,-2 h 6.892 c 0.98,0 1.862,-0.148 2.621,-0.441 0.739,-0.284 1.378,-0.691 1.896,-1.21 0.512,-0.511 0.908,-1.15 1.177,-1.898 0.282,-0.781 0.425,-1.678 0.425,-2.666 v -7.916 c 0,-1.129 0.15,-2.109 0.447,-2.916 0.312,-0.851 0.777,-1.557 1.38,-2.1 0.595,-0.535 1.317,-0.926 2.147,-1.159 0.481,-0.136 1.001,-0.233 1.552,-0.291 v -2.84 c -0.566,-0.066 -1.098,-0.172 -1.588,-0.317 -0.826,-0.242 -1.544,-0.638 -2.131,-1.175 -0.591,-0.541 -1.049,-1.246 -1.36,-2.094 -0.297,-0.805 -0.447,-1.786 -0.447,-2.915 v -7.915 c 0,-2.058 -0.536,-3.623 -1.593,-4.653 -1.079,-1.051 -2.56,-1.562 -4.526,-1.562 h -6.892 v 2.585 h 3.537 c 1.78,0 3.113,0.552 3.962,1.64 0.8,1.026 1.189,2.467 1.189,4.404 v 7.264 c 0,0.692 0.111,1.33 0.33,1.894 0.223,0.573 0.523,1.078 0.895,1.501 0.375,0.429 0.822,0.792 1.332,1.08 0.52,0.294 1.074,0.506 1.648,0.629 l 0.79,0.169 v 1.603 l -0.773,0.276 c -0.595,0.138 -1.163,0.359 -1.688,0.656 -0.509,0.287 -0.955,0.651 -1.328,1.085 -0.374,0.434 -0.672,0.935 -0.886,1.493 -0.213,0.55 -0.32,1.18 -0.32,1.873 v 7.264 c 0,1.954 -0.39,3.4 -1.191,4.419 -0.849,1.078 -2.181,1.625 -3.959,1.625 h -3.537 v 2.608 z"
           id="path239" /></g></g><g
       aria-label="org.apache.spark.metrics.sink.Sink"
       transform="translate(-1.8138577,9.09705)"
       style="font-style:normal;font-variant:normal;font-weight:900;font-stretch:normal;font-size:32px;line-height:1.25;font-family:Overpass;-inkscape-font-specification:'Overpass Heavy';letter-spacing:0px;word-spacing:0px;fill:#ffffff;fill-opacity:1"
       id="flowRoot1064"><g
         id="g972"
         transform="translate(-472.50995,3.008)"><path
           id="path1202"
           d="m 644.25262,88.9465 c 4.672,0 8.352,-2.528 8.352,-6.88 0,-4.96 -4.38399,-6.368 -7.776,-7.456 -2.08,-0.704 -3.808,-1.248 -3.808,-2.4 0,-1.184 0.96001,-1.824 2.72001,-1.824 2.01599,0 3.072,1.024 3.67999,2.4 l 4.352,-1.408 c -0.86399,-3.168 -3.64799,-5.6 -7.776,-5.6 -4.99199,0 -7.84,2.88 -7.84,6.336 0,4.672 3.96801,5.92 7.32801,7.008 2.33599,0.736 4.256,1.344 4.256,2.912 0,1.536 -1.34401,2.304 -3.36001,2.304 -2.048,0 -3.77599,-1.472 -4.768,-3.584 l -4.352,1.632 c 1.34401,4.096 4.64,6.56 8.992,6.56 z"
           inkscape:connector-curvature="0" /><path
           id="path1204"
           d="m 658.78363,70.6425 c 1.504,0 2.65599,-1.216 2.65599,-2.656 0,-1.472 -1.15199,-2.624 -2.65599,-2.624 -1.472,0 -2.688,1.152 -2.688,2.624 0,1.44 1.216,2.656 2.688,2.656 z m -2.336,17.92 h 4.63999 v -16.352 h -4.63999 z"
           inkscape:connector-curvature="0" /><path
           id="path1206"
           d="m 676.02762,88.5625 h 4.64001 v -10.624 c 0,-4.768 -3.168,-6.112 -5.664,-6.112 -1.984,0 -3.456,0.704 -4.44801,1.888 v -1.504 h -4.64 v 16.352 h 4.64 v -8.576 c 0,-2.464 0.832,-3.68 2.88,-3.68 1.92001,0 2.592,1.152 2.592,3.744 z"
           inkscape:connector-curvature="0" /><path
           id="path1208"
           d="m 700.52262,88.5625 -5.952,-11.52 4.99201,-4.832 h -5.50401 l -4.128,4.096 v -10.848 l -4.64,2.176 v 20.928 h 4.64 v -7.104 l 1.216,-1.12 4.32001,8.224 z"
           inkscape:connector-curvature="0" /></g></g></g><g
     id="g1125"><rect
       ry="4.7678699"
       y="1"
       x="541.54169"
       height="79.013794"
       width="209.93741"
       id="rect90-3"
       style="opacity:1;fill:#3f9c35;stroke:none;stroke-width:1.50506961;stroke-linecap:round;stroke-linejoin:round" /><g
       transform="translate(515.17544,-31.022103)"
       id="g1097"><g
         style="display:none"
         id="button"
         display="none"><circle
           style="display:inline;fill:#dcdcdc"
           display="inline"
           cx="72"
           cy="72"
           r="54"
           id="circle1056" /></g><g
         style="display:none"
         id="template"
         display="none"><circle
           style="display:inline;fill:none;stroke:#ffffff;stroke-width:0.25;stroke-miterlimit:10"
           display="inline"
           stroke-miterlimit="10"
           cx="72"
           cy="72"
           r="36"
           id="circle1059" /><g
           style="display:inline"
           display="inline"
           id="g1063"><circle
             style="fill:none;stroke:#ffffff;stroke-width:0.25;stroke-linecap:round;stroke-miterlimit:10;stroke-dasharray:1.9875, 1.9875"
             stroke-miterlimit="10"
             cx="72"
             cy="72"
             r="40.5"
             id="circle1061" /></g><line
           style="display:inline;fill:none;stroke:#ffffff;stroke-width:0.25;stroke-miterlimit:10"
           display="inline"
           stroke-miterlimit="10"
           x1="72"
           y1="18"
           x2="72"
           y2="126"
           id="line1065" /><line
           style="display:inline;fill:none;stroke:#ffffff;stroke-width:0.25;stroke-miterlimit:10"
           display="inline"
           stroke-miterlimit="10"
           x1="126"
           y1="72"
           x2="18"
           y2="72"
           id="line1067" /><line
           style="display:inline;fill:none;stroke:#ffffff;stroke-width:0.25;stroke-miterlimit:10"
           display="inline"
           stroke-miterlimit="10"
           x1="110.184"
           y1="33.816002"
           x2="33.816002"
           y2="110.184"
           id="line1069" /><line
           style="display:inline;fill:none;stroke:#ffffff;stroke-width:0.25;stroke-miterlimit:10"
           display="inline"
           stroke-miterlimit="10"
           x1="110.184"
           y1="110.184"
           x2="33.816002"
           y2="33.816002"
           id="line1071" /></g><g
         id="icon"><path
           style="fill:#ffffff"
           inkscape:connector-curvature="0"
           d="M 97.729,84.022 V 59.745 h -8.221 v -8.096 h 4.347 L 88.8,42.896 83.746,51.649 h 4.346 v 8.096 H 72.236 v -0.443 -7.394 h 3.444 v -8.305 h -8.305 v 8.305 h 3.444 v 7.394 0.443 H 54.964 v -7.908 c 1.952,-0.338 3.444,-2.034 3.444,-4.081 0,-2.29 -1.862,-4.152 -4.152,-4.152 -2.29,0 -4.152,1.863 -4.152,4.152 0,2.047 1.492,3.742 3.444,4.081 v 7.908 h -8.057 v 24.276 h 8.057 v 7.836 h -3.28 v 8.305 h 8.305 V 91.857 H 54.965 V 84.021 H 70.82 v 0.61 7.705 h 0.023 l -4.369,7.568 h 10.108 l -4.37,-7.568 h 0.023 v -7.705 -0.61 h 15.856 v 7.908 c -1.952,0.338 -3.444,2.034 -3.444,4.081 0,2.29 1.862,4.152 4.152,4.152 2.29,0 4.152,-1.863 4.152,-4.152 0,-2.048 -1.492,-3.743 -3.444,-4.081 v -7.908 h 8.222 z M 54.964,75.86 v -3.269 h 33.129 v 3.269 z m 33.129,-8.068 v 3.384 H 54.964 v -3.384 z m 0,-1.416 H 72.236 v -5.214 h 15.856 v 5.214 z m -17.273,0 H 54.964 V 61.162 H 70.82 Z m -15.856,10.9 H 70.82 v 5.329 H 54.964 Z m 17.272,0 h 15.856 v 5.329 H 72.236 Z m 17.273,5.329 V 75.86 72.591 h 6.805 v 10.014 z m 6.804,-11.43 H 89.508 V 61.161 h 6.805 z m -7.512,-25.447 2.602,4.505 H 86.2 Z M 68.792,45.02 h 5.473 v 5.473 H 68.792 Z M 51.52,47.756 c 0,-1.509 1.228,-2.736 2.736,-2.736 1.508,0 2.736,1.228 2.736,2.736 0,1.508 -1.228,2.736 -2.736,2.736 -1.508,0 -2.736,-1.227 -2.736,-2.736 z m 2.028,13.405 v 6.63 3.384 H 46.907 V 61.161 Z m -6.641,11.43 h 6.641 v 10.014 h -6.641 z m 10.249,26.156 h -5.473 v -5.473 h 5.473 z m 11.772,-0.259 2.601,-4.506 2.602,4.506 z m 22.609,-2.477 c 0,1.509 -1.228,2.736 -2.736,2.736 -1.508,0 -2.736,-1.228 -2.736,-2.736 0,-1.509 1.228,-2.737 2.736,-2.737 1.508,0 2.736,1.227 2.736,2.737 z"
           id="path1074" /></g></g><g
       aria-label="REST"
       transform="translate(-5.77166,9.3885376)"
       style="font-style:normal;font-variant:normal;font-weight:900;font-stretch:normal;font-size:32px;line-height:1.25;font-family:Overpass;-inkscape-font-specification:'Overpass Heavy';letter-spacing:0px;word-spacing:0px;fill:#ffffff"
       id="flowRoot1099"><path
         d="m 638.56602,42.318359 h 4.864 v -7.904 h 4.32 l 4.064,7.904 h 5.44 l -4.192,-8.64 c 2.624,-1.088 4.064,-4.064 4.064,-6.528 0,-3.872 -1.92,-7.232 -7.648,-7.232 h -10.912 z m 4.864,-12.512 v -5.28 h 6.112 c 1.952,0 2.528,1.312 2.528,2.624 0,1.408 -0.608,2.656 -2.528,2.656 z"
         style=""
         id="path1127" /><path
         d="m 661.06602,42.318359 h 16.736 v -4.64 h -11.872 v -4.608 h 6.272 v -4.608 h -6.272 v -3.936 h 11.232 v -4.608 h -16.096 z"
         style=""
         id="path1129" /><path
         d="m 689.15302,42.702359 c 4.672,0 8.352,-2.528 8.352,-6.88 0,-4.96 -4.384,-6.368 -7.776,-7.456 -2.08,-0.704 -3.808,-1.248 -3.808,-2.4 0,-1.184 0.96,-1.824 2.72,-1.824 2.016,0 3.072,1.024 3.68,2.4 l 4.352,-1.408 c -0.864,-3.168 -3.648,-5.6 -7.776,-5.6 -4.992,0 -7.84,2.88 -7.84,6.336 0,4.672 3.968,5.92 7.328,7.008 2.336,0.736 4.256,1.344 4.256,2.912 0,1.536 -1.344,2.304 -3.36,2.304 -2.048,0 -3.776,-1.472 -4.768,-3.584 l -4.352,1.632 c 1.344,4.096 4.64,6.56 8.992,6.56 z"
         style=""
         id="path1131" /><path
         d="m 711.17202,24.590359 h 6.432 v -4.672 h -17.728 v 4.672 h 6.432 v 17.728 h 4.864 z"
         style=""
         id="path1133" /></g><g
       transform="matrix(0,3.7795276,-3.7795276,0,408.83118,-298.43511)"
       id="layer1"
       inkscape:label="Layer 1"><path
         sodipodi:nodetypes="cc"
         inkscape:connector-curvature="0"
         id="path1977"
         d="m 89.678404,-7.3207235 0,38.5920225"
         style="fill:#cae883;fill-opacity:1;stroke:#cae883;stroke-width:3.54610395;stroke-linecap:butt;stroke-linejoin:miter;stroke-miterlimit:4;stroke-dasharray:none;stroke-opacity:1;marker-end:url(#TriangleOutM)" /></g><g
       transform="matrix(0,3.7795276,3.7795276,0,343.6479,-298.43511)"
       id="layer1-5"
       inkscape:label="Layer 1"><path
         sodipodi:nodetypes="cc"
         inkscape:connector-curvature="0"
         id="path1977-3"
         d="m 89.678404,23.573903 v 7.697396"
         style="fill:#cae883;fill-opacity:1;stroke:#cae883;stroke-width:3.54610395;stroke-linecap:butt;stroke-linejoin:miter;stroke-miterlimit:4;stroke-dasharray:none;stroke-opacity:1;marker-end:url(#TriangleOutM-6)" /></g></g></svg>