<?xml version="1.0" encoding="UTF-8" standalone="no"?>
<!-- Created with Inkscape (http://www.inkscape.org/) -->

<svg
   xmlns:dc="http://purl.org/dc/elements/1.1/"
   xmlns:cc="http://creativecommons.org/ns#"
   xmlns:rdf="http://www.w3.org/1999/02/22-rdf-syntax-ns#"
   xmlns:svg="http://www.w3.org/2000/svg"
   xmlns="http://www.w3.org/2000/svg"
   xmlns:sodipodi="http://sodipodi.sourceforge.net/DTD/sodipodi-0.dtd"
   xmlns:inkscape="http://www.inkscape.org/namespaces/inkscape"
   width="775.80957"
   height="215.77733"
   viewBox="0 0 205.26628 57.091083"
   version="1.1"
   id="svg11817"
   inkscape:version="0.92+devel unknown"
   sodipodi:docname="lifecycle-1.svg">
  <defs
     id="defs11811" />
  <sodipodi:namedview
     id="base"
     pagecolor="#ffffff"
     bordercolor="#666666"
     borderopacity="1.0"
     inkscape:pageopacity="0.0"
     inkscape:pageshadow="2"
     inkscape:zoom="0.98994949"
     inkscape:cx="255.85274"
     inkscape:cy="205.54047"
     inkscape:document-units="mm"
     inkscape:current-layer="layer1"
     inkscape:document-rotation="0"
     showgrid="false"
     fit-margin-top="5"
     fit-margin-left="5"
     fit-margin-right="5"
     fit-margin-bottom="5"
     inkscape:window-width="2556"
     inkscape:window-height="1404"
     inkscape:window-x="2"
     inkscape:window-y="2"
     inkscape:window-maximized="1"
     units="px" />
  <metadata
     id="metadata11814">
    <rdf:RDF>
      <cc:Work
         rdf:about="">
        <dc:format>image/svg+xml</dc:format>
        <dc:type
           rdf:resource="http://purl.org/dc/dcmitype/StillImage" />
        <dc:title></dc:title>
      </cc:Work>
    </rdf:RDF>
  </metadata>
  <g
     inkscape:label="Layer 1"
     inkscape:groupmode="layer"
     id="layer1"
     transform="translate(-47.661441,-32.528482)">
    <g
       id="g4361"
       transform="matrix(2.3779354,0,0,2.3779354,-67.497281,-121.66708)">
      <g
         transform="matrix(0.26458333,0,0,0.26458333,42.43165,-28.582982)"
         id="g11890">
        <path
           inkscape:connector-curvature="0"
           d="m 293.862,386.851 c 3.113,0 5.646,-2.533 5.646,-5.647 0,-3.113 -2.533,-5.646 -5.646,-5.646 -3.114,0 -5.648,2.533 -5.648,5.646 10e-4,3.113 2.534,5.647 5.648,5.647 z m 0,-9.294 c 2.011,0 3.646,1.636 3.646,3.646 0,2.011 -1.636,3.647 -3.646,3.647 -2.011,0 -3.648,-1.636 -3.648,-3.647 10e-4,-2.011 1.637,-3.646 3.648,-3.646 z"
           id="path11878" />
        <path
           inkscape:connector-curvature="0"
           d="m 329.628,374.331 c -3.096,0.33 -5.347,3.118 -5.017,6.213 0.307,2.879 2.719,5.049 5.609,5.049 0.2,0 0.402,-0.011 0.605,-0.033 3.096,-0.33 5.346,-3.118 5.015,-6.214 -0.326,-3.076 -3.073,-5.354 -6.212,-5.015 z m 0.985,9.241 c -2.024,0.212 -3.802,-1.251 -4.014,-3.24 -0.213,-1.999 1.241,-3.799 3.241,-4.013 0.132,-0.014 0.263,-0.021 0.393,-0.021 1.865,0 3.421,1.401 3.619,3.26 0.213,2 -1.239,3.8 -3.239,4.014 z"
           id="path11880" />
        <path
           inkscape:connector-curvature="0"
           d="m 346.598,376.994 c -0.064,-0.484 -0.466,-0.852 -0.953,-0.871 l -4.935,-0.192 c -0.276,-0.731 -0.619,-1.417 -1.022,-2.046 -0.404,-0.63 -0.884,-1.228 -1.431,-1.785 l 1.89,-4.56 c 0.187,-0.451 0.021,-0.971 -0.394,-1.23 -1.24,-0.777 -2.552,-1.456 -3.896,-2.018 -0.451,-0.188 -0.971,-0.025 -1.231,0.39 l -2.632,4.173 c -1.509,-0.24 -3.063,-0.165 -4.545,0.215 l -3.01,-3.918 c -0.298,-0.386 -0.83,-0.503 -1.264,-0.273 -1.29,0.688 -2.531,1.483 -3.688,2.364 -0.389,0.296 -0.507,0.83 -0.279,1.262 l 2.302,4.367 c -0.766,0.942 -1.366,2.002 -1.791,3.131 -0.255,-1.278 -0.586,-2.534 -1.015,-3.728 -0.166,-0.459 -0.642,-0.732 -1.117,-0.646 l -4.82,0.861 c -0.527,-1.136 -1.17,-2.238 -1.918,-3.292 l 3.16,-3.752 c 0.314,-0.373 0.313,-0.919 -0.002,-1.29 -0.942,-1.112 -1.985,-2.155 -3.102,-3.1 -0.373,-0.316 -0.918,-0.315 -1.291,-0.002 l -3.75,3.16 c -1.052,-0.747 -2.154,-1.389 -3.292,-1.917 l 0.861,-4.821 c 0.086,-0.48 -0.187,-0.952 -0.646,-1.117 -1.358,-0.489 -2.785,-0.869 -4.241,-1.129 -0.487,-0.088 -0.951,0.187 -1.117,0.645 l -1.667,4.612 c -1.381,-0.139 -2.423,-0.139 -3.806,0 l -1.667,-4.612 c -0.165,-0.457 -0.639,-0.732 -1.117,-0.645 -1.446,0.259 -2.873,0.639 -4.239,1.129 -0.459,0.165 -0.732,0.637 -0.646,1.117 l 0.86,4.821 c -1.138,0.529 -2.24,1.172 -3.29,1.92 l -3.751,-3.163 c -0.373,-0.314 -0.919,-0.314 -1.291,0.002 -1.118,0.947 -2.162,1.992 -3.103,3.103 -0.315,0.372 -0.315,0.918 -10e-4,1.29 l 3.162,3.749 c -0.748,1.053 -1.391,2.155 -1.918,3.291 l -4.821,-0.861 c -0.479,-0.087 -0.952,0.188 -1.117,0.646 -0.487,1.355 -0.867,2.782 -1.129,4.241 -0.086,0.479 0.186,0.952 0.645,1.117 l 4.611,1.667 c -0.068,0.679 -0.102,1.307 -0.102,1.903 0,0.603 0.033,1.221 0.101,1.904 l -4.611,1.666 c -0.458,0.165 -0.73,0.638 -0.645,1.117 0.262,1.456 0.641,2.882 1.128,4.24 0.165,0.459 0.637,0.734 1.117,0.647 l 4.822,-0.862 c 0.528,1.137 1.17,2.238 1.918,3.291 l -3.162,3.751 c -0.315,0.373 -0.314,0.919 0.002,1.291 0.942,1.111 1.985,2.154 3.101,3.101 0.372,0.315 0.918,0.317 1.292,0.002 l 3.752,-3.161 c 1.053,0.748 2.155,1.391 3.29,1.918 l -0.86,4.82 c -0.085,0.479 0.187,0.951 0.645,1.116 1.355,0.489 2.782,0.869 4.24,1.13 0.06,0.011 0.119,0.016 0.177,0.016 0.077,0 0.151,-0.018 0.224,-0.035 -0.163,0.346 -0.128,0.762 0.129,1.066 l 3.148,3.735 c -0.832,1.354 -1.438,2.818 -1.808,4.373 l -4.87,0.416 c -0.486,0.041 -0.872,0.428 -0.912,0.914 -0.121,1.455 -0.121,2.931 0,4.386 0.04,0.486 0.425,0.873 0.912,0.914 l 4.87,0.416 c 0.369,1.553 0.974,3.019 1.806,4.373 l -3.146,3.734 c -0.315,0.373 -0.314,0.919 0.002,1.291 0.949,1.119 1.992,2.162 3.1,3.102 0.372,0.316 0.917,0.316 1.291,0.002 l 3.734,-3.147 c 1.353,0.831 2.818,1.436 4.374,1.807 l 0.415,4.871 c 0.042,0.486 0.428,0.872 0.915,0.912 0.726,0.06 1.463,0.089 2.192,0.089 0.729,0 1.467,-0.029 2.194,-0.089 0.486,-0.04 0.873,-0.426 0.914,-0.912 l 0.416,-4.871 c 1.556,-0.37 3.021,-0.976 4.373,-1.807 l 3.735,3.147 c 0.373,0.314 0.918,0.313 1.291,-10e-4 1.109,-0.941 2.153,-1.983 3.103,-3.103 0.315,-0.372 0.316,-0.918 0.002,-1.291 l -3.148,-3.734 c 0.831,-1.353 1.436,-2.818 1.806,-4.373 l 4.872,-0.417 c 0.486,-0.041 0.871,-0.428 0.912,-0.913 0.119,-1.448 0.119,-2.924 0,-4.387 -0.04,-0.486 -0.426,-0.873 -0.912,-0.914 l -4.872,-0.415 c -0.37,-1.555 -0.976,-3.02 -1.808,-4.373 l 3.147,-3.736 c 0.314,-0.373 0.314,-0.918 -10e-4,-1.29 -0.934,-1.104 -1.978,-2.148 -3.103,-3.103 -0.373,-0.315 -0.918,-0.317 -1.291,-0.002 l -3.734,3.148 c -1.352,-0.83 -2.817,-1.436 -4.373,-1.806 l -0.381,-4.445 0.745,0.628 c 0.373,0.314 0.917,0.314 1.29,-10e-4 1.111,-0.94 2.155,-1.983 3.102,-3.102 0.315,-0.372 0.316,-0.918 0.002,-1.29 l -3.16,-3.752 c 0.748,-1.052 1.391,-2.154 1.919,-3.291 l 4.82,0.862 c 0.475,0.086 0.952,-0.187 1.117,-0.647 0.486,-1.357 0.866,-2.784 1.128,-4.24 0.086,-0.479 -0.187,-0.952 -0.645,-1.117 l -2.587,-0.935 3.142,0.123 c 0.275,0.726 0.618,1.411 1.023,2.045 0.408,0.635 0.887,1.232 1.429,1.784 l -1.887,4.561 c -0.186,0.45 -0.021,0.969 0.392,1.229 1.225,0.77 2.535,1.449 3.897,2.017 0.125,0.052 0.256,0.077 0.385,0.077 0.335,0 0.658,-0.168 0.846,-0.467 l 2.629,-4.17 c 1.511,0.24 3.064,0.165 4.547,-0.215 l 3.009,3.918 c 0.297,0.387 0.83,0.503 1.262,0.274 1.295,-0.688 2.537,-1.484 3.692,-2.367 0.388,-0.296 0.505,-0.829 0.277,-1.26 l -2.301,-4.37 c 0.967,-1.191 1.681,-2.567 2.096,-4.04 l 4.89,-0.647 c 0.483,-0.064 0.851,-0.467 0.868,-0.955 0.058,-1.456 -0.009,-2.93 -0.196,-4.379 z m -56.166,29.149 1.527,-4.224 c 1.398,0.138 2.453,0.137 3.806,0.001 l 1.666,4.609 c 0.028,0.078 0.075,0.141 0.119,0.207 l -3.451,-2.909 c -0.373,-0.315 -0.919,-0.313 -1.291,0.002 -0.839,0.711 -1.625,1.497 -2.376,2.314 z m 12.142,-6.035 c 0.038,-0.018 0.074,-0.041 0.112,-0.059 -0.029,0.08 -0.059,0.159 -0.066,0.247 l -0.004,0.045 z m 10.561,8.933 c 0.369,0.253 0.865,0.231 1.211,-0.06 l 3.645,-3.072 c 0.589,0.535 1.151,1.097 1.68,1.679 l -3.071,3.647 c -0.29,0.345 -0.314,0.84 -0.06,1.211 1.034,1.506 1.729,3.188 2.066,5 0.083,0.442 0.45,0.775 0.898,0.813 l 4.754,0.405 c 0.038,0.793 0.038,1.587 0.001,2.375 l -4.755,0.406 c -0.448,0.038 -0.816,0.371 -0.898,0.813 -0.336,1.812 -1.031,3.495 -2.065,5 -0.255,0.371 -0.23,0.867 0.06,1.211 l 3.072,3.645 c -0.533,0.587 -1.096,1.148 -1.68,1.68 l -3.646,-3.071 c -0.345,-0.291 -0.841,-0.313 -1.211,-0.06 -1.503,1.034 -3.185,1.73 -5,2.066 -0.442,0.083 -0.775,0.45 -0.813,0.898 l -0.406,4.753 c -0.793,0.039 -1.583,0.039 -2.375,0 l -0.405,-4.753 c -0.039,-0.448 -0.372,-0.816 -0.814,-0.898 -1.814,-0.337 -3.497,-1.032 -5.001,-2.066 -0.372,-0.254 -0.867,-0.23 -1.211,0.06 l -3.644,3.071 c -0.584,-0.531 -1.145,-1.093 -1.679,-1.681 l 3.07,-3.644 c 0.29,-0.344 0.315,-0.839 0.06,-1.21 -1.035,-1.509 -1.729,-3.19 -2.065,-5.001 -0.082,-0.442 -0.45,-0.775 -0.898,-0.813 l -4.753,-0.405 c -0.038,-0.791 -0.038,-1.585 0,-2.376 l 4.753,-0.405 c 0.448,-0.038 0.816,-0.371 0.898,-0.813 0.337,-1.812 1.033,-3.494 2.068,-5 0.255,-0.371 0.23,-0.866 -0.06,-1.211 l -3.071,-3.645 c 0.533,-0.587 1.095,-1.148 1.679,-1.68 l 3.643,3.071 c 0.344,0.29 0.839,0.315 1.21,0.06 1.506,-1.033 3.189,-1.728 5.001,-2.065 0.442,-0.083 0.775,-0.45 0.813,-0.898 l 0.403,-4.753 c 0.797,-0.039 1.586,-0.037 2.375,-10e-4 l 0.407,4.754 c 0.038,0.448 0.371,0.816 0.813,0.898 1.815,0.336 3.498,1.032 5.001,2.065 z m -9.141,-9.675 c 0.636,-0.359 1.263,-0.744 1.871,-1.177 l 1.385,1.168 c -1.079,-0.061 -2.169,-0.061 -3.256,0.009 z m 13.1,-10.71 -4.748,-0.849 c -0.466,-0.084 -0.92,0.168 -1.1,0.601 -0.614,1.478 -1.442,2.9 -2.463,4.229 -0.286,0.373 -0.274,0.894 0.028,1.253 l 3.115,3.699 c -0.533,0.587 -1.095,1.148 -1.68,1.679 l -3.696,-3.116 c -0.359,-0.304 -0.88,-0.314 -1.253,-0.029 -1.336,1.026 -2.759,1.854 -4.229,2.462 -0.434,0.18 -0.685,0.637 -0.602,1.1 l 0.848,4.749 c -0.747,0.238 -1.514,0.442 -2.293,0.609 l -1.644,-4.547 c -0.145,-0.4 -0.524,-0.66 -0.94,-0.66 -0.043,0 -0.086,0.003 -0.129,0.009 -1.835,0.237 -2.976,0.244 -4.895,-0.001 -0.468,-0.058 -0.908,0.212 -1.066,0.652 l -1.644,4.547 c -0.78,-0.167 -1.546,-0.371 -2.293,-0.609 l 0.847,-4.749 c 0.083,-0.462 -0.167,-0.919 -0.601,-1.1 -1.474,-0.612 -2.896,-1.44 -4.228,-2.462 -0.372,-0.286 -0.893,-0.274 -1.253,0.029 l -3.698,3.115 c -0.586,-0.532 -1.148,-1.094 -1.68,-1.679 l 3.117,-3.697 c 0.303,-0.359 0.314,-0.881 0.028,-1.253 -1.02,-1.33 -1.849,-2.752 -2.462,-4.229 -0.18,-0.434 -0.634,-0.688 -1.099,-0.601 l -4.75,0.849 c -0.238,-0.748 -0.442,-1.515 -0.609,-2.295 l 4.548,-1.643 c 0.441,-0.159 0.712,-0.605 0.652,-1.07 -0.121,-0.927 -0.177,-1.705 -0.177,-2.446 0,-0.747 0.057,-1.523 0.178,-2.443 0.061,-0.466 -0.21,-0.912 -0.651,-1.071 l -4.549,-1.645 c 0.167,-0.78 0.371,-1.548 0.609,-2.294 l 4.75,0.849 c 0.458,0.083 0.919,-0.167 1.099,-0.601 0.613,-1.476 1.441,-2.899 2.463,-4.23 0.286,-0.373 0.274,-0.895 -0.029,-1.253 l -3.117,-3.696 c 0.531,-0.585 1.093,-1.147 1.68,-1.68 l 3.698,3.118 c 0.361,0.303 0.882,0.315 1.254,0.028 1.325,-1.02 2.747,-1.849 4.228,-2.465 0.433,-0.18 0.683,-0.637 0.6,-1.099 l -0.847,-4.748 c 0.75,-0.24 1.517,-0.443 2.293,-0.61 l 1.644,4.549 c 0.159,0.44 0.604,0.71 1.067,0.652 1.89,-0.242 3.011,-0.242 4.895,0 0.466,0.061 0.909,-0.211 1.068,-0.652 l 1.644,-4.549 c 0.779,0.167 1.546,0.371 2.293,0.61 l -0.848,4.749 c -0.083,0.462 0.167,0.919 0.601,1.099 1.478,0.615 2.901,1.443 4.23,2.463 0.374,0.287 0.894,0.275 1.253,-0.029 l 3.696,-3.115 c 0.586,0.532 1.148,1.093 1.68,1.678 l -3.115,3.698 c -0.303,0.359 -0.314,0.88 -0.028,1.253 1.02,1.331 1.85,2.754 2.462,4.23 0.18,0.433 0.635,0.685 1.1,0.601 l 4.748,-0.849 c 0.238,0.747 0.442,1.514 0.61,2.294 l -4.549,1.643 c -0.441,0.16 -0.713,0.605 -0.651,1.071 0.121,0.922 0.178,1.7 0.178,2.446 0,0.745 -0.057,1.522 -0.177,2.445 -0.062,0.466 0.21,0.911 0.651,1.07 l 4.548,1.643 c -0.169,0.778 -0.372,1.546 -0.61,2.293 z m 23.009,-7.574 c -0.42,0.055 -0.759,0.369 -0.847,0.782 -0.346,1.616 -1.123,3.115 -2.249,4.335 -0.288,0.311 -0.348,0.77 -0.15,1.144 l 2.219,4.213 c -0.644,0.457 -1.312,0.886 -1.999,1.281 l -2.9,-3.776 c -0.258,-0.336 -0.702,-0.472 -1.102,-0.342 -1.579,0.512 -3.276,0.593 -4.879,0.232 -0.412,-0.094 -0.84,0.084 -1.065,0.442 l -2.534,4.02 c -0.724,-0.331 -1.43,-0.696 -2.11,-1.091 l 1.82,-4.4 c 0.162,-0.392 0.06,-0.842 -0.255,-1.125 -0.625,-0.563 -1.164,-1.193 -1.6,-1.87 -0.432,-0.676 -0.778,-1.429 -1.032,-2.237 -0.126,-0.403 -0.492,-0.684 -0.915,-0.7 l -4.757,-0.187 c -0.073,-0.788 -0.11,-1.582 -0.109,-2.374 l 4.713,-0.623 c 0.42,-0.055 0.76,-0.369 0.848,-0.784 0.342,-1.614 1.12,-3.113 2.249,-4.334 0.288,-0.311 0.348,-0.77 0.15,-1.145 l -2.219,-4.21 c 0.644,-0.456 1.312,-0.885 1.998,-1.281 l 2.901,3.776 c 0.258,0.336 0.7,0.471 1.102,0.342 1.575,-0.513 3.272,-0.594 4.875,-0.23 0.415,0.092 0.841,-0.083 1.066,-0.442 l 2.536,-4.022 c 0.719,0.33 1.425,0.695 2.111,1.093 l -1.821,4.396 c -0.162,0.391 -0.06,0.84 0.253,1.124 0.632,0.573 1.172,1.204 1.603,1.875 0.429,0.668 0.775,1.421 1.03,2.237 0.126,0.404 0.492,0.685 0.915,0.701 l 4.759,0.186 c 0.074,0.788 0.11,1.58 0.108,2.37 z"
           id="path11882" />
        <path
           inkscape:connector-curvature="0"
           d="m 300.083,419.853 c 0,3.113 2.533,5.646 5.646,5.646 3.114,0 5.648,-2.533 5.648,-5.646 0,-3.114 -2.533,-5.647 -5.648,-5.647 -3.113,-0.001 -5.646,2.532 -5.646,5.647 z m 9.294,0 c 0,2.011 -1.637,3.646 -3.648,3.646 -2.011,0 -3.646,-1.636 -3.646,-3.646 0,-2.011 1.636,-3.647 3.646,-3.647 2.01,0 3.648,1.636 3.648,3.647 z"
           id="path11884" />
        <path
           inkscape:connector-curvature="0"
           d="m 293.863,371.589 c -1.244,0 -2.455,0.234 -3.599,0.697 -0.256,0.103 -0.379,0.395 -0.276,0.651 0.103,0.256 0.396,0.38 0.651,0.276 1.024,-0.414 2.109,-0.624 3.224,-0.624 4.75,0 8.613,3.864 8.613,8.613 0,4.75 -3.864,8.614 -8.613,8.614 -4.75,0 -8.614,-3.864 -8.614,-8.614 0,-1.684 0.486,-3.314 1.405,-4.716 0.151,-0.231 0.087,-0.541 -0.144,-0.692 -0.23,-0.151 -0.54,-0.086 -0.692,0.144 -1.027,1.565 -1.569,3.386 -1.569,5.265 0,5.301 4.313,9.614 9.614,9.614 5.301,0 9.613,-4.313 9.613,-9.614 10e-4,-5.302 -4.312,-9.614 -9.613,-9.614 z"
           id="path11886" />
        <path
           inkscape:connector-curvature="0"
           d="m 296.117,419.851 c 0,5.302 4.313,9.614 9.614,9.614 2.709,0 5.307,-1.152 7.127,-3.161 0.185,-0.205 0.17,-0.522 -0.034,-0.706 -0.203,-0.185 -0.521,-0.17 -0.706,0.034 -1.632,1.801 -3.959,2.833 -6.387,2.833 -4.75,0 -8.614,-3.864 -8.614,-8.614 0,-4.749 3.864,-8.613 8.614,-8.613 4.749,0 8.613,3.864 8.613,8.613 0,0.582 -0.059,1.164 -0.174,1.73 -0.055,0.271 0.12,0.534 0.391,0.59 0.267,0.056 0.534,-0.119 0.59,-0.391 0.128,-0.632 0.193,-1.281 0.193,-1.93 0,-5.301 -4.312,-9.613 -9.613,-9.613 -5.301,0 -9.614,4.313 -9.614,9.614 z"
           id="path11888" />
      </g>
      <g
         transform="matrix(0.26458333,0,0,0.26458333,62.208651,49.192028)"
         id="g11985">
        <path
           inkscape:connector-curvature="0"
           d="m 108,68.204 c -14.247,0.001 -25.903,11.545 -25.907,25.801 -0.001,5.948 0.965,10.316 2.443,13.728 2.222,5.123 5.558,8.021 8.143,10.902 1.298,1.443 2.416,2.877 3.215,4.592 0.798,1.715 1.295,3.727 1.297,6.398 0,0.63 0.19,1.214 0.512,1.702 -0.66,0.572 -1.093,1.454 -1.093,2.454 v 0.342 c 0,0.549 0.122,1.074 0.351,1.531 -0.229,0.461 -0.351,0.998 -0.351,1.576 v 0.342 c 0,0.561 0.123,1.088 0.354,1.549 -0.231,0.459 -0.354,0.973 -0.354,1.502 v 0.34 c 0,0.811 0.278,1.58 0.783,2.162 0.09,0.104 0.2,0.189 0.323,0.25 1.088,0.535 1.825,1.156 2.538,1.756 1.627,1.373 3.163,2.666 7.746,2.666 4.583,0 6.12,-1.293 7.745,-2.666 0.714,-0.6 1.451,-1.221 2.539,-1.756 0.123,-0.061 0.234,-0.146 0.325,-0.252 0.503,-0.582 0.781,-1.35 0.781,-2.158 v -0.342 c 0,-0.529 -0.123,-1.043 -0.354,-1.502 0.231,-0.461 0.354,-0.988 0.354,-1.549 v -0.342 c 0,-0.578 -0.123,-1.115 -0.351,-1.576 0.228,-0.457 0.351,-0.982 0.351,-1.531 v -0.342 c 0,-1 -0.434,-1.882 -1.094,-2.455 0.322,-0.488 0.513,-1.071 0.513,-1.701 0.007,-3.564 0.876,-5.951 2.196,-8.029 0.993,-1.559 2.271,-2.94 3.662,-4.414 2.083,-2.209 4.423,-4.637 6.218,-8.215 1.799,-3.577 3.023,-8.271 3.021,-14.962 C 133.903,79.749 122.247,68.205 108,68.204 Z m 9.328,65.919 c 0,0.334 -0.104,0.639 -0.288,0.836 -0.375,0.402 -0.366,1.029 0.02,1.424 0.173,0.176 0.268,0.477 0.268,0.848 v 0.342 c 0,0.342 -0.104,0.646 -0.284,0.838 -0.364,0.389 -0.372,0.992 -0.019,1.391 0.192,0.217 0.303,0.518 0.303,0.822 v 0.342 c 0,0.246 -0.064,0.482 -0.181,0.674 -1.188,0.617 -2.005,1.305 -2.729,1.916 -1.446,1.219 -2.588,2.18 -6.418,2.18 -3.829,0 -4.972,-0.961 -6.418,-2.18 -0.725,-0.611 -1.54,-1.299 -2.73,-1.918 -0.115,-0.189 -0.18,-0.426 -0.18,-0.674 v -0.34 c 0,-0.305 0.111,-0.605 0.304,-0.822 0.354,-0.398 0.345,-1.002 -0.02,-1.391 -0.181,-0.191 -0.284,-0.496 -0.284,-0.838 v -0.342 c 0,-0.371 0.095,-0.672 0.269,-0.848 0.385,-0.395 0.395,-1.021 0.02,-1.424 -0.184,-0.197 -0.288,-0.502 -0.288,-0.836 v -0.342 c 0,-0.564 0.351,-1.062 0.753,-1.062 h 0.859 15.432 0.86 c 0.4,0 0.752,0.498 0.752,1.062 v 0.342 z m 12.242,-27.209 c -2.025,4.676 -5.06,7.325 -7.782,10.344 -1.355,1.506 -2.625,3.109 -3.552,5.098 -0.929,1.984 -1.491,4.34 -1.489,7.27 -0.002,0.57 -0.463,1.031 -1.031,1.031 h -15.432 c -0.568,0 -1.03,-0.461 -1.031,-1.031 0.007,-3.906 -1.011,-6.791 -2.521,-9.141 -1.129,-1.766 -2.505,-3.234 -3.9,-4.717 -2.098,-2.223 -4.236,-4.461 -5.875,-7.725 -1.635,-3.266 -2.799,-7.59 -2.802,-14.038 0,-6.555 2.682,-12.483 7.004,-16.784 4.327,-4.299 10.284,-6.955 16.842,-6.955 6.557,0 12.516,2.656 16.841,6.955 4.323,4.3 7.004,10.229 7.004,16.784 -0.003,5.73 -0.925,9.787 -2.276,12.909 z"
           id="path11969" />
        <path
           inkscape:connector-curvature="0"
           d="m 127.1,104.807 c -0.259,-0.107 -0.565,0.018 -0.673,0.282 -0.157,0.384 -0.323,0.754 -0.498,1.109 -0.124,0.256 -0.019,0.564 0.237,0.69 0.072,0.036 0.148,0.054 0.227,0.054 0.19,0 0.373,-0.107 0.463,-0.29 0.185,-0.375 0.358,-0.766 0.524,-1.173 0.109,-0.264 -0.017,-0.564 -0.28,-0.672 z"
           id="path11971" />
        <path
           inkscape:connector-curvature="0"
           d="m 128.631,97.412 c -0.282,-0.025 -0.533,0.183 -0.561,0.466 -0.055,0.591 -0.121,1.159 -0.199,1.703 -0.078,0.543 -0.169,1.061 -0.271,1.56 -0.101,0.498 -0.213,0.975 -0.333,1.432 -0.072,0.275 0.092,0.557 0.366,0.629 0.045,0.012 0.089,0.018 0.132,0.018 0.229,0 0.439,-0.153 0.499,-0.385 0.126,-0.476 0.242,-0.973 0.348,-1.489 0.106,-0.517 0.198,-1.055 0.279,-1.618 0.081,-0.561 0.149,-1.146 0.206,-1.755 0.026,-0.284 -0.182,-0.535 -0.466,-0.561 z"
           id="path11973" />
        <path
           inkscape:connector-curvature="0"
           d="m 128.834,89.745 c -0.141,-0.685 -0.317,-1.367 -0.525,-2.026 -0.204,-0.655 -0.447,-1.31 -0.717,-1.944 -0.266,-0.628 -0.568,-1.251 -0.896,-1.851 -0.326,-0.596 -0.685,-1.183 -1.067,-1.745 -0.386,-0.567 -0.798,-1.116 -1.225,-1.628 -0.429,-0.516 -0.89,-1.021 -1.373,-1.503 -0.478,-0.476 -0.986,-0.936 -1.511,-1.366 -0.527,-0.435 -1.079,-0.845 -1.638,-1.22 -0.231,-0.157 -0.555,-0.096 -0.715,0.14 -0.159,0.237 -0.096,0.557 0.141,0.716 0.531,0.356 1.055,0.746 1.558,1.161 0.499,0.41 0.982,0.848 1.438,1.3 0.46,0.458 0.899,0.939 1.308,1.431 0.405,0.487 0.797,1.009 1.166,1.549 0.362,0.535 0.705,1.093 1.015,1.661 0.312,0.57 0.6,1.162 0.853,1.759 0.258,0.603 0.487,1.225 0.681,1.849 0.198,0.627 0.366,1.274 0.499,1.925 0.138,0.668 0.24,1.34 0.309,1.997 0.068,0.679 0.104,1.37 0.104,2.056 0,0.285 0.23,0.516 0.516,0.516 0.285,0 0.516,-0.231 0.516,-0.516 0,-0.72 -0.037,-1.447 -0.11,-2.16 -0.074,-0.692 -0.182,-1.398 -0.327,-2.101 z"
           id="path11975" />
        <path
           inkscape:connector-curvature="0"
           d="m 118.526,94.62 c -0.401,-0.142 -0.844,0.068 -0.985,0.471 l -0.512,1.448 c -0.63,-0.061 -0.96,-0.416 -1.318,-0.839 l -0.161,-0.188 c -0.066,-0.076 -0.121,-0.157 -0.174,-0.234 -0.203,-0.294 -0.509,-0.738 -1.199,-0.738 -0.718,0 -1.078,0.485 -1.314,0.807 -0.045,0.06 -0.09,0.12 -0.134,0.175 l -0.108,0.131 c -0.384,0.468 -0.746,0.91 -1.543,0.91 -0.852,0 -1.224,-0.488 -1.629,-1.022 -0.048,-0.061 -0.09,-0.13 -0.134,-0.201 -0.211,-0.33 -0.562,-0.883 -1.287,-0.883 -0.703,0 -1.062,0.538 -1.277,0.86 -0.05,0.074 -0.095,0.144 -0.143,0.2 l -0.135,0.161 c -0.379,0.456 -0.737,0.886 -1.512,0.886 -0.86,0 -1.277,-0.474 -1.604,-0.987 l -0.079,-0.131 c -0.223,-0.37 -0.594,-0.988 -1.379,-0.988 -0.753,0 -1.119,0.59 -1.338,0.943 l -0.102,0.157 c -0.356,0.508 -0.75,0.956 -1.523,0.993 L 98.459,95.203 C 98.316,94.8 97.876,94.591 97.472,94.732 97.07,94.875 96.859,95.316 97,95.719 l 4.695,13.28 c 0.248,0.695 0.49,1.916 0.529,2.664 l 0.761,14.555 c 0.021,0.414 0.363,0.734 0.771,0.734 0.014,0 0.026,0 0.04,0 0.428,-0.024 0.755,-0.387 0.733,-0.814 l -0.761,-14.557 c -0.047,-0.896 -0.318,-2.26 -0.616,-3.1 L 99.29,97.557 c 1.143,-0.175 1.72,-0.991 2.013,-1.408 0.042,-0.061 0.085,-0.131 0.132,-0.205 0.199,-0.321 0.307,-0.455 0.462,-0.455 0.171,0 0.278,0.128 0.495,0.488 l 0.092,0.151 c 0.399,0.63 1.088,1.467 2.475,1.467 1.258,0 1.887,-0.757 2.304,-1.257 l 0.124,-0.149 c 0.074,-0.085 0.146,-0.189 0.22,-0.299 0.197,-0.296 0.29,-0.401 0.419,-0.401 0.137,0 0.22,0.096 0.416,0.404 0.062,0.096 0.12,0.189 0.196,0.29 0.428,0.562 1.073,1.413 2.438,1.413 1.286,0 1.921,-0.775 2.341,-1.288 l 0.103,-0.124 c 0.059,-0.071 0.114,-0.146 0.17,-0.222 0.227,-0.306 0.313,-0.389 0.486,-0.389 0.13,0 0.16,0.018 0.348,0.292 0.077,0.11 0.155,0.223 0.251,0.33 l 0.149,0.173 c 0.37,0.438 0.862,1.008 1.749,1.175 l -3.828,10.825 c -0.298,0.84 -0.568,2.203 -0.615,3.102 l -0.762,14.557 c -0.021,0.428 0.305,0.793 0.732,0.814 0.015,0 0.027,0 0.041,0 0.407,0 0.75,-0.32 0.771,-0.732 l 0.761,-14.559 c 0.039,-0.746 0.282,-1.967 0.529,-2.666 l 4.695,-13.276 c 0.144,-0.404 -0.066,-0.845 -0.471,-0.988 z"
           id="path11977" />
        <path
           inkscape:connector-curvature="0"
           d="m 102.121,136.264 h 9.775 c 0.285,0 0.516,-0.229 0.516,-0.516 0,-0.283 -0.23,-0.516 -0.516,-0.516 h -9.775 c -0.285,0 -0.516,0.232 -0.516,0.516 0,0.287 0.231,0.516 0.516,0.516 z"
           id="path11979" />
        <path
           inkscape:connector-curvature="0"
           d="m 115.046,138.549 h -13.899 c -0.285,0 -0.516,0.232 -0.516,0.516 0,0.287 0.23,0.516 0.516,0.516 h 13.899 c 0.285,0 0.516,-0.229 0.516,-0.516 0,-0.284 -0.231,-0.516 -0.516,-0.516 z"
           id="path11981" />
        <path
           inkscape:connector-curvature="0"
           d="m 111.952,141.867 h -7.712 c -0.285,0 -0.516,0.23 -0.516,0.516 0,0.285 0.231,0.516 0.516,0.516 h 7.712 c 0.285,0 0.516,-0.23 0.516,-0.516 0,-0.285 -0.231,-0.516 -0.516,-0.516 z"
           id="path11983" />
      </g>
      <g
         transform="matrix(0.26458333,0,0,0.26458333,29.242208,49.520081)"
         id="g12066">
        <path
           inkscape:connector-curvature="0"
           d="m 112.481,90.406 c 0,-9.44 -7.681,-17.121 -17.121,-17.121 -9.44,0 -17.121,7.681 -17.121,17.121 0,9.44 7.681,17.12 17.121,17.12 9.441,0 17.121,-7.68 17.121,-17.12 z m -32.742,0 c 0,-8.613 7.008,-15.621 15.621,-15.621 8.613,0 15.621,7.008 15.621,15.621 0,8.613 -7.008,15.62 -15.621,15.62 -8.613,0 -15.621,-7.007 -15.621,-15.62 z"
           id="path12058" />
        <path
           inkscape:connector-curvature="0"
           d="m 106.425,85.156 c 0.128,0.271 0.397,0.428 0.678,0.428 0.108,0 0.218,-0.024 0.321,-0.073 0.375,-0.178 0.533,-0.625 0.356,-0.999 -2.267,-4.77 -7.142,-7.851 -12.419,-7.851 -0.414,0 -0.75,0.336 -0.75,0.75 0,0.414 0.336,0.75 0.75,0.75 4.701,0.001 9.045,2.746 11.064,6.995 z"
           id="path12060" />
        <path
           inkscape:connector-curvature="0"
           d="m 140.806,138.581 -22.97,-28.564 c -0.625,-0.776 -1.077,-0.866 -1.363,-0.866 -0.229,0 -0.484,0.089 -0.662,0.231 l -0.2,0.161 -4.533,-5.635 c 3.126,-3.633 5.029,-8.345 5.029,-13.502 0,-11.439 -9.307,-20.746 -20.746,-20.746 -11.439,0 -20.745,9.307 -20.745,20.746 0,11.438 9.306,20.745 20.745,20.745 3.356,0 6.518,-0.819 9.326,-2.24 l 4.599,5.719 -0.21,0.169 c -0.275,0.224 -0.809,0.876 0.188,2.112 l 22.971,28.565 c 0.625,0.774 1.076,0.864 1.362,0.864 0.228,0 0.483,-0.089 0.661,-0.231 l 6.732,-5.412 c 0.207,-0.166 0.36,-0.45 0.389,-0.715 0.016,-0.151 0.065,-0.609 -0.573,-1.401 z M 76.615,90.406 c 0,-10.336 8.409,-18.746 18.745,-18.746 10.336,0 18.746,8.41 18.746,18.746 0,4.951 -1.944,9.448 -5.091,12.802 l -4.095,3.293 c -2.804,1.672 -6.066,2.65 -9.56,2.65 C 85.024,109.15 76.615,100.742 76.615,90.406 Z m 33.073,14.966 4.071,5.062 -3.207,2.579 -4.104,-5.103 c 1.163,-0.74 2.248,-1.588 3.24,-2.538 z m 23.956,38.664 -22.673,-28.195 5.454,-4.387 22.674,28.195 z"
           id="path12062" />
        <path
           inkscape:connector-curvature="0"
           d="m 135.005,137.969 c 0.147,0.185 0.365,0.28 0.584,0.28 0.165,0 0.331,-0.054 0.47,-0.166 0.323,-0.259 0.374,-0.731 0.114,-1.054 l -8.549,-10.63 c -0.258,-0.323 -0.73,-0.375 -1.054,-0.114 -0.323,0.259 -0.374,0.731 -0.114,1.054 z"
           id="path12064" />
      </g>
    </g>
  </g>
</svg>
