<?xml version="1.0" encoding="UTF-8" standalone="no"?>
<!-- Created with Inkscape (http://www.inkscape.org/) -->

<svg
   xmlns:dc="http://purl.org/dc/elements/1.1/"
   xmlns:cc="http://creativecommons.org/ns#"
   xmlns:rdf="http://www.w3.org/1999/02/22-rdf-syntax-ns#"
   xmlns:svg="http://www.w3.org/2000/svg"
   xmlns="http://www.w3.org/2000/svg"
   xmlns:sodipodi="http://sodipodi.sourceforge.net/DTD/sodipodi-0.dtd"
   xmlns:inkscape="http://www.inkscape.org/namespaces/inkscape"
   width="166.26982mm"
   height="14.268602mm"
   viewBox="0 0 166.26982 14.268602"
   version="1.1"
   id="svg8"
   inkscape:version="0.92.3 (2405546, 2018-03-11)"
   sodipodi:docname="linking.svg">
  <defs
     id="defs2" />
  <sodipodi:namedview
     id="base"
     pagecolor="#ffffff"
     bordercolor="#666666"
     borderopacity="1.0"
     inkscape:pageopacity="0.0"
     inkscape:pageshadow="2"
     inkscape:zoom="1.4"
     inkscape:cx="356.19603"
     inkscape:cy="-77.161433"
     inkscape:document-units="mm"
     inkscape:current-layer="layer1"
     showgrid="false"
     fit-margin-top="0"
     fit-margin-left="0"
     fit-margin-right="0"
     fit-margin-bottom="0"
     inkscape:window-width="1920"
     inkscape:window-height="1060"
     inkscape:window-x="0"
     inkscape:window-y="0"
     inkscape:window-maximized="1" />
  <metadata
     id="metadata5">
    <rdf:RDF>
      <cc:Work
         rdf:about="">
        <dc:format>image/svg+xml</dc:format>
        <dc:type
           rdf:resource="http://purl.org/dc/dcmitype/StillImage" />
        <dc:title></dc:title>
      </cc:Work>
    </rdf:RDF>
  </metadata>
  <g
     inkscape:label="Layer 1"
     inkscape:groupmode="layer"
     id="layer1"
     transform="translate(-38.262024,-92.397247)">
    <rect
       style="opacity:1;vector-effect:none;fill:#0088ce;fill-opacity:1;stroke:none;stroke-width:1.96168375;stroke-linecap:butt;stroke-linejoin:round;stroke-miterlimit:4;stroke-dasharray:none;stroke-dashoffset:0;stroke-opacity:1"
       id="rect1488"
       width="61.515633"
       height="14.268602"
       x="143.01622"
       y="92.397247"
       ry="0.44589195" />
    <g
       aria-label="container-a"
       style="font-style:normal;font-variant:normal;font-weight:900;font-stretch:normal;font-size:8.46666622px;line-height:1.25;font-family:Overpass;-inkscape-font-specification:'Overpass Heavy';letter-spacing:0px;word-spacing:0px;fill:#ffffff;fill-opacity:1;stroke:none;stroke-width:0.26458332"
       id="text2314">
      <path
         d="m 152.52667,102.65151 c 0.98213,0 1.61713,-0.4826 1.905,-1.46473 l -1.17687,-0.33867 c -0.127,0.4064 -0.37253,0.62653 -0.72813,0.62653 -0.44027,0 -0.77893,-0.4318 -0.77893,-1.08373 0,-0.643465 0.33866,-1.092198 0.79586,-1.092198 0.33867,0 0.5842,0.2286 0.7112,0.5588 l 1.1684,-0.381 c -0.29633,-0.9398 -0.97366,-1.354667 -1.89653,-1.354667 -1.21073,0 -2.02353,0.872067 -2.02353,2.269065 0,1.4224 0.8128,2.2606 2.02353,2.2606 z"
         style="font-size:8.46666622px;fill:#ffffff;stroke-width:0.26458332"
         id="path1544" />
      <path
         d="m 157.22263,102.65151 c 1.2192,0 1.98966,-0.8382 1.98966,-2.2606 0,-1.396998 -0.77046,-2.269065 -1.98966,-2.269065 -1.22767,0 -2.0066,0.872067 -2.0066,2.269065 0,1.4224 0.77893,2.2606 2.0066,2.2606 z m 0,-1.18533 c -0.47414,0 -0.77894,-0.39794 -0.77894,-1.07527 0,-0.677332 0.3048,-1.083732 0.77894,-1.083732 0.4826,0 0.762,0.4064 0.762,1.083732 0,0.67733 -0.2794,1.07527 -0.762,1.07527 z"
         style="font-size:8.46666622px;fill:#ffffff;stroke-width:0.26458332"
         id="path1546" />
      <path
         d="m 162.94834,102.54991 h 1.22767 v -2.810932 c 0,-1.261533 -0.8382,-1.617133 -1.4986,-1.617133 -0.52493,0 -0.9144,0.186267 -1.17687,0.499533 v -0.397933 h -1.22766 v 4.326465 h 1.22766 v -2.26907 c 0,-0.651928 0.22014,-0.973662 0.762,-0.973662 0.508,0 0.6858,0.3048 0.6858,0.990602 z"
         style="font-size:8.46666622px;fill:#ffffff;stroke-width:0.26458332"
         id="path1548" />
      <path
         d="m 166.70304,102.65151 c 0.381,0 0.70274,-0.0593 0.98214,-0.19473 l 0.13546,-1.03294 c -0.26246,0.11854 -0.508,0.16934 -0.74506,0.16934 -0.11854,0 -0.24554,-0.0762 -0.24554,-0.24554 v -2.048928 h 0.9398 v -1.075267 h -0.9398 v -1.786467 l -1.2192,0.5842 v 1.202267 h -0.59266 v 1.075267 h 0.59266 v 2.167468 c 0,0.762 0.32174,1.18533 1.0922,1.18533 z"
         style="font-size:8.46666622px;fill:#ffffff;stroke-width:0.26458332"
         id="path1550" />
      <path
         d="m 171.20294,102.54991 h 1.2192 v -2.734732 c 0,-1.490133 -1.03293,-1.693333 -1.83726,-1.693333 -0.762,0 -1.40547,0.237067 -1.8542,0.541867 l 0.381,0.9398 c 0.4572,-0.3048 0.90593,-0.4572 1.38853,-0.4572 0.42334,0 0.70273,0.2032 0.70273,0.6096 v 0.237066 c -0.24553,-0.110066 -0.52493,-0.1524 -0.94826,-0.1524 -0.85513,0 -1.7526,0.440262 -1.7526,1.388532 0,0.94827 0.7112,1.4224 1.6256,1.4224 0.5588,0 0.8636,-0.19473 1.07526,-0.42333 z m -0.83819,-0.93133 c -0.42334,0 -0.6604,-0.14394 -0.6604,-0.381 0,-0.31327 0.33866,-0.41487 0.762,-0.41487 0.27093,0 0.508,0.0339 0.73659,0.1016 v 0.38947 c -0.20319,0.16086 -0.46566,0.3048 -0.83819,0.3048 z"
         style="font-size:8.46666622px;fill:#ffffff;stroke-width:0.26458332"
         id="path1552" />
      <path
         d="m 174.22779,97.808578 c 0.39794,0 0.70274,-0.321733 0.70274,-0.702733 0,-0.389467 -0.3048,-0.694267 -0.70274,-0.694267 -0.38946,0 -0.7112,0.3048 -0.7112,0.694267 0,0.381 0.32174,0.702733 0.7112,0.702733 z m -0.61806,4.741332 h 1.22766 v -4.326465 h -1.22766 z"
         style="font-size:8.46666622px;fill:#ffffff;stroke-width:0.26458332"
         id="path1554" />
      <path
         d="m 178.79027,102.54991 h 1.22766 v -2.810932 c 0,-1.261533 -0.8382,-1.617133 -1.4986,-1.617133 -0.52493,0 -0.9144,0.186267 -1.17686,0.499533 v -0.397933 h -1.22767 v 4.326465 h 1.22767 v -2.26907 c 0,-0.651928 0.22013,-0.973662 0.762,-0.973662 0.508,0 0.6858,0.3048 0.6858,0.990602 z"
         style="font-size:8.46666622px;fill:#ffffff;stroke-width:0.26458332"
         id="path1556" />
      <path
         d="m 183.08684,102.65151 c 0.74506,0 1.28693,-0.3048 1.68486,-0.7874 l -0.7112,-0.7112 c -0.27093,0.32173 -0.54186,0.4572 -0.97366,0.4572 -0.4572,0 -0.82974,-0.2286 -0.85514,-0.80433 h 2.7686 c 0.0339,-0.22014 0.0339,-0.47414 0.0339,-0.635 0,-1.388535 -0.85513,-2.048935 -1.94733,-2.048935 -1.26154,0 -2.0574,0.872067 -2.0574,2.260595 0,1.4224 0.77893,2.26907 2.0574,2.26907 z m -0.84667,-2.768598 c 0.0593,-0.4572 0.36407,-0.719667 0.79587,-0.719667 0.508,0 0.762,0.262467 0.82126,0.719667 z"
         style="font-size:8.46666622px;fill:#ffffff;stroke-width:0.26458332"
         id="path1558" />
      <path
         d="m 186.05321,102.54991 h 1.22767 v -2.34527 c 0,-0.694262 0.3556,-0.897462 0.74507,-0.897462 0.3556,0 0.57573,0.135467 0.77046,0.296334 l 0.16087,-1.1176 c -0.21167,-0.220134 -0.4826,-0.364067 -0.85513,-0.364067 -0.44874,0 -0.7366,0.321733 -0.82127,0.491067 v -0.389467 h -1.22767 z"
         style="font-size:8.46666622px;fill:#ffffff;stroke-width:0.26458332"
         id="path1560" />
      <path
         d="m 189.80699,100.63644 h 2.30293 v -1.168395 h -2.30293 z"
         style="font-size:8.46666622px;fill:#ffffff;stroke-width:0.26458332"
         id="path1562" />
      <path
         d="m 195.82573,102.54991 h 1.2192 v -2.734732 c 0,-1.490133 -1.03293,-1.693333 -1.83727,-1.693333 -0.762,0 -1.40546,0.237067 -1.8542,0.541867 l 0.381,0.9398 c 0.4572,-0.3048 0.90594,-0.4572 1.38854,-0.4572 0.42333,0 0.70273,0.2032 0.70273,0.6096 v 0.237066 c -0.24553,-0.110066 -0.52493,-0.1524 -0.94827,-0.1524 -0.85513,0 -1.7526,0.440262 -1.7526,1.388532 0,0.94827 0.7112,1.4224 1.6256,1.4224 0.5588,0 0.8636,-0.19473 1.07527,-0.42333 z m -0.8382,-0.93133 c -0.42333,0 -0.6604,-0.14394 -0.6604,-0.381 0,-0.31327 0.33867,-0.41487 0.762,-0.41487 0.27093,0 0.508,0.0339 0.7366,0.1016 v 0.38947 c -0.2032,0.16086 -0.46567,0.3048 -0.8382,0.3048 z"
         style="font-size:8.46666622px;fill:#ffffff;stroke-width:0.26458332"
         id="path1564" />
    </g>
    <g
       id="g1481"
       transform="translate(9.0871639,-26.034691)"
       style="fill:#f0ab00">
      <g
         transform="matrix(-0.35598845,0,0,0.20355564,225.12502,105.13462)"
         id="g1277-7-0-53-5-0"
         style="fill:#f0ab00">
        <rect
           style="opacity:1;vector-effect:none;fill:#f0ab00;fill-opacity:1;stroke:none;stroke-width:1.31701291;stroke-linecap:butt;stroke-linejoin:round;stroke-miterlimit:4;stroke-dasharray:none;stroke-dashoffset:0;stroke-opacity:1"
           id="rect1228-6-3-5-3-6"
           width="20.788691"
           height="10.961308"
           x="89.979294"
           y="332.31668"
           ry="0"
           transform="matrix(0,1,1,0,0,0)" />
        <rect
           style="opacity:1;vector-effect:none;fill:#f0ab00;fill-opacity:1;stroke:none;stroke-width:1.09371972;stroke-linecap:butt;stroke-linejoin:round;stroke-miterlimit:4;stroke-dasharray:none;stroke-dashoffset:0;stroke-opacity:1"
           id="rect1228-2-81-5-6-5-2"
           width="20.788691"
           height="7.5595231"
           x="89.979294"
           y="322.48776"
           ry="0"
           transform="matrix(0,1,1,0,0,0)" />
        <rect
           style="opacity:1;vector-effect:none;fill:#f0ab00;fill-opacity:1;stroke:none;stroke-width:0.64705324;stroke-linecap:butt;stroke-linejoin:round;stroke-miterlimit:4;stroke-dasharray:none;stroke-dashoffset:0;stroke-opacity:1"
           id="rect1228-2-8-3-8-2-6-6"
           width="20.788691"
           height="2.6458325"
           x="89.979294"
           y="317.42145"
           ry="0"
           transform="matrix(0,1,1,0,0,0)" />
      </g>
      <g
         transform="matrix(0.35598846,0,0,0.35598846,-5.389669,93.19826)"
         id="g1364-5-6-5-9-2-1"
         style="fill:#f0ab00">
        <path
           sodipodi:type="star"
           style="opacity:1;vector-effect:none;fill:#f0ab00;fill-opacity:1;stroke:none;stroke-width:2.56500006;stroke-linecap:butt;stroke-linejoin:round;stroke-miterlimit:4;stroke-dasharray:none;stroke-dashoffset:0;stroke-opacity:1"
           id="path1226-3-4-3-1-9-8"
           sodipodi:sides="3"
           sodipodi:cx="325.05951"
           sodipodi:cy="20.321421"
           sodipodi:r1="25.481874"
           sodipodi:r2="12.740937"
           sodipodi:arg1="0.52359878"
           sodipodi:arg2="1.5707963"
           inkscape:flatsided="false"
           inkscape:rounded="0"
           inkscape:randomized="0"
           d="m 347.12746,33.062358 -22.06795,0 -22.06795,0 11.03397,-19.111406 11.03398,-19.1114058 11.03397,19.1114058 z"
           inkscape:transform-center-x="-1.6225302e-06"
           inkscape:transform-center-y="-6.370469"
           transform="matrix(0,0.57180407,-0.52533955,0,358.25346,-94.946121)" />
        <g
           style="fill:#f0ab00"
           id="g1277-7-0-5-2-1-7"
           transform="matrix(1,0,0,0.57180407,-5.1464195,33.530176)">
          <rect
             transform="matrix(0,1,1,0,0,0)"
             ry="0"
             y="332.31668"
             x="89.979294"
             height="10.961308"
             width="20.788691"
             id="rect1228-6-3-6-7-2-9"
             style="opacity:1;vector-effect:none;fill:#f0ab00;fill-opacity:1;stroke:none;stroke-width:1.31701291;stroke-linecap:butt;stroke-linejoin:round;stroke-miterlimit:4;stroke-dasharray:none;stroke-dashoffset:0;stroke-opacity:1" />
          <rect
             transform="matrix(0,1,1,0,0,0)"
             ry="0"
             y="322.48776"
             x="89.979294"
             height="7.5595231"
             width="20.788691"
             id="rect1228-2-81-5-2-0-7-2"
             style="opacity:1;vector-effect:none;fill:#f0ab00;fill-opacity:1;stroke:none;stroke-width:1.09371972;stroke-linecap:butt;stroke-linejoin:round;stroke-miterlimit:4;stroke-dasharray:none;stroke-dashoffset:0;stroke-opacity:1" />
          <rect
             transform="matrix(0,1,1,0,0,0)"
             ry="0"
             y="317.42145"
             x="89.979294"
             height="2.6458325"
             width="20.788691"
             id="rect1228-2-8-3-8-9-9-0-0"
             style="opacity:1;vector-effect:none;fill:#f0ab00;fill-opacity:1;stroke:none;stroke-width:0.64705324;stroke-linecap:butt;stroke-linejoin:round;stroke-miterlimit:4;stroke-dasharray:none;stroke-dashoffset:0;stroke-opacity:1" />
        </g>
      </g>
    </g>
    <rect
       style="opacity:1;vector-effect:none;fill:#0088ce;fill-opacity:1;stroke:none;stroke-width:1.96168375;stroke-linecap:butt;stroke-linejoin:round;stroke-miterlimit:4;stroke-dasharray:none;stroke-dashoffset:0;stroke-opacity:1"
       id="rect1488-3"
       width="61.515633"
       height="14.268602"
       x="38.262024"
       y="92.397247"
       ry="0.44589195" />
    <g
       aria-label="container-b"
       style="font-style:normal;font-variant:normal;font-weight:900;font-stretch:normal;font-size:8.46666622px;line-height:1.25;font-family:Overpass;-inkscape-font-specification:'Overpass Heavy';letter-spacing:0px;word-spacing:0px;fill:#ffffff;fill-opacity:1;stroke:none;stroke-width:0.26458332"
       id="text2314-6">
      <path
         d="m 47.772474,102.65151 c 0.982133,0 1.617133,-0.4826 1.905,-1.46473 l -1.176867,-0.33867 c -0.127,0.4064 -0.372533,0.62653 -0.728133,0.62653 -0.440267,0 -0.778933,-0.4318 -0.778933,-1.08373 0,-0.643465 0.338666,-1.092198 0.795866,-1.092198 0.338667,0 0.5842,0.2286 0.7112,0.5588 l 1.1684,-0.381 c -0.296333,-0.9398 -0.973667,-1.354667 -1.896533,-1.354667 -1.210733,0 -2.023533,0.872067 -2.023533,2.269065 0,1.4224 0.8128,2.2606 2.023533,2.2606 z"
         style="font-size:8.46666622px;fill:#ffffff;stroke-width:0.26458332"
         id="path1521" />
      <path
         d="m 52.468431,102.65151 c 1.2192,0 1.989666,-0.8382 1.989666,-2.2606 0,-1.396998 -0.770466,-2.269065 -1.989666,-2.269065 -1.227667,0 -2.0066,0.872067 -2.0066,2.269065 0,1.4224 0.778933,2.2606 2.0066,2.2606 z m 0,-1.18533 c -0.474134,0 -0.778934,-0.39794 -0.778934,-1.07527 0,-0.677332 0.3048,-1.083732 0.778934,-1.083732 0.4826,0 0.762,0.4064 0.762,1.083732 0,0.67733 -0.2794,1.07527 -0.762,1.07527 z"
         style="font-size:8.46666622px;fill:#ffffff;stroke-width:0.26458332"
         id="path1523" />
      <path
         d="m 58.194146,102.54991 h 1.227666 v -2.810932 c 0,-1.261533 -0.838199,-1.617133 -1.498599,-1.617133 -0.524934,0 -0.9144,0.186267 -1.176867,0.499533 v -0.397933 h -1.227667 v 4.326465 h 1.227667 v -2.26907 c 0,-0.651928 0.220133,-0.973662 0.762,-0.973662 0.508,0 0.6858,0.3048 0.6858,0.990602 z"
         style="font-size:8.46666622px;fill:#ffffff;stroke-width:0.26458332"
         id="path1525" />
      <path
         d="m 61.948848,102.65151 c 0.381,0 0.702733,-0.0593 0.982133,-0.19473 l 0.135467,-1.03294 c -0.262467,0.11854 -0.508,0.16934 -0.745067,0.16934 -0.118533,0 -0.245533,-0.0762 -0.245533,-0.24554 v -2.048928 h 0.9398 v -1.075267 h -0.9398 v -1.786467 l -1.2192,0.5842 v 1.202267 h -0.592667 v 1.075267 h 0.592667 v 2.167468 c 0,0.762 0.321733,1.18533 1.0922,1.18533 z"
         style="font-size:8.46666622px;fill:#ffffff;stroke-width:0.26458332"
         id="path1527" />
      <path
         d="m 66.448749,102.54991 h 1.2192 v -2.734732 c 0,-1.490133 -1.032934,-1.693333 -1.837267,-1.693333 -0.762,0 -1.405466,0.237067 -1.8542,0.541867 l 0.381,0.9398 c 0.4572,-0.3048 0.905934,-0.4572 1.388534,-0.4572 0.423333,0 0.702733,0.2032 0.702733,0.6096 v 0.237066 c -0.245533,-0.110066 -0.524933,-0.1524 -0.948267,-0.1524 -0.855133,0 -1.7526,0.440262 -1.7526,1.388532 0,0.94827 0.7112,1.4224 1.6256,1.4224 0.5588,0 0.8636,-0.19473 1.075267,-0.42333 z m -0.8382,-0.93133 c -0.423333,0 -0.6604,-0.14394 -0.6604,-0.381 0,-0.31327 0.338667,-0.41487 0.762,-0.41487 0.270933,0 0.508,0.0339 0.7366,0.1016 v 0.38947 c -0.2032,0.16086 -0.465667,0.3048 -0.8382,0.3048 z"
         style="font-size:8.46666622px;fill:#ffffff;stroke-width:0.26458332"
         id="path1529" />
      <path
         d="m 69.473598,97.808578 c 0.397933,0 0.702733,-0.321733 0.702733,-0.702733 0,-0.389467 -0.3048,-0.694267 -0.702733,-0.694267 -0.389467,0 -0.7112,0.3048 -0.7112,0.694267 0,0.381 0.321733,0.702733 0.7112,0.702733 z m -0.618067,4.741332 h 1.227667 v -4.326465 h -1.227667 z"
         style="font-size:8.46666622px;fill:#ffffff;stroke-width:0.26458332"
         id="path1531" />
      <path
         d="m 74.036072,102.54991 h 1.227666 v -2.810932 c 0,-1.261533 -0.8382,-1.617133 -1.4986,-1.617133 -0.524933,0 -0.9144,0.186267 -1.176866,0.499533 v -0.397933 h -1.227667 v 4.326465 h 1.227667 v -2.26907 c 0,-0.651928 0.220133,-0.973662 0.762,-0.973662 0.508,0 0.6858,0.3048 0.6858,0.990602 z"
         style="font-size:8.46666622px;fill:#ffffff;stroke-width:0.26458332"
         id="path1533" />
      <path
         d="m 78.332641,102.65151 c 0.745067,0 1.286933,-0.3048 1.684867,-0.7874 l -0.7112,-0.7112 c -0.270934,0.32173 -0.541867,0.4572 -0.973667,0.4572 -0.4572,0 -0.829733,-0.2286 -0.855133,-0.80433 h 2.768599 c 0.03387,-0.22014 0.03387,-0.47414 0.03387,-0.635 0,-1.388535 -0.855133,-2.048935 -1.947333,-2.048935 -1.261533,0 -2.0574,0.872067 -2.0574,2.260595 0,1.4224 0.778933,2.26907 2.0574,2.26907 z m -0.846667,-2.768598 c 0.05927,-0.4572 0.364067,-0.719667 0.795867,-0.719667 0.508,0 0.762,0.262467 0.821267,0.719667 z"
         style="font-size:8.46666622px;fill:#ffffff;stroke-width:0.26458332"
         id="path1535" />
      <path
         d="m 81.299017,102.54991 h 1.227666 v -2.34527 c 0,-0.694262 0.3556,-0.897462 0.745067,-0.897462 0.3556,0 0.575733,0.135467 0.770467,0.296334 l 0.160866,-1.1176 c -0.211666,-0.220134 -0.4826,-0.364067 -0.855133,-0.364067 -0.448733,0 -0.7366,0.321733 -0.821267,0.491067 v -0.389467 h -1.227666 z"
         style="font-size:8.46666622px;fill:#ffffff;stroke-width:0.26458332"
         id="path1537" />
      <path
         d="m 85.052793,100.63644 h 2.302933 v -1.168395 h -2.302933 z"
         style="font-size:8.46666622px;fill:#ffffff;stroke-width:0.26458332"
         id="path1539" />
      <path
         d="m 90.648199,102.65151 c 1.134533,0 1.862667,-0.80433 1.862667,-2.26907 0,-1.388528 -0.778934,-2.260595 -1.794933,-2.260595 -0.4064,0 -0.6858,0.169333 -0.8636,0.414867 v -2.099734 l -1.227667,0.550334 v 5.562598 h 1.227667 v -0.3302 c 0.186266,0.31327 0.4318,0.4318 0.795866,0.4318 z m -0.135466,-1.18533 c -0.347134,0 -0.516467,-0.0847 -0.6604,-0.27094 v -1.608662 c 0.110066,-0.135466 0.313266,-0.2794 0.6604,-0.2794 0.491066,0 0.770466,0.381 0.770466,1.075262 0,0.66887 -0.262467,1.08374 -0.770466,1.08374 z"
         style="font-size:8.46666622px;fill:#ffffff;stroke-width:0.26458332"
         id="path1541" />
    </g>
    <flowRoot
       xml:space="preserve"
       id="flowRoot1513"
       style="font-style:normal;font-variant:normal;font-weight:900;font-stretch:normal;font-size:40px;line-height:1.25;font-family:Overpass;-inkscape-font-specification:'Overpass Heavy';letter-spacing:0px;word-spacing:0px;fill:#000000;fill-opacity:1;stroke:none"
       transform="matrix(0.26458333,0,0,0.26458333,23.063625,22.246924)"><flowRegion
         id="flowRegion1515"><rect
           id="rect1517"
           width="345.47217"
           height="171.72594"
           x="387.89859"
           y="326.47089" /></flowRegion><flowPara
         id="flowPara1519" /></flowRoot>  </g>
</svg>
