<?xml version="1.0" encoding="UTF-8" standalone="no"?>
<!-- Generator: Adobe Illustrator 17.1.0, SVG Export Plug-In . SVG Version: 6.00 Build 0)  -->

<svg
   xmlns:dc="http://purl.org/dc/elements/1.1/"
   xmlns:cc="http://creativecommons.org/ns#"
   xmlns:rdf="http://www.w3.org/1999/02/22-rdf-syntax-ns#"
   xmlns:svg="http://www.w3.org/2000/svg"
   xmlns="http://www.w3.org/2000/svg"
   xmlns:sodipodi="http://sodipodi.sourceforge.net/DTD/sodipodi-0.dtd"
   xmlns:inkscape="http://www.inkscape.org/namespaces/inkscape"
   version="1.1"
   id="Layer_1"
   x="0px"
   y="0px"
   viewBox="0 0 68.770798 78.68"
   enable-background="new 0 0 216 216"
   xml:space="preserve"
   sodipodi:docname="mg.svg"
   width="68.770798"
   height="78.68"
   inkscape:version="0.92.2 (5c3e80d, 2017-08-06)"><metadata
     id="metadata269"><rdf:RDF><cc:Work
         rdf:about=""><dc:format>image/svg+xml</dc:format><dc:type
           rdf:resource="http://purl.org/dc/dcmitype/StillImage" /><dc:title></dc:title></cc:Work></rdf:RDF></metadata><defs
     id="defs267" /><sodipodi:namedview
     pagecolor="#ffffff"
     bordercolor="#666666"
     borderopacity="1"
     objecttolerance="10"
     gridtolerance="10"
     guidetolerance="10"
     inkscape:pageopacity="0"
     inkscape:pageshadow="2"
     inkscape:window-width="2556"
     inkscape:window-height="1404"
     id="namedview265"
     showgrid="false"
     fit-margin-top="1"
     fit-margin-left="1"
     fit-margin-right="1"
     fit-margin-bottom="1"
     inkscape:zoom="2.8587963"
     inkscape:cx="-5.34643"
     inkscape:cy="11.691783"
     inkscape:window-x="2"
     inkscape:window-y="2"
     inkscape:window-maximized="1"
     inkscape:current-layer="Layer_1" /><g
     id="g262"
     transform="translate(-73.616,-68.66)"><path
       d="m 112.481,90.406 c 0,-9.44 -7.681,-17.121 -17.121,-17.121 -9.44,0 -17.121,7.681 -17.121,17.121 0,9.44 7.681,17.12 17.121,17.12 9.441,0 17.121,-7.68 17.121,-17.12 z m -32.742,0 c 0,-8.613 7.008,-15.621 15.621,-15.621 8.613,0 15.621,7.008 15.621,15.621 0,8.613 -7.008,15.62 -15.621,15.62 -8.613,0 -15.621,-7.007 -15.621,-15.62 z"
       id="path254"
       inkscape:connector-curvature="0" /><path
       d="m 106.425,85.156 c 0.128,0.271 0.397,0.428 0.678,0.428 0.108,0 0.218,-0.024 0.321,-0.073 0.375,-0.178 0.533,-0.625 0.356,-0.999 -2.267,-4.77 -7.142,-7.851 -12.419,-7.851 -0.414,0 -0.75,0.336 -0.75,0.75 0,0.414 0.336,0.75 0.75,0.75 4.701,0.001 9.045,2.746 11.064,6.995 z"
       id="path256"
       inkscape:connector-curvature="0" /><path
       d="m 140.806,138.581 -22.97,-28.564 c -0.625,-0.776 -1.077,-0.866 -1.363,-0.866 -0.229,0 -0.484,0.089 -0.662,0.231 l -0.2,0.161 -4.533,-5.635 c 3.126,-3.633 5.029,-8.345 5.029,-13.502 0,-11.439 -9.307,-20.746 -20.746,-20.746 -11.439,0 -20.745,9.307 -20.745,20.746 0,11.438 9.306,20.745 20.745,20.745 3.356,0 6.518,-0.819 9.326,-2.24 l 4.599,5.719 -0.21,0.169 c -0.275,0.224 -0.809,0.876 0.188,2.112 l 22.971,28.565 c 0.625,0.774 1.076,0.864 1.362,0.864 0.228,0 0.483,-0.089 0.661,-0.231 l 6.732,-5.412 c 0.207,-0.166 0.36,-0.45 0.389,-0.715 0.016,-0.151 0.065,-0.609 -0.573,-1.401 z M 76.615,90.406 c 0,-10.336 8.409,-18.746 18.745,-18.746 10.336,0 18.746,8.41 18.746,18.746 0,4.951 -1.944,9.448 -5.091,12.802 l -4.095,3.293 c -2.804,1.672 -6.066,2.65 -9.56,2.65 C 85.024,109.15 76.615,100.742 76.615,90.406 Z m 33.073,14.966 4.071,5.062 -3.207,2.579 -4.104,-5.103 c 1.163,-0.74 2.248,-1.588 3.24,-2.538 z m 23.956,38.664 -22.673,-28.195 5.454,-4.387 22.674,28.195 z"
       id="path258"
       inkscape:connector-curvature="0" /><path
       d="m 135.005,137.969 c 0.147,0.185 0.365,0.28 0.584,0.28 0.165,0 0.331,-0.054 0.47,-0.166 0.323,-0.259 0.374,-0.731 0.114,-1.054 l -8.549,-10.63 c -0.258,-0.323 -0.73,-0.375 -1.054,-0.114 -0.323,0.259 -0.374,0.731 -0.114,1.054 z"
       id="path260"
       inkscape:connector-curvature="0" /></g></svg>