<?xml version="1.0" encoding="UTF-8" standalone="no"?>
<!-- Created with Inkscape (http://www.inkscape.org/) -->

<svg
   xmlns:dc="http://purl.org/dc/elements/1.1/"
   xmlns:cc="http://creativecommons.org/ns#"
   xmlns:rdf="http://www.w3.org/1999/02/22-rdf-syntax-ns#"
   xmlns:svg="http://www.w3.org/2000/svg"
   xmlns="http://www.w3.org/2000/svg"
   xmlns:sodipodi="http://sodipodi.sourceforge.net/DTD/sodipodi-0.dtd"
   xmlns:inkscape="http://www.inkscape.org/namespaces/inkscape"
   width="220.14412mm"
   height="137.87294mm"
   viewBox="0 0 220.14412 137.87294"
   version="1.1"
   id="svg8"
   inkscape:version="0.92.2 (5c3e80d, 2017-08-06)"
   sodipodi:docname="oshinko-webui-arch.svg"
   inkscape:export-filename="/home/mike/Documents/presentations/hackfest-prep/oshinko-webui-arch.png"
   inkscape:export-xdpi="228.89999"
   inkscape:export-ydpi="228.89999">
  <defs
     id="defs2">
    <marker
       inkscape:stockid="TriangleOutM"
       orient="auto"
       refY="0"
       refX="0"
       id="marker13110"
       style="overflow:visible"
       inkscape:isstock="true">
      <path
         id="path13108"
         d="M 5.77,0 -2.88,5 V -5 Z"
         style="fill:#000000;fill-opacity:1;fill-rule:evenodd;stroke:#000000;stroke-width:1.00000003pt;stroke-opacity:1"
         transform="scale(0.4)"
         inkscape:connector-curvature="0" />
    </marker>
    <marker
       inkscape:isstock="true"
       style="overflow:visible"
       id="marker8299"
       refX="0"
       refY="0"
       orient="auto"
       inkscape:stockid="TriangleOutM"
       inkscape:collect="always">
      <path
         transform="scale(0.4)"
         style="fill:#000000;fill-opacity:1;fill-rule:evenodd;stroke:#000000;stroke-width:1.00000003pt;stroke-opacity:1"
         d="M 5.77,0 -2.88,5 V -5 Z"
         id="path8297"
         inkscape:connector-curvature="0" />
    </marker>
    <marker
       inkscape:stockid="TriangleOutL"
       orient="auto"
       refY="0"
       refX="0"
       id="TriangleOutL"
       style="overflow:visible"
       inkscape:isstock="true">
      <path
         id="path4878"
         d="M 5.77,0 -2.88,5 V -5 Z"
         style="fill:#000000;fill-opacity:1;fill-rule:evenodd;stroke:#000000;stroke-width:1.00000003pt;stroke-opacity:1"
         transform="scale(0.8)"
         inkscape:connector-curvature="0" />
    </marker>
    <marker
       inkscape:stockid="Arrow1Send"
       orient="auto"
       refY="0"
       refX="0"
       id="Arrow1Send"
       style="overflow:visible"
       inkscape:isstock="true">
      <path
         id="path4751"
         d="M 0,0 5,-5 -12.5,0 5,5 Z"
         style="fill:#000000;fill-opacity:1;fill-rule:evenodd;stroke:#000000;stroke-width:1.00000003pt;stroke-opacity:1"
         transform="matrix(-0.2,0,0,-0.2,-1.2,0)"
         inkscape:connector-curvature="0" />
    </marker>
    <marker
       inkscape:stockid="Arrow1Mend"
       orient="auto"
       refY="0"
       refX="0"
       id="Arrow1Mend"
       style="overflow:visible"
       inkscape:isstock="true">
      <path
         id="path4745"
         d="M 0,0 5,-5 -12.5,0 5,5 Z"
         style="fill:#000000;fill-opacity:1;fill-rule:evenodd;stroke:#000000;stroke-width:1.00000003pt;stroke-opacity:1"
         transform="matrix(-0.4,0,0,-0.4,-4,0)"
         inkscape:connector-curvature="0" />
    </marker>
    <marker
       inkscape:stockid="DiamondS"
       orient="auto"
       refY="0"
       refX="0"
       id="DiamondS"
       style="overflow:visible"
       inkscape:isstock="true">
      <path
         id="path4821"
         d="M 0,-7.0710768 -7.0710894,0 0,7.0710589 7.0710462,0 Z"
         style="fill:#000000;fill-opacity:1;fill-rule:evenodd;stroke:#000000;stroke-width:1.00000003pt;stroke-opacity:1"
         transform="scale(0.2)"
         inkscape:connector-curvature="0" />
    </marker>
    <marker
       inkscape:stockid="DotL"
       orient="auto"
       refY="0"
       refX="0"
       id="DotL"
       style="overflow:visible"
       inkscape:isstock="true">
      <path
         id="path4797"
         d="m -2.5,-1 c 0,2.76 -2.24,5 -5,5 -2.76,0 -5,-2.24 -5,-5 0,-2.76 2.24,-5 5,-5 2.76,0 5,2.24 5,5 z"
         style="fill:#000000;fill-opacity:1;fill-rule:evenodd;stroke:#000000;stroke-width:1.00000003pt;stroke-opacity:1"
         transform="matrix(0.8,0,0,0.8,5.92,0.8)"
         inkscape:connector-curvature="0" />
    </marker>
    <marker
       inkscape:stockid="Arrow2Lend"
       orient="auto"
       refY="0"
       refX="0"
       id="Arrow2Lend"
       style="overflow:visible"
       inkscape:isstock="true">
      <path
         id="path4757"
         style="fill:#000000;fill-opacity:1;fill-rule:evenodd;stroke:#000000;stroke-width:0.625;stroke-linejoin:round;stroke-opacity:1"
         d="M 8.7185878,4.0337352 -2.2072895,0.01601326 8.7185884,-4.0017078 c -1.7454984,2.3720609 -1.7354408,5.6174519 -6e-7,8.035443 z"
         transform="matrix(-1.1,0,0,-1.1,-1.1,0)"
         inkscape:connector-curvature="0" />
    </marker>
    <marker
       inkscape:stockid="Arrow1Lend"
       orient="auto"
       refY="0"
       refX="0"
       id="marker5168"
       style="overflow:visible"
       inkscape:isstock="true">
      <path
         id="path5166"
         d="M 0,0 5,-5 -12.5,0 5,5 Z"
         style="fill:#000000;fill-opacity:1;fill-rule:evenodd;stroke:#000000;stroke-width:1.00000003pt;stroke-opacity:1"
         transform="matrix(-0.8,0,0,-0.8,-10,0)"
         inkscape:connector-curvature="0" />
    </marker>
    <marker
       inkscape:stockid="Arrow1Lend"
       orient="auto"
       refY="0"
       refX="0"
       id="Arrow1Lend"
       style="overflow:visible"
       inkscape:isstock="true">
      <path
         id="path4739"
         d="M 0,0 5,-5 -12.5,0 5,5 Z"
         style="fill:#000000;fill-opacity:1;fill-rule:evenodd;stroke:#000000;stroke-width:1.00000003pt;stroke-opacity:1"
         transform="matrix(-0.8,0,0,-0.8,-10,0)"
         inkscape:connector-curvature="0" />
    </marker>
    <marker
       inkscape:stockid="Arrow1Lstart"
       orient="auto"
       refY="0"
       refX="0"
       id="marker5048"
       style="overflow:visible"
       inkscape:isstock="true">
      <path
         id="path5046"
         d="M 0,0 5,-5 -12.5,0 5,5 Z"
         style="fill:#000000;fill-opacity:1;fill-rule:evenodd;stroke:#000000;stroke-width:1.00000003pt;stroke-opacity:1"
         transform="matrix(0.8,0,0,0.8,10,0)"
         inkscape:connector-curvature="0" />
    </marker>
    <marker
       inkscape:stockid="Arrow1Lstart"
       orient="auto"
       refY="0"
       refX="0"
       id="marker5020"
       style="overflow:visible"
       inkscape:isstock="true">
      <path
         id="path5018"
         d="M 0,0 5,-5 -12.5,0 5,5 Z"
         style="fill:#000000;fill-opacity:1;fill-rule:evenodd;stroke:#000000;stroke-width:1.00000003pt;stroke-opacity:1"
         transform="matrix(0.8,0,0,0.8,10,0)"
         inkscape:connector-curvature="0" />
    </marker>
    <marker
       inkscape:stockid="Arrow1Lstart"
       orient="auto"
       refY="0"
       refX="0"
       id="Arrow1Lstart"
       style="overflow:visible"
       inkscape:isstock="true">
      <path
         id="path4736"
         d="M 0,0 5,-5 -12.5,0 5,5 Z"
         style="fill:#000000;fill-opacity:1;fill-rule:evenodd;stroke:#000000;stroke-width:1.00000003pt;stroke-opacity:1"
         transform="matrix(0.8,0,0,0.8,10,0)"
         inkscape:connector-curvature="0" />
    </marker>
    <marker
       inkscape:stockid="TriangleOutM"
       orient="auto"
       refY="0"
       refX="0"
       id="TriangleOutM-1"
       style="overflow:visible"
       inkscape:isstock="true">
      <path
         inkscape:connector-curvature="0"
         id="path4881-7"
         d="M 5.77,0 -2.88,5 V -5 Z"
         style="fill:#000000;fill-opacity:1;fill-rule:evenodd;stroke:#000000;stroke-width:1.00000003pt;stroke-opacity:1"
         transform="scale(0.4)" />
    </marker>
    <marker
       inkscape:isstock="true"
       style="overflow:visible"
       id="marker8299-8"
       refX="0"
       refY="0"
       orient="auto"
       inkscape:stockid="TriangleOutM">
      <path
         inkscape:connector-curvature="0"
         transform="scale(0.4)"
         style="fill:#000000;fill-opacity:1;fill-rule:evenodd;stroke:#000000;stroke-width:1.00000003pt;stroke-opacity:1"
         d="M 5.77,0 -2.88,5 V -5 Z"
         id="path8297-8" />
    </marker>
    <marker
       inkscape:isstock="true"
       style="overflow:visible"
       id="marker8299-1"
       refX="0"
       refY="0"
       orient="auto"
       inkscape:stockid="TriangleOutM">
      <path
         inkscape:connector-curvature="0"
         transform="scale(0.4)"
         style="fill:#000000;fill-opacity:1;fill-rule:evenodd;stroke:#000000;stroke-width:1.00000003pt;stroke-opacity:1"
         d="M 5.77,0 -2.88,5 V -5 Z"
         id="path8297-0" />
    </marker>
  </defs>
  <sodipodi:namedview
     id="base"
     pagecolor="#ffffff"
     bordercolor="#666666"
     borderopacity="1.0"
     inkscape:pageopacity="0.0"
     inkscape:pageshadow="2"
     inkscape:zoom="1.979899"
     inkscape:cx="441.54862"
     inkscape:cy="172.12236"
     inkscape:document-units="mm"
     inkscape:current-layer="layer1"
     inkscape:document-rotation="0"
     showgrid="false"
     inkscape:window-width="2556"
     inkscape:window-height="1400"
     inkscape:window-x="4"
     inkscape:window-y="4"
     inkscape:window-maximized="1"
     showguides="true"
     inkscape:guide-bbox="true"
     fit-margin-top="1"
     fit-margin-left="1"
     fit-margin-right="1"
     fit-margin-bottom="1" />
  <metadata
     id="metadata5">
    <rdf:RDF>
      <cc:Work
         rdf:about="">
        <dc:format>image/svg+xml</dc:format>
        <dc:type
           rdf:resource="http://purl.org/dc/dcmitype/StillImage" />
        <dc:title></dc:title>
      </cc:Work>
    </rdf:RDF>
  </metadata>
  <g
     inkscape:label="Layer 1"
     inkscape:groupmode="layer"
     id="layer1"
     transform="translate(30.124835,-59.466032)">
    <rect
       style="fill:#ececec;fill-opacity:1;stroke:#b0b0b0;stroke-width:0.56822687;stroke-linecap:round;stroke-linejoin:round;stroke-miterlimit:4;stroke-dasharray:none;stroke-dashoffset:0;stroke-opacity:1"
       id="rect4267"
       width="88.294395"
       height="135.30472"
       x="89.443764"
       y="60.750145"
       ry="4.7430067" />
    <g
       transform="matrix(0.07682444,0,0,0.07682444,95.459039,56.649482)"
       id="layer1-6"
       inkscape:label="Layer 1">
      <path
         style="fill:#c22133;fill-opacity:1;fill-rule:nonzero;stroke:none;stroke-width:3.10520983"
         id="path44560"
         d="m 137.63784,133.51576 c -1.77773,-3.67191 -3.83493,-7.21573 -6.22206,-10.55771 l -25.50154,9.28069 c 2.96548,3.03534 5.45741,6.44719 7.49521,10.09581 z m -112.728021,28.2058 -25.50929767,9.2807 c 0.326047,4.09111 1.032483,8.13176 2.02226797,12.09091 l 24.2322817,-8.82268 c -0.787948,-4.09888 -1.067417,-8.32196 -0.745252,-12.54893"
         inkscape:connector-curvature="0" />
      <path
         style="fill:#db212e;fill-opacity:1;fill-rule:nonzero;stroke:none;stroke-width:3.10520983"
         id="path44564"
         d="m 81.521673,126.29149 c 5.30603,2.4764 9.90174,5.85332 13.77937,9.81246 l 25.501537,-9.28069 c -7.06436,-9.91339 -16.68662,-18.19653 -28.474777,-23.69664 -36.459041,-17.001021 -79.955268,-1.17221 -96.9524097,35.28295 -5.5039843,11.79592 -7.5495413,24.32544 -6.5869263,36.45905 l 25.505417,-9.2807 c 0.423084,-5.52727 1.769969,-11.06619 4.242493,-16.3761 11.046783,-23.68499 39.300311,-33.96323 62.985296,-22.92033"
         inkscape:connector-curvature="0" />
      <path
         style="fill:#db212e;fill-opacity:1;fill-rule:nonzero;stroke:none;stroke-width:3.10520983"
         id="path44572"
         d="m 108.72213,172.89488 c -0.40756,5.52339 -1.80102,11.06231 -4.28131,16.3761 -11.042897,23.68887 -39.300306,33.96712 -62.981412,22.92422 -5.313791,-2.48029 -9.944436,-5.83004 -13.80654,-9.79694 l -25.4510747,9.26129 c 7.048825,9.91338 16.6594497,18.20041 28.4553657,23.70439 36.459046,16.99715 79.947501,1.16834 96.948531,-35.2907 5.50786,-11.78816 7.5379,-24.31768 6.56752,-36.43965 z"
         inkscape:connector-curvature="0" />
      <path
         style="fill:#eb2126;fill-opacity:1;fill-rule:nonzero;stroke:none;stroke-width:3.10520983"
         id="path44576"
         d="m 114.99351,141.75854 -24.232287,8.8188 c 4.50256,8.06578 6.62963,17.35035 5.93096,26.68927 l 25.451067,-9.2574 c -0.72972,-9.1332 -3.16343,-18.04904 -7.14974,-26.25067 M 3.0111043,182.51131 -21.221177,191.33787 c 2.224107,8.83433 6.086212,17.23004 11.3961203,24.70195 L 15.622137,206.77465 C 9.0895533,200.0674 4.7461403,191.57852 3.0111043,182.51131"
         inkscape:connector-curvature="0" />
      <path
         style="fill:#ad213b;fill-opacity:1;fill-rule:nonzero;stroke:none;stroke-width:3.10520983"
         id="path44584"
         d="m 133.9442,126.79726 c -0.80348,-1.30418 -1.638,-2.58896 -2.52687,-3.83881 l -25.50153,9.2807 c 1.12175,1.14892 2.15424,2.36772 3.14014,3.61757 z M 24.812378,166.8432 c -0.0621,-1.7001 -0.03509,-3.40797 0.09688,-5.11971 l -25.50929867,9.28069 c 0.131972,1.63412 0.337692,3.25659 0.582227,4.87518 L 24.812219,166.8432 Z"
         inkscape:connector-curvature="0" />
      <path
         style="fill:#ba2133;fill-opacity:1;fill-rule:nonzero;stroke:none;stroke-width:3.10520983"
         id="path44588"
         d="m 134.17165,163.63319 -25.45107,9.26129 c -0.26798,3.66415 -0.98203,7.33606 -2.15036,10.94586 l 27.70235,-10.09969 c 0.19812,-3.38468 0.16675,-6.7616 -0.10092,-10.10746 M 2.2041223,211.66303 c 1.960164,2.75975 4.129928,5.39142 6.486008,7.87559 L 36.396363,209.43504 c -3.23718,-2.02615 -6.163842,-4.38999 -8.745045,-7.03718 z"
         inkscape:connector-curvature="0" />
    </g>
    <rect
       style="fill:#ffffff;fill-opacity:1;stroke:#b0b0b0;stroke-width:0.57383615;stroke-linecap:round;stroke-linejoin:round;stroke-miterlimit:4;stroke-dasharray:none;stroke-dashoffset:0;stroke-opacity:1"
       id="rect4524"
       width="79.588226"
       height="113.67964"
       x="93.513359"
       y="78.100563"
       ry="4.6050725" />
    <g
       aria-label="Project"
       style="font-style:normal;font-variant:normal;font-weight:normal;font-stretch:normal;font-size:8.46666622px;line-height:125%;font-family:Overpass;-inkscape-font-specification:Overpass;letter-spacing:0px;word-spacing:0px;fill:#000000;fill-opacity:1;stroke:none;stroke-width:0.26458332px;stroke-linecap:butt;stroke-linejoin:miter;stroke-opacity:1"
       id="text4528">
      <path
         d="m 97.667601,87.227142 h 0.7366 v -2.379133 h 1.532467 c 1.388532,0 1.913462,-0.956733 1.913462,-1.769533 0,-0.880533 -0.47413,-1.778 -1.913462,-1.778 h -2.269067 z m 2.319867,-3.064933 h -1.583267 v -2.175933 h 1.583267 c 0.889002,0 1.126062,0.626533 1.126062,1.0922 0,0.508 -0.28786,1.083733 -1.126062,1.083733 z"
         style="font-style:normal;font-variant:normal;font-weight:normal;font-stretch:normal;font-family:Overpass;-inkscape-font-specification:Overpass;fill:#000000;fill-opacity:1;stroke:none;stroke-width:0.26458332px"
         id="path1182" />
      <path
         d="m 102.88188,87.227142 h 0.7366 v -2.4384 c 0,-0.982133 0.55033,-1.261533 0.9652,-1.261533 0.29633,0 0.4826,0.09313 0.61806,0.186267 l 0.11007,-0.694267 c -0.1524,-0.127 -0.38947,-0.220133 -0.66887,-0.220133 -0.4826,0 -0.82973,0.237067 -1.02446,0.668867 v -0.567267 h -0.7366 z"
         style="font-style:normal;font-variant:normal;font-weight:normal;font-stretch:normal;font-family:Overpass;-inkscape-font-specification:Overpass;fill:#000000;fill-opacity:1;stroke:none;stroke-width:0.26458332px"
         id="path1184" />
      <path
         d="m 107.8321,87.328742 c 1.15993,0 1.91346,-0.846666 1.91346,-2.269066 0,-1.430867 -0.75353,-2.2606 -1.91346,-2.2606 -1.15994,0 -1.91347,0.846667 -1.91347,2.269066 0,1.430867 0.75353,2.2606 1.91347,2.2606 z m 0,-0.6858 c -0.7366,0 -1.1684,-0.592666 -1.1684,-1.5748 0,-1.007533 0.4318,-1.591733 1.1684,-1.591733 0.7366,0 1.1684,0.601133 1.1684,1.583267 0,0.9906 -0.44027,1.583266 -1.1684,1.583266 z"
         style="font-style:normal;font-variant:normal;font-weight:normal;font-stretch:normal;font-family:Overpass;-inkscape-font-specification:Overpass;fill:#000000;fill-opacity:1;stroke:none;stroke-width:0.26458332px"
         id="path1186" />
      <path
         d="m 111.28306,82.113276 c 0.26247,0 0.4572,-0.2032 0.4572,-0.4572 0,-0.262467 -0.19473,-0.474133 -0.4572,-0.474133 -0.26247,0 -0.46567,0.211666 -0.46567,0.474133 0,0.254 0.2032,0.4572 0.46567,0.4572 z m -1.13453,6.925733 c 0.41486,-0.05927 0.84666,-0.2032 1.17686,-0.6096 0.24554,-0.287867 0.32174,-0.702733 0.32174,-1.1684 v -4.360333 h -0.7366 v 4.631266 c 0,0.516467 -0.24554,0.8128 -1.10914,0.948267 z"
         style="font-style:normal;font-variant:normal;font-weight:normal;font-stretch:normal;font-family:Overpass;-inkscape-font-specification:Overpass;fill:#000000;fill-opacity:1;stroke:none;stroke-width:0.26458332px"
         id="path1188" />
      <path
         d="m 114.71973,87.328742 c 0.5842,0 1.07527,-0.237066 1.397,-0.5588 L 115.668,86.270409 c -0.27094,0.270933 -0.60114,0.389467 -0.93134,0.389467 -0.65193,0 -1.12606,-0.516467 -1.18533,-1.312334 h 2.92947 c 0.0169,-0.169333 0.0254,-0.3556 0.0254,-0.491066 0,-1.4224 -0.8128,-2.0574 -1.78647,-2.0574 -1.15147,0 -1.92193,0.829733 -1.92193,2.2606 0,1.3208 0.7366,2.269066 1.92193,2.269066 z m -1.17687,-2.607733 c 0.0423,-0.889 0.55034,-1.27 1.17687,-1.27 0.4572,0 1.03293,0.287867 1.0414,1.27 z"
         style="font-style:normal;font-variant:normal;font-weight:normal;font-stretch:normal;font-family:Overpass;-inkscape-font-specification:Overpass;fill:#000000;fill-opacity:1;stroke:none;stroke-width:0.26458332px"
         id="path1190" />
      <path
         d="m 119.14026,87.328742 c 0.79586,0 1.3716,-0.397933 1.58326,-1.109133 l -0.6858,-0.2286 c -0.127,0.4064 -0.44873,0.643467 -0.88053,0.643467 -0.69427,0 -1.05833,-0.5842 -1.05833,-1.566334 0,-0.973666 0.34713,-1.583266 1.08373,-1.583266 0.42333,0 0.6858,0.245533 0.8128,0.575733 l 0.69427,-0.254 c -0.24554,-0.677333 -0.79587,-1.007533 -1.51554,-1.007533 -1.13453,0 -1.8288,0.846667 -1.8288,2.269066 0,1.430867 0.69427,2.2606 1.79494,2.2606 z"
         style="font-style:normal;font-variant:normal;font-weight:normal;font-stretch:normal;font-family:Overpass;-inkscape-font-specification:Overpass;fill:#000000;fill-opacity:1;stroke:none;stroke-width:0.26458332px"
         id="path1192" />
      <path
         d="m 122.91837,87.328742 c 0.33867,0 0.60114,-0.0762 0.82974,-0.194733 l 0.0847,-0.719667 c -0.18626,0.118534 -0.39793,0.2286 -0.64346,0.2286 -0.381,0 -0.44874,-0.262466 -0.44874,-0.592666 v -2.506133 h 1.0668 v -0.643467 h -1.0668 v -1.786467 l -0.7366,0.3556 v 1.430867 h -0.70273 v 0.643467 h 0.70273 v 2.751666 c 0,0.6096 0.26247,1.032933 0.9144,1.032933 z"
         style="font-style:normal;font-variant:normal;font-weight:normal;font-stretch:normal;font-family:Overpass;-inkscape-font-specification:Overpass;fill:#000000;fill-opacity:1;stroke:none;stroke-width:0.26458332px"
         id="path1194" />
    </g>
    <rect
       style="fill:#004153;fill-opacity:1;stroke:none;stroke-width:0.37667018;stroke-linecap:round;stroke-linejoin:round;stroke-miterlimit:4;stroke-dasharray:none;stroke-dashoffset:0;stroke-opacity:1"
       id="rect4524-0-1-2"
       width="72.490669"
       height="9.5511723"
       x="97.062134"
       y="127.20001"
       ry="0.38691041" />
    <rect
       style="fill:#004153;fill-opacity:1;stroke:none;stroke-width:0.37667018;stroke-linecap:round;stroke-linejoin:round;stroke-miterlimit:4;stroke-dasharray:none;stroke-dashoffset:0;stroke-opacity:1"
       id="rect4524-0-1-1"
       width="72.490669"
       height="9.5511723"
       x="97.062141"
       y="145.5733"
       ry="0.38691041" />
    <rect
       style="fill:#004153;fill-opacity:1;stroke:none;stroke-width:0.37667018;stroke-linecap:round;stroke-linejoin:round;stroke-miterlimit:4;stroke-dasharray:none;stroke-dashoffset:0;stroke-opacity:1"
       id="rect4524-0-1-1-8"
       width="72.490669"
       height="9.5511723"
       x="97.062141"
       y="156.53824"
       ry="0.38691041" />
    <path
       style="fill:none;fill-rule:evenodd;stroke:#000000;stroke-width:0.96499997;stroke-linecap:butt;stroke-linejoin:miter;stroke-miterlimit:4;stroke-dasharray:none;stroke-opacity:1;marker-end:url(#marker8299)"
       d="m 135.6462,107.27957 c 60.68375,5.27654 50.6421,14.43311 37.8488,23.6857"
       id="path8235"
       inkscape:connector-curvature="0"
       sodipodi:nodetypes="cc" />
    <path
       style="fill:none;fill-rule:evenodd;stroke:#000000;stroke-width:0.96499997;stroke-linecap:butt;stroke-linejoin:miter;stroke-miterlimit:4;stroke-dasharray:none;stroke-opacity:1;marker-end:url(#marker8299-8)"
       d="m 135.6462,107.27957 c 71.86071,5.77329 55.10943,33.24385 38.1735,42.31233"
       id="path8235-0"
       inkscape:connector-curvature="0"
       sodipodi:nodetypes="cc" />
    <path
       style="fill:none;fill-rule:evenodd;stroke:#000000;stroke-width:0.96499997;stroke-linecap:butt;stroke-linejoin:miter;stroke-miterlimit:4;stroke-dasharray:none;stroke-opacity:1;marker-end:url(#marker8299-1)"
       d="m 135.6462,107.27957 c 71.86072,5.77329 55.04261,43.86781 38.10667,52.93628"
       id="path8235-4"
       inkscape:connector-curvature="0"
       sodipodi:nodetypes="cc" />
    <rect
       style="fill:#004153;fill-opacity:1;stroke:none;stroke-width:0.37667018;stroke-linecap:round;stroke-linejoin:round;stroke-miterlimit:4;stroke-dasharray:none;stroke-dashoffset:0;stroke-opacity:1"
       id="rect4524-0-1"
       width="72.490669"
       height="9.5511723"
       x="97.062141"
       y="98.281471"
       ry="0.38691041" />
    <path
       inkscape:connector-curvature="0"
       id="path12889"
       d="m -13.141592,144.5685 c -6.689303,0 -9.34896,-1.4085 -10.338766,-2.24755 l -0.413748,-0.35543 0.165049,-2.71138 -0.63603,-0.46711 c -2.50834,-1.84206 -4.759748,-3.81672 -4.759748,-7.69561 v -0.0441 l 0.545796,-6.83952 c 0.346624,-4.23926 0.992005,-12.12526 11.740119,-12.12526 h 7.4018094 c 10.542341,0 11.319219,7.87444 11.736268,12.1049 l 0.544146,6.90444 c 0,3.8855 -2.17988299,5.80127 -4.81313,7.73358 l -0.64483,0.47316 0.1601,2.7609 -0.460515,0.35873 c -1.030519,0.80274 -3.72869,2.15017 -10.2265264,2.15017 z m 0,-33.98076 c -4.259081,0 -7.723676,-3.46403 -7.723676,-7.72201 0,-4.259085 3.465146,-7.723675 7.723676,-7.723675 4.2590804,0 7.7242274,3.46459 7.7242274,7.723675 0,4.25798 -3.465147,7.72201 -7.7242274,7.72201 z m -6.611177,-7.72201 c 0,3.64285 2.966668,6.60953 6.611726,6.60953 3.6461614,0 6.6117284,-2.96668 6.6117284,-6.60953 0,-3.645075 -2.965016,-6.611735 -6.6117284,-6.611735 -3.645609,0 -6.611726,2.96335 -6.611726,6.611735 z m 21.4769714,28.22624 -0.532041,-6.7955 c -0.47371999,-4.79991 -1.45857499,-11.10134 -10.629272,-11.10134 h -7.4023604 c -9.173996,0 -10.213871,5.99992 -10.63092,11.10134 l -0.541946,6.7955 c 0,3.27203 1.739726,4.91436 4.305849,6.7988 l 1.05968,-14.68478 c 0,-0.27235 0.217878,-0.48858 0.485275,-0.48858 0.267395,0 0.489125,0.21623 0.489125,0.48858 l -1.064634,18.13011 c 0,0.0512 -0.01,0.0923 -0.02366,0.13642 0.707556,0.5997 3.056899,1.98345 9.619108,1.98345 6.3316774,0 8.7382414,-1.28801 9.5420814,-1.91522 l -1.062982,-18.3348 c 0,-0.27235 0.217878,-0.48858 0.484173,-0.48858 0.269047,0 0.490776,0.21623 0.490776,0.48858 l 1.059682,14.72218 c 2.58647901,-1.89817 4.358666,-3.54436 4.358666,-6.83621 z"
       fill="#010101"
       style="stroke-width:0.55019772" />
    <path
       id="path13090"
       d="m 44.805644,131.70595 -3.275918,-4.08786 c -0.04164,-0.45013 -0.261248,-0.84727 -0.58518,-1.12829 0.35927,-0.31215 0.59107,-0.76734 0.59107,-1.27932 v -14.3241 c 0,-0.93899 -0.763133,-1.70338 -1.702536,-1.70338 H 16.843176 c -0.93856,0 -1.702534,0.76397 -1.702534,1.70338 v 14.3241 c 0,0.51198 0.2318,0.96717 0.59107,1.27932 -0.321407,0.27849 -0.539746,0.67226 -0.583077,1.11903 l -3.536326,4.08449 c -0.06605,0.0765 -0.102222,0.17417 -0.102222,0.27514 0,1.12997 0.431208,1.70336 1.282265,1.70336 h 30.823586 c 0.850216,0 1.282265,-0.57339 1.282265,-1.70336 0,-0.0951 -0.03239,-0.18805 -0.09255,-0.26251 z m -28.823621,-6.49547 v -14.3241 c 0,-0.47497 0.386195,-0.862 0.861153,-0.862 H 39.83308 c 0.475382,0 0.861154,0.38703 0.861154,0.862 v 14.3241 c 0,0.47495 -0.385772,0.86115 -0.861154,0.86115 H 16.843176 c -0.474958,0 -0.861153,-0.3862 -0.861153,-0.86115 z m 27.633909,7.61997 H 12.792346 c -0.184262,0 -0.410594,0 -0.43878,-0.70845 l 3.525809,-4.07229 c 0.06605,-0.0766 0.102651,-0.17415 0.102651,-0.27512 0,-0.47581 0.386195,-0.86201 0.861154,-0.86201 h 22.989903 c 0.475382,0 0.861154,0.3862 0.861154,0.86201 0,0.0951 0.03323,0.18804 0.09297,0.26293 l 3.267085,4.07523 c -0.02651,0.7177 -0.253677,0.7177 -0.438358,0.7177 z m -4.90904,-21.83301 h -9.712065 c 0.0038,-0.0286 0.0084,-0.0568 0.0084,-0.0862 0,-0.36558 -0.295745,-0.66218 -0.661326,-0.66218 -0.366001,0 -0.661747,0.2966 -0.661747,0.66218 0,0.0294 0.0046,0.0576 0.0084,0.0862 h -9.712486 c -0.578869,0 -1.050464,0.5044 -1.050464,1.12325 v 12.01914 c 0,0.61967 0.471595,1.12323 1.050464,1.12323 h 20.730796 c 0.57929,0 1.050043,-0.50356 1.050043,-1.12323 v -12.01914 c 0,-0.61885 -0.470753,-1.12325 -1.050043,-1.12325 z m 0.419008,13.14239 c 0,0.27133 -0.187628,0.4922 -0.419008,0.4922 H 17.976096 c -0.230958,0 -0.419427,-0.22087 -0.419427,-0.4922 v -12.01914 c 0,-0.27136 0.188469,-0.49222 0.419427,-0.49222 h 20.730796 c 0.23138,0 0.419008,0.22086 0.419008,0.49222 z m -22.476662,3.82575 c 0,-0.11654 0.09424,-0.21035 0.210346,-0.21035 h 23.002525 c 0.116119,0 0.210344,0.0938 0.210344,0.21035 0,0.11576 -0.09424,0.21035 -0.210344,0.21035 H 16.859584 c -0.116119,0 -0.210346,-0.0946 -0.210346,-0.21035 z m -0.751774,1.41982 c 0,-0.11655 0.09424,-0.21034 0.210346,-0.21034 h 24.397955 c 0.115276,0 0.210346,0.0938 0.210346,0.21034 0,0.11575 -0.09508,0.21036 -0.210346,0.21036 H 16.10781 c -0.116118,0 -0.210346,-0.0946 -0.210346,-0.21036 z m -1.02312,1.20949 h 26.444195 c 0.116119,0 0.210346,0.0938 0.210346,0.21035 0,0.11575 -0.09424,0.21035 -0.210346,0.21035 H 14.874344 c -0.116532,0 -0.210344,-0.0946 -0.210344,-0.21035 0,-0.11655 0.0934,-0.21035 0.210344,-0.21035 z m 21.516225,-15.91304 c 0.06479,0.0964 0.03996,0.22675 -0.05637,0.29154 l -6.056263,4.06724 c -0.03617,0.024 -0.0774,0.0362 -0.118218,0.0362 -0.06689,0 -0.132941,-0.0328 -0.173745,-0.093 -0.06521,-0.0964 -0.04039,-0.22675 0.05595,-0.29154 l 6.056264,-4.06724 c 0.09634,-0.0649 0.227173,-0.0396 0.292379,0.0568 z m -3.058421,3.62677 c 0.06521,0.0964 0.03997,0.22759 -0.0568,0.29238 l -4.796293,3.24059 c -0.03617,0.024 -0.0774,0.0362 -0.117788,0.0362 -0.0673,0 -0.133784,-0.0328 -0.174165,-0.093 -0.06562,-0.0964 -0.03996,-0.22675 0.05637,-0.29239 l 4.796714,-3.23975 c 0.0955,-0.0649 0.226754,-0.0404 0.29196,0.056 z"
       inkscape:connector-curvature="0"
       style="stroke-width:0.42069066" />
    <path
       style="fill:none;fill-rule:evenodd;stroke:#000000;stroke-width:0.96499997;stroke-linecap:butt;stroke-linejoin:miter;stroke-miterlimit:4;stroke-dasharray:none;stroke-opacity:1;marker-end:url(#marker13110)"
       d="M 45.177651,122.96883 C 58.768759,112.92039 75.68303,104.97469 93.549106,103.47619"
       id="path13100"
       inkscape:connector-curvature="0"
       sodipodi:nodetypes="cc" />
    <g
       aria-label="Oshinko WebUI"
       transform="matrix(0.26458333,0,0,0.26458333,80.260702,77.636309)"
       style="font-style:normal;font-variant:normal;font-weight:normal;font-stretch:normal;font-size:32px;line-height:125%;font-family:Overpass;-inkscape-font-specification:Overpass;text-align:center;letter-spacing:0px;word-spacing:0px;text-anchor:middle;fill:#ffffff;stroke:none;stroke-width:1px;stroke-linecap:butt;stroke-linejoin:miter;stroke-opacity:1"
       id="flowRoot8121">
      <path
         d="m 103.70344,106.4133 q -3.328,0 -5.472003,-1.664 -2.111999,-1.664 -3.072,-4.288 -0.959999,-2.624003 -0.959999,-5.632003 0,-3.008 0.959999,-5.632 0.960001,-2.624 3.072,-4.288 2.144003,-1.664 5.472003,-1.664 3.328,0 5.472,1.664 2.144,1.664 3.104,4.288 0.96,2.624 0.96,5.632 0,3.008 -0.96,5.632003 -0.96,2.624 -3.104,4.288 -2.144,1.664 -5.472,1.664 z m 0,-2.624 q 2.304,0 3.776,-1.312 1.504,-1.344 2.176,-3.392003 0.672,-2.048 0.672,-4.256 0,-3.744 -1.6,-6.368 -1.6,-2.624 -5.024,-2.624 -2.304,0 -3.808003,1.344 -1.471999,1.312 -2.144,3.392 -0.672,2.048 -0.672,4.256 0,2.368 0.672,4.416 0.672001,2.016003 2.144,3.296003 1.504003,1.248 3.808003,1.248 z"
         style=""
         id="path13800" />
      <path
         d="m 122.88644,106.4133 q -1.76,0 -3.36,-0.736 -1.568,-0.768 -2.56,-2.016 l 1.984,-1.696 q 0.768,0.8 1.792,1.376 1.024,0.576 2.208,0.576 1.376,0 2.208,-0.512 0.832,-0.544 0.832,-1.568 0,-1.088 -0.96,-1.728 -0.928,-0.672003 -2.784,-1.376003 -2.496,-0.928 -3.776,-2.08 -1.28,-1.152 -1.28,-3.04 0,-1.984 1.536,-3.136 1.568,-1.184 3.968,-1.184 1.792,0 3.168,0.672 1.376,0.672 2.336,1.792 l -1.92,1.6 q -1.504,-1.568 -3.616,-1.568 -1.248,0 -1.984,0.48 -0.736,0.48 -0.736,1.344 0,0.928 0.8,1.472 0.832,0.512 2.656,1.248 2.592,0.928 3.936,2.112 1.376,1.184 1.376,3.328003 0,2.176 -1.568,3.424 -1.568,1.216 -4.256,1.216 z"
         style=""
         id="path13802" />
      <path
         d="m 133.05444,84.205297 2.784,-1.28 v 8.448 q 1.504,-2.08 4.224,-2.08 2.88,0 4.352,1.76 1.504,1.728 1.504,5.568 v 9.408003 h -2.784 v -9.888003 q 0,-2.208 -0.96,-3.232 -0.928,-1.056 -2.56,-1.056 -3.776,0 -3.776,4.224 v 9.952003 h -2.784 z"
         style=""
         id="path13804" />
      <path
         d="m 152.46244,86.701297 q -0.704,0 -1.216,-0.512 -0.512,-0.512 -0.512,-1.216 0,-0.736 0.512,-1.248 0.512,-0.544 1.216,-0.544 0.736,0 1.248,0.544 0.512,0.512 0.512,1.248 0,0.736 -0.512,1.248 -0.512,0.48 -1.248,0.48 z m -1.376,2.976 h 2.784 V 106.0293 h -2.784 z"
         style=""
         id="path13806" />
      <path
         d="m 169.25944,96.141297 q 0,-2.208 -0.96,-3.232 -0.928,-1.056 -2.56,-1.056 -3.776,0 -3.776,4.224 v 9.952003 h -2.784 V 89.677297 h 2.784 v 1.664 q 1.504,-2.048 4.224,-2.048 2.88,0 4.352,1.76 1.504,1.728 1.504,5.568 v 9.408003 h -2.784 z"
         style=""
         id="path13808" />
      <path
         d="m 187.41944,106.0293 -5.056,-9.888003 -2.4,2.496 v 7.392003 h -2.784 V 84.237297 l 2.784,-1.312 v 12.384 l 5.312,-5.632 h 3.328 l -4.288,4.448 6.144,11.904003 z"
         style=""
         id="path13810" />
      <path
         d="m 199.95144,106.4133 q -3.328,0 -5.28,-2.272 -1.952,-2.272 -1.952,-6.272003 0,-2.656 0.896,-4.576 0.896,-1.952 2.528,-2.976 1.632,-1.024 3.808,-1.024 3.328,0 5.28,2.272 1.952,2.272 1.952,6.272 0,2.656003 -0.896,4.608003 -0.896,1.92 -2.528,2.944 -1.632,1.024 -3.808,1.024 z m 0,-2.592 q 2.08,0 3.232,-1.568 1.184,-1.6 1.184,-4.416003 0,-2.784 -1.184,-4.384 -1.152,-1.6 -3.232,-1.6 -2.08,0 -3.264,1.6 -1.152,1.568 -1.152,4.416 0,2.784003 1.152,4.384003 1.184,1.568 3.264,1.568 z"
         style=""
         id="path13812" />
      <path
         d="m 217.24844,83.629297 h 2.912 l 2.752,14.592 q 0.288,1.44 0.416,2.400003 0.192,-0.896003 0.352,-1.408003 -0.032,0.096 0.256,-0.96 l 3.968,-14.624 h 2.208 l 4,14.592 q 0.384,1.44 0.512,2.176003 0.128,-0.832003 0.416,-2.208003 l 3.04,-14.56 h 2.848 l -4.864,22.400003 h -2.208 l -4.32,-15.296003 q -0.48,-1.76 -0.576,-2.208 -0.16,0.864 -0.544,2.208 l -4.32,15.296003 h -2.272 z"
         style=""
         id="path13814" />
      <path
         d="m 251.48344,106.4133 q -2.208,0 -3.872,-1.088 -1.632,-1.088 -2.528,-3.04 -0.864,-1.952 -0.864,-4.448003 0,-2.656 0.896,-4.576 0.896,-1.952 2.528,-2.944 1.664,-1.024 3.84,-1.024 1.92,0 3.424,0.864 1.536,0.832 2.432,2.592 0.896,1.728 0.896,4.32 0,0.896 -0.096,1.856 h -11.072 q 0.16,2.240003 1.376,3.616003 1.248,1.344 3.104,1.344 2.048,0 3.52,-1.472 l 1.696,1.888 q -0.96,0.96 -2.336,1.536 -1.344,0.576 -2.944,0.576 z m 3.936,-9.856003 q -0.032,-2.528 -1.216,-3.648 -1.152,-1.152 -2.72,-1.152 -1.888,0 -3.104,1.216 -1.216,1.184 -1.344,3.584 z"
         style=""
         id="path13816" />
      <path
         d="m 269.34294,106.4133 q -1.408,0 -2.368,-0.48 -0.96,-0.48 -1.824,-1.312 v 1.408 h -2.784 V 84.237297 l 2.784,-1.312 v 8.16 q 0.736,-0.8 1.792,-1.28 1.088,-0.512 2.304,-0.512 2.016,0 3.552,1.024 1.536,1.024 2.368,2.944 0.864,1.92 0.864,4.576 0,4.128003 -1.792,6.368003 -1.76,2.208 -4.896,2.208 z m -0.384,-2.592 q 2.08,0 3.136,-1.568 1.088,-1.6 1.088,-4.416003 0,-2.912 -1.088,-4.448 -1.056,-1.536 -3.136,-1.536 -1.28,0 -2.304,0.672 -1.024,0.672 -1.504,1.504 v 7.584003 q 0.608,1.024 1.632,1.632 1.024,0.576 2.176,0.576 z"
         style=""
         id="path13818" />
      <path
         d="m 288.71894,106.4133 q -3.776,0 -5.92,-2.08 -2.112,-2.112 -2.112,-6.720003 v -13.984 h 2.784 v 13.984 q 0,3.424003 1.408,4.800003 1.408,1.376 3.84,1.376 2.432,0 3.84,-1.376 1.44,-1.376 1.44,-4.800003 v -13.984 h 2.784 v 13.984 q 0,8.800003 -8.064,8.800003 z"
         style=""
         id="path13820" />
      <path
         d="m 302.97344,83.629297 h 2.784 V 106.0293 h -2.784 z"
         style=""
         id="path13822" />
    </g>
    <g
       aria-label="Spark Master"
       transform="matrix(0.26458333,0,0,0.26458333,80.26069,106.55485)"
       style="font-style:normal;font-variant:normal;font-weight:normal;font-stretch:normal;font-size:32px;line-height:125%;font-family:Overpass;-inkscape-font-specification:Overpass;text-align:center;letter-spacing:0px;word-spacing:0px;text-anchor:middle;fill:#ffffff;stroke:none;stroke-width:1px;stroke-linecap:butt;stroke-linejoin:miter;stroke-opacity:1"
       id="flowRoot8121-1">
      <path
         d="m 115.15619,106.4133 q -2.848,0 -4.96,-1.376 -2.08,-1.408 -2.848,-3.616 l 2.624,-0.96 q 0.704,1.536 2.08,2.432 1.376,0.896 3.168,0.896 2.048,0 3.232,-0.96 1.184,-0.992 1.184,-2.816 0,-1.760003 -1.344,-2.816003 -1.312,-1.056 -3.712,-1.92 -2.016,-0.736 -3.36,-1.472 -1.344,-0.736 -2.272,-1.952 -0.928,-1.248 -0.928,-3.072 0,-1.536 0.832,-2.784 0.832,-1.28 2.368,-2.016 1.568,-0.736 3.68,-0.736 2.592,0 4.32,1.12 1.728,1.088 2.24,2.88 l -2.56,0.864 q -0.448,-0.992 -1.536,-1.632 -1.088,-0.64 -2.656,-0.64 -1.76,0 -2.784,0.8 -1.024,0.768 -1.024,2.144 0,1.408 1.216,2.24 1.216,0.8 3.616,1.696 2.016,0.768 3.424,1.6 1.408,0.8 2.368,2.208 0.992,1.376 0.992,3.424 0,2.016003 -0.96,3.488003 -0.928,1.44 -2.624,2.208 -1.664,0.768 -3.776,0.768 z"
         style=""
         id="path13825" />
      <path
         d="m 134.31169,106.4133 q -1.472,0 -2.464,-0.512 -0.992,-0.512 -1.728,-1.408 v 6.688 l -2.784,1.312 V 89.677297 h 2.784 v 1.376 q 0.832,-0.832 1.792,-1.28 0.992,-0.48 2.4,-0.48 2.048,0 3.584,1.056 1.536,1.024 2.336,2.976 0.832,1.92 0.832,4.512 0,2.656003 -0.864,4.608003 -0.832,1.92 -2.368,2.944 -1.536,1.024 -3.52,1.024 z m -0.352,-2.592 q 2.048,0 3.136,-1.536 1.12,-1.568 1.12,-4.448003 0,-2.72 -1.152,-4.352 -1.12,-1.632 -3.104,-1.632 -1.248,0 -2.24,0.576 -0.992,0.576 -1.6,1.632 v 7.552003 q 1.696,2.208 3.84,2.208 z"
         style=""
         id="path13827" />
      <path
         d="m 154.77419,104.5253 q -0.896,0.832 -2.08,1.376 -1.184,0.512 -2.56,0.512 -2.592,0 -4.16,-1.408 -1.536,-1.44 -1.536,-4.096 0,-2.656003 1.76,-4.032003 1.76,-1.376 4.352,-1.376 2.368,0 4.224,1.056 v -1.152 q 0,-2.048 -0.928,-2.848 -0.896,-0.832 -2.624,-0.832 -1.28,0 -2.528,0.48 -1.248,0.448 -2.24,1.152 l -0.8,-2.336 q 1.12,-0.736 2.656,-1.216 1.568,-0.512 3.264,-0.512 2.432,0 4.128,1.248 1.696,1.248 1.696,4.64 V 106.0293 h -2.624 z m -4.224,-0.576 q 1.28,0 2.336,-0.608 1.088,-0.608 1.888,-1.536 v -2.816003 q -0.768,-0.48 -1.824,-0.768 -1.056,-0.32 -2.016,-0.32 -1.696,0 -2.784,0.768 -1.088,0.768 -1.088,2.240003 0,1.376 0.896,2.208 0.928,0.832 2.592,0.832 z"
         style=""
         id="path13829" />
      <path
         d="m 162.21069,89.677297 h 2.784 v 2.144 q 0.704,-1.248 1.728,-1.888 1.056,-0.64 2.272,-0.64 1.472,0 2.4,0.832 l -0.416,2.624 q -1.024,-0.704 -2.336,-0.704 -0.832,0 -1.664,0.448 -0.832,0.448 -1.408,1.536 -0.576,1.056 -0.576,2.784 v 9.216003 h -2.784 z"
         style=""
         id="path13831" />
      <path
         d="m 185.07569,106.0293 -5.056,-9.888003 -2.4,2.496 v 7.392003 h -2.784 V 84.237297 l 2.784,-1.312 v 12.384 l 5.312,-5.632 h 3.328 l -4.288,4.448 6.144,11.904003 z"
         style=""
         id="path13833" />
      <path
         d="M 216.36269,106.0293 V 92.269297 q 0,-1.312 0.064,-2.464 -0.32,0.896 -0.992,2.528 l -6.144,14.080003 -5.952,-14.144003 q -0.768,-1.856 -0.96,-2.432 0.096,0.864 0.096,2.432 V 106.0293 h -2.784 V 83.629297 h 2.624 l 6.496,15.072 0.576,1.504003 q 0.128,-0.384003 0.576,-1.504003 l 6.528,-15.072 h 2.656 V 106.0293 Z"
         style=""
         id="path13835" />
      <path
         d="m 234.27419,104.5253 q -0.896,0.832 -2.08,1.376 -1.184,0.512 -2.56,0.512 -2.592,0 -4.16,-1.408 -1.536,-1.44 -1.536,-4.096 0,-2.656003 1.76,-4.032003 1.76,-1.376 4.352,-1.376 2.368,0 4.224,1.056 v -1.152 q 0,-2.048 -0.928,-2.848 -0.896,-0.832 -2.624,-0.832 -1.28,0 -2.528,0.48 -1.248,0.448 -2.24,1.152 l -0.8,-2.336 q 1.12,-0.736 2.656,-1.216 1.568,-0.512 3.264,-0.512 2.432,0 4.128,1.248 1.696,1.248 1.696,4.64 V 106.0293 h -2.624 z m -4.224,-0.576 q 1.28,0 2.336,-0.608 1.088,-0.608 1.888,-1.536 v -2.816003 q -0.768,-0.48 -1.824,-0.768 -1.056,-0.32 -2.016,-0.32 -1.696,0 -2.784,0.768 -1.088,0.768 -1.088,2.240003 0,1.376 0.896,2.208 0.928,0.832 2.592,0.832 z"
         style=""
         id="path13837" />
      <path
         d="m 246.54269,106.4133 q -1.76,0 -3.36,-0.736 -1.568,-0.768 -2.56,-2.016 l 1.984,-1.696 q 0.768,0.8 1.792,1.376 1.024,0.576 2.208,0.576 1.376,0 2.208,-0.512 0.832,-0.544 0.832,-1.568 0,-1.088 -0.96,-1.728 -0.928,-0.672003 -2.784,-1.376003 -2.496,-0.928 -3.776,-2.08 -1.28,-1.152 -1.28,-3.04 0,-1.984 1.536,-3.136 1.568,-1.184 3.968,-1.184 1.792,0 3.168,0.672 1.376,0.672 2.336,1.792 l -1.92,1.6 q -1.504,-1.568 -3.616,-1.568 -1.248,0 -1.984,0.48 -0.736,0.48 -0.736,1.344 0,0.928 0.8,1.472 0.832,0.512 2.656,1.248 2.592,0.928 3.936,2.112 1.376,1.184 1.376,3.328003 0,2.176 -1.568,3.424 -1.568,1.216 -4.256,1.216 z"
         style=""
         id="path13839" />
      <path
         d="m 261.12669,106.4133 q -1.76,0 -2.624,-1.024 -0.832,-1.056 -0.832,-2.88 V 92.109297 h -2.656 v -2.432 h 2.656 v -5.408 l 2.784,-1.344 v 6.752 h 4.032 v 2.432 h -4.032 v 9.472003 q 0,1.088 0.352,1.664 0.352,0.576 1.344,0.576 1.088,0 2.432,-0.864 l -0.32,2.72 q -1.408,0.736 -3.136,0.736 z"
         style=""
         id="path13841" />
      <path
         d="m 274.63969,106.4133 q -2.208,0 -3.872,-1.088 -1.632,-1.088 -2.528,-3.04 -0.864,-1.952 -0.864,-4.448003 0,-2.656 0.896,-4.576 0.896,-1.952 2.528,-2.944 1.664,-1.024 3.84,-1.024 1.92,0 3.424,0.864 1.536,0.832 2.432,2.592 0.896,1.728 0.896,4.32 0,0.896 -0.096,1.856 h -11.072 q 0.16,2.240003 1.376,3.616003 1.248,1.344 3.104,1.344 2.048,0 3.52,-1.472 l 1.696,1.888 q -0.96,0.96 -2.336,1.536 -1.344,0.576 -2.944,0.576 z m 3.936,-9.856003 q -0.032,-2.528 -1.216,-3.648 -1.152,-1.152 -2.72,-1.152 -1.888,0 -3.104,1.216 -1.216,1.184 -1.344,3.584 z"
         style=""
         id="path13843" />
      <path
         d="m 285.52319,89.677297 h 2.784 v 2.144 q 0.704,-1.248 1.728,-1.888 1.056,-0.64 2.272,-0.64 1.472,0 2.4,0.832 l -0.416,2.624 q -1.024,-0.704 -2.336,-0.704 -0.832,0 -1.664,0.448 -0.832,0.448 -1.408,1.536 -0.576,1.056 -0.576,2.784 v 9.216003 h -2.784 z"
         style=""
         id="path13845" />
    </g>
    <g
       aria-label="Spark Worker"
       transform="matrix(0.26458333,0,0,0.26458333,80.260703,124.92814)"
       style="font-style:normal;font-variant:normal;font-weight:normal;font-stretch:normal;font-size:32px;line-height:125%;font-family:Overpass;-inkscape-font-specification:Overpass;text-align:center;letter-spacing:0px;word-spacing:0px;text-anchor:middle;fill:#ffffff;stroke:none;stroke-width:1px;stroke-linecap:butt;stroke-linejoin:miter;stroke-opacity:1"
       id="flowRoot8121-3">
      <path
         d="m 113.09369,106.4133 q -2.848,0 -4.96,-1.376 -2.08,-1.408 -2.848,-3.616 l 2.624,-0.96 q 0.704,1.536 2.08,2.432 1.376,0.896 3.168,0.896 2.048,0 3.232,-0.96 1.184,-0.992 1.184,-2.816 0,-1.760003 -1.344,-2.816003 -1.312,-1.056 -3.712,-1.92 -2.016,-0.736 -3.36,-1.472 -1.344,-0.736 -2.272,-1.952 -0.928,-1.248 -0.928,-3.072 0,-1.536 0.832,-2.784 0.832,-1.28 2.368,-2.016 1.568,-0.736 3.68,-0.736 2.592,0 4.32,1.12 1.728,1.088 2.24,2.88 l -2.56,0.864 q -0.448,-0.992 -1.536,-1.632 -1.088,-0.64 -2.656,-0.64 -1.76,0 -2.784,0.8 -1.024,0.768 -1.024,2.144 0,1.408 1.216,2.24 1.216,0.8 3.616,1.696 2.016,0.768 3.424,1.6 1.408,0.8 2.368,2.208 0.992,1.376 0.992,3.424 0,2.016003 -0.96,3.488003 -0.928,1.44 -2.624,2.208 -1.664,0.768 -3.776,0.768 z"
         style=""
         id="path13848" />
      <path
         d="m 132.24919,106.4133 q -1.472,0 -2.464,-0.512 -0.992,-0.512 -1.728,-1.408 v 6.688 l -2.784,1.312 V 89.677297 h 2.784 v 1.376 q 0.832,-0.832 1.792,-1.28 0.992,-0.48 2.4,-0.48 2.048,0 3.584,1.056 1.536,1.024 2.336,2.976 0.832,1.92 0.832,4.512 0,2.656003 -0.864,4.608003 -0.832,1.92 -2.368,2.944 -1.536,1.024 -3.52,1.024 z m -0.352,-2.592 q 2.048,0 3.136,-1.536 1.12,-1.568 1.12,-4.448003 0,-2.72 -1.152,-4.352 -1.12,-1.632 -3.104,-1.632 -1.248,0 -2.24,0.576 -0.992,0.576 -1.6,1.632 v 7.552003 q 1.696,2.208 3.84,2.208 z"
         style=""
         id="path13850" />
      <path
         d="m 152.71169,104.5253 q -0.896,0.832 -2.08,1.376 -1.184,0.512 -2.56,0.512 -2.592,0 -4.16,-1.408 -1.536,-1.44 -1.536,-4.096 0,-2.656003 1.76,-4.032003 1.76,-1.376 4.352,-1.376 2.368,0 4.224,1.056 v -1.152 q 0,-2.048 -0.928,-2.848 -0.896,-0.832 -2.624,-0.832 -1.28,0 -2.528,0.48 -1.248,0.448 -2.24,1.152 l -0.8,-2.336 q 1.12,-0.736 2.656,-1.216 1.568,-0.512 3.264,-0.512 2.432,0 4.128,1.248 1.696,1.248 1.696,4.64 V 106.0293 h -2.624 z m -4.224,-0.576 q 1.28,0 2.336,-0.608 1.088,-0.608 1.888,-1.536 v -2.816003 q -0.768,-0.48 -1.824,-0.768 -1.056,-0.32 -2.016,-0.32 -1.696,0 -2.784,0.768 -1.088,0.768 -1.088,2.240003 0,1.376 0.896,2.208 0.928,0.832 2.592,0.832 z"
         style=""
         id="path13852" />
      <path
         d="m 160.14819,89.677297 h 2.784 v 2.144 q 0.704,-1.248 1.728,-1.888 1.056,-0.64 2.272,-0.64 1.472,0 2.4,0.832 l -0.416,2.624 q -1.024,-0.704 -2.336,-0.704 -0.832,0 -1.664,0.448 -0.832,0.448 -1.408,1.536 -0.576,1.056 -0.576,2.784 v 9.216003 h -2.784 z"
         style=""
         id="path13854" />
      <path
         d="m 183.01319,106.0293 -5.056,-9.888003 -2.4,2.496 v 7.392003 h -2.784 V 84.237297 l 2.784,-1.312 v 12.384 l 5.312,-5.632 h 3.328 l -4.288,4.448 6.144,11.904003 z"
         style=""
         id="path13856" />
      <path
         d="m 195.46719,83.629297 h 2.912 l 2.752,14.592 q 0.288,1.44 0.416,2.400003 0.192,-0.896003 0.352,-1.408003 -0.032,0.096 0.256,-0.96 l 3.968,-14.624 h 2.208 l 4,14.592 q 0.384,1.44 0.512,2.176003 0.128,-0.832003 0.416,-2.208003 l 3.04,-14.56 h 2.848 l -4.864,22.400003 h -2.208 l -4.32,-15.296003 q -0.48,-1.76 -0.576,-2.208 -0.16,0.864 -0.544,2.208 l -4.32,15.296003 h -2.272 z"
         style=""
         id="path13858" />
      <path
         d="m 229.67019,106.4133 q -3.328,0 -5.28,-2.272 -1.952,-2.272 -1.952,-6.272003 0,-2.656 0.896,-4.576 0.896,-1.952 2.528,-2.976 1.632,-1.024 3.808,-1.024 3.328,0 5.28,2.272 1.952,2.272 1.952,6.272 0,2.656003 -0.896,4.608003 -0.896,1.92 -2.528,2.944 -1.632,1.024 -3.808,1.024 z m 0,-2.592 q 2.08,0 3.232,-1.568 1.184,-1.6 1.184,-4.416003 0,-2.784 -1.184,-4.384 -1.152,-1.6 -3.232,-1.6 -2.08,0 -3.264,1.6 -1.152,1.568 -1.152,4.416 0,2.784003 1.152,4.384003 1.184,1.568 3.264,1.568 z"
         style=""
         id="path13860" />
      <path
         d="m 241.27319,89.677297 h 2.784 v 2.144 q 0.704,-1.248 1.728,-1.888 1.056,-0.64 2.272,-0.64 1.472,0 2.4,0.832 l -0.416,2.624 q -1.024,-0.704 -2.336,-0.704 -0.832,0 -1.664,0.448 -0.832,0.448 -1.408,1.536 -0.576,1.056 -0.576,2.784 v 9.216003 h -2.784 z"
         style=""
         id="path13862" />
      <path
         d="m 264.13819,106.0293 -5.056,-9.888003 -2.4,2.496 v 7.392003 h -2.784 V 84.237297 l 2.784,-1.312 v 12.384 l 5.312,-5.632 h 3.328 l -4.288,4.448 6.144,11.904003 z"
         style=""
         id="path13864" />
      <path
         d="m 276.70219,106.4133 q -2.208,0 -3.872,-1.088 -1.632,-1.088 -2.528,-3.04 -0.864,-1.952 -0.864,-4.448003 0,-2.656 0.896,-4.576 0.896,-1.952 2.528,-2.944 1.664,-1.024 3.84,-1.024 1.92,0 3.424,0.864 1.536,0.832 2.432,2.592 0.896,1.728 0.896,4.32 0,0.896 -0.096,1.856 h -11.072 q 0.16,2.240003 1.376,3.616003 1.248,1.344 3.104,1.344 2.048,0 3.52,-1.472 l 1.696,1.888 q -0.96,0.96 -2.336,1.536 -1.344,0.576 -2.944,0.576 z m 3.936,-9.856003 q -0.032,-2.528 -1.216,-3.648 -1.152,-1.152 -2.72,-1.152 -1.888,0 -3.104,1.216 -1.216,1.184 -1.344,3.584 z"
         style=""
         id="path13866" />
      <path
         d="m 287.58569,89.677297 h 2.784 v 2.144 q 0.704,-1.248 1.728,-1.888 1.056,-0.64 2.272,-0.64 1.472,0 2.4,0.832 l -0.416,2.624 q -1.024,-0.704 -2.336,-0.704 -0.832,0 -1.664,0.448 -0.832,0.448 -1.408,1.536 -0.576,1.056 -0.576,2.784 v 9.216003 h -2.784 z"
         style=""
         id="path13868" />
    </g>
    <g
       aria-label="Spark Worker"
       transform="matrix(0.26458333,0,0,0.26458333,80.260703,135.89308)"
       style="font-style:normal;font-variant:normal;font-weight:normal;font-stretch:normal;font-size:32px;line-height:125%;font-family:Overpass;-inkscape-font-specification:Overpass;text-align:center;letter-spacing:0px;word-spacing:0px;text-anchor:middle;fill:#ffffff;stroke:none;stroke-width:1px;stroke-linecap:butt;stroke-linejoin:miter;stroke-opacity:1"
       id="flowRoot8121-3-8">
      <path
         d="m 113.09369,106.4133 q -2.848,0 -4.96,-1.376 -2.08,-1.408 -2.848,-3.616 l 2.624,-0.96 q 0.704,1.536 2.08,2.432 1.376,0.896 3.168,0.896 2.048,0 3.232,-0.96 1.184,-0.992 1.184,-2.816 0,-1.760003 -1.344,-2.816003 -1.312,-1.056 -3.712,-1.92 -2.016,-0.736 -3.36,-1.472 -1.344,-0.736 -2.272,-1.952 -0.928,-1.248 -0.928,-3.072 0,-1.536 0.832,-2.784 0.832,-1.28 2.368,-2.016 1.568,-0.736 3.68,-0.736 2.592,0 4.32,1.12 1.728,1.088 2.24,2.88 l -2.56,0.864 q -0.448,-0.992 -1.536,-1.632 -1.088,-0.64 -2.656,-0.64 -1.76,0 -2.784,0.8 -1.024,0.768 -1.024,2.144 0,1.408 1.216,2.24 1.216,0.8 3.616,1.696 2.016,0.768 3.424,1.6 1.408,0.8 2.368,2.208 0.992,1.376 0.992,3.424 0,2.016003 -0.96,3.488003 -0.928,1.44 -2.624,2.208 -1.664,0.768 -3.776,0.768 z"
         style=""
         id="path13871" />
      <path
         d="m 132.24919,106.4133 q -1.472,0 -2.464,-0.512 -0.992,-0.512 -1.728,-1.408 v 6.688 l -2.784,1.312 V 89.677297 h 2.784 v 1.376 q 0.832,-0.832 1.792,-1.28 0.992,-0.48 2.4,-0.48 2.048,0 3.584,1.056 1.536,1.024 2.336,2.976 0.832,1.92 0.832,4.512 0,2.656003 -0.864,4.608003 -0.832,1.92 -2.368,2.944 -1.536,1.024 -3.52,1.024 z m -0.352,-2.592 q 2.048,0 3.136,-1.536 1.12,-1.568 1.12,-4.448003 0,-2.72 -1.152,-4.352 -1.12,-1.632 -3.104,-1.632 -1.248,0 -2.24,0.576 -0.992,0.576 -1.6,1.632 v 7.552003 q 1.696,2.208 3.84,2.208 z"
         style=""
         id="path13873" />
      <path
         d="m 152.71169,104.5253 q -0.896,0.832 -2.08,1.376 -1.184,0.512 -2.56,0.512 -2.592,0 -4.16,-1.408 -1.536,-1.44 -1.536,-4.096 0,-2.656003 1.76,-4.032003 1.76,-1.376 4.352,-1.376 2.368,0 4.224,1.056 v -1.152 q 0,-2.048 -0.928,-2.848 -0.896,-0.832 -2.624,-0.832 -1.28,0 -2.528,0.48 -1.248,0.448 -2.24,1.152 l -0.8,-2.336 q 1.12,-0.736 2.656,-1.216 1.568,-0.512 3.264,-0.512 2.432,0 4.128,1.248 1.696,1.248 1.696,4.64 V 106.0293 h -2.624 z m -4.224,-0.576 q 1.28,0 2.336,-0.608 1.088,-0.608 1.888,-1.536 v -2.816003 q -0.768,-0.48 -1.824,-0.768 -1.056,-0.32 -2.016,-0.32 -1.696,0 -2.784,0.768 -1.088,0.768 -1.088,2.240003 0,1.376 0.896,2.208 0.928,0.832 2.592,0.832 z"
         style=""
         id="path13875" />
      <path
         d="m 160.14819,89.677297 h 2.784 v 2.144 q 0.704,-1.248 1.728,-1.888 1.056,-0.64 2.272,-0.64 1.472,0 2.4,0.832 l -0.416,2.624 q -1.024,-0.704 -2.336,-0.704 -0.832,0 -1.664,0.448 -0.832,0.448 -1.408,1.536 -0.576,1.056 -0.576,2.784 v 9.216003 h -2.784 z"
         style=""
         id="path13877" />
      <path
         d="m 183.01319,106.0293 -5.056,-9.888003 -2.4,2.496 v 7.392003 h -2.784 V 84.237297 l 2.784,-1.312 v 12.384 l 5.312,-5.632 h 3.328 l -4.288,4.448 6.144,11.904003 z"
         style=""
         id="path13879" />
      <path
         d="m 195.46719,83.629297 h 2.912 l 2.752,14.592 q 0.288,1.44 0.416,2.400003 0.192,-0.896003 0.352,-1.408003 -0.032,0.096 0.256,-0.96 l 3.968,-14.624 h 2.208 l 4,14.592 q 0.384,1.44 0.512,2.176003 0.128,-0.832003 0.416,-2.208003 l 3.04,-14.56 h 2.848 l -4.864,22.400003 h -2.208 l -4.32,-15.296003 q -0.48,-1.76 -0.576,-2.208 -0.16,0.864 -0.544,2.208 l -4.32,15.296003 h -2.272 z"
         style=""
         id="path13881" />
      <path
         d="m 229.67019,106.4133 q -3.328,0 -5.28,-2.272 -1.952,-2.272 -1.952,-6.272003 0,-2.656 0.896,-4.576 0.896,-1.952 2.528,-2.976 1.632,-1.024 3.808,-1.024 3.328,0 5.28,2.272 1.952,2.272 1.952,6.272 0,2.656003 -0.896,4.608003 -0.896,1.92 -2.528,2.944 -1.632,1.024 -3.808,1.024 z m 0,-2.592 q 2.08,0 3.232,-1.568 1.184,-1.6 1.184,-4.416003 0,-2.784 -1.184,-4.384 -1.152,-1.6 -3.232,-1.6 -2.08,0 -3.264,1.6 -1.152,1.568 -1.152,4.416 0,2.784003 1.152,4.384003 1.184,1.568 3.264,1.568 z"
         style=""
         id="path13883" />
      <path
         d="m 241.27319,89.677297 h 2.784 v 2.144 q 0.704,-1.248 1.728,-1.888 1.056,-0.64 2.272,-0.64 1.472,0 2.4,0.832 l -0.416,2.624 q -1.024,-0.704 -2.336,-0.704 -0.832,0 -1.664,0.448 -0.832,0.448 -1.408,1.536 -0.576,1.056 -0.576,2.784 v 9.216003 h -2.784 z"
         style=""
         id="path13885" />
      <path
         d="m 264.13819,106.0293 -5.056,-9.888003 -2.4,2.496 v 7.392003 h -2.784 V 84.237297 l 2.784,-1.312 v 12.384 l 5.312,-5.632 h 3.328 l -4.288,4.448 6.144,11.904003 z"
         style=""
         id="path13887" />
      <path
         d="m 276.70219,106.4133 q -2.208,0 -3.872,-1.088 -1.632,-1.088 -2.528,-3.04 -0.864,-1.952 -0.864,-4.448003 0,-2.656 0.896,-4.576 0.896,-1.952 2.528,-2.944 1.664,-1.024 3.84,-1.024 1.92,0 3.424,0.864 1.536,0.832 2.432,2.592 0.896,1.728 0.896,4.32 0,0.896 -0.096,1.856 h -11.072 q 0.16,2.240003 1.376,3.616003 1.248,1.344 3.104,1.344 2.048,0 3.52,-1.472 l 1.696,1.888 q -0.96,0.96 -2.336,1.536 -1.344,0.576 -2.944,0.576 z m 3.936,-9.856003 q -0.032,-2.528 -1.216,-3.648 -1.152,-1.152 -2.72,-1.152 -1.888,0 -3.104,1.216 -1.216,1.184 -1.344,3.584 z"
         style=""
         id="path13889" />
      <path
         d="m 287.58569,89.677297 h 2.784 v 2.144 q 0.704,-1.248 1.728,-1.888 1.056,-0.64 2.272,-0.64 1.472,0 2.4,0.832 l -0.416,2.624 q -1.024,-0.704 -2.336,-0.704 -0.832,0 -1.664,0.448 -0.832,0.448 -1.408,1.536 -0.576,1.056 -0.576,2.784 v 9.216003 h -2.784 z"
         style=""
         id="path13891" />
    </g>
    <rect
       style="fill:#000000;fill-opacity:1;stroke:none;stroke-width:1.0839026;stroke-linecap:round;stroke-linejoin:round;stroke-miterlimit:4;stroke-dasharray:none;stroke-dashoffset:0;stroke-opacity:1"
       id="rect13894"
       width="22.064362"
       height="13.181919"
       x="17.263929"
       y="111.53838"
       ry="0" />
    <g
       aria-label="HTML"
       style="font-style:normal;font-variant:normal;font-weight:normal;font-stretch:normal;font-size:7.63545465px;line-height:125%;font-family:Overpass;-inkscape-font-specification:Overpass;letter-spacing:0px;word-spacing:0px;fill:#ffffff;stroke:none;stroke-width:0.23860796px;stroke-linecap:butt;stroke-linejoin:miter;stroke-opacity:1"
       id="text13898">
      <path
         d="m 22.080845,117.92494 h -2.5197 v 2.45861 h -0.664284 v -5.34482 h 0.664284 v 2.2601 h 2.5197 v -2.2601 h 0.664285 v 5.34482 h -0.664285 z"
         style="font-style:normal;font-variant:normal;font-weight:normal;font-stretch:normal;font-family:Overpass;-inkscape-font-specification:Overpass;fill:#ffffff;stroke:none;stroke-width:0.23860796px"
         id="path13900" />
      <path
         d="m 26.045316,120.38355 h -0.664284 v -4.71107 h -1.488914 v -0.63375 h 3.642112 v 0.63375 h -1.488914 z"
         style="font-style:normal;font-variant:normal;font-weight:normal;font-stretch:normal;font-family:Overpass;-inkscape-font-specification:Overpass;fill:#ffffff;stroke:none;stroke-width:0.23860796px"
         id="path13902" />
      <path
         d="m 32.672772,120.38355 v -3.28324 q 0,-0.31306 0.01527,-0.58793 -0.07635,0.21379 -0.236699,0.6032 l -1.466008,3.3596 -1.420194,-3.37487 q -0.183251,-0.44286 -0.229064,-0.5803 0.02291,0.20616 0.02291,0.5803 v 3.28324 H 28.6947 v -5.34482 h 0.626107 l 1.549998,3.5963 0.137438,0.35887 q 0.03054,-0.0916 0.137438,-0.35887 l 1.557633,-3.5963 h 0.633742 v 5.34482 z"
         style="font-style:normal;font-variant:normal;font-weight:normal;font-stretch:normal;font-family:Overpass;-inkscape-font-specification:Overpass;fill:#ffffff;stroke:none;stroke-width:0.23860796px"
         id="path13904" />
      <path
         d="m 34.823942,115.03873 h 0.664284 v 4.70344 h 2.626597 v 0.64138 h -3.290881 z"
         style="font-style:normal;font-variant:normal;font-weight:normal;font-stretch:normal;font-family:Overpass;-inkscape-font-specification:Overpass;fill:#ffffff;stroke:none;stroke-width:0.23860796px"
         id="path13906" />
    </g>
  </g>
</svg>
