<?xml version="1.0" encoding="UTF-8" standalone="no"?>
<!-- Created with Inkscape (http://www.inkscape.org/) -->

<svg
   xmlns:dc="http://purl.org/dc/elements/1.1/"
   xmlns:cc="http://creativecommons.org/ns#"
   xmlns:rdf="http://www.w3.org/1999/02/22-rdf-syntax-ns#"
   xmlns:svg="http://www.w3.org/2000/svg"
   xmlns="http://www.w3.org/2000/svg"
   xmlns:sodipodi="http://sodipodi.sourceforge.net/DTD/sodipodi-0.dtd"
   xmlns:inkscape="http://www.inkscape.org/namespaces/inkscape"
   width="220.14412mm"
   height="137.87294mm"
   viewBox="0 0 220.14412 137.87294"
   version="1.1"
   id="svg8"
   inkscape:version="0.92.2 (5c3e80d, 2017-08-06)"
   sodipodi:docname="oshinko-s2i-arch.svg"
   inkscape:export-filename="/home/mike/Documents/presentations/hackfest-prep/oshinko-webui-arch.png"
   inkscape:export-xdpi="228.89999"
   inkscape:export-ydpi="228.89999">
  <defs
     id="defs2">
    <marker
       inkscape:isstock="true"
       style="overflow:visible"
       id="marker14572"
       refX="0"
       refY="0"
       orient="auto"
       inkscape:stockid="TriangleOutM">
      <path
         inkscape:connector-curvature="0"
         transform="scale(0.4)"
         style="fill:#000000;fill-opacity:1;fill-rule:evenodd;stroke:#000000;stroke-width:1.00000003pt;stroke-opacity:1"
         d="M 5.77,0 -2.88,5 V -5 Z"
         id="path14570" />
    </marker>
    <marker
       inkscape:stockid="TriangleOutM"
       orient="auto"
       refY="0"
       refX="0"
       id="marker13110"
       style="overflow:visible"
       inkscape:isstock="true"
       inkscape:collect="always">
      <path
         id="path13108"
         d="M 5.77,0 -2.88,5 V -5 Z"
         style="fill:#000000;fill-opacity:1;fill-rule:evenodd;stroke:#000000;stroke-width:1.00000003pt;stroke-opacity:1"
         transform="scale(0.4)"
         inkscape:connector-curvature="0" />
    </marker>
    <marker
       inkscape:isstock="true"
       style="overflow:visible"
       id="marker8299"
       refX="0"
       refY="0"
       orient="auto"
       inkscape:stockid="TriangleOutM"
       inkscape:collect="always">
      <path
         transform="scale(0.4)"
         style="fill:#000000;fill-opacity:1;fill-rule:evenodd;stroke:#000000;stroke-width:1.00000003pt;stroke-opacity:1"
         d="M 5.77,0 -2.88,5 V -5 Z"
         id="path8297"
         inkscape:connector-curvature="0" />
    </marker>
    <marker
       inkscape:stockid="TriangleOutL"
       orient="auto"
       refY="0"
       refX="0"
       id="TriangleOutL"
       style="overflow:visible"
       inkscape:isstock="true">
      <path
         id="path4878"
         d="M 5.77,0 -2.88,5 V -5 Z"
         style="fill:#000000;fill-opacity:1;fill-rule:evenodd;stroke:#000000;stroke-width:1.00000003pt;stroke-opacity:1"
         transform="scale(0.8)"
         inkscape:connector-curvature="0" />
    </marker>
    <marker
       inkscape:stockid="Arrow1Send"
       orient="auto"
       refY="0"
       refX="0"
       id="Arrow1Send"
       style="overflow:visible"
       inkscape:isstock="true">
      <path
         id="path4751"
         d="M 0,0 5,-5 -12.5,0 5,5 Z"
         style="fill:#000000;fill-opacity:1;fill-rule:evenodd;stroke:#000000;stroke-width:1.00000003pt;stroke-opacity:1"
         transform="matrix(-0.2,0,0,-0.2,-1.2,0)"
         inkscape:connector-curvature="0" />
    </marker>
    <marker
       inkscape:stockid="Arrow1Mend"
       orient="auto"
       refY="0"
       refX="0"
       id="Arrow1Mend"
       style="overflow:visible"
       inkscape:isstock="true">
      <path
         id="path4745"
         d="M 0,0 5,-5 -12.5,0 5,5 Z"
         style="fill:#000000;fill-opacity:1;fill-rule:evenodd;stroke:#000000;stroke-width:1.00000003pt;stroke-opacity:1"
         transform="matrix(-0.4,0,0,-0.4,-4,0)"
         inkscape:connector-curvature="0" />
    </marker>
    <marker
       inkscape:stockid="DiamondS"
       orient="auto"
       refY="0"
       refX="0"
       id="DiamondS"
       style="overflow:visible"
       inkscape:isstock="true">
      <path
         id="path4821"
         d="M 0,-7.0710768 -7.0710894,0 0,7.0710589 7.0710462,0 Z"
         style="fill:#000000;fill-opacity:1;fill-rule:evenodd;stroke:#000000;stroke-width:1.00000003pt;stroke-opacity:1"
         transform="scale(0.2)"
         inkscape:connector-curvature="0" />
    </marker>
    <marker
       inkscape:stockid="DotL"
       orient="auto"
       refY="0"
       refX="0"
       id="DotL"
       style="overflow:visible"
       inkscape:isstock="true">
      <path
         id="path4797"
         d="m -2.5,-1 c 0,2.76 -2.24,5 -5,5 -2.76,0 -5,-2.24 -5,-5 0,-2.76 2.24,-5 5,-5 2.76,0 5,2.24 5,5 z"
         style="fill:#000000;fill-opacity:1;fill-rule:evenodd;stroke:#000000;stroke-width:1.00000003pt;stroke-opacity:1"
         transform="matrix(0.8,0,0,0.8,5.92,0.8)"
         inkscape:connector-curvature="0" />
    </marker>
    <marker
       inkscape:stockid="Arrow2Lend"
       orient="auto"
       refY="0"
       refX="0"
       id="Arrow2Lend"
       style="overflow:visible"
       inkscape:isstock="true">
      <path
         id="path4757"
         style="fill:#000000;fill-opacity:1;fill-rule:evenodd;stroke:#000000;stroke-width:0.625;stroke-linejoin:round;stroke-opacity:1"
         d="M 8.7185878,4.0337352 -2.2072895,0.01601326 8.7185884,-4.0017078 c -1.7454984,2.3720609 -1.7354408,5.6174519 -6e-7,8.035443 z"
         transform="matrix(-1.1,0,0,-1.1,-1.1,0)"
         inkscape:connector-curvature="0" />
    </marker>
    <marker
       inkscape:stockid="Arrow1Lend"
       orient="auto"
       refY="0"
       refX="0"
       id="marker5168"
       style="overflow:visible"
       inkscape:isstock="true">
      <path
         id="path5166"
         d="M 0,0 5,-5 -12.5,0 5,5 Z"
         style="fill:#000000;fill-opacity:1;fill-rule:evenodd;stroke:#000000;stroke-width:1.00000003pt;stroke-opacity:1"
         transform="matrix(-0.8,0,0,-0.8,-10,0)"
         inkscape:connector-curvature="0" />
    </marker>
    <marker
       inkscape:stockid="Arrow1Lend"
       orient="auto"
       refY="0"
       refX="0"
       id="Arrow1Lend"
       style="overflow:visible"
       inkscape:isstock="true">
      <path
         id="path4739"
         d="M 0,0 5,-5 -12.5,0 5,5 Z"
         style="fill:#000000;fill-opacity:1;fill-rule:evenodd;stroke:#000000;stroke-width:1.00000003pt;stroke-opacity:1"
         transform="matrix(-0.8,0,0,-0.8,-10,0)"
         inkscape:connector-curvature="0" />
    </marker>
    <marker
       inkscape:stockid="Arrow1Lstart"
       orient="auto"
       refY="0"
       refX="0"
       id="marker5048"
       style="overflow:visible"
       inkscape:isstock="true">
      <path
         id="path5046"
         d="M 0,0 5,-5 -12.5,0 5,5 Z"
         style="fill:#000000;fill-opacity:1;fill-rule:evenodd;stroke:#000000;stroke-width:1.00000003pt;stroke-opacity:1"
         transform="matrix(0.8,0,0,0.8,10,0)"
         inkscape:connector-curvature="0" />
    </marker>
    <marker
       inkscape:stockid="Arrow1Lstart"
       orient="auto"
       refY="0"
       refX="0"
       id="marker5020"
       style="overflow:visible"
       inkscape:isstock="true">
      <path
         id="path5018"
         d="M 0,0 5,-5 -12.5,0 5,5 Z"
         style="fill:#000000;fill-opacity:1;fill-rule:evenodd;stroke:#000000;stroke-width:1.00000003pt;stroke-opacity:1"
         transform="matrix(0.8,0,0,0.8,10,0)"
         inkscape:connector-curvature="0" />
    </marker>
    <marker
       inkscape:stockid="Arrow1Lstart"
       orient="auto"
       refY="0"
       refX="0"
       id="Arrow1Lstart"
       style="overflow:visible"
       inkscape:isstock="true">
      <path
         id="path4736"
         d="M 0,0 5,-5 -12.5,0 5,5 Z"
         style="fill:#000000;fill-opacity:1;fill-rule:evenodd;stroke:#000000;stroke-width:1.00000003pt;stroke-opacity:1"
         transform="matrix(0.8,0,0,0.8,10,0)"
         inkscape:connector-curvature="0" />
    </marker>
    <marker
       inkscape:stockid="TriangleOutM"
       orient="auto"
       refY="0"
       refX="0"
       id="TriangleOutM-1"
       style="overflow:visible"
       inkscape:isstock="true">
      <path
         inkscape:connector-curvature="0"
         id="path4881-7"
         d="M 5.77,0 -2.88,5 V -5 Z"
         style="fill:#000000;fill-opacity:1;fill-rule:evenodd;stroke:#000000;stroke-width:1.00000003pt;stroke-opacity:1"
         transform="scale(0.4)" />
    </marker>
    <marker
       inkscape:isstock="true"
       style="overflow:visible"
       id="marker8299-8"
       refX="0"
       refY="0"
       orient="auto"
       inkscape:stockid="TriangleOutM">
      <path
         inkscape:connector-curvature="0"
         transform="scale(0.4)"
         style="fill:#000000;fill-opacity:1;fill-rule:evenodd;stroke:#000000;stroke-width:1.00000003pt;stroke-opacity:1"
         d="M 5.77,0 -2.88,5 V -5 Z"
         id="path8297-8" />
    </marker>
    <marker
       inkscape:isstock="true"
       style="overflow:visible"
       id="marker8299-1"
       refX="0"
       refY="0"
       orient="auto"
       inkscape:stockid="TriangleOutM">
      <path
         inkscape:connector-curvature="0"
         transform="scale(0.4)"
         style="fill:#000000;fill-opacity:1;fill-rule:evenodd;stroke:#000000;stroke-width:1.00000003pt;stroke-opacity:1"
         d="M 5.77,0 -2.88,5 V -5 Z"
         id="path8297-0" />
    </marker>
  </defs>
  <sodipodi:namedview
     id="base"
     pagecolor="#ffffff"
     bordercolor="#666666"
     borderopacity="1.0"
     inkscape:pageopacity="0.0"
     inkscape:pageshadow="2"
     inkscape:zoom="1.4"
     inkscape:cx="49.632245"
     inkscape:cy="93.80323"
     inkscape:document-units="mm"
     inkscape:current-layer="layer1"
     inkscape:document-rotation="0"
     showgrid="false"
     inkscape:window-width="2556"
     inkscape:window-height="1400"
     inkscape:window-x="4"
     inkscape:window-y="4"
     inkscape:window-maximized="1"
     showguides="true"
     inkscape:guide-bbox="true"
     fit-margin-top="1"
     fit-margin-left="1"
     fit-margin-right="1"
     fit-margin-bottom="1" />
  <metadata
     id="metadata5">
    <rdf:RDF>
      <cc:Work
         rdf:about="">
        <dc:format>image/svg+xml</dc:format>
        <dc:type
           rdf:resource="http://purl.org/dc/dcmitype/StillImage" />
        <dc:title></dc:title>
      </cc:Work>
    </rdf:RDF>
  </metadata>
  <g
     inkscape:label="Layer 1"
     inkscape:groupmode="layer"
     id="layer1"
     transform="translate(30.124835,-59.466032)">
    <rect
       style="fill:#ececec;fill-opacity:1;stroke:#b0b0b0;stroke-width:0.56822687;stroke-linecap:round;stroke-linejoin:round;stroke-miterlimit:4;stroke-dasharray:none;stroke-dashoffset:0;stroke-opacity:1"
       id="rect4267"
       width="88.294395"
       height="135.30472"
       x="89.443764"
       y="60.750145"
       ry="4.7430067" />
    <g
       transform="matrix(0.07682444,0,0,0.07682444,95.459039,56.649482)"
       id="layer1-6"
       inkscape:label="Layer 1">
      <path
         style="fill:#c22133;fill-opacity:1;fill-rule:nonzero;stroke:none;stroke-width:3.10520983"
         id="path44560"
         d="m 137.63784,133.51576 c -1.77773,-3.67191 -3.83493,-7.21573 -6.22206,-10.55771 l -25.50154,9.28069 c 2.96548,3.03534 5.45741,6.44719 7.49521,10.09581 z m -112.728021,28.2058 -25.50929767,9.2807 c 0.326047,4.09111 1.032483,8.13176 2.02226797,12.09091 l 24.2322817,-8.82268 c -0.787948,-4.09888 -1.067417,-8.32196 -0.745252,-12.54893"
         inkscape:connector-curvature="0" />
      <path
         style="fill:#db212e;fill-opacity:1;fill-rule:nonzero;stroke:none;stroke-width:3.10520983"
         id="path44564"
         d="m 81.521673,126.29149 c 5.30603,2.4764 9.90174,5.85332 13.77937,9.81246 l 25.501537,-9.28069 c -7.06436,-9.91339 -16.68662,-18.19653 -28.474777,-23.69664 -36.459041,-17.001021 -79.955268,-1.17221 -96.9524097,35.28295 -5.5039843,11.79592 -7.5495413,24.32544 -6.5869263,36.45905 l 25.505417,-9.2807 c 0.423084,-5.52727 1.769969,-11.06619 4.242493,-16.3761 11.046783,-23.68499 39.300311,-33.96323 62.985296,-22.92033"
         inkscape:connector-curvature="0" />
      <path
         style="fill:#db212e;fill-opacity:1;fill-rule:nonzero;stroke:none;stroke-width:3.10520983"
         id="path44572"
         d="m 108.72213,172.89488 c -0.40756,5.52339 -1.80102,11.06231 -4.28131,16.3761 -11.042897,23.68887 -39.300306,33.96712 -62.981412,22.92422 -5.313791,-2.48029 -9.944436,-5.83004 -13.80654,-9.79694 l -25.4510747,9.26129 c 7.048825,9.91338 16.6594497,18.20041 28.4553657,23.70439 36.459046,16.99715 79.947501,1.16834 96.948531,-35.2907 5.50786,-11.78816 7.5379,-24.31768 6.56752,-36.43965 z"
         inkscape:connector-curvature="0" />
      <path
         style="fill:#eb2126;fill-opacity:1;fill-rule:nonzero;stroke:none;stroke-width:3.10520983"
         id="path44576"
         d="m 114.99351,141.75854 -24.232287,8.8188 c 4.50256,8.06578 6.62963,17.35035 5.93096,26.68927 l 25.451067,-9.2574 c -0.72972,-9.1332 -3.16343,-18.04904 -7.14974,-26.25067 M 3.0111043,182.51131 -21.221177,191.33787 c 2.224107,8.83433 6.086212,17.23004 11.3961203,24.70195 L 15.622137,206.77465 C 9.0895533,200.0674 4.7461403,191.57852 3.0111043,182.51131"
         inkscape:connector-curvature="0" />
      <path
         style="fill:#ad213b;fill-opacity:1;fill-rule:nonzero;stroke:none;stroke-width:3.10520983"
         id="path44584"
         d="m 133.9442,126.79726 c -0.80348,-1.30418 -1.638,-2.58896 -2.52687,-3.83881 l -25.50153,9.2807 c 1.12175,1.14892 2.15424,2.36772 3.14014,3.61757 z M 24.812378,166.8432 c -0.0621,-1.7001 -0.03509,-3.40797 0.09688,-5.11971 l -25.50929867,9.28069 c 0.131972,1.63412 0.337692,3.25659 0.582227,4.87518 L 24.812219,166.8432 Z"
         inkscape:connector-curvature="0" />
      <path
         style="fill:#ba2133;fill-opacity:1;fill-rule:nonzero;stroke:none;stroke-width:3.10520983"
         id="path44588"
         d="m 134.17165,163.63319 -25.45107,9.26129 c -0.26798,3.66415 -0.98203,7.33606 -2.15036,10.94586 l 27.70235,-10.09969 c 0.19812,-3.38468 0.16675,-6.7616 -0.10092,-10.10746 M 2.2041223,211.66303 c 1.960164,2.75975 4.129928,5.39142 6.486008,7.87559 L 36.396363,209.43504 c -3.23718,-2.02615 -6.163842,-4.38999 -8.745045,-7.03718 z"
         inkscape:connector-curvature="0" />
    </g>
    <rect
       style="fill:#ffffff;fill-opacity:1;stroke:#b0b0b0;stroke-width:0.57383615;stroke-linecap:round;stroke-linejoin:round;stroke-miterlimit:4;stroke-dasharray:none;stroke-dashoffset:0;stroke-opacity:1"
       id="rect4524"
       width="79.588226"
       height="113.67964"
       x="93.513359"
       y="78.100563"
       ry="4.6050725" />
    <g
       aria-label="Project"
       style="font-style:normal;font-variant:normal;font-weight:normal;font-stretch:normal;font-size:8.46666622px;line-height:125%;font-family:Overpass;-inkscape-font-specification:Overpass;letter-spacing:0px;word-spacing:0px;fill:#000000;fill-opacity:1;stroke:none;stroke-width:0.26458332px;stroke-linecap:butt;stroke-linejoin:miter;stroke-opacity:1"
       id="text4528">
      <path
         d="m 97.667601,87.227142 h 0.7366 v -2.379133 h 1.532467 c 1.388532,0 1.913462,-0.956733 1.913462,-1.769533 0,-0.880533 -0.47413,-1.778 -1.913462,-1.778 h -2.269067 z m 2.319867,-3.064933 h -1.583267 v -2.175933 h 1.583267 c 0.889002,0 1.126062,0.626533 1.126062,1.0922 0,0.508 -0.28786,1.083733 -1.126062,1.083733 z"
         style="font-style:normal;font-variant:normal;font-weight:normal;font-stretch:normal;font-family:Overpass;-inkscape-font-specification:Overpass;fill:#000000;fill-opacity:1;stroke:none;stroke-width:0.26458332px"
         id="path3240" />
      <path
         d="m 102.88188,87.227142 h 0.7366 v -2.4384 c 0,-0.982133 0.55033,-1.261533 0.9652,-1.261533 0.29633,0 0.4826,0.09313 0.61806,0.186267 l 0.11007,-0.694267 c -0.1524,-0.127 -0.38947,-0.220133 -0.66887,-0.220133 -0.4826,0 -0.82973,0.237067 -1.02446,0.668867 v -0.567267 h -0.7366 z"
         style="font-style:normal;font-variant:normal;font-weight:normal;font-stretch:normal;font-family:Overpass;-inkscape-font-specification:Overpass;fill:#000000;fill-opacity:1;stroke:none;stroke-width:0.26458332px"
         id="path3242" />
      <path
         d="m 107.8321,87.328742 c 1.15993,0 1.91346,-0.846666 1.91346,-2.269066 0,-1.430867 -0.75353,-2.2606 -1.91346,-2.2606 -1.15994,0 -1.91347,0.846667 -1.91347,2.269066 0,1.430867 0.75353,2.2606 1.91347,2.2606 z m 0,-0.6858 c -0.7366,0 -1.1684,-0.592666 -1.1684,-1.5748 0,-1.007533 0.4318,-1.591733 1.1684,-1.591733 0.7366,0 1.1684,0.601133 1.1684,1.583267 0,0.9906 -0.44027,1.583266 -1.1684,1.583266 z"
         style="font-style:normal;font-variant:normal;font-weight:normal;font-stretch:normal;font-family:Overpass;-inkscape-font-specification:Overpass;fill:#000000;fill-opacity:1;stroke:none;stroke-width:0.26458332px"
         id="path3244" />
      <path
         d="m 111.28306,82.113276 c 0.26247,0 0.4572,-0.2032 0.4572,-0.4572 0,-0.262467 -0.19473,-0.474133 -0.4572,-0.474133 -0.26247,0 -0.46567,0.211666 -0.46567,0.474133 0,0.254 0.2032,0.4572 0.46567,0.4572 z m -1.13453,6.925733 c 0.41486,-0.05927 0.84666,-0.2032 1.17686,-0.6096 0.24554,-0.287867 0.32174,-0.702733 0.32174,-1.1684 v -4.360333 h -0.7366 v 4.631266 c 0,0.516467 -0.24554,0.8128 -1.10914,0.948267 z"
         style="font-style:normal;font-variant:normal;font-weight:normal;font-stretch:normal;font-family:Overpass;-inkscape-font-specification:Overpass;fill:#000000;fill-opacity:1;stroke:none;stroke-width:0.26458332px"
         id="path3246" />
      <path
         d="m 114.71973,87.328742 c 0.5842,0 1.07527,-0.237066 1.397,-0.5588 L 115.668,86.270409 c -0.27094,0.270933 -0.60114,0.389467 -0.93134,0.389467 -0.65193,0 -1.12606,-0.516467 -1.18533,-1.312334 h 2.92947 c 0.0169,-0.169333 0.0254,-0.3556 0.0254,-0.491066 0,-1.4224 -0.8128,-2.0574 -1.78647,-2.0574 -1.15147,0 -1.92193,0.829733 -1.92193,2.2606 0,1.3208 0.7366,2.269066 1.92193,2.269066 z m -1.17687,-2.607733 c 0.0423,-0.889 0.55034,-1.27 1.17687,-1.27 0.4572,0 1.03293,0.287867 1.0414,1.27 z"
         style="font-style:normal;font-variant:normal;font-weight:normal;font-stretch:normal;font-family:Overpass;-inkscape-font-specification:Overpass;fill:#000000;fill-opacity:1;stroke:none;stroke-width:0.26458332px"
         id="path3248" />
      <path
         d="m 119.14026,87.328742 c 0.79586,0 1.3716,-0.397933 1.58326,-1.109133 l -0.6858,-0.2286 c -0.127,0.4064 -0.44873,0.643467 -0.88053,0.643467 -0.69427,0 -1.05833,-0.5842 -1.05833,-1.566334 0,-0.973666 0.34713,-1.583266 1.08373,-1.583266 0.42333,0 0.6858,0.245533 0.8128,0.575733 l 0.69427,-0.254 c -0.24554,-0.677333 -0.79587,-1.007533 -1.51554,-1.007533 -1.13453,0 -1.8288,0.846667 -1.8288,2.269066 0,1.430867 0.69427,2.2606 1.79494,2.2606 z"
         style="font-style:normal;font-variant:normal;font-weight:normal;font-stretch:normal;font-family:Overpass;-inkscape-font-specification:Overpass;fill:#000000;fill-opacity:1;stroke:none;stroke-width:0.26458332px"
         id="path3250" />
      <path
         d="m 122.91837,87.328742 c 0.33867,0 0.60114,-0.0762 0.82974,-0.194733 l 0.0847,-0.719667 c -0.18626,0.118534 -0.39793,0.2286 -0.64346,0.2286 -0.381,0 -0.44874,-0.262466 -0.44874,-0.592666 v -2.506133 h 1.0668 v -0.643467 h -1.0668 v -1.786467 l -0.7366,0.3556 v 1.430867 h -0.70273 v 0.643467 h 0.70273 v 2.751666 c 0,0.6096 0.26247,1.032933 0.9144,1.032933 z"
         style="font-style:normal;font-variant:normal;font-weight:normal;font-stretch:normal;font-family:Overpass;-inkscape-font-specification:Overpass;fill:#000000;fill-opacity:1;stroke:none;stroke-width:0.26458332px"
         id="path3252" />
    </g>
    <rect
       style="fill:#004153;fill-opacity:1;stroke:none;stroke-width:0.37667018;stroke-linecap:round;stroke-linejoin:round;stroke-miterlimit:4;stroke-dasharray:none;stroke-dashoffset:0;stroke-opacity:1"
       id="rect4524-0-1-2"
       width="72.490669"
       height="9.5511723"
       x="96.967636"
       y="155.85052"
       ry="0.38691041" />
    <rect
       style="fill:#004153;fill-opacity:1;stroke:none;stroke-width:0.37667018;stroke-linecap:round;stroke-linejoin:round;stroke-miterlimit:4;stroke-dasharray:none;stroke-dashoffset:0;stroke-opacity:1"
       id="rect4524-0-1-1"
       width="72.490669"
       height="9.5511723"
       x="96.967644"
       y="174.22382"
       ry="0.38691041" />
    <path
       style="fill:none;fill-rule:evenodd;stroke:#000000;stroke-width:0.96499997;stroke-linecap:butt;stroke-linejoin:miter;stroke-miterlimit:4;stroke-dasharray:none;stroke-opacity:1;marker-end:url(#marker8299)"
       d="m 134.24991,133.64153 c 60.68375,5.27654 51.97845,16.77172 39.18515,26.02431"
       id="path8235"
       inkscape:connector-curvature="0"
       sodipodi:nodetypes="cc" />
    <path
       style="fill:none;fill-rule:evenodd;stroke:#000000;stroke-width:0.96499997;stroke-linecap:butt;stroke-linejoin:miter;stroke-miterlimit:4;stroke-dasharray:none;stroke-opacity:1;marker-end:url(#marker8299-8)"
       d="m 134.24991,133.64153 c 71.86071,5.77329 56.71305,35.24837 39.77712,44.31685"
       id="path8235-0"
       inkscape:connector-curvature="0"
       sodipodi:nodetypes="cc" />
    <path
       style="fill:none;fill-rule:evenodd;stroke:#000000;stroke-width:0.96499997;stroke-linecap:butt;stroke-linejoin:miter;stroke-miterlimit:4;stroke-dasharray:none;stroke-opacity:1;marker-end:url(#marker13110)"
       d="M 44.983891,122.86551 C 58.574999,112.81707 75.48927,104.87137 93.355346,103.37287"
       id="path13100"
       inkscape:connector-curvature="0"
       sodipodi:nodetypes="cc" />
    <g
       aria-label="Spark Master"
       transform="matrix(0.26458333,0,0,0.26458333,80.166196,135.20549)"
       style="font-style:normal;font-variant:normal;font-weight:normal;font-stretch:normal;font-size:32px;line-height:125%;font-family:Overpass;-inkscape-font-specification:Overpass;text-align:center;letter-spacing:0px;word-spacing:0px;text-anchor:middle;fill:#ffffff;stroke:none;stroke-width:1px;stroke-linecap:butt;stroke-linejoin:miter;stroke-opacity:1"
       id="flowRoot8121-1">
      <path
         d="m 115.15619,106.4133 q -2.848,0 -4.96,-1.376 -2.08,-1.408 -2.848,-3.616 l 2.624,-0.96 q 0.704,1.536 2.08,2.432 1.376,0.896 3.168,0.896 2.048,0 3.232,-0.96 1.184,-0.992 1.184,-2.816 0,-1.760003 -1.344,-2.816003 -1.312,-1.056 -3.712,-1.92 -2.016,-0.736 -3.36,-1.472 -1.344,-0.736 -2.272,-1.952 -0.928,-1.248 -0.928,-3.072 0,-1.536 0.832,-2.784 0.832,-1.28 2.368,-2.016 1.568,-0.736 3.68,-0.736 2.592,0 4.32,1.12 1.728,1.088 2.24,2.88 l -2.56,0.864 q -0.448,-0.992 -1.536,-1.632 -1.088,-0.64 -2.656,-0.64 -1.76,0 -2.784,0.8 -1.024,0.768 -1.024,2.144 0,1.408 1.216,2.24 1.216,0.8 3.616,1.696 2.016,0.768 3.424,1.6 1.408,0.8 2.368,2.208 0.992,1.376 0.992,3.424 0,2.016003 -0.96,3.488003 -0.928,1.44 -2.624,2.208 -1.664,0.768 -3.776,0.768 z"
         id="path13825"
         inkscape:connector-curvature="0" />
      <path
         d="m 134.31169,106.4133 q -1.472,0 -2.464,-0.512 -0.992,-0.512 -1.728,-1.408 v 6.688 l -2.784,1.312 V 89.677297 h 2.784 v 1.376 q 0.832,-0.832 1.792,-1.28 0.992,-0.48 2.4,-0.48 2.048,0 3.584,1.056 1.536,1.024 2.336,2.976 0.832,1.92 0.832,4.512 0,2.656003 -0.864,4.608003 -0.832,1.92 -2.368,2.944 -1.536,1.024 -3.52,1.024 z m -0.352,-2.592 q 2.048,0 3.136,-1.536 1.12,-1.568 1.12,-4.448003 0,-2.72 -1.152,-4.352 -1.12,-1.632 -3.104,-1.632 -1.248,0 -2.24,0.576 -0.992,0.576 -1.6,1.632 v 7.552003 q 1.696,2.208 3.84,2.208 z"
         id="path13827"
         inkscape:connector-curvature="0" />
      <path
         d="m 154.77419,104.5253 q -0.896,0.832 -2.08,1.376 -1.184,0.512 -2.56,0.512 -2.592,0 -4.16,-1.408 -1.536,-1.44 -1.536,-4.096 0,-2.656003 1.76,-4.032003 1.76,-1.376 4.352,-1.376 2.368,0 4.224,1.056 v -1.152 q 0,-2.048 -0.928,-2.848 -0.896,-0.832 -2.624,-0.832 -1.28,0 -2.528,0.48 -1.248,0.448 -2.24,1.152 l -0.8,-2.336 q 1.12,-0.736 2.656,-1.216 1.568,-0.512 3.264,-0.512 2.432,0 4.128,1.248 1.696,1.248 1.696,4.64 V 106.0293 h -2.624 z m -4.224,-0.576 q 1.28,0 2.336,-0.608 1.088,-0.608 1.888,-1.536 v -2.816003 q -0.768,-0.48 -1.824,-0.768 -1.056,-0.32 -2.016,-0.32 -1.696,0 -2.784,0.768 -1.088,0.768 -1.088,2.240003 0,1.376 0.896,2.208 0.928,0.832 2.592,0.832 z"
         id="path13829"
         inkscape:connector-curvature="0" />
      <path
         d="m 162.21069,89.677297 h 2.784 v 2.144 q 0.704,-1.248 1.728,-1.888 1.056,-0.64 2.272,-0.64 1.472,0 2.4,0.832 l -0.416,2.624 q -1.024,-0.704 -2.336,-0.704 -0.832,0 -1.664,0.448 -0.832,0.448 -1.408,1.536 -0.576,1.056 -0.576,2.784 v 9.216003 h -2.784 z"
         id="path13831"
         inkscape:connector-curvature="0" />
      <path
         d="m 185.07569,106.0293 -5.056,-9.888003 -2.4,2.496 v 7.392003 h -2.784 V 84.237297 l 2.784,-1.312 v 12.384 l 5.312,-5.632 h 3.328 l -4.288,4.448 6.144,11.904003 z"
         id="path13833"
         inkscape:connector-curvature="0" />
      <path
         d="M 216.36269,106.0293 V 92.269297 q 0,-1.312 0.064,-2.464 -0.32,0.896 -0.992,2.528 l -6.144,14.080003 -5.952,-14.144003 q -0.768,-1.856 -0.96,-2.432 0.096,0.864 0.096,2.432 V 106.0293 h -2.784 V 83.629297 h 2.624 l 6.496,15.072 0.576,1.504003 q 0.128,-0.384003 0.576,-1.504003 l 6.528,-15.072 h 2.656 V 106.0293 Z"
         id="path13835"
         inkscape:connector-curvature="0" />
      <path
         d="m 234.27419,104.5253 q -0.896,0.832 -2.08,1.376 -1.184,0.512 -2.56,0.512 -2.592,0 -4.16,-1.408 -1.536,-1.44 -1.536,-4.096 0,-2.656003 1.76,-4.032003 1.76,-1.376 4.352,-1.376 2.368,0 4.224,1.056 v -1.152 q 0,-2.048 -0.928,-2.848 -0.896,-0.832 -2.624,-0.832 -1.28,0 -2.528,0.48 -1.248,0.448 -2.24,1.152 l -0.8,-2.336 q 1.12,-0.736 2.656,-1.216 1.568,-0.512 3.264,-0.512 2.432,0 4.128,1.248 1.696,1.248 1.696,4.64 V 106.0293 h -2.624 z m -4.224,-0.576 q 1.28,0 2.336,-0.608 1.088,-0.608 1.888,-1.536 v -2.816003 q -0.768,-0.48 -1.824,-0.768 -1.056,-0.32 -2.016,-0.32 -1.696,0 -2.784,0.768 -1.088,0.768 -1.088,2.240003 0,1.376 0.896,2.208 0.928,0.832 2.592,0.832 z"
         id="path13837"
         inkscape:connector-curvature="0" />
      <path
         d="m 246.54269,106.4133 q -1.76,0 -3.36,-0.736 -1.568,-0.768 -2.56,-2.016 l 1.984,-1.696 q 0.768,0.8 1.792,1.376 1.024,0.576 2.208,0.576 1.376,0 2.208,-0.512 0.832,-0.544 0.832,-1.568 0,-1.088 -0.96,-1.728 -0.928,-0.672003 -2.784,-1.376003 -2.496,-0.928 -3.776,-2.08 -1.28,-1.152 -1.28,-3.04 0,-1.984 1.536,-3.136 1.568,-1.184 3.968,-1.184 1.792,0 3.168,0.672 1.376,0.672 2.336,1.792 l -1.92,1.6 q -1.504,-1.568 -3.616,-1.568 -1.248,0 -1.984,0.48 -0.736,0.48 -0.736,1.344 0,0.928 0.8,1.472 0.832,0.512 2.656,1.248 2.592,0.928 3.936,2.112 1.376,1.184 1.376,3.328003 0,2.176 -1.568,3.424 -1.568,1.216 -4.256,1.216 z"
         id="path13839"
         inkscape:connector-curvature="0" />
      <path
         d="m 261.12669,106.4133 q -1.76,0 -2.624,-1.024 -0.832,-1.056 -0.832,-2.88 V 92.109297 h -2.656 v -2.432 h 2.656 v -5.408 l 2.784,-1.344 v 6.752 h 4.032 v 2.432 h -4.032 v 9.472003 q 0,1.088 0.352,1.664 0.352,0.576 1.344,0.576 1.088,0 2.432,-0.864 l -0.32,2.72 q -1.408,0.736 -3.136,0.736 z"
         id="path13841"
         inkscape:connector-curvature="0" />
      <path
         d="m 274.63969,106.4133 q -2.208,0 -3.872,-1.088 -1.632,-1.088 -2.528,-3.04 -0.864,-1.952 -0.864,-4.448003 0,-2.656 0.896,-4.576 0.896,-1.952 2.528,-2.944 1.664,-1.024 3.84,-1.024 1.92,0 3.424,0.864 1.536,0.832 2.432,2.592 0.896,1.728 0.896,4.32 0,0.896 -0.096,1.856 h -11.072 q 0.16,2.240003 1.376,3.616003 1.248,1.344 3.104,1.344 2.048,0 3.52,-1.472 l 1.696,1.888 q -0.96,0.96 -2.336,1.536 -1.344,0.576 -2.944,0.576 z m 3.936,-9.856003 q -0.032,-2.528 -1.216,-3.648 -1.152,-1.152 -2.72,-1.152 -1.888,0 -3.104,1.216 -1.216,1.184 -1.344,3.584 z"
         id="path13843"
         inkscape:connector-curvature="0" />
      <path
         d="m 285.52319,89.677297 h 2.784 v 2.144 q 0.704,-1.248 1.728,-1.888 1.056,-0.64 2.272,-0.64 1.472,0 2.4,0.832 l -0.416,2.624 q -1.024,-0.704 -2.336,-0.704 -0.832,0 -1.664,0.448 -0.832,0.448 -1.408,1.536 -0.576,1.056 -0.576,2.784 v 9.216003 h -2.784 z"
         id="path13845"
         inkscape:connector-curvature="0" />
    </g>
    <g
       aria-label="Spark Worker"
       transform="matrix(0.26458333,0,0,0.26458333,80.166209,153.57878)"
       style="font-style:normal;font-variant:normal;font-weight:normal;font-stretch:normal;font-size:32px;line-height:125%;font-family:Overpass;-inkscape-font-specification:Overpass;text-align:center;letter-spacing:0px;word-spacing:0px;text-anchor:middle;fill:#ffffff;stroke:none;stroke-width:1px;stroke-linecap:butt;stroke-linejoin:miter;stroke-opacity:1"
       id="flowRoot8121-3">
      <path
         d="m 113.09369,106.4133 q -2.848,0 -4.96,-1.376 -2.08,-1.408 -2.848,-3.616 l 2.624,-0.96 q 0.704,1.536 2.08,2.432 1.376,0.896 3.168,0.896 2.048,0 3.232,-0.96 1.184,-0.992 1.184,-2.816 0,-1.760003 -1.344,-2.816003 -1.312,-1.056 -3.712,-1.92 -2.016,-0.736 -3.36,-1.472 -1.344,-0.736 -2.272,-1.952 -0.928,-1.248 -0.928,-3.072 0,-1.536 0.832,-2.784 0.832,-1.28 2.368,-2.016 1.568,-0.736 3.68,-0.736 2.592,0 4.32,1.12 1.728,1.088 2.24,2.88 l -2.56,0.864 q -0.448,-0.992 -1.536,-1.632 -1.088,-0.64 -2.656,-0.64 -1.76,0 -2.784,0.8 -1.024,0.768 -1.024,2.144 0,1.408 1.216,2.24 1.216,0.8 3.616,1.696 2.016,0.768 3.424,1.6 1.408,0.8 2.368,2.208 0.992,1.376 0.992,3.424 0,2.016003 -0.96,3.488003 -0.928,1.44 -2.624,2.208 -1.664,0.768 -3.776,0.768 z"
         id="path13848"
         inkscape:connector-curvature="0" />
      <path
         d="m 132.24919,106.4133 q -1.472,0 -2.464,-0.512 -0.992,-0.512 -1.728,-1.408 v 6.688 l -2.784,1.312 V 89.677297 h 2.784 v 1.376 q 0.832,-0.832 1.792,-1.28 0.992,-0.48 2.4,-0.48 2.048,0 3.584,1.056 1.536,1.024 2.336,2.976 0.832,1.92 0.832,4.512 0,2.656003 -0.864,4.608003 -0.832,1.92 -2.368,2.944 -1.536,1.024 -3.52,1.024 z m -0.352,-2.592 q 2.048,0 3.136,-1.536 1.12,-1.568 1.12,-4.448003 0,-2.72 -1.152,-4.352 -1.12,-1.632 -3.104,-1.632 -1.248,0 -2.24,0.576 -0.992,0.576 -1.6,1.632 v 7.552003 q 1.696,2.208 3.84,2.208 z"
         id="path13850"
         inkscape:connector-curvature="0" />
      <path
         d="m 152.71169,104.5253 q -0.896,0.832 -2.08,1.376 -1.184,0.512 -2.56,0.512 -2.592,0 -4.16,-1.408 -1.536,-1.44 -1.536,-4.096 0,-2.656003 1.76,-4.032003 1.76,-1.376 4.352,-1.376 2.368,0 4.224,1.056 v -1.152 q 0,-2.048 -0.928,-2.848 -0.896,-0.832 -2.624,-0.832 -1.28,0 -2.528,0.48 -1.248,0.448 -2.24,1.152 l -0.8,-2.336 q 1.12,-0.736 2.656,-1.216 1.568,-0.512 3.264,-0.512 2.432,0 4.128,1.248 1.696,1.248 1.696,4.64 V 106.0293 h -2.624 z m -4.224,-0.576 q 1.28,0 2.336,-0.608 1.088,-0.608 1.888,-1.536 v -2.816003 q -0.768,-0.48 -1.824,-0.768 -1.056,-0.32 -2.016,-0.32 -1.696,0 -2.784,0.768 -1.088,0.768 -1.088,2.240003 0,1.376 0.896,2.208 0.928,0.832 2.592,0.832 z"
         id="path13852"
         inkscape:connector-curvature="0" />
      <path
         d="m 160.14819,89.677297 h 2.784 v 2.144 q 0.704,-1.248 1.728,-1.888 1.056,-0.64 2.272,-0.64 1.472,0 2.4,0.832 l -0.416,2.624 q -1.024,-0.704 -2.336,-0.704 -0.832,0 -1.664,0.448 -0.832,0.448 -1.408,1.536 -0.576,1.056 -0.576,2.784 v 9.216003 h -2.784 z"
         id="path13854"
         inkscape:connector-curvature="0" />
      <path
         d="m 183.01319,106.0293 -5.056,-9.888003 -2.4,2.496 v 7.392003 h -2.784 V 84.237297 l 2.784,-1.312 v 12.384 l 5.312,-5.632 h 3.328 l -4.288,4.448 6.144,11.904003 z"
         id="path13856"
         inkscape:connector-curvature="0" />
      <path
         d="m 195.46719,83.629297 h 2.912 l 2.752,14.592 q 0.288,1.44 0.416,2.400003 0.192,-0.896003 0.352,-1.408003 -0.032,0.096 0.256,-0.96 l 3.968,-14.624 h 2.208 l 4,14.592 q 0.384,1.44 0.512,2.176003 0.128,-0.832003 0.416,-2.208003 l 3.04,-14.56 h 2.848 l -4.864,22.400003 h -2.208 l -4.32,-15.296003 q -0.48,-1.76 -0.576,-2.208 -0.16,0.864 -0.544,2.208 l -4.32,15.296003 h -2.272 z"
         id="path13858"
         inkscape:connector-curvature="0" />
      <path
         d="m 229.67019,106.4133 q -3.328,0 -5.28,-2.272 -1.952,-2.272 -1.952,-6.272003 0,-2.656 0.896,-4.576 0.896,-1.952 2.528,-2.976 1.632,-1.024 3.808,-1.024 3.328,0 5.28,2.272 1.952,2.272 1.952,6.272 0,2.656003 -0.896,4.608003 -0.896,1.92 -2.528,2.944 -1.632,1.024 -3.808,1.024 z m 0,-2.592 q 2.08,0 3.232,-1.568 1.184,-1.6 1.184,-4.416003 0,-2.784 -1.184,-4.384 -1.152,-1.6 -3.232,-1.6 -2.08,0 -3.264,1.6 -1.152,1.568 -1.152,4.416 0,2.784003 1.152,4.384003 1.184,1.568 3.264,1.568 z"
         id="path13860"
         inkscape:connector-curvature="0" />
      <path
         d="m 241.27319,89.677297 h 2.784 v 2.144 q 0.704,-1.248 1.728,-1.888 1.056,-0.64 2.272,-0.64 1.472,0 2.4,0.832 l -0.416,2.624 q -1.024,-0.704 -2.336,-0.704 -0.832,0 -1.664,0.448 -0.832,0.448 -1.408,1.536 -0.576,1.056 -0.576,2.784 v 9.216003 h -2.784 z"
         id="path13862"
         inkscape:connector-curvature="0" />
      <path
         d="m 264.13819,106.0293 -5.056,-9.888003 -2.4,2.496 v 7.392003 h -2.784 V 84.237297 l 2.784,-1.312 v 12.384 l 5.312,-5.632 h 3.328 l -4.288,4.448 6.144,11.904003 z"
         id="path13864"
         inkscape:connector-curvature="0" />
      <path
         d="m 276.70219,106.4133 q -2.208,0 -3.872,-1.088 -1.632,-1.088 -2.528,-3.04 -0.864,-1.952 -0.864,-4.448003 0,-2.656 0.896,-4.576 0.896,-1.952 2.528,-2.944 1.664,-1.024 3.84,-1.024 1.92,0 3.424,0.864 1.536,0.832 2.432,2.592 0.896,1.728 0.896,4.32 0,0.896 -0.096,1.856 h -11.072 q 0.16,2.240003 1.376,3.616003 1.248,1.344 3.104,1.344 2.048,0 3.52,-1.472 l 1.696,1.888 q -0.96,0.96 -2.336,1.536 -1.344,0.576 -2.944,0.576 z m 3.936,-9.856003 q -0.032,-2.528 -1.216,-3.648 -1.152,-1.152 -2.72,-1.152 -1.888,0 -3.104,1.216 -1.216,1.184 -1.344,3.584 z"
         id="path13866"
         inkscape:connector-curvature="0" />
      <path
         d="m 287.58569,89.677297 h 2.784 v 2.144 q 0.704,-1.248 1.728,-1.888 1.056,-0.64 2.272,-0.64 1.472,0 2.4,0.832 l -0.416,2.624 q -1.024,-0.704 -2.336,-0.704 -0.832,0 -1.664,0.448 -0.832,0.448 -1.408,1.536 -0.576,1.056 -0.576,2.784 v 9.216003 h -2.784 z"
         id="path13868"
         inkscape:connector-curvature="0" />
    </g>
    <rect
       style="fill:#004153;fill-opacity:1;stroke:none;stroke-width:0.37667018;stroke-linecap:round;stroke-linejoin:round;stroke-miterlimit:4;stroke-dasharray:none;stroke-dashoffset:0;stroke-opacity:1"
       id="rect4524-0-1-9"
       width="72.490677"
       height="9.5511723"
       x="97.062134"
       y="124.86784"
       ry="0.38691041" />
    <g
       aria-label="MyApplication"
       transform="matrix(0.26458333,0,0,0.26458333,-30.211711,86.052415)"
       style="font-style:normal;font-variant:normal;font-weight:normal;font-stretch:normal;font-size:32px;line-height:125%;font-family:Overpass;-inkscape-font-specification:Overpass;text-align:center;letter-spacing:0px;word-spacing:0px;text-anchor:middle;fill:#ffffff;stroke:none;stroke-width:1px;stroke-linecap:butt;stroke-linejoin:miter;stroke-opacity:1"
       id="flowRoot14479-3">
      <path
         d="m 535.47402,174.70312 v -13.76 q 0,-1.312 0.064,-2.464 -0.32,0.896 -0.992,2.528 l -6.144,14.08 -5.952,-14.144 q -0.768,-1.85599 -0.96,-2.432 0.096,0.864 0.096,2.432 v 13.76 h -2.784 v -22.4 h 2.624 l 6.496,15.072 0.576,1.504 q 0.128,-0.384 0.576,-1.504 l 6.528,-15.072 h 2.656 v 22.4 z"
         style=""
         id="path14535" />
      <path
         d="m 548.45752,174.28712 -6.048,-15.936 h 2.784 l 4.064,11.136 q 0.224,0.544 0.512,1.568 0.288,-1.024 0.512,-1.568 l 4.128,-11.136 h 2.848 l -8.48,22.56 h -2.816 z"
         style=""
         id="path14537" />
      <path
         d="m 572.24402,169.23112 h -8.896 l -1.888,5.472 h -2.912 l 7.936,-22.4 h 2.592 l 7.936,22.4 h -2.848 z m -3.744,-10.752 q -0.544,-1.568 -0.704,-2.272 -0.352,1.248 -0.704,2.272 l -2.912,8.288 h 7.2 z"
         style=""
         id="path14539" />
      <path
         d="m 588.29802,175.08712 q -1.472,0 -2.464,-0.51199 -0.992,-0.512 -1.728,-1.40801 v 6.688 l -2.784,1.312 v -22.816 h 2.784 v 1.376 q 0.832,-0.832 1.792,-1.28 0.992,-0.48 2.4,-0.48 2.048,0 3.584,1.056 1.536,1.024 2.336,2.976 0.832,1.92 0.832,4.512 0,2.656 -0.864,4.608 -0.832,1.92001 -2.368,2.94401 -1.536,1.02399 -3.52,1.02399 z m -0.352,-2.592 q 2.048,0 3.136,-1.536 1.12,-1.568 1.12,-4.448 0,-2.72 -1.152,-4.352 -1.12,-1.632 -3.104,-1.632 -1.248,0 -2.24,0.576 -0.992,0.576 -1.6,1.632 v 7.552 q 1.696,2.208 3.84,2.208 z"
         style=""
         id="path14541" />
      <path
         d="m 606.36052,175.08712 q -1.472,0 -2.464,-0.51199 -0.992,-0.512 -1.728,-1.40801 v 6.688 l -2.784,1.312 v -22.816 h 2.784 v 1.376 q 0.832,-0.832 1.792,-1.28 0.992,-0.48 2.4,-0.48 2.048,0 3.584,1.056 1.536,1.024 2.336,2.976 0.832,1.92 0.832,4.512 0,2.656 -0.864,4.608 -0.832,1.92001 -2.368,2.94401 -1.536,1.02399 -3.52,1.02399 z m -0.352,-2.592 q 2.048,0 3.136,-1.536 1.12,-1.568 1.12,-4.448 0,-2.72 -1.152,-4.352 -1.12,-1.632 -3.104,-1.632 -1.248,0 -2.24,0.576 -0.992,0.576 -1.6,1.632 v 7.552 q 1.696,2.208 3.84,2.208 z"
         style=""
         id="path14543" />
      <path
         d="m 617.60702,152.91112 2.784,-1.31199 v 23.10399 h -2.784 z"
         style=""
         id="path14545" />
      <path
         d="m 627.23002,155.37512 q -0.704,0 -1.216,-0.512 -0.512,-0.512 -0.512,-1.216 0,-0.736 0.512,-1.248 0.512,-0.544 1.216,-0.544 0.736,0 1.248,0.544 0.512,0.512 0.512,1.248 0,0.736 -0.512,1.248 -0.512,0.48 -1.248,0.48 z m -1.376,2.976 h 2.784 v 16.352 h -2.784 z"
         style=""
         id="path14547" />
      <path
         d="m 639.77102,175.08712 q -3.136,0 -4.96,-2.24 -1.824,-2.27199 -1.824,-6.304 0,-4.032 1.824,-6.304 1.856,-2.272 5.088,-2.272 2.08,0 3.552,0.96 1.504,0.96 2.176,2.848 l -2.624,0.96 q -0.384,-0.992 -1.152,-1.568 -0.768,-0.608 -1.92,-0.608 -2.048,0 -3.072,1.568 -1.024,1.568 -1.024,4.416 0,2.816 1.024,4.384 1.024,1.536 2.976,1.536 1.216,0 2.08,-0.64 0.896,-0.64 1.248,-1.792 l 2.592,0.864 q -0.608,2.016 -2.176,3.104 -1.536,1.088 -3.808,1.088 z"
         style=""
         id="path14549" />
      <path
         d="m 659.01052,173.19912 q -0.896,0.832 -2.08,1.37601 -1.184,0.51199 -2.56,0.51199 -2.592,0 -4.16,-1.408 -1.536,-1.44 -1.536,-4.096 0,-2.656 1.76,-4.03199 1.76,-1.37601 4.352,-1.37601 2.368,0 4.224,1.056 v -1.152 q 0,-2.048 -0.928,-2.848 -0.896,-0.832 -2.624,-0.832 -1.28,0 -2.528,0.48 -1.248,0.448 -2.24,1.152 l -0.8,-2.336 q 1.12,-0.736 2.656,-1.216 1.568,-0.512 3.264,-0.512 2.432,0 4.128,1.248 1.696,1.248 1.696,4.64 v 10.848 h -2.624 z m -4.224,-0.576 q 1.28,0 2.336,-0.608 1.088,-0.608 1.888,-1.536 v -2.816 q -0.768,-0.48 -1.824,-0.768 -1.056,-0.31999 -2.016,-0.31999 -1.696,0 -2.784,0.76799 -1.088,0.768 -1.088,2.24 0,1.376 0.896,2.208 0.928,0.832 2.592,0.832 z"
         style=""
         id="path14551" />
      <path
         d="m 670.86302,175.08712 q -1.76,0 -2.624,-1.02399 -0.832,-1.05601 -0.832,-2.88001 v -10.4 h -2.656 v -2.432 h 2.656 v -5.408 l 2.784,-1.34399 v 6.75199 h 4.032 v 2.432 h -4.032 v 9.472 q 0,1.088 0.352,1.664 0.352,0.576 1.344,0.576 1.088,0 2.432,-0.864 l -0.32,2.72 q -1.408,0.736 -3.136,0.736 z"
         style=""
         id="path14553" />
      <path
         d="m 679.79252,155.37512 q -0.704,0 -1.216,-0.512 -0.512,-0.512 -0.512,-1.216 0,-0.736 0.512,-1.248 0.512,-0.544 1.216,-0.544 0.736,0 1.248,0.544 0.512,0.512 0.512,1.248 0,0.736 -0.512,1.248 -0.512,0.48 -1.248,0.48 z m -1.376,2.976 h 2.784 v 16.352 h -2.784 z"
         style=""
         id="path14555" />
      <path
         d="m 692.78152,175.08712 q -3.328,0 -5.28,-2.272 -1.952,-2.272 -1.952,-6.272 0,-2.656 0.896,-4.576 0.896,-1.952 2.528,-2.976 1.632,-1.024 3.808,-1.024 3.328,0 5.28,2.272 1.952,2.272 1.952,6.272 0,2.656 -0.896,4.608 -0.896,1.92001 -2.528,2.94401 -1.632,1.02399 -3.808,1.02399 z m 0,-2.592 q 2.08,0 3.232,-1.568 1.184,-1.6 1.184,-4.416 0,-2.784 -1.184,-4.384 -1.152,-1.6 -3.232,-1.6 -2.08,0 -3.264,1.6 -1.152,1.568 -1.152,4.416 0,2.784 1.152,4.384 1.184,1.568 3.264,1.568 z"
         style=""
         id="path14557" />
      <path
         d="m 714.46452,164.81512 q 0,-2.208 -0.96,-3.232 -0.928,-1.056 -2.56,-1.056 -3.776,0 -3.776,4.224 v 9.952 h -2.784 v -16.352 h 2.784 v 1.664 q 1.504,-2.048 4.224,-2.048 2.88,0 4.352,1.76 1.504,1.728 1.504,5.56801 v 9.40799 h -2.784 z"
         style=""
         id="path14559" />
    </g>
    <path
       style="fill:none;fill-opacity:1;fill-rule:evenodd;stroke:#000000;stroke-width:0.96499997;stroke-linecap:butt;stroke-linejoin:miter;stroke-miterlimit:4;stroke-dasharray:none;stroke-opacity:1;marker-end:url(#marker14572)"
       d="m 132.77594,107.26915 -0.0472,14.44459"
       id="path14562"
       inkscape:connector-curvature="0"
       sodipodi:nodetypes="cc" />
    <rect
       style="fill:#004153;fill-opacity:1;stroke:none;stroke-width:0.37667018;stroke-linecap:round;stroke-linejoin:round;stroke-miterlimit:4;stroke-dasharray:none;stroke-dashoffset:0;stroke-opacity:1"
       id="rect4524-0-1"
       width="72.490669"
       height="9.5511723"
       x="97.062141"
       y="98.281471"
       ry="0.38691041" />
    <g
       aria-label="S2I Builder"
       transform="matrix(0.26458333,0,0,0.26458333,-30.266612,59.466032)"
       style="font-style:normal;font-variant:normal;font-weight:normal;font-stretch:normal;font-size:32px;line-height:125%;font-family:Overpass;-inkscape-font-specification:Overpass;text-align:center;letter-spacing:0px;word-spacing:0px;text-anchor:middle;fill:#ffffff;stroke:none;stroke-width:1px;stroke-linecap:butt;stroke-linejoin:miter;stroke-opacity:1"
       id="flowRoot14479">
      <path
         d="m 548.04877,175.08712 q -2.848,0 -4.96,-1.376 -2.08,-1.408 -2.848,-3.616 l 2.624,-0.96 q 0.704,1.536 2.08,2.432 1.376,0.896 3.168,0.896 2.048,0 3.232,-0.96 1.184,-0.992 1.184,-2.816 0,-1.76 -1.344,-2.816 -1.312,-1.056 -3.712,-1.92 -2.016,-0.736 -3.36,-1.472 -1.344,-0.736 -2.272,-1.952 -0.928,-1.248 -0.928,-3.072 0,-1.536 0.832,-2.784 0.832,-1.28 2.368,-2.016 1.568,-0.736 3.68,-0.736 2.592,0 4.32,1.12001 1.728,1.08799 2.24,2.87999 l -2.56,0.864 q -0.448,-0.992 -1.536,-1.632 -1.088,-0.64 -2.656,-0.64 -1.76,0 -2.784,0.8 -1.024,0.768 -1.024,2.144 0,1.408 1.216,2.24 1.216,0.8 3.616,1.696 2.016,0.768 3.424,1.6 1.408,0.8 2.368,2.208 0.992,1.37601 0.992,3.424 0,2.016 -0.96,3.488 -0.928,1.44001 -2.624,2.20801 -1.664,0.76799 -3.776,0.76799 z"
         style=""
         id="path14514" />
      <path
         d="m 559.81227,174.70312 q 0,-2.752 1.024,-4.8 1.024,-2.08 2.624,-3.456 1.6,-1.40799 3.776,-2.688 2.24,-1.376 3.392,-2.56 1.184,-1.184 1.184,-2.88 0,-1.632 -1.216,-2.71999 -1.184,-1.08801 -3.168,-1.08801 -1.984,0 -3.136,0.864 -1.12,0.864 -1.632,2.432 l -2.496,-1.12 q 0.672,-2.11199 2.656,-3.424 1.984,-1.344 4.704,-1.344 3.328,0 5.248,1.792 1.92,1.76 1.92,4.672 0,1.856 -0.832,3.232 -0.8,1.344 -2.048,2.336 -1.248,0.96 -3.328,2.176 -2.368,1.376 -3.744,2.72 -1.344,1.344 -1.696,3.136 h 11.84 v 2.72 z"
         style=""
         id="path14516" />
      <path
         d="m 580.33477,152.30312 h 2.784 v 22.4 h -2.784 z"
         style=""
         id="path14518" />
      <path
         d="m 604.76927,152.30312 q 3.68,0 5.312,1.696 1.664,1.696 1.664,4.224 0,1.536 -0.864,2.784 -0.864,1.216 -2.432,1.888 1.952,0.608 3.008,2.048 1.088,1.408 1.088,3.328 0,1.664 -0.736,3.136 -0.704,1.44 -2.336,2.368 -1.6,0.928 -4.192,0.928 h -8.448 v -22.4 z m -0.544,9.504 q 2.336,0 3.552,-0.928 1.216,-0.96 1.216,-2.624 0,-3.424 -4.064,-3.424 h -5.312 v 6.976 z m 1.376,10.336 q 2.272,0 3.232,-1.056 0.96,-1.056 0.96,-2.624 0,-4.128 -5.216,-4.128 h -4.96 v 7.808 z"
         style=""
         id="path14520" />
      <path
         d="m 627.27327,173.13512 q -0.8,1.024 -1.824,1.504 -0.992,0.448 -2.304,0.448 -2.976,0 -4.48,-1.728 -1.472,-1.728 -1.472,-5.568 v -9.44 h 2.784 v 9.856 q 0,2.208 0.928,3.264 0.96,1.024 2.592,1.024 3.776,0 3.776,-4.224 v -9.92 h 2.784 v 16.352 h -2.784 z"
         style=""
         id="path14522" />
      <path
         d="m 636.76127,155.37512 q -0.704,0 -1.216,-0.512 -0.512,-0.512 -0.512,-1.216 0,-0.736 0.512,-1.248 0.512,-0.544 1.216,-0.544 0.736,0 1.248,0.544 0.512,0.512 0.512,1.248 0,0.736 -0.512,1.248 -0.512,0.48 -1.248,0.48 z m -1.376,2.976 h 2.784 v 16.352 h -2.784 z"
         style=""
         id="path14524" />
      <path
         d="m 643.63827,152.91112 2.784,-1.31199 v 23.10399 h -2.784 z"
         style=""
         id="path14526" />
      <path
         d="m 657.64527,175.08712 q -3.104,0 -4.928,-2.304 -1.824,-2.304 -1.824,-6.272 0,-2.656 0.832,-4.576 0.832,-1.92 2.368,-2.944 1.536,-1.024 3.552,-1.024 2.4,0 4.128,1.536 v -6.592 l 2.784,-1.31199 v 23.10399 h -2.784 v -1.28 q -1.6,1.664 -4.128,1.664 z m 0.384,-2.592 q 1.152,0 2.144,-0.576 0.992,-0.576 1.6,-1.632 v -7.68 q -0.544,-0.864 -1.504,-1.472 -0.96,-0.608 -2.24,-0.608 -2.08,0 -3.2,1.568 -1.12,1.536 -1.12,4.416 0,2.592 1.152,4.288 1.184,1.696 3.168,1.696 z"
         style=""
         id="path14528" />
      <path
         d="m 676.15727,175.08712 q -2.208,0 -3.872,-1.088 -1.632,-1.088 -2.528,-3.04 -0.864,-1.952 -0.864,-4.448 0,-2.656 0.896,-4.576 0.896,-1.952 2.528,-2.944 1.664,-1.024 3.84,-1.024 1.92,0 3.424,0.864 1.536,0.832 2.432,2.592 0.896,1.728 0.896,4.32 0,0.896 -0.096,1.856 h -11.072 q 0.16,2.24 1.376,3.616 1.248,1.344 3.104,1.344 2.048,0 3.52,-1.472 l 1.696,1.888 q -0.96,0.96 -2.336,1.536 -1.344,0.576 -2.944,0.576 z m 3.936,-9.856 q -0.032,-2.528 -1.216,-3.648 -1.152,-1.152 -2.72,-1.152 -1.888,0 -3.104,1.216 -1.216,1.184 -1.344,3.584 z"
         style=""
         id="path14530" />
      <path
         d="m 687.04077,158.35112 h 2.784 v 2.144 q 0.704,-1.248 1.728,-1.888 1.056,-0.64 2.272,-0.64 1.472,0 2.4,0.832 l -0.416,2.624 q -1.024,-0.704 -2.336,-0.704 -0.832,0 -1.664,0.448 -0.832,0.448 -1.408,1.536 -0.576,1.056 -0.576,2.784 v 9.216 h -2.784 z"
         style=""
         id="path14532" />
    </g>
    <g
       id="g17353"
       transform="matrix(0.96531868,0,0,0.96531868,-88.175796,39.033051)">
      <path
         d="m 85.817,104.455 c -0.023,0 -0.047,-0.002 -0.07,-0.005 -4.119,-0.582 -7.613,-1.319 -10.387,-2.19 -0.264,-0.082 -0.41,-0.363 -0.326,-0.627 0.082,-0.263 0.359,-0.411 0.627,-0.326 2.721,0.854 6.16,1.579 10.227,2.153 0.273,0.038 0.463,0.292 0.424,0.565 -0.036,0.25 -0.249,0.43 -0.495,0.43 z"
         id="path17347"
         inkscape:connector-curvature="0" />
      <path
         d="m 106.698,106.041 c -4.186,0 -8.299,-0.144 -12.223,-0.427 -0.412,-0.03 -0.723,-0.389 -0.693,-0.802 0.029,-0.414 0.391,-0.72 0.803,-0.694 3.887,0.28 7.963,0.423 12.113,0.423 12.779,0 24.504,-1.348 31.365,-3.604 0.393,-0.13 0.818,0.085 0.947,0.478 0.129,0.394 -0.084,0.817 -0.479,0.946 -7.003,2.305 -18.903,3.68 -31.833,3.68 z"
         id="path17349"
         inkscape:connector-curvature="0" />
      <path
         d="m 106.698,129.217 c -19.133,0 -38.502,-3.057 -38.502,-8.898 V 97.394 c 0,-5.841 19.369,-8.897 38.502,-8.897 19.135,0 38.504,3.056 38.504,8.897 v 22.924 c 0,5.842 -19.369,8.899 -38.504,8.899 z m 0,-38.72 c -22.615,0 -36.502,4.017 -36.502,6.897 v 22.924 c 0,2.881 13.887,6.898 36.502,6.898 22.617,0 36.504,-4.018 36.504,-6.898 V 97.394 c 0,-2.88 -13.887,-6.897 -36.504,-6.897 z"
         id="path17351"
         inkscape:connector-curvature="0" />
    </g>
    <g
       aria-label="MyApplication Git repo"
       transform="matrix(0.26458333,0,0,0.26458333,-52.842745,65.345961)"
       style="font-style:normal;font-variant:normal;font-weight:normal;font-stretch:normal;font-size:32px;line-height:125%;font-family:Overpass;-inkscape-font-specification:Overpass;text-align:center;letter-spacing:0px;word-spacing:0px;text-anchor:middle;fill:#000000;stroke:none;stroke-width:1px;stroke-linecap:butt;stroke-linejoin:miter;stroke-opacity:1"
       id="flowRoot17372">
      <path
         d="m 176.10683,315.64062 v -13.76 q 0,-1.312 0.064,-2.464 -0.32,0.89601 -0.992,2.528 l -6.144,14.08001 -5.952,-14.14401 q -0.768,-1.85599 -0.96,-2.432 0.096,0.86401 0.096,2.432 v 13.76 h -2.784 v -22.39999 h 2.624 l 6.496,15.072 0.576,1.50399 q 0.128,-0.384 0.576,-1.50399 l 6.528,-15.072 h 2.656 v 22.39999 z"
         style=""
         id="path17386" />
      <path
         d="m 189.09033,315.22462 -6.048,-15.93599 h 2.784 l 4.064,11.13599 q 0.224,0.544 0.512,1.568 0.288,-1.024 0.512,-1.568 l 4.128,-11.13599 h 2.848 l -8.48,22.56 h -2.816 z"
         style=""
         id="path17388" />
      <path
         d="m 212.87683,310.16863 h -8.896 l -1.888,5.47199 h -2.912 l 7.936,-22.39999 h 2.592 l 7.936,22.39999 h -2.848 z m -3.744,-10.75201 q -0.544,-1.568 -0.704,-2.27199 -0.352,1.24799 -0.704,2.27199 l -2.912,8.28801 h 7.2 z"
         style=""
         id="path17390" />
      <path
         d="m 228.93083,316.02463 q -1.472,0 -2.464,-0.512 -0.992,-0.512 -1.728,-1.40801 v 6.688 l -2.784,1.312 v -22.81599 h 2.784 v 1.37599 q 0.832,-0.832 1.792,-1.27999 0.992,-0.48001 2.4,-0.48001 2.048,0 3.584,1.056 1.536,1.024 2.336,2.976 0.832,1.92 0.832,4.512 0,2.656 -0.864,4.608 -0.832,1.92001 -2.368,2.94401 -1.536,1.024 -3.52,1.024 z m -0.352,-2.59201 q 2.048,0 3.136,-1.536 1.12,-1.568 1.12,-4.448 0,-2.71999 -1.152,-4.35199 -1.12,-1.63201 -3.104,-1.63201 -1.248,0 -2.24,0.576 -0.992,0.576 -1.6,1.632 v 7.552 q 1.696,2.208 3.84,2.208 z"
         style=""
         id="path17392" />
      <path
         d="m 246.99333,316.02463 q -1.472,0 -2.464,-0.512 -0.992,-0.512 -1.728,-1.40801 v 6.688 l -2.784,1.312 v -22.81599 h 2.784 v 1.37599 q 0.832,-0.832 1.792,-1.27999 0.992,-0.48001 2.4,-0.48001 2.048,0 3.584,1.056 1.536,1.024 2.336,2.976 0.832,1.92 0.832,4.512 0,2.656 -0.864,4.608 -0.832,1.92001 -2.368,2.94401 -1.536,1.024 -3.52,1.024 z m -0.352,-2.59201 q 2.048,0 3.136,-1.536 1.12,-1.568 1.12,-4.448 0,-2.71999 -1.152,-4.35199 -1.12,-1.63201 -3.104,-1.63201 -1.248,0 -2.24,0.576 -0.992,0.576 -1.6,1.632 v 7.552 q 1.696,2.208 3.84,2.208 z"
         style=""
         id="path17394" />
      <path
         d="m 258.23983,293.84862 2.784,-1.31199 v 23.10399 h -2.784 z"
         style=""
         id="path17396" />
      <path
         d="m 267.86283,296.31263 q -0.704,0 -1.216,-0.512 -0.512,-0.512 -0.512,-1.216 0,-0.73601 0.512,-1.248 0.512,-0.54401 1.216,-0.54401 0.736,0 1.248,0.54401 0.512,0.51199 0.512,1.248 0,0.73599 -0.512,1.24799 -0.512,0.48001 -1.248,0.48001 z m -1.376,2.976 h 2.784 v 16.35199 h -2.784 z"
         style=""
         id="path17398" />
      <path
         d="m 280.40383,316.02463 q -3.136,0 -4.96,-2.24001 -1.824,-2.27199 -1.824,-6.304 0,-4.032 1.824,-6.304 1.856,-2.272 5.088,-2.272 2.08,0 3.552,0.96 1.504,0.96001 2.176,2.848 l -2.624,0.96 q -0.384,-0.99199 -1.152,-1.568 -0.768,-0.608 -1.92,-0.608 -2.048,0 -3.072,1.568 -1.024,1.56801 -1.024,4.416 0,2.816 1.024,4.384 1.024,1.536 2.976,1.536 1.216,0 2.08,-0.64 0.896,-0.63999 1.248,-1.792 l 2.592,0.864 q -0.608,2.01601 -2.176,3.104 -1.536,1.08801 -3.808,1.08801 z"
         style=""
         id="path17400" />
      <path
         d="m 299.64333,314.13662 q -0.896,0.832 -2.08,1.37601 -1.184,0.512 -2.56,0.512 -2.592,0 -4.16,-1.40801 -1.536,-1.44 -1.536,-4.096 0,-2.656 1.76,-4.03199 1.76,-1.37601 4.352,-1.37601 2.368,0 4.224,1.05601 v -1.15201 q 0,-2.048 -0.928,-2.84799 -0.896,-0.832 -2.624,-0.832 -1.28,0 -2.528,0.47999 -1.248,0.44801 -2.24,1.152 l -0.8,-2.33599 q 1.12,-0.73601 2.656,-1.21601 1.568,-0.512 3.264,-0.512 2.432,0 4.128,1.248 1.696,1.248 1.696,4.64 v 10.848 h -2.624 z m -4.224,-0.57599 q 1.28,0 2.336,-0.60801 1.088,-0.608 1.888,-1.536 v -2.816 q -0.768,-0.47999 -1.824,-0.768 -1.056,-0.31999 -2.016,-0.31999 -1.696,0 -2.784,0.76799 -1.088,0.76801 -1.088,2.24 0,1.376 0.896,2.20801 0.928,0.832 2.592,0.832 z"
         style=""
         id="path17402" />
      <path
         d="m 311.49583,316.02463 q -1.76,0 -2.624,-1.024 -0.832,-1.05601 -0.832,-2.88 v -10.40001 h -2.656 v -2.43199 h 2.656 v -5.40801 l 2.784,-1.34399 v 6.752 h 4.032 v 2.43199 h -4.032 v 9.47201 q 0,1.08799 0.352,1.66399 0.352,0.576 1.344,0.576 1.088,0 2.432,-0.864 l -0.32,2.72001 q -1.408,0.736 -3.136,0.736 z"
         style=""
         id="path17404" />
      <path
         d="m 320.42533,296.31263 q -0.704,0 -1.216,-0.512 -0.512,-0.512 -0.512,-1.216 0,-0.73601 0.512,-1.248 0.512,-0.54401 1.216,-0.54401 0.736,0 1.248,0.54401 0.512,0.51199 0.512,1.248 0,0.73599 -0.512,1.24799 -0.512,0.48001 -1.248,0.48001 z m -1.376,2.976 h 2.784 v 16.35199 h -2.784 z"
         style=""
         id="path17406" />
      <path
         d="m 333.41433,316.02463 q -3.328,0 -5.28,-2.272 -1.952,-2.27201 -1.952,-6.27201 0,-2.65599 0.896,-4.576 0.896,-1.952 2.528,-2.976 1.632,-1.024 3.808,-1.024 3.328,0 5.28,2.272 1.952,2.272 1.952,6.272 0,2.656 -0.896,4.608 -0.896,1.92001 -2.528,2.94401 -1.632,1.024 -3.808,1.024 z m 0,-2.59201 q 2.08,0 3.232,-1.568 1.184,-1.59999 1.184,-4.416 0,-2.784 -1.184,-4.384 -1.152,-1.6 -3.232,-1.6 -2.08,0 -3.264,1.6 -1.152,1.56801 -1.152,4.416 0,2.78401 1.152,4.384 1.184,1.568 3.264,1.568 z"
         style=""
         id="path17408" />
      <path
         d="m 355.09733,305.75263 q 0,-2.20801 -0.96,-3.23201 -0.928,-1.056 -2.56,-1.056 -3.776,0 -3.776,4.224 v 9.952 h -2.784 v -16.35199 h 2.784 v 1.66399 q 1.504,-2.048 4.224,-2.048 2.88,0 4.352,1.76 1.504,1.728 1.504,5.568 v 9.408 h -2.784 z"
         style=""
         id="path17410" />
      <path
         d="m 212.41633,356.02463 q -3.232,0 -5.376,-1.60001 -2.112,-1.632 -3.136,-4.25599 -0.992,-2.62401 -0.992,-5.72801 0,-3.04 1.024,-5.66399 1.056,-2.656 3.2,-4.288 2.144,-1.63201 5.28,-1.63201 2.848,0 4.48,1.056 1.664,1.056 2.784,2.88 l -2.496,1.44 q -0.896,-1.312 -1.984,-2.01599 -1.088,-0.73601 -2.784,-0.73601 -2.336,0 -3.84,1.312 -1.472,1.312 -2.144,3.36 -0.64,2.048 -0.64,4.288 0,2.432 0.704,4.448 0.704,2.016 2.176,3.264 1.504,1.216 3.744,1.216 2.272,0 3.648,-1.408 1.376,-1.44 1.376,-3.74399 v -0.89601 h -4.064 v -2.56 h 6.976 v 2.688 q 0,2.72001 -1.056,4.67201 -1.024,1.91999 -2.816,2.91199 -1.792,0.99201 -4.064,0.99201 z"
         style=""
         id="path17412" />
      <path
         d="m 226.80033,336.31263 q -0.704,0 -1.216,-0.512 -0.512,-0.512 -0.512,-1.216 0,-0.73601 0.512,-1.248 0.512,-0.54401 1.216,-0.54401 0.736,0 1.248,0.54401 0.512,0.51199 0.512,1.248 0,0.73599 -0.512,1.24799 -0.512,0.48001 -1.248,0.48001 z m -1.376,2.976 h 2.784 v 16.35199 h -2.784 z"
         style=""
         id="path17414" />
      <path
         d="m 237.93333,356.02463 q -1.76,0 -2.624,-1.024 -0.832,-1.05601 -0.832,-2.88 v -10.40001 h -2.656 v -2.43199 h 2.656 v -5.40801 l 2.784,-1.34399 v 6.752 h 4.032 v 2.43199 h -4.032 v 9.47201 q 0,1.08799 0.352,1.66399 0.352,0.576 1.344,0.576 1.088,0 2.432,-0.864 l -0.32,2.72001 q -1.408,0.736 -3.136,0.736 z"
         style=""
         id="path17416" />
      <path
         d="m 252.82983,339.28863 h 2.784 v 2.14399 q 0.704,-1.248 1.728,-1.888 1.056,-0.64 2.272,-0.64 1.472,0 2.4,0.832 l -0.416,2.62401 q -1.024,-0.704 -2.336,-0.704 -0.832,0 -1.664,0.44799 -0.832,0.448 -1.408,1.536 -0.576,1.056 -0.576,2.784 v 9.216 h -2.784 z"
         style=""
         id="path17418" />
      <path
         d="m 271.75883,356.02463 q -2.208,0 -3.872,-1.08801 -1.632,-1.08799 -2.528,-3.04 -0.864,-1.952 -0.864,-4.448 0,-2.656 0.896,-4.576 0.896,-1.952 2.528,-2.944 1.664,-1.024 3.84,-1.024 1.92,0 3.424,0.864 1.536,0.832 2.432,2.59201 0.896,1.72799 0.896,4.32 0,0.89599 -0.096,1.856 h -11.072 q 0.16,2.24 1.376,3.61599 1.248,1.344 3.104,1.344 2.048,0 3.52,-1.47199 l 1.696,1.88799 q -0.96,0.96001 -2.336,1.536 -1.344,0.57601 -2.944,0.57601 z m 3.936,-9.856 q -0.032,-2.52801 -1.216,-3.64801 -1.152,-1.152 -2.72,-1.152 -1.888,0 -3.104,1.21601 -1.216,1.18399 -1.344,3.584 z"
         style=""
         id="path17420" />
      <path
         d="m 289.61833,356.02463 q -1.472,0 -2.464,-0.512 -0.992,-0.512 -1.728,-1.40801 v 6.688 l -2.784,1.312 v -22.81599 h 2.784 v 1.37599 q 0.832,-0.832 1.792,-1.27999 0.992,-0.48001 2.4,-0.48001 2.048,0 3.584,1.056 1.536,1.024 2.336,2.976 0.832,1.92 0.832,4.512 0,2.656 -0.864,4.608 -0.832,1.92001 -2.368,2.94401 -1.536,1.024 -3.52,1.024 z m -0.352,-2.59201 q 2.048,0 3.136,-1.536 1.12,-1.568 1.12,-4.448 0,-2.71999 -1.152,-4.35199 -1.12,-1.63201 -3.104,-1.63201 -1.248,0 -2.24,0.576 -0.992,0.576 -1.6,1.632 v 7.552 q 1.696,2.208 3.84,2.208 z"
         style=""
         id="path17422" />
      <path
         d="m 306.97683,356.02463 q -3.328,0 -5.28,-2.272 -1.952,-2.27201 -1.952,-6.27201 0,-2.65599 0.896,-4.576 0.896,-1.952 2.528,-2.976 1.632,-1.024 3.808,-1.024 3.328,0 5.28,2.272 1.952,2.272 1.952,6.272 0,2.656 -0.896,4.608 -0.896,1.92001 -2.528,2.94401 -1.632,1.024 -3.808,1.024 z m 0,-2.59201 q 2.08,0 3.232,-1.568 1.184,-1.59999 1.184,-4.416 0,-2.784 -1.184,-4.384 -1.152,-1.6 -3.232,-1.6 -2.08,0 -3.264,1.6 -1.152,1.56801 -1.152,4.416 0,2.78401 1.152,4.384 1.184,1.568 3.264,1.568 z"
         style=""
         id="path17424" />
    </g>
  </g>
</svg>
