<?xml version="1.0" encoding="UTF-8" standalone="no"?>
<!-- Created with Inkscape (http://www.inkscape.org/) -->

<svg
   xmlns:dc="http://purl.org/dc/elements/1.1/"
   xmlns:cc="http://creativecommons.org/ns#"
   xmlns:rdf="http://www.w3.org/1999/02/22-rdf-syntax-ns#"
   xmlns:svg="http://www.w3.org/2000/svg"
   xmlns="http://www.w3.org/2000/svg"
   xmlns:sodipodi="http://sodipodi.sourceforge.net/DTD/sodipodi-0.dtd"
   xmlns:inkscape="http://www.inkscape.org/namespaces/inkscape"
   width="171.58704mm"
   height="57.708523mm"
   viewBox="0 0 171.58703 57.708521"
   version="1.1"
   id="svg8"
   inkscape:version="0.92.3 (2405546, 2018-03-11)"
   sodipodi:docname="publishing.svg">
  <defs
     id="defs2" />
  <sodipodi:namedview
     id="base"
     pagecolor="#ffffff"
     bordercolor="#666666"
     borderopacity="1.0"
     inkscape:pageopacity="0.0"
     inkscape:pageshadow="2"
     inkscape:zoom="1.4"
     inkscape:cx="329.02642"
     inkscape:cy="-22.875718"
     inkscape:document-units="mm"
     inkscape:current-layer="layer1"
     showgrid="false"
     fit-margin-top="0"
     fit-margin-left="0"
     fit-margin-right="0"
     fit-margin-bottom="0"
     inkscape:window-width="1920"
     inkscape:window-height="1060"
     inkscape:window-x="0"
     inkscape:window-y="0"
     inkscape:window-maximized="1" />
  <metadata
     id="metadata5">
    <rdf:RDF>
      <cc:Work
         rdf:about="">
        <dc:format>image/svg+xml</dc:format>
        <dc:type
           rdf:resource="http://purl.org/dc/dcmitype/StillImage" />
        <dc:title></dc:title>
      </cc:Work>
    </rdf:RDF>
  </metadata>
  <g
     inkscape:label="Layer 1"
     inkscape:groupmode="layer"
     id="layer1"
     transform="translate(-38.647078,-37.429052)">
    <g
       id="g1854"
       transform="translate(-49.333441,-11.528274)">
      <rect
         ry="0.44589195"
         y="92.397247"
         x="143.01622"
         height="14.268602"
         width="61.515633"
         id="rect1488"
         style="opacity:1;vector-effect:none;fill:#0088ce;fill-opacity:1;stroke:none;stroke-width:1.96168375;stroke-linecap:butt;stroke-linejoin:round;stroke-miterlimit:4;stroke-dasharray:none;stroke-dashoffset:0;stroke-opacity:1" />
      <g
         id="text2314"
         style="font-style:normal;font-variant:normal;font-weight:900;font-stretch:normal;font-size:8.46666622px;line-height:1.25;font-family:Overpass;-inkscape-font-specification:'Overpass Heavy';letter-spacing:0px;word-spacing:0px;fill:#ffffff;fill-opacity:1;stroke:none;stroke-width:0.26458332"
         aria-label="container-a">
        <path
           id="path1544"
           style="font-size:8.46666622px;fill:#ffffff;stroke-width:0.26458332"
           d="m 152.52667,102.65151 c 0.98213,0 1.61713,-0.4826 1.905,-1.46473 l -1.17687,-0.33867 c -0.127,0.4064 -0.37253,0.62653 -0.72813,0.62653 -0.44027,0 -0.77893,-0.4318 -0.77893,-1.08373 0,-0.643465 0.33866,-1.092198 0.79586,-1.092198 0.33867,0 0.5842,0.2286 0.7112,0.5588 l 1.1684,-0.381 c -0.29633,-0.9398 -0.97366,-1.354667 -1.89653,-1.354667 -1.21073,0 -2.02353,0.872067 -2.02353,2.269065 0,1.4224 0.8128,2.2606 2.02353,2.2606 z"
           inkscape:connector-curvature="0" />
        <path
           id="path1546"
           style="font-size:8.46666622px;fill:#ffffff;stroke-width:0.26458332"
           d="m 157.22263,102.65151 c 1.2192,0 1.98966,-0.8382 1.98966,-2.2606 0,-1.396998 -0.77046,-2.269065 -1.98966,-2.269065 -1.22767,0 -2.0066,0.872067 -2.0066,2.269065 0,1.4224 0.77893,2.2606 2.0066,2.2606 z m 0,-1.18533 c -0.47414,0 -0.77894,-0.39794 -0.77894,-1.07527 0,-0.677332 0.3048,-1.083732 0.77894,-1.083732 0.4826,0 0.762,0.4064 0.762,1.083732 0,0.67733 -0.2794,1.07527 -0.762,1.07527 z"
           inkscape:connector-curvature="0" />
        <path
           id="path1548"
           style="font-size:8.46666622px;fill:#ffffff;stroke-width:0.26458332"
           d="m 162.94834,102.54991 h 1.22767 v -2.810932 c 0,-1.261533 -0.8382,-1.617133 -1.4986,-1.617133 -0.52493,0 -0.9144,0.186267 -1.17687,0.499533 v -0.397933 h -1.22766 v 4.326465 h 1.22766 v -2.26907 c 0,-0.651928 0.22014,-0.973662 0.762,-0.973662 0.508,0 0.6858,0.3048 0.6858,0.990602 z"
           inkscape:connector-curvature="0" />
        <path
           id="path1550"
           style="font-size:8.46666622px;fill:#ffffff;stroke-width:0.26458332"
           d="m 166.70304,102.65151 c 0.381,0 0.70274,-0.0593 0.98214,-0.19473 l 0.13546,-1.03294 c -0.26246,0.11854 -0.508,0.16934 -0.74506,0.16934 -0.11854,0 -0.24554,-0.0762 -0.24554,-0.24554 v -2.048928 h 0.9398 v -1.075267 h -0.9398 v -1.786467 l -1.2192,0.5842 v 1.202267 h -0.59266 v 1.075267 h 0.59266 v 2.167468 c 0,0.762 0.32174,1.18533 1.0922,1.18533 z"
           inkscape:connector-curvature="0" />
        <path
           id="path1552"
           style="font-size:8.46666622px;fill:#ffffff;stroke-width:0.26458332"
           d="m 171.20294,102.54991 h 1.2192 v -2.734732 c 0,-1.490133 -1.03293,-1.693333 -1.83726,-1.693333 -0.762,0 -1.40547,0.237067 -1.8542,0.541867 l 0.381,0.9398 c 0.4572,-0.3048 0.90593,-0.4572 1.38853,-0.4572 0.42334,0 0.70273,0.2032 0.70273,0.6096 v 0.237066 c -0.24553,-0.110066 -0.52493,-0.1524 -0.94826,-0.1524 -0.85513,0 -1.7526,0.440262 -1.7526,1.388532 0,0.94827 0.7112,1.4224 1.6256,1.4224 0.5588,0 0.8636,-0.19473 1.07526,-0.42333 z m -0.83819,-0.93133 c -0.42334,0 -0.6604,-0.14394 -0.6604,-0.381 0,-0.31327 0.33866,-0.41487 0.762,-0.41487 0.27093,0 0.508,0.0339 0.73659,0.1016 v 0.38947 c -0.20319,0.16086 -0.46566,0.3048 -0.83819,0.3048 z"
           inkscape:connector-curvature="0" />
        <path
           id="path1554"
           style="font-size:8.46666622px;fill:#ffffff;stroke-width:0.26458332"
           d="m 174.22779,97.808578 c 0.39794,0 0.70274,-0.321733 0.70274,-0.702733 0,-0.389467 -0.3048,-0.694267 -0.70274,-0.694267 -0.38946,0 -0.7112,0.3048 -0.7112,0.694267 0,0.381 0.32174,0.702733 0.7112,0.702733 z m -0.61806,4.741332 h 1.22766 v -4.326465 h -1.22766 z"
           inkscape:connector-curvature="0" />
        <path
           id="path1556"
           style="font-size:8.46666622px;fill:#ffffff;stroke-width:0.26458332"
           d="m 178.79027,102.54991 h 1.22766 v -2.810932 c 0,-1.261533 -0.8382,-1.617133 -1.4986,-1.617133 -0.52493,0 -0.9144,0.186267 -1.17686,0.499533 v -0.397933 h -1.22767 v 4.326465 h 1.22767 v -2.26907 c 0,-0.651928 0.22013,-0.973662 0.762,-0.973662 0.508,0 0.6858,0.3048 0.6858,0.990602 z"
           inkscape:connector-curvature="0" />
        <path
           id="path1558"
           style="font-size:8.46666622px;fill:#ffffff;stroke-width:0.26458332"
           d="m 183.08684,102.65151 c 0.74506,0 1.28693,-0.3048 1.68486,-0.7874 l -0.7112,-0.7112 c -0.27093,0.32173 -0.54186,0.4572 -0.97366,0.4572 -0.4572,0 -0.82974,-0.2286 -0.85514,-0.80433 h 2.7686 c 0.0339,-0.22014 0.0339,-0.47414 0.0339,-0.635 0,-1.388535 -0.85513,-2.048935 -1.94733,-2.048935 -1.26154,0 -2.0574,0.872067 -2.0574,2.260595 0,1.4224 0.77893,2.26907 2.0574,2.26907 z m -0.84667,-2.768598 c 0.0593,-0.4572 0.36407,-0.719667 0.79587,-0.719667 0.508,0 0.762,0.262467 0.82126,0.719667 z"
           inkscape:connector-curvature="0" />
        <path
           id="path1560"
           style="font-size:8.46666622px;fill:#ffffff;stroke-width:0.26458332"
           d="m 186.05321,102.54991 h 1.22767 v -2.34527 c 0,-0.694262 0.3556,-0.897462 0.74507,-0.897462 0.3556,0 0.57573,0.135467 0.77046,0.296334 l 0.16087,-1.1176 c -0.21167,-0.220134 -0.4826,-0.364067 -0.85513,-0.364067 -0.44874,0 -0.7366,0.321733 -0.82127,0.491067 v -0.389467 h -1.22767 z"
           inkscape:connector-curvature="0" />
        <path
           id="path1562"
           style="font-size:8.46666622px;fill:#ffffff;stroke-width:0.26458332"
           d="m 189.80699,100.63644 h 2.30293 v -1.168395 h -2.30293 z"
           inkscape:connector-curvature="0" />
        <path
           id="path1564"
           style="font-size:8.46666622px;fill:#ffffff;stroke-width:0.26458332"
           d="m 195.82573,102.54991 h 1.2192 v -2.734732 c 0,-1.490133 -1.03293,-1.693333 -1.83727,-1.693333 -0.762,0 -1.40546,0.237067 -1.8542,0.541867 l 0.381,0.9398 c 0.4572,-0.3048 0.90594,-0.4572 1.38854,-0.4572 0.42333,0 0.70273,0.2032 0.70273,0.6096 v 0.237066 c -0.24553,-0.110066 -0.52493,-0.1524 -0.94827,-0.1524 -0.85513,0 -1.7526,0.440262 -1.7526,1.388532 0,0.94827 0.7112,1.4224 1.6256,1.4224 0.5588,0 0.8636,-0.19473 1.07527,-0.42333 z m -0.8382,-0.93133 c -0.42333,0 -0.6604,-0.14394 -0.6604,-0.381 0,-0.31327 0.33867,-0.41487 0.762,-0.41487 0.27093,0 0.508,0.0339 0.7366,0.1016 v 0.38947 c -0.2032,0.16086 -0.46567,0.3048 -0.8382,0.3048 z"
           inkscape:connector-curvature="0" />
      </g>
    </g>
    <g
       id="g1481"
       transform="rotate(-90,88.512918,89.638559)"
       style="fill:#f0ab00">
      <g
         transform="matrix(-0.35598845,0,0,0.20355564,225.12502,105.13462)"
         id="g1277-7-0-53-5-0"
         style="fill:#f0ab00">
        <rect
           style="opacity:1;vector-effect:none;fill:#f0ab00;fill-opacity:1;stroke:none;stroke-width:1.31701291;stroke-linecap:butt;stroke-linejoin:round;stroke-miterlimit:4;stroke-dasharray:none;stroke-dashoffset:0;stroke-opacity:1"
           id="rect1228-6-3-5-3-6"
           width="20.788691"
           height="10.961308"
           x="89.979294"
           y="332.31668"
           ry="0"
           transform="matrix(0,1,1,0,0,0)" />
        <rect
           style="opacity:1;vector-effect:none;fill:#f0ab00;fill-opacity:1;stroke:none;stroke-width:1.09371972;stroke-linecap:butt;stroke-linejoin:round;stroke-miterlimit:4;stroke-dasharray:none;stroke-dashoffset:0;stroke-opacity:1"
           id="rect1228-2-81-5-6-5-2"
           width="20.788691"
           height="7.5595231"
           x="89.979294"
           y="322.48776"
           ry="0"
           transform="matrix(0,1,1,0,0,0)" />
        <rect
           style="opacity:1;vector-effect:none;fill:#f0ab00;fill-opacity:1;stroke:none;stroke-width:0.64705324;stroke-linecap:butt;stroke-linejoin:round;stroke-miterlimit:4;stroke-dasharray:none;stroke-dashoffset:0;stroke-opacity:1"
           id="rect1228-2-8-3-8-2-6-6"
           width="20.788691"
           height="2.6458325"
           x="89.979294"
           y="317.42145"
           ry="0"
           transform="matrix(0,1,1,0,0,0)" />
      </g>
      <g
         transform="matrix(0.35598846,0,0,0.35598846,-5.389669,93.19826)"
         id="g1364-5-6-5-9-2-1"
         style="fill:#f0ab00">
        <path
           sodipodi:type="star"
           style="opacity:1;vector-effect:none;fill:#f0ab00;fill-opacity:1;stroke:none;stroke-width:2.56500006;stroke-linecap:butt;stroke-linejoin:round;stroke-miterlimit:4;stroke-dasharray:none;stroke-dashoffset:0;stroke-opacity:1"
           id="path1226-3-4-3-1-9-8"
           sodipodi:sides="3"
           sodipodi:cx="325.05951"
           sodipodi:cy="20.321421"
           sodipodi:r1="25.481874"
           sodipodi:r2="12.740937"
           sodipodi:arg1="0.52359878"
           sodipodi:arg2="1.5707963"
           inkscape:flatsided="false"
           inkscape:rounded="0"
           inkscape:randomized="0"
           d="m 347.12746,33.062358 -22.06795,0 -22.06795,0 11.03397,-19.111406 11.03398,-19.1114058 11.03397,19.1114058 z"
           inkscape:transform-center-x="-1.6225302e-06"
           inkscape:transform-center-y="-6.370469"
           transform="matrix(0,0.57180407,-0.52533955,0,358.25346,-94.946121)" />
        <g
           style="fill:#f0ab00"
           id="g1277-7-0-5-2-1-7"
           transform="matrix(1,0,0,0.57180407,-5.1464195,33.530176)">
          <rect
             transform="matrix(0,1,1,0,0,0)"
             ry="0"
             y="332.31668"
             x="89.979294"
             height="10.961308"
             width="20.788691"
             id="rect1228-6-3-6-7-2-9"
             style="opacity:1;vector-effect:none;fill:#f0ab00;fill-opacity:1;stroke:none;stroke-width:1.31701291;stroke-linecap:butt;stroke-linejoin:round;stroke-miterlimit:4;stroke-dasharray:none;stroke-dashoffset:0;stroke-opacity:1" />
          <rect
             transform="matrix(0,1,1,0,0,0)"
             ry="0"
             y="322.48776"
             x="89.979294"
             height="7.5595231"
             width="20.788691"
             id="rect1228-2-81-5-2-0-7-2"
             style="opacity:1;vector-effect:none;fill:#f0ab00;fill-opacity:1;stroke:none;stroke-width:1.09371972;stroke-linecap:butt;stroke-linejoin:round;stroke-miterlimit:4;stroke-dasharray:none;stroke-dashoffset:0;stroke-opacity:1" />
          <rect
             transform="matrix(0,1,1,0,0,0)"
             ry="0"
             y="317.42145"
             x="89.979294"
             height="2.6458325"
             width="20.788691"
             id="rect1228-2-8-3-8-9-9-0-0"
             style="opacity:1;vector-effect:none;fill:#f0ab00;fill-opacity:1;stroke:none;stroke-width:0.64705324;stroke-linecap:butt;stroke-linejoin:round;stroke-miterlimit:4;stroke-dasharray:none;stroke-dashoffset:0;stroke-opacity:1" />
        </g>
      </g>
    </g>
    <flowRoot
       xml:space="preserve"
       id="flowRoot1513"
       style="font-style:normal;font-variant:normal;font-weight:900;font-stretch:normal;font-size:40px;line-height:1.25;font-family:Overpass;-inkscape-font-specification:'Overpass Heavy';letter-spacing:0px;word-spacing:0px;fill:#000000;fill-opacity:1;stroke:none"
       transform="matrix(0.26458333,0,0,0.26458333,23.063625,22.246924)"><flowRegion
         id="flowRegion1515"><rect
           id="rect1517"
           width="345.47217"
           height="171.72594"
           x="387.89859"
           y="326.47089" /></flowRegion><flowPara
         id="flowPara1519" /></flowRoot>    <g
       id="g2102"
       transform="translate(23.145445,15.182127)">
      <rect
         y="22.246925"
         x="15.501633"
         height="13.363476"
         width="171.58704"
         id="rect815"
         style="opacity:1;vector-effect:none;fill:#dcdcdc;fill-opacity:1;stroke:none;stroke-width:2.56500006;stroke-linecap:butt;stroke-linejoin:round;stroke-miterlimit:4;stroke-dasharray:none;stroke-dashoffset:0;stroke-opacity:1" />
      <g
         aria-label="Host Networking"
         style="font-style:normal;font-variant:normal;font-weight:900;font-stretch:normal;font-size:10.58333302px;line-height:1.25;font-family:Overpass;-inkscape-font-specification:'Overpass Heavy';letter-spacing:0px;word-spacing:0px;fill:#000000;fill-opacity:1;stroke:none;stroke-width:0.26458332"
         id="text819">
        <path
           inkscape:connector-curvature="0"
           d="m 64.637048,31.706789 h 1.61925 v -7.408333 h -1.61925 v 2.836333 h -2.942166 v -2.836333 h -1.608667 v 7.408333 h 1.608667 v -3.037417 h 2.942166 z"
           style="stroke-width:0.26458332"
           id="path969" />
        <path
           inkscape:connector-curvature="0"
           d="m 70.081347,31.833789 c 1.524,0 2.487083,-1.04775 2.487083,-2.82575 0,-1.74625 -0.963083,-2.836333 -2.487083,-2.836333 -1.534584,0 -2.50825,1.090083 -2.50825,2.836333 0,1.778 0.973666,2.82575 2.50825,2.82575 z m 0,-1.481667 c -0.592667,0 -0.973667,-0.497416 -0.973667,-1.344083 0,-0.846667 0.381,-1.354667 0.973667,-1.354667 0.60325,0 0.9525,0.508 0.9525,1.354667 0,0.846667 -0.34925,1.344083 -0.9525,1.344083 z"
           style="stroke-width:0.26458332"
           id="path971" />
        <path
           inkscape:connector-curvature="0"
           d="m 75.663558,31.833789 c 1.312334,0 2.169584,-0.60325 2.169584,-1.68275 0,-1.132417 -0.973667,-1.513417 -1.778,-1.778 -0.560917,-0.137583 -1.058334,-0.34925 -1.058334,-0.592667 0,-0.232833 0.254,-0.34925 0.635,-0.34925 0.34925,0 0.635,0.08467 1.037167,0.455084 l 0.994833,-0.814917 c -0.423333,-0.47625 -1.0795,-0.899583 -2.032,-0.899583 -1.090083,0 -2.010833,0.550333 -2.010833,1.534583 0,0.98425 0.677333,1.397 1.915583,1.80975 0.645584,0.243417 0.92075,0.370417 0.92075,0.635 0,0.306917 -0.306916,0.423333 -0.751416,0.423333 -0.53975,0 -1.058334,-0.381 -1.280584,-0.60325 l -0.98425,0.836084 c 0.4445,0.624416 1.3335,1.026583 2.2225,1.026583 z"
           style="stroke-width:0.26458332"
           id="path973" />
        <path
           inkscape:connector-curvature="0"
           d="m 80.629623,31.833789 c 0.47625,0 0.878416,-0.07408 1.227666,-0.243417 l 0.169334,-1.291166 c -0.328084,0.148166 -0.635,0.211666 -0.931334,0.211666 -0.148166,0 -0.306916,-0.09525 -0.306916,-0.306916 v -2.561167 h 1.17475 v -1.344083 h -1.17475 v -2.233083 l -1.524,0.73025 v 1.502833 h -0.740834 v 1.344083 h 0.740834 v 2.709333 c 0,0.9525 0.402166,1.481667 1.36525,1.481667 z"
           style="stroke-width:0.26458332"
           id="path975" />
        <path
           inkscape:connector-curvature="0"
           d="m 92.040605,31.706789 v -7.408333 h -1.608667 v 3.8735 c 0,0.116416 0.01058,0.41275 0.03175,0.560916 -0.0635,-0.15875 -0.232833,-0.4445 -0.306916,-0.550333 l -2.719917,-3.884083 h -1.471083 v 7.408333 h 1.5875 v -3.926417 c 0,-0.137583 0,-0.381 -0.03175,-0.560916 0.08467,0.169333 0.243416,0.465666 0.3175,0.560916 l 2.794,3.926417 z"
           style="stroke-width:0.26458332"
           id="path977" />
        <path
           inkscape:connector-curvature="0"
           d="m 95.92105,31.833789 c 0.931333,0 1.608666,-0.381 2.106083,-0.98425 l -0.889,-0.889 c -0.338667,0.402167 -0.677333,0.5715 -1.217083,0.5715 -0.5715,0 -1.037167,-0.28575 -1.068917,-1.005417 h 3.46075 c 0.04233,-0.275166 0.04233,-0.592666 0.04233,-0.79375 0,-1.735666 -1.068916,-2.561166 -2.434166,-2.561166 -1.576917,0 -2.57175,1.090083 -2.57175,2.82575 0,1.778 0.973666,2.836333 2.57175,2.836333 z m -1.058334,-3.46075 c 0.07408,-0.5715 0.455084,-0.899583 0.994834,-0.899583 0.635,0 0.9525,0.328083 1.026583,0.899583 z"
           style="stroke-width:0.26458332"
           id="path979" />
        <path
           inkscape:connector-curvature="0"
           d="m 101.21751,31.833789 c 0.47625,0 0.87842,-0.07408 1.22767,-0.243417 l 0.16933,-1.291166 c -0.32808,0.148166 -0.635,0.211666 -0.93133,0.211666 -0.14817,0 -0.30692,-0.09525 -0.30692,-0.306916 v -2.561167 h 1.17475 v -1.344083 h -1.17475 v -2.233083 l -1.523997,0.73025 v 1.502833 H 99.11143 v 1.344083 h 0.740833 v 2.709333 c 0,0.9525 0.402167,1.481667 1.365247,1.481667 z"
           style="stroke-width:0.26458332"
           id="path981" />
        <path
           inkscape:connector-curvature="0"
           d="m 104.7922,31.706789 h 1.35466 l 0.5715,-2.455333 c 0.0318,-0.148167 0.15875,-0.582084 0.20109,-0.878417 0.0318,0.296333 0.15875,0.740833 0.17991,0.878417 l 0.5715,2.455333 h 1.35467 l 1.56633,-5.408083 h -1.51341 l -0.59267,2.2225 c -0.0529,0.179916 -0.0953,0.5715 -0.14817,0.79375 -0.0635,-0.22225 -0.127,-0.60325 -0.17991,-0.79375 l -0.56092,-2.2225 h -1.37583 l -0.5715,2.2225 c -0.0529,0.1905 -0.127,0.5715 -0.17992,0.79375 -0.0635,-0.22225 -0.10583,-0.613834 -0.15875,-0.79375 l -0.56092,-2.2225 h -1.51341 z"
           style="stroke-width:0.26458332"
           id="path983" />
        <path
           inkscape:connector-curvature="0"
           d="m 113.96497,31.833789 c 1.524,0 2.48708,-1.04775 2.48708,-2.82575 0,-1.74625 -0.96308,-2.836333 -2.48708,-2.836333 -1.53458,0 -2.50825,1.090083 -2.50825,2.836333 0,1.778 0.97367,2.82575 2.50825,2.82575 z m 0,-1.481667 c -0.59266,0 -0.97366,-0.497416 -0.97366,-1.344083 0,-0.846667 0.381,-1.354667 0.97366,-1.354667 0.60325,0 0.9525,0.508 0.9525,1.354667 0,0.846667 -0.34925,1.344083 -0.9525,1.344083 z"
           style="stroke-width:0.26458332"
           id="path985" />
        <path
           inkscape:connector-curvature="0"
           d="m 117.77778,31.706789 h 1.53458 v -2.931583 c 0,-0.867834 0.4445,-1.121834 0.93134,-1.121834 0.4445,0 0.71966,0.169334 0.96308,0.370417 l 0.20108,-1.397 c -0.26458,-0.275166 -0.60325,-0.455083 -1.06891,-0.455083 -0.56092,0 -0.92075,0.402167 -1.02659,0.613833 v -0.486833 h -1.53458 z"
           style="stroke-width:0.26458332"
           id="path987" />
        <path
           inkscape:connector-curvature="0"
           d="m 127.32164,31.706789 -1.9685,-3.81 1.651,-1.598083 h -1.82034 l -1.36525,1.354666 v -3.587749 l -1.53458,0.719666 v 6.9215 h 1.53458 v -2.3495 l 0.40217,-0.370417 1.42875,2.719917 z"
           style="stroke-width:0.26458332"
           id="path989" />
        <path
           inkscape:connector-curvature="0"
           d="m 129.14428,25.780123 c 0.49742,0 0.87842,-0.402167 0.87842,-0.878417 0,-0.486833 -0.381,-0.867833 -0.87842,-0.867833 -0.48683,0 -0.889,0.381 -0.889,0.867833 0,0.47625 0.40217,0.878417 0.889,0.878417 z m -0.77258,5.926666 h 1.53458 v -5.408083 h -1.53458 z"
           style="stroke-width:0.26458332"
           id="path991" />
        <path
           inkscape:connector-curvature="0"
           d="m 134.84737,31.706789 h 1.53459 v -3.513667 c 0,-1.576916 -1.04775,-2.021416 -1.87325,-2.021416 -0.65617,0 -1.143,0.232833 -1.47109,0.624416 v -0.497416 h -1.53458 v 5.408083 h 1.53458 v -2.836333 c 0,-0.814917 0.27517,-1.217084 0.9525,-1.217084 0.635,0 0.85725,0.381 0.85725,1.23825 z"
           style="stroke-width:0.26458332"
           id="path993" />
        <path
           inkscape:connector-curvature="0"
           d="m 140.96951,26.298706 v 0.232833 c -0.3175,-0.296333 -0.66675,-0.359833 -1.0795,-0.359833 -1.32292,0 -2.24367,1.090083 -2.24367,2.82575 0,1.883833 0.92075,2.836333 2.24367,2.836333 0.33866,0 0.75141,-0.03175 1.0795,-0.338667 -0.0106,0.8255 -0.52917,0.899584 -1.89442,1.016 l 0.87842,1.312334 c 2.25425,-0.179917 2.55058,-1.11125 2.55058,-3.058584 v -4.466166 z m 0,3.725333 c -0.1905,0.22225 -0.39159,0.328083 -0.84667,0.328083 -0.68792,0 -0.94192,-0.582083 -0.94192,-1.354666 0,-0.867834 0.34925,-1.344084 0.94192,-1.344084 0.56092,0 0.70908,0.232834 0.84667,0.34925 z"
           style="stroke-width:0.26458332"
           id="path995" />
      </g>
    </g>
  </g>
</svg>
