<?xml version="1.0" encoding="UTF-8" standalone="no"?>
<!-- Generator: Adobe Illustrator 17.1.0, SVG Export Plug-In . SVG Version: 6.00 Build 0)  -->

<svg
   xmlns:dc="http://purl.org/dc/elements/1.1/"
   xmlns:cc="http://creativecommons.org/ns#"
   xmlns:rdf="http://www.w3.org/1999/02/22-rdf-syntax-ns#"
   xmlns:svg="http://www.w3.org/2000/svg"
   xmlns="http://www.w3.org/2000/svg"
   xmlns:sodipodi="http://sodipodi.sourceforge.net/DTD/sodipodi-0.dtd"
   xmlns:inkscape="http://www.inkscape.org/namespaces/inkscape"
   version="1.1"
   id="Layer_1"
   x="0px"
   y="0px"
   viewBox="0 0 752.54956 81.013794"
   enable-background="new 0 0 612 792"
   xml:space="preserve"
   sodipodi:docname="sink.svg"
   inkscape:version="0.92.2 (5c3e80d, 2017-08-06)"
   width="752.54956"
   height="81.013794"><metadata
     id="metadata88"><rdf:RDF><cc:Work
         rdf:about=""><dc:format>image/svg+xml</dc:format><dc:type
           rdf:resource="http://purl.org/dc/dcmitype/StillImage" /><dc:title></dc:title></cc:Work></rdf:RDF></metadata><defs
     id="defs86" /><sodipodi:namedview
     pagecolor="#ffffff"
     bordercolor="#666666"
     borderopacity="1"
     objecttolerance="10"
     gridtolerance="10"
     guidetolerance="10"
     inkscape:pageopacity="0"
     inkscape:pageshadow="2"
     inkscape:window-width="2556"
     inkscape:window-height="1404"
     id="namedview84"
     showgrid="false"
     inkscape:zoom="1.5593434"
     inkscape:cx="410.28175"
     inkscape:cy="-152.87072"
     inkscape:window-x="2"
     inkscape:window-y="2"
     inkscape:window-maximized="1"
     inkscape:current-layer="g1083"
     fit-margin-top="1"
     fit-margin-left="1"
     fit-margin-right="1"
     fit-margin-bottom="1" /><rect
     style="opacity:1;fill:#0088ce;stroke:none;stroke-width:2.84578037;stroke-linecap:round;stroke-linejoin:round"
     id="rect90"
     width="750.54956"
     height="79.013794"
     x="1"
     y="1"
     ry="4.7678699" /><g
     id="g1083"
     transform="translate(-44.171093,-48.752653)"><g
       transform="translate(-200.55052,-307.39795)"
       id="g243"><g
         id="g233"><path
           style="fill:#ffffff"
           inkscape:connector-curvature="0"
           d="m 287.73,420.33 h -8.891 c -1.228,0 -2.352,-0.193 -3.34,-0.573 -1.002,-0.386 -1.874,-0.944 -2.592,-1.662 -0.722,-0.721 -1.275,-1.608 -1.646,-2.637 -0.359,-0.997 -0.542,-2.121 -0.542,-3.343 v -7.916 c 0,-0.89 -0.109,-1.639 -0.325,-2.226 -0.2,-0.542 -0.482,-0.98 -0.841,-1.303 -0.37,-0.334 -0.812,-0.569 -1.351,-0.721 -0.599,-0.17 -1.281,-0.263 -2.03,-0.277 l -0.98,-0.02 v -6.649 l 0.962,-0.037 c 0.767,-0.029 1.46,-0.133 2.06,-0.31 0.541,-0.159 0.98,-0.398 1.345,-0.731 0.354,-0.324 0.634,-0.764 0.835,-1.309 0.215,-0.586 0.325,-1.335 0.325,-2.225 v -7.915 c 0,-2.618 0.739,-4.666 2.197,-6.086 1.45,-1.413 3.442,-2.13 5.922,-2.13 h 8.891 v 6.585 h -5.537 c -1.148,0 -1.929,0.284 -2.385,0.87 -0.508,0.653 -0.766,1.721 -0.766,3.174 v 7.264 c 0,0.941 -0.157,1.822 -0.466,2.619 -0.305,0.788 -0.727,1.493 -1.254,2.094 -0.488,0.558 -1.064,1.036 -1.713,1.422 0.661,0.39 1.247,0.879 1.743,1.453 0.525,0.61 0.941,1.31 1.237,2.08 0.301,0.78 0.453,1.652 0.453,2.592 v 7.264 c 0,1.468 0.257,2.538 0.764,3.183 0.456,0.579 1.237,0.861 2.387,0.861 h 5.537 v 6.609 z m -20.536,-22.597 c 0.55,0.058 1.069,0.155 1.553,0.292 0.828,0.232 1.551,0.623 2.147,1.159 0.603,0.543 1.066,1.249 1.379,2.099 0.297,0.809 0.448,1.79 0.448,2.916 v 7.916 c 0,0.989 0.143,1.886 0.423,2.665 0.27,0.749 0.666,1.389 1.178,1.9 0.518,0.518 1.156,0.925 1.895,1.209 0.759,0.292 1.641,0.441 2.622,0.441 h 6.891 v -2.608 h -3.537 c -1.779,0 -3.111,-0.547 -3.959,-1.625 -0.802,-1.02 -1.191,-2.465 -1.191,-4.419 v -7.264 c 0,-0.692 -0.108,-1.323 -0.319,-1.873 -0.214,-0.556 -0.513,-1.059 -0.887,-1.493 -0.372,-0.433 -0.819,-0.798 -1.327,-1.085 -0.525,-0.297 -1.094,-0.519 -1.689,-0.656 l -0.774,-0.18 v -1.603 l 0.79,-0.266 c 0.574,-0.124 1.129,-0.335 1.648,-0.629 0.51,-0.289 0.959,-0.652 1.333,-1.08 0.372,-0.425 0.673,-0.93 0.893,-1.501 0.22,-0.565 0.331,-1.203 0.331,-1.895 v -7.264 c 0,-1.936 0.389,-3.376 1.188,-4.403 0.848,-1.089 2.182,-1.641 3.962,-1.641 h 3.537 v -2.585 h -6.891 c -1.968,0 -3.448,0.511 -4.526,1.562 -1.072,1.044 -1.593,2.566 -1.593,4.653 v 7.915 c 0,1.127 -0.15,2.108 -0.448,2.915 -0.312,0.848 -0.77,1.553 -1.362,2.094 -0.585,0.537 -1.303,0.932 -2.13,1.175 -0.489,0.144 -1.021,0.25 -1.587,0.316 v 2.843 z"
           id="path231" /></g><g
         id="g237"><path
           style="fill:#ffffff"
           inkscape:connector-curvature="0"
           d="m 310.149,421.055 h -8.323 v -48.793 h 8.323 z m -6.322,-2 h 4.323 v -44.793 h -4.323 z"
           id="path235" /></g><g
         id="g241"><path
           style="fill:#ffffff"
           inkscape:connector-curvature="0"
           d="m 333.162,420.33 h -8.892 v -6.608 h 5.537 c 1.15,0 1.931,-0.282 2.387,-0.861 0.507,-0.644 0.764,-1.715 0.764,-3.183 v -7.264 c 0,-0.94 0.152,-1.812 0.454,-2.593 0.296,-0.77 0.713,-1.471 1.236,-2.079 0.496,-0.575 1.082,-1.063 1.742,-1.453 -0.648,-0.386 -1.225,-0.864 -1.713,-1.422 -0.524,-0.598 -0.946,-1.303 -1.254,-2.094 -0.309,-0.796 -0.466,-1.677 -0.466,-2.618 v -7.264 c 0,-1.454 -0.258,-2.522 -0.767,-3.174 -0.456,-0.585 -1.235,-0.87 -2.384,-0.87 h -5.537 v -6.585 h 8.892 c 2.479,0 4.472,0.717 5.923,2.13 1.457,1.42 2.196,3.468 2.196,6.086 v 7.915 c 0,0.893 0.109,1.641 0.324,2.225 0.2,0.546 0.48,0.986 0.834,1.309 0.365,0.334 0.805,0.573 1.345,0.731 0.601,0.177 1.294,0.281 2.062,0.31 l 0.962,0.037 v 6.649 l -0.98,0.02 c -0.749,0.015 -1.432,0.107 -2.028,0.276 -0.54,0.152 -0.982,0.388 -1.353,0.722 -0.364,0.327 -0.639,0.753 -0.841,1.303 -0.215,0.585 -0.324,1.333 -0.324,2.226 v 7.916 c 0,1.221 -0.183,2.346 -0.543,3.344 -0.369,1.026 -0.923,1.914 -1.645,2.636 -0.719,0.718 -1.591,1.276 -2.592,1.662 -0.988,0.378 -2.111,0.571 -3.339,0.571 z m -6.892,-2 h 6.892 c 0.98,0 1.862,-0.148 2.621,-0.441 0.739,-0.284 1.378,-0.691 1.896,-1.21 0.512,-0.511 0.908,-1.15 1.177,-1.898 0.282,-0.781 0.425,-1.678 0.425,-2.666 v -7.916 c 0,-1.129 0.15,-2.109 0.447,-2.916 0.312,-0.851 0.777,-1.557 1.38,-2.1 0.595,-0.535 1.317,-0.926 2.147,-1.159 0.481,-0.136 1.001,-0.233 1.552,-0.291 v -2.84 c -0.566,-0.066 -1.098,-0.172 -1.588,-0.317 -0.826,-0.242 -1.544,-0.638 -2.131,-1.175 -0.591,-0.541 -1.049,-1.246 -1.36,-2.094 -0.297,-0.805 -0.447,-1.786 -0.447,-2.915 v -7.915 c 0,-2.058 -0.536,-3.623 -1.593,-4.653 -1.079,-1.051 -2.56,-1.562 -4.526,-1.562 h -6.892 v 2.585 h 3.537 c 1.78,0 3.113,0.552 3.962,1.64 0.8,1.026 1.189,2.467 1.189,4.404 v 7.264 c 0,0.692 0.111,1.33 0.33,1.894 0.223,0.573 0.523,1.078 0.895,1.501 0.375,0.429 0.822,0.792 1.332,1.08 0.52,0.294 1.074,0.506 1.648,0.629 l 0.79,0.169 v 1.603 l -0.773,0.276 c -0.595,0.138 -1.163,0.359 -1.688,0.656 -0.509,0.287 -0.955,0.651 -1.328,1.085 -0.374,0.434 -0.672,0.935 -0.886,1.493 -0.213,0.55 -0.32,1.18 -0.32,1.873 v 7.264 c 0,1.954 -0.39,3.4 -1.191,4.419 -0.849,1.078 -2.181,1.625 -3.959,1.625 h -3.537 v 2.608 z"
           id="path239" /></g></g><g
       aria-label="org.apache.spark.metrics.sink.Sink"
       transform="translate(-1.8138577,9.09705)"
       style="font-style:normal;font-variant:normal;font-weight:900;font-stretch:normal;font-size:32px;line-height:1.25;font-family:Overpass;-inkscape-font-specification:'Overpass Heavy';letter-spacing:0px;word-spacing:0px;fill:#ffffff;fill-opacity:1"
       id="flowRoot1064"><path
         d="m 176.51212,88.9465 c 4.608,0 7.52,-3.168 7.52,-8.544 0,-5.28 -2.912,-8.576 -7.52,-8.576 -4.64,0 -7.584,3.296 -7.584,8.576 0,5.376 2.944,8.544 7.584,8.544 z m 0,-4.48 c -1.792,0 -2.944,-1.504 -2.944,-4.064 0,-2.56 1.152,-4.096 2.944,-4.096 1.824,0 2.88,1.536 2.88,4.096 0,2.56 -1.056,4.064 -2.88,4.064 z"
         style=""
         id="path1142" /><path
         d="m 188.04062,88.5625 h 4.64 v -8.864 c 0,-2.624 1.34401,-3.392 2.816,-3.392 1.344,0 2.176,0.512 2.912,1.12 l 0.608,-4.224 c -0.8,-0.832 -1.824,-1.376 -3.232,-1.376 -1.696,0 -2.78399,1.216 -3.104,1.856 v -1.472 h -4.64 z"
         style=""
         id="path1144" /><path
         d="m 210.35112,72.2105 v 0.704 c -0.96,-0.896 -2.016,-1.088 -3.26399,-1.088 -4,0 -6.78401,3.296 -6.78401,8.544 0,5.696 2.78401,8.576 6.78401,8.576 1.02399,0 2.27199,-0.096 3.26399,-1.024 -0.032,2.496 -1.6,2.72 -5.728,3.072 l 2.656,3.968 c 6.816,-0.544 7.712,-3.36 7.712,-9.248 v -13.504 z m 0,11.264 c -0.576,0.672 -1.184,0.992 -2.56,0.992 -2.08,0 -2.848,-1.76 -2.848,-4.096 0,-2.624 1.056,-4.064 2.848,-4.064 1.696,0 2.144,0.704 2.56,1.056 z"
         style=""
         id="path1146" /><path
         d="m 221.39062,88.9465 c 1.632,0 2.912,-1.184 2.912,-2.784 0,-1.568 -1.28,-2.848 -2.912,-2.848 -1.632,0 -2.848,1.28 -2.848,2.848 0,1.6 1.216,2.784 2.848,2.784 z"
         style=""
         id="path1148" /><path
         d="m 237.10112,88.5625 h 4.608 v -10.336 c 0,-5.632 -3.904,-6.4 -6.944,-6.4 -2.88,0 -5.312,0.896 -7.008,2.048 l 1.44,3.552 c 1.728,-1.152 3.424,-1.728 5.248,-1.728 1.60001,0 2.656,0.768 2.656,2.304 v 0.896 c -0.928,-0.416 -1.984,-0.576 -3.584,-0.576 -3.232,0 -6.624,1.664 -6.624,5.248 0,3.584 2.688,5.376 6.144,5.376 2.112,0 3.26401,-0.736 4.064,-1.6 z m -3.168,-3.52 c -1.6,0 -2.496,-0.544 -2.496,-1.44 0,-1.184 1.28,-1.568 2.88,-1.568 1.024,0 1.92,0.128 2.784,0.384 v 1.472 c -0.768,0.608 -1.76,1.152 -3.168,1.152 z"
         style=""
         id="path1150" /><path
         d="m 254.03762,88.9465 c 3.84001,0 6.81601,-3.168 6.81601,-8.544 0,-5.632 -2.78401,-8.576 -6.752,-8.576 -1.50401,0 -2.62401,0.576 -3.29601,1.504 v -1.12 h -4.64 v 22.72 l 4.64,-2.08 v -5.344 c 0.704,0.896 1.76,1.44 3.232,1.44 z m -0.736,-4.48 c -1.376,0 -2.272,-0.544 -2.496,-1.056 v -6.112 c 0.544,-0.576 1.216,-0.992 2.496,-0.992 1.984,0 2.912,1.568 2.912,4.096 0,2.56 -1.056,4.064 -2.912,4.064 z"
         style=""
         id="path1152" /><path
         d="m 274.10113,88.5625 h 4.60799 v -10.336 c 0,-5.632 -3.904,-6.4 -6.944,-6.4 -2.87999,0 -5.312,0.896 -7.008,2.048 l 1.44001,3.552 c 1.72799,-1.152 3.42399,-1.728 5.248,-1.728 1.59999,0 2.656,0.768 2.656,2.304 v 0.896 c -0.928,-0.416 -1.98401,-0.576 -3.584,-0.576 -3.23201,0 -6.62401,1.664 -6.62401,5.248 0,3.584 2.688,5.376 6.144,5.376 2.11201,0 3.26401,-0.736 4.06401,-1.6 z m -3.168,-3.52 c -1.60001,0 -2.49601,-0.544 -2.49601,-1.44 0,-1.184 1.28,-1.568 2.88,-1.568 1.024,0 1.92,0.128 2.78401,0.384 v 1.472 c -0.76801,0.608 -1.76001,1.152 -3.168,1.152 z"
         style=""
         id="path1154" /><path
         d="m 290.01362,88.9465 c 3.712,0 6.11201,-1.824 7.2,-5.536 l -4.448,-1.28 c -0.48,1.536 -1.408,2.368 -2.752,2.368 -1.664,0 -2.944,-1.632 -2.944,-4.096 0,-2.432 1.28,-4.128 3.008,-4.128 1.28,0 2.208,0.864 2.688,2.112 l 4.416,-1.44 c -1.12,-3.552 -3.68,-5.12 -7.168,-5.12 -4.57599,0 -7.64799,3.296 -7.64799,8.576 0,5.376 3.072,8.544 7.64799,8.544 z"
         style=""
         id="path1156" /><path
         d="m 301.22812,88.5625 h 4.64001 v -8.832 c 0,-2.4 1.08799,-3.424 2.88,-3.424 1.88799,0 2.59199,1.088 2.59199,3.488 v 8.768 h 4.64 v -10.624 c 0,-4.768 -3.168,-6.112 -5.664,-6.112 -1.98399,0 -3.456,0.704 -4.44799,1.888 v -8.256 l -4.64001,2.144 z"
         style=""
         id="path1158" /><path
         d="m 327.57912,88.9465 c 2.816,0 4.864,-1.152 6.36801,-2.976 l -2.68801,-2.688 c -1.024,1.216 -2.048,1.728 -3.68,1.728 -1.72799,0 -3.136,-0.864 -3.232,-3.04 h 10.464 c 0.128,-0.832 0.128,-1.792 0.128,-2.4 0,-5.248 -3.23199,-7.744 -7.36,-7.744 -4.768,0 -7.77599,3.296 -7.77599,8.544 0,5.376 2.94399,8.576 7.77599,8.576 z m -3.2,-10.464 c 0.224,-1.728 1.37601,-2.72 3.00801,-2.72 1.91999,0 2.88,0.992 3.10399,2.72 z"
         style=""
         id="path1160" /><path
         d="m 340.39062,88.9465 c 1.632,0 2.912,-1.184 2.912,-2.784 0,-1.568 -1.28,-2.848 -2.912,-2.848 -1.632,0 -2.848,1.28 -2.848,2.848 0,1.6 1.216,2.784 2.848,2.784 z"
         style=""
         id="path1162" /><path
         d="m 352.45312,88.9465 c 3.96801,0 6.56,-1.824 6.56,-5.088 0,-3.424 -2.944,-4.576 -5.37599,-5.376 -1.69601,-0.416 -3.20001,-1.056 -3.20001,-1.792 0,-0.704 0.768,-1.056 1.92,-1.056 1.056,0 1.92,0.256 3.13601,1.376 l 3.00799,-2.464 c -1.27999,-1.44 -3.264,-2.72 -6.144,-2.72 -3.296,0 -6.08,1.664 -6.08,4.64 0,2.976 2.04801,4.224 5.792,5.472 1.952,0.736 2.784,1.12 2.784,1.92 0,0.928 -0.928,1.28 -2.272,1.28 -1.632,0 -3.2,-1.152 -3.872,-1.824 l -2.976,2.528 c 1.34401,1.888 4.032,3.104 6.72,3.104 z"
         style=""
         id="path1164" /><path
         d="m 370.91262,88.9465 c 3.84001,0 6.81601,-3.168 6.81601,-8.544 0,-5.632 -2.78401,-8.576 -6.752,-8.576 -1.50401,0 -2.62401,0.576 -3.296,1.504 v -1.12 h -4.64001 v 22.72 l 4.64001,-2.08 v -5.344 c 0.704,0.896 1.75999,1.44 3.23199,1.44 z m -0.736,-4.48 c -1.37599,0 -2.272,-0.544 -2.49599,-1.056 v -6.112 c 0.54399,-0.576 1.21599,-0.992 2.49599,-0.992 1.984,0 2.912,1.568 2.912,4.096 0,2.56 -1.056,4.064 -2.912,4.064 z"
         style=""
         id="path1166" /><path
         d="m 390.97613,88.5625 h 4.60799 v -10.336 c 0,-5.632 -3.904,-6.4 -6.944,-6.4 -2.87999,0 -5.312,0.896 -7.008,2.048 l 1.44001,3.552 c 1.72799,-1.152 3.42399,-1.728 5.248,-1.728 1.59999,0 2.656,0.768 2.656,2.304 v 0.896 c -0.928,-0.416 -1.98401,-0.576 -3.584,-0.576 -3.23201,0 -6.62401,1.664 -6.62401,5.248 0,3.584 2.688,5.376 6.144,5.376 2.11201,0 3.26401,-0.736 4.06401,-1.6 z m -3.168,-3.52 c -1.60001,0 -2.49601,-0.544 -2.49601,-1.44 0,-1.184 1.28,-1.568 2.88,-1.568 1.024,0 1.92,0.128 2.78401,0.384 v 1.472 c -0.76801,0.608 -1.76001,1.152 -3.168,1.152 z"
         style=""
         id="path1168" /><path
         d="m 400.04062,88.5625 h 4.64001 v -8.864 c 0,-2.624 1.344,-3.392 2.81599,-3.392 1.344,0 2.176,0.512 2.91201,1.12 l 0.60799,-4.224 c -0.79999,-0.832 -1.82399,-1.376 -3.232,-1.376 -1.696,0 -2.78399,1.216 -3.10399,1.856 v -1.472 h -4.64001 z"
         style=""
         id="path1170" /><path
         d="m 428.89762,88.5625 -5.952,-11.52 4.99201,-4.832 h -5.50401 l -4.12799,4.096 v -10.848 l -4.64001,2.176 v 20.928 h 4.64001 v -7.104 l 1.21599,-1.12 4.32001,8.224 z"
         style=""
         id="path1172" /><path
         d="m 433.64062,88.9465 c 1.632,0 2.912,-1.184 2.912,-2.784 0,-1.568 -1.28,-2.848 -2.912,-2.848 -1.632,0 -2.848,1.28 -2.848,2.848 0,1.6 1.216,2.784 2.848,2.784 z"
         style=""
         id="path1174" /><path
         d="m 459.30313,88.5625 h 4.63999 v -10.112 c 0,-5.216 -2.656,-6.624 -6.24,-6.624 -1.98399,0 -3.904,0.608 -5.12,2.272 -0.67199,-1.408 -1.88799,-2.272 -4.096,-2.272 -1.856,0 -2.88,0.832 -3.74399,1.888 v -1.504 h -4.64001 v 16.352 h 4.64001 v -8.576 c 0,-2.688 0.608,-3.68 2.62399,-3.68 1.76,0 2.336,0.96 2.336,3.808 v 8.448 h 4.64 v -8.576 c 0,-2.688 0.576,-3.68 2.624,-3.68 1.76,0 2.33601,0.96 2.33601,3.808 z"
         style=""
         id="path1176" /><path
         d="m 475.57912,88.9465 c 2.816,0 4.864,-1.152 6.36801,-2.976 l -2.68801,-2.688 c -1.024,1.216 -2.048,1.728 -3.68,1.728 -1.72799,0 -3.136,-0.864 -3.232,-3.04 h 10.464 c 0.128,-0.832 0.128,-1.792 0.128,-2.4 0,-5.248 -3.23199,-7.744 -7.36,-7.744 -4.768,0 -7.77599,3.296 -7.77599,8.544 0,5.376 2.94399,8.576 7.77599,8.576 z m -3.2,-10.464 c 0.224,-1.728 1.37601,-2.72 3.00801,-2.72 1.91999,0 2.88,0.992 3.10399,2.72 z"
         style=""
         id="path1178" /><path
         d="m 491.59362,88.9465 c 1.44001,0 2.656,-0.224 3.71201,-0.736 l 0.512,-3.904 c -0.99201,0.448 -1.92001,0.64 -2.81601,0.64 -0.448,0 -0.928,-0.288 -0.928,-0.928 v -7.744 h 3.55201 v -4.064 h -3.55201 v -6.752 l -4.608,2.208 v 4.544 h -2.24 v 4.064 h 2.24 v 8.192 c 0,2.88 1.216,4.48 4.128,4.48 z"
         style=""
         id="path1180" /><path
         d="m 499.47812,88.5625 h 4.64001 v -8.864 c 0,-2.624 1.344,-3.392 2.81599,-3.392 1.344,0 2.176,0.512 2.91201,1.12 l 0.60799,-4.224 c -0.79999,-0.832 -1.82399,-1.376 -3.232,-1.376 -1.696,0 -2.78399,1.216 -3.10399,1.856 v -1.472 h -4.64001 z"
         style=""
         id="path1182" /><path
         d="m 515.47113,70.6425 c 1.504,0 2.65599,-1.216 2.65599,-2.656 0,-1.472 -1.15199,-2.624 -2.65599,-2.624 -1.472,0 -2.688,1.152 -2.688,2.624 0,1.44 1.216,2.656 2.688,2.656 z m -2.336,17.92 h 4.63999 v -16.352 h -4.63999 z"
         style=""
         id="path1184" /><path
         d="m 529.45113,88.9465 c 3.712,0 6.112,-1.824 7.19999,-5.536 l -4.448,-1.28 c -0.48,1.536 -1.408,2.368 -2.75199,2.368 -1.66401,0 -2.94401,-1.632 -2.94401,-4.096 0,-2.432 1.28,-4.128 3.008,-4.128 1.28,0 2.208,0.864 2.688,2.112 l 4.41601,-1.44 c -1.12,-3.552 -3.68001,-5.12 -7.168,-5.12 -4.576,0 -7.648,3.296 -7.648,8.576 0,5.376 3.072,8.544 7.648,8.544 z"
         style=""
         id="path1186" /><path
         d="m 546.01562,88.9465 c 3.968,0 6.56,-1.824 6.56,-5.088 0,-3.424 -2.944,-4.576 -5.376,-5.376 -1.69599,-0.416 -3.19999,-1.056 -3.19999,-1.792 0,-0.704 0.76799,-1.056 1.91999,-1.056 1.05601,0 1.92,0.256 3.136,1.376 l 3.008,-2.464 c -1.27999,-1.44 -3.264,-2.72 -6.144,-2.72 -3.296,0 -6.08,1.664 -6.08,4.64 0,2.976 2.048,4.224 5.792,5.472 1.952,0.736 2.784,1.12 2.784,1.92 0,0.928 -0.928,1.28 -2.27199,1.28 -1.63201,0 -3.20001,-1.152 -3.87201,-1.824 l -2.976,2.528 c 1.34401,1.888 4.032,3.104 6.72,3.104 z"
         style=""
         id="path1188" /><path
         d="m 558.20312,88.9465 c 1.632,0 2.91201,-1.184 2.91201,-2.784 0,-1.568 -1.28001,-2.848 -2.91201,-2.848 -1.63199,0 -2.84799,1.28 -2.84799,2.848 0,1.6 1.216,2.784 2.84799,2.784 z"
         style=""
         id="path1190" /><path
         d="m 570.26562,88.9465 c 3.968,0 6.56,-1.824 6.56,-5.088 0,-3.424 -2.944,-4.576 -5.376,-5.376 -1.69599,-0.416 -3.19999,-1.056 -3.19999,-1.792 0,-0.704 0.76799,-1.056 1.91999,-1.056 1.05601,0 1.92,0.256 3.136,1.376 l 3.008,-2.464 c -1.27999,-1.44 -3.264,-2.72 -6.144,-2.72 -3.296,0 -6.08,1.664 -6.08,4.64 0,2.976 2.048,4.224 5.792,5.472 1.952,0.736 2.784,1.12 2.784,1.92 0,0.928 -0.928,1.28 -2.27199,1.28 -1.63201,0 -3.20001,-1.152 -3.87201,-1.824 l -2.976,2.528 c 1.34401,1.888 4.032,3.104 6.72,3.104 z"
         style=""
         id="path1192" /><path
         d="m 583.22113,70.6425 c 1.504,0 2.65599,-1.216 2.65599,-2.656 0,-1.472 -1.15199,-2.624 -2.65599,-2.624 -1.472,0 -2.688,1.152 -2.688,2.624 0,1.44 1.216,2.656 2.688,2.656 z m -2.336,17.92 h 4.63999 v -16.352 h -4.63999 z"
         style=""
         id="path1194" /><path
         d="m 600.46512,88.5625 h 4.64001 v -10.624 c 0,-4.768 -3.168,-6.112 -5.664,-6.112 -1.984,0 -3.456,0.704 -4.44801,1.888 v -1.504 h -4.64 v 16.352 h 4.64 v -8.576 c 0,-2.464 0.832,-3.68 2.88,-3.68 1.92001,0 2.592,1.152 2.592,3.744 z"
         style=""
         id="path1196" /><path
         d="m 624.96012,88.5625 -5.952,-11.52 4.99201,-4.832 h -5.50401 l -4.128,4.096 v -10.848 l -4.64,2.176 v 20.928 h 4.64 v -7.104 l 1.216,-1.12 4.32001,8.224 z"
         style=""
         id="path1198" /><path
         d="m 629.70312,88.9465 c 1.632,0 2.91201,-1.184 2.91201,-2.784 0,-1.568 -1.28001,-2.848 -2.91201,-2.848 -1.63199,0 -2.84799,1.28 -2.84799,2.848 0,1.6 1.216,2.784 2.84799,2.784 z"
         style=""
         id="path1200" /><path
         d="m 644.25262,88.9465 c 4.672,0 8.352,-2.528 8.352,-6.88 0,-4.96 -4.38399,-6.368 -7.776,-7.456 -2.08,-0.704 -3.808,-1.248 -3.808,-2.4 0,-1.184 0.96001,-1.824 2.72001,-1.824 2.01599,0 3.072,1.024 3.67999,2.4 l 4.352,-1.408 c -0.86399,-3.168 -3.64799,-5.6 -7.776,-5.6 -4.99199,0 -7.84,2.88 -7.84,6.336 0,4.672 3.96801,5.92 7.32801,7.008 2.33599,0.736 4.256,1.344 4.256,2.912 0,1.536 -1.34401,2.304 -3.36001,2.304 -2.048,0 -3.77599,-1.472 -4.768,-3.584 l -4.352,1.632 c 1.34401,4.096 4.64,6.56 8.992,6.56 z"
         style=""
         id="path1202" /><path
         d="m 658.78363,70.6425 c 1.504,0 2.65599,-1.216 2.65599,-2.656 0,-1.472 -1.15199,-2.624 -2.65599,-2.624 -1.472,0 -2.688,1.152 -2.688,2.624 0,1.44 1.216,2.656 2.688,2.656 z m -2.336,17.92 h 4.63999 v -16.352 h -4.63999 z"
         style=""
         id="path1204" /><path
         d="m 676.02762,88.5625 h 4.64001 v -10.624 c 0,-4.768 -3.168,-6.112 -5.664,-6.112 -1.984,0 -3.456,0.704 -4.44801,1.888 v -1.504 h -4.64 v 16.352 h 4.64 v -8.576 c 0,-2.464 0.832,-3.68 2.88,-3.68 1.92001,0 2.592,1.152 2.592,3.744 z"
         style=""
         id="path1206" /><path
         d="m 700.52262,88.5625 -5.952,-11.52 4.99201,-4.832 h -5.50401 l -4.128,4.096 v -10.848 l -4.64,2.176 v 20.928 h 4.64 v -7.104 l 1.216,-1.12 4.32001,8.224 z"
         style=""
         id="path1208" /></g></g></svg>