<?xml version="1.0" encoding="UTF-8" standalone="no"?>
<!-- Created with Inkscape (http://www.inkscape.org/) -->

<svg
   xmlns:dc="http://purl.org/dc/elements/1.1/"
   xmlns:cc="http://creativecommons.org/ns#"
   xmlns:rdf="http://www.w3.org/1999/02/22-rdf-syntax-ns#"
   xmlns:svg="http://www.w3.org/2000/svg"
   xmlns="http://www.w3.org/2000/svg"
   xmlns:sodipodi="http://sodipodi.sourceforge.net/DTD/sodipodi-0.dtd"
   xmlns:inkscape="http://www.inkscape.org/namespaces/inkscape"
   width="1076.0723"
   height="435.79135"
   viewBox="0 0 284.71078 115.30313"
   version="1.1"
   id="svg8"
   inkscape:version="0.92+devel unknown"
   sodipodi:docname="storyboard-1.svg">
  <defs
     id="defs2">
    <marker
       inkscape:stockid="TriangleOutM"
       orient="auto"
       refY="0"
       refX="0"
       id="TriangleOutM"
       style="overflow:visible"
       inkscape:isstock="true">
      <path
         id="path4610"
         d="M 5.77,0 -2.88,5 V -5 Z"
         style="fill:#4c4c4c;fill-opacity:1;fill-rule:evenodd;stroke:#4c4c4c;stroke-width:1.00000003pt;stroke-opacity:1"
         transform="scale(0.4)"
         inkscape:connector-curvature="0" />
    </marker>
    <marker
       inkscape:stockid="Arrow1Send"
       orient="auto"
       refY="0"
       refX="0"
       id="Arrow1Send"
       style="overflow:visible"
       inkscape:isstock="true">
      <path
         id="path4480"
         d="M 0,0 5,-5 -12.5,0 5,5 Z"
         style="fill:#4c4c4c;fill-opacity:1;fill-rule:evenodd;stroke:#000000;stroke-width:1.00000003pt;stroke-opacity:1"
         transform="matrix(-0.2,0,0,-0.2,-1.2,0)"
         inkscape:connector-curvature="0" />
    </marker>
    <marker
       inkscape:stockid="TriangleOutM"
       orient="auto"
       refY="0"
       refX="0"
       id="TriangleOutM-7"
       style="overflow:visible"
       inkscape:isstock="true">
      <path
         inkscape:connector-curvature="0"
         id="path4610-9"
         d="M 5.77,0 -2.88,5 V -5 Z"
         style="fill:#4c4c4c;fill-opacity:1;fill-rule:evenodd;stroke:#4c4c4c;stroke-width:1.00000003pt;stroke-opacity:1"
         transform="scale(0.4)" />
    </marker>
    <marker
       inkscape:stockid="TriangleOutM"
       orient="auto"
       refY="0"
       refX="0"
       id="TriangleOutM-7-0"
       style="overflow:visible"
       inkscape:isstock="true">
      <path
         inkscape:connector-curvature="0"
         id="path4610-9-2"
         d="M 5.77,0 -2.88,5 V -5 Z"
         style="fill:#4c4c4c;fill-opacity:1;fill-rule:evenodd;stroke:#4c4c4c;stroke-width:1.00000003pt;stroke-opacity:1"
         transform="scale(0.4)" />
    </marker>
    <marker
       inkscape:stockid="TriangleOutM"
       orient="auto"
       refY="0"
       refX="0"
       id="TriangleOutM-7-7"
       style="overflow:visible"
       inkscape:isstock="true">
      <path
         inkscape:connector-curvature="0"
         id="path4610-9-5"
         d="M 5.77,0 -2.88,5 V -5 Z"
         style="fill:#4c4c4c;fill-opacity:1;fill-rule:evenodd;stroke:#4c4c4c;stroke-width:1.00000003pt;stroke-opacity:1"
         transform="scale(0.4)" />
    </marker>
  </defs>
  <sodipodi:namedview
     id="base"
     pagecolor="#ffffff"
     bordercolor="#666666"
     borderopacity="1.0"
     inkscape:pageopacity="0.0"
     inkscape:pageshadow="2"
     inkscape:zoom="1.4"
     inkscape:cx="521.72365"
     inkscape:cy="179.34528"
     inkscape:document-units="mm"
     inkscape:current-layer="layer1"
     inkscape:document-rotation="0"
     showgrid="false"
     inkscape:window-width="2556"
     inkscape:window-height="1404"
     inkscape:window-x="2"
     inkscape:window-y="2"
     inkscape:window-maximized="1"
     units="px"
     fit-margin-top="5"
     fit-margin-left="5"
     fit-margin-right="5"
     fit-margin-bottom="5" />
  <metadata
     id="metadata5">
    <rdf:RDF>
      <cc:Work
         rdf:about="">
        <dc:format>image/svg+xml</dc:format>
        <dc:type
           rdf:resource="http://purl.org/dc/dcmitype/StillImage" />
        <dc:title></dc:title>
      </cc:Work>
    </rdf:RDF>
  </metadata>
  <g
     inkscape:label="Layer 1"
     inkscape:groupmode="layer"
     id="layer1"
     transform="translate(34.221892,44.691756)">
    <path
       style="fill:none;stroke:#4c4c4c;stroke-width:1.204;stroke-linecap:butt;stroke-linejoin:miter;stroke-miterlimit:4;stroke-dasharray:none;stroke-opacity:1;marker-end:url(#TriangleOutM)"
       d="M 45.46489,26.116014 H 63.530402"
       id="path4463"
       inkscape:connector-curvature="0" />
    <path
       style="fill:none;stroke:#4c4c4c;stroke-width:1.204;stroke-linecap:butt;stroke-linejoin:miter;stroke-miterlimit:4;stroke-dasharray:none;stroke-opacity:1;marker-end:url(#TriangleOutM-7)"
       d="M 149.31619,26.116014 H 167.3817"
       id="path4463-2"
       inkscape:connector-curvature="0" />
    <path
       style="fill:none;stroke:#4c4c4c;stroke-width:1.204;stroke-linecap:butt;stroke-linejoin:miter;stroke-miterlimit:4;stroke-dasharray:none;stroke-opacity:1;marker-end:url(#TriangleOutM-7-0)"
       d="M 211.9848,-13.388801 V 4.6767038"
       id="path4463-2-3"
       inkscape:connector-curvature="0" />
    <path
       style="fill:none;stroke:#4c4c4c;stroke-width:1.204;stroke-linecap:butt;stroke-linejoin:miter;stroke-miterlimit:4;stroke-dasharray:none;stroke-opacity:1;marker-end:url(#TriangleOutM-7-7)"
       d="M 210.10741,44.290044 C 174.72665,80.765976 38.383244,72.460496 14.307407,44.819968"
       id="path4463-2-9"
       inkscape:connector-curvature="0"
       sodipodi:nodetypes="cc" />
    <flowRoot
       xml:space="preserve"
       id="flowRoot16013"
       style="font-style:normal;font-variant:normal;font-weight:800;font-stretch:normal;font-size:48px;font-family:Overpass;-inkscape-font-specification:'Overpass Ultra-Bold'"
       transform="matrix(0.26458333,0,0,0.26458333,-24.252154,-40.449511)"><flowRegion
         id="flowRegion16015"
         style="font-style:normal;font-variant:normal;font-weight:800;font-stretch:normal;font-size:48px;font-family:Overpass;-inkscape-font-specification:'Overpass Ultra-Bold'"><rect
           id="rect16017"
           width="185.42665"
           height="64.938835"
           x="16.118666"
           y="201.90265"
           style="-inkscape-font-specification:'Overpass Ultra-Bold';font-family:Overpass;font-weight:800;font-style:normal;font-stretch:normal;font-variant:normal;font-size:48.0000006px;" /></flowRegion><flowPara
         id="flowPara16019">Browser</flowPara></flowRoot>    <g
       id="g16203"
       transform="translate(0.75890071,0.19351911)">
      <rect
         ry="4.4638472"
         y="13.961379"
         x="70.193436"
         height="23.922232"
         width="74.362328"
         id="rect4267-3-2"
         style="opacity:1;fill:#92d400;stroke-width:2.5765202" />
      <g
         id="flowRoot16021"
         style="font-style:normal;font-variant:normal;font-weight:800;font-stretch:normal;font-size:42.66666794px;font-family:Overpass;-inkscape-font-specification:'Overpass Ultra-Bold';fill:#ffffff"
         transform="matrix(0.26458333,0,0,0.26458333,65.296948,18.516333)"
         aria-label="HTTP Server">
        <path
           id="path16121"
           d="m 52.549667,42.925131 h 5.76 V 13.058464 h -5.76 v 11.776 H 40.048334 v -11.776 h -5.760001 v 29.866667 h 5.760001 V 30.295798 h 12.501333 z"
           inkscape:connector-curvature="0" />
        <path
           id="path16123"
           d="m 77.495001,18.605131 h 8.533334 V 13.058464 H 63.201667 v 5.546667 h 8.533334 v 24.32 h 5.76 z"
           inkscape:connector-curvature="0" />
        <path
           id="path16125"
           d="m 103.32834,18.605131 h 8.53333 V 13.058464 H 89.035001 v 5.546667 h 8.533334 v 24.32 h 5.760005 z"
           inkscape:connector-curvature="0" />
        <path
           id="path16127"
           d="m 116.78833,42.925131 h 5.76 v -11.008 h 7.04 c 7.296,0 10.19734,-5.077333 10.19734,-9.429334 0,-4.650666 -2.64534,-9.429333 -10.19734,-9.429333 h -12.8 z m 13.056,-16.469334 h -7.296 v -7.936 h 7.296 c 3.072,0 3.968,2.261334 3.968,3.968 0,1.877334 -1.06666,3.968 -3.968,3.968 z"
           inkscape:connector-curvature="0" />
        <path
           id="path16129"
           d="m 164.60367,43.437131 c 6.05867,0 10.79467,-3.285333 10.79467,-9.088 0,-6.442667 -5.58933,-8.32 -10.02667,-9.813334 -2.944,-0.981333 -5.41866,-1.792 -5.41866,-3.669333 0,-1.834667 1.45066,-2.858667 3.968,-2.858667 2.77333,0 4.30933,1.365334 5.12,3.157334 l 5.16266,-1.706667 c -1.10933,-3.925333 -4.608,-6.912 -9.94133,-6.912 -6.44267,0 -10.112,3.754667 -10.112,8.234667 0,5.930667 5.03467,7.594667 9.38667,9.045333 3.24266,1.066667 6.05866,2.005334 6.05866,4.522667 0,2.389333 -1.92,3.626667 -4.82133,3.626667 -2.90133,0 -5.248,-1.92 -6.528,-4.693334 l -5.248,1.962667 c 1.70667,5.077334 5.97333,8.192 11.60533,8.192 z"
           inkscape:connector-curvature="0" />
        <path
           id="path16131"
           d="m 189.45567,43.437131 c 3.62666,0 6.272,-1.450666 8.10666,-3.669333 l -3.41333,-3.456 c -1.23733,1.578667 -2.688,2.261333 -4.69333,2.261333 -2.38934,0 -4.52267,-1.578667 -4.736,-4.394667 h 14.208 c 0.17066,-1.194666 0.17066,-2.432 0.17066,-3.285333 0,-6.997334 -4.26666,-10.282667 -9.64266,-10.282667 -6.22934,0 -10.19734,4.352 -10.19734,11.392 0,7.168001 3.88267,11.434667 10.19734,11.434667 z m -4.69334,-13.952 c 0.34134,-2.730667 2.09067,-4.010667 4.69334,-4.010667 2.21866,0 3.88266,1.450667 4.224,4.010667 z"
           inkscape:connector-curvature="0" />
        <path
           id="path16133"
           d="m 204.24167,42.925131 h 5.54667 v -12.16 c 0,-3.754667 1.83467,-4.693334 3.75467,-4.693334 1.70666,0 2.944,0.554667 3.968,1.280001 l 0.768,-5.077334 c -1.23734,-1.024 -2.60267,-1.664 -4.43734,-1.664 -2.176,0 -3.41333,1.066667 -4.05333,2.432 v -1.92 h -5.54667 z"
           inkscape:connector-curvature="0" />
        <path
           id="path16135"
           d="m 228.25368,42.925131 h 5.76 l 7.97866,-21.802667 h -5.71733 l -4.52267,12.928 c -0.21333,0.64 -0.42666,1.322667 -0.59733,2.005334 -0.17067,-0.682667 -0.384,-1.365334 -0.59733,-2.005334 l -4.56534,-12.928 h -5.71733 z"
           inkscape:connector-curvature="0" />
        <path
           id="path16137"
           d="m 254.95567,43.437131 c 3.62666,0 6.272,-1.450666 8.10666,-3.669333 l -3.41333,-3.456 c -1.23733,1.578667 -2.688,2.261333 -4.69333,2.261333 -2.38934,0 -4.52267,-1.578667 -4.736,-4.394667 h 14.208 c 0.17066,-1.194666 0.17066,-2.432 0.17066,-3.285333 0,-6.997334 -4.26666,-10.282667 -9.64266,-10.282667 -6.22934,0 -10.19734,4.352 -10.19734,11.392 0,7.168001 3.88267,11.434667 10.19734,11.434667 z m -4.69334,-13.952 c 0.34134,-2.730667 2.09067,-4.010667 4.69334,-4.010667 2.21866,0 3.88266,1.450667 4.224,4.010667 z"
           inkscape:connector-curvature="0" />
        <path
           id="path16139"
           d="m 269.74167,42.925131 h 5.54667 v -12.16 c 0,-3.754667 1.83467,-4.693334 3.75467,-4.693334 1.70666,0 2.944,0.554667 3.968,1.280001 l 0.768,-5.077334 c -1.23734,-1.024 -2.60267,-1.664 -4.43734,-1.664 -2.176,0 -3.41333,1.066667 -4.05333,2.432 v -1.92 h -5.54667 z"
           inkscape:connector-curvature="0" />
      </g>
    </g>
    <g
       id="g16214"
       transform="translate(0,0.07098341)">
      <rect
         ry="4.4638472"
         y="14.083915"
         x="-32.898975"
         height="23.922232"
         width="74.362328"
         id="rect4267-3-2-7"
         style="opacity:1;fill:#92d400;stroke-width:2.5765202" />
      <g
         id="flowRoot16021-3"
         style="font-style:normal;font-variant:normal;font-weight:800;font-stretch:normal;font-size:42.66666794px;font-family:Overpass;-inkscape-font-specification:'Overpass Ultra-Bold';fill:#ffffff"
         transform="matrix(0.26458333,0,0,0.26458333,-26.131752,18.571135)"
         aria-label="Browser">
        <path
           id="path16106"
           d="m 34.288333,13.058464 v 29.866667 h 13.696001 c 7.466667,0 10.112,-4.650666 10.112,-8.874667 0,-2.602666 -1.28,-5.632 -4.650667,-6.869333 2.602667,-1.237334 3.626667,-3.584 3.626667,-6.101334 0,-4.053333 -2.389333,-8.021333 -9.685334,-8.021333 z m 12.416001,11.733333 h -6.656 v -6.357333 h 7.424 c 3.157333,0 3.754667,1.621333 3.754667,3.157333 0,1.92 -1.450667,3.2 -4.522667,3.2 z m 1.578667,12.757334 h -8.234667 v -7.381333 h 7.04 c 4.224,0 5.162667,1.962666 5.162667,3.882666 0,1.578667 -0.896,3.498667 -3.968,3.498667 z"
           inkscape:connector-curvature="0" />
        <path
           id="path16108"
           d="m 63.658334,42.925131 h 5.546667 v -12.16 c 0,-3.754667 1.834667,-4.693334 3.754667,-4.693334 1.706666,0 2.944,0.554667 3.968,1.280001 l 0.768,-5.077334 c -1.237334,-1.024 -2.602667,-1.664 -4.437334,-1.664 -2.176,0 -3.413333,1.066667 -4.053333,2.432 v -1.92 h -5.546667 z"
           inkscape:connector-curvature="0" />
        <path
           id="path16110"
           d="m 89.868336,43.437131 c 6.144,0 10.026667,-4.224 10.026667,-11.392 0,-7.082667 -3.882667,-11.434667 -10.026667,-11.434667 -6.144,0 -10.026667,4.352 -10.026667,11.434667 0,7.168 3.882667,11.392 10.026667,11.392 z m 0,-5.333333 c -2.730667,0 -4.48,-2.261334 -4.48,-6.058667 0,-3.797333 1.749333,-6.101334 4.48,-6.101334 2.816,0 4.48,2.304001 4.48,6.101334 0,3.797333 -1.664,6.058667 -4.48,6.058667 z"
           inkscape:connector-curvature="0" />
        <path
           id="path16112"
           d="m 109.38634,42.925131 h 4.90667 l 2.77333,-10.88 c 0.17067,-0.725333 0.59733,-2.304 0.72533,-3.242667 0.128,0.938667 0.55467,2.517334 0.72534,3.242667 l 2.77333,10.88 h 4.90667 l 6.144,-21.802667 h -5.46134 l -2.64533,10.624 c -0.21333,0.810667 -0.384,2.048 -0.55467,2.858667 -0.17066,-0.810667 -0.42666,-2.048 -0.64,-2.858667 l -2.73066,-10.624 h -5.03467 l -2.77333,10.624 c -0.21334,0.810667 -0.46934,2.048 -0.64,2.858667 -0.17067,-0.810667 -0.34134,-2.048 -0.55467,-2.858667 l -2.56,-10.624 h -5.46133 z"
           inkscape:connector-curvature="0" />
        <path
           id="path16114"
           d="m 144.03567,43.437131 c 5.16266,0 8.53333,-2.346666 8.53333,-6.613333 0,-4.352 -3.41333,-6.016 -7.168,-7.253334 -2.26133,-0.682666 -4.26667,-1.493333 -4.26667,-2.645333 0,-1.066667 1.10934,-1.621334 2.77334,-1.621334 1.70666,0 2.944,0.597334 4.26666,1.834667 l 3.712,-3.029333 c -1.57866,-1.834667 -4.18133,-3.498667 -7.97866,-3.498667 -4.352,0 -7.936,2.176 -7.936,6.144 0,3.797334 2.60266,5.546667 7.46666,7.168 2.51734,0.981334 3.968,1.578667 3.968,2.901334 0,1.408 -1.36533,1.92 -3.28533,1.92 -2.304,0 -4.224,-1.450667 -5.12,-2.346667 l -3.66933,3.114667 c 1.70666,2.389333 5.16266,3.925333 8.704,3.925333 z"
           inkscape:connector-curvature="0" />
        <path
           id="path16116"
           d="m 166.789,43.437131 c 3.62667,0 6.272,-1.450666 8.10667,-3.669333 l -3.41333,-3.456 c -1.23734,1.578667 -2.688,2.261333 -4.69334,2.261333 -2.38933,0 -4.52266,-1.578667 -4.736,-4.394667 h 14.208 c 0.17067,-1.194666 0.17067,-2.432 0.17067,-3.285333 0,-6.997334 -4.26667,-10.282667 -9.64267,-10.282667 -6.22933,0 -10.19733,4.352 -10.19733,11.392 0,7.168001 3.88267,11.434667 10.19733,11.434667 z m -4.69333,-13.952 c 0.34133,-2.730667 2.09067,-4.010667 4.69333,-4.010667 2.21867,0 3.88267,1.450667 4.224,4.010667 z"
           inkscape:connector-curvature="0" />
        <path
           id="path16118"
           d="m 181.575,42.925131 h 5.54667 v -12.16 c 0,-3.754667 1.83466,-4.693334 3.75466,-4.693334 1.70667,0 2.944,0.554667 3.968,1.280001 l 0.768,-5.077334 c -1.23733,-1.024 -2.60266,-1.664 -4.43733,-1.664 -2.176,0 -3.41333,1.066667 -4.05333,2.432 v -1.92 H 181.575 Z"
           inkscape:connector-curvature="0" />
      </g>
    </g>
    <g
       id="g16189"
       transform="translate(0,0.55554437)">
      <rect
         ry="4.4638472"
         y="13.599354"
         x="174.80363"
         height="23.922232"
         width="74.362328"
         id="rect4267-3-2-9"
         style="opacity:1;fill:#f0ab00;stroke-width:2.5765202" />
      <g
         id="flowRoot16021-31"
         style="font-style:normal;font-variant:normal;font-weight:800;font-stretch:normal;font-size:42.66666794px;font-family:Overpass;-inkscape-font-specification:'Overpass Ultra-Bold';fill:#ffffff"
         transform="matrix(0.26458333,0,0,0.26458333,178.79378,17.183464)"
         aria-label="Analytics">
        <path
           id="path16142"
           d="m 54.555001,42.925131 h 6.186667 L 49.307001,13.058464 H 43.675 L 32.240333,42.925131 H 38.427 l 2.304,-6.186667 H 52.251001 Z M 50.373667,31.490464 h -7.765333 l 2.944,-7.765333 c 0.298666,-0.768 0.725333,-1.92 0.938666,-2.688 0.213334,0.768 0.64,1.92 0.938667,2.688 z"
           inkscape:connector-curvature="0" />
        <path
           id="path16144"
           d="m 78.807667,42.925131 h 5.546667 V 29.186464 c 0,-6.528 -3.882667,-8.576 -7.637334,-8.576 -2.56,0 -4.48,0.896 -5.845333,2.56 v -2.048 H 65.325 v 21.802667 h 5.546667 v -12.032 c 0,-3.456 1.450667,-4.949334 4.138667,-4.949334 2.56,0 3.797333,1.493334 3.797333,5.034667 z"
           inkscape:connector-curvature="0" />
        <path
           id="path16146"
           d="m 102.94833,42.925131 h 5.46134 V 29.015798 c 0,-7.424001 -4.992,-8.405334 -8.917336,-8.405334 -3.754667,0 -6.826667,1.152 -8.917334,2.56 l 1.706667,4.48 c 2.048,-1.408 4.181333,-2.176 6.741333,-2.176 2.51733,0 3.92533,1.066667 3.92533,3.456 v 1.109334 c -1.32266,-0.64 -2.90133,-1.024 -4.991996,-1.024 -4.309334,0 -8.661334,2.176 -8.661334,7.210666 0,4.778667 3.498667,7.210667 8.021334,7.210667 2.858666,0 4.607996,-1.066666 5.631996,-2.090666 z m -4.56533,-4.352 c -2.389333,0 -3.669333,-0.938667 -3.669333,-2.346667 0,-1.792 1.877333,-2.517333 4.181333,-2.517333 1.49333,0 2.90133,0.256 4.05333,0.725333 v 2.346667 c -1.06666,0.981334 -2.56,1.792 -4.56533,1.792 z"
           inkscape:connector-curvature="0" />
        <path
           id="path16148"
           d="m 114.62167,42.925131 h 5.54667 V 12.119797 l -5.54667,2.602667 z"
           inkscape:connector-curvature="0" />
        <path
           id="path16150"
           d="m 129.47234,51.202465 h 5.76 l 11.56267,-30.080001 h -5.67467 l -4.77867,12.586667 c -0.21333,0.64 -0.46933,1.322667 -0.64,2.005333 -0.17066,-0.682666 -0.384,-1.365333 -0.64,-2.005333 l -4.77866,-12.586667 h -5.67467 l 8.192,21.504001 z"
           inkscape:connector-curvature="0" />
        <path
           id="path16152"
           d="m 157.56033,43.437131 c 1.83467,0 3.41334,-0.341333 4.736,-0.981333 l 0.64,-4.821334 c -1.23733,0.640001 -2.432,0.938667 -3.584,0.938667 -0.98133,0 -1.536,-0.64 -1.536,-1.706667 v -10.88 h 4.864 v -4.864 h -4.864 v -9.002667 l -5.54666,2.645333 v 6.357334 H 149.155 v 4.864 h 3.11467 v 11.690667 c 0,3.626667 1.536,5.76 5.29066,5.76 z"
           inkscape:connector-curvature="0" />
        <path
           id="path16154"
           d="m 170.641,18.562464 c 1.83467,0 3.24267,-1.450667 3.24267,-3.242667 0,-1.792 -1.408,-3.2 -3.24267,-3.2 -1.792,0 -3.24267,1.408 -3.24267,3.2 0,1.792 1.45067,3.242667 3.24267,3.242667 z m -2.77333,24.362667 h 5.54666 V 21.122464 h -5.54666 z"
           inkscape:connector-curvature="0" />
        <path
           id="path16156"
           d="m 188.69967,43.437131 c 4.736,0 7.808,-2.304 9.13066,-6.912 l -5.29066,-1.578667 c -0.64,2.048 -1.96267,3.157334 -3.84,3.157334 -2.56,0 -4.30934,-2.346667 -4.30934,-6.058667 0,-3.669333 1.74934,-6.101334 4.43734,-6.101334 1.74933,0 3.02933,1.152001 3.66933,2.816001 l 5.29067,-1.749334 c -1.408,-4.437333 -4.65067,-6.4 -9.088,-6.4 -6.016,0 -9.94134,4.352 -9.94134,11.434667 0,7.168 3.92534,11.392 9.94134,11.392 z"
           inkscape:connector-curvature="0" />
        <path
           id="path16158"
           d="m 210.11901,43.437131 c 5.16267,0 8.53333,-2.346666 8.53333,-6.613333 0,-4.352 -3.41333,-6.016 -7.168,-7.253334 -2.26133,-0.682666 -4.26666,-1.493333 -4.26666,-2.645333 0,-1.066667 1.10933,-1.621334 2.77333,-1.621334 1.70667,0 2.944,0.597334 4.26667,1.834667 l 3.712,-3.029333 c -1.57867,-1.834667 -4.18134,-3.498667 -7.97867,-3.498667 -4.352,0 -7.936,2.176 -7.936,6.144 0,3.797334 2.60267,5.546667 7.46667,7.168 2.51733,0.981334 3.968,1.578667 3.968,2.901334 0,1.408 -1.36534,1.92 -3.28534,1.92 -2.304,0 -4.224,-1.450667 -5.12,-2.346667 l -3.66933,3.114667 c 1.70667,2.389333 5.16267,3.925333 8.704,3.925333 z"
           inkscape:connector-curvature="0" />
      </g>
    </g>
    <g
       id="g16176"
       transform="translate(5.2582855)">
      <rect
         ry="4.4638472"
         y="-43.368839"
         x="169.54535"
         height="23.922232"
         width="74.362328"
         id="rect4267-3-2-8"
         style="opacity:1;fill:#00b9e4;stroke-width:2.5765202" />
      <g
         id="flowRoot16021-4"
         style="font-style:normal;font-variant:normal;font-weight:800;font-stretch:normal;font-size:42.66666794px;font-family:Overpass;-inkscape-font-specification:'Overpass Ultra-Bold';opacity:1;fill:#ffffff"
         transform="matrix(0.26458333,0,0,0.26458333,186.02975,-38.75744)"
         aria-label="Data">
        <path
           id="path16161"
           d="M 34.288333,13.058464 V 42.925131 H 44.187 c 10.965334,0 14.634667,-8.106667 14.634667,-14.933333 0,-7.424001 -4.010666,-14.933334 -14.464,-14.933334 z M 44.869667,37.463798 H 40.048334 V 18.519797 H 45.339 c 5.248001,0 7.509334,4.821334 7.509334,9.472001 0,4.394666 -2.090667,9.472 -7.978667,9.472 z"
           inkscape:connector-curvature="0" />
        <path
           id="path16163"
           d="m 76.365002,42.925131 h 5.461333 V 29.015798 c 0,-7.424001 -4.992,-8.405334 -8.917333,-8.405334 -3.754667,0 -6.826667,1.152 -8.917334,2.56 l 1.706667,4.48 c 2.048,-1.408 4.181333,-2.176 6.741333,-2.176 2.517334,0 3.925334,1.066667 3.925334,3.456 v 1.109334 c -1.322667,-0.64 -2.901334,-1.024 -4.992,-1.024 -4.309334,0 -8.661334,2.176 -8.661334,7.210666 0,4.778667 3.498667,7.210667 8.021334,7.210667 2.858666,0 4.608,-1.066666 5.632,-2.090666 z m -4.565334,-4.352 c -2.389333,0 -3.669333,-0.938667 -3.669333,-2.346667 0,-1.792 1.877333,-2.517333 4.181333,-2.517333 1.493334,0 2.901334,0.256 4.053334,0.725333 v 2.346667 c -1.066667,0.981334 -2.56,1.792 -4.565334,1.792 z"
           inkscape:connector-curvature="0" />
        <path
           id="path16165"
           d="m 94.310334,43.437131 c 1.834666,0 3.413333,-0.341333 4.736,-0.981333 l 0.64,-4.821334 c -1.237334,0.640001 -2.432,0.938667 -3.584,0.938667 -0.981334,0 -1.536,-0.64 -1.536,-1.706667 v -10.88 h 4.864 v -4.864 h -4.864 v -9.002667 l -5.546667,2.645333 v 6.357334 H 85.905 v 4.864 h 3.114667 v 11.690667 c 0,3.626667 1.536,5.76 5.290667,5.76 z"
           inkscape:connector-curvature="0" />
        <path
           id="path16167"
           d="m 116.69833,42.925131 h 5.46134 V 29.015798 c 0,-7.424001 -4.992,-8.405334 -8.91734,-8.405334 -3.75466,0 -6.82666,1.152 -8.91733,2.56 l 1.70667,4.48 c 2.048,-1.408 4.18133,-2.176 6.74133,-2.176 2.51733,0 3.92533,1.066667 3.92533,3.456 v 1.109334 c -1.32266,-0.64 -2.90133,-1.024 -4.992,-1.024 -4.30933,0 -8.66133,2.176 -8.66133,7.210666 0,4.778667 3.49867,7.210667 8.02133,7.210667 2.85867,0 4.608,-1.066666 5.632,-2.090666 z m -4.56533,-4.352 c -2.38933,0 -3.66933,-0.938667 -3.66933,-2.346667 0,-1.792 1.87733,-2.517333 4.18133,-2.517333 1.49333,0 2.90133,0.256 4.05333,0.725333 v 2.346667 c -1.06666,0.981334 -2.56,1.792 -4.56533,1.792 z"
           inkscape:connector-curvature="0" />
      </g>
    </g>
  </g>
</svg>
