<?xml version="1.0" encoding="UTF-8" standalone="no"?>
<!-- Created with Inkscape (http://www.inkscape.org/) -->

<svg
   xmlns:dc="http://purl.org/dc/elements/1.1/"
   xmlns:cc="http://creativecommons.org/ns#"
   xmlns:rdf="http://www.w3.org/1999/02/22-rdf-syntax-ns#"
   xmlns:svg="http://www.w3.org/2000/svg"
   xmlns="http://www.w3.org/2000/svg"
   xmlns:sodipodi="http://sodipodi.sourceforge.net/DTD/sodipodi-0.dtd"
   xmlns:inkscape="http://www.inkscape.org/namespaces/inkscape"
   width="173mm"
   height="132.62057mm"
   viewBox="0 0 173 132.62058"
   version="1.1"
   id="svg8"
   inkscape:version="0.92.2 (5c3e80d, 2017-08-06)"
   sodipodi:docname="stream-processing-kappa.svg">
  <defs
     id="defs2">
    <marker
       inkscape:stockid="Arrow2Lend"
       orient="auto"
       refY="0"
       refX="0"
       id="Arrow2Lend"
       style="overflow:visible"
       inkscape:isstock="true">
      <path
         id="path2103"
         style="fill:#bebebe;fill-opacity:1;fill-rule:evenodd;stroke:#bebebe;stroke-width:0.625;stroke-linejoin:round;stroke-opacity:1"
         d="M 8.7185878,4.0337352 -2.2072895,0.01601326 8.7185884,-4.0017078 c -1.7454984,2.3720609 -1.7354408,5.6174519 -6e-7,8.035443 z"
         transform="matrix(-1.1,0,0,-1.1,-1.1,0)"
         inkscape:connector-curvature="0" />
    </marker>
    <marker
       inkscape:stockid="Arrow1Lend"
       orient="auto"
       refY="0"
       refX="0"
       id="marker2979"
       style="overflow:visible"
       inkscape:isstock="true">
      <path
         id="path2977"
         d="M 0,0 5,-5 -12.5,0 5,5 Z"
         style="fill:#004153;fill-opacity:1;fill-rule:evenodd;stroke:#004153;stroke-width:1.00000003pt;stroke-opacity:1"
         transform="matrix(-0.8,0,0,-0.8,-10,0)"
         inkscape:connector-curvature="0" />
    </marker>
    <marker
       inkscape:stockid="Arrow1Lend"
       orient="auto"
       refY="0"
       refX="0"
       id="marker2951"
       style="overflow:visible"
       inkscape:isstock="true">
      <path
         id="path2949"
         d="M 0,0 5,-5 -12.5,0 5,5 Z"
         style="fill:#004153;fill-opacity:1;fill-rule:evenodd;stroke:#004153;stroke-width:1.00000003pt;stroke-opacity:1"
         transform="matrix(-0.8,0,0,-0.8,-10,0)"
         inkscape:connector-curvature="0" />
    </marker>
    <marker
       inkscape:stockid="Arrow1Lend"
       orient="auto"
       refY="0"
       refX="0"
       id="Arrow1Lend"
       style="overflow:visible"
       inkscape:isstock="true">
      <path
         id="path2085"
         d="M 0,0 5,-5 -12.5,0 5,5 Z"
         style="fill:#004153;fill-opacity:1;fill-rule:evenodd;stroke:#004153;stroke-width:1.00000003pt;stroke-opacity:1"
         transform="matrix(-0.8,0,0,-0.8,-10,0)"
         inkscape:connector-curvature="0" />
    </marker>
    <marker
       inkscape:stockid="Arrow2Lend"
       orient="auto"
       refY="0"
       refX="0"
       id="Arrow2Lend-2"
       style="overflow:visible"
       inkscape:isstock="true">
      <path
         inkscape:connector-curvature="0"
         id="path2103-7"
         style="fill:#bebebe;fill-opacity:1;fill-rule:evenodd;stroke:#bebebe;stroke-width:0.625;stroke-linejoin:round;stroke-opacity:1"
         d="M 8.7185878,4.0337352 -2.2072895,0.01601326 8.7185884,-4.0017078 c -1.7454984,2.3720609 -1.7354408,5.6174519 -6e-7,8.035443 z"
         transform="matrix(-1.1,0,0,-1.1,-1.1,0)" />
    </marker>
    <marker
       inkscape:isstock="true"
       style="overflow:visible"
       id="TriangleOutS"
       refX="0"
       refY="0"
       orient="auto"
       inkscape:stockid="TriangleOutS">
      <path
         inkscape:connector-curvature="0"
         transform="scale(0.2)"
         style="fill:#0088ce;fill-opacity:1;fill-rule:evenodd;stroke:#0088ce;stroke-width:1.00000003pt;stroke-opacity:1"
         d="M 5.77,0 -2.88,5 V -5 Z"
         id="path3046" />
    </marker>
    <marker
       inkscape:isstock="true"
       style="overflow:visible"
       id="TriangleInS"
       refX="0"
       refY="0"
       orient="auto"
       inkscape:stockid="TriangleInS">
      <path
         inkscape:connector-curvature="0"
         transform="scale(-0.2)"
         style="fill:#0088ce;fill-opacity:1;fill-rule:evenodd;stroke:#0088ce;stroke-width:1.00000003pt;stroke-opacity:1"
         d="M 5.77,0 -2.88,5 V -5 Z"
         id="path3037" />
    </marker>
    <marker
       inkscape:isstock="true"
       style="overflow:visible"
       id="TriangleOutM"
       refX="0"
       refY="0"
       orient="auto"
       inkscape:stockid="TriangleOutM">
      <path
         inkscape:connector-curvature="0"
         transform="scale(0.4)"
         style="fill:#0088ce;fill-opacity:1;fill-rule:evenodd;stroke:#0088ce;stroke-width:1.00000003pt;stroke-opacity:1"
         d="M 5.77,0 -2.88,5 V -5 Z"
         id="path3043" />
    </marker>
    <marker
       inkscape:isstock="true"
       style="overflow:visible"
       id="TriangleOutL"
       refX="0"
       refY="0"
       orient="auto"
       inkscape:stockid="TriangleOutL">
      <path
         inkscape:connector-curvature="0"
         transform="scale(0.8)"
         style="fill:#0088ce;fill-opacity:1;fill-rule:evenodd;stroke:#0088ce;stroke-width:1.00000003pt;stroke-opacity:1"
         d="M 5.77,0 -2.88,5 V -5 Z"
         id="path3040" />
    </marker>
    <marker
       inkscape:isstock="true"
       style="overflow:visible"
       id="Arrow1Sstart"
       refX="0"
       refY="0"
       orient="auto"
       inkscape:stockid="Arrow1Sstart">
      <path
         inkscape:connector-curvature="0"
         transform="matrix(0.2,0,0,0.2,1.2,0)"
         style="fill:#0088ce;fill-opacity:1;fill-rule:evenodd;stroke:#0088ce;stroke-width:1.00000003pt;stroke-opacity:1"
         d="M 0,0 5,-5 -12.5,0 5,5 Z"
         id="path2910" />
    </marker>
    <marker
       inkscape:stockid="Arrow2Lend"
       orient="auto"
       refY="0"
       refX="0"
       id="Arrow2Lend-6"
       style="overflow:visible"
       inkscape:isstock="true">
      <path
         id="path2103-2"
         style="fill:#bebebe;fill-opacity:1;fill-rule:evenodd;stroke:#bebebe;stroke-width:0.625;stroke-linejoin:round;stroke-opacity:1"
         d="M 8.7185878,4.0337352 -2.2072895,0.01601326 8.7185884,-4.0017078 c -1.7454984,2.3720609 -1.7354408,5.6174519 -6e-7,8.035443 z"
         transform="matrix(-1.1,0,0,-1.1,-1.1,0)"
         inkscape:connector-curvature="0" />
    </marker>
    <marker
       inkscape:stockid="Arrow2Lend"
       orient="auto"
       refY="0"
       refX="0"
       id="Arrow2Lend-7"
       style="overflow:visible"
       inkscape:isstock="true">
      <path
         id="path2103-9"
         style="fill:#bebebe;fill-opacity:1;fill-rule:evenodd;stroke:#bebebe;stroke-width:0.625;stroke-linejoin:round;stroke-opacity:1"
         d="M 8.7185878,4.0337352 -2.2072895,0.01601326 8.7185884,-4.0017078 c -1.7454984,2.3720609 -1.7354408,5.6174519 -6e-7,8.035443 z"
         transform="matrix(-1.1,0,0,-1.1,-1.1,0)"
         inkscape:connector-curvature="0" />
    </marker>
    <marker
       inkscape:isstock="true"
       style="overflow:visible"
       id="TriangleOutS-0"
       refX="0"
       refY="0"
       orient="auto"
       inkscape:stockid="TriangleOutS">
      <path
         inkscape:connector-curvature="0"
         transform="scale(0.2)"
         style="fill:#0088ce;fill-opacity:1;fill-rule:evenodd;stroke:#0088ce;stroke-width:1.00000003pt;stroke-opacity:1"
         d="M 5.77,0 -2.88,5 V -5 Z"
         id="path3046-9" />
    </marker>
  </defs>
  <sodipodi:namedview
     id="base"
     pagecolor="#ffffff"
     bordercolor="#666666"
     borderopacity="1.0"
     inkscape:pageopacity="0.0"
     inkscape:pageshadow="2"
     inkscape:zoom="1.979899"
     inkscape:cx="323.60246"
     inkscape:cy="236.25436"
     inkscape:document-units="mm"
     inkscape:current-layer="layer1"
     showgrid="false"
     fit-margin-top="0"
     fit-margin-left="0"
     fit-margin-right="0"
     fit-margin-bottom="0"
     inkscape:window-width="2552"
     inkscape:window-height="1400"
     inkscape:window-x="4"
     inkscape:window-y="4"
     inkscape:window-maximized="1" />
  <metadata
     id="metadata5">
    <rdf:RDF>
      <cc:Work
         rdf:about="">
        <dc:format>image/svg+xml</dc:format>
        <dc:type
           rdf:resource="http://purl.org/dc/dcmitype/StillImage" />
        <dc:title></dc:title>
      </cc:Work>
    </rdf:RDF>
  </metadata>
  <g
     inkscape:label="Layer 1"
     inkscape:groupmode="layer"
     id="layer1"
     transform="translate(-6.7465067,-4.3134481)">
    <g
       id="g1137"
       transform="translate(-34.746576,3.3192386)">
      <rect
         ry="1.9291365"
         y="48.937702"
         x="116.41667"
         height="29.781048"
         width="40.632435"
         id="rect874"
         style="opacity:1;fill:#f0ab00;fill-opacity:1;stroke:none;stroke-width:0.63798219;stroke-miterlimit:4;stroke-dasharray:1.27596436, 0.63798218;stroke-dashoffset:0;stroke-opacity:1" />
      <g
         transform="matrix(0.31726918,0,0,0.31726918,113.88978,40.984912)"
         id="g1104">
        <g
           style="display:none"
           id="button"
           display="none">
          <circle
             style="display:inline;fill:#dcdcdc"
             display="inline"
             cx="72"
             cy="72"
             r="54"
             id="circle1012" />
        </g>
        <g
           style="display:none"
           id="template"
           display="none">
          <circle
             style="display:inline;fill:none;stroke:#ffffff;stroke-width:0.25;stroke-miterlimit:10"
             display="inline"
             stroke-miterlimit="10"
             cx="72"
             cy="72"
             r="36"
             id="circle1015" />
          <g
             style="display:inline"
             display="inline"
             id="g1019">
            <circle
               style="fill:none;stroke:#ffffff;stroke-width:0.25;stroke-linecap:round;stroke-miterlimit:10;stroke-dasharray:1.9875, 1.9875"
               stroke-miterlimit="10"
               cx="72"
               cy="72"
               r="40.5"
               id="circle1017" />
          </g>
          <line
             style="display:inline;fill:none;stroke:#ffffff;stroke-width:0.25;stroke-miterlimit:10"
             display="inline"
             stroke-miterlimit="10"
             x1="72"
             y1="18"
             x2="72"
             y2="126"
             id="line1021" />
          <line
             style="display:inline;fill:none;stroke:#ffffff;stroke-width:0.25;stroke-miterlimit:10"
             display="inline"
             stroke-miterlimit="10"
             x1="126"
             y1="72"
             x2="18"
             y2="72"
             id="line1023" />
          <line
             style="display:inline;fill:none;stroke:#ffffff;stroke-width:0.25;stroke-miterlimit:10"
             display="inline"
             stroke-miterlimit="10"
             x1="110.184"
             y1="33.816002"
             x2="33.816002"
             y2="110.184"
             id="line1025" />
          <line
             style="display:inline;fill:none;stroke:#ffffff;stroke-width:0.25;stroke-miterlimit:10"
             display="inline"
             stroke-miterlimit="10"
             x1="110.184"
             y1="110.184"
             x2="33.816002"
             y2="33.816002"
             id="line1027" />
        </g>
        <g
           id="icon">
          <g
             id="g1064">
            <path
               style="fill:#ffffff"
               inkscape:connector-curvature="0"
               d="m 75.875,104.217 c -1.006,0.142 -2.033,0.239 -3.053,0.287 -0.433,0.021 -0.768,0.389 -0.747,0.822 0.02,0.42 0.367,0.748 0.784,0.748 0.013,0 0.025,0 0.038,-0.001 1.067,-0.051 2.143,-0.153 3.198,-0.301 0.429,-0.061 0.728,-0.458 0.668,-0.887 -0.061,-0.429 -0.448,-0.733 -0.888,-0.668 z"
               id="path1030" />
            <path
               style="fill:#ffffff"
               inkscape:connector-curvature="0"
               d="m 69.755,104.508 c -1.018,-0.045 -2.046,-0.139 -3.053,-0.278 -0.427,-0.064 -0.826,0.24 -0.885,0.67 -0.059,0.429 0.241,0.826 0.671,0.885 1.056,0.146 2.132,0.244 3.198,0.291 0.012,0.001 0.024,0.001 0.036,0.001 0.418,0 0.765,-0.329 0.784,-0.75 0.018,-0.432 -0.317,-0.8 -0.751,-0.819 z"
               id="path1032" />
            <path
               style="fill:#ffffff"
               inkscape:connector-curvature="0"
               d="m 81.838,102.803 c -0.971,0.327 -1.963,0.611 -2.948,0.845 -0.423,0.1 -0.683,0.523 -0.583,0.945 0.085,0.361 0.407,0.604 0.763,0.604 0.06,0 0.121,-0.007 0.182,-0.021 1.033,-0.245 2.072,-0.542 3.088,-0.885 0.411,-0.138 0.632,-0.583 0.493,-0.995 -0.139,-0.409 -0.58,-0.634 -0.995,-0.493 z"
               id="path1034" />
            <path
               style="fill:#ffffff"
               inkscape:connector-curvature="0"
               d="m 50.038,96.957 c -0.335,-0.274 -0.829,-0.225 -1.105,0.109 -0.275,0.336 -0.227,0.83 0.109,1.106 0.825,0.676 1.691,1.323 2.575,1.921 0.135,0.091 0.288,0.135 0.439,0.135 0.252,0 0.499,-0.121 0.651,-0.345 0.243,-0.359 0.149,-0.847 -0.21,-1.09 -0.844,-0.572 -1.671,-1.19 -2.459,-1.836 z"
               id="path1036" />
            <path
               style="fill:#ffffff"
               inkscape:connector-curvature="0"
               d="m 63.685,103.674 c -0.991,-0.231 -1.985,-0.51 -2.953,-0.83 -0.414,-0.137 -0.856,0.087 -0.992,0.498 -0.137,0.412 0.087,0.856 0.498,0.992 1.014,0.336 2.054,0.628 3.092,0.869 0.06,0.015 0.119,0.021 0.178,0.021 0.357,0 0.68,-0.245 0.764,-0.607 0.098,-0.423 -0.165,-0.846 -0.587,-0.943 z"
               id="path1038" />
            <path
               style="fill:#ffffff"
               inkscape:connector-curvature="0"
               d="m 45.681,92.648 c -0.278,-0.334 -0.774,-0.375 -1.107,-0.097 -0.332,0.278 -0.375,0.774 -0.097,1.106 0.684,0.816 1.417,1.61 2.177,2.363 0.153,0.151 0.353,0.227 0.552,0.227 0.202,0 0.404,-0.077 0.558,-0.233 0.305,-0.308 0.303,-0.805 -0.006,-1.11 -0.724,-0.718 -1.424,-1.477 -2.077,-2.256 z"
               id="path1040" />
            <path
               style="fill:#ffffff"
               inkscape:connector-curvature="0"
               d="m 87.443,100.321 c -0.404,0.224 -0.814,0.442 -1.232,0.651 -0.501,0.253 -1.007,0.492 -1.516,0.718 -0.396,0.176 -0.575,0.64 -0.4,1.036 0.13,0.293 0.417,0.467 0.719,0.467 0.106,0 0.214,-0.021 0.318,-0.068 0.532,-0.236 1.062,-0.486 1.586,-0.75 0.436,-0.22 0.864,-0.447 1.287,-0.682 0.379,-0.21 0.516,-0.688 0.305,-1.067 -0.21,-0.38 -0.687,-0.518 -1.067,-0.305 z"
               id="path1042" />
            <path
               style="fill:#ffffff"
               inkscape:connector-curvature="0"
               d="m 57.868,101.748 c -0.935,-0.409 -1.861,-0.864 -2.754,-1.355 -0.38,-0.209 -0.857,-0.071 -1.066,0.309 -0.209,0.38 -0.071,0.858 0.309,1.067 0.934,0.514 1.904,0.991 2.882,1.418 0.102,0.045 0.209,0.066 0.314,0.066 0.302,0 0.591,-0.176 0.72,-0.471 0.174,-0.398 -0.008,-0.861 -0.405,-1.034 z"
               id="path1044" />
            <path
               style="fill:#ffffff"
               inkscape:connector-curvature="0"
               d="m 96.847,92.537 c -0.651,0.782 -1.347,1.544 -2.07,2.264 -0.307,0.306 -0.307,0.803 -0.001,1.11 0.153,0.154 0.354,0.231 0.556,0.231 0.201,0 0.401,-0.077 0.554,-0.229 0.757,-0.755 1.487,-1.553 2.168,-2.372 0.278,-0.333 0.232,-0.828 -0.101,-1.106 -0.333,-0.276 -0.828,-0.231 -1.106,0.102 z"
               id="path1046" />
            <path
               style="fill:#ffffff"
               inkscape:connector-curvature="0"
               d="m 92.504,96.865 c -0.782,0.647 -1.607,1.268 -2.452,1.845 -0.358,0.245 -0.451,0.733 -0.206,1.091 0.152,0.223 0.399,0.343 0.65,0.343 0.153,0 0.307,-0.044 0.442,-0.136 0.886,-0.604 1.75,-1.254 2.569,-1.932 0.334,-0.277 0.38,-0.771 0.104,-1.106 -0.279,-0.336 -0.774,-0.382 -1.107,-0.105 z"
               id="path1048" />
            <path
               style="fill:#ffffff"
               inkscape:connector-curvature="0"
               d="m 105.123,75.26 c -0.431,-0.071 -0.827,0.235 -0.889,0.664 -0.147,1.012 -0.341,2.026 -0.578,3.012 -0.101,0.422 0.159,0.846 0.58,0.947 0.061,0.015 0.124,0.021 0.184,0.021 0.354,0 0.676,-0.242 0.763,-0.602 0.248,-1.033 0.451,-2.094 0.604,-3.153 0.063,-0.429 -0.234,-0.827 -0.664,-0.889 z"
               id="path1050" />
            <path
               style="fill:#ffffff"
               inkscape:connector-curvature="0"
               d="m 101.383,87.183 c -0.379,-0.211 -0.857,-0.076 -1.068,0.303 -0.495,0.886 -1.039,1.763 -1.618,2.606 -0.245,0.357 -0.155,0.847 0.202,1.092 0.136,0.094 0.291,0.138 0.444,0.138 0.25,0 0.495,-0.119 0.648,-0.34 0.606,-0.883 1.176,-1.801 1.695,-2.73 0.212,-0.38 0.076,-0.859 -0.303,-1.069 z"
               id="path1052" />
            <path
               style="fill:#ffffff"
               inkscape:connector-curvature="0"
               d="m 103.8,81.392 c -0.411,-0.139 -0.856,0.082 -0.996,0.492 -0.327,0.968 -0.703,1.929 -1.116,2.858 -0.176,0.396 0.002,0.86 0.399,1.037 0.104,0.046 0.212,0.068 0.318,0.068 0.301,0 0.588,-0.173 0.719,-0.466 0.432,-0.972 0.826,-1.979 1.169,-2.991 0.138,-0.413 -0.082,-0.859 -0.493,-0.998 z"
               id="path1054" />
            <path
               style="fill:#ffffff"
               inkscape:connector-curvature="0"
               d="m 105.369,70.832 c -0.438,0 -0.791,0.34 -0.797,0.774 -0.006,0.422 -0.019,0.845 -0.041,1.266 -0.022,0.433 0.311,0.803 0.744,0.825 0.014,10e-4 0.028,10e-4 0.041,10e-4 0.415,0 0.761,-0.325 0.784,-0.745 0.022,-0.441 0.037,-0.883 0.043,-1.325 0.006,-0.433 -0.34,-0.789 -0.774,-0.796 z"
               id="path1056" />
            <path
               style="fill:#ffffff"
               inkscape:connector-curvature="0"
               d="m 87.423,42.908 -1.873,2.578 c -0.099,0.136 -0.123,0.316 -0.062,0.475 0.061,0.158 0.199,0.275 0.365,0.308 l 9.684,1.993 c 0.192,0.039 0.389,-0.037 0.506,-0.195 l 10e-4,-10e-4 c 0.115,-0.158 0.128,-0.368 0.031,-0.536 l -4.83,-8.675 c -0.084,-0.15 -0.236,-0.246 -0.407,-0.256 -0.171,-0.011 -0.335,0.067 -0.435,0.205 l -2.044,2.813 C 74.606,34.725 57.901,37.646 47.28,48.958 36.743,60.182 34.826,77.283 42.619,90.545 c 0.146,0.248 0.409,0.387 0.678,0.387 0.135,0 0.272,-0.035 0.397,-0.108 0.374,-0.22 0.499,-0.701 0.279,-1.075 C 36.531,77.085 38.362,60.752 48.425,50.033 58.51,39.294 74.335,36.474 87.423,42.908 Z"
               id="path1058" />
            <path
               style="fill:#ffffff"
               inkscape:connector-curvature="0"
               d="m 90.775,73.374 c 0.01,-0.17 0.077,-1.361 0.077,-1.998 0,-0.57 -0.06,-1.388 -0.089,-1.782 l -0.011,-0.161 c -0.037,-0.582 -0.548,-1.103 -1.011,-1.299 -0.148,-0.063 -0.333,-0.141 -3.965,-0.424 -0.35,-1.266 -0.868,-2.47 -1.547,-3.59 2.158,-2.532 2.224,-2.699 2.28,-2.842 0.189,-0.464 0.182,-1.194 -0.202,-1.63 l -0.113,-0.13 c -0.262,-0.303 -0.79,-0.915 -1.191,-1.316 -0.469,-0.468 -1.421,-1.318 -1.537,-1.417 -0.119,-0.088 -0.547,-0.375 -1.092,-0.375 -0.284,0 -0.547,0.077 -0.781,0.229 -0.252,0.164 -1.19,0.938 -2.793,2.305 -0.963,-0.522 -1.984,-0.932 -3.046,-1.221 -0.126,-1.605 -0.282,-3.435 -0.361,-3.808 -0.155,-0.722 -0.829,-1.133 -1.519,-1.228 -0.17,-0.01 -1.361,-0.077 -1.998,-0.077 -0.57,0 -1.385,0.06 -1.783,0.089 l 0.037,0.498 v 0 L 69.935,52.71 c -0.581,0.036 -1.104,0.547 -1.297,1.003 -0.063,0.146 -0.143,0.326 -0.43,4.009 -1.061,0.289 -2.082,0.698 -3.046,1.221 -1.602,-1.366 -2.54,-2.141 -2.793,-2.305 -0.234,-0.152 -0.497,-0.229 -0.781,-0.229 -0.545,0 -0.973,0.287 -1.148,0.421 -0.054,0.049 -1.009,0.898 -1.48,1.37 -0.404,0.404 -0.94,1.025 -1.229,1.359 l -0.074,0.085 c -0.386,0.438 -0.394,1.167 -0.206,1.627 0.059,0.148 0.124,0.315 2.282,2.847 -0.679,1.12 -1.197,2.324 -1.547,3.59 -3.639,0.284 -3.82,0.362 -3.967,0.424 -0.461,0.196 -0.972,0.717 -1.009,1.302 l -0.012,0.16 c -0.028,0.392 -0.088,1.209 -0.088,1.78 0,0.637 0.067,1.828 0.085,2.088 0.086,0.6 0.497,1.273 1.22,1.428 0.37,0.079 2.166,0.232 3.741,0.357 0.357,1.336 0.904,2.605 1.628,3.781 -2.204,2.583 -2.272,2.753 -2.332,2.903 -0.188,0.464 -0.182,1.194 0.208,1.637 l 0.119,0.137 c 0.265,0.306 0.785,0.907 1.18,1.303 0.472,0.472 1.427,1.321 1.537,1.417 0.085,0.062 0.532,0.375 1.092,0.375 0.284,0 0.547,-0.077 0.781,-0.229 0.259,-0.168 1.233,-0.974 2.899,-2.396 0.937,0.498 1.926,0.89 2.947,1.167 0.279,3.574 0.357,3.756 0.42,3.9 0.195,0.461 0.718,0.972 1.299,1.008 l 0.031,-0.499 v 0 l 0.131,0.511 c 0.395,0.029 1.209,0.088 1.779,0.088 0.637,0 1.828,-0.067 2.089,-0.085 0.599,-0.087 1.272,-0.498 1.428,-1.22 0.079,-0.37 0.23,-2.145 0.353,-3.704 1.023,-0.278 2.012,-0.669 2.947,-1.167 1.201,1.025 2.582,2.189 2.9,2.396 0.234,0.152 0.497,0.229 0.782,0.229 0.544,0 0.972,-0.287 1.142,-0.417 0.065,-0.057 1.018,-0.907 1.486,-1.375 0.4,-0.401 0.93,-1.012 1.199,-1.325 l 0.104,-0.12 c 0.386,-0.438 0.394,-1.167 0.205,-1.629 -0.061,-0.152 -0.129,-0.322 -2.333,-2.906 0.724,-1.176 1.271,-2.445 1.628,-3.781 1.575,-0.125 3.369,-0.277 3.741,-0.357 0.725,-0.152 1.136,-0.826 1.229,-1.515 z m -6.314,0.309 -0.132,0.602 c -0.348,1.564 -0.979,3.027 -1.876,4.347 l -0.356,0.526 0.413,0.483 c 1.563,1.824 2.31,2.738 2.437,2.953 l -0.024,0.028 c -0.234,0.271 -0.735,0.851 -1.095,1.21 -0.42,0.419 -1.284,1.191 -1.35,1.255 -0.014,0.009 -0.037,0.021 -0.058,0.031 -0.358,-0.272 -1.595,-1.307 -3.084,-2.584 l -0.452,-0.386 -0.511,0.301 c -1.118,0.656 -2.327,1.134 -3.593,1.42 l -0.601,0.135 -0.046,0.613 c -0.153,1.983 -0.293,3.555 -0.354,3.989 -0.007,0.004 -0.009,0.007 -10e-4,0.008 -0.161,0.009 -1.311,0.074 -1.902,0.074 -0.524,0 -1.292,-0.057 -1.66,-0.084 L 70.186,88.6 c -0.049,-0.346 -0.171,-1.573 -0.354,-3.983 l -0.047,-0.614 -0.601,-0.134 c -1.266,-0.286 -2.475,-0.764 -3.592,-1.42 l -0.512,-0.301 -0.452,0.386 c -1.52,1.302 -2.734,2.319 -3.086,2.585 -0.009,-0.003 -0.016,-0.004 -0.008,0.004 -0.116,-0.103 -0.979,-0.873 -1.396,-1.291 -0.363,-0.364 -0.854,-0.931 -1.136,-1.258 0.22,-0.293 1.03,-1.276 2.45,-2.934 L 61.868,79.157 61.51,78.63 c -0.896,-1.319 -1.527,-2.782 -1.875,-4.345 l -0.132,-0.603 -0.617,-0.048 c -1.996,-0.153 -3.58,-0.294 -4.024,-0.355 -0.007,-0.016 -0.012,-0.032 -0.014,-0.044 -0.015,-0.262 -0.072,-1.306 -0.072,-1.86 0,-0.522 0.057,-1.289 0.085,-1.658 l 0.002,-0.034 c 0.395,-0.057 1.849,-0.193 4.048,-0.36 l 0.61,-0.046 0.137,-0.596 c 0.345,-1.497 0.951,-2.9 1.802,-4.171 L 61.81,63.986 61.4,63.507 C 59.777,61.61 59.132,60.812 59.019,60.618 l 0.005,-0.005 c 0.241,-0.28 0.745,-0.863 1.114,-1.233 0.419,-0.419 1.281,-1.188 1.344,-1.251 0.018,-0.012 0.042,-0.024 0.063,-0.035 0.261,0.199 1.095,0.881 2.981,2.495 l 0.455,0.391 0.514,-0.308 c 1.142,-0.683 2.38,-1.179 3.682,-1.474 l 0.598,-0.136 0.05,-0.613 c 0.195,-2.578 0.322,-3.834 0.388,-4.089 h 0.006 c 0.368,-0.027 1.136,-0.084 1.66,-0.084 0.591,0 1.739,0.065 1.831,0.065 0.024,0.005 0.05,0.013 0.072,0.021 0.057,0.41 0.189,1.851 0.36,4.087 l 0.047,0.613 0.6,0.136 c 1.302,0.294 2.541,0.791 3.683,1.473 l 0.514,0.309 0.455,-0.39 c 1.889,-1.617 2.723,-2.298 2.982,-2.496 0.014,0.005 0.023,0.009 0.025,0.009 0,0 0,0 0,0 0.168,0.15 0.979,0.875 1.38,1.277 0.369,0.37 0.887,0.969 1.119,1.239 l 0.017,0.019 c -0.188,0.249 -0.846,1.06 -2.396,2.871 l -0.411,0.48 0.352,0.524 c 0.851,1.272 1.456,2.675 1.801,4.171 l 0.137,0.596 0.61,0.046 c 2.279,0.174 3.758,0.313 4.05,0.386 v 0.009 c 0.028,0.369 0.085,1.135 0.085,1.657 0,0.554 -0.058,1.599 -0.064,1.828 -0.006,0.025 -0.014,0.053 -0.022,0.076 -0.443,0.062 -2.027,0.202 -4.024,0.355 z"
               id="path1060" />
            <path
               style="fill:#ffffff"
               inkscape:connector-curvature="0"
               d="m 71.982,66.788 c -2.588,0 -4.693,2.105 -4.693,4.693 0,2.588 2.105,4.693 4.693,4.693 2.587,0 4.692,-2.105 4.692,-4.693 0,-2.588 -2.105,-4.693 -4.692,-4.693 z m 0,7.887 c -1.762,0 -3.195,-1.433 -3.195,-3.195 0,-1.762 1.434,-3.195 3.195,-3.195 1.761,0 3.194,1.433 3.194,3.195 0,1.762 -1.432,3.195 -3.194,3.195 z"
               id="path1062" />
          </g>
        </g>
      </g>
    </g>
    <path
       style="fill:#bebebe;stroke:#bebebe;stroke-width:1.06500006;stroke-linecap:butt;stroke-linejoin:miter;stroke-miterlimit:4;stroke-dasharray:none;stroke-opacity:1;marker-end:url(#Arrow2Lend)"
       d="m 101.96755,43.102526 v 2.138156"
       id="path2080"
       inkscape:connector-curvature="0"
       sodipodi:nodetypes="cc" />
    <g
       id="g129"
       transform="translate(0,-1.9720713)">
      <g
         transform="translate(-73.699353,-19.018987)"
         id="text2076-5"
         style="font-style:normal;font-variant:normal;font-weight:900;font-stretch:normal;font-size:8.46666622px;line-height:1.25;font-family:Overpass;-inkscape-font-specification:'Overpass Heavy';letter-spacing:0px;word-spacing:0px;stroke-width:0.26458332"
         aria-label="Processing">
        <path
           inkscape:connector-curvature="0"
           id="path2125"
           style="font-style:normal;font-variant:normal;font-weight:900;font-stretch:normal;font-size:8.46666622px;font-family:Overpass;-inkscape-font-specification:'Overpass Heavy';stroke-width:0.26458332"
           d="m 80.44586,90.361023 h 1.286933 V 88.23589 h 1.337733 c 1.4732,0 2.065867,-1.016 2.065867,-1.896534 0,-0.948266 -0.541867,-1.904999 -2.065867,-1.904999 H 80.44586 Z m 2.675466,-3.335867 h -1.388533 v -1.371599 h 1.388533 c 0.516467,0 0.677333,0.389466 0.677333,0.685799 0,0.321734 -0.186266,0.6858 -0.677333,0.6858 z" />
        <path
           inkscape:connector-curvature="0"
           id="path2127"
           style="font-style:normal;font-variant:normal;font-weight:900;font-stretch:normal;font-size:8.46666622px;font-family:Overpass;-inkscape-font-specification:'Overpass Heavy';stroke-width:0.26458332"
           d="m 85.886354,90.361023 h 1.227667 v -2.345267 c 0,-0.694266 0.3556,-0.897466 0.745066,-0.897466 0.3556,0 0.575734,0.135466 0.770467,0.296333 l 0.160867,-1.1176 c -0.211667,-0.220133 -0.4826,-0.364066 -0.855134,-0.364066 -0.448733,0 -0.7366,0.321733 -0.821266,0.491066 v -0.389466 h -1.227667 z" />
        <path
           inkscape:connector-curvature="0"
           id="path2129"
           style="font-style:normal;font-variant:normal;font-weight:900;font-stretch:normal;font-size:8.46666622px;font-family:Overpass;-inkscape-font-specification:'Overpass Heavy';stroke-width:0.26458332"
           d="m 91.137407,90.462623 c 1.2192,0 1.989667,-0.8382 1.989667,-2.2606 0,-1.397 -0.770467,-2.269066 -1.989667,-2.269066 -1.227667,0 -2.0066,0.872066 -2.0066,2.269066 0,1.4224 0.778933,2.2606 2.0066,2.2606 z m 0,-1.185333 c -0.474133,0 -0.778933,-0.397934 -0.778933,-1.075267 0,-0.677333 0.3048,-1.083733 0.778933,-1.083733 0.4826,0 0.762,0.4064 0.762,1.083733 0,0.677333 -0.2794,1.075267 -0.762,1.075267 z" />
        <path
           inkscape:connector-curvature="0"
           id="path2131"
           style="font-style:normal;font-variant:normal;font-weight:900;font-stretch:normal;font-size:8.46666622px;font-family:Overpass;-inkscape-font-specification:'Overpass Heavy';stroke-width:0.26458332"
           d="m 95.999523,90.462623 c 0.982133,0 1.617133,-0.4826 1.905,-1.464733 l -1.176867,-0.338667 c -0.127,0.4064 -0.372533,0.626533 -0.728133,0.626533 -0.440267,0 -0.778934,-0.4318 -0.778934,-1.083733 0,-0.643467 0.338667,-1.0922 0.795867,-1.0922 0.338667,0 0.5842,0.2286 0.7112,0.5588 l 1.1684,-0.381 c -0.296333,-0.9398 -0.973667,-1.354666 -1.896533,-1.354666 -1.210734,0 -2.023534,0.872066 -2.023534,2.269066 0,1.4224 0.8128,2.2606 2.023534,2.2606 z" />
        <path
           inkscape:connector-curvature="0"
           id="path2133"
           style="font-style:normal;font-variant:normal;font-weight:900;font-stretch:normal;font-size:8.46666622px;font-family:Overpass;-inkscape-font-specification:'Overpass Heavy';stroke-width:0.26458332"
           d="m 100.74628,90.462623 c 0.74506,0 1.28693,-0.3048 1.68486,-0.7874 l -0.7112,-0.7112 c -0.27093,0.321733 -0.54186,0.4572 -0.97366,0.4572 -0.4572,0 -0.829735,-0.2286 -0.855135,-0.804333 h 2.768595 c 0.0339,-0.220134 0.0339,-0.474134 0.0339,-0.635 0,-1.388534 -0.85513,-2.048933 -1.94733,-2.048933 -1.261535,0 -2.057402,0.872066 -2.057402,2.260599 0,1.4224 0.778933,2.269067 2.057402,2.269067 z m -0.846669,-2.7686 c 0.05927,-0.4572 0.364069,-0.719667 0.795869,-0.719667 0.508,0 0.762,0.262467 0.82126,0.719667 z" />
        <path
           inkscape:connector-curvature="0"
           id="path2135"
           style="font-style:normal;font-variant:normal;font-weight:900;font-stretch:normal;font-size:8.46666622px;font-family:Overpass;-inkscape-font-specification:'Overpass Heavy';stroke-width:0.26458332"
           d="m 105.12818,90.462623 c 1.04986,0 1.73566,-0.4826 1.73566,-1.3462 0,-0.905933 -0.77893,-1.210733 -1.4224,-1.4224 -0.44873,-0.110067 -0.84666,-0.2794 -0.84666,-0.474133 0,-0.186267 0.2032,-0.2794 0.508,-0.2794 0.2794,0 0.508,0.06773 0.82973,0.364066 l 0.79587,-0.651933 c -0.33867,-0.381 -0.8636,-0.719666 -1.6256,-0.719666 -0.87207,0 -1.60867,0.440266 -1.60867,1.227666 0,0.7874 0.54187,1.1176 1.53247,1.4478 0.51646,0.194733 0.7366,0.296333 0.7366,0.508 0,0.245533 -0.24554,0.338667 -0.60114,0.338667 -0.4318,0 -0.84666,-0.3048 -1.02446,-0.4826 l -0.7874,0.668866 c 0.3556,0.499534 1.0668,0.821267 1.778,0.821267 z" />
        <path
           inkscape:connector-curvature="0"
           id="path2137"
           style="font-style:normal;font-variant:normal;font-weight:900;font-stretch:normal;font-size:8.46666622px;font-family:Overpass;-inkscape-font-specification:'Overpass Heavy';stroke-width:0.26458332"
           d="m 109.41112,90.462623 c 1.04986,0 1.73566,-0.4826 1.73566,-1.3462 0,-0.905933 -0.77893,-1.210733 -1.4224,-1.4224 -0.44873,-0.110067 -0.84666,-0.2794 -0.84666,-0.474133 0,-0.186267 0.2032,-0.2794 0.508,-0.2794 0.2794,0 0.508,0.06773 0.82973,0.364066 l 0.79587,-0.651933 c -0.33867,-0.381 -0.8636,-0.719666 -1.6256,-0.719666 -0.87207,0 -1.60867,0.440266 -1.60867,1.227666 0,0.7874 0.54187,1.1176 1.53247,1.4478 0.51646,0.194733 0.7366,0.296333 0.7366,0.508 0,0.245533 -0.24554,0.338667 -0.60114,0.338667 -0.4318,0 -0.84666,-0.3048 -1.02446,-0.4826 l -0.7874,0.668866 c 0.3556,0.499534 1.0668,0.821267 1.778,0.821267 z" />
        <path
           inkscape:connector-curvature="0"
           id="path2139"
           style="font-style:normal;font-variant:normal;font-weight:900;font-stretch:normal;font-size:8.46666622px;font-family:Overpass;-inkscape-font-specification:'Overpass Heavy';stroke-width:0.26458332"
           d="m 112.83893,85.61969 c 0.39793,0 0.70273,-0.321733 0.70273,-0.702733 0,-0.389467 -0.3048,-0.694267 -0.70273,-0.694267 -0.38947,0 -0.7112,0.3048 -0.7112,0.694267 0,0.381 0.32173,0.702733 0.7112,0.702733 z m -0.61807,4.741333 h 1.22767 v -4.326466 h -1.22767 z" />
        <path
           inkscape:connector-curvature="0"
           id="path2141"
           style="font-style:normal;font-variant:normal;font-weight:900;font-stretch:normal;font-size:8.46666622px;font-family:Overpass;-inkscape-font-specification:'Overpass Heavy';stroke-width:0.26458332"
           d="m 117.4014,90.361023 h 1.22767 V 87.55009 c 0,-1.261534 -0.8382,-1.617133 -1.4986,-1.617133 -0.52494,0 -0.9144,0.186266 -1.17687,0.499533 v -0.397933 h -1.22767 v 4.326466 h 1.22767 v -2.269067 c 0,-0.651933 0.22013,-0.973666 0.762,-0.973666 0.508,0 0.6858,0.3048 0.6858,0.9906 z" />
        <path
           inkscape:connector-curvature="0"
           id="path2143"
           style="font-style:normal;font-variant:normal;font-weight:900;font-stretch:normal;font-size:8.46666622px;font-family:Overpass;-inkscape-font-specification:'Overpass Heavy';stroke-width:0.26458332"
           d="m 122.2991,86.034557 v 0.186266 c -0.254,-0.237066 -0.5334,-0.287866 -0.8636,-0.287866 -1.05833,0 -1.79493,0.872066 -1.79493,2.260599 0,1.507067 0.7366,2.269067 1.79493,2.269067 0.27094,0 0.60114,-0.0254 0.8636,-0.270933 -0.008,0.6604 -0.42333,0.719666 -1.51553,0.8128 l 0.70273,1.049866 c 1.8034,-0.143933 2.04047,-0.889 2.04047,-2.446866 v -3.572933 z m 0,2.980266 c -0.1524,0.1778 -0.31326,0.262467 -0.67733,0.262467 -0.55033,0 -0.75353,-0.465667 -0.75353,-1.083734 0,-0.694266 0.2794,-1.075266 0.75353,-1.075266 0.44873,0 0.56727,0.186266 0.67733,0.2794 z" />
      </g>
    </g>
    <g
       aria-label="Source Data"
       style="font-style:normal;font-variant:normal;font-weight:900;font-stretch:normal;font-size:8.46666622px;line-height:1.25;font-family:Overpass;-inkscape-font-specification:'Overpass Heavy';letter-spacing:0px;word-spacing:0px;stroke-width:0.26458332"
       id="text2076-56"
       transform="translate(0,-71.071912)">
      <path
         d="m 9.1256399,90.462623 c 1.2361331,0 2.2098001,-0.668867 2.2098001,-1.820333 0,-1.312334 -1.159933,-1.684867 -2.0574001,-1.972734 -0.5503333,-0.186266 -1.0075333,-0.3302 -1.0075333,-0.634999 0,-0.313267 0.254,-0.4826 0.7196666,-0.4826 0.5334,0 0.8128,0.270933 0.9736667,0.635 l 1.1514661,-0.372534 c -0.2286,-0.8382 -0.965199,-1.481666 -2.0573994,-1.481666 -1.3208,0 -2.0743333,0.762 -2.0743333,1.6764 0,1.236133 1.0498667,1.566333 1.9388666,1.854199 0.6180666,0.194734 1.1260671,0.3556 1.1260671,0.770467 0,0.4064 -0.3556005,0.6096 -0.8890004,0.6096 -0.5418667,0 -0.9990666,-0.389467 -1.2615333,-0.948267 l -1.1514666,0.4318 c 0.3556,1.083734 1.2276666,1.735667 2.3791332,1.735667 z"
         style="font-style:normal;font-variant:normal;font-weight:900;font-stretch:normal;font-size:8.46666622px;font-family:Overpass;-inkscape-font-specification:'Overpass Heavy';stroke-width:0.26458332"
         id="path2146"
         inkscape:connector-curvature="0" />
      <path
         d="m 14.006408,90.462623 c 1.2192,0 1.989667,-0.8382 1.989667,-2.2606 0,-1.397 -0.770467,-2.269066 -1.989667,-2.269066 -1.227666,0 -2.0066,0.872066 -2.0066,2.269066 0,1.4224 0.778934,2.2606 2.0066,2.2606 z m 0,-1.185333 c -0.474133,0 -0.778933,-0.397934 -0.778933,-1.075267 0,-0.677333 0.3048,-1.083733 0.778933,-1.083733 0.4826,0 0.762,0.4064 0.762,1.083733 0,0.677333 -0.2794,1.075267 -0.762,1.075267 z"
         style="font-style:normal;font-variant:normal;font-weight:900;font-stretch:normal;font-size:8.46666622px;font-family:Overpass;-inkscape-font-specification:'Overpass Heavy';stroke-width:0.26458332"
         id="path2148"
         inkscape:connector-curvature="0" />
      <path
         d="m 19.68979,90.361023 h 1.227666 V 86.034557 H 19.68979 v 2.269066 c 0,0.668867 -0.2286,0.973667 -0.753534,0.973667 -0.533399,0 -0.694266,-0.321734 -0.694266,-0.9906 v -2.252133 h -1.227667 v 2.810933 c 0,1.2446 0.846667,1.617133 1.490133,1.617133 0.516467,0 0.9398,-0.194733 1.185334,-0.499533 z"
         style="font-style:normal;font-variant:normal;font-weight:900;font-stretch:normal;font-size:8.46666622px;font-family:Overpass;-inkscape-font-specification:'Overpass Heavy';stroke-width:0.26458332"
         id="path2150"
         inkscape:connector-curvature="0" />
      <path
         d="m 22.182959,90.361023 h 1.227667 v -2.345267 c 0,-0.694266 0.3556,-0.897466 0.745067,-0.897466 0.3556,0 0.575733,0.135466 0.770466,0.296333 l 0.160867,-1.1176 c -0.211667,-0.220133 -0.4826,-0.364066 -0.855133,-0.364066 -0.448734,0 -0.7366,0.321733 -0.821267,0.491066 v -0.389466 h -1.227667 z"
         style="font-style:normal;font-variant:normal;font-weight:900;font-stretch:normal;font-size:8.46666622px;font-family:Overpass;-inkscape-font-specification:'Overpass Heavy';stroke-width:0.26458332"
         id="path2152"
         inkscape:connector-curvature="0" />
      <path
         d="m 27.450945,90.462623 c 0.982134,0 1.617134,-0.4826 1.905,-1.464733 l -1.176866,-0.338667 c -0.127,0.4064 -0.372534,0.626533 -0.728134,0.626533 -0.440266,0 -0.778933,-0.4318 -0.778933,-1.083733 0,-0.643467 0.338667,-1.0922 0.795867,-1.0922 0.338666,0 0.5842,0.2286 0.7112,0.5588 l 1.1684,-0.381 c -0.296334,-0.9398 -0.973667,-1.354666 -1.896534,-1.354666 -1.210733,0 -2.023533,0.872066 -2.023533,2.269066 0,1.4224 0.8128,2.2606 2.023533,2.2606 z"
         style="font-style:normal;font-variant:normal;font-weight:900;font-stretch:normal;font-size:8.46666622px;font-family:Overpass;-inkscape-font-specification:'Overpass Heavy';stroke-width:0.26458332"
         id="path2154"
         inkscape:connector-curvature="0" />
      <path
         d="m 32.197703,90.462623 c 0.745066,0 1.286933,-0.3048 1.684866,-0.7874 l -0.7112,-0.7112 c -0.270933,0.321733 -0.541866,0.4572 -0.973666,0.4572 -0.4572,0 -0.829734,-0.2286 -0.855134,-0.804333 h 2.7686 c 0.03387,-0.220134 0.03387,-0.474134 0.03387,-0.635 0,-1.388534 -0.855133,-2.048933 -1.947333,-2.048933 -1.261534,0 -2.0574,0.872066 -2.0574,2.260599 0,1.4224 0.778933,2.269067 2.0574,2.269067 z m -0.846667,-2.7686 c 0.05927,-0.4572 0.364067,-0.719667 0.795867,-0.719667 0.508,0 0.762,0.262467 0.821266,0.719667 z"
         style="font-style:normal;font-variant:normal;font-weight:900;font-stretch:normal;font-size:8.46666622px;font-family:Overpass;-inkscape-font-specification:'Overpass Heavy';stroke-width:0.26458332"
         id="path2156"
         inkscape:connector-curvature="0" />
      <path
         d="m 37.34689,84.434357 v 5.926666 h 2.150533 c 2.175934,0 2.929467,-1.617133 2.929467,-2.963333 0,-1.481667 -0.821267,-2.963333 -2.8956,-2.963333 z m 2.286,4.698999 h -0.999067 v -3.479799 h 1.0922 c 0.9398,0 1.363134,0.905933 1.363134,1.744133 0,0.804333 -0.397934,1.735666 -1.456267,1.735666 z"
         style="font-style:normal;font-variant:normal;font-weight:900;font-stretch:normal;font-size:8.46666622px;font-family:Overpass;-inkscape-font-specification:'Overpass Heavy';stroke-width:0.26458332"
         id="path2158"
         inkscape:connector-curvature="0" />
      <path
         d="m 45.79649,90.361023 h 1.2192 V 87.62629 c 0,-1.490133 -1.032933,-1.693333 -1.837267,-1.693333 -0.762,0 -1.405466,0.237066 -1.8542,0.541866 l 0.381,0.9398 c 0.4572,-0.3048 0.905934,-0.4572 1.388534,-0.4572 0.423333,0 0.702733,0.2032 0.702733,0.6096 v 0.237067 c -0.245533,-0.110067 -0.524933,-0.1524 -0.948267,-0.1524 -0.855133,0 -1.7526,0.440266 -1.7526,1.388533 0,0.948267 0.7112,1.4224 1.6256,1.4224 0.5588,0 0.8636,-0.194733 1.075267,-0.423333 z m -0.8382,-0.931333 c -0.423333,0 -0.6604,-0.143934 -0.6604,-0.381 0,-0.313267 0.338667,-0.414867 0.762,-0.414867 0.270933,0 0.508,0.03387 0.7366,0.1016 v 0.389467 c -0.2032,0.160866 -0.465667,0.3048 -0.8382,0.3048 z"
         style="font-style:normal;font-variant:normal;font-weight:900;font-stretch:normal;font-size:8.46666622px;font-family:Overpass;-inkscape-font-specification:'Overpass Heavy';stroke-width:0.26458332"
         id="path2160"
         inkscape:connector-curvature="0" />
      <path
         d="m 49.498674,90.462623 c 0.381,0 0.702734,-0.05927 0.982134,-0.194733 l 0.135466,-1.032934 c -0.262466,0.118534 -0.508,0.169334 -0.745066,0.169334 -0.118534,0 -0.245534,-0.0762 -0.245534,-0.245534 v -2.048933 h 0.9398 v -1.075266 h -0.9398 V 84.24809 l -1.2192,0.5842 v 1.202267 h -0.592666 v 1.075266 h 0.592666 v 2.167467 c 0,0.762 0.321734,1.185333 1.0922,1.185333 z"
         style="font-style:normal;font-variant:normal;font-weight:900;font-stretch:normal;font-size:8.46666622px;font-family:Overpass;-inkscape-font-specification:'Overpass Heavy';stroke-width:0.26458332"
         id="path2162"
         inkscape:connector-curvature="0" />
      <path
         d="m 53.998574,90.361023 h 1.219199 V 87.62629 c 0,-1.490133 -1.032933,-1.693333 -1.837266,-1.693333 -0.762,0 -1.405467,0.237066 -1.8542,0.541866 l 0.381,0.9398 c 0.4572,-0.3048 0.905933,-0.4572 1.388533,-0.4572 0.423334,0 0.702734,0.2032 0.702734,0.6096 v 0.237067 c -0.245534,-0.110067 -0.524934,-0.1524 -0.948267,-0.1524 -0.855133,0 -1.7526,0.440266 -1.7526,1.388533 0,0.948267 0.7112,1.4224 1.6256,1.4224 0.5588,0 0.8636,-0.194733 1.075267,-0.423333 z m -0.8382,-0.931333 c -0.423334,0 -0.6604,-0.143934 -0.6604,-0.381 0,-0.313267 0.338666,-0.414867 0.762,-0.414867 0.270933,0 0.508,0.03387 0.7366,0.1016 v 0.389467 c -0.2032,0.160866 -0.465667,0.3048 -0.8382,0.3048 z"
         style="font-style:normal;font-variant:normal;font-weight:900;font-stretch:normal;font-size:8.46666622px;font-family:Overpass;-inkscape-font-specification:'Overpass Heavy';stroke-width:0.26458332"
         id="path2164"
         inkscape:connector-curvature="0" />
    </g>
    <g
       transform="matrix(0.31811515,0,0,0.31811515,70.381167,-8.2232524)"
       id="layer1-0"
       inkscape:label="Layer 1">
      <path
         inkscape:connector-curvature="0"
         id="path2896"
         d="M 64.679226,77.03717 H 163.03441"
         style="fill:#0088ce;stroke:#0088ce;stroke-width:30.56500053;stroke-linecap:butt;stroke-linejoin:miter;stroke-miterlimit:4;stroke-dasharray:none;stroke-opacity:1;marker-end:url(#TriangleOutS)" />
      <rect
         y="48.172062"
         x="-7.481884"
         height="57.730217"
         width="156.88556"
         id="rect3686"
         style="opacity:1;fill:#0088ce;fill-opacity:1;stroke:#0088ce;stroke-width:0.5308286;stroke-miterlimit:4;stroke-dasharray:none;stroke-dashoffset:0;stroke-opacity:1" />
      <rect
         y="53.918358"
         x="-0.26726758"
         height="46.237629"
         width="13.898015"
         id="rect3706-9"
         style="opacity:1;fill:#ffffff;fill-opacity:1;stroke:#ffffff;stroke-width:0.565;stroke-miterlimit:4;stroke-dasharray:none;stroke-dashoffset:0;stroke-opacity:1" />
      <rect
         y="53.918358"
         x="19.777946"
         height="46.237629"
         width="13.898015"
         id="rect3706-1"
         style="opacity:1;fill:#ffffff;fill-opacity:1;stroke:#ffffff;stroke-width:0.565;stroke-miterlimit:4;stroke-dasharray:none;stroke-dashoffset:0;stroke-opacity:1" />
      <rect
         y="53.918358"
         x="39.823158"
         height="46.237629"
         width="13.898015"
         id="rect3706-2"
         style="opacity:1;fill:#ffffff;fill-opacity:1;stroke:#ffffff;stroke-width:0.565;stroke-miterlimit:4;stroke-dasharray:none;stroke-dashoffset:0;stroke-opacity:1" />
      <rect
         y="53.918358"
         x="118.98329"
         height="46.237629"
         width="13.898015"
         id="rect3706-0"
         style="opacity:1;fill:#ffffff;fill-opacity:1;stroke:#ffffff;stroke-width:0.565;stroke-miterlimit:4;stroke-dasharray:none;stroke-dashoffset:0;stroke-opacity:1" />
      <circle
         r="5.2117558"
         cy="77.03717"
         cx="86.352234"
         id="path3749"
         style="opacity:1;fill:#ffffff;fill-opacity:1;stroke:#ffffff;stroke-width:0.56499994;stroke-miterlimit:4;stroke-dasharray:none;stroke-dashoffset:0;stroke-opacity:1" />
      <circle
         r="5.2117558"
         cy="77.03717"
         cx="105.27364"
         id="path3749-9"
         style="opacity:1;fill:#ffffff;fill-opacity:1;stroke:#ffffff;stroke-width:0.565;stroke-miterlimit:4;stroke-dasharray:none;stroke-dashoffset:0;stroke-opacity:1" />
      <circle
         r="5.2117558"
         cy="77.03717"
         cx="67.430824"
         id="path3749-3"
         style="opacity:1;fill:#ffffff;fill-opacity:1;stroke:#ffffff;stroke-width:0.565;stroke-miterlimit:4;stroke-dasharray:none;stroke-dashoffset:0;stroke-opacity:1" />
    </g>
    <path
       style="fill:#bebebe;stroke:#bebebe;stroke-width:1.06500006;stroke-linecap:butt;stroke-linejoin:miter;stroke-miterlimit:4;stroke-dasharray:2.13000012, 1.06500006;stroke-dashoffset:10.65000057;stroke-opacity:1;marker-end:url(#Arrow2Lend-7)"
       d="m 103.05014,96.887083 v 2.138156"
       id="path2080-2"
       inkscape:connector-curvature="0"
       sodipodi:nodetypes="cc" />
    <g
       aria-label="Source Data"
       style="font-style:normal;font-variant:normal;font-weight:900;font-stretch:normal;font-size:8.46666622px;line-height:1.25;font-family:Overpass;-inkscape-font-specification:'Overpass Heavy';letter-spacing:0px;word-spacing:0px;stroke-width:0.26458332"
       id="text2076-56-0"
       transform="translate(0,34.1451)">
      <g
         aria-label="Sink Data"
         style="font-size:8.46666622px;line-height:1.25;font-family:Overpass;-inkscape-font-specification:Overpass;letter-spacing:0px;word-spacing:0px;stroke-width:0.07000434"
         id="text5293">
        <path
           d="m 9.1256399,90.462623 c 1.2361331,0 2.2098001,-0.668867 2.2098001,-1.820333 0,-1.312334 -1.159933,-1.684867 -2.0574001,-1.972734 -0.5503333,-0.186266 -1.0075333,-0.3302 -1.0075333,-0.634999 0,-0.313267 0.254,-0.4826 0.7196666,-0.4826 0.5334,0 0.8128,0.270933 0.9736667,0.635 l 1.1514661,-0.372534 c -0.2286,-0.8382 -0.965199,-1.481666 -2.0573994,-1.481666 -1.3208,0 -2.0743333,0.762 -2.0743333,1.6764 0,1.236133 1.0498667,1.566333 1.9388666,1.854199 0.6180666,0.194734 1.1260671,0.3556 1.1260671,0.770467 0,0.4064 -0.3556005,0.6096 -0.8890004,0.6096 -0.5418667,0 -0.9990666,-0.389467 -1.2615333,-0.948267 l -1.1514666,0.4318 c 0.3556,1.083734 1.2276666,1.735667 2.3791332,1.735667 z"
           style="stroke-width:0.07000434"
           id="path5515"
           inkscape:connector-curvature="0" />
        <path
           d="m 12.9703,85.61969 c 0.397934,0 0.702734,-0.321733 0.702734,-0.702733 0,-0.389467 -0.3048,-0.694267 -0.702734,-0.694267 -0.389466,0 -0.7112,0.3048 -0.7112,0.694267 0,0.381 0.321734,0.702733 0.7112,0.702733 z m -0.618066,4.741333 H 13.5799 v -4.326466 h -1.227666 z"
           style="stroke-width:0.07000434"
           id="path5517"
           inkscape:connector-curvature="0" />
        <path
           d="m 17.532775,90.361023 h 1.227666 V 87.55009 c 0,-1.261534 -0.8382,-1.617133 -1.4986,-1.617133 -0.524933,0 -0.9144,0.186266 -1.176866,0.499533 v -0.397933 h -1.227667 v 4.326466 h 1.227667 v -2.269067 c 0,-0.651933 0.220133,-0.973666 0.762,-0.973666 0.508,0 0.6858,0.3048 0.6858,0.9906 z"
           style="stroke-width:0.07000434"
           id="path5519"
           inkscape:connector-curvature="0" />
        <path
           d="m 24.013743,90.361023 -1.5748,-3.048 1.3208,-1.278466 h -1.456267 l -1.0922,1.083733 v -2.8702 l -1.227666,0.575733 v 5.5372 h 1.227666 v -1.8796 l 0.321734,-0.296333 1.143,2.175933 z"
           style="stroke-width:0.07000434"
           id="path5521"
           inkscape:connector-curvature="0" />
        <path
           d="m 27.028142,84.434357 v 5.926666 h 2.150533 c 2.175933,0 2.929466,-1.617133 2.929466,-2.963333 0,-1.481667 -0.821266,-2.963333 -2.895599,-2.963333 z m 2.286,4.698999 h -0.999067 v -3.479799 h 1.0922 c 0.9398,0 1.363133,0.905933 1.363133,1.744133 0,0.804333 -0.397933,1.735666 -1.456266,1.735666 z"
           style="stroke-width:0.07000434"
           id="path5523"
           inkscape:connector-curvature="0" />
        <path
           d="m 35.477741,90.361023 h 1.2192 V 87.62629 c 0,-1.490133 -1.032933,-1.693333 -1.837266,-1.693333 -0.762,0 -1.405467,0.237066 -1.8542,0.541866 l 0.381,0.9398 c 0.4572,-0.3048 0.905933,-0.4572 1.388533,-0.4572 0.423333,0 0.702733,0.2032 0.702733,0.6096 v 0.237067 c -0.245533,-0.110067 -0.524933,-0.1524 -0.948266,-0.1524 -0.855133,0 -1.7526,0.440266 -1.7526,1.388533 0,0.948267 0.7112,1.4224 1.6256,1.4224 0.5588,0 0.8636,-0.194733 1.075266,-0.423333 z M 34.639542,89.42969 c -0.423334,0 -0.6604,-0.143934 -0.6604,-0.381 0,-0.313267 0.338666,-0.414867 0.762,-0.414867 0.270933,0 0.507999,0.03387 0.736599,0.1016 v 0.389467 c -0.2032,0.160866 -0.465666,0.3048 -0.838199,0.3048 z"
           style="stroke-width:0.07000434"
           id="path5525"
           inkscape:connector-curvature="0" />
        <path
           d="m 39.179924,90.462623 c 0.381,0 0.702733,-0.05927 0.982133,-0.194733 l 0.135467,-1.032934 c -0.262467,0.118534 -0.508,0.169334 -0.745067,0.169334 -0.118533,0 -0.245533,-0.0762 -0.245533,-0.245534 v -2.048933 h 0.9398 v -1.075266 h -0.9398 V 84.24809 l -1.2192,0.5842 v 1.202267 h -0.592667 v 1.075266 h 0.592667 v 2.167467 c 0,0.762 0.321733,1.185333 1.0922,1.185333 z"
           style="stroke-width:0.07000434"
           id="path5527"
           inkscape:connector-curvature="0" />
        <path
           d="m 43.679825,90.361023 h 1.2192 V 87.62629 c 0,-1.490133 -1.032933,-1.693333 -1.837267,-1.693333 -0.762,0 -1.405466,0.237066 -1.854199,0.541866 l 0.381,0.9398 c 0.457199,-0.3048 0.905933,-0.4572 1.388533,-0.4572 0.423333,0 0.702733,0.2032 0.702733,0.6096 v 0.237067 c -0.245533,-0.110067 -0.524933,-0.1524 -0.948267,-0.1524 -0.855133,0 -1.752599,0.440266 -1.752599,1.388533 0,0.948267 0.7112,1.4224 1.625599,1.4224 0.5588,0 0.8636,-0.194733 1.075267,-0.423333 z m -0.8382,-0.931333 c -0.423333,0 -0.6604,-0.143934 -0.6604,-0.381 0,-0.313267 0.338667,-0.414867 0.762,-0.414867 0.270933,0 0.508,0.03387 0.7366,0.1016 v 0.389467 c -0.2032,0.160866 -0.465667,0.3048 -0.8382,0.3048 z"
           style="stroke-width:0.07000434"
           id="path5529"
           inkscape:connector-curvature="0" />
      </g>
    </g>
    <g
       transform="matrix(0.31811516,0,0,0.31811516,71.463892,96.981065)"
       id="layer1-0-3"
       inkscape:label="Layer 1">
      <path
         inkscape:connector-curvature="0"
         id="path2896-6"
         d="M 64.679226,77.03717 H 163.03441"
         style="fill:#0088ce;stroke:#0088ce;stroke-width:30.56500053;stroke-linecap:butt;stroke-linejoin:miter;stroke-miterlimit:4;stroke-dasharray:none;stroke-opacity:1;marker-end:url(#TriangleOutS-0)" />
      <rect
         y="48.172062"
         x="-7.481884"
         height="57.730217"
         width="156.88556"
         id="rect3686-0"
         style="opacity:1;fill:#0088ce;fill-opacity:1;stroke:#0088ce;stroke-width:0.5308286;stroke-miterlimit:4;stroke-dasharray:none;stroke-dashoffset:0;stroke-opacity:1" />
      <rect
         y="53.918358"
         x="-0.26726758"
         height="46.237629"
         width="13.898015"
         id="rect3706-9-6"
         style="opacity:1;fill:#ffffff;fill-opacity:1;stroke:#ffffff;stroke-width:0.565;stroke-miterlimit:4;stroke-dasharray:none;stroke-dashoffset:0;stroke-opacity:1" />
      <rect
         y="53.918358"
         x="19.777946"
         height="46.237629"
         width="13.898015"
         id="rect3706-1-2"
         style="opacity:1;fill:#ffffff;fill-opacity:1;stroke:#ffffff;stroke-width:0.565;stroke-miterlimit:4;stroke-dasharray:none;stroke-dashoffset:0;stroke-opacity:1" />
      <rect
         y="53.918358"
         x="39.823158"
         height="46.237629"
         width="13.898015"
         id="rect3706-2-6"
         style="opacity:1;fill:#ffffff;fill-opacity:1;stroke:#ffffff;stroke-width:0.565;stroke-miterlimit:4;stroke-dasharray:none;stroke-dashoffset:0;stroke-opacity:1" />
      <rect
         y="53.918358"
         x="118.98329"
         height="46.237629"
         width="13.898015"
         id="rect3706-0-1"
         style="opacity:1;fill:#ffffff;fill-opacity:1;stroke:#ffffff;stroke-width:0.565;stroke-miterlimit:4;stroke-dasharray:none;stroke-dashoffset:0;stroke-opacity:1" />
      <circle
         r="5.2117558"
         cy="77.03717"
         cx="86.352234"
         id="path3749-8"
         style="opacity:1;fill:#ffffff;fill-opacity:1;stroke:#ffffff;stroke-width:0.56499994;stroke-miterlimit:4;stroke-dasharray:none;stroke-dashoffset:0;stroke-opacity:1" />
      <circle
         r="5.2117558"
         cy="77.03717"
         cx="105.27364"
         id="path3749-9-7"
         style="opacity:1;fill:#ffffff;fill-opacity:1;stroke:#ffffff;stroke-width:0.565;stroke-miterlimit:4;stroke-dasharray:none;stroke-dashoffset:0;stroke-opacity:1" />
      <circle
         r="5.2117558"
         cy="77.03717"
         cx="67.430824"
         id="path3749-3-9"
         style="opacity:1;fill:#ffffff;fill-opacity:1;stroke:#ffffff;stroke-width:0.565;stroke-miterlimit:4;stroke-dasharray:none;stroke-dashoffset:0;stroke-opacity:1" />
    </g>
  </g>
</svg>
