<?xml version="1.0" encoding="UTF-8" standalone="no"?>
<!-- Created with Inkscape (http://www.inkscape.org/) -->

<svg
   xmlns:dc="http://purl.org/dc/elements/1.1/"
   xmlns:cc="http://creativecommons.org/ns#"
   xmlns:rdf="http://www.w3.org/1999/02/22-rdf-syntax-ns#"
   xmlns:svg="http://www.w3.org/2000/svg"
   xmlns="http://www.w3.org/2000/svg"
   xmlns:sodipodi="http://sodipodi.sourceforge.net/DTD/sodipodi-0.dtd"
   xmlns:inkscape="http://www.inkscape.org/namespaces/inkscape"
   width="41.404831mm"
   height="30.36875mm"
   viewBox="0 0 41.404831 30.36875"
   version="1.1"
   id="svg20104"
   inkscape:version="0.92.2 (5c3e80d, 2017-08-06)"
   sodipodi:docname="synch-left.svg">
  <defs
     id="defs20098" />
  <sodipodi:namedview
     id="base"
     pagecolor="#ffffff"
     bordercolor="#666666"
     borderopacity="1.0"
     inkscape:pageopacity="0.0"
     inkscape:pageshadow="2"
     inkscape:zoom="0.35"
     inkscape:cx="1445.3882"
     inkscape:cy="237.38977"
     inkscape:document-units="mm"
     inkscape:current-layer="layer1"
     showgrid="false"
     fit-margin-top="0"
     fit-margin-left="0"
     fit-margin-right="0"
     fit-margin-bottom="0"
     inkscape:window-width="2552"
     inkscape:window-height="1400"
     inkscape:window-x="4"
     inkscape:window-y="4"
     inkscape:window-maximized="1" />
  <metadata
     id="metadata20101">
    <rdf:RDF>
      <cc:Work
         rdf:about="">
        <dc:format>image/svg+xml</dc:format>
        <dc:type
           rdf:resource="http://purl.org/dc/dcmitype/StillImage" />
        <dc:title></dc:title>
      </cc:Work>
    </rdf:RDF>
  </metadata>
  <g
     inkscape:label="Layer 1"
     inkscape:groupmode="layer"
     id="layer1"
     transform="translate(607.32146,-187.32158)">
    <path
       id="path2268"
       d="m -566.03139,215.25242 -4.06248,-5.06937 c -0.0517,-0.55822 -0.32399,-1.05071 -0.7257,-1.39921 0.44554,-0.3871 0.73299,-0.95158 0.73299,-1.58649 v -17.76341 c 0,-1.16444 -0.94636,-2.11236 -2.11133,-2.11236 h -28.50993 c -1.1639,0 -2.11133,0.9474 -2.11133,2.11236 v 17.76341 c 0,0.63491 0.28747,1.19939 0.73299,1.58649 -0.39857,0.34537 -0.66934,0.83368 -0.72307,1.38773 l -4.38542,5.0652 c -0.0818,0.0949 -0.12679,0.21598 -0.12679,0.34119 0,1.40129 0.53475,2.11237 1.59015,2.11237 h 38.22454 c 1.05435,0 1.59014,-0.71108 1.59014,-2.11237 0,-0.11791 -0.0402,-0.2332 -0.11476,-0.32554 z m -35.74437,-8.05507 v -17.76341 c 0,-0.589 0.47893,-1.06896 1.06792,-1.06896 h 28.50993 c 0.58953,0 1.06794,0.47996 1.06794,1.06896 v 17.76341 c 0,0.589 -0.47841,1.06792 -1.06794,1.06792 h -28.50993 c -0.58899,0 -1.06792,-0.47892 -1.06792,-1.06792 z m 34.26901,9.44958 h -38.22454 c -0.22851,0 -0.50918,0 -0.54414,-0.87855 l 4.37237,-5.05007 c 0.0818,-0.0949 0.12738,-0.21598 0.12738,-0.34119 0,-0.59004 0.47893,-1.06897 1.06794,-1.06897 h 28.50993 c 0.58951,0 1.06792,0.47893 1.06792,1.06897 0,0.11791 0.0412,0.2332 0.11535,0.32606 l 4.05152,5.05372 c -0.0329,0.89003 -0.31457,0.89003 -0.5436,0.89003 z m -6.08775,-27.07526 h -12.044 c 0.004,-0.0355 0.01,-0.0704 0.01,-0.10695 0,-0.45336 -0.36675,-0.82116 -0.8201,-0.82116 -0.45389,0 -0.82064,0.3678 -0.82064,0.82116 0,0.0365 0.006,0.0715 0.01,0.10695 h -12.04453 c -0.71784,0 -1.30268,0.62552 -1.30268,1.39294 v 14.90501 c 0,0.76847 0.58484,1.39294 1.30268,1.39294 h 25.70841 c 0.71838,0 1.30216,-0.62447 1.30216,-1.39294 v -14.90501 c 0,-0.76742 -0.58378,-1.39294 -1.30216,-1.39294 z m 0.51962,16.29795 c 0,0.3365 -0.23269,0.61039 -0.51962,0.61039 h -25.70838 c -0.28642,0 -0.52014,-0.27389 -0.52014,-0.61039 v -14.90501 c 0,-0.33649 0.23372,-0.61039 0.52014,-0.61039 h 25.70838 c 0.28693,0 0.51962,0.2739 0.51962,0.61039 z m -27.87346,4.74435 c 0,-0.14451 0.11693,-0.26085 0.26085,-0.26085 h 28.52559 c 0.14394,0 0.26085,0.11634 0.26085,0.26085 0,0.14347 -0.11693,0.26085 -0.26085,0.26085 h -28.52559 c -0.14394,0 -0.26085,-0.11738 -0.26085,-0.26085 z m -0.93228,1.76074 c 0,-0.14451 0.11693,-0.26085 0.26085,-0.26085 h 30.25607 c 0.14295,0 0.26084,0.11634 0.26084,0.26085 0,0.14347 -0.11791,0.26085 -0.26084,0.26085 h -30.25607 c -0.14394,0 -0.26085,-0.11738 -0.26085,-0.26085 z m -1.26878,1.4999 h 32.79363 c 0.14394,0 0.26085,0.11633 0.26085,0.26085 0,0.14346 -0.11693,0.26085 -0.26085,0.26085 h -32.79363 c -0.14453,0 -0.26085,-0.11738 -0.26085,-0.26085 0,-0.14452 0.11575,-0.26085 0.26085,-0.26085 z m 26.68242,-19.73388 c 0.0804,0.11947 0.0495,0.2812 -0.0698,0.36154 l -7.51041,5.04381 c -0.045,0.0297 -0.096,0.0449 -0.1465,0.0449 -0.083,0 -0.16484,-0.0407 -0.21548,-0.11529 -0.0808,-0.11947 -0.0501,-0.2812 0.0694,-0.36154 l 7.51041,-5.04381 c 0.11949,-0.0804 0.28173,-0.049 0.36259,0.0704 z m -3.79276,4.49759 c 0.0808,0.11947 0.0495,0.28224 -0.0704,0.36258 l -5.94792,4.01867 c -0.045,0.0297 -0.096,0.0449 -0.14611,0.0449 -0.0834,0 -0.16583,-0.0407 -0.21597,-0.11529 -0.0814,-0.11947 -0.0495,-0.2812 0.07,-0.36259 l 5.94844,-4.01762 c 0.1185,-0.0803 0.28119,-0.0501 0.36205,0.0694 z"
       inkscape:connector-curvature="0"
       style="stroke-width:0.52170128" />
  </g>
</svg>
