<?xml version="1.0" encoding="UTF-8" standalone="no"?>
<!-- Created with Inkscape (http://www.inkscape.org/) -->

<svg
   xmlns:dc="http://purl.org/dc/elements/1.1/"
   xmlns:cc="http://creativecommons.org/ns#"
   xmlns:rdf="http://www.w3.org/1999/02/22-rdf-syntax-ns#"
   xmlns:svg="http://www.w3.org/2000/svg"
   xmlns="http://www.w3.org/2000/svg"
   xmlns:sodipodi="http://sodipodi.sourceforge.net/DTD/sodipodi-0.dtd"
   xmlns:inkscape="http://www.inkscape.org/namespaces/inkscape"
   width="667.74365"
   height="180.03604"
   viewBox="0 0 667.74362 180.03604"
   id="svg2"
   version="1.1"
   inkscape:version="0.91 r13725"
   sodipodi:docname="lessons1.svg">
  <defs
     id="defs4">
    <clipPath
       id="clipPath4673"
       clipPathUnits="userSpaceOnUse">
      <path
         inkscape:connector-curvature="0"
         id="path4675"
         d="M 0,378 522,378 522,0 0,0 0,378 Z" />
    </clipPath>
  </defs>
  <sodipodi:namedview
     id="base"
     pagecolor="#ffffff"
     bordercolor="#666666"
     borderopacity="1.0"
     inkscape:pageopacity="0.0"
     inkscape:pageshadow="2"
     inkscape:zoom="1.979899"
     inkscape:cx="324.80278"
     inkscape:cy="121.48185"
     inkscape:document-units="px"
     inkscape:current-layer="layer1"
     showgrid="true"
     showguides="false"
     inkscape:window-width="1916"
     inkscape:window-height="1054"
     inkscape:window-x="1920"
     inkscape:window-y="4"
     inkscape:window-maximized="1"
     fit-margin-top="6"
     fit-margin-left="6"
     fit-margin-right="6.6"
     fit-margin-bottom="6"
     units="px">
    <inkscape:grid
       type="xygrid"
       id="grid3336"
       originx="381.76614"
       originy="-615.26515" />
  </sodipodi:namedview>
  <metadata
     id="metadata7">
    <rdf:RDF>
      <cc:Work
         rdf:about="">
        <dc:format>image/svg+xml</dc:format>
        <dc:type
           rdf:resource="http://purl.org/dc/dcmitype/StillImage" />
        <dc:title></dc:title>
      </cc:Work>
    </rdf:RDF>
  </metadata>
  <g
     inkscape:label="Layer 1"
     inkscape:groupmode="layer"
     id="layer1"
     transform="translate(381.76615,-257.06094)">
    <g
       id="g6689"
       transform="translate(57.715879,-21.244251)">
      <g
         id="g4667"
         inkscape:label="OpenAPI_Logo_Pantone"
         transform="matrix(0.37975529,0,0,-0.37975529,-376.84306,402.80383)">
        <g
           id="g4669">
          <g
             id="g4671"
             clip-path="url(#clipPath4673)">
            <g
               id="g4677"
               transform="translate(80.1304,179.931)">
              <path
                 d="m 0,0 -0.113,0 -29.443,0 c 0.005,-0.145 0.009,-0.289 0.016,-0.433 0.013,-0.278 0.033,-0.555 0.05,-0.833 0.008,-0.119 0.013,-0.239 0.022,-0.357 0.023,-0.321 0.051,-0.642 0.08,-0.961 0.007,-0.073 0.013,-0.145 0.02,-0.216 0.034,-0.356 0.073,-0.711 0.116,-1.065 0.002,-0.035 0.006,-0.069 0.01,-0.103 0.047,-0.381 0.096,-0.764 0.152,-1.144 0,-0.004 0.001,-0.01 0.003,-0.014 0.338,-2.356 0.848,-4.689 1.526,-6.984 0.003,-0.01 0.007,-0.019 0.009,-0.029 0.106,-0.361 0.218,-0.721 0.333,-1.077 0.007,-0.021 0.014,-0.043 0.02,-0.064 0.007,-0.021 0.014,-0.042 0.021,-0.063 0.104,-0.324 0.214,-0.645 0.325,-0.968 0.029,-0.081 0.056,-0.163 0.086,-0.244 0.099,-0.279 0.2,-0.558 0.304,-0.837 0.048,-0.126 0.096,-0.251 0.144,-0.378 0.089,-0.231 0.179,-0.46 0.27,-0.691 0.068,-0.173 0.141,-0.346 0.213,-0.519 0.073,-0.18 0.15,-0.36 0.226,-0.54 0.094,-0.22 0.191,-0.439 0.288,-0.658 0.058,-0.131 0.117,-0.261 0.175,-0.391 0.121,-0.263 0.244,-0.526 0.368,-0.787 0.041,-0.084 0.08,-0.168 0.122,-0.252 0.145,-0.301 0.293,-0.6 0.443,-0.895 0.025,-0.047 0.047,-0.092 0.07,-0.137 0.17,-0.328 0.342,-0.657 0.518,-0.981 0.008,-0.014 0.016,-0.028 0.023,-0.044 0.037,-0.068 0.078,-0.133 0.116,-0.2 L 1.756,-6.658 1.849,-6.602 C 0.85,-4.501 0.23,-2.269 0,0"
                 style="fill:#94d600;fill-opacity:1;fill-rule:nonzero;stroke:none"
                 id="path4679"
                 inkscape:connector-curvature="0" />
            </g>
            <g
               id="g4681"
               transform="translate(51.9693,166.3771)">
              <path
                 d="M 0,0 0.009,-0.027 0.962,0.274 0,0 Z"
                 style="fill:#94d600;fill-opacity:1;fill-rule:nonzero;stroke:none"
                 id="path4683"
                 inkscape:connector-curvature="0" />
            </g>
            <g
               id="g4685"
               transform="translate(87.3947,166.3624)">
              <path
                 d="m 0,0 -0.071,-0.071 -20.82,-20.82 c 0.107,-0.1 0.214,-0.201 0.323,-0.298 0.194,-0.176 0.392,-0.351 0.589,-0.523 0.102,-0.09 0.202,-0.181 0.304,-0.268 0.235,-0.204 0.474,-0.403 0.711,-0.602 0.064,-0.054 0.128,-0.107 0.192,-0.16 0.267,-0.221 0.539,-0.438 0.811,-0.654 0.035,-0.027 0.07,-0.055 0.105,-0.083 0.295,-0.232 0.593,-0.458 0.893,-0.686 0.013,-0.008 0.025,-0.016 0.034,-0.024 1.254,-0.938 2.554,-1.816 3.895,-2.633 0.046,-0.029 0.092,-0.056 0.139,-0.085 0.255,-0.153 0.51,-0.304 0.767,-0.454 0.158,-0.09 0.315,-0.179 0.472,-0.267 0.148,-0.086 0.296,-0.169 0.446,-0.251 0.27,-0.149 0.542,-0.295 0.815,-0.439 0.036,-0.019 0.074,-0.04 0.112,-0.06 0.758,-0.396 1.527,-0.764 2.303,-1.118 l 0,0 0.739,1.794 10.471,25.429 0.039,0.095 C 2.127,-1.57 1.031,-0.845 0,0"
                 style="fill:#4d5a31;fill-opacity:1;fill-rule:nonzero;stroke:none"
                 id="path4687"
                 inkscape:connector-curvature="0" />
            </g>
            <g
               id="g4689"
               transform="translate(85.226,168.436)">
              <path
                 d="m 0,0 c -0.225,0.25 -0.439,0.506 -0.649,0.765 -0.185,0.23 -0.366,0.462 -0.54,0.698 -0.199,0.27 -0.394,0.541 -0.578,0.818 -0.186,0.279 -0.369,0.558 -0.54,0.843 l -25.275,-15.226 c 0.388,-0.645 0.793,-1.273 1.206,-1.894 0.014,-0.021 0.027,-0.043 0.041,-0.065 0,0 0,0 0,0 0.005,-0.007 0.01,-0.015 0.015,-0.023 0.014,-0.02 0.026,-0.042 0.04,-0.062 0.001,-0.002 0.003,-0.005 0.004,-0.007 0.033,-0.049 0.067,-0.098 0.101,-0.148 0.002,-0.003 0.004,-0.005 0.006,-0.008 0,0 0,0 0,-0.001 0.001,-10e-4 0.002,-0.002 0.003,-0.003 0.439,-0.65 0.889,-1.288 1.355,-1.911 0.01,-0.013 0.02,-0.026 0.03,-0.04 0.01,-0.013 0.02,-0.025 0.03,-0.038 0.202,-0.268 0.405,-0.535 0.614,-0.8 0.026,-0.035 0.054,-0.07 0.082,-0.103 0.215,-0.274 0.433,-0.545 0.654,-0.812 0.052,-0.064 0.106,-0.127 0.158,-0.192 0.201,-0.239 0.4,-0.476 0.605,-0.713 0.087,-0.1 0.178,-0.202 0.266,-0.302 0.174,-0.198 0.346,-0.395 0.524,-0.59 0.097,-0.108 0.198,-0.215 0.297,-0.322 0.046,-0.049 0.09,-0.097 0.135,-0.146 0.13,-0.14 0.259,-0.28 0.39,-0.419 0.053,-0.055 0.108,-0.109 0.16,-0.164 0.231,-0.24 0.463,-0.479 0.699,-0.716 l 20.85,20.85 C 0.446,-0.493 0.222,-0.247 0,0"
                 style="fill:#6ba53a;fill-opacity:1;fill-rule:nonzero;stroke:none"
                 id="path4691"
                 inkscape:connector-curvature="0" />
            </g>
            <g
               id="g4693"
               transform="translate(112.8638,166.3731)">
              <path
                 d="m 0,0 c -0.229,-0.185 -0.461,-0.366 -0.697,-0.54 l 0.052,-0.086 15.202,-25.235 c 0.704,0.46 1.399,0.933 2.079,1.432 1.471,1.084 2.896,2.26 4.268,3.526 L 0.082,-0.082 0,0 Z"
                 style="fill:#4d5a31;fill-opacity:1;fill-rule:nonzero;stroke:none"
                 id="path4695"
                 inkscape:connector-curvature="0" />
            </g>
            <g
               id="g4697"
               transform="translate(125.4996,139.3094)">
              <path
                 d="M 0,0 C 0.011,0.006 0.023,0.013 0.034,0.019 L 0.033,0.02 C 0.022,0.013 0.011,0.007 0,0 Z"
                 style="fill:#94d600;fill-opacity:1;fill-rule:nonzero;stroke:none"
                 id="path4699"
                 inkscape:connector-curvature="0" />
            </g>
            <g
               id="g4701"
               transform="translate(125.485,139.3005)">
              <path
                 d="m 0,0 c 0,0 0,0 0,0 l 0,0.001 c 0,0 0,0 0,-0.001 z"
                 style="fill:#94d600;fill-opacity:1;fill-rule:nonzero;stroke:none"
                 id="path4703"
                 inkscape:connector-curvature="0" />
            </g>
            <g
               id="g4705"
               transform="translate(125.5325,139.3295)">
              <path
                 d="M 0,0 0.001,-0.001 C 0.067,0.036 0.134,0.07 0.199,0.11 L 0.195,0.117 C 0.13,0.078 0.065,0.039 0,0"
                 style="fill:#94d600;fill-opacity:1;fill-rule:nonzero;stroke:none"
                 id="path4707"
                 inkscape:connector-curvature="0" />
            </g>
            <g
               id="g4709"
               transform="translate(125.4908,139.3046)">
              <path
                 d="m 0,0 c 0.003,0.002 0.006,0.003 0.009,0.005 l 0,0 L 0,0 Z"
                 style="fill:#94d600;fill-opacity:1;fill-rule:nonzero;stroke:none"
                 id="path4711"
                 inkscape:connector-curvature="0" />
            </g>
            <g
               id="g4713"
               transform="translate(125.4847,139.301)">
              <path
                 d="M 0,0 C 0,0 0,0 0,0 L -0.037,0.063 0,0 Z"
                 style="fill:#94d600;fill-opacity:1;fill-rule:nonzero;stroke:none"
                 id="path4715"
                 inkscape:connector-curvature="0" />
            </g>
            <g
               id="g4717"
               transform="translate(125.4996,139.3094)">
              <path
                 d="m 0,0 0,-0.001 c 0.012,0.007 0.023,0.013 0.034,0.019 l 0,0.001 C 0.023,0.013 0.011,0.006 0,0"
                 style="fill:#94d600;fill-opacity:1;fill-rule:nonzero;stroke:none"
                 id="path4719"
                 inkscape:connector-curvature="0" />
            </g>
            <g
               id="g4721"
               transform="translate(125.4717,139.2932)">
              <path
                 d="m 0,0 0,0 c 0.003,0.002 0.006,0.003 0.009,0.005 l 0,0 C 0.006,0.003 0.003,0.002 0,0"
                 style="fill:#94d600;fill-opacity:1;fill-rule:nonzero;stroke:none"
                 id="path4723"
                 inkscape:connector-curvature="0" />
            </g>
            <g
               id="g4725"
               transform="translate(125.4847,139.301)">
              <path
                 d="m 0,0 c -0.002,-0.001 -0.003,-0.002 -0.004,-0.003 l 0,0 C -0.003,-0.002 -0.001,-0.001 0,0 Z"
                 style="fill:#94d600;fill-opacity:1;fill-rule:nonzero;stroke:none"
                 id="path4727"
                 inkscape:connector-curvature="0" />
            </g>
            <g
               id="g4729"
               transform="translate(125.4908,139.3046)">
              <path
                 d="m 0,0 c -0.002,-0.001 -0.004,-0.002 -0.006,-0.003 l 0.001,-0.001 c 0.004,0.003 0.009,0.006 0.014,0.008 l 0,0.001 C 0.006,0.003 0.003,0.002 0,0"
                 style="fill:#94d600;fill-opacity:1;fill-rule:nonzero;stroke:none"
                 id="path4731"
                 inkscape:connector-curvature="0" />
            </g>
            <g
               id="g4733"
               transform="translate(125.5336,139.3279)">
              <path
                 d="M 0,0 C 0.066,0.039 0.133,0.072 0.198,0.112 0.133,0.072 0.066,0.037 0,0 Z"
                 style="fill:#94d600;fill-opacity:1;fill-rule:nonzero;stroke:none"
                 id="path4735"
                 inkscape:connector-curvature="0" />
            </g>
            <g
               id="g4737"
               transform="translate(125.7319,139.4395)">
              <path
                 d="m 0,0 -0.004,0.007 c 0,0 0,0 0,0 L 0,0 Z"
                 style="fill:#94d600;fill-opacity:1;fill-rule:nonzero;stroke:none"
                 id="path4739"
                 inkscape:connector-curvature="0" />
            </g>
            <g
               id="g4741"
               transform="translate(125.4716,139.2932)">
              <path
                 d="M 0,0 0,0 C 0,0 0,0 0,0 L 0,0 C 0,0 0,0 0,0"
                 style="fill:#94d600;fill-opacity:1;fill-rule:nonzero;stroke:none"
                 id="path4743"
                 inkscape:connector-curvature="0" />
            </g>
            <g
               id="g4745"
               transform="translate(125.4636,139.2885)">
              <path
                 d="M 0,0 C 0,0 0.001,0.001 0.001,0.001 0.001,0.001 0,0 0,0"
                 style="fill:#94d600;fill-opacity:1;fill-rule:nonzero;stroke:none"
                 id="path4747"
                 inkscape:connector-curvature="0" />
            </g>
            <g
               id="g4749"
               transform="translate(125.471,139.2928)">
              <path
                 d="m 0,0 c -0.002,-0.001 -0.004,-0.002 -0.006,-0.003 0.002,0.001 0.004,0.002 0.007,0.003 l 0,0 L 0,0 Z"
                 style="fill:#94d600;fill-opacity:1;fill-rule:nonzero;stroke:none"
                 id="path4751"
                 inkscape:connector-curvature="0" />
            </g>
            <g
               id="g4753"
               transform="translate(125.2114,140.3036)">
              <path
                 d="m 0,0 -0.516,0.856 -14.19,23.555 c -0.286,-0.173 -0.58,-0.329 -0.874,-0.487 -0.295,-0.159 -0.594,-0.307 -0.896,-0.45 -2.726,-1.294 -5.677,-1.954 -8.631,-1.954 -1.936,0 -3.871,0.28 -5.742,0.838 -0.319,0.095 -0.63,0.22 -0.945,0.332 -0.314,0.111 -0.633,0.207 -0.943,0.335 l -10.464,-25.412 -0.411,-0.996 -0.351,-0.853 -0.002,-0.004 c 0.027,-0.012 0.055,-0.021 0.082,-0.032 0.029,-0.012 0.057,-0.021 0.086,-0.033 0,0 0,0 0,0 10e-4,0 0.002,0 0.003,-0.001 0.006,-0.002 0.013,-0.005 0.019,-0.007 0.248,-0.101 0.496,-0.189 0.744,-0.285 0.312,-0.121 0.623,-0.244 0.935,-0.358 0.159,-0.058 0.317,-0.126 0.476,-0.182 0,0 10e-4,0 10e-4,0 0,0 0,0 0,0 3.278,-1.158 6.67,-1.969 10.119,-2.422 0.135,-0.016 0.269,-0.035 0.405,-0.054 0.14,-0.016 0.283,-0.03 0.424,-0.046 0.266,-0.03 0.531,-0.061 0.798,-0.087 0.066,-0.005 0.132,-0.011 0.197,-0.017 0.328,-0.031 0.654,-0.059 0.98,-0.082 0.111,-0.008 0.222,-0.013 0.333,-0.021 0.287,-0.019 0.572,-0.037 0.858,-0.05 0.175,-0.01 0.35,-0.015 0.527,-0.021 0.226,-0.009 0.453,-0.018 0.682,-0.024 0.327,-0.008 0.657,-0.011 0.986,-0.013 0.078,0 0.155,-0.001 0.233,-0.003 2.755,0 5.509,0.229 8.232,0.686 l 0,0 c 0.047,0.007 0.091,0.015 0.138,0.021 0.288,0.051 0.576,0.104 0.864,0.158 0.164,0.032 0.329,0.062 0.492,0.095 0.168,0.034 0.337,0.07 0.505,0.105 0.281,0.059 0.561,0.12 0.842,0.185 0.05,0.01 0.1,0.021 0.151,0.034 4.141,0.965 8.141,2.46 11.897,4.436 10e-4,0 10e-4,0 0.002,10e-4 l 0,0 c 0.246,0.129 0.486,0.277 0.731,0.411 0.292,0.16 0.582,0.325 0.872,0.491 0.201,0.115 0.404,0.222 0.603,0.34 0.001,0 0.001,0 0.002,10e-4 0.002,0.001 0.004,0.002 0.006,0.003 l 0,10e-4 c 0,0 0,0 0,0 0.003,0.001 0.006,0.003 0.009,0.005 0.001,10e-4 0.003,0.002 0.004,0.002 L 0.237,-0.94 0.274,-1.002 C 0.276,-1.001 0.278,-1 0.279,-0.999 l 0.009,0.005 c 0.011,0.007 0.022,0.013 0.033,0.02 0.065,0.039 0.13,0.078 0.195,0.117 0,0 0,0 0,0 L 0,0 Z"
                 style="fill:#94d600;fill-opacity:1;fill-rule:nonzero;stroke:none"
                 id="path4755"
                 inkscape:connector-curvature="0" />
            </g>
            <g
               id="g4757"
               transform="translate(87.4059,197.4879)">
              <path
                 d="M 0,0 C 0.23,0.186 0.462,0.366 0.697,0.54 L 0.645,0.627 -14.556,25.862 c -0.706,-0.462 -1.404,-0.937 -2.085,-1.437 -1.47,-1.082 -2.893,-2.257 -4.262,-3.522 L -0.082,0.082 0,0 Z"
                 style="fill:#94d600;fill-opacity:1;fill-rule:nonzero;stroke:none"
                 id="path4759"
                 inkscape:connector-curvature="0" />
            </g>
            <g
               id="g4761"
               transform="translate(65.0597,217.0057)">
              <path
                 d="M 0,0 C -0.237,-0.237 -0.461,-0.482 -0.692,-0.722 -0.923,-0.963 -1.158,-1.201 -1.384,-1.445 -2.922,-3.11 -4.328,-4.854 -5.596,-6.665 -5.657,-6.75 -5.718,-6.839 -5.778,-6.926 -5.921,-7.134 -6.062,-7.342 -6.201,-7.551 -6.346,-7.768 -6.49,-7.988 -6.63,-8.207 c -0.053,-0.08 -0.105,-0.161 -0.156,-0.241 -4.789,-7.513 -7.355,-16.034 -7.7,-24.627 -0.014,-0.333 -0.02,-0.667 -0.027,-1 -0.006,-0.333 -0.017,-0.667 -0.017,-1 l 29.488,0 c 0,0.334 0.031,0.667 0.048,1 0.016,0.334 0.021,0.668 0.054,1 0.382,3.84 1.864,7.589 4.447,10.739 0.21,0.256 0.448,0.496 0.672,0.743 0.224,0.248 0.433,0.504 0.671,0.743 L 0,0 Z"
                 style="fill:#4d5a31;fill-opacity:1;fill-rule:nonzero;stroke:none"
                 id="path4763"
                 inkscape:connector-curvature="0" />
            </g>
            <g
               id="g4765"
               transform="translate(125.9025,224.3253)">
              <path
                 d="m 0,0 c -0.04,0.025 -0.082,0.049 -0.122,0.073 -0.259,0.159 -0.521,0.312 -0.783,0.466 -0.152,0.087 -0.304,0.173 -0.457,0.26 -0.154,0.086 -0.306,0.172 -0.461,0.257 -0.266,0.146 -0.532,0.289 -0.801,0.431 -0.041,0.022 -0.083,0.045 -0.126,0.066 -1.728,0.905 -3.504,1.701 -5.318,2.391 -0.047,0.019 -0.095,0.037 -0.141,0.054 -0.395,0.148 -0.792,0.295 -1.19,0.434 -3.22,1.124 -6.552,1.914 -9.936,2.358 -0.139,0.019 -0.277,0.038 -0.415,0.055 -0.139,0.017 -0.277,0.031 -0.414,0.047 -0.267,0.031 -0.534,0.061 -0.802,0.087 -0.074,0.007 -0.149,0.012 -0.224,0.019 -0.317,0.03 -0.635,0.058 -0.952,0.08 -0.124,0.009 -0.248,0.016 -0.372,0.023 -0.272,0.018 -0.547,0.037 -0.819,0.049 -0.146,0.007 -0.29,0.012 -0.434,0.017 l -0.002,-29.444 0,-0.116 c 1.517,-0.157 3.02,-0.48 4.479,-0.975 L 2.464,-1.614 C 1.657,-1.055 0.84,-0.511 0,0"
                 style="fill:#4d5a31;fill-opacity:1;fill-rule:nonzero;stroke:none"
                 id="path4767"
                 inkscape:connector-curvature="0" />
            </g>
            <g
               id="g4769"
               transform="translate(75.0587,223.5587)">
              <path
                 d="M 0,0 -0.516,0.857 0,0 Z"
                 style="fill:#6ba53a;fill-opacity:1;fill-rule:nonzero;stroke:none"
                 id="path4771"
                 inkscape:connector-curvature="0" />
            </g>
            <g
               id="g4773"
               transform="translate(74.5393,224.4209)">
              <path
                 d="M 0,0 0.003,-0.005 0,0 Z"
                 style="fill:#6ba53a;fill-opacity:1;fill-rule:nonzero;stroke:none"
                 id="path4775"
                 inkscape:connector-curvature="0" />
            </g>
            <g
               id="g4777"
               transform="translate(99.1352,231.5145)">
              <path
                 d="m 0,0 c -0.333,-0.007 -0.667,-0.008 -1,-0.021 -2.086,-0.084 -4.168,-0.297 -6.233,-0.643 -0.046,-0.007 -0.091,-0.014 -0.136,-0.022 -0.29,-0.05 -0.577,-0.103 -0.865,-0.158 -0.163,-0.03 -0.327,-0.061 -0.49,-0.094 -0.17,-0.033 -0.339,-0.068 -0.508,-0.106 -0.28,-0.058 -0.56,-0.119 -0.84,-0.184 l 0,0 c -0.05,-0.011 -0.101,-0.023 -0.153,-0.034 -4.141,-0.966 -8.142,-2.461 -11.899,-4.438 0,0 0,0 0,0 0,0 0,0 -0.001,0 -0.245,-0.13 -0.484,-0.277 -0.728,-0.411 -0.292,-0.16 -0.582,-0.325 -0.872,-0.491 -0.215,-0.124 -0.434,-0.238 -0.648,-0.366 -0.002,-0.001 -0.005,-0.003 -0.007,-0.004 0,0 -0.001,0 -0.001,0 -0.015,-0.009 -0.03,-0.017 -0.045,-0.026 -0.056,-0.033 -0.114,-0.062 -0.17,-0.096 l 0.003,-0.005 0.517,-0.857 -0.001,0 14.706,-24.412 c 0.287,0.173 0.581,0.33 0.874,0.487 0.295,0.159 0.594,0.308 0.895,0.452 2.101,1 4.333,1.62 6.601,1.85 0.333,0.033 0.666,0.061 1,0.078 0.333,0.017 0.666,0.035 1,0.035 L 1,0.021 C 0.667,0.021 0.333,0.007 0,0"
                 style="fill:#6ba53a;fill-opacity:1;fill-rule:nonzero;stroke:none"
                 id="path4779"
                 inkscape:connector-curvature="0" />
            </g>
            <g
               id="g4781"
               transform="translate(149.6791,184.3689)">
              <path
                 d="m 0,0 c -0.014,0.265 -0.03,0.529 -0.048,0.795 -0.008,0.132 -0.015,0.263 -0.026,0.397 -0.022,0.311 -0.048,0.622 -0.077,0.934 -0.006,0.08 -0.013,0.161 -0.021,0.241 -0.034,0.348 -0.072,0.696 -0.112,1.043 -0.003,0.028 -0.006,0.056 -0.01,0.084 -0.001,0.014 -0.003,0.027 -0.004,0.041 -0.047,0.375 -0.096,0.749 -0.149,1.124 -0.001,0.012 -0.003,0.025 -0.006,0.035 -0.339,2.351 -0.846,4.681 -1.524,6.971 -0.005,0.016 -0.009,0.03 -0.013,0.045 -0.107,0.356 -0.216,0.71 -0.329,1.063 -0.015,0.046 -0.03,0.093 -0.045,0.14 -0.104,0.32 -0.21,0.637 -0.321,0.955 -0.031,0.085 -0.06,0.171 -0.09,0.257 -0.098,0.275 -0.197,0.549 -0.3,0.823 -0.049,0.13 -0.099,0.261 -0.149,0.391 -0.086,0.227 -0.175,0.453 -0.265,0.678 -0.072,0.18 -0.145,0.357 -0.218,0.534 -0.072,0.176 -0.146,0.35 -0.22,0.526 -0.097,0.224 -0.195,0.448 -0.294,0.671 -0.056,0.126 -0.112,0.252 -0.17,0.379 -0.122,0.266 -0.247,0.532 -0.374,0.797 -0.038,0.081 -0.076,0.162 -0.116,0.242 -0.146,0.303 -0.296,0.606 -0.448,0.907 -0.022,0.04 -0.043,0.083 -0.066,0.125 -0.17,0.331 -0.343,0.663 -0.521,0.99 -0.006,0.011 -0.012,0.024 -0.019,0.035 -0.859,1.58 -1.802,3.108 -2.822,4.578 L -30.518,4.04 c 0.495,-1.459 0.817,-2.961 0.974,-4.477 l 0.116,0 29.445,0 C 0.012,-0.291 0.007,-0.145 0,0"
                 style="fill:#4d5a31;fill-opacity:1;fill-rule:nonzero;stroke:none"
                 id="path4783"
                 inkscape:connector-curvature="0" />
            </g>
            <g
               id="g4785"
               transform="translate(120.2514,181.9314)">
              <path
                 d="m 0,0 c 0,-0.334 -0.031,-0.666 -0.048,-1 -0.016,-0.333 -0.021,-0.667 -0.054,-1 -0.381,-3.84 -1.863,-7.59 -4.447,-10.74 -0.21,-0.256 -0.447,-0.496 -0.672,-0.744 -0.224,-0.247 -0.432,-0.503 -0.67,-0.742 l 20.851,-20.85 c 0.237,0.237 0.46,0.482 0.691,0.722 0.231,0.241 0.466,0.479 0.692,0.723 1.542,1.671 2.953,3.42 4.223,5.237 0.051,0.071 0.099,0.143 0.148,0.214 0.156,0.223 0.306,0.448 0.458,0.673 0.133,0.201 0.266,0.402 0.395,0.605 0.064,0.097 0.128,0.197 0.19,0.295 4.781,7.508 7.341,16.021 7.684,24.607 0.014,0.333 0.02,0.667 0.027,1 0.006,0.333 0.017,0.667 0.017,1 L 0,0 Z"
                 style="fill:#6ba53a;fill-opacity:1;fill-rule:nonzero;stroke:none"
                 id="path4787"
                 inkscape:connector-curvature="0" />
            </g>
            <g
               id="g4789"
               transform="translate(158.4969,240.2935)">
              <path
                 d="m 0,0 c -5.395,5.395 -14.142,5.395 -19.536,0 -4.304,-4.303 -5.163,-10.736 -2.601,-15.902 l -30.091,-30.092 c -5.166,2.562 -11.598,1.703 -15.903,-2.6 -5.395,-5.395 -5.394,-14.142 0,-19.537 5.396,-5.395 14.143,-5.394 19.538,0.001 4.304,4.303 5.163,10.736 2.599,15.902 l 30.092,30.091 C -10.736,-24.699 -4.304,-23.84 0,-19.536 5.394,-14.142 5.394,-5.395 0,0"
                 style="fill:#424143;fill-opacity:1;fill-rule:nonzero;stroke:none"
                 id="path4791"
                 inkscape:connector-curvature="0" />
            </g>
            <g
               id="g4793"
               transform="translate(205.4351,192.6109)">
              <path
                 d="m 0,0 c 0,9.194 -5.81,16.107 -14.856,16.107 -9.121,0 -14.931,-6.913 -14.931,-16.107 0,-9.119 5.81,-16.107 14.931,-16.107 C -5.81,-16.107 0,-9.119 0,0 m -40.524,0 c 0,14.783 10.811,25.374 25.668,25.374 14.783,0 25.594,-10.591 25.594,-25.374 0,-14.782 -10.811,-25.375 -25.594,-25.375 -14.857,0 -25.668,10.593 -25.668,25.375"
                 style="fill:#424143;fill-opacity:1;fill-rule:nonzero;stroke:none"
                 id="path4795"
                 inkscape:connector-curvature="0" />
            </g>
            <g
               id="g4797"
               transform="translate(250.4413,201.3631)">
              <path
                 d="m 0,0 c 0,4.119 -3.162,6.619 -7.282,6.619 l -11.031,0 0,-13.165 11.031,0 C -3.162,-6.546 0,-4.045 0,0 m -28.758,-33.243 0,49.055 22.949,0 C 4.853,15.812 10.665,8.605 10.665,0 c 0,-8.531 -5.885,-15.74 -16.474,-15.74 l -12.504,0 0,-17.503 -10.445,0 z"
                 style="fill:#424143;fill-opacity:1;fill-rule:nonzero;stroke:none"
                 id="path4799"
                 inkscape:connector-curvature="0" />
            </g>
            <g
               id="g4801"
               transform="translate(265.8082,168.1199)">
              <path
                 d="m 0,0 0,49.056 34.715,0 0,-9.194 -24.27,0 0,-10.296 23.756,0 0,-9.194 -23.756,0 0,-11.178 24.27,0 L 34.715,0 0,0 Z"
                 style="fill:#424143;fill-opacity:1;fill-rule:nonzero;stroke:none"
                 id="path4803"
                 inkscape:connector-curvature="0" />
            </g>
            <g
               id="g4805"
               transform="translate(340.6751,168.1199)">
              <path
                 d="m 0,0 -23.386,31.993 0,-31.993 -10.446,0 0,49.056 10.74,0 22.725,-30.817 0,30.817 10.444,0 L 10.077,0 0,0 Z"
                 style="fill:#424143;fill-opacity:1;fill-rule:nonzero;stroke:none"
                 id="path4807"
                 inkscape:connector-curvature="0" />
            </g>
            <g
               id="g4809"
               transform="translate(389.8465,206.7318)">
              <path
                 d="m 0,0 -7.648,-21.108 15.299,0 L 0,0 Z m 13.607,-38.612 -3.09,8.311 -21.034,0 -3.088,-8.311 -11.842,0 18.901,49.056 13.094,0 18.899,-49.056 -11.84,0 z"
                 style="fill:#424143;fill-opacity:1;fill-rule:nonzero;stroke:none"
                 id="path4811"
                 inkscape:connector-curvature="0" />
            </g>
            <g
               id="g4813"
               transform="translate(446.7681,201.3631)">
              <path
                 d="m 0,0 c 0,4.119 -3.162,6.619 -7.282,6.619 l -11.032,0 0,-13.165 11.032,0 C -3.162,-6.546 0,-4.045 0,0 m -28.757,-33.243 0,49.055 22.947,0 C 4.853,15.812 10.664,8.605 10.664,0 c 0,-8.531 -5.885,-15.74 -16.474,-15.74 l -12.504,0 0,-17.503 -10.443,0 z"
                 style="fill:#424143;fill-opacity:1;fill-rule:nonzero;stroke:none"
                 id="path4815"
                 inkscape:connector-curvature="0" />
            </g>
            <path
               d="m 462.135,217.176 10.445,0 0,-49.056 -10.445,0 0,49.056 z"
               style="fill:#424143;fill-opacity:1;fill-rule:nonzero;stroke:none"
               id="path4817"
               inkscape:connector-curvature="0" />
            <path
               d="m 295.765,152.913 2.869,0 0,-16.352 -2.869,0 0,16.352 z"
               style="fill:#6ba53a;fill-opacity:1;fill-rule:nonzero;stroke:none"
               id="path4819"
               inkscape:connector-curvature="0" />
            <g
               id="g4821"
               transform="translate(320.5,136.5609)">
              <path
                 d="m 0,0 -8.532,11.695 0,-11.695 -2.868,0 0,16.352 2.942,0 8.36,-11.326 0,11.326 2.868,0 L 2.77,0 0,0 Z"
                 style="fill:#6ba53a;fill-opacity:1;fill-rule:nonzero;stroke:none"
                 id="path4823"
                 inkscape:connector-curvature="0" />
            </g>
            <path
               d="m 333.736,152.913 2.869,0 0,-16.352 -2.869,0 0,16.352 z"
               style="fill:#6ba53a;fill-opacity:1;fill-rule:nonzero;stroke:none"
               id="path4825"
               inkscape:connector-curvature="0" />
            <g
               id="g4827"
               transform="translate(350.9696,136.5609)">
              <path
                 d="m 0,0 0,13.827 -4.953,0 0,2.525 12.773,0 0,-2.525 -4.951,0 L 2.869,0 0,0 Z"
                 style="fill:#6ba53a;fill-opacity:1;fill-rule:nonzero;stroke:none"
                 id="path4829"
                 inkscape:connector-curvature="0" />
            </g>
            <path
               d="m 368.202,152.913 2.869,0 0,-16.352 -2.869,0 0,16.352 z"
               style="fill:#6ba53a;fill-opacity:1;fill-rule:nonzero;stroke:none"
               id="path4831"
               inkscape:connector-curvature="0" />
            <g
               id="g4833"
               transform="translate(388.0586,150.0452)">
              <path
                 d="m 0,0 -2.943,-7.796 5.884,0 L 0,0 Z m 4.953,-13.484 -1.203,3.163 -7.501,0 -1.202,-3.163 -3.261,0 6.424,16.352 3.579,0 6.423,-16.352 -3.259,0 z"
                 style="fill:#6ba53a;fill-opacity:1;fill-rule:nonzero;stroke:none"
                 id="path4835"
                 inkscape:connector-curvature="0" />
            </g>
            <g
               id="g4837"
               transform="translate(407.3253,136.5609)">
              <path
                 d="m 0,0 0,13.827 -4.953,0 0,2.525 12.773,0 0,-2.525 -4.951,0 L 2.869,0 0,0 Z"
                 style="fill:#6ba53a;fill-opacity:1;fill-rule:nonzero;stroke:none"
                 id="path4839"
                 inkscape:connector-curvature="0" />
            </g>
            <path
               d="m 424.559,152.913 2.869,0 0,-16.352 -2.869,0 0,16.352 z"
               style="fill:#6ba53a;fill-opacity:1;fill-rule:nonzero;stroke:none"
               id="path4841"
               inkscape:connector-curvature="0" />
            <g
               id="g4843"
               transform="translate(442.6259,136.5609)">
              <path
                 d="m 0,0 -6.425,16.352 3.261,0 4.953,-13.214 4.952,13.214 3.26,0 L 3.578,0 0,0 Z"
                 style="fill:#6ba53a;fill-opacity:1;fill-rule:nonzero;stroke:none"
                 id="path4845"
                 inkscape:connector-curvature="0" />
            </g>
            <g
               id="g4847"
               transform="translate(461.3767,136.5609)">
              <path
                 d="m 0,0 0,16.352 11.203,0 0,-2.525 -8.334,0 0,-4.216 8.163,0 0,-2.525 -8.163,0 0,-4.56 8.334,0 L 11.203,0 0,0 Z"
                 style="fill:#6ba53a;fill-opacity:1;fill-rule:nonzero;stroke:none"
                 id="path4849"
                 inkscape:connector-curvature="0" />
            </g>
          </g>
        </g>
      </g>
      <g
         id="g5916"
         inkscape:label="ink_ext_XXXXXX"
         transform="matrix(0.20461945,0,0,-0.20461945,-150.76923,390.97796)">
        <g
           id="g5918"
           transform="scale(0.1,0.1)">
          <path
             d="m 1601.05,1671.39 0,305.52 c 0,40.12 25.1,72.39 66.65,72.39 l 11.52,0 c 41.54,0 66.52,-32.29 66.52,-72.39 l 0,-643.2 c 0,-156.85 -77.5,-281.64 -212.52,-361.151 -62.61,-36.84 -131.79,-55.739 -204.37,-55.739 l -28.69,0 c -156.88,0 -281.53,77.551 -361.156,212.5 -36.953,62.65 -55.723,131.73 -55.723,204.39 l 0,28.67 c 0,156.9 77.539,281.62 212.459,361.27 62.66,36.99 131.74,55.74 204.42,55.74 l 28.69,0 c 106.17,0 196.25,-41.15 272.2,-108 z m -573.1,-323.32 c 0,-113.3 54.92,-198.48 154.2,-252.8 40.14,-21.97 83.73,-33.77 129.53,-33.77 111.21,0 193.69,52.46 250.59,146.7 26.46,43.85 38.78,91.8 38.78,142.8 0,98.22 -46.5,174.86 -125.64,231.79 -47.99,34.51 -102.01,51.82 -160.92,51.82 -121.21,0 -208.44,-61.23 -260.8,-170.02 -17.67,-36.78 -25.74,-75.84 -25.74,-116.52 z m 1219.73,431.32 20.05,0 c 167.64,0 295.12,-81.32 375.92,-227.65 32.31,-58.54 49.59,-122.42 49.59,-189.36 l 0,-28.67 c 0,-156.84 -77.34,-281.82 -212.58,-361.171 -62.61,-36.719 -131.77,-55.719 -204.33,-55.719 l -28.65,0 c -156.88,0 -281.55,77.551 -361.16,212.5 -36.95,62.65 -55.76,131.73 -55.76,204.39 l 0,28.67 c 0,156.92 77.83,281.23 212.42,361.23 62.58,37.19 131.78,55.78 204.5,55.78 z m -272.25,-431.32 c 0,-109.98 53.98,-190.88 146.87,-247.76 43.62,-26.72 91.65,-38.81 142.62,-38.81 108.67,0 188.99,55.1 244.9,146.82 26.66,43.73 38.72,91.76 38.72,142.68 0,102.26 -49.26,180.39 -133.46,237.01 -46.15,31.05 -97.52,46.6 -153.09,46.6 -121.21,0 -208.44,-61.23 -260.78,-170.02 -17.71,-36.78 -25.78,-75.84 -25.78,-116.52 z m 1319.3,274.98 c -21.84,10.23 -62.74,13.63 -86.35,14.53 -120.88,4.55 -208.34,-63.52 -259.65,-170.16 -17.71,-36.78 -25.8,-75.72 -25.8,-116.42 0,-123.93 65.06,-210.69 175.68,-263.58 40.41,-19.31 92.58,-22.99 136.74,-22.99 38.85,0 93.73,23.81 128.2,40.18 l 5.98,2.83 26.74,0 2.95,-0.6 c 32.91,-6.84 57.75,-27.7 57.75,-63.11 l 0,-14.32 c 0,-88.078 -160.99,-108.262 -222.42,-112.539 -216.78,-15.012 -378.91,104.049 -440.72,310.829 -10.74,35.89 -15.57,71.56 -15.57,108.98 l 0,28.63 c 0,156.9 77.85,281.17 212.42,361.12 62.58,37.16 131.78,55.82 204.48,55.82 l 28.67,0 c 77.11,0 148.14,-21.9 211.81,-65.39 l 5.24,-3.62 3.3,-5.45 c 6.87,-11.4 12.79,-24.57 12.79,-38.14 l 0,-14.32 c 0,-36.93 -27.63,-56.79 -60.99,-63.22 l -2.76,-0.49 -8.55,0 c -21.6,0 -70.67,22.36 -89.94,31.43 z m 469.29,-97.97 c 56.19,56.27 112.6,112.44 169.63,167.79 15.9,15.43 76.08,80.78 99.77,80.78 l 25.92,0 2.95,-0.6 c 33,-6.86 57.73,-27.76 57.73,-63.23 l 0,-14.31 c 0,-24.2 -28.34,-52.31 -43.97,-68.87 -33.24,-35.23 -68.24,-69.32 -102.26,-103.83 L 3799,1345.37 c 75.26,-75.43 150.45,-150.94 225.1,-226.95 20.65,-21.02 41.31,-42.07 61.64,-63.4 7.19,-7.56 17.8,-16.97 23.83,-27.46 6.47,-9.81 10.45,-20.88 10.45,-32.701 l 0,-14.961 -0.84,-3.437 c -8.13,-33 -29.08,-59.641 -65.66,-59.641 l -11.51,0 c -23.94,0 -50.97,27.09 -67.38,42.551 -33.77,31.859 -66.41,65.359 -99.53,97.899 l -111.08,109.04 0,-174.279 c 0,-40.14 -25.13,-72.402 -66.64,-72.402 l -11.4,0 c -41.55,0 -66.64,32.262 -66.64,72.402 l 0,982.069 c 0,40.16 25.11,72.27 66.64,72.27 l 11.4,0 c 41.51,0 66.64,-32.11 66.64,-72.27 l 0,-449.02 z m 1803.28,248.57 14.36,0 c 43.4,0 72.36,-29.24 72.36,-72.38 0,-59.9 -57.26,-75.23 -106.81,-75.23 -64.98,0 -127.01,-39.34 -171.8,-83.46 -55.86,-55.06 -80.31,-125.59 -80.31,-203.11 l 0,-350.271 c 0,-40.16 -25.06,-72.379 -66.66,-72.379 l -11.41,0 c -41.58,0 -66.64,32.219 -66.64,72.379 l 0,370.371 c 0,142.23 69.24,258.32 184.65,339.75 68.94,48.65 147.87,74.33 232.26,74.33 z M 4538.95,1079.51 c 52.65,-18.38 112.69,-15.76 166.71,-6.35 27.62,11.74 98.29,42.56 124.28,38.05 l 4.06,-0.68 3.73,-1.84 c 15.86,-7.69 31.02,-18.57 39.11,-34.71 18.94,-37.87 9.84,-75.91 -27.35,-97.398 l -12.38,-7.152 c -137.25,-79.219 -283.22,-68.239 -420.02,5.75 -65.41,35.35 -115.45,87.85 -152.36,151.83 l -8.64,14.96 c -88.1,152.58 -76.21,313.09 23.15,458.19 34.31,50.15 79.14,88.9 131.56,119.2 l 19.83,11.44 c 129.25,74.61 267.77,69.51 400.52,4.02 71.37,-35.21 129.2,-87.71 169.05,-156.73 l 7.16,-12.43 c 28.95,-50.15 -8.55,-93.86 -47.26,-123.73 -44.92,-34.66 -90.28,-76.36 -133.34,-113.53 -96,-82.87 -191.86,-165.94 -287.81,-248.89 z m -124.26,87.27 c 107.38,92.07 214.78,184.2 321.85,276.64 36.59,31.56 76.72,64.31 113.03,97.5 -29.14,36.7 -77.79,63.16 -119.14,78.94 -83.44,31.8 -165.74,21.12 -242.27,-23.06 -100.19,-57.84 -142.85,-149.96 -139.1,-264.59 1.47,-45.14 13.62,-88.64 37.58,-127.05 8.44,-13.54 17.87,-26.25 28.05,-38.38"
             style="fill:#354750;fill-opacity:1;fill-rule:evenodd;stroke:none"
             id="path5920"
             inkscape:connector-curvature="0" />
          <path
             d="m 3633.87,4066.09 426.95,0 0,-436.45 215.88,0 c 99.69,0 202.23,17.76 296.64,49.75 46.39,15.73 98.46,37.62 144.22,65.15 -60.27,78.69 -91.04,178.05 -100.1,275.99 -12.3,133.21 14.57,306.6 104.73,410.86 l 44.88,51.91 53.48,-42.99 c 134.65,-108.18 247.89,-259.34 267.85,-431.66 162.13,47.69 352.48,36.41 495.39,-46.07 l 58.63,-33.83 -30.86,-60.23 C 5490.7,3632.64 5238.03,3559.57 4991,3572.5 4621.35,2651.82 3816.58,2215.94 2840.8,2215.94 c -504.12,0 -966.64,188.45 -1230.02,635.72 l -4.32,7.3 -38.37,78.07 c -89.03,196.88 -118.6,412.56 -98.54,628.06 l 6.02,64.55 365.09,0 0,436.45 426.94,0 0,426.96 853.92,0 0,426.95 512.35,0 0,-853.91"
             style="fill:#354750;fill-opacity:1;fill-rule:evenodd;stroke:none"
             id="path5922"
             inkscape:connector-curvature="0" />
          <path
             d="m 5017.13,3904.63 c 28.63,222.48 -137.87,397.24 -241.13,480.21 -118.99,-137.57 -137.48,-498.12 49.2,-649.92 -104.18,-92.54 -323.72,-176.42 -548.5,-176.42 l -2736.27,0 c -21.86,-234.65 19.34,-450.73 113.42,-635.69 l 31.13,-56.93 c 19.71,-33.45 41.24,-65.73 64.51,-96.81 0.01,0 0.01,0 0.01,0 112.49,-7.22 216.21,-9.72 311.1,-7.62 0.01,0 0.03,0 0.04,0 186.48,4.13 338.63,26.13 453.95,66.09 17.17,5.97 35.88,-3.14 41.82,-20.29 5.93,-17.15 -3.15,-35.87 -20.3,-41.82 -15.33,-5.31 -31.32,-10.28 -47.83,-15 -0.02,-0.01 -0.04,-0.01 -0.06,-0.02 -90.8,-25.92 -188.16,-43.37 -313.79,-51.12 7.45,-0.12 -7.77,-1.12 -7.81,-1.13 -4.27,-0.26 -9.65,-0.87 -13.94,-1.11 -49.44,-2.77 -102.81,-3.35 -157.37,-3.35 -59.67,0 -118.44,1.13 -184.14,4.46 l -1.68,-1.11 c 227.99,-256.25 584.47,-409.94 1031.31,-409.94 945.7,0 1747.85,419.22 2103.05,1360.39 252.01,-25.86 494.2,38.4 604.37,253.46 -175.49,101.27 -401.15,68.98 -531.09,3.67"
             style="fill:#48addf;fill-opacity:1;fill-rule:nonzero;stroke:none"
             id="path5924"
             inkscape:connector-curvature="0" />
          <path
             d="m 5017.13,3904.63 c 28.63,222.48 -137.87,397.24 -241.13,480.21 -118.99,-137.57 -137.48,-498.12 49.2,-649.92 -104.18,-92.54 -323.72,-176.42 -548.5,-176.42 l -2574.24,0 c -11.17,-359.36 122.19,-632.14 358.14,-797.05 0.01,0 0.03,0 0.04,0 186.48,4.13 338.63,26.13 453.95,66.09 17.17,5.97 35.88,-3.14 41.82,-20.29 5.93,-17.15 -3.15,-35.87 -20.3,-41.82 -15.33,-5.31 -31.32,-10.28 -47.83,-15 -0.02,-0.01 -0.04,-0.01 -0.06,-0.02 -90.8,-25.92 -196.53,-45.61 -322.16,-53.36 -0.03,0 -3.04,2.91 -3.08,2.9 321.84,-165.09 788.52,-164.5 1323.56,41.03 599.94,230.47 1158.19,669.57 1547.72,1171.79 -5.88,-2.65 -11.6,-5.37 -17.13,-8.14"
             style="fill:#56beee;fill-opacity:1;fill-rule:nonzero;stroke:none"
             id="path5926"
             inkscape:connector-curvature="0" />
          <path
             d="m 1545.55,3273.4 c 17.01,-125.69 53.77,-243.38 108.3,-350.59 l 31.13,-56.93 c 19.71,-33.45 41.24,-65.73 64.52,-96.81 112.51,-7.22 216.24,-9.72 311.14,-7.62 186.48,4.13 338.63,26.13 453.95,66.09 17.17,5.97 35.88,-3.14 41.82,-20.29 5.93,-17.15 -3.15,-35.87 -20.3,-41.82 -15.33,-5.31 -31.32,-10.28 -47.83,-15 -0.02,-0.01 -0.04,-0.01 -0.06,-0.02 -90.8,-25.92 -195.97,-44.49 -321.6,-52.25 -4.31,-0.26 -11.83,-0.31 -16.18,-0.55 -49.42,-2.78 -102.24,-4.47 -156.81,-4.47 -59.66,0 -120.67,1.14 -186.36,4.47 227.98,-256.25 586.69,-410.5 1033.53,-410.5 809.61,0 1513.99,307.3 1922.81,986.29 l -3218.06,0"
             style="fill:#388bbd;fill-opacity:1;fill-rule:nonzero;stroke:none"
             id="path5928"
             inkscape:connector-curvature="0" />
          <path
             d="m 1727.09,3273.4 c 48.4,-220.69 164.71,-393.95 333.55,-511.95 186.48,4.13 338.63,26.13 453.95,66.09 17.17,5.97 35.88,-3.14 41.82,-20.29 5.93,-17.15 -3.15,-35.87 -20.3,-41.82 -15.33,-5.31 -31.32,-10.28 -47.83,-15 -0.02,-0.01 -0.04,-0.01 -0.06,-0.02 -90.8,-25.92 -198.2,-44.49 -323.83,-52.25 321.82,-165.06 787.15,-162.69 1322.15,42.82 323.66,124.35 635.16,309.47 914.63,532.42 l -2674.08,0"
             style="fill:#409ccb;fill-opacity:1;fill-rule:nonzero;stroke:none"
             id="path5930"
             inkscape:connector-curvature="0" />
          <path
             d="m 1911.82,3994.94 370.02,0 0,-370.04 -370.02,0 0,370.04 z m 30.82,-30.84 29.2,0 0,-308.38 -29.2,0 0,308.38 z m 54.9,0 30.37,0 0,-308.38 -30.37,0 0,308.38 z m 56.05,0 30.37,0 0,-308.38 -30.37,0 0,308.38 z m 56.08,0 30.37,0 0,-308.38 -30.37,0 0,308.38 z m 56.07,0 30.37,0 0,-308.38 -30.37,0 0,308.38 z m 56.06,0 29.22,0 0,-308.38 -29.22,0 0,308.38"
             style="fill:#46b0d7;fill-opacity:1;fill-rule:evenodd;stroke:none"
             id="path5932"
             inkscape:connector-curvature="0" />
          <path
             d="m 2338.75,4421.89 370.06,0 0,-370.02 -370.06,0 0,370.02 z m 30.86,-30.84 29.18,0 0,-308.35 -29.18,0 0,308.35 z m 54.9,0 30.35,0 0,-308.35 -30.35,0 0,308.35 z m 56.04,0 30.37,0 0,-308.35 -30.37,0 0,308.35 z m 56.07,0 30.37,0 0,-308.35 -30.37,0 0,308.35 z m 56.08,0 30.37,0 0,-308.35 -30.37,0 0,308.35 z m 56.05,0 29.24,0 0,-308.35 -29.24,0 0,308.35"
             style="fill:#46b0d7;fill-opacity:1;fill-rule:evenodd;stroke:none"
             id="path5934"
             inkscape:connector-curvature="0" />
          <path
             d="m 2338.75,3994.94 370.06,0 0,-370.04 -370.06,0 0,370.04 z m 30.86,-30.84 29.18,0 0,-308.38 -29.18,0 0,308.38 z m 54.9,0 30.35,0 0,-308.38 -30.35,0 0,308.38 z m 56.04,0 30.37,0 0,-308.38 -30.37,0 0,308.38 z m 56.07,0 30.37,0 0,-308.38 -30.37,0 0,308.38 z m 56.08,0 30.37,0 0,-308.38 -30.37,0 0,308.38 z m 56.05,0 29.24,0 0,-308.38 -29.24,0 0,308.38"
             style="fill:#58c8f1;fill-opacity:1;fill-rule:evenodd;stroke:none"
             id="path5936"
             inkscape:connector-curvature="0" />
          <path
             d="m 2765.72,3994.94 370.04,0 0,-370.04 -370.04,0 0,370.04 z m 30.84,-30.84 29.18,0 0,-308.38 -29.18,0 0,308.38 z m 54.89,0 30.37,0 0,-308.38 -30.37,0 0,308.38 z m 56.07,0 30.37,0 0,-308.38 -30.37,0 0,308.38 z m 56.07,0 30.37,0 0,-308.38 -30.37,0 0,308.38 z m 56.06,0 30.39,0 0,-308.38 -30.39,0 0,308.38 z m 56.07,0 29.2,0 0,-308.38 -29.2,0 0,308.38"
             style="fill:#46b0d7;fill-opacity:1;fill-rule:evenodd;stroke:none"
             id="path5938"
             inkscape:connector-curvature="0" />
          <path
             d="m 2765.72,4421.89 370.04,0 0,-370.02 -370.04,0 0,370.02 z m 30.84,-30.84 29.18,0 0,-308.35 -29.18,0 0,308.35 z m 54.89,0 30.37,0 0,-308.35 -30.37,0 0,308.35 z m 56.07,0 30.37,0 0,-308.35 -30.37,0 0,308.35 z m 56.07,0 30.37,0 0,-308.35 -30.37,0 0,308.35 z m 56.06,0 30.39,0 0,-308.35 -30.39,0 0,308.35 z m 56.07,0 29.2,0 0,-308.35 -29.2,0 0,308.35"
             style="fill:#58c8f1;fill-opacity:1;fill-rule:evenodd;stroke:none"
             id="path5940"
             inkscape:connector-curvature="0" />
          <path
             d="m 3192.68,3994.94 370.03,0 0,-370.04 -370.03,0 0,370.04 z m 30.84,-30.84 29.19,0 0,-308.38 -29.19,0 0,308.38 z m 54.9,0 30.37,0 0,-308.38 -30.37,0 0,308.38 z m 56.05,0 30.37,0 0,-308.38 -30.37,0 0,308.38 z m 56.08,0 30.37,0 0,-308.38 -30.37,0 0,308.38 z m 56.07,0 30.37,0 0,-308.38 -30.37,0 0,308.38 z m 56.06,0 29.21,0 0,-308.38 -29.21,0 0,308.38"
             style="fill:#58c8f1;fill-opacity:1;fill-rule:evenodd;stroke:none"
             id="path5942"
             inkscape:connector-curvature="0" />
          <path
             d="m 3192.68,4421.89 370.03,0 0,-370.02 -370.03,0 0,370.02 z m 30.84,-30.84 29.19,0 0,-308.35 -29.19,0 0,308.35 z m 54.9,0 30.37,0 0,-308.35 -30.37,0 0,308.35 z m 56.05,0 30.37,0 0,-308.35 -30.37,0 0,308.35 z m 56.08,0 30.37,0 0,-308.35 -30.37,0 0,308.35 z m 56.07,0 30.37,0 0,-308.35 -30.37,0 0,308.35 z m 56.06,0 29.21,0 0,-308.35 -29.21,0 0,308.35"
             style="fill:#46b0d7;fill-opacity:1;fill-rule:evenodd;stroke:none"
             id="path5944"
             inkscape:connector-curvature="0" />
          <path
             d="m 3192.68,4848.85 370.03,0 0,-370.04 -370.03,0 0,370.04 z m 30.84,-30.82 29.19,0 0,-308.38 -29.19,0 0,308.38 z m 54.9,0 30.37,0 0,-308.38 -30.37,0 0,308.38 z m 56.05,0 30.37,0 0,-308.38 -30.37,0 0,308.38 z m 56.08,0 30.37,0 0,-308.38 -30.37,0 0,308.38 z m 56.07,0 30.37,0 0,-308.38 -30.37,0 0,308.38 z m 56.06,0 29.21,0 0,-308.38 -29.21,0 0,308.38"
             style="fill:#58c8f1;fill-opacity:1;fill-rule:evenodd;stroke:none"
             id="path5946"
             inkscape:connector-curvature="0" />
          <path
             d="m 3619.63,3994.94 370.04,0 0,-370.04 -370.04,0 0,370.04 z m 30.82,-30.84 29.22,0 0,-308.38 -29.22,0 0,308.38 z m 54.9,0 30.37,0 0,-308.38 -30.37,0 0,308.38 z m 56.08,0 30.37,0 0,-308.38 -30.37,0 0,308.38 z m 56.05,0 30.37,0 0,-308.38 -30.37,0 0,308.38 z m 56.09,0 30.36,0 0,-308.38 -30.36,0 0,308.38 z m 56.06,0 29.2,0 0,-308.38 -29.2,0 0,308.38"
             style="fill:#46b0d7;fill-opacity:1;fill-rule:evenodd;stroke:none"
             id="path5948"
             inkscape:connector-curvature="0" />
          <path
             d="m 2685.64,3024.96 c 56.37,0 102.07,-45.72 102.07,-102.09 0,-56.37 -45.7,-102.07 -102.07,-102.07 -56.38,0 -102.09,45.7 -102.09,102.07 0,56.37 45.71,102.09 102.09,102.09"
             style="fill:#d7f2f2;fill-opacity:1;fill-rule:evenodd;stroke:none"
             id="path5950"
             inkscape:connector-curvature="0" />
          <path
             d="m 2685.64,2996 c 9.34,0 18.25,-1.76 26.47,-4.95 -8.91,-5.15 -14.94,-14.8 -14.94,-25.84 0,-16.48 13.36,-29.82 29.84,-29.82 11.29,0 21.1,6.27 26.17,15.53 3.58,-8.63 5.57,-18.11 5.57,-28.05 0,-40.37 -32.73,-73.1 -73.11,-73.1 -40.37,0 -73.12,32.73 -73.12,73.1 0,40.39 32.75,73.13 73.12,73.13"
             style="fill:#354750;fill-opacity:1;fill-rule:evenodd;stroke:none"
             id="path5952"
             inkscape:connector-curvature="0" />
          <path
             d="m 880,3236.5 4748.77,0 c -103.4,26.23 -327.15,61.66 -290.25,197.17 -188.01,-217.56 -641.43,-152.63 -755.86,-45.35 -127.43,-184.82 -869.26,-114.57 -921,29.41 -159.75,-187.48 -654.77,-187.48 -814.53,0 -51.76,-143.98 -793.58,-214.23 -921.02,-29.41 -114.43,-107.28 -567.81,-172.21 -755.84,45.35 C 1207.17,3298.16 983.418,3262.73 880,3236.5"
             style="fill:#354750;fill-opacity:1;fill-rule:evenodd;stroke:none"
             id="path5954"
             inkscape:connector-curvature="0" />
          <path
             d="m 2957.01,2289.32 c -252.81,119.97 -391.58,283.05 -468.79,461.09 -93.9,-26.81 -206.79,-43.94 -337.95,-51.3 -49.41,-2.77 -101.38,-4.19 -155.93,-4.19 -62.88,0 -129.14,1.86 -198.7,5.55 231.84,-231.7 517.06,-410.1 1045.16,-413.36 38.99,0 77.7,0.76 116.21,2.21"
             style="fill:#c2e1e1;fill-opacity:1;fill-rule:nonzero;stroke:none"
             id="path5956"
             inkscape:connector-curvature="0" />
          <path
             d="m 2582.13,2586.13 c -34.98,47.48 -68.91,107.15 -93.85,164.3 -93.92,-26.82 -206.83,-43.96 -338.01,-51.32 90.1,-48.91 218.97,-94.23 431.86,-112.98"
             style="fill:#d7f2f2;fill-opacity:1;fill-rule:nonzero;stroke:none"
             id="path5958"
             inkscape:connector-curvature="0" />
        </g>
      </g>
      <g
         inkscape:label="Layer 1"
         id="layer1-3"
         transform="matrix(0.10459512,0,0,0.10459512,71.211769,276.29412)">
        <g
           id="g3052">
          <path
             style="fill:#326ce5;fill-opacity:1;stroke:#ffffff;stroke-width:0;stroke-miterlimit:4;stroke-dasharray:none;stroke-opacity:1"
             d="m 365.3125,184.8125 a 46.724621,46.342246 0 0 0 -17.90625,4.53125 l -244.34375,116.75 a 46.724621,46.342246 0 0 0 -25.28125,31.4375 L 17.5,599.78125 A 46.724621,46.342246 0 0 0 23.84375,635.3125 46.724621,46.342246 0 0 0 26.5,639 l 169.125,210.28125 a 46.724621,46.342246 0 0 0 36.53125,17.4375 L 503.375,866.65625 A 46.724621,46.342246 0 0 0 539.90625,849.25 L 708.96875,638.9375 A 46.724621,46.342246 0 0 0 718,599.71875 l -60.375,-262.25 a 46.724621,46.342246 0 0 0 -25.28125,-31.4375 l -244.375,-116.6875 A 46.724621,46.342246 0 0 0 365.3125,184.8125 Z"
             id="path3055"
             inkscape:connector-curvature="0"
             inkscape:export-filename="new.png"
             inkscape:export-xdpi="250.55"
             inkscape:export-ydpi="250.55" />
          <path
             inkscape:connector-curvature="0"
             id="path3059"
             d="m 367.73366,274.05962 c -8.07696,8.2e-4 -14.62596,7.27591 -14.625,16.25 1e-5,0.13773 0.0282,0.26934 0.0312,0.40625 -0.0119,1.21936 -0.0708,2.68836 -0.0312,3.75 0.19262,5.176 1.3209,9.13749 2,13.90625 1.23028,10.20666 2.26117,18.66736 1.625,26.53125 -0.61869,2.9654 -2.80288,5.67741 -4.75,7.5625 l -0.34375,6.1875 c -8.77682,0.72717 -17.61235,2.05874 -26.4375,4.0625 -37.97461,8.62218 -70.67008,28.18307 -95.5625,54.59375 -1.61522,-1.10193 -4.44103,-3.12914 -5.2813,-3.75 -2.61117,0.35262 -5.25021,1.15829 -8.6875,-0.84375 -6.54491,-4.40563 -12.50587,-10.48693 -19.71875,-17.8125 -3.30498,-3.50419 -5.69832,-6.84101 -9.625,-10.21875 -0.89172,-0.76707 -2.25258,-1.80455 -3.25,-2.59375 -3.06988,-2.44757 -6.6907,-3.72402 -10.1875,-3.84375 -4.49589,-0.15394 -8.82394,1.60385 -11.65625,5.15625 -5.03521,6.31538 -3.42312,15.96805 3.59375,21.5625 0.0712,0.0567 0.14702,0.10078 0.21875,0.15625 0.96422,0.78162 2.14496,1.78313 3.03125,2.4375 4.16687,3.07655 7.9732,4.65145 12.125,7.09375 8.747,5.40181 15.99837,9.88086 21.75,15.28125 2.24602,2.39417 2.63858,6.61292 2.9375,8.4375 l 4.6875,4.1875 c -25.09342,37.76368 -36.70686,84.40946 -29.8437,131.9375 l -6.125,1.78125 c -1.6143,2.08461 -3.89541,5.36474 -6.2813,6.34375 -7.52513,2.37021 -15.99424,3.24059 -26.21875,4.3125 -4.80031,0.39915 -8.94218,0.16095 -14.03125,1.125 -1.12008,0.21218 -2.68072,0.61877 -3.90625,0.90625 -0.0426,0.009 -0.0824,0.0216 -0.125,0.0312 -0.0668,0.0155 -0.15456,0.0479 -0.21875,0.0625 -8.62014,2.08279 -14.15774,10.006 -12.375,17.8125 1.78316,7.80833 10.20314,12.55677 18.875,10.6875 0.0626,-0.0143 0.1535,-0.0167 0.21875,-0.0312 0.0979,-0.0224 0.18409,-0.0699 0.28125,-0.0937 1.20885,-0.26536 2.72377,-0.5606 3.78125,-0.84375 5.00334,-1.33963 8.62694,-3.30796 13.125,-5.03125 9.67694,-3.47077 17.69173,-6.37022 25.5,-7.5 3.26118,-0.25542 6.69711,2.01216 8.40625,2.96875 l 6.375,-1.09375 c 14.67018,45.48282 45.41416,82.24502 84.34375,105.3125 l -2.65625,6.375 c 0.95742,2.47542 2.01341,5.8247 1.30022,8.26932 -2.83868,7.3612 -7.70097,15.13097 -13.23772,23.79318 -2.68085,4.00192 -5.42453,7.10761 -7.84375,11.6875 -0.5789,1.09589 -1.31618,2.77932 -1.875,3.9375 -3.75884,8.04236 -1.00164,17.3052 6.21875,20.78125 7.26575,3.49788 16.28447,-0.19134 20.1875,-8.25 0.006,-0.0114 0.0257,-0.0198 0.0312,-0.0312 0.004,-0.009 -0.004,-0.0225 0,-0.0312 0.55593,-1.14255 1.34353,-2.64437 1.8125,-3.71875 2.07213,-4.74702 2.76161,-8.81506 4.21875,-13.40625 3.86962,-9.72014 5.99567,-19.91903 11.32258,-26.27411 1.45868,-1.74023 3.83681,-2.4095 6.30242,-3.06964 l 3.3125,-6 c 33.93824,13.0268 71.92666,16.52246 109.875,7.90625 8.65697,-1.96557 17.01444,-4.50945 25.09375,-7.5625 0.93098,1.65133 2.66113,4.8257 3.125,5.625 2.50559,0.81518 5.24044,1.23614 7.46875,4.53125 3.98539,6.80898 6.7109,14.86416 10.03125,24.59375 1.45738,4.59111 2.17762,8.65933 4.25,13.40625 0.47234,1.08195 1.256,2.60486 1.8125,3.75 3.89482,8.08484 12.94212,11.78667 20.21875,8.28125 7.2195,-3.4779 9.97974,-12.7399 6.21875,-20.78125 -0.55889,-1.15814 -1.3273,-2.84164 -1.90625,-3.9375 -2.41946,-4.57976 -5.1627,-7.65448 -7.84375,-11.65625 -5.53721,-8.66192 -10.12968,-15.8577 -12.96875,-23.21875 -1.18711,-3.79657 0.20028,-6.15774 1.125,-8.625 -0.55378,-0.63477 -1.73881,-4.22009 -2.4375,-5.90625 40.4574,-23.88816 70.29856,-62.02129 84.3125,-106.0625 1.8924,0.29742 5.18154,0.87936 6.25,1.09375 2.19954,-1.4507 4.22194,-3.34352 8.1875,-3.03125 7.80832,1.12937 15.82288,4.02973 25.5,7.5 4.49815,1.72306 8.1216,3.72313 13.125,5.0625 1.05749,0.28309 2.57238,0.5472 3.78125,0.8125 0.0972,0.0238 0.1833,0.0714 0.28125,0.0937 0.0653,0.0146 0.15615,0.0169 0.21875,0.0312 8.67236,1.86695 17.09384,-2.87871 18.875,-10.6875 1.78074,-7.80696 -3.7543,-15.73201 -12.375,-17.8125 -1.25393,-0.28513 -3.03225,-0.76938 -4.25,-1 -5.08912,-0.96378 -9.23092,-0.7261 -14.03125,-1.125 -10.22456,-1.07138 -18.6935,-1.94269 -26.21875,-4.3125 -3.06826,-1.19028 -5.25103,-4.84124 -6.31255,-6.34375 l -5.90625,-1.71875 c 3.06226,-22.15442 2.23655,-45.21134 -3.0625,-68.28125 -5.34839,-23.28471 -14.80037,-44.58084 -27.40625,-63.34375 1.51505,-1.37729 4.37619,-3.91091 5.1875,-4.65625 0.23716,-2.62417 0.0334,-5.37553 2.75,-8.28125 5.75134,-5.40069 13.00329,-9.87898 21.75,-15.28125 4.15167,-2.44252 7.98954,-4.01698 12.15625,-7.09375 0.94225,-0.69576 2.2289,-1.79759 3.21875,-2.59375 7.01538,-5.59633 8.63058,-15.24842 3.59375,-21.5625 -5.03683,-6.31408 -14.79712,-6.90883 -21.8125,-1.3125 -0.99856,0.79085 -2.35353,1.82252 -3.25,2.59375 -3.9265,3.37796 -6.35145,6.71439 -9.65625,10.21875 -7.21249,7.32595 -13.17407,13.43777 -19.71875,17.84375 -2.83601,1.65106 -6.98996,1.07978 -8.87505,0.96875 l -5.5625,3.96875 c -31.7188,-33.26057 -74.90466,-54.52546 -121.40605,-58.6563 -0.13006,-1.94872 -0.30045,-5.47117 -0.34375,-6.53125 -1.90371,-1.82165 -4.20342,-3.37686 -4.78125,-7.3125 -0.63617,-7.86389 0.42597,-16.32459 1.65625,-26.53125 0.6791,-4.76876 1.80738,-8.73025 2,-13.90625 0.0438,-1.17663 -0.0265,-2.88401 -0.0312,-4.15625 -9.6e-4,-8.97409 -6.54804,-16.25082 -14.625,-16.25 z m -18.3125,113.4375 -4.34375,76.71875 -0.3125,0.15625 c -0.29134,6.86335 -5.93996,12.34375 -12.875,12.34375 -2.84081,0 -5.46294,-0.91229 -7.59375,-2.46875 l -0.125,0.0625 -62.90625,-44.59375 c 19.33365,-19.01115 44.06291,-33.06039 72.5625,-39.53125 5.20599,-1.18203 10.40966,-2.0591 15.59375,-2.6875 z m 36.65625,0 c 33.27347,4.09232 64.04501,19.15882 87.625,42.25 l -62.5,44.3125 -0.21875,-0.0937 c -5.54745,4.05169 -13.36343,3.04639 -17.6875,-2.375 -1.77132,-2.22096 -2.70072,-4.83239 -2.8125,-7.46875 l -0.0625,-0.0312 z m -147.625,70.875 57.4375,51.375 -0.0625,0.3125 c 5.18437,4.50697 5.94888,12.32794 1.625,17.75 -1.7712,2.22105 -4.14208,3.71074 -6.6875,4.40625 l -0.0625,0.25 -73.625,21.25 c -3.74728,-34.26517 4.32855,-67.57364 21.375,-95.34375 z m 258.15625,0.0312 c 8.5341,13.83256 14.99655,29.28214 18.84375,46.03125 3.80106,16.54828 4.75499,33.06697 3.1875,49.03125 l -74,-21.3125 -0.0625,-0.3125 c -6.6265,-1.81104 -10.69893,-8.55162 -9.15625,-15.3125 0.63203,-2.76962 2.10222,-5.11264 4.09375,-6.84375 l -0.0312,-0.15625 57.125,-51.125 z m -140.65625,55.3125 23.53125,0 14.625,18.28125 -5.25,22.8125 -21.125,10.15625 -21.1875,-10.1875 -5.25,-22.8125 z m 75.4375,62.5625 c 0.99997,-0.0505 1.99558,0.0396 2.96875,0.21875 l 0.125,-0.15625 76.15625,12.875 c -11.1455,31.3131 -32.47281,58.44018 -60.96875,76.59375 l -29.5625,-71.40625 0.0937,-0.125 c -2.71561,-6.30999 0.002,-13.70956 6.25,-16.71875 1.59965,-0.77041 3.27089,-1.19701 4.9375,-1.28125 z m -127.90625,0.3125 c 5.81174,0.0815 11.02462,4.11525 12.375,10.03125 0.63219,2.76958 0.3245,5.51375 -0.71875,7.9375 l 0.21875,0.28125 -29.25,70.6875 c -27.34716,-17.5486 -49.12927,-43.82403 -60.78125,-76.06245 l 75.5,-12.8125 0.125,0.15625 c 0.84451,-0.15541 1.701,-0.2304 2.53125,-0.21875 z m 63.78125,30.9688 c 2.02445,-0.0744 4.07865,0.34098 6.03125,1.28125 2.55951,1.23253 4.53673,3.17319 5.78125,5.5 l 0.28125,0 37.21875,67.25 c -4.83029,1.61923 -9.79609,3.00308 -14.875,4.15625 -28.46453,6.4629 -56.83862,4.50467 -82.53125,-4.25 l 37.125,-67.125 0.0625,0 c 2.22767,-4.16441 6.45247,-6.64887 10.90625,-6.8125 z"
             style="color:#000000;font-style:normal;font-variant:normal;font-weight:normal;font-stretch:normal;font-size:medium;line-height:normal;font-family:Sans;-inkscape-font-specification:Sans;text-indent:0;text-align:start;text-decoration:none;text-decoration-line:none;letter-spacing:normal;word-spacing:normal;text-transform:none;direction:ltr;block-progression:tb;writing-mode:lr-tb;baseline-shift:baseline;text-anchor:start;display:inline;overflow:visible;visibility:visible;fill:#ffffff;fill-opacity:1;stroke:#ffffff;stroke-width:0.25;stroke-miterlimit:4;stroke-dasharray:none;stroke-opacity:1;marker:none;enable-background:accumulate"
             sodipodi:nodetypes="ccccccccsccccscssccsccccccccscccsccccccccccccccscccscsccsccccscscsccccccccscccscsccccsccccscscscccccccccccccccscccsccccccccccccscccccscccccccccccccccccccccccscccscccccccccscccscccc"
             inkscape:export-filename="./path3059.png"
             inkscape:export-xdpi="250.55"
             inkscape:export-ydpi="250.55" />
        </g>
      </g>
    </g>
  </g>
</svg>
