<?xml version="1.0" encoding="UTF-8" standalone="no"?>
<!-- Created with Inkscape (http://www.inkscape.org/) -->

<svg
   xmlns:dc="http://purl.org/dc/elements/1.1/"
   xmlns:cc="http://creativecommons.org/ns#"
   xmlns:rdf="http://www.w3.org/1999/02/22-rdf-syntax-ns#"
   xmlns:svg="http://www.w3.org/2000/svg"
   xmlns="http://www.w3.org/2000/svg"
   xmlns:xlink="http://www.w3.org/1999/xlink"
   xmlns:sodipodi="http://sodipodi.sourceforge.net/DTD/sodipodi-0.dtd"
   xmlns:inkscape="http://www.inkscape.org/namespaces/inkscape"
   width="189.89389mm"
   height="320.98389mm"
   viewBox="0 0 672.85237 1137.3445"
   id="svg2"
   version="1.1"
   inkscape:version="0.91 r13725"
   sodipodi:docname="logos1.svg">
  <defs
     id="defs4">
    <clipPath
       id="clipPath5028"
       clipPathUnits="userSpaceOnUse">
      <path
         inkscape:connector-curvature="0"
         id="path5030"
         d="M 0,600 600,600 600,0 0,0 0,600 Z" />
    </clipPath>
    <clipPath
       id="clipPath5064"
       clipPathUnits="userSpaceOnUse">
      <path
         inkscape:connector-curvature="0"
         id="path5066"
         d="m 239.032,373.393 -42.134,-24.315 c -1.576,-0.909 -2.545,-2.588 -2.545,-4.407 l 0,0 0,-48.666 c 0,-1.818 0.969,-3.497 2.544,-4.408 l 0,0 42.133,-24.334 c 1.576,-0.909 3.516,-0.909 5.091,0 l 0,0 42.124,24.334 c 1.574,0.911 2.543,2.59 2.543,4.408 l 0,0 0,48.668 c 0,1.817 -0.969,3.496 -2.545,4.405 l 0,0 -42.123,24.315 c -0.787,0.454 -1.666,0.682 -2.544,0.682 l 0,0 c -0.879,0 -1.757,-0.228 -2.544,-0.682" />
    </clipPath>
    <linearGradient
       id="linearGradient5072"
       spreadMethod="pad"
       gradientTransform="matrix(-38.064877,-77.652351,-77.652351,38.064877,258.70169,355.28543)"
       gradientUnits="userSpaceOnUse"
       y2="0"
       x2="1"
       y1="0"
       x1="0">
      <stop
         id="stop5074"
         offset="0"
         style="stop-opacity:1;stop-color:#687e67" />
      <stop
         id="stop5076"
         offset="0.5288042"
         style="stop-opacity:1;stop-color:#687e67" />
      <stop
         id="stop5078"
         offset="1"
         style="stop-opacity:1;stop-color:#83a178" />
    </linearGradient>
    <clipPath
       id="clipPath5086"
       clipPathUnits="userSpaceOnUse">
      <path
         inkscape:connector-curvature="0"
         id="path5088"
         d="m 195.4,292.914 c 0.401,-0.525 0.906,-0.975 1.497,-1.317 l 0,0 36.143,-20.874 6.017,-3.46 c 0.9,-0.519 1.927,-0.739 2.936,-0.665 l 0,0 c 0.337,0.028 0.673,0.09 1.001,0.185 l 0,0 44.43,81.357 c -0.34,0.365 -0.736,0.682 -1.181,0.938 l 0,0 -27.588,15.925 -14.579,8.39 c -0.417,0.24 -0.864,0.413 -1.323,0.526 l 0,0 -47.353,-81.005 z" />
    </clipPath>
    <linearGradient
       id="linearGradient5094"
       spreadMethod="pad"
       gradientTransform="matrix(106.80725,78.914902,78.914902,-106.80725,235.15767,314.64658)"
       gradientUnits="userSpaceOnUse"
       y2="0"
       x2="1"
       y1="0"
       x1="0">
      <stop
         id="stop5096"
         offset="0"
         style="stop-opacity:1;stop-color:#687e67" />
      <stop
         id="stop5098"
         offset="0.137556"
         style="stop-opacity:1;stop-color:#687e67" />
      <stop
         id="stop5100"
         offset="0.69737407"
         style="stop-opacity:1;stop-color:#9bb48f" />
      <stop
         id="stop5102"
         offset="0.908084"
         style="stop-opacity:1;stop-color:#9bb48f" />
      <stop
         id="stop5104"
         offset="1"
         style="stop-opacity:1;stop-color:#9bb48f" />
    </linearGradient>
    <clipPath
       id="clipPath5112"
       clipPathUnits="userSpaceOnUse">
      <path
         inkscape:connector-curvature="0"
         id="path5114"
         d="m 239.032,373.393 -42.134,-24.315 c -1.575,-0.909 -2.545,-2.588 -2.545,-4.407 l 0,-48.666 c 0,-1.818 0.97,-3.497 2.544,-4.408 l 42.133,-24.334 c 1.576,-0.909 3.516,-0.909 5.091,0 l 42.124,24.334 c 1.574,0.911 2.543,2.59 2.543,4.408 l 0,48.668 c 0,1.817 -0.969,3.496 -2.545,4.405 l -42.123,24.315 c -0.787,0.454 -1.666,0.682 -2.544,0.682 -0.879,0 -1.757,-0.228 -2.544,-0.682" />
    </clipPath>
    <clipPath
       id="clipPath5120"
       clipPathUnits="userSpaceOnUse">
      <path
         inkscape:connector-curvature="0"
         id="path5122"
         d="m 237.627,382.331 -0.58,-0.331 0.774,0 -0.194,0.331 z" />
    </clipPath>
    <linearGradient
       id="linearGradient5128"
       spreadMethod="pad"
       gradientTransform="matrix(97.416992,0,0,-97.416992,192.8623,382.16568)"
       gradientUnits="userSpaceOnUse"
       y2="0"
       x2="1"
       y1="0"
       x1="0">
      <stop
         id="stop5130"
         offset="0"
         style="stop-opacity:1;stop-color:#9bb48f" />
      <stop
         id="stop5132"
         offset="0.0919165"
         style="stop-opacity:1;stop-color:#9bb48f" />
      <stop
         id="stop5134"
         offset="0.30262629"
         style="stop-opacity:1;stop-color:#9bb48f" />
      <stop
         id="stop5136"
         offset="0.862444"
         style="stop-opacity:1;stop-color:#687e67" />
      <stop
         id="stop5138"
         offset="1"
         style="stop-opacity:1;stop-color:#687e67" />
    </linearGradient>
    <clipPath
       id="clipPath5146"
       clipPathUnits="userSpaceOnUse">
      <path
         inkscape:connector-curvature="0"
         id="path5148"
         d="m 241.065,374.048 c -0.705,-0.07 -1.398,-0.289 -2.033,-0.655 l 0,0 -42.014,-24.245 45.293,-82.513 c 0.628,0.091 1.243,0.301 1.81,0.628 l 0,0 42.124,24.334 c 1.301,0.753 2.189,2.031 2.458,3.477 l 0,0 -46.178,78.89 c -0.341,0.068 -0.688,0.102 -1.035,0.102 l 0,0 c -0.142,0 -0.284,-0.006 -0.425,-0.018" />
    </clipPath>
    <linearGradient
       id="linearGradient5154"
       spreadMethod="pad"
       gradientTransform="matrix(97.416992,0,0,-97.416992,192.8623,320.34848)"
       gradientUnits="userSpaceOnUse"
       y2="0"
       x2="1"
       y1="0"
       x1="0">
      <stop
         id="stop5156"
         offset="0"
         style="stop-opacity:1;stop-color:#9bb48f" />
      <stop
         id="stop5158"
         offset="0.0919165"
         style="stop-opacity:1;stop-color:#9bb48f" />
      <stop
         id="stop5160"
         offset="0.30262629"
         style="stop-opacity:1;stop-color:#9bb48f" />
      <stop
         id="stop5162"
         offset="0.862444"
         style="stop-opacity:1;stop-color:#687e67" />
      <stop
         id="stop5164"
         offset="1"
         style="stop-opacity:1;stop-color:#687e67" />
    </linearGradient>
    <clipPath
       id="clipPath5172"
       clipPathUnits="userSpaceOnUse">
      <path
         inkscape:connector-curvature="0"
         id="path5174"
         d="m 239.032,373.393 -42.134,-24.315 c -1.575,-0.909 -2.545,-2.588 -2.545,-4.407 l 0,-48.666 c 0,-1.818 0.97,-3.497 2.544,-4.408 l 42.133,-24.334 c 1.576,-0.909 3.516,-0.909 5.091,0 l 42.124,24.334 c 1.574,0.911 2.543,2.59 2.543,4.408 l 0,48.668 c 0,1.817 -0.969,3.496 -2.545,4.405 l -42.123,24.315 c -0.787,0.454 -1.666,0.682 -2.544,0.682 -0.879,0 -1.757,-0.228 -2.544,-0.682" />
    </clipPath>
    <clipPath
       id="clipPath5180"
       clipPathUnits="userSpaceOnUse">
      <path
         inkscape:connector-curvature="0"
         id="path5182"
         d="m 290.279,292.38 -0.279,0.477 0,-0.639 0.279,0.162 z" />
    </clipPath>
    <linearGradient
       id="linearGradient5188"
       spreadMethod="pad"
       gradientTransform="matrix(97.416992,0,0,-97.416992,192.8623,292.53787)"
       gradientUnits="userSpaceOnUse"
       y2="0"
       x2="1"
       y1="0"
       x1="0">
      <stop
         id="stop5190"
         offset="0"
         style="stop-opacity:1;stop-color:#9bb48f" />
      <stop
         id="stop5192"
         offset="0.0919165"
         style="stop-opacity:1;stop-color:#9bb48f" />
      <stop
         id="stop5194"
         offset="0.30262629"
         style="stop-opacity:1;stop-color:#9bb48f" />
      <stop
         id="stop5196"
         offset="0.862444"
         style="stop-opacity:1;stop-color:#687e67" />
      <stop
         id="stop5198"
         offset="1"
         style="stop-opacity:1;stop-color:#687e67" />
    </linearGradient>
    <clipPath
       id="clipPath5206"
       clipPathUnits="userSpaceOnUse">
      <path
         inkscape:connector-curvature="0"
         id="path5208"
         d="m 239.032,373.393 -42.134,-24.315 c -1.575,-0.909 -2.545,-2.588 -2.545,-4.407 l 0,-48.666 c 0,-1.818 0.97,-3.497 2.544,-4.408 l 42.133,-24.334 c 1.576,-0.909 3.516,-0.909 5.091,0 l 42.124,24.334 c 1.574,0.911 2.543,2.59 2.543,4.408 l 0,48.668 c 0,1.817 -0.969,3.496 -2.545,4.405 l -42.123,24.315 c -0.787,0.454 -1.666,0.682 -2.544,0.682 -0.879,0 -1.757,-0.228 -2.544,-0.682" />
    </clipPath>
    <clipPath
       id="clipPath5214"
       clipPathUnits="userSpaceOnUse">
      <path
         inkscape:connector-curvature="0"
         id="path5216"
         d="m 286.351,291.597 -42.177,-24.333 c -0.58,-0.335 -1.213,-0.545 -1.861,-0.633 l 0.84,-1.53 46.847,27.117 0,0.639 -1.158,1.979 c -0.347,-1.348 -1.263,-2.528 -2.491,-3.239" />
    </clipPath>
    <linearGradient
       id="linearGradient5222"
       spreadMethod="pad"
       gradientTransform="matrix(97.416992,0,0,-97.416992,192.8623,279.9682)"
       gradientUnits="userSpaceOnUse"
       y2="0"
       x2="1"
       y1="0"
       x1="0">
      <stop
         id="stop5224"
         offset="0"
         style="stop-opacity:1;stop-color:#9bb48f" />
      <stop
         id="stop5226"
         offset="0.0919165"
         style="stop-opacity:1;stop-color:#9bb48f" />
      <stop
         id="stop5228"
         offset="0.30262629"
         style="stop-opacity:1;stop-color:#9bb48f" />
      <stop
         id="stop5230"
         offset="0.862444"
         style="stop-opacity:1;stop-color:#687e67" />
      <stop
         id="stop5232"
         offset="1"
         style="stop-opacity:1;stop-color:#687e67" />
    </linearGradient>
    <clipPath
       id="clipPath5240"
       clipPathUnits="userSpaceOnUse">
      <path
         inkscape:connector-curvature="0"
         id="path5242"
         d="m 239.032,373.393 -42.134,-24.315 c -1.575,-0.909 -2.545,-2.588 -2.545,-4.407 l 0,-48.666 c 0,-1.818 0.97,-3.497 2.544,-4.408 l 42.133,-24.334 c 1.576,-0.909 3.516,-0.909 5.091,0 l 42.124,24.334 c 1.574,0.911 2.543,2.59 2.543,4.408 l 0,48.668 c 0,1.817 -0.969,3.496 -2.545,4.405 l -42.123,24.315 c -0.787,0.454 -1.666,0.682 -2.544,0.682 -0.879,0 -1.757,-0.228 -2.544,-0.682" />
    </clipPath>
    <clipPath
       id="clipPath5248"
       clipPathUnits="userSpaceOnUse">
      <path
         inkscape:connector-curvature="0"
         id="path5250"
         d="m 286.351,291.597 -42.177,-24.333 c -0.58,-0.335 -1.213,-0.545 -1.861,-0.633 l 0.84,-1.53 46.847,27.117 0,0.639 -1.158,1.979 c -0.347,-1.348 -1.263,-2.528 -2.491,-3.239" />
    </clipPath>
    <linearGradient
       id="linearGradient5256"
       spreadMethod="pad"
       gradientTransform="matrix(-60.080605,-122.56444,-122.56444,60.080605,304.47177,357.58765)"
       gradientUnits="userSpaceOnUse"
       y2="0"
       x2="1"
       y1="0"
       x1="0">
      <stop
         id="stop5258"
         offset="0"
         style="stop-opacity:1;stop-color:#687e67" />
      <stop
         id="stop5260"
         offset="0.5288042"
         style="stop-opacity:1;stop-color:#687e67" />
      <stop
         id="stop5262"
         offset="1"
         style="stop-opacity:1;stop-color:#83a178" />
    </linearGradient>
    <linearGradient
       id="linearGradient2795">
      <stop
         id="stop2797"
         offset="0"
         style="stop-color:#b8b8b8;stop-opacity:0.49803922;" />
      <stop
         id="stop2799"
         offset="1"
         style="stop-color:#7f7f7f;stop-opacity:0;" />
    </linearGradient>
    <linearGradient
       id="linearGradient2787">
      <stop
         id="stop2789"
         offset="0"
         style="stop-color:#7f7f7f;stop-opacity:0.5;" />
      <stop
         id="stop2791"
         offset="1"
         style="stop-color:#7f7f7f;stop-opacity:0;" />
    </linearGradient>
    <linearGradient
       id="linearGradient3676">
      <stop
         id="stop3678"
         offset="0"
         style="stop-color:#b2b2b2;stop-opacity:0.5;" />
      <stop
         id="stop3680"
         offset="1"
         style="stop-color:#b3b3b3;stop-opacity:0;" />
    </linearGradient>
    <linearGradient
       id="linearGradient3236">
      <stop
         id="stop3244"
         offset="0"
         style="stop-color:#f4f4f4;stop-opacity:1" />
      <stop
         id="stop3240"
         offset="1"
         style="stop-color:white;stop-opacity:1" />
    </linearGradient>
    <linearGradient
       id="linearGradient4671">
      <stop
         id="stop4673"
         offset="0"
         style="stop-color:#ffd43b;stop-opacity:1;" />
      <stop
         id="stop4675"
         offset="1"
         style="stop-color:#ffe873;stop-opacity:1" />
    </linearGradient>
    <linearGradient
       id="linearGradient4689">
      <stop
         id="stop4691"
         offset="0"
         style="stop-color:#5a9fd4;stop-opacity:1;" />
      <stop
         id="stop4693"
         offset="1"
         style="stop-color:#306998;stop-opacity:1;" />
    </linearGradient>
    <linearGradient
       gradientTransform="translate(100.2702,99.61116)"
       gradientUnits="userSpaceOnUse"
       xlink:href="#linearGradient4671"
       id="linearGradient2987"
       y2="144.75717"
       x2="-65.308502"
       y1="144.75717"
       x1="224.23996" />
    <linearGradient
       gradientTransform="translate(100.2702,99.61116)"
       gradientUnits="userSpaceOnUse"
       xlink:href="#linearGradient4689"
       id="linearGradient2990"
       y2="76.313133"
       x2="26.670298"
       y1="77.475983"
       x1="172.94208" />
    <linearGradient
       y2="144.75717"
       x2="-65.308502"
       y1="144.75717"
       x1="224.23996"
       gradientTransform="matrix(0.562541,0,0,0.567972,-11.5974,-7.60954)"
       gradientUnits="userSpaceOnUse"
       id="linearGradient2255"
       xlink:href="#linearGradient4671"
       inkscape:collect="always" />
    <linearGradient
       y2="76.313133"
       x2="26.670298"
       y1="76.176224"
       x1="172.94208"
       gradientTransform="matrix(0.562541,0,0,0.567972,-11.5974,-7.60954)"
       gradientUnits="userSpaceOnUse"
       id="linearGradient2258"
       xlink:href="#linearGradient4689"
       inkscape:collect="always" />
    <radialGradient
       gradientUnits="userSpaceOnUse"
       gradientTransform="matrix(1,0,0,0.177966,0,108.7434)"
       r="29.036913"
       fy="132.28575"
       fx="61.518883"
       cy="132.28575"
       cx="61.518883"
       id="radialGradient2801"
       xlink:href="#linearGradient2795"
       inkscape:collect="always" />
    <linearGradient
       y2="137.27299"
       x2="112.03144"
       y1="192.35176"
       x1="150.96111"
       gradientTransform="matrix(0.562541,0,0,0.567972,-9.399749,-5.305317)"
       gradientUnits="userSpaceOnUse"
       id="linearGradient1475"
       xlink:href="#linearGradient4671"
       inkscape:collect="always" />
    <linearGradient
       y2="114.39767"
       x2="135.66525"
       y1="20.603781"
       x1="26.648937"
       gradientTransform="matrix(0.562541,0,0,0.567972,-9.399749,-5.305317)"
       gradientUnits="userSpaceOnUse"
       id="linearGradient1478"
       xlink:href="#linearGradient4689"
       inkscape:collect="always" />
    <radialGradient
       r="29.036913"
       fy="132.28575"
       fx="61.518883"
       cy="132.28575"
       cx="61.518883"
       gradientTransform="matrix(2.382716e-8,-0.296405,1.43676,4.683673e-7,-128.544,150.5202)"
       gradientUnits="userSpaceOnUse"
       id="radialGradient1480"
       xlink:href="#linearGradient2795"
       inkscape:collect="always" />
  </defs>
  <sodipodi:namedview
     id="base"
     pagecolor="#ffffff"
     bordercolor="#666666"
     borderopacity="1.0"
     inkscape:pageopacity="0.0"
     inkscape:pageshadow="2"
     inkscape:zoom="0.7"
     inkscape:cx="251.32058"
     inkscape:cy="599.36967"
     inkscape:document-units="px"
     inkscape:current-layer="layer1"
     showgrid="false"
     fit-margin-left="1"
     fit-margin-right="1"
     fit-margin-bottom="1"
     fit-margin-top="1"
     inkscape:window-width="1916"
     inkscape:window-height="1054"
     inkscape:window-x="1920"
     inkscape:window-y="4"
     inkscape:window-maximized="1" />
  <metadata
     id="metadata7">
    <rdf:RDF>
      <cc:Work
         rdf:about="">
        <dc:format>image/svg+xml</dc:format>
        <dc:type
           rdf:resource="http://purl.org/dc/dcmitype/StillImage" />
        <dc:title />
      </cc:Work>
    </rdf:RDF>
  </metadata>
  <g
     inkscape:label="Layer 1"
     inkscape:groupmode="layer"
     id="layer1"
     transform="translate(-36.68901,683.5346)">
    <g
       transform="matrix(0.3296695,0,0,0.3296695,434.62324,-600.95684)"
       id="layer1-3"
       inkscape:label="Layer 1">
      <g
         id="g3052">
        <path
           inkscape:export-ydpi="250.55"
           inkscape:export-xdpi="250.55"
           inkscape:export-filename="new.png"
           inkscape:connector-curvature="0"
           id="path3055"
           d="m 365.3125,184.8125 a 46.724621,46.342246 0 0 0 -17.90625,4.53125 l -244.34375,116.75 a 46.724621,46.342246 0 0 0 -25.28125,31.4375 L 17.5,599.78125 A 46.724621,46.342246 0 0 0 23.84375,635.3125 46.724621,46.342246 0 0 0 26.5,639 l 169.125,210.28125 a 46.724621,46.342246 0 0 0 36.53125,17.4375 L 503.375,866.65625 A 46.724621,46.342246 0 0 0 539.90625,849.25 L 708.96875,638.9375 A 46.724621,46.342246 0 0 0 718,599.71875 l -60.375,-262.25 a 46.724621,46.342246 0 0 0 -25.28125,-31.4375 l -244.375,-116.6875 A 46.724621,46.342246 0 0 0 365.3125,184.8125 Z"
           style="fill:#326ce5;fill-opacity:1;stroke:#ffffff;stroke-width:0;stroke-miterlimit:4;stroke-dasharray:none;stroke-opacity:1" />
        <path
           inkscape:export-ydpi="250.55"
           inkscape:export-xdpi="250.55"
           inkscape:export-filename="./path3059.png"
           sodipodi:nodetypes="ccccccccsccccscssccsccccccccscccsccccccccccccccscccscsccsccccscscsccccccccscccscsccccsccccscscscccccccccccccccscccsccccccccccccscccccscccccccccccccccccccccccscccscccccccccscccscccc"
           style="color:#000000;font-style:normal;font-variant:normal;font-weight:normal;font-stretch:normal;font-size:medium;line-height:normal;font-family:Sans;-inkscape-font-specification:Sans;text-indent:0;text-align:start;text-decoration:none;text-decoration-line:none;letter-spacing:normal;word-spacing:normal;text-transform:none;direction:ltr;block-progression:tb;writing-mode:lr-tb;baseline-shift:baseline;text-anchor:start;display:inline;overflow:visible;visibility:visible;fill:#ffffff;fill-opacity:1;stroke:#ffffff;stroke-width:0.25;stroke-miterlimit:4;stroke-dasharray:none;stroke-opacity:1;marker:none;enable-background:accumulate"
           d="m 367.73366,274.05962 c -8.07696,8.2e-4 -14.62596,7.27591 -14.625,16.25 1e-5,0.13773 0.0282,0.26934 0.0312,0.40625 -0.0119,1.21936 -0.0708,2.68836 -0.0312,3.75 0.19262,5.176 1.3209,9.13749 2,13.90625 1.23028,10.20666 2.26117,18.66736 1.625,26.53125 -0.61869,2.9654 -2.80288,5.67741 -4.75,7.5625 l -0.34375,6.1875 c -8.77682,0.72717 -17.61235,2.05874 -26.4375,4.0625 -37.97461,8.62218 -70.67008,28.18307 -95.5625,54.59375 -1.61522,-1.10193 -4.44103,-3.12914 -5.2813,-3.75 -2.61117,0.35262 -5.25021,1.15829 -8.6875,-0.84375 -6.54491,-4.40563 -12.50587,-10.48693 -19.71875,-17.8125 -3.30498,-3.50419 -5.69832,-6.84101 -9.625,-10.21875 -0.89172,-0.76707 -2.25258,-1.80455 -3.25,-2.59375 -3.06988,-2.44757 -6.6907,-3.72402 -10.1875,-3.84375 -4.49589,-0.15394 -8.82394,1.60385 -11.65625,5.15625 -5.03521,6.31538 -3.42312,15.96805 3.59375,21.5625 0.0712,0.0567 0.14702,0.10078 0.21875,0.15625 0.96422,0.78162 2.14496,1.78313 3.03125,2.4375 4.16687,3.07655 7.9732,4.65145 12.125,7.09375 8.747,5.40181 15.99837,9.88086 21.75,15.28125 2.24602,2.39417 2.63858,6.61292 2.9375,8.4375 l 4.6875,4.1875 c -25.09342,37.76368 -36.70686,84.40946 -29.8437,131.9375 l -6.125,1.78125 c -1.6143,2.08461 -3.89541,5.36474 -6.2813,6.34375 -7.52513,2.37021 -15.99424,3.24059 -26.21875,4.3125 -4.80031,0.39915 -8.94218,0.16095 -14.03125,1.125 -1.12008,0.21218 -2.68072,0.61877 -3.90625,0.90625 -0.0426,0.009 -0.0824,0.0216 -0.125,0.0312 -0.0668,0.0155 -0.15456,0.0479 -0.21875,0.0625 -8.62014,2.08279 -14.15774,10.006 -12.375,17.8125 1.78316,7.80833 10.20314,12.55677 18.875,10.6875 0.0626,-0.0143 0.1535,-0.0167 0.21875,-0.0312 0.0979,-0.0224 0.18409,-0.0699 0.28125,-0.0937 1.20885,-0.26536 2.72377,-0.5606 3.78125,-0.84375 5.00334,-1.33963 8.62694,-3.30796 13.125,-5.03125 9.67694,-3.47077 17.69173,-6.37022 25.5,-7.5 3.26118,-0.25542 6.69711,2.01216 8.40625,2.96875 l 6.375,-1.09375 c 14.67018,45.48282 45.41416,82.24502 84.34375,105.3125 l -2.65625,6.375 c 0.95742,2.47542 2.01341,5.8247 1.30022,8.26932 -2.83868,7.3612 -7.70097,15.13097 -13.23772,23.79318 -2.68085,4.00192 -5.42453,7.10761 -7.84375,11.6875 -0.5789,1.09589 -1.31618,2.77932 -1.875,3.9375 -3.75884,8.04236 -1.00164,17.3052 6.21875,20.78125 7.26575,3.49788 16.28447,-0.19134 20.1875,-8.25 0.006,-0.0114 0.0257,-0.0198 0.0312,-0.0312 0.004,-0.009 -0.004,-0.0225 0,-0.0312 0.55593,-1.14255 1.34353,-2.64437 1.8125,-3.71875 2.07213,-4.74702 2.76161,-8.81506 4.21875,-13.40625 3.86962,-9.72014 5.99567,-19.91903 11.32258,-26.27411 1.45868,-1.74023 3.83681,-2.4095 6.30242,-3.06964 l 3.3125,-6 c 33.93824,13.0268 71.92666,16.52246 109.875,7.90625 8.65697,-1.96557 17.01444,-4.50945 25.09375,-7.5625 0.93098,1.65133 2.66113,4.8257 3.125,5.625 2.50559,0.81518 5.24044,1.23614 7.46875,4.53125 3.98539,6.80898 6.7109,14.86416 10.03125,24.59375 1.45738,4.59111 2.17762,8.65933 4.25,13.40625 0.47234,1.08195 1.256,2.60486 1.8125,3.75 3.89482,8.08484 12.94212,11.78667 20.21875,8.28125 7.2195,-3.4779 9.97974,-12.7399 6.21875,-20.78125 -0.55889,-1.15814 -1.3273,-2.84164 -1.90625,-3.9375 -2.41946,-4.57976 -5.1627,-7.65448 -7.84375,-11.65625 -5.53721,-8.66192 -10.12968,-15.8577 -12.96875,-23.21875 -1.18711,-3.79657 0.20028,-6.15774 1.125,-8.625 -0.55378,-0.63477 -1.73881,-4.22009 -2.4375,-5.90625 40.4574,-23.88816 70.29856,-62.02129 84.3125,-106.0625 1.8924,0.29742 5.18154,0.87936 6.25,1.09375 2.19954,-1.4507 4.22194,-3.34352 8.1875,-3.03125 7.80832,1.12937 15.82288,4.02973 25.5,7.5 4.49815,1.72306 8.1216,3.72313 13.125,5.0625 1.05749,0.28309 2.57238,0.5472 3.78125,0.8125 0.0972,0.0238 0.1833,0.0714 0.28125,0.0937 0.0653,0.0146 0.15615,0.0169 0.21875,0.0312 8.67236,1.86695 17.09384,-2.87871 18.875,-10.6875 1.78074,-7.80696 -3.7543,-15.73201 -12.375,-17.8125 -1.25393,-0.28513 -3.03225,-0.76938 -4.25,-1 -5.08912,-0.96378 -9.23092,-0.7261 -14.03125,-1.125 -10.22456,-1.07138 -18.6935,-1.94269 -26.21875,-4.3125 -3.06826,-1.19028 -5.25103,-4.84124 -6.31255,-6.34375 l -5.90625,-1.71875 c 3.06226,-22.15442 2.23655,-45.21134 -3.0625,-68.28125 -5.34839,-23.28471 -14.80037,-44.58084 -27.40625,-63.34375 1.51505,-1.37729 4.37619,-3.91091 5.1875,-4.65625 0.23716,-2.62417 0.0334,-5.37553 2.75,-8.28125 5.75134,-5.40069 13.00329,-9.87898 21.75,-15.28125 4.15167,-2.44252 7.98954,-4.01698 12.15625,-7.09375 0.94225,-0.69576 2.2289,-1.79759 3.21875,-2.59375 7.01538,-5.59633 8.63058,-15.24842 3.59375,-21.5625 -5.03683,-6.31408 -14.79712,-6.90883 -21.8125,-1.3125 -0.99856,0.79085 -2.35353,1.82252 -3.25,2.59375 -3.9265,3.37796 -6.35145,6.71439 -9.65625,10.21875 -7.21249,7.32595 -13.17407,13.43777 -19.71875,17.84375 -2.83601,1.65106 -6.98996,1.07978 -8.87505,0.96875 l -5.5625,3.96875 c -31.7188,-33.26057 -74.90466,-54.52546 -121.40605,-58.6563 -0.13006,-1.94872 -0.30045,-5.47117 -0.34375,-6.53125 -1.90371,-1.82165 -4.20342,-3.37686 -4.78125,-7.3125 -0.63617,-7.86389 0.42597,-16.32459 1.65625,-26.53125 0.6791,-4.76876 1.80738,-8.73025 2,-13.90625 0.0438,-1.17663 -0.0265,-2.88401 -0.0312,-4.15625 -9.6e-4,-8.97409 -6.54804,-16.25082 -14.625,-16.25 z m -18.3125,113.4375 -4.34375,76.71875 -0.3125,0.15625 c -0.29134,6.86335 -5.93996,12.34375 -12.875,12.34375 -2.84081,0 -5.46294,-0.91229 -7.59375,-2.46875 l -0.125,0.0625 -62.90625,-44.59375 c 19.33365,-19.01115 44.06291,-33.06039 72.5625,-39.53125 5.20599,-1.18203 10.40966,-2.0591 15.59375,-2.6875 z m 36.65625,0 c 33.27347,4.09232 64.04501,19.15882 87.625,42.25 l -62.5,44.3125 -0.21875,-0.0937 c -5.54745,4.05169 -13.36343,3.04639 -17.6875,-2.375 -1.77132,-2.22096 -2.70072,-4.83239 -2.8125,-7.46875 l -0.0625,-0.0312 z m -147.625,70.875 57.4375,51.375 -0.0625,0.3125 c 5.18437,4.50697 5.94888,12.32794 1.625,17.75 -1.7712,2.22105 -4.14208,3.71074 -6.6875,4.40625 l -0.0625,0.25 -73.625,21.25 c -3.74728,-34.26517 4.32855,-67.57364 21.375,-95.34375 z m 258.15625,0.0312 c 8.5341,13.83256 14.99655,29.28214 18.84375,46.03125 3.80106,16.54828 4.75499,33.06697 3.1875,49.03125 l -74,-21.3125 -0.0625,-0.3125 c -6.6265,-1.81104 -10.69893,-8.55162 -9.15625,-15.3125 0.63203,-2.76962 2.10222,-5.11264 4.09375,-6.84375 l -0.0312,-0.15625 57.125,-51.125 z m -140.65625,55.3125 23.53125,0 14.625,18.28125 -5.25,22.8125 -21.125,10.15625 -21.1875,-10.1875 -5.25,-22.8125 z m 75.4375,62.5625 c 0.99997,-0.0505 1.99558,0.0396 2.96875,0.21875 l 0.125,-0.15625 76.15625,12.875 c -11.1455,31.3131 -32.47281,58.44018 -60.96875,76.59375 l -29.5625,-71.40625 0.0937,-0.125 c -2.71561,-6.30999 0.002,-13.70956 6.25,-16.71875 1.59965,-0.77041 3.27089,-1.19701 4.9375,-1.28125 z m -127.90625,0.3125 c 5.81174,0.0815 11.02462,4.11525 12.375,10.03125 0.63219,2.76958 0.3245,5.51375 -0.71875,7.9375 l 0.21875,0.28125 -29.25,70.6875 c -27.34716,-17.5486 -49.12927,-43.82403 -60.78125,-76.06245 l 75.5,-12.8125 0.125,0.15625 c 0.84451,-0.15541 1.701,-0.2304 2.53125,-0.21875 z m 63.78125,30.9688 c 2.02445,-0.0744 4.07865,0.34098 6.03125,1.28125 2.55951,1.23253 4.53673,3.17319 5.78125,5.5 l 0.28125,0 37.21875,67.25 c -4.83029,1.61923 -9.79609,3.00308 -14.875,4.15625 -28.46453,6.4629 -56.83862,4.50467 -82.53125,-4.25 l 37.125,-67.125 0.0625,0 c 2.22767,-4.16441 6.45247,-6.64887 10.90625,-6.8125 z"
           id="path3059"
           inkscape:connector-curvature="0" />
      </g>
    </g>
    <g
       transform="matrix(0.70161914,0,0,-0.70161914,74.291447,-62.502025)"
       inkscape:label="nodejs-new-pantone-black"
       id="g5022">
      <g
         id="g5024">
        <g
           clip-path="url(#clipPath5028)"
           id="g5026">
          <g
             transform="translate(296.9532,165.0556)"
             id="g5032">
            <path
               inkscape:connector-curvature="0"
               id="path5034"
               style="fill:#689f63;fill-opacity:1;fill-rule:nonzero;stroke:none"
               d="m 0,0 c -1.46,0 -2.912,0.381 -4.19,1.121 l -13.338,7.892 c -1.991,1.114 -1.019,1.509 -0.362,1.738 2.657,0.922 3.195,1.135 6.031,2.743 0.295,0.167 0.687,0.103 0.992,-0.076 L -0.62,7.335 c 0.371,-0.206 0.895,-0.206 1.237,0 l 39.95,23.058 c 0.372,0.212 0.61,0.64 0.61,1.081 l 0,46.104 c 0,0.451 -0.238,0.872 -0.62,1.101 L 0.624,101.717 c -0.369,0.216 -0.859,0.216 -1.231,0 L -40.53,78.672 c -0.388,-0.222 -0.634,-0.657 -0.634,-1.094 l 0,-46.104 c 0,-0.441 0.246,-0.859 0.63,-1.068 l 10.944,-6.323 c 5.938,-2.969 9.574,0.528 9.574,4.041 l 0,45.519 c 0,0.644 0.517,1.151 1.161,1.151 l 5.065,0 c 0.634,0 1.158,-0.507 1.158,-1.151 l 0,-45.519 c 0,-7.925 -4.316,-12.47 -11.829,-12.47 -2.309,0 -4.127,0 -9.202,2.501 l -10.476,6.031 c -2.588,1.496 -4.19,4.293 -4.19,7.288 l 0,46.104 c 0,2.995 1.602,5.792 4.19,7.281 l 39.949,23.085 c 2.528,1.429 5.888,1.429 8.396,0 L 44.153,84.859 c 2.587,-1.496 4.196,-4.286 4.196,-7.281 l 0,-46.104 c 0,-2.995 -1.609,-5.782 -4.196,-7.288 L 4.206,1.121 C 2.929,0.381 1.48,0 0,0" />
          </g>
          <g
             transform="translate(309.2934,196.8184)"
             id="g5036">
            <path
               inkscape:connector-curvature="0"
               id="path5038"
               style="fill:#689f63;fill-opacity:1;fill-rule:nonzero;stroke:none"
               d="m 0,0 c -17.482,0 -21.144,8.024 -21.144,14.755 0,0.64 0.514,1.151 1.154,1.151 l 5.165,0 c 0.577,0 1.058,-0.415 1.148,-0.978 0.78,-5.258 3.105,-7.912 13.677,-7.912 8.416,0 11.999,1.904 11.999,6.369 0,2.574 -1.016,4.485 -14.095,5.766 -10.931,1.081 -17.692,3.496 -17.692,12.24 0,8.061 6.794,12.868 18.186,12.868 12.798,0 19.131,-4.442 19.933,-13.972 0.03,-0.329 -0.086,-0.644 -0.305,-0.889 -0.219,-0.229 -0.524,-0.369 -0.846,-0.369 l -5.185,0 c -0.537,0 -1.012,0.382 -1.121,0.903 -1.244,5.533 -4.269,7.301 -12.476,7.301 -9.189,0 -10.257,-3.201 -10.257,-5.6 0,-2.906 1.26,-3.751 13.667,-5.393 C 14.085,24.617 19.917,22.319 19.917,13.69 19.917,4.986 12.659,0 0,0" />
          </g>
          <g
             transform="translate(357.9388,245.6999)"
             id="g5040">
            <path
               inkscape:connector-curvature="0"
               id="path5042"
               style="fill:#689f63;fill-opacity:1;fill-rule:nonzero;stroke:none"
               d="m 0,0 1.343,0 c 1.098,0 1.304,0.773 1.304,1.221 0,1.183 -0.816,1.183 -1.264,1.183 L 0,2.404 0,0 Z m -1.632,3.789 2.975,0 c 1.019,0 3.016,0 3.016,-2.283 0,-1.589 -1.019,-1.914 -1.632,-2.118 1.184,-0.081 1.264,-0.856 1.426,-1.955 0.083,-0.692 0.206,-1.875 0.448,-2.281 l -1.831,0 C 2.727,-4.442 2.441,-2.241 2.441,-2.12 2.322,-1.63 2.156,-1.387 1.546,-1.387 l -1.506,0 0,-3.461 -1.672,0 0,8.637 z m -3.563,-4.298 c 0,-3.586 2.893,-6.479 6.436,-6.479 3.586,0 6.478,2.954 6.478,6.479 0,3.584 -2.932,6.436 -6.478,6.436 -3.503,0 -6.436,-2.81 -6.436,-6.436 M 8.96,-0.531 c 0,-4.236 -3.464,-7.699 -7.699,-7.699 -4.197,0 -7.7,3.422 -7.7,7.699 0,4.359 3.586,7.701 7.7,7.701 4.156,0 7.699,-3.342 7.699,-7.701" />
          </g>
          <g
             transform="translate(173.2428,345.4329)"
             id="g5044">
            <path
               inkscape:connector-curvature="0"
               id="path5046"
               style="fill:#333333;fill-opacity:1;fill-rule:evenodd;stroke:none"
               d="M 0,0 C 0,1.841 -0.969,3.533 -2.558,4.445 L -44.913,28.82 c -0.716,0.422 -1.519,0.641 -2.331,0.674 l -0.438,0 c -0.81,-0.033 -1.612,-0.252 -2.339,-0.674 L -92.376,4.445 C -93.955,3.533 -94.937,1.841 -94.937,0 l 0.093,-65.635 c 0,-0.913 0.474,-1.762 1.277,-2.21 0.786,-0.471 1.758,-0.471 2.541,0 l 25.172,14.414 c 1.592,0.945 2.561,2.614 2.561,4.439 l 0,30.664 c 0,1.828 0.968,3.52 2.554,4.429 l 10.718,6.173 c 0.799,0.461 1.672,0.687 2.564,0.687 0.873,0 1.768,-0.226 2.544,-0.687 l 10.715,-6.173 c 1.586,-0.909 2.558,-2.601 2.558,-4.429 l 0,-30.664 c 0,-1.825 0.982,-3.504 2.564,-4.439 l 25.165,-14.414 c 0.789,-0.471 1.775,-0.471 2.557,0 0.78,0.448 1.271,1.297 1.271,2.21 L 0,0 Z" />
          </g>
          <g
             transform="translate(373.1093,311.2569)"
             id="g5048">
            <path
               inkscape:connector-curvature="0"
               id="path5050"
               style="fill:#333333;fill-opacity:1;fill-rule:evenodd;stroke:none"
               d="m 0,0 c 0,-0.456 -0.244,-0.879 -0.64,-1.106 l -14.548,-8.386 c -0.395,-0.227 -0.882,-0.227 -1.277,0 l -14.548,8.386 c -0.397,0.227 -0.64,0.65 -0.64,1.106 l 0,16.799 c 0,0.456 0.243,0.879 0.639,1.108 l 14.547,8.402 c 0.397,0.229 0.884,0.229 1.281,0 L -0.639,17.907 C -0.244,17.678 0,17.255 0,16.799 L 0,0 Z m 3.931,124.403 c -0.793,0.44 -1.76,0.431 -2.543,-0.029 -0.781,-0.459 -1.262,-1.299 -1.262,-2.206 l 0,-65 c 0,-0.639 -0.342,-1.231 -0.894,-1.551 -0.554,-0.32 -1.237,-0.32 -1.791,0 l -10.609,6.112 c -1.582,0.913 -3.529,0.911 -5.112,-10e-4 L -60.651,37.275 c -1.584,-0.914 -2.559,-2.603 -2.559,-4.431 l 0,-48.916 c 0,-1.828 0.975,-3.516 2.557,-4.432 l 42.37,-24.471 c 1.584,-0.914 3.534,-0.914 5.118,0 l 42.377,24.471 c 1.582,0.916 2.558,2.604 2.558,4.432 l 0,121.936 c 0,1.854 -1.004,3.564 -2.624,4.468 L 3.931,124.403 Z" />
          </g>
          <g
             transform="translate(518.131,328.495)"
             id="g5052">
            <path
               inkscape:connector-curvature="0"
               id="path5054"
               style="fill:#333333;fill-opacity:1;fill-rule:evenodd;stroke:none"
               d="m 0,0 c 1.576,0.915 2.546,2.601 2.546,4.424 l 0,11.854 c 0,1.823 -0.97,3.51 -2.548,4.425 l -42.099,24.443 c -1.584,0.921 -3.539,0.922 -5.127,0.007 L -89.584,20.7 c -1.583,-0.914 -2.558,-2.602 -2.558,-4.43 l 0,-48.903 c 0,-1.84 0.987,-3.537 2.584,-4.446 l 42.093,-23.985 c 1.552,-0.886 3.455,-0.896 5.017,-0.028 l 25.46,14.151 c 0.808,0.45 1.311,1.297 1.316,2.219 0.006,0.923 -0.485,1.777 -1.284,2.236 l -42.625,24.465 c -0.796,0.456 -1.286,1.304 -1.286,2.219 l 0,15.326 c 0,0.914 0.488,1.76 1.281,2.216 l 13.266,7.648 c 0.789,0.456 1.764,0.456 2.554,0 L -30.494,1.74 c 0.793,-0.456 1.28,-1.302 1.28,-2.216 l 0,-12.058 c 0,-0.916 0.49,-1.762 1.283,-2.218 0.793,-0.458 1.77,-0.454 2.561,0.005 L 0,0 Z" />
          </g>
          <g
             transform="translate(472.8422,330.7856)"
             id="g5056">
            <path
               inkscape:connector-curvature="0"
               id="path5058"
               style="fill:#689f63;fill-opacity:1;fill-rule:evenodd;stroke:none"
               d="m 0,0 c 0.304,0.176 0.678,0.176 0.982,0 l 8.13,-4.69 c 0.304,-0.176 0.491,-0.5 0.491,-0.851 l 0,-9.388 c 0,-0.352 -0.187,-0.675 -0.491,-0.851 l -8.13,-4.691 c -0.304,-0.176 -0.678,-0.176 -0.982,0 l -8.124,4.691 c -0.304,0.176 -0.491,0.499 -0.491,0.851 l 0,9.388 c 0,0.351 0.187,0.675 0.491,0.851 L 0,0 Z" />
          </g>
        </g>
      </g>
      <g
         id="g5060">
        <g
           clip-path="url(#clipPath5064)"
           id="g5062">
          <g
             id="g5068">
            <g
               id="g5070">
              <path
                 inkscape:connector-curvature="0"
                 id="path5080"
                 style="fill:url(#linearGradient5072);stroke:none"
                 d="m 239.032,373.393 -42.134,-24.315 c -1.576,-0.909 -2.545,-2.588 -2.545,-4.407 l 0,0 0,-48.666 c 0,-1.818 0.969,-3.497 2.544,-4.408 l 0,0 42.133,-24.334 c 1.576,-0.909 3.516,-0.909 5.091,0 l 0,0 42.124,24.334 c 1.574,0.911 2.543,2.59 2.543,4.408 l 0,0 0,48.668 c 0,1.817 -0.969,3.496 -2.545,4.405 l 0,0 -42.123,24.315 c -0.787,0.454 -1.666,0.682 -2.544,0.682 l 0,0 c -0.879,0 -1.757,-0.228 -2.544,-0.682" />
            </g>
          </g>
        </g>
      </g>
      <g
         id="g5082">
        <g
           clip-path="url(#clipPath5086)"
           id="g5084">
          <g
             id="g5090">
            <g
               id="g5092">
              <path
                 inkscape:connector-curvature="0"
                 id="path5106"
                 style="fill:url(#linearGradient5094);stroke:none"
                 d="m 195.4,292.914 c 0.401,-0.525 0.906,-0.975 1.497,-1.317 l 0,0 36.143,-20.874 6.017,-3.46 c 0.9,-0.519 1.927,-0.739 2.936,-0.665 l 0,0 c 0.337,0.028 0.673,0.09 1.001,0.185 l 0,0 44.43,81.357 c -0.34,0.365 -0.736,0.682 -1.181,0.938 l 0,0 -27.588,15.925 -14.579,8.39 c -0.417,0.24 -0.864,0.413 -1.323,0.526 l 0,0 -47.353,-81.005 z" />
            </g>
          </g>
        </g>
      </g>
      <g
         id="g5108">
        <g
           clip-path="url(#clipPath5112)"
           id="g5110">
          <g
             id="g5116">
            <g
               clip-path="url(#clipPath5120)"
               id="g5118">
              <g
                 id="g5124">
                <g
                   id="g5126">
                  <path
                     inkscape:connector-curvature="0"
                     id="path5140"
                     style="fill:url(#linearGradient5128);stroke:none"
                     d="m 237.627,382.331 -0.58,-0.331 0.774,0 -0.194,0.331 z" />
                </g>
              </g>
            </g>
          </g>
        </g>
      </g>
      <g
         id="g5142">
        <g
           clip-path="url(#clipPath5146)"
           id="g5144">
          <g
             id="g5150">
            <g
               id="g5152">
              <path
                 inkscape:connector-curvature="0"
                 id="path5166"
                 style="fill:url(#linearGradient5154);stroke:none"
                 d="m 241.065,374.048 c -0.705,-0.07 -1.398,-0.289 -2.033,-0.655 l 0,0 -42.014,-24.245 45.293,-82.513 c 0.628,0.091 1.243,0.301 1.81,0.628 l 0,0 42.124,24.334 c 1.301,0.753 2.189,2.031 2.458,3.477 l 0,0 -46.178,78.89 c -0.341,0.068 -0.688,0.102 -1.035,0.102 l 0,0 c -0.142,0 -0.284,-0.006 -0.425,-0.018" />
            </g>
          </g>
        </g>
      </g>
      <g
         id="g5168">
        <g
           clip-path="url(#clipPath5172)"
           id="g5170">
          <g
             id="g5176">
            <g
               clip-path="url(#clipPath5180)"
               id="g5178">
              <g
                 id="g5184">
                <g
                   id="g5186">
                  <path
                     inkscape:connector-curvature="0"
                     id="path5200"
                     style="fill:url(#linearGradient5188);stroke:none"
                     d="m 290.279,292.38 -0.279,0.477 0,-0.639 0.279,0.162 z" />
                </g>
              </g>
            </g>
          </g>
        </g>
      </g>
      <g
         id="g5202">
        <g
           clip-path="url(#clipPath5206)"
           id="g5204">
          <g
             id="g5210">
            <g
               clip-path="url(#clipPath5214)"
               id="g5212">
              <g
                 id="g5218">
                <g
                   id="g5220">
                  <path
                     inkscape:connector-curvature="0"
                     id="path5234"
                     style="fill:url(#linearGradient5222);stroke:none"
                     d="m 286.351,291.597 -42.177,-24.333 c -0.58,-0.335 -1.213,-0.545 -1.861,-0.633 l 0.84,-1.53 46.847,27.117 0,0.639 -1.158,1.979 c -0.347,-1.348 -1.263,-2.528 -2.491,-3.239" />
                </g>
              </g>
            </g>
          </g>
        </g>
      </g>
      <g
         id="g5236">
        <g
           clip-path="url(#clipPath5240)"
           id="g5238">
          <g
             id="g5244">
            <g
               clip-path="url(#clipPath5248)"
               id="g5246">
              <g
                 id="g5252">
                <g
                   id="g5254">
                  <path
                     inkscape:connector-curvature="0"
                     id="path5264"
                     style="fill:url(#linearGradient5256);stroke:none"
                     d="m 286.351,291.597 -42.177,-24.333 c -0.58,-0.335 -1.213,-0.545 -1.861,-0.633 l 0.84,-1.53 46.847,27.117 0,0.639 -1.158,1.979 c -0.347,-1.348 -1.263,-2.528 -2.491,-3.239" />
                </g>
              </g>
            </g>
          </g>
        </g>
      </g>
    </g>
    <g
       id="g4975"
       transform="matrix(1.4114089,0,0,1.4114089,401.80277,-235.81199)">
      <g
         id="g4931">
        <path
           id="path4933"
           d="m 78.621,78.245 -23.025,8.379 c 0.294,3.692 0.931,7.339 1.824,10.911 L 79.293,89.571 C 78.582,85.874 78.33,82.062 78.621,78.245"
           inkscape:connector-curvature="0"
           style="fill:#db242f" />
        <path
           id="path4935"
           d="m 180.379,52.784 c -1.605,-3.312 -3.463,-6.514 -5.615,-9.53 l -23.021,8.378 c 2.679,2.741 4.927,5.82 6.765,9.114 l 21.871,-7.962 z"
           inkscape:connector-curvature="0"
           style="fill:#db242f" />
        <path
           id="path4937"
           d="m 129.725,46.263 c 4.789,2.235 8.938,5.284 12.437,8.859 l 23.022,-8.38 C 158.807,37.795 150.121,30.318 139.479,25.352 106.569,10.006 67.305,24.296 51.96,57.2 46.993,67.849 45.148,79.161 46.014,90.112 l 23.024,-8.378 c 0.382,-4.988 1.601,-9.987 3.831,-14.78 9.971,-21.381 35.475,-30.659 56.856,-20.691"
           inkscape:connector-curvature="0"
           style="fill:#db242f" />
        <path
           id="path4939"
           d="m 58.854,97.011 -21.875,7.967 c 2.011,7.977 5.496,15.553 10.287,22.297 l 22.973,-8.361 C 64.342,112.857 60.42,105.196 58.854,97.011"
           inkscape:connector-curvature="0"
           style="fill:#db242f" />
        <path
           id="path4941"
           d="m 154.277,88.331 c -0.367,4.985 -1.625,9.985 -3.863,14.782 -9.971,21.383 -35.476,30.661 -56.854,20.692 -4.796,-2.238 -8.976,-5.262 -12.463,-8.844 l -22.974,8.363 c 6.361,8.947 15.039,16.428 25.687,21.396 32.91,15.344 72.169,1.053 87.515,-31.855 4.97,-10.644 6.804,-21.952 5.926,-32.895 l -22.974,8.361 z"
           inkscape:connector-curvature="0"
           style="fill:#db242f" />
        <path
           id="path4943"
           d="m 159.938,60.224 -21.873,7.962 c 4.062,7.279 5.981,15.662 5.354,24.091 l 22.973,-8.357 c -0.658,-8.245 -2.857,-16.292 -6.454,-23.696"
           inkscape:connector-curvature="0"
           style="fill:#db242f" />
      </g>
      <g
         id="g4945">
        <g
           id="g4947">
          <path
             id="path4949"
             d="m 37.346,175.777 c -2.863,0 -4.761,2.309 -4.761,6.455 0,4.148 1.985,6.514 4.849,6.514 2.862,0 4.76,-2.307 4.76,-6.455 0,-4.148 -1.986,-6.514 -4.848,-6.514 m 0.029,17.028 c -5.346,0 -8.996,-3.912 -8.996,-10.514 0,-6.602 3.709,-10.574 9.055,-10.574 5.315,0 8.967,3.916 8.967,10.516 -0.001,6.601 -3.71,10.572 -9.026,10.572"
             inkscape:connector-curvature="0"
             style="fill:#251f21" />
          <path
             id="path4951"
             d="m 59.653,176.012 -4.703,0 0,5.256 4.761,0 c 1.898,0 2.922,-0.877 2.922,-2.656 0,-1.782 -1.17,-2.6 -2.98,-2.6 m -0.205,9.23 -4.498,0 0,7.242 -4.089,0 0,-20.445 8.938,0 c 3.855,0 7.039,2.133 7.039,6.484 0,4.733 -3.154,6.719 -7.39,6.719"
             inkscape:connector-curvature="0"
             style="fill:#251f21" />
        </g>
        <polygon
           id="polygon4953"
           points="75.155,188.482 85.699,188.482 85.699,192.484 71.066,192.484 71.066,172.041 85.262,172.041 85.262,176.041 75.155,176.041 75.155,179.574 81.025,179.574 81.025,183.547 75.155,183.547 "
           style="fill:#251f21" />
        <g
           id="g4955">
          <path
             id="path4957"
             d="m 103.304,192.484 -7.507,-11.158 c -0.496,-0.758 -1.168,-1.781 -1.43,-2.307 0,0.76 0.058,3.33 0.058,4.469 l 0,8.996 -4.031,0 0,-20.443 3.914,0 7.244,10.805 c 0.495,0.76 1.168,1.783 1.431,2.307 0,-0.76 -0.059,-3.328 -0.059,-4.469 l 0,-8.643 4.031,0 0,20.443 -3.651,0 z"
             inkscape:connector-curvature="0"
             style="fill:#251f21" />
          <path
             id="path4959"
             d="m 119.397,192.805 c -2.775,0 -5.259,-1.197 -6.864,-2.832 l 1.52,-1.695 c 1.547,1.49 3.328,2.455 5.432,2.455 2.717,0 4.411,-1.344 4.411,-3.506 0,-1.898 -1.14,-2.979 -4.878,-4.322 -4.41,-1.578 -5.9,-3.008 -5.9,-5.959 0,-3.27 2.571,-5.229 6.396,-5.229 2.746,0 4.498,0.818 6.222,2.191 l -1.461,1.781 c -1.489,-1.227 -2.862,-1.898 -4.906,-1.898 -2.804,0 -3.973,1.402 -3.973,3.008 0,1.695 0.76,2.658 4.849,4.121 4.527,1.635 5.93,3.152 5.93,6.191 -10e-4,3.213 -2.514,5.694 -6.778,5.694"
             inkscape:connector-curvature="0"
             style="fill:#251f21" />
        </g>
        <polygon
           id="polygon4961"
           points="143.69,172.041 145.969,172.041 145.969,192.484 143.69,192.484 143.69,182.846 133.526,182.846 133.526,192.484 131.248,192.484 131.248,172.041 133.526,172.041 133.526,180.773 143.69,180.773 "
           style="fill:#251f21" />
        <rect
           id="rect4963"
           height="20.443001"
           width="2.277"
           y="172.041"
           x="151.832"
           style="fill:#251f21" />
        <polygon
           id="polygon4965"
           points="171.979,174.111 162.252,174.111 162.252,180.889 167.859,180.889 167.859,182.963 162.252,182.963 162.252,192.484 159.975,192.484 159.975,172.041 171.979,172.041 "
           style="fill:#251f21" />
        <polygon
           id="polygon4967"
           points="176.066,174.113 182.083,174.113 182.083,192.484 184.361,192.484 184.361,174.113 190.379,174.113 190.379,172.039 176.066,172.039 "
           style="fill:#251f21" />
      </g>
    </g>
    <g
       id="g5199"
       transform="matrix(2.7361454,0,0,2.7361454,458.08071,239.34044)"
       inkscape:transform-center-x="-5347.2098"
       inkscape:transform-center-y="1618.2345">
      <linearGradient
         y2="68.6623"
         x2="36.204601"
         y1="2.1503999"
         x1="36.204601"
         gradientUnits="userSpaceOnUse"
         id="SVGID_1_">
        <stop
           id="stop5202"
           style="stop-color:#60EFFF"
           offset="0" />
        <stop
           id="stop5204"
           style="stop-color:#1F89C7"
           offset="1" />
      </linearGradient>
      <path
         id="path5206"
         d="M 36.287,0.137 36.295,0.074 36.264,0.113 36.252,0.101 36.262,0 36.205,0.056 36.148,0 36.159,0.101 36.146,0.113 36.116,0.074 36.123,0.137 0,35.447 14.307,55.714 25.357,53.176 36.205,68.431 47.055,53.176 58.105,55.714 66.966,43.16 72.41,35.447 36.287,0.137 Z M 35.108,4.282 30.174,50.52 20.532,37.369 35.108,4.282 Z M 20.059,36.725 13.991,28.448 35.057,2.683 20.059,36.725 Z m 9.908,14.682 -4.313,0.99 -7.251,-10.193 1.807,-4.104 9.757,13.307 z m 6.125,-49.356 0.113,-0.258 0.114,0.257 5.102,49.711 -0.015,-0.01 -4.999,7.387 -5.409,-7.396 -0.007,0.004 5.101,-49.695 z m 6.145,48.47 -4.934,-46.24 14.576,33.087 -9.642,13.153 z m 9.964,-12.42 1.808,4.104 -7.251,10.193 -4.312,-0.99 9.755,-13.307 z M 37.355,2.684 58.42,28.448 52.353,36.725 37.355,2.684 Z M 14.605,54.935 0.907,35.53 32.779,4.374 13.114,28.425 l 6.623,9.03 -2.127,4.83 7.312,10.28 -10.317,2.37 z m 21.6,12.3 -10.119,-14.226 4.326,-0.992 0.072,0.099 -0.045,0.034 5.988,8.191 L 41.979,52.14 41.931,52.108 42,52.017 46.324,53.009 36.205,67.235 Z M 66.4,42.762 57.806,54.935 47.489,52.566 54.801,42.286 52.674,37.456 59.296,28.426 39.633,4.374 71.504,35.53 66.4,42.762 Z"
         inkscape:connector-curvature="0"
         style="fill:url(#SVGID_1_)" />
    </g>
    <g
       transform="matrix(1.25,0,0,-1.25,40.232317,-478.14154)"
       inkscape:label="ink_ext_XXXXXX"
       id="g4938">
      <g
         transform="scale(0.1,0.1)"
         id="g4940">
        <path
           inkscape:connector-curvature="0"
           id="path4942"
           style="fill:#e25a1c;fill-opacity:1;fill-rule:evenodd;stroke:none"
           d="m 2840.22,800.078 c -2.68,5.723 -3.89,8.61 -5.35,11.379 -38.9,73.957 -77.71,147.969 -116.96,221.743 -3.96,7.41 -3.47,11.82 1.95,18.15 61.87,72.28 123.42,144.85 185.04,217.35 2.16,2.54 4.11,5.26 4.94,9.78 -18.02,-4.71 -36.04,-9.36 -54.04,-14.13 -74.76,-19.81 -149.54,-39.56 -224.23,-59.64 -6.97,-1.87 -10.13,0.17 -13.59,5.94 -42.45,70.91 -85.14,141.67 -127.78,212.46 -2.21,3.68 -4.58,7.25 -9.27,10.34 -3.43,-18.89 -6.92,-37.77 -10.28,-56.67 -11.88,-66.72 -23.72,-133.46 -35.56,-200.19 -1.29,-7.2 -3.07,-14.37 -3.68,-21.63 -0.6,-6.89 -4.13,-9.43 -10.36,-11.39 -88.11,-27.66 -176.13,-55.59 -264.15,-83.49 -3.87,-1.22 -7.64,-2.8 -11.79,-6.57 72.01,-28.62 144.02,-57.237 217.14,-86.295 -2.66,-2.113 -4.39,-3.738 -6.34,-5.008 -45.02,-29.129 -90.11,-58.141 -135.02,-87.422 -5.37,-3.5 -9.64,-3.996 -15.68,-1.277 -53.77,24.215 -107.75,47.972 -161.6,72.023 -24.18,10.797 -45.93,25.141 -62.87,45.856 -38.29,46.843 -30.73,100.133 20.29,132.683 16.7,10.65 35.65,18.64 54.56,24.81 86.29,28.11 172.91,55.22 259.49,82.42 7.25,2.27 10.62,5.52 11.97,13.38 11.53,66.79 23.5,133.51 35.53,200.2 6.44,35.66 9.86,72.24 27.22,104.92 6.66,12.56 14.65,24.87 24.15,35.4 34.36,38.14 82.33,39.62 118.67,3.28 12.26,-12.26 22.81,-26.73 31.92,-41.57 40.04,-65.27 79.42,-130.96 118.59,-196.76 4.63,-7.78 8.81,-9.35 17.38,-7.05 96.54,25.88 193.18,51.36 289.82,76.89 19.93,5.26 40.09,7.2 60.55,3.37 44.54,-8.34 64.01,-42.25 48.94,-85.27 -6.86,-19.61 -18.69,-36.16 -32,-51.8 -67.43,-79.3 -134.75,-158.69 -202.41,-237.79 -5.53,-6.46 -5.65,-11.14 -1.82,-18.36 40.36,-76.077 80.37,-152.339 120.53,-228.527 9.61,-18.242 16.94,-37.16 17.16,-58.101 0.48,-47.629 -34.35,-86.606 -81.68,-93.543 -26.51,-3.895 -51.14,1.769 -75.98,9.441 -60.53,18.711 -121.17,37.11 -181.84,55.356 -5.62,1.683 -7.77,3.882 -8.76,9.941 -6.98,42.695 -14.59,85.297 -21.95,127.934 -0.21,1.172 0.14,2.437 0.32,5.047 69.07,-19.055 137.54,-37.942 208.83,-57.61" />
        <path
           inkscape:connector-curvature="0"
           id="path4944"
           style="fill:#3c3a3e;fill-opacity:1;fill-rule:evenodd;stroke:none"
           d="m 2722.2,178.23 c -54.59,0.098 -109.18,0.348 -163.78,0.129 -7.2,-0.019 -11.29,2.082 -15.31,8.211 -64.63,98.442 -129.55,196.692 -194.42,294.981 -2.07,3.129 -4.27,6.148 -7.94,11.41 -13.97,-106.16 -27.62,-209.949 -41.3,-314 -47.77,0 -94.59,0 -142.96,0 1.67,13.93 3.14,27.391 4.9,40.801 13.96,106.59 27.97,213.179 41.98,319.758 13.38,101.839 26.72,203.679 40.3,305.5 0.4,3.039 2.42,6.875 4.9,8.488 49.19,32.074 98.55,63.871 147.91,95.691 0.72,0.469 1.72,0.524 4.27,1.246 -14.93,-113.871 -29.75,-226.851 -44.57,-339.836 0.59,-0.398 1.17,-0.8 1.76,-1.211 77.44,85.844 154.89,171.688 234,259.372 2.29,-13.2 4.27,-24.497 6.21,-35.801 5.55,-32.367 10.87,-64.781 16.81,-97.082 1.2,-6.508 -0.53,-10.559 -4.87,-15.086 -50.08,-52.41 -99.97,-105 -149.9,-157.539 -2.18,-2.293 -4.27,-4.672 -6.75,-7.391 1.59,-2.551 2.95,-5 4.56,-7.269 86.13,-120.891 172.26,-241.762 258.46,-362.602 1.56,-2.191 3.81,-3.91 5.74,-5.852 0,-0.636 0,-1.277 0,-1.918" />
        <path
           inkscape:connector-curvature="0"
           id="path4946"
           style="fill:#3c3a3e;fill-opacity:1;fill-rule:evenodd;stroke:none"
           d="m 1027.64,492.488 c -2.18,11.141 -3.74,27.5 -8.69,42.782 -23.938,73.871 -99.735,114.378 -178.188,96.117 -86.063,-20.028 -147.567,-87.688 -156.465,-175.508 -6.586,-64.957 28.394,-127.539 93.433,-151.027 52.399,-18.93 102.848,-11.012 149.688,17.078 62.086,37.25 95.762,92.55 100.222,170.558 z M 649.703,217.922 C 645.457,186.141 641.406,156.191 637.465,126.219 632.23,86.3789 627.008,46.5313 621.992,6.67188 621.406,2.01953 619.996,-0.03125 615,0 575.73,0.160156 536.461,0.121094 497.195,0.179688 c -0.894,0 -1.789,0.492187 -3.918,1.089842 2.375,18.80857 4.684,37.67187 7.153,56.51957 8.664,66.0819 17.308,132.1719 26.101,198.2419 10.055,75.547 18.02,151.457 30.895,226.52 22.804,132.914 135.562,247.457 267.879,275.976 76.711,16.547 150.125,8.891 217.095,-34.273 66.79,-43.047 105.1,-105.516 113.83,-184.094 12.35,-111.101 -28.54,-203.332 -107.46,-279.629 -51.793,-50.09 -113.805,-81.922 -185.332,-92.679 -73.684,-11.114 -142.946,1.179 -205.102,44.617 -2.285,1.59 -4.723,2.98 -8.633,5.453" />
        <path
           inkscape:connector-curvature="0"
           id="path4948"
           style="fill:#3c3a3e;fill-opacity:1;fill-rule:evenodd;stroke:none"
           d="m 585.711,849.512 c -44.039,-32.785 -86.496,-64.387 -129.137,-96.129 -6.871,10.844 -13.027,21.644 -20.215,31.695 -18.5,25.852 -41.476,45.168 -74.894,47.512 -27.793,1.949 -51.563,-7.207 -70.481,-27.699 -16.921,-18.325 -19.132,-44.379 -3.32,-65.075 17.406,-22.781 36.457,-44.394 55.91,-65.484 32.246,-34.961 65.953,-68.582 97.992,-103.73 29.153,-31.973 52.391,-67.852 59.567,-111.571 8.535,-51.972 -1.832,-101.472 -26.418,-147.152 -45.496,-84.527 -117.141,-133.57 -211.723,-148.918 -41.769,-6.77 -83.426,-5.422 -124.183,6.578 C 84.7188,185.461 47.0703,220.91 22.8594,270.969 14.3047,288.668 7.76172,307.34 0,326.309 c 47.3555,25.339 93.3555,49.961 140.031,74.941 1.629,-3.891 2.766,-7.129 4.285,-10.16 7.957,-15.93 14.473,-32.852 24.332,-47.512 29.235,-43.469 76.457,-56.699 124.364,-35.207 12.304,5.52 24.156,13.309 34.25,22.258 30.871,27.402 36.66,65.551 13.808,100.031 -13.129,19.809 -29.55,37.57 -45.535,55.32 -38.203,42.43 -77.961,83.5 -115.281,126.692 -25.727,29.769 -43.207,64.488 -48.738,104.363 -6.043,43.535 2.664,84.617 25.32,121.27 56.324,91.105 138.172,138.5 246.43,134.574 61.718,-2.238 110.863,-31.098 149.011,-79.051 11.289,-14.183 21.868,-28.933 33.434,-44.316" />
        <path
           inkscape:connector-curvature="0"
           id="path4950"
           style="fill:#3c3a3e;fill-opacity:1;fill-rule:evenodd;stroke:none"
           d="m 1631.44,360.398 c -7.18,-54.878 -13.95,-107.039 -20.99,-159.16 -0.36,-2.636 -2.43,-6.226 -4.68,-7.277 -106.56,-49.352 -246.88,-42.461 -334.39,56.918 -47.02,53.391 -66.75,116.762 -63.8,187.262 6.82,163.199 142.13,305.668 303.94,325.574 94.54,11.633 177.45,-13.902 241.5,-87.34 43.62,-50.031 63.8,-109.773 60.82,-175.703 -1.96,-43.551 -8.79,-86.91 -14.21,-130.262 -7.68,-61.398 -16.07,-122.719 -24.18,-184.07 -0.29,-2.18 -0.73,-4.34 -1.22,-7.11 -42.19,0 -84.13,0 -127.48,0 1.7,14.098 3.25,27.899 5.04,41.668 9.23,70.864 19.38,141.614 27.47,212.602 5.04,44.211 1.87,88.09 -18.35,129.039 -21.51,43.52 -57.57,66.539 -105,71.57 -98.16,10.391 -191.55,-57.82 -212.49,-154.418 -13.83,-63.769 7.97,-124.89 58.75,-158.679 49.5,-32.934 102.51,-33.043 156.45,-11.684 27.35,10.82 50.65,27.953 72.82,51.07" />
        <path
           inkscape:connector-curvature="0"
           id="path4952"
           style="fill:#3c3a3e;fill-opacity:1;fill-rule:evenodd;stroke:none"
           d="m 2168.23,751.324 c -5.82,-44.199 -11.55,-87.738 -17.41,-132.179 -26.95,0 -53.38,0.156 -79.8,-0.055 -21.41,-0.168 -40.95,-13.988 -47.38,-33.981 -2.52,-7.82 -3.45,-16.187 -4.53,-24.39 -13.41,-101.489 -26.72,-202.981 -40.03,-304.481 -3.36,-25.59 -6.63,-51.199 -9.99,-77.179 -44.22,0 -87.81,0 -132.69,0 2.48,19.519 4.82,38.402 7.29,57.261 8.63,65.782 17.26,131.539 26,197.289 7.55,56.903 14.28,113.93 23.17,170.621 11.92,75.997 87.53,143.485 164.22,146.821 36.59,1.59 73.31,0.273 111.15,0.273" />
        <path
           inkscape:connector-curvature="0"
           id="path4954"
           style="fill:#3c3a3e;fill-opacity:1;fill-rule:nonzero;stroke:none"
           d="m 2878.63,179.059 0,56.011 -0.32,0 -21.98,-56.011 -7.01,0 -21.98,56.011 -0.33,0 0,-56.011 -11.07,0 0,67.089 17.09,0 20.03,-50.968 19.71,50.968 16.94,0 0,-67.089 -11.08,0 z m -97.38,58.121 0,-58.121 -11.07,0 0,58.121 -21.01,0 0,8.968 53.09,0 0,-8.968 -21.01,0" />
        <path
           inkscape:connector-curvature="0"
           id="path4956"
           style="fill:#3c3a3e;fill-opacity:1;fill-rule:nonzero;stroke:none"
           d="m 763.457,943.719 32.898,0 -7.757,49.808 -25.141,-49.808 z m 38.063,-32.18 -54.735,0 -17.387,-34.059 -38.761,0 85.5,159.73 37.367,0 29.113,-159.73 -35.933,0 -5.164,34.059" />
        <path
           inkscape:connector-curvature="0"
           id="path4958"
           style="fill:#3c3a3e;fill-opacity:1;fill-rule:nonzero;stroke:none"
           d="m 997.352,1005.04 -19.5,0 -6.563,-36.876 19.484,0 c 11.757,0 21.157,7.738 21.157,22.313 0,9.633 -5.89,14.563 -14.578,14.563 z m -47.215,32.17 51.223,0 c 26.78,0 45.56,-15.97 45.56,-43.444 0,-34.536 -24.43,-57.782 -59.197,-57.782 l -22.075,0 -10.347,-58.504 -33.34,0 28.176,159.73" />
        <path
           inkscape:connector-curvature="0"
           id="path4960"
           style="fill:#3c3a3e;fill-opacity:1;fill-rule:nonzero;stroke:none"
           d="m 1160.22,943.719 32.9,0 -7.76,49.808 -25.14,-49.808 z m 38.06,-32.18 -54.73,0 -17.39,-34.059 -38.76,0 85.5,159.73 37.36,0 29.12,-159.73 -35.93,0 -5.17,34.059" />
        <path
           inkscape:connector-curvature="0"
           id="path4962"
           style="fill:#3c3a3e;fill-opacity:1;fill-rule:nonzero;stroke:none"
           d="m 1414.67,883.125 c -11.27,-5.164 -23.71,-8.234 -36.17,-8.234 -42.27,0 -68.83,31.722 -68.83,71.422 0,50.746 42.75,93.497 93.5,93.497 12.68,0 24.2,-3.05 33.59,-8.22 l -4.7,-38.301 c -7.04,7.761 -18.33,13.161 -32.42,13.161 -29.12,0 -54.96,-26.321 -54.96,-56.848 0,-23.25 14.56,-41.356 37.59,-41.356 14.1,0 27.71,5.406 36.87,12.922 l -4.47,-38.043" />
        <path
           inkscape:connector-curvature="0"
           id="path4964"
           style="fill:#3c3a3e;fill-opacity:1;fill-rule:nonzero;stroke:none"
           d="m 1618.52,941.848 -69.53,0 -11.29,-64.368 -33.34,0 28.18,159.73 33.36,0 -11.27,-63.183 69.53,0 11.26,63.183 33.36,0 -28.17,-159.73 -33.36,0 11.27,64.368" />
        <path
           inkscape:connector-curvature="0"
           id="path4966"
           style="fill:#3c3a3e;fill-opacity:1;fill-rule:nonzero;stroke:none"
           d="m 1740.85,877.48 28.17,159.73 88.57,0 -5.64,-32.17 -55.21,0 -5.62,-31.013 50.72,0 -5.62,-32.179 -50.75,0 -5.64,-32.184 55.21,0 -5.64,-32.184 -88.55,0" />
      </g>
    </g>
    <path
       inkscape:connector-curvature="0"
       style="fill:#000000"
       d="m 155.83032,7.5164143 c -7.28224,-5.72769 -15.05037,-11.21929 -20.3586,-18.9521103 -11.16948,-13.63667 -19.76945,-29.42496 -25.64874,-46.0165 -3.55363,-10.78861 -4.77068,-22.35533 -9.35178,-32.72705 -4.792289,-7.53305 0.82122,-15.767904 9.07272,-18.162424 3.67374,-0.70511 10.13333,-4.17026 2.33595,-1.69354 -6.99059,5.12887 -7.66713,-4.65561 -0.49882,-5.27517 4.89202,-0.65025 6.69289,-4.65505 5.01996,-8.26025 -5.25132,-3.42447 12.73374,-7.18801 3.68438,-12.2978 -9.42699,-10.17067 13.18634,-12.12855 7.60728,-0.57779 -1.33545,8.88206 15.80123,-1.62791 11.82512,8.62895 4.04128,4.92569 15.13356,1.1211 14.85838,8.03139 5.88709,0.40468 7.90756,5.35806 13.43399,5.73834 5.72759,2.58656 16.1108,4.6248 18.0598,11.07915 -5.68242,4.498764 -18.84089,-9.29267 -19.47305,3.160404 1.71659,18.39608 1.27926,37.34644 8.00986,54.86499 3.18353,10.60758 10.9012,18.95778 17.87109,27.21945 6.66875,8.0912603 15.70186,13.7871503 24.90885,18.58338029 8.07647,3.80901001 16.78383,6.33528001 25.58583,7.92044001 3.5701,-2.7307 9.87303,-12.8828 15.44238,-8.60188001 0.26423,4.81007001 -11.0541,10.05511971 -0.53248,9.52350001 6.17819,-1.86378 10.46336,4.7780297 15.55099,-1.21289 4.68719,5.5520597 19.48197,-3.54734 16.14693,7.8011497 -4.50972,2.90955 -11.08689,1.15142 -15.60404,5.15397 -7.44757,-3.71979 -13.37691,3.32843 -21.6219,2.43707 -9.15641,1.64002 -18.4716,2.30204 -27.75473,2.31642 -15.22952,-1.20328 -30.78158,-1.71049 -45.26969,-7.01291 -8.16166,-2.37161 -16.12649,-7.01887 -23.29968,-11.6682897 z m 12.86204,5.5728997 c 7.9696,3.44651 15.76243,7.07889 24.49656,8.17457 13.85682,1.92727 28.16653,4.89163 42.07301,2.18757 -6.2939,-2.84199 -12.80077,1.10719 -19.07096,-2.0322 -7.52033,1.61821 -15.59049,-0.41223 -23.23574,-1.41189 -8.69395,-3.87259 -18.0762,-6.53549 -26.21772,-11.5621897 -10.17316,-3.71578 5.26142,4.7652397 8.00873,5.4521397 6.35952,3.60969 -6.99343,-1.85044 -8.87589,-3.35101 -5.32648,-2.9878997 -6.00529,-2.3635697 -0.52745,0.67085 1.10332,0.64577 2.19359,1.32226 3.34946,1.87216 z M 153.52766,2.3724043 c 7.72278,2.86052 -0.0341,-5.43082 -3.57294,-4.94904 -1.56791,-2.72015 -5.9903,-4.43854 -2.87072,-5.89973 -5.61153,1.9481 -5.87832,-7.4081403 -8.51601,-6.0713903 -5.93651,-1.87454 -2.31049,-8.51501 -9.38193,-12.59292 -0.64548,-4.29697 -7.02577,-8.02393 -9.0608,-14.50525 -0.89878,-3.31842 -7.20833,-12.84782 -3.33237,-3.97926 3.3002,8.53746 9.10662,15.84878 13.93868,23.15174 3.75209,6.95328 8.1825,14.2202603 15.01577,18.5578803 2.30344,2.20963 4.52745,5.59533 7.78032,6.28797 z m -22.2477,-24.4262103 c 0.26956,-1.16626 1.41242,2.52422 0,0 z m 31.49641,27.8552603 c 1.71013,-0.76577 -2.45912,-0.96476 0,0 z m 4.19228,1.52924 c -0.43419,-2.1116 -1.91376,1.18074 0,0 z m 5.24749,2.18891 c 2.49828,-2.37871 -3.85009,-1.49983 0,0 z m 8.99389,5.0127397 c 1.51811,-2.2439 -4.85872,-0.84682 0,0 z M 163.93933,2.4930143 c 3.88031,-2.51023001 -5.01186,-0.0347 0,0 z m 3.9366,1.96293 c -0.11004,-1.32709 -1.40297,0.59432 0,0 z m 19.67473,12.2800597 c 3.16281,1.99601 18.46961,4.3749 8.88477,0.81847 -1.60377,0.33811 -17.77263,-4.57336 -8.88477,-0.81847 z m -31.2343,-24.3261497 c -0.30751,-1.33094 -4.90934,-1.4694 0,0 z m 9.1593,5.33813 c 2.38371,-1.66255 -4.94757,-1.28235 0,0 z m 7.70426,4.72382 c 3.42065,-1.28963 -5.54907,-1.29571 0,0 z M 152.58933,-11.649306 c 3.71137,2.8462103 14.96768,0.36473 5.68377,-1.69906 -4.22551,-2.2524 -13.74889,-3.79415 -7.25757,1.35821 l 1.57379,0.34088 1e-5,-3e-5 z m 25.80872,15.7521603 c 1.54595,-2.63388 -6.48298,-1.50411 0,0 z m -7.84249,-6.23284 c 9.0752,2.56718999 -7.63142,-5.739 -2.23911,-0.94466 l 1.19513,0.54082 1.04399,0.4039 -10e-6,-6e-5 z m 15.72354,9.0878 c 8.59474,0.082 -7.76304,-1.18486 0,1e-5 l 0,-1e-5 z M 149.28238,-16.621906 c -0.33569,-1.60094 -2.12096,0.13419 0,0 z m 51.5354,31.73502 c 0.2292,-2.89141 -2.80486,2.15157 0,0 z M 163.94961,-7.6398757 c -0.51986,-1.52251 -2.68548,-0.0622 0,0 z m -13.85213,-9.9864903 c 4.93424,-0.29629 -6.75532,-2.17418 0,0 z m -16.40969,-10.60705 c -0.61415,-2.36536 -5.36922,-4.2519 0,0 z m 43.07932,27.33941029 c -0.90373,-1.03069999 -0.4251,0.22546 0,0 z M 203.58119,15.560744 c -0.086,-1.57503 -1.46039,0.59616 0,0 z M 174.39407,-3.3445357 c 0.48266,-2.02932 -4.20741,-0.61442 0,0 z M 154.41801,-16.004496 c 3.67079,-0.39305 -5.88043,-2.48161 0,0 z m 33.79135,20.9971403 c 5.72042,-2.26627 -5.57541,-1.10635 0,0 z m -17.57682,-11.93145 c 6.59278,0.85002 -7.84442,-4.4842503 -1.44651,-0.4773 l 1.4465,0.47734 1e-5,-4e-5 z m 22.91296,14.0886 c 6.15514,-3.67975 4.12588,8.6167697 10.44254,1.0388 6.23086,-4.54942 -5.38086,5.6245097 2.29838,0.81116 5.55359,-3.71438 13.75643,1.7607497 18.93848,3.5471997 3.72659,-0.18307 7.34938,3.22236 11.16973,1.15059 7.3542,-1.98082 -14.38097,-2.93789 -8.68344,-6.4522997 -6.72914,1.95848 -11.70093,-2.33483 -15.01213,-6.64508001 -7.54812,-1.74297999 -16.27548,-5.60199999 -20.04257,-12.28184029 -1.5359,-2.50802 2.21884,0.35333 -1.32586,-3.74638 -4.54834,-4.04546 -6.81948,-8.63766 -9.87278,-13.5552 -3.64755,-1.94587 -4.07249,-7.67345 -4.44123,-0.19201 0.0289,-4.72164 -4.40393,-7.89964 -5.48589,-6.57859 -0.0194,-4.54721 4.74396,-2.26787 1.40945,-5.63228 -0.71771,-4.71301 -3.08085,-9.62409 -3.79115,-14.94529 -1.1036,-2.56502 -0.15541,-8.05863 -3.76662,-2.25204 -1.31566,6.13669 -0.43668,-7.54129 1.6093,-3.03083 2.68543,-4.60251 -0.9641,-4.0612 -1.11361,-3.42211 1.74931,-3.88333 1.10719,-9.39159 -0.45644,-7.29023 0.93213,-4.11586 1.47259,-15.14753 -1.3951,-13.19258 1.73833,-4.30396 3.29668,-19.694084 -4.24961,-13.82632 -3.05836,0.0429 -8.35454,1.11019 -10.85803,2.35524 7.8495,4.32686 -0.78955,1.56258 -3.98481,0.87488 -0.41634,4.00364 -3.58119,2.27208 -7.53512,2.31134 6.31527,0.78134 -3.07526,6.45896 -6.69814,4.2535 -4.7051,2.24876 4.06063,7.86204 0.0944,9.59759 0.48744,2.61658 -7.20822,-0.94491 -6.60383,5.09771 -4.56774,-1.92155 -0.62896,7.16796 1.65628,4.09382 7.76888,2.10261 5.4691,6.89631 5.66694,11.44992 -1.26583,2.6534 -6.24949,-6.23691 -1.10994,-5.82517 -4.05471,-6.58674 -4.48523,-2.38081 -7.85456,0.67911 -0.78386,0.22222 8.5944,4.35376 2.70906,6.3967 5.17788,0.79894 5.3252,5.33008 6.37928,8.19735 3.11219,3.24152 2.47523,-3.57931 6.19907,0.31623 -2.35649,-3.4705 -12.48183,-9.77839 -4.32957,-7.7553 -0.0436,-3.49291 -1.47441,-6.30951 1.02322,-6.24118 2.47337,-4.47926 -2.59038,11.044 2.98473,5.35124 1.54328,-0.67388 1.92554,-4.48494 4.69954,0.35989 4.0291,3.96363 1.45533,6.83577 -4.22816,3.20648 1.01683,3.44946 7.60306,4.68217 6.36535,10.07646 1.3121,4.74439 3.14784,2.99694 4.748,2.72265 1.25523,4.60973 1.96801,1.2201 2.02756,-0.97355 5.74735,1.23033 4.40114,4.62773 6.19945,7.00134 3.96042,1.78761 -5.66869,-12.11712 1.13066,-4.18106 7.15358,6.4586 2.6828,9.15464 -3.73685,8.11995 4.06313,-0.32824 5.37342,5.49305 10.45569,5.28853 4.63456,2.20477 7.77237,10.67291 -0.21613,7.1478 -2.77074,-2.49821 -12.57573,-5.5801 -4.56731,-0.82823 7.39657,3.42523 13.27117,5.47432 20.40487,9.77384 5.10535,3.6446403 7.31104,7.8190803 9.24607,8.6454103 -4.29084,2.04945999 -12.93089,-1.63655 -6.51514,-2.76618 -4.00168,-0.72894 -8.50258,-2.75259 -4.66961,2.2333 3.25926,2.72126999 11.54708,2.43297999 13.0328,2.74131999 -1.25934,2.77488001 -3.4207,2.99556001 0.0516,3.21078001 -3.87375,2.06438 1.24216,2.38403 1.60114,3.56362 z M 185.624,-15.220136 c -2.35682,-2.46475 -2.9662,-7.08134 -0.41852,-3.06426 1.30648,0.52466 4.18523,7.54428 0.41857,3.06426 l -5e-5,0 z m 25.79733,16.3869303 c 1.47004,-0.0952 0.0427,1.11681 0,0 z M 181.90266,-21.263596 c -0.0904,-3.72637 0.8525,2.87419 0,0 z m -2.56392,-3.44965 c -2.96446,-5.72787 3.73721,1.62212 0,0 z m -31.07069,-21.44494 c 1.7416,-0.46446 0.85684,2.97864 0,0 z m 24.72829,13.40356 c 1.06957,-4.01654 1.25692,3.37014 0,0 z m -17.46979,-12.14747 c -1.23154,-2.21638 2.57601,2.07864 0,0 z m 14.99279,4.80617 c -2.80851,-6.29222 1.98836,-3.43698 0.62135,1.03124 l -0.62135,-1.03124 0,0 z m -25.85518,-17.24278 c -1.25563,-2.06432 -3.33267,-8.12135 -2.66399,-9.97042 0.60494,3.0114 6.40392,12.95956 2.84458,4.12096 -3.93339,-7.40908 4.7018,2.40491 5.59005,4.2529 0.41362,1.83837 -2.42679,-0.50225 -0.50219,3.80828 -3.50981,-4.90766 -2.07197,2.71088 -5.26845,-2.21172 z m -7.9907,-5.50612 c 0.32893,-4.79981 1.82926,3.29132 0,0 z m 3.59429,1.23728 c 1.71517,-3.62282 2.90824,5.05052 0,0 z m -8.64616,-6.68847 c -2.97496,-2.95622 -5.12781,-5.68132 0.13919,-1.83474 2.02948,0.0792 -4.509,-6.19705 0.48875,-1.99305 5.25531,0.95822 2.5951,8.61674 -0.62794,3.82779 z m 4.54172,-0.11873 c 1.72764,-1.71203 0.91717,1.6853 0,0 z m 2.79458,0.8959 c -2.61918,-4.9094 3.1788,2.05822 0,0 z m -5.55546,-5.30909 c -8.64844,-7.69651 10.86731,4.02451 1.4129,1.4269 l -1.41295,-1.42683 5e-5,-7e-5 z m 24.77908,14.39717 c -3.7425,-2.24398 -0.99177,-15.79747 0.28451,-6.52785 3.63829,-1.17695 -0.20088,4.78728 2.51278,4.73208 -0.42767,3.76305 -1.64169,5.11594 -2.79729,1.79577 z m 9.16521,5.41684 c 0.36705,-4.08462 0.77249,2.79262 0,0 z m -1.59198,-1.57295 c 0.41206,-1.74497 0.0426,2.05487 0,0 z m -30.65577,-20.77015 c -5.55605,-7.66566 16.14732,7.75413 3.55855,1.9443 -1.31543,-0.34404 -2.89821,-0.46688 -3.55855,-1.9443 z m 17.64911,9.35749 c -0.52578,-6.45461 1.17417,1.06991 -1.9e-4,-2e-5 l 1.9e-4,2e-5 z m 13.39976,8.59585 c 1.03698,-3.67668 0.0773,2.43221 0,0 z m -30.19776,-20.87894 c 3.30218,-0.70629 13.6847,5.79939 4.15023,1.85832 -1.0594,-1.17279 -3.3178,-0.63994 -4.15023,-1.85832 z m 28.35675,14.13312 c 0.35296,-6.60002 1.97138,-3.94233 0.0122,0.94474 l -0.0121,-0.94473 -5e-5,-1e-5 z m -25.89866,-16.42974 c 1.34546,-1.97361 -3.57163,-8.92306 0.70879,-2.4928 1.84955,1.46961 5.35511,2.46196 2.26002,3.08022 4.86775,4.29416 -1.18724,1.16361 -2.96881,-0.58742 z m 24.49612,14.36816 c 0.92952,-7.51843 0.81971,4.40485 0,0 z m -27.30614,-21.31236 c 1.02771,-0.43921 0.54275,1.36934 0,0 z m 6.38963,3.80309 c 1.64441,-3.45052 3.03351,3.8483 0,0 z m 18.02355,10.02628 c -0.0174,-1.3252 0.34003,1.92765 0,0 z m -1.04404,-2.31139 c -2.50161,-6.17165 2.32693,3.26759 0,0 z m -1.536,-4.04637 c -0.41991,-2.55019 1.42713,3.20386 -8e-5,-1e-5 l 8e-5,1e-5 z m 2.49977,-4.06352 c -1.71663,-3.02512 2.16777,-13.33107 2.60122,-6.93941 -1.81185,4.98025 -0.52268,7.7663 0.74129,1.08638 2.33417,-5.25716 -0.50421,10.37406 -3.34255,5.85306 l 4e-5,-3e-5 z m 2.56889,-15.32665 c 0.74833,-0.918924 0.16609,1.10709 0,0 z m -4.29002,84.53423 c -1.01755,-0.88802 0.12778,0.56506 0,0 z m 8.83773,4.47065 c 4.91599,1.2613503 4.89086,-0.76487 0.44782,-1.36683 -2.3898,-2.22316 -9.93048,-4.58124 -3.18119,-0.27586 0.44699,1.13227 1.85944,1.10589 2.73337,1.64269 z m -17.45419,-11.59298 c 2.70824,2.01956 10.20121,5.72375 3.85818,0.76868 2.13859,-2.48467 -4.09333,-3.80722 -2.02606,-5.46927 -5.25818,-3.21755 -4.14797,-2.93133 -0.46412,-2.8301 -6.31938,-2.82462 0.91217,-2.61333 0.57167,-4.06067 -2.43671,-0.48126 -12.10308,-4.29664 -6.4164,0.31341 -5.78089,-2.94751 -1.3776,1.09799 -3.12488,0.67029 -5.91134,-1.61178 5.26439,4.50224 -0.93884,2.98448 3.39132,2.6875 9.1283,6.88393 1.43378,2.84407 -1.01381,1.45934 5.50627,3.67136 7.10667,4.77911 z m 9.24319,5.31013 c 11.23877,3.62163 -5.51002,-4.4246 0,0 z m 47.3164,28.66432 c 0.14496,-2.2296497 -1.53604,1.90201 0,0 z m 4.86324,2.04679 c 2.59297,-2.51255 0.106,4.00222 4.29655,-0.61509 0.0453,-3.30544 -0.12904,-5.2578297 -4.81563,-1.24252 -1.29194,0.71648 -1.86871,3.76288 0.51908,1.85761 z m -77.19852,-48.48212 c -0.79636,-3.1304 -5.58195,-3.11418 0,0 z m 5.19303,3.40294 c -1.9284,-3.19739 -6.88053,-2.89469 0,0 z m 29.54337,17.81697 c 2.8844,2.56199 13.24761,1.87984 3.50331,0.31527 -1.44321,-2.13386 -9.16415,-1.6203 -3.50331,-0.31527 z m 40.61236,25.08153 c 4.43933,-3.7251197 -4.30122,1.66183 0,0 z m 9.2328,6.34473 c 0.0277,-1.19543 -1.91352,0.52338 0,0 z m 0.0142,-1.6736 c 4.91602,-5.20866 -4.76346,0.30807 -4e-5,0 l 4e-5,0 z m -97.36833,-61.66554 c -4.18994,-5.97826 -2.60459,-8.66544 -6.64514,-13.54677 -0.76491,-3.73279 -6.93167,-12.20326 -3.18958,-3.22947 3.42754,5.24836 4.44606,13.37434 9.83472,16.77624 z m 95.82635,60.00976 c 9.04429,-5.8457497 -3.7125,-2.54641 0,0 z m 6.9041,2.70461 c 4.52911,-3.88867 -2.86491,-0.81334 0,0 z m -91.49717,-58.62939 c 1.29621,-1.92837 -3.34764,-0.24666 0,0 z m 90.0556,56.78275 c 4.38526,-2.82746 -1.01036,-2.39335 -0.79483,0.26003 l 0.79484,-0.26003 -1e-5,0 z m -59.51386,-37.51178 c -0.15075,-1.90924 -2.31574,0.16206 0,0 z m 3.67794,2.11629 c -1.16888,-2.36318 -1.79716,0.37121 0,0 z m 62.8725,37.30625 c 5.61806,-4.05283 -3.4056,-0.77594 -1.17927,0.76785 l 1.17927,-0.76785 0,0 z m -2.15131,-1.03979 c 4.57663,-3.83506 -4.83183,1.69954 0,0 z m 10.99163,7.31983 c 3.0728,-2.05816 -3.73316,-0.66575 0,0 z m -103.11434,-66.36412 c 4.11896,0.92286 16.46039,10.1439 9.17946,0.63772 -3.72899,-1.10383 -1.4926,-10.21905 -5.29621,-8.60578 2.55298,4.2649 2.10047,6.08018 -3.25964,3.3914 -6.73681,-3.28853 -3.78589,1.6297 -2.46929,2.98518 -1.79419,0.40772 2.37323,1.55719 1.84568,1.59148 z m -18.76588,-14.82025 c 0.73741,-3.04991 -6.78982,-16.77881 -3.55447,-6.87916 1.16787,2.07373 1.04913,6.00387 3.55447,6.87916 z m 34.44345,21.23512 c -2.12099,-1.77378 -0.10079,-0.25103 0,0 z m 5.223,1.21548 c -0.003,-3.23079 -5.77326,-1.31196 0,0 z m 45.26147,28.5332103 c -0.86326,-2.20739 -3.41229,-0.0512 8e-5,4e-5 l -8e-5,-4e-5 z m 2.17351,1.58769 c -0.32087,-1.23546 -1.25399,0.23848 0,0 z m 17.94015,11.3001 c 1.72546,-1.27472 -2.15318,-0.1628 0,0 z M 125.70446,-54.916746 c 4.93524,-1.91072 -5.28775,-1.36248 0,0 z m 71.56973,45.0893603 c -0.0549,-3.1949903 -3.14622,0.79264 0,0 z M 123.75455,-59.460596 c 3.17017,-1.07084 -2.93266,-0.70531 0,0 z m 9.20153,4.45726 c -0.0575,-1.05014 -0.97333,0.39747 0,0 z m 112.23141,68.8218 c 4.0765,-0.8265 13.36606,2.07489 14.86752,-1.08086 -4.95044,-0.12019 -17.12734,-3.4926297 -17.70346,0.80479 l 1.08368,0.17072 1.75226,0.10534 0,1e-5 z m -109.30693,-68.08482 c 0.0709,-3.23755 -2.52467,-0.12092 0,0 z m -24.19316,-16.78229 c -1.09871,-6.16843 -4.17879,-0.93357 0,0 z m 5.76919,1.45013 c 0.0709,-1.9807 -5.28056,-1.78224 0,0 z m 3.29692,1.61923 c -0.95302,-0.77196 -0.74596,0.97521 0,0 z m 20.74472,13.30775 c 0.97661,-0.89718 -2.31212,-0.66455 0,0 z m -22.94063,-16.95964 c -0.55762,-4.65897 -6.682,-0.69805 0,0 z m -11.82776,-7.67451 c -0.16822,-2.15019 -1.15262,0.81111 0,0 z m 1.75934,-1.32867 c -0.28703,-2.54959 -1.51052,0.32438 0,0 z m 9.72079,5.80244 c 4.11048,-1.61465 -7.48726,-3.33984 -0.83989,-0.30506 l 0.83989,0.30506 z m 130.0976,80.3591203 c 2.63092,-2.4121 -3.34373,-0.74577 0,0 z m 15.71669,8.1469097 c 1.05433,-3.1186 -2.65452,0.41058 0,0 z m -144.82085,-93.60102 c 0.43302,-3.01678 -3.25876,0.59902 0,0 z m -13.83032,-9.2662 c -0.74297,-4.25911 -0.64134,-11.735064 6.46513,-9.20858 -9.48596,1.88334 6.56534,11.79009 4.53836,3.96836 3.98862,0.1953 7.80267,-2.35728 5.70948,1.5164 7.85876,-0.86795 13.30713,-7.682614 20.89817,-6.72768 5.91306,-0.782494 12.37818,-1.375954 18.75026,-3.756154 5.23905,-0.37743 10.28235,-6.01806 7.41068,-9.36139 -7.14456,-0.60451 -14.62339,0.2894 -22.52011,1.859 -8.75056,1.81911 -16.69902,5.2753 -25.52813,6.75886 -8.60589,1.15604 1.731,3.18517 -0.73407,3.63723 -4.49068,1.558144 5.35549,2.608854 -0.58218,4.251434 -3.667,-0.69724 -7.48387,-1.95719 -5.91749,-5.821524 -8.24369,1.06972 -15.487529,4.491124 -8.97451,12.880144 l 0.4844,0.004 1e-5,-2.5e-4 z m 19.86429,-10.1168 c 1.93285,-7.120464 10.35523,5.85928 3.16805,0.94578 -0.85845,-0.64246 -2.2703,-1.16659 -3.16805,-0.94578 z m 0.37604,-3.452204 c 2.78966,-2.07825 1.48296,1.16516 0,0 z m 3.54221,0.0562 c 0.25183,-3.27648 8.10875,1.73455 1.29552,1.1795 l -1.29552,-1.1795 0,0 z m 4.84543,-1.94819 c 1.76948,-2.06753 0.50862,1.83906 0,0 z m 1.23956,-0.83005 c 2.94638,-3.54021 16.68561,-2.25941 6.62897,-0.34519 -2.69555,-2.02936 -4.7618,1.19658 -6.62897,0.34519 z m 17.93002,-2.76388 c -0.4482,-9.67023 8.90777,3.43647 0,0 z m 5.08754,-0.0278 c 1.86002,-4.87391 7.21807,-1.95578 0.86073,-0.97941 0.13805,0.51865 -0.18642,2.51617 -0.86073,0.97941 z m -41.06094,25.847244 c 5.55753,-3.40321 -5.89994,-2.95254 0,0 l 0,0 z m 4.10922,1.14186 c 1.94851,-2.07188 -4.23386,-0.84036 0,0 z m -12.10767,-8.59293 c 3.17557,-2.43942 -3.75784,-0.92747 0,0 z m 164.10239,102.66244 c 0.0918,-2.8301897 -2.42718,1.27537 0,0 z M 256.62631,1.4034343 c 0.47417,-3.25845 -2.14286,0.28408 0,0 z m 21.26022,12.4767197 c 4.43994,0.015 13.45265,-1.37884 3.79217,-1.37442 -1.51594,0.23641 -8.83311,0.18571 -3.79216,1.37439 l -1e-5,3e-5 z M 124.921,-83.283936 c 3.59326,-0.24681 5.62186,-3.96363 -0.69493,-3.74998 -9.78995,-1.01354 8.63751,3.35213 -1.2559,2.10383 -1.32937,0.88035 1.87361,1.88972 1.95083,1.64615 z m 3.16462,1.60175 c -0.37518,-2.30707 -1.11116,1.22559 0,0 z m 3.7539,-10.0099 c 1.55928,-1.93406 -2.1577,-0.51706 0,0 z M 119.8894,-111.66734 c 6.41288,-2.18163 15.18239,-4.63309 18.21033,1.07418 -3.08159,-3.70893 -1.24361,-7.36015 1.66696,-1.9374 4.11558,5.48667 6.17592,-2.49549 3.49909,-4.33582 3.05047,3.79024 6.52004,5.58128 2.04243,0.23956 4.86569,-5.85293 -9.74272,0.76643 -13.06311,0.69977 -1.59756,0.71707 -16.49357,3.79889 -12.3557,4.25971 z m 3.75831,-7.19783 c 3.65732,-2.76042 12.64897,1.64198 6.87908,-2.74337 -0.56412,-0.49829 -12.63608,3.32547 -6.87908,2.74337 z m 13.33349,0.55047 c 4.28039,0.10922 -1.84632,-5.75029 3.2543,-3.09516 -0.8377,-2.73663 -5.93856,-3.24896 -8.43232,-4.34231 -1.41047,2.50205 2.87098,7.4711 5.17802,7.43747 z m -10.99551,-12.10349 c 1.4808,-2.0074 -2.59521,1.0177 0,0 z m 5.44959,1.30435 c 6.89786,-0.9149 -1.7583,-2.97054 -1.38996,-0.0735 l 1.38996,0.0735 0,0 z m -10.17549,-7.96207 c -4.85687,-6.34021 9.13398,1.06577 4.19941,-5.57265 -4.15326,-3.30724 -8.1443,3.72178 -4.19941,5.57265 z m 62.33012,33.5728 c 2.22762,-3.94899 -9.19697,-5.32301 -1.5009,-1.39958 0.70858,0.23678 0.54821,1.6727 1.5009,1.39958 z"
       id="path2900" />
    <g
       id="g6163"
       transform="matrix(0.93779964,0,0,0.93779964,157.35615,74.687341)">
      <path
         d="m 184.61344,61.929363 c 0,-14.56215 -4.15226,-22.03817 -12.45678,-22.44755 -3.30427,-0.15595 -6.53055,0.37039 -9.66912,1.58878 -2.505,0.89673 -4.19124,1.78372 -5.07823,2.68045 l 0,34.75812 c 5.31216,3.33351 10.02976,4.88329 14.14303,4.63962 8.70415,-0.57508 13.0611,-7.64172 13.0611,-21.21942 z m 10.24419,0.60432 c 0,7.39804 -1.73498,13.53871 -5.22444,18.422 -3.88909,5.5266 -9.27923,8.37275 -16.17042,8.52871 -5.1952,0.1657 -10.54635,-1.46207 -16.05346,-4.87355 l 0,31.590317 -8.90884,-3.17755 0,-70.120567 c 1.46206,-1.79346 3.34325,-3.3335 5.62407,-4.63961 5.30242,-3.08983 11.74524,-4.67861 19.32848,-4.75658 l 0.12671,0.12671 c 6.93018,-0.08773 12.27159,2.75843 16.02422,8.5287 3.4992,5.29267 5.25368,12.07665 5.25368,20.37142 z"
         style="fill:#646464;fill-opacity:1"
         id="path46"
         inkscape:connector-curvature="0" />
      <path
         d="m 249.30487,83.265743 c 0,9.92254 -0.9942,16.794237 -2.9826,20.615097 -1.99816,3.82086 -5.79952,6.8717 -11.41385,9.14277 -4.55189,1.79346 -9.47417,2.76817 -14.75709,2.93387 l -1.47181,-5.61432 c 5.37064,-0.73103 9.15252,-1.46207 11.34561,-2.1931 4.31796,-1.46206 7.28108,-3.70389 8.90884,-6.706 1.30611,-2.446517 1.94942,-7.115367 1.94942,-14.026057 l 0,-2.3198 c -6.09193,2.76817 -12.47628,4.14251 -19.15303,4.14251 -4.38619,0 -8.25579,-1.37434 -11.58929,-4.14251 -3.74289,-3.01186 -5.61433,-6.83272 -5.61433,-11.46258 l 0,-37.07793 8.90884,-3.05084 0,37.3216 c 0,3.98656 1.28662,7.0569 3.85985,9.21101 2.57323,2.1541 5.90674,3.18729 9.99077,3.10932 4.08403,-0.08773 8.46047,-1.66676 13.10983,-4.75658 l 0,-43.54025 8.90884,0 0,48.41379 z"
         style="fill:#646464;fill-opacity:1"
         id="path48"
         inkscape:connector-curvature="0" />
      <path
         d="m 284.08249,88.997033 c -1.06243,0.08772 -2.03714,0.12671 -2.93387,0.12671 -5.03925,0 -8.96733,-1.19889 -11.77449,-3.60642 -2.79742,-2.40753 -4.20099,-5.73129 -4.20099,-9.97127 l 0,-35.08953 -6.10168,0 0,-5.60457 6.10168,0 0,-14.88381 8.89909,-3.16781 0,18.05162 10.01026,0 0,5.60457 -10.01026,0 0,34.84585 c 0,3.34325 0.89673,5.71179 2.6902,7.09588 1.54004,1.14041 3.98656,1.79347 7.32006,1.95917 l 0,4.63961 z"
         style="fill:#646464;fill-opacity:1"
         id="path50"
         inkscape:connector-curvature="0" />
      <path
         d="m 338.02288,88.266003 -8.90884,0 0,-34.38773 c 0,-3.49921 -0.81876,-6.51106 -2.44651,-9.02581 -1.88119,-2.84615 -4.49342,-4.26923 -7.84641,-4.26923 -4.08404,0 -9.19152,2.15411 -15.32242,6.46233 l 0,41.22044 -8.90885,0 0,-82.1972101 8.90885,-2.80716 0,37.4385701 c 5.6923,-4.14251 11.91093,-6.21864 18.66566,-6.21864 4.7176,0 8.53846,1.58877 11.46258,4.75658 2.93388,3.1678 4.39594,7.11537 4.39594,11.83296 l 0,37.1949 0,0 z"
         style="fill:#646464;fill-opacity:1"
         id="path52"
         inkscape:connector-curvature="0" />
      <path
         d="m 385.37424,60.525783 c 0,-5.59483 -1.06242,-10.21495 -3.17755,-13.87011 -2.51474,-4.45442 -6.42332,-6.80347 -11.70625,-7.04715 -9.76658,0.56534 -14.64012,7.56375 -14.64012,20.97574 0,6.15042 1.01369,11.28713 3.06057,15.41015 2.61223,5.25368 6.53056,7.84641 11.755,7.75869 9.80557,-0.07798 14.70835,-7.81717 14.70835,-23.22732 z m 9.75685,0.05848 c 0,7.96338 -2.03714,14.5914 -6.10168,19.88407 -4.47391,5.92623 -10.65357,8.89909 -18.53897,8.89909 -7.81716,0 -13.90909,-2.97286 -18.30503,-8.89909 -3.98656,-5.29267 -5.97497,-11.92069 -5.97497,-19.88407 0,-7.48576 2.15411,-13.78238 6.46232,-18.90935 4.5519,-5.43888 10.53661,-8.16806 17.93464,-8.16806 7.39805,0 13.42174,2.72918 18.06137,8.16806 4.3082,5.12697 6.46232,11.42359 6.46232,18.90935 z"
         style="fill:#646464;fill-opacity:1"
         id="path54"
         inkscape:connector-curvature="0" />
      <path
         d="m 446.20583,88.266003 -8.90884,0 0,-36.33715 c 0,-3.98656 -1.19889,-7.09588 -3.59667,-9.33772 -2.39779,-2.23208 -5.59483,-3.31401 -9.58139,-3.22628 -4.23023,0.07798 -8.25579,1.46206 -12.07664,4.14251 l 0,44.75864 -8.90884,0 0,-45.86006 c 5.12697,-3.73313 9.84456,-6.16991 14.15276,-7.31032 4.06455,-1.06243 7.65148,-1.58877 10.74131,-1.58877 2.11512,0 4.10352,0.20469 5.97496,0.61406 3.49921,0.80901 6.34535,2.31006 8.53845,4.51291 2.44651,2.43677 3.6649,5.3609 3.6649,8.78212 l 0,40.85006 z"
         style="fill:#646464;fill-opacity:1"
         id="path56"
         inkscape:connector-curvature="0" />
      <path
         id="path1948"
         d="m 60.510156,6.3979729 c -4.583653,0.021298 -8.960939,0.4122177 -12.8125,1.09375 C 36.35144,9.4962267 34.291407,13.691825 34.291406,21.429223 l 0,10.21875 26.8125,0 0,3.40625 -26.8125,0 -10.0625,0 c -7.792459,0 -14.6157592,4.683717 -16.7500002,13.59375 -2.46182,10.212966 -2.5710151,16.586023 0,27.25 1.9059283,7.937852 6.4575432,13.593748 14.2500002,13.59375 l 9.21875,0 0,-12.25 c 0,-8.849902 7.657144,-16.656248 16.75,-16.65625 l 26.78125,0 c 7.454951,0 13.406253,-6.138164 13.40625,-13.625 l 0,-25.53125 c 0,-7.266339 -6.12998,-12.7247775 -13.40625,-13.9375001 -4.605987,-0.7667253 -9.385097,-1.1150483 -13.96875,-1.09375 z m -14.5,8.2187501 c 2.769547,0 5.03125,2.298646 5.03125,5.125 -2e-6,2.816336 -2.261703,5.09375 -5.03125,5.09375 -2.779476,-1e-6 -5.03125,-2.277415 -5.03125,-5.09375 -1e-6,-2.826353 2.251774,-5.125 5.03125,-5.125 z"
         style="fill:url(#linearGradient1478);fill-opacity:1"
         inkscape:connector-curvature="0" />
      <path
         id="path1950"
         d="m 91.228906,35.054223 0,11.90625 c 0,9.230755 -7.825895,16.999999 -16.75,17 l -26.78125,0 c -7.335833,0 -13.406249,6.278483 -13.40625,13.625 l 0,25.531247 c 0,7.26634 6.318588,11.54032 13.40625,13.625 8.487331,2.49561 16.626237,2.94663 26.78125,0 6.750155,-1.95439 13.406253,-5.88761 13.40625,-13.625 l 0,-10.218747 -26.78125,0 0,-3.40625 26.78125,0 13.406254,0 c 7.79246,0 10.69625,-5.435408 13.40624,-13.59375 2.79933,-8.398886 2.68022,-16.475776 0,-27.25 -1.92578,-7.757441 -5.60387,-13.59375 -13.40624,-13.59375 l -10.062504,0 z m -15.0625,64.65625 c 2.779478,3e-6 5.03125,2.277417 5.03125,5.093747 -2e-6,2.82635 -2.251775,5.125 -5.03125,5.125 -2.76955,0 -5.03125,-2.29865 -5.03125,-5.125 2e-6,-2.81633 2.261697,-5.093747 5.03125,-5.093747 z"
         style="fill:url(#linearGradient1475);fill-opacity:1"
         inkscape:connector-curvature="0" />
      <path
         sodipodi:nodetypes="ccccccccccccccccccccccc"
         id="text3004"
         style="font-style:normal;font-weight:normal;font-size:15.16445827px;line-height:125%;font-family:'Bitstream Vera Sans';fill:#646464;fill-opacity:1;stroke:none;stroke-width:1px;stroke-linecap:butt;stroke-linejoin:miter;stroke-opacity:1"
         d="m 463.5544,26.909383 1.56195,0 0,-9.79624 3.70013,0 0,-1.16766 -8.96221,0 0,1.16766 3.70013,0 0,9.79624 m 6.64702,0 1.33447,0 0,-8.94703 2.89641,8.945906 1.48569,0 3.01816,-8.915576 0,8.9167 1.45579,0 0,-10.9639 -1.92589,0 -3.29831,9.392857 -2.81297,-9.392857 -2.15335,0 0,10.9639"
         inkscape:connector-curvature="0" />
      <ellipse
         transform="matrix(0.73406,0,0,0.809524,16.24958,27.00935)"
         id="path1894"
         style="opacity:0.44382025;fill:url(#radialGradient1480);fill-opacity:1;fill-rule:nonzero;stroke:none;stroke-width:20;stroke-miterlimit:4;stroke-dasharray:none;stroke-opacity:1"
         cx="61.518883"
         cy="132.28575"
         rx="48.948284"
         ry="8.6066771" />
    </g>
    <g
       id="g6204"
       transform="matrix(0.05875253,0,0,-0.05875253,6.1549286,553.72849)">
      <path
         d="M 2850,5093.75 1510.77,4622.45 1722.39,2867.82 2851.42,2247.28 3986.27,2876.23 4197.82,4630.79 2850,5093.75 Z"
         style="fill:#b3b3b3;fill-opacity:1;fill-rule:nonzero;stroke:none"
         id="path6206"
         inkscape:connector-curvature="0" />
      <path
         d="m 4064.25,4529.39 -1217.38,415.13 0,-2548.98 1020.22,564.62 197.16,1569.23 z"
         style="fill:#af2b2d;fill-opacity:1;fill-rule:nonzero;stroke:none"
         id="path6208"
         inkscape:connector-curvature="0" />
      <path
         d="m 1661.05,4521.89 181.34,-1569.22 1004.47,-557.13 0,2549.03 -1185.81,-422.68 z"
         style="fill:#df2e31;fill-opacity:1;fill-rule:nonzero;stroke:none"
         id="path6210"
         inkscape:connector-curvature="0" />
      <path
         d="m 3129.05,3676.7 -279.96,584.64 -246.46,-584.64 526.42,0 z m 106.74,-245.83 -742.11,0 -166.02,-415.26 -308.82,-5.71 828.04,1842.06 856.9,-1842.06 -286.23,0 -181.76,420.97 z"
         style="fill:#f2f2f2;fill-opacity:1;fill-rule:nonzero;stroke:none"
         id="path6212"
         inkscape:connector-curvature="0" />
      <path
         d="m 2846.87,4851.96 2.21,-590.62 279.67,-585.09 -281.25,0 -0.63,-245 388.9,-0.38 181.77,-421.04 295.49,-5.48 -866.16,1847.61 z"
         style="fill:#b3b3b3;fill-opacity:1;fill-rule:nonzero;stroke:none"
         id="path6214"
         inkscape:connector-curvature="0" />
    </g>
  </g>
</svg>
