<?xml version="1.0" encoding="UTF-8" standalone="no"?>
<!-- Created with Inkscape (http://www.inkscape.org/) -->

<svg
   xmlns:dc="http://purl.org/dc/elements/1.1/"
   xmlns:cc="http://creativecommons.org/ns#"
   xmlns:rdf="http://www.w3.org/1999/02/22-rdf-syntax-ns#"
   xmlns:svg="http://www.w3.org/2000/svg"
   xmlns="http://www.w3.org/2000/svg"
   xmlns:sodipodi="http://sodipodi.sourceforge.net/DTD/sodipodi-0.dtd"
   xmlns:inkscape="http://www.inkscape.org/namespaces/inkscape"
   width="331.65762"
   height="141.16222"
   viewBox="0 0 331.65761 141.16222"
   id="svg2"
   version="1.1"
   inkscape:version="0.91 r13725"
   sodipodi:docname="thanks.svg">
  <defs
     id="defs4">
    <clipPath
       id="clipPath4256"
       clipPathUnits="userSpaceOnUse">
      <path
         inkscape:connector-curvature="0"
         id="path4258"
         d="m 0,551.986 530.973,0 L 530.973,0 0,0 0,551.986 Z" />
    </clipPath>
  </defs>
  <sodipodi:namedview
     id="base"
     pagecolor="#b50000"
     bordercolor="#666666"
     borderopacity="1.0"
     inkscape:pageopacity="0"
     inkscape:pageshadow="2"
     inkscape:zoom="1.4"
     inkscape:cx="237.99959"
     inkscape:cy="45.405266"
     inkscape:document-units="px"
     inkscape:current-layer="layer1"
     showgrid="true"
     showguides="false"
     inkscape:window-width="1916"
     inkscape:window-height="1054"
     inkscape:window-x="1920"
     inkscape:window-y="4"
     inkscape:window-maximized="1"
     fit-margin-top="6"
     fit-margin-left="6"
     fit-margin-right="6.6"
     fit-margin-bottom="6"
     units="px">
    <inkscape:grid
       type="xygrid"
       id="grid3336"
       originx="365.28751"
       originy="-644.18829" />
  </sodipodi:namedview>
  <metadata
     id="metadata7">
    <rdf:RDF>
      <cc:Work
         rdf:about="">
        <dc:format>image/svg+xml</dc:format>
        <dc:type
           rdf:resource="http://purl.org/dc/dcmitype/StillImage" />
        <dc:title></dc:title>
      </cc:Work>
    </rdf:RDF>
  </metadata>
  <g
     inkscape:label="Layer 1"
     inkscape:groupmode="layer"
     id="layer1"
     transform="translate(365.28751,-267.01164)">
    <g
       id="g5797">
      <path
         d="m -338.43312,273.01164 c -11.35172,0 -20.55681,9.20304 -20.55681,20.55647 0,9.08254 5.89015,16.78811 14.058,19.50637 1.02737,0.19025 1.40454,-0.44601 1.40454,-0.98897 0,-0.49019 -0.0191,-2.10953 -0.0279,-3.82725 -5.71892,1.24352 -6.92569,-2.42544 -6.92569,-2.42544 -0.93511,-2.37608 -2.28246,-3.00788 -2.28246,-3.00788 -1.86512,-1.27587 0.14059,-1.24965 0.14059,-1.24965 2.06426,0.14467 3.1512,2.11838 3.1512,2.11838 1.83346,3.14269 4.809,2.23413 5.98206,1.70887 0.1845,-1.32829 0.71725,-2.23583 1.30514,-2.74883 -4.56595,-0.51981 -9.36576,-2.28246 -9.36576,-10.15926 0,-2.24434 0.80303,-4.07814 2.11804,-5.51774 -0.21343,-0.51811 -0.91707,-2.60858 0.19914,-5.44013 0,0 1.72624,-0.55249 5.65459,2.10715 1.63977,-0.45547 3.39834,-0.68389 5.14533,-0.69172 1.747,0.008 3.50693,0.23625 5.14976,0.69172 3.92359,-2.65964 5.64744,-2.10715 5.64744,-2.10715 1.11893,2.83155 0.41496,4.92202 0.20152,5.44013 1.31808,1.4396 2.11566,3.2734 2.11566,5.51774 0,7.89552 -4.809,9.63401 -9.38652,10.14292 0.73733,0.63793 1.39433,1.88895 1.39433,3.80683 0,2.75019 -0.0238,4.96389 -0.0238,5.64131 0,0.54704 0.37002,1.18801 1.41203,0.98618 8.16342,-2.72126 14.04609,-10.42411 14.04609,-19.50358 0,-11.35343 -9.20373,-20.55647 -20.55648,-20.55647"
         style="fill:#ffffff;fill-opacity:1;fill-rule:evenodd;stroke:none"
         id="path4929"
         inkscape:connector-curvature="0" />
      <text
         sodipodi:linespacing="125%"
         id="text5663"
         y="303.71011"
         x="-302.48407"
         style="font-style:normal;font-variant:normal;font-weight:normal;font-stretch:normal;font-size:30px;line-height:125%;font-family:Overpass;-inkscape-font-specification:Overpass;letter-spacing:0px;word-spacing:0px;fill:#ffffff;fill-opacity:1;stroke:none;stroke-width:1px;stroke-linecap:butt;stroke-linejoin:miter;stroke-opacity:1"
         xml:space="preserve"><tspan
           y="303.71011"
           x="-302.48407"
           id="tspan5665"
           sodipodi:role="line">elmiko</tspan></text>
    </g>
    <text
       xml:space="preserve"
       style="font-style:normal;font-variant:normal;font-weight:normal;font-stretch:normal;font-size:30px;line-height:125%;font-family:Overpass;-inkscape-font-specification:Overpass;letter-spacing:0px;word-spacing:0px;fill:#ffffff;fill-opacity:1;stroke:none;stroke-width:1px;stroke-linecap:butt;stroke-linejoin:miter;stroke-opacity:1"
       x="-361.5434"
       y="396.1387"
       id="text5663-9"
       sodipodi:linespacing="125%"><tspan
         sodipodi:role="line"
         id="tspan5665-6"
         x="-361.5434"
         y="396.1387">https://elmiko.github.io</tspan></text>
    <g
       id="g5790"
       transform="translate(0,-0.3874588)">
      <g
         transform="matrix(0.16690101,0,0,0.16690101,-371.82181,307.64534)"
         id="Logo__x2014__FIXED">
        <g
           id="g5749">
          <path
             id="path5751"
             d="m 153.6,301.6 c 94.3,0 145.9,-78.2 145.9,-145.9 0,-2.2 0,-4.4 -0.1,-6.6 10,-7.2 18.7,-16.3 25.6,-26.6 -9.2,4.1 -19.1,6.8 -29.5,8.1 10.6,-6.3 18.7,-16.4 22.6,-28.4 -9.9,5.9 -20.9,10.1 -32.6,12.4 -9.4,-10 -22.7,-16.2 -37.4,-16.2 -28.3,0 -51.3,23 -51.3,51.3 0,4 0.5,7.9 1.3,11.7 -42.6,-2.1 -80.4,-22.6 -105.7,-53.6 -4.4,7.6 -6.9,16.4 -6.9,25.8 0,17.8 9.1,33.5 22.8,42.7 -8.4,-0.3 -16.3,-2.6 -23.2,-6.4 0,0.2 0,0.4 0,0.7 0,24.8 17.7,45.6 41.1,50.3 -4.3,1.2 -8.8,1.8 -13.5,1.8 -3.3,0 -6.5,-0.3 -9.6,-0.9 6.5,20.4 25.5,35.2 47.9,35.6 -17.6,13.8 -39.7,22 -63.7,22 -4.1,0 -8.2,-0.2 -12.2,-0.7 22.6,14.4 49.6,22.9 78.5,22.9"
             class="st1"
             inkscape:connector-curvature="0"
             style="fill:#ffffff" />
        </g>
      </g>
      <text
         sodipodi:linespacing="125%"
         id="text5663-1"
         y="351.67496"
         x="-302.79169"
         style="font-style:normal;font-variant:normal;font-weight:normal;font-stretch:normal;font-size:30px;line-height:125%;font-family:Overpass;-inkscape-font-specification:Overpass;letter-spacing:0px;word-spacing:0px;fill:#ffffff;fill-opacity:1;stroke:none;stroke-width:1px;stroke-linecap:butt;stroke-linejoin:miter;stroke-opacity:1"
         xml:space="preserve"><tspan
           y="351.67496"
           x="-302.79169"
           id="tspan5665-0"
           sodipodi:role="line">@FOSSjunkie</tspan></text>
    </g>
  </g>
  <style
     id="style5743"
     type="text/css">
	.st0{opacity:0.15;fill:#292F33;}
	.st1{fill:#FFFFFF;}
</style>
</svg>
